<svg xmlns="http://www.w3.org/2000/svg" width="1000" height="700" fill="none" viewBox="0 0 1000 700"><path fill="#FCFCFF" d="M0 0h1000v700H0z"/><rect width="520" height="104" x="240" y="298" fill="#F2F2F2" rx="7.429"/><g stroke="#E8E8E8" stroke-width="1.486" clip-path="url(#a)"><path d="M423.677 431.217 615.334 218.76M572.248 431.217 763.906 218.76M497.963 431.217 689.62 218.76M646.534 431.217 838.191 218.76M460.82 431.217 652.477 218.76M609.391 431.217 801.048 218.76M535.106 431.217 726.763 218.76M683.677 431.217 875.334 218.76M431.106 431.217 622.763 218.76M579.677 431.217 771.334 218.76M505.391 431.217 697.048 218.76M653.963 431.217 845.62 218.76M468.248 431.217 659.906 218.76M616.82 431.217 808.477 218.76M542.534 431.217 734.191 218.76M691.106 431.217 882.763 218.76M438.534 431.217 630.191 218.76M587.106 431.217 778.763 218.76M512.82 431.217 704.477 218.76M661.391 431.217 853.048 218.76M475.677 431.217 667.334 218.76M624.248 431.217 815.906 218.76M549.963 431.217 741.62 218.76M698.534 431.217 890.191 218.76M445.963 431.217 637.62 218.76M594.534 431.217 786.191 218.76M520.248 431.217 711.906 218.76M668.82 431.217 860.477 218.76M483.106 431.217 674.763 218.76M631.677 431.217 823.334 218.76M557.391 431.217 749.048 218.76M705.963 431.217 897.62 218.76M453.391 431.217 645.048 218.76M601.963 431.217 793.62 218.76M527.677 431.217 719.334 218.76M676.248 431.217 867.906 218.76M490.534 431.217 682.191 218.76M639.106 431.217 830.763 218.76M564.82 431.217 756.477 218.76M713.391 431.217 905.048 218.76M713.391 438.645l191.657-212.457M719.334 438.645l191.657-212.457"/></g><mask id="b" width="520" height="104" x="240" y="298" maskUnits="userSpaceOnUse" style="mask-type:alpha"><rect width="520" height="104" x="240" y="298" fill="#8072FC" rx="7.429"/></mask><g mask="url(#b)"><path fill="#13234A" d="M559.985 365.295c-1.966 0-3.736-.337-5.309-1.011-1.574-.703-2.81-1.686-3.709-2.95-.899-1.264-1.348-2.739-1.348-4.425h5.141c.112 1.264.604 2.304 1.475 3.118.899.815 2.149 1.223 3.75 1.223 1.658 0 2.95-.394 3.877-1.18.927-.815 1.391-1.855 1.391-3.119 0-.983-.295-1.784-.885-2.402-.562-.618-1.278-1.095-2.149-1.432-.843-.338-2.023-.703-3.54-1.096-1.91-.506-3.47-1.011-4.678-1.517-1.179-.534-2.191-1.349-3.034-2.444-.842-1.096-1.264-2.557-1.264-4.383 0-1.685.422-3.16 1.264-4.425.843-1.264 2.023-2.233 3.54-2.907 1.517-.674 3.273-1.012 5.268-1.012 2.837 0 5.155.717 6.953 2.15 1.826 1.404 2.837 3.343 3.034 5.815h-5.31c-.084-1.068-.59-1.981-1.517-2.739-.927-.759-2.149-1.138-3.666-1.138-1.377 0-2.5.351-3.371 1.054-.871.702-1.307 1.713-1.307 3.034 0 .899.267 1.643.801 2.233.562.562 1.264 1.011 2.107 1.348.843.338 1.995.703 3.456 1.096 1.938.534 3.511 1.068 4.719 1.601 1.236.534 2.276 1.363 3.119 2.487.871 1.095 1.306 2.57 1.306 4.424 0 1.489-.407 2.894-1.222 4.214-.787 1.321-1.953 2.388-3.498 3.203-1.517.787-3.315 1.18-5.394 1.18Zm20.586-4.172h9.903V365h-14.707v-29.287h4.804v25.41Zm33.094-22.713h-14.116v8.386c.59-.787 1.46-1.447 2.612-1.981a8.992 8.992 0 0 1 3.751-.801c2.36 0 4.27.506 5.731 1.517 1.489 1.012 2.542 2.29 3.16 3.835.646 1.545.969 3.175.969 4.888 0 2.079-.407 3.933-1.222 5.563-.786 1.601-1.98 2.865-3.581 3.792-1.574.927-3.512 1.391-5.816 1.391-3.062 0-5.52-.759-7.374-2.276s-2.964-3.525-3.329-6.026h4.677c.309 1.321.997 2.374 2.065 3.161 1.068.758 2.402 1.138 4.003 1.138 1.995 0 3.484-.604 4.467-1.812 1.012-1.208 1.517-2.81 1.517-4.804 0-2.023-.505-3.568-1.517-4.636-1.011-1.095-2.5-1.643-4.467-1.643-1.376 0-2.542.351-3.497 1.053-.927.675-1.602 1.602-2.023 2.782h-4.551v-17.741h18.541v4.214Zm26.577-.422L628.527 365h-4.846l11.841-26.506h-15.591v-4.088h20.311v3.582Z"/><path fill="#888" d="M240 298h371.429v104H240z"/><path fill="#fff" d="M308.879 365.295c-1.967 0-3.737-.337-5.31-1.011-1.574-.703-2.81-1.686-3.709-2.95-.899-1.265-1.349-2.74-1.349-4.425h5.142c.112 1.264.604 2.303 1.475 3.118.899.815 2.149 1.222 3.751 1.222 1.657 0 2.95-.393 3.877-1.18.927-.814 1.39-1.854 1.39-3.118 0-.984-.295-1.784-.885-2.402-.562-.619-1.278-1.096-2.149-1.433-.843-.337-2.023-.703-3.54-1.096-1.91-.506-3.47-1.011-4.678-1.517-1.18-.534-2.191-1.349-3.034-2.444-.843-1.096-1.264-2.557-1.264-4.383 0-1.686.421-3.161 1.264-4.425.843-1.265 2.023-2.234 3.54-2.908 1.517-.674 3.273-1.012 5.268-1.012 2.837 0 5.155.717 6.953 2.15 1.827 1.404 2.838 3.343 3.035 5.815h-5.31c-.085-1.067-.59-1.98-1.517-2.739-.928-.758-2.15-1.138-3.667-1.138-1.377 0-2.5.351-3.371 1.054-.871.702-1.307 1.714-1.307 3.034 0 .899.267 1.644.801 2.234.562.562 1.264 1.011 2.107 1.348.843.337 1.995.703 3.456 1.096 1.938.534 3.512 1.068 4.72 1.601 1.236.534 2.276 1.363 3.118 2.487.871 1.096 1.307 2.571 1.307 4.425 0 1.489-.408 2.894-1.222 4.214-.787 1.321-1.953 2.388-3.498 3.203-1.517.787-3.315 1.18-5.394 1.18Zm39.172-29.584V365h-4.804v-12.811h-13.781V365h-4.804v-29.289h4.804v12.558h13.781v-12.558h4.804Zm19.684 29.584c-2.725 0-5.24-.632-7.544-1.896-2.275-1.293-4.087-3.077-5.436-5.353-1.32-2.303-1.981-4.888-1.981-7.754 0-2.866.661-5.436 1.981-7.712 1.349-2.276 3.161-4.046 5.436-5.31 2.304-1.292 4.819-1.939 7.544-1.939 2.753 0 5.268.647 7.544 1.939a13.908 13.908 0 0 1 5.436 5.31c1.32 2.276 1.981 4.846 1.981 7.712 0 2.866-.661 5.451-1.981 7.754a14.217 14.217 0 0 1-5.436 5.353c-2.276 1.264-4.791 1.896-7.544 1.896Zm0-4.172c1.939 0 3.666-.436 5.184-1.307 1.517-.899 2.697-2.163 3.54-3.792.871-1.658 1.306-3.569 1.306-5.732 0-2.163-.435-4.06-1.306-5.689-.843-1.63-2.023-2.88-3.54-3.751-1.518-.871-3.245-1.306-5.184-1.306s-3.666.435-5.184 1.306c-1.517.871-2.711 2.121-3.582 3.751-.843 1.629-1.264 3.526-1.264 5.689 0 2.163.421 4.074 1.264 5.732.871 1.629 2.065 2.893 3.582 3.792 1.518.871 3.245 1.307 5.184 1.307Zm57.828-25.412L416.881 365h-5.436l-6.153-22.167L398.76 365l-5.395.042-8.302-29.331h5.1l6.068 23.853 6.574-23.853h5.395l6.11 23.726 6.111-23.726h5.142Zm13.308 14.581c0-2.866.66-5.436 1.981-7.712 1.348-2.276 3.16-4.046 5.436-5.31 2.304-1.292 4.818-1.939 7.544-1.939 3.118 0 5.885.773 8.302 2.318 2.444 1.517 4.214 3.681 5.31 6.49h-5.774c-.758-1.545-1.812-2.697-3.161-3.455-1.348-.759-2.907-1.138-4.677-1.138-1.939 0-3.667.435-5.184 1.306-1.517.871-2.711 2.121-3.582 3.751-.843 1.629-1.264 3.526-1.264 5.689 0 2.163.421 4.06 1.264 5.689.871 1.63 2.065 2.894 3.582 3.793 1.517.871 3.245 1.307 5.184 1.307 1.77 0 3.329-.38 4.677-1.138 1.349-.759 2.403-1.911 3.161-3.456h5.774c-1.096 2.81-2.866 4.973-5.31 6.49-2.417 1.517-5.184 2.276-8.302 2.276-2.754 0-5.268-.632-7.544-1.897-2.276-1.292-4.088-3.076-5.436-5.352-1.321-2.275-1.981-4.846-1.981-7.712Zm47.555 15.003c-2.725 0-5.239-.632-7.543-1.896-2.276-1.293-4.088-3.077-5.437-5.353-1.32-2.303-1.98-4.888-1.98-7.754 0-2.866.66-5.436 1.98-7.712 1.349-2.276 3.161-4.046 5.437-5.31 2.304-1.292 4.818-1.939 7.543-1.939 2.754 0 5.268.647 7.544 1.939a13.902 13.902 0 0 1 5.436 5.31c1.321 2.276 1.981 4.846 1.981 7.712 0 2.866-.66 5.451-1.981 7.754a14.21 14.21 0 0 1-5.436 5.353c-2.276 1.264-4.79 1.896-7.544 1.896Zm0-4.172c1.939 0 3.667-.436 5.184-1.307 1.517-.899 2.697-2.163 3.54-3.792.871-1.658 1.306-3.569 1.306-5.732 0-2.163-.435-4.06-1.306-5.689-.843-1.63-2.023-2.88-3.54-3.751s-3.245-1.306-5.184-1.306c-1.938 0-3.666.435-5.183 1.306s-2.711 2.121-3.582 3.751c-.843 1.629-1.265 3.526-1.265 5.689 0 2.163.422 4.074 1.265 5.732.871 1.629 2.065 2.893 3.582 3.792 1.517.871 3.245 1.307 5.183 1.307Zm29.255-25.412c3.119 0 5.844.604 8.176 1.812 2.36 1.18 4.172 2.894 5.436 5.141 1.293 2.22 1.939 4.819 1.939 7.797 0 2.978-.646 5.563-1.939 7.754-1.264 2.191-3.076 3.877-5.436 5.057-2.332 1.152-5.057 1.728-8.176 1.728h-9.566v-29.289h9.566Zm0 25.37c3.428 0 6.055-.927 7.881-2.782 1.826-1.854 2.739-4.467 2.739-7.838 0-3.4-.913-6.055-2.739-7.965-1.826-1.911-4.453-2.866-7.881-2.866h-4.762v21.451h4.762Zm25.117-21.493v8.597h10.114v3.919h-10.114v8.977h11.378V365h-16.183v-29.331h16.183v3.919h-11.378Z"/></g><defs><clipPath id="a"><rect width="335.771" height="104" x="424.229" y="298" fill="#fff" rx="7.429"/></clipPath></defs></svg>