<svg xmlns="http://www.w3.org/2000/svg" width="1000" height="700" fill="none" viewBox="0 0 1000 700"><path fill="#FCFCFF" d="M0 0h1000v700H0z"/><rect width="453.457" height="118" x="273" y="291" fill="#F2F2F2" rx="8.429"/><g stroke="#E8E8E8" stroke-width="1.686" clip-path="url(#a)"><path d="M481.403 442.15 698.86 201.093M649.974 442.15l217.457-241.057M565.688 442.15l217.458-241.057M523.546 442.15l217.457-241.057M692.117 442.15l217.457-241.057M607.831 442.15l217.457-241.057M489.831 442.15l217.457-241.057M658.403 442.15 875.86 201.093M574.117 442.15l217.457-241.057M531.974 442.15l217.457-241.057M700.546 442.15l217.457-241.057M616.26 442.15l217.457-241.057M498.26 442.15l217.457-241.057M666.831 442.15l217.457-241.057M582.546 442.15l217.457-241.057M540.403 442.15 757.86 201.093M708.974 442.15l217.457-241.057M624.688 442.15l217.458-241.057M506.688 442.15l217.458-241.057M675.26 442.15l217.457-241.057M590.974 442.15l217.457-241.057M548.831 442.15l217.457-241.057M717.403 442.15 934.86 201.093M633.117 442.15l217.457-241.057M515.117 442.15l217.457-241.057M683.688 442.15l217.458-241.057M599.403 442.15 816.86 201.093M557.26 442.15l217.457-241.057M725.831 442.15l217.457-241.057M641.546 442.15l217.457-241.057"/></g><mask id="b" width="454" height="118" x="273" y="291" maskUnits="userSpaceOnUse" style="mask-type:alpha"><rect width="453.457" height="118" x="273" y="291" fill="#8072FC" rx="8.429"/></mask><g mask="url(#b)"><path fill="#13234A" d="m148.299 349.348 9.103 14.623h-5.395l-6.616-10.62-6.195 10.62h-5.352l9.103-14.623-9.145-14.666h5.394l6.659 10.704 6.237-10.704h5.352l-9.145 14.666Zm16.4 8.091c2.697-2.332 4.818-4.242 6.364-5.731 1.573-1.517 2.879-3.091 3.919-4.72 1.039-1.63 1.559-3.259 1.559-4.889 0-1.685-.407-3.006-1.222-3.961-.787-.955-2.037-1.433-3.751-1.433-1.657 0-2.95.534-3.877 1.601-.899 1.04-1.377 2.445-1.433 4.215h-4.635c.084-3.203 1.039-5.647 2.865-7.333 1.855-1.714 4.2-2.571 7.038-2.571 3.062 0 5.451.843 7.164 2.529 1.742 1.685 2.613 3.933 2.613 6.743 0 2.022-.52 3.975-1.559 5.857a23.244 23.244 0 0 1-3.666 5.015c-1.405 1.461-3.203 3.161-5.395 5.1l-1.896 1.685h13.359v4.004h-20.481v-3.498l3.034-2.613Zm21.078.127v-3.625l14.16-20.312h5.815v19.765h3.92v4.172h-3.92v6.405h-4.72v-6.405h-15.255Zm15.466-19.049-9.946 14.877h9.946v-14.877Zm28.929 1.854c-.309-1.292-.87-2.261-1.685-2.907-.815-.647-1.953-.97-3.414-.97-2.219 0-3.877.857-4.973 2.571-1.095 1.686-1.671 4.495-1.728 8.429.731-1.237 1.799-2.192 3.203-2.866 1.405-.674 2.922-1.012 4.552-1.012 1.854 0 3.484.408 4.888 1.223 1.433.786 2.543 1.938 3.33 3.455.814 1.517 1.222 3.33 1.222 5.437 0 1.966-.394 3.722-1.18 5.268-.759 1.545-1.897 2.767-3.414 3.666-1.517.871-3.343 1.306-5.478 1.306-2.894 0-5.17-.632-6.828-1.896-1.629-1.292-2.781-3.105-3.455-5.436-.646-2.332-.97-5.24-.97-8.724 0-10.283 3.625-15.424 10.873-15.424 2.81 0 5.015.758 6.617 2.275 1.629 1.518 2.585 3.386 2.865 5.605h-4.425Zm-5.099 7.291c-1.714 0-3.175.52-4.383 1.559-1.18 1.012-1.77 2.487-1.77 4.425 0 1.939.548 3.484 1.644 4.636 1.124 1.124 2.683 1.686 4.678 1.686 1.77 0 3.16-.548 4.172-1.644 1.039-1.095 1.559-2.556 1.559-4.383 0-1.91-.506-3.427-1.517-4.551-.983-1.152-2.444-1.728-4.383-1.728Zm34.077-.969v4.046h-17.321v-4.046h17.321Zm5.561-9.061v-4.383h8.766v30.722h-4.847v-26.339h-3.919Zm34.836-.674-11.716 27.013h-4.846l11.842-26.507h-15.593v-4.088h20.313v3.582Zm25.942 6.153c-.759-1.461-1.812-2.557-3.161-3.287-1.349-.759-2.908-1.138-4.678-1.138-1.938 0-3.666.435-5.183 1.306-1.518.871-2.712 2.107-3.583 3.709-.842 1.601-1.264 3.455-1.264 5.563 0 2.107.422 3.975 1.264 5.605.871 1.601 2.065 2.837 3.583 3.708 1.517.871 3.245 1.307 5.183 1.307 2.613 0 4.734-.731 6.364-2.192 1.629-1.461 2.627-3.442 2.992-5.942h-10.999v-3.835h16.14v3.751a14.273 14.273 0 0 1-2.444 6.279c-1.292 1.91-2.992 3.442-5.099 4.594-2.079 1.123-4.397 1.685-6.954 1.685-2.753 0-5.268-.632-7.543-1.896-2.276-1.293-4.088-3.077-5.437-5.352-1.32-2.276-1.981-4.847-1.981-7.712 0-2.866.661-5.437 1.981-7.713 1.349-2.275 3.161-4.045 5.437-5.31 2.303-1.292 4.818-1.938 7.543-1.938 3.119 0 5.886.772 8.302 2.318 2.445 1.517 4.215 3.68 5.31 6.49h-5.773Zm30.319-8.429v3.919h-7.797v25.37h-4.804v-25.37h-7.838v-3.919h20.439Zm22.692 12.011v4.046h-17.321v-4.046H378.5Zm20.185 17.573c-2.726 0-5.24-.632-7.544-1.896-2.276-1.292-4.088-3.076-5.436-5.352-1.321-2.304-1.981-4.889-1.981-7.754 0-2.866.66-5.437 1.981-7.713 1.348-2.275 3.16-4.045 5.436-5.31 2.304-1.292 4.818-1.938 7.544-1.938 2.753 0 5.268.646 7.543 1.938a13.924 13.924 0 0 1 5.437 5.31c1.32 2.276 1.98 4.847 1.98 7.713 0 2.865-.66 5.45-1.98 7.754a14.21 14.21 0 0 1-5.437 5.352c-2.275 1.264-4.79 1.896-7.543 1.896Zm0-4.172c1.938 0 3.666-.435 5.183-1.306 1.517-.899 2.697-2.163 3.54-3.793.871-1.658 1.307-3.568 1.307-5.731 0-2.164-.436-4.06-1.307-5.69-.843-1.629-2.023-2.879-3.54-3.75s-3.245-1.307-5.183-1.307c-1.939 0-3.667.436-5.184 1.307-1.517.871-2.711 2.121-3.582 3.75-.843 1.63-1.264 3.526-1.264 5.69 0 2.163.421 4.073 1.264 5.731.871 1.63 2.065 2.894 3.582 3.793 1.517.871 3.245 1.306 5.184 1.306Zm28.116 4.257c-1.826 0-3.469-.323-4.93-.97-1.433-.674-2.571-1.573-3.414-2.697a6.82 6.82 0 0 1-1.348-3.835h4.972c.085.984.548 1.812 1.391 2.487.871.646 1.953.969 3.245.969 1.349 0 2.388-.253 3.119-.759.758-.533 1.138-1.208 1.138-2.022 0-.871-.422-1.518-1.265-1.939-.814-.421-2.121-.885-3.919-1.391-1.742-.477-3.161-.941-4.256-1.39a7.648 7.648 0 0 1-2.866-2.065c-.787-.928-1.18-2.15-1.18-3.667a5.62 5.62 0 0 1 1.096-3.371c.73-1.04 1.77-1.855 3.118-2.445 1.377-.59 2.95-.885 4.72-.885 2.641 0 4.762.675 6.364 2.023 1.629 1.321 2.5 3.133 2.613 5.437h-4.805c-.084-1.04-.505-1.869-1.264-2.487-.759-.618-1.784-.927-3.076-.927-1.265 0-2.234.239-2.908.717-.675.477-1.012 1.109-1.012 1.896 0 .618.225 1.138.675 1.559.449.422.997.759 1.643 1.012.646.224 1.602.519 2.866.885 1.686.449 3.062.913 4.13 1.39a7.472 7.472 0 0 1 2.823 2.023c.787.899 1.195 2.093 1.223 3.582 0 1.321-.366 2.501-1.096 3.54-.731 1.04-1.77 1.855-3.119 2.445-1.32.59-2.879.885-4.678.885Zm22.512 0c-1.826 0-3.469-.323-4.93-.97-1.433-.674-2.571-1.573-3.414-2.697a6.82 6.82 0 0 1-1.348-3.835h4.972c.085.984.548 1.812 1.391 2.487.871.646 1.953.969 3.245.969 1.349 0 2.388-.253 3.119-.759.758-.533 1.138-1.208 1.138-2.022 0-.871-.422-1.518-1.265-1.939-.815-.421-2.121-.885-3.919-1.391-1.742-.477-3.161-.941-4.256-1.39a7.648 7.648 0 0 1-2.866-2.065c-.787-.928-1.18-2.15-1.18-3.667a5.62 5.62 0 0 1 1.096-3.371c.73-1.04 1.77-1.855 3.118-2.445 1.377-.59 2.95-.885 4.72-.885 2.641 0 4.762.675 6.364 2.023 1.629 1.321 2.5 3.133 2.613 5.437h-4.805c-.084-1.04-.505-1.869-1.264-2.487-.759-.618-1.784-.927-3.076-.927-1.265 0-2.234.239-2.908.717-.675.477-1.012 1.109-1.012 1.896 0 .618.225 1.138.675 1.559.449.422.997.759 1.643 1.012.646.224 1.602.519 2.866.885 1.686.449 3.062.913 4.13 1.39a7.472 7.472 0 0 1 2.823 2.023c.787.899 1.194 2.093 1.223 3.582 0 1.321-.366 2.501-1.096 3.54-.731 1.04-1.77 1.855-3.119 2.445-1.32.59-2.88.885-4.678.885Zm22.512 0c-1.826 0-3.47-.323-4.93-.97-1.433-.674-2.571-1.573-3.414-2.697a6.829 6.829 0 0 1-1.349-3.835h4.973c.085.984.548 1.812 1.391 2.487.871.646 1.953.969 3.245.969 1.349 0 2.388-.253 3.119-.759.758-.533 1.137-1.208 1.137-2.022 0-.871-.421-1.518-1.264-1.939-.815-.421-2.121-.885-3.919-1.391-1.742-.477-3.161-.941-4.257-1.39a7.644 7.644 0 0 1-2.865-2.065c-.787-.928-1.18-2.15-1.18-3.667 0-1.236.365-2.36 1.095-3.371.731-1.04 1.77-1.855 3.119-2.445 1.377-.59 2.95-.885 4.72-.885 2.641 0 4.762.675 6.364 2.023 1.629 1.321 2.5 3.133 2.612 5.437h-4.804c-.084-1.04-.506-1.869-1.264-2.487-.759-.618-1.784-.927-3.077-.927-1.264 0-2.233.239-2.907.717-.675.477-1.012 1.109-1.012 1.896 0 .618.225 1.138.674 1.559.45.422.998.759 1.644 1.012.646.224 1.601.519 2.866.885 1.685.449 3.062.913 4.13 1.39a7.48 7.48 0 0 1 2.823 2.023c.787.899 1.194 2.093 1.222 3.582 0 1.321-.365 2.501-1.095 3.54-.731 1.04-1.77 1.855-3.119 2.445-1.32.59-2.88.885-4.678.885Zm22.512 0c-1.826 0-3.47-.323-4.931-.97-1.432-.674-2.57-1.573-3.413-2.697a6.821 6.821 0 0 1-1.349-3.835h4.973c.084.984.548 1.812 1.391 2.487.871.646 1.952.969 3.245.969 1.348 0 2.388-.253 3.118-.759.759-.533 1.138-1.208 1.138-2.022 0-.871-.421-1.518-1.264-1.939-.815-.421-2.121-.885-3.919-1.391-1.742-.477-3.161-.941-4.257-1.39a7.644 7.644 0 0 1-2.865-2.065c-.787-.928-1.18-2.15-1.18-3.667 0-1.236.365-2.36 1.095-3.371.731-1.04 1.77-1.855 3.119-2.445 1.376-.59 2.95-.885 4.72-.885 2.641 0 4.762.675 6.363 2.023 1.63 1.321 2.501 3.133 2.613 5.437h-4.804c-.084-1.04-.506-1.869-1.264-2.487-.759-.618-1.784-.927-3.077-.927-1.264 0-2.233.239-2.908.717-.674.477-1.011 1.109-1.011 1.896 0 .618.225 1.138.674 1.559.45.422.998.759 1.644 1.012.646.224 1.601.519 2.866.885 1.685.449 3.062.913 4.13 1.39a7.488 7.488 0 0 1 2.823 2.023c.787.899 1.194 2.093 1.222 3.582 0 1.321-.365 2.501-1.095 3.54-.731 1.04-1.77 1.855-3.119 2.445-1.321.59-2.88.885-4.678.885Zm18.888-4.257h9.903v3.877H508.42v-29.289h4.805v25.412Zm33.096-22.715h-14.118v8.387c.59-.787 1.461-1.447 2.613-1.981a8.992 8.992 0 0 1 3.751-.801c2.36 0 4.27.506 5.731 1.517 1.489 1.012 2.543 2.29 3.161 3.835.646 1.546.969 3.175.969 4.889 0 2.079-.407 3.933-1.222 5.563-.787 1.601-1.981 2.866-3.582 3.793-1.574.927-3.512 1.39-5.816 1.39-3.062 0-5.521-.758-7.375-2.275s-2.964-3.526-3.329-6.027h4.678c.309 1.321.997 2.374 2.065 3.161 1.067.759 2.402 1.138 4.003 1.138 1.995 0 3.484-.604 4.467-1.812 1.012-1.208 1.518-2.81 1.518-4.805 0-2.022-.506-3.568-1.518-4.635-1.011-1.096-2.5-1.644-4.467-1.644-1.376 0-2.542.351-3.498 1.054-.927.674-1.601 1.601-2.022 2.781h-4.552v-17.742h18.543v4.214Zm26.578-.421-11.715 27.013h-4.847l11.842-26.507h-15.593v-4.088h20.313v3.582Zm20.885 27.013-11.336-13.106v13.106h-4.805v-29.289h4.805v13.359l11.378-13.359h6.027l-12.728 14.666 12.938 14.623h-6.279Zm29.703-26.592h-14.118v8.387c.59-.787 1.461-1.447 2.613-1.981a8.992 8.992 0 0 1 3.751-.801c2.36 0 4.27.506 5.731 1.517 1.489 1.012 2.543 2.29 3.161 3.835.646 1.546.969 3.175.969 4.889 0 2.079-.407 3.933-1.222 5.563-.787 1.601-1.981 2.866-3.582 3.793-1.574.927-3.512 1.39-5.816 1.39-3.062 0-5.521-.758-7.375-2.275s-2.964-3.526-3.329-6.027h4.678c.309 1.321.997 2.374 2.065 3.161 1.067.759 2.402 1.138 4.003 1.138 1.995 0 3.484-.604 4.467-1.812 1.012-1.208 1.517-2.81 1.517-4.805 0-2.022-.505-3.568-1.517-4.635-1.011-1.096-2.5-1.644-4.467-1.644-1.377 0-2.543.351-3.498 1.054-.927.674-1.601 1.601-2.023 2.781h-4.551v-17.742h18.543v4.214Zm23.628 2.992c-.309-1.292-.871-2.261-1.686-2.907-.814-.647-1.952-.97-3.413-.97-2.22 0-3.877.857-4.973 2.571-1.096 1.686-1.672 4.495-1.728 8.429.731-1.237 1.798-2.192 3.203-2.866 1.405-.674 2.922-1.012 4.551-1.012 1.855 0 3.484.408 4.889 1.223 1.433.786 2.543 1.938 3.329 3.455.815 1.517 1.222 3.33 1.222 5.437 0 1.966-.393 3.722-1.18 5.268-.758 1.545-1.896 2.767-3.413 3.666-1.517.871-3.343 1.306-5.479 1.306-2.894 0-5.169-.632-6.827-1.896-1.629-1.292-2.781-3.105-3.456-5.436-.646-2.332-.969-5.24-.969-8.724 0-10.283 3.624-15.424 10.873-15.424 2.81 0 5.015.758 6.616 2.275 1.63 1.518 2.585 3.386 2.866 5.605h-4.425Zm-5.099 7.291c-1.714 0-3.175.52-4.383 1.559-1.18 1.012-1.77 2.487-1.77 4.425 0 1.939.548 3.484 1.644 4.636 1.123 1.124 2.683 1.686 4.677 1.686 1.77 0 3.161-.548 4.173-1.644 1.039-1.095 1.559-2.556 1.559-4.383 0-1.91-.506-3.427-1.517-4.551-.984-1.152-2.445-1.728-4.383-1.728Z"/><path fill="#888" d="M107.8 291h499.068l30.246 118H107.8V291Z"/><path fill="#fff" d="M336.879 364.266c-1.967 0-3.737-.337-5.31-1.011-1.574-.702-2.81-1.686-3.709-2.95-.899-1.264-1.349-2.739-1.349-4.425h5.142c.112 1.264.604 2.304 1.475 3.119.899.814 2.149 1.222 3.751 1.222 1.657 0 2.95-.394 3.877-1.18.927-.815 1.39-1.855 1.39-3.119 0-.983-.295-1.784-.885-2.402-.562-.618-1.278-1.096-2.149-1.433-.843-.337-2.023-.702-3.54-1.096-1.91-.505-3.47-1.011-4.678-1.517-1.18-.534-2.191-1.348-3.034-2.444-.843-1.096-1.264-2.557-1.264-4.383 0-1.686.421-3.161 1.264-4.425.843-1.264 2.023-2.233 3.54-2.908 1.517-.674 3.273-1.011 5.268-1.011 2.837 0 5.155.716 6.953 2.149 1.827 1.405 2.838 3.343 3.035 5.816h-5.31c-.085-1.068-.59-1.981-1.517-2.739-.928-.759-2.15-1.138-3.667-1.138-1.377 0-2.5.351-3.371 1.053-.871.703-1.307 1.714-1.307 3.035 0 .899.267 1.643.801 2.233.562.562 1.264 1.012 2.107 1.349.843.337 1.995.702 3.456 1.095 1.938.534 3.512 1.068 4.72 1.602 1.236.534 2.276 1.362 3.118 2.486.871 1.096 1.307 2.571 1.307 4.425 0 1.489-.408 2.894-1.222 4.215-.787 1.32-1.953 2.388-3.498 3.202-1.517.787-3.315 1.18-5.394 1.18Zm39.172-29.584v29.289h-4.804V351.16h-13.781v12.811h-4.804v-29.289h4.804v12.559h13.781v-12.559h4.804Zm19.684 29.584c-2.725 0-5.24-.632-7.544-1.896-2.275-1.292-4.087-3.076-5.436-5.352-1.32-2.304-1.981-4.889-1.981-7.754 0-2.866.661-5.437 1.981-7.713 1.349-2.275 3.161-4.045 5.436-5.31 2.304-1.292 4.819-1.938 7.544-1.938 2.753 0 5.268.646 7.544 1.938a13.922 13.922 0 0 1 5.436 5.31c1.32 2.276 1.981 4.847 1.981 7.713 0 2.865-.661 5.45-1.981 7.754a14.208 14.208 0 0 1-5.436 5.352c-2.276 1.264-4.791 1.896-7.544 1.896Zm0-4.172c1.939 0 3.666-.435 5.184-1.306 1.517-.899 2.697-2.163 3.54-3.793.871-1.658 1.306-3.568 1.306-5.731 0-2.164-.435-4.06-1.306-5.69-.843-1.629-2.023-2.879-3.54-3.75-1.518-.871-3.245-1.307-5.184-1.307s-3.666.436-5.184 1.307c-1.517.871-2.711 2.121-3.582 3.75-.843 1.63-1.264 3.526-1.264 5.69 0 2.163.421 4.073 1.264 5.731.871 1.63 2.065 2.894 3.582 3.793 1.518.871 3.245 1.306 5.184 1.306Zm57.828-25.412-8.682 29.289h-5.436l-6.153-22.167-6.532 22.167-5.395.043-8.302-29.332h5.1l6.068 23.853 6.574-23.853h5.395l6.11 23.727 6.111-23.727h5.142Zm13.308 14.582c0-2.866.66-5.437 1.981-7.713 1.348-2.275 3.16-4.045 5.436-5.31 2.304-1.292 4.818-1.938 7.544-1.938 3.118 0 5.885.772 8.302 2.318 2.444 1.517 4.214 3.68 5.31 6.49h-5.774c-.758-1.546-1.812-2.697-3.161-3.456-1.348-.759-2.907-1.138-4.677-1.138-1.939 0-3.667.436-5.184 1.307-1.517.871-2.711 2.121-3.582 3.75-.843 1.63-1.264 3.526-1.264 5.69 0 2.163.421 4.059 1.264 5.689.871 1.629 2.065 2.894 3.582 3.793 1.517.871 3.245 1.306 5.184 1.306 1.77 0 3.329-.379 4.677-1.138 1.349-.758 2.403-1.91 3.161-3.455h5.774c-1.096 2.809-2.866 4.972-5.31 6.49-2.417 1.517-5.184 2.275-8.302 2.275-2.754 0-5.268-.632-7.544-1.896-2.276-1.293-4.088-3.077-5.436-5.352-1.321-2.276-1.981-4.847-1.981-7.712Zm47.555 15.002c-2.725 0-5.239-.632-7.543-1.896-2.276-1.292-4.088-3.076-5.437-5.352-1.32-2.304-1.98-4.889-1.98-7.754 0-2.866.66-5.437 1.98-7.713 1.349-2.275 3.161-4.045 5.437-5.31 2.304-1.292 4.818-1.938 7.543-1.938 2.754 0 5.268.646 7.544 1.938a13.915 13.915 0 0 1 5.436 5.31c1.321 2.276 1.981 4.847 1.981 7.713 0 2.865-.66 5.45-1.981 7.754a14.2 14.2 0 0 1-5.436 5.352c-2.276 1.264-4.79 1.896-7.544 1.896Zm0-4.172c1.939 0 3.667-.435 5.184-1.306 1.517-.899 2.697-2.163 3.54-3.793.871-1.658 1.306-3.568 1.306-5.731 0-2.164-.435-4.06-1.306-5.69-.843-1.629-2.023-2.879-3.54-3.75s-3.245-1.307-5.184-1.307c-1.938 0-3.666.436-5.183 1.307s-2.711 2.121-3.582 3.75c-.843 1.63-1.265 3.526-1.265 5.69 0 2.163.422 4.073 1.265 5.731.871 1.63 2.065 2.894 3.582 3.793 1.517.871 3.245 1.306 5.183 1.306Zm29.255-25.412c3.119 0 5.844.604 8.176 1.812 2.36 1.18 4.172 2.894 5.436 5.142 1.293 2.219 1.939 4.818 1.939 7.796 0 2.978-.646 5.563-1.939 7.754-1.264 2.192-3.076 3.878-5.436 5.058-2.332 1.151-5.057 1.727-8.176 1.727h-9.566v-29.289h9.566Zm0 25.37c3.428 0 6.055-.927 7.881-2.781 1.826-1.855 2.739-4.467 2.739-7.839 0-3.399-.913-6.054-2.739-7.965-1.826-1.91-4.453-2.866-7.881-2.866h-4.762v21.451h4.762Zm25.117-21.493v8.597h10.114v3.92h-10.114v8.976h11.378v3.919h-16.183V334.64h16.183v3.919h-11.378Z"/></g><defs><clipPath id="a"><rect width="244.429" height="118" x="482.029" y="291" fill="#fff" rx="8.429"/></clipPath></defs></svg>