<svg xmlns="http://www.w3.org/2000/svg" width="1000" height="700" fill="none" viewBox="0 0 1000 700"><path fill="#FCFCFF" d="M0 0h1000v700H0z"/><rect width="350" height="87" x="325" y="315" fill="#888" rx="5"/><mask id="a" width="350" height="87" x="325" y="315" maskUnits="userSpaceOnUse" style="mask-type:alpha"><rect width="350" height="87" x="325" y="315" fill="#8072FC" rx="5"/></mask><g mask="url(#a)"><path fill="#D5D5D5" d="m688.366 299.884-11.657 43.344L645 311.46l43.366-11.576Z"/><g filter="url(#b)"><path fill="#F2F2F2" d="M656.621 344.503a9.999 9.999 0 0 1-9.896-9.906l-.202-21.624 31.723 31.753-21.625-.223Z"/></g><path fill="#fff" d="M383.879 373.295c-1.967 0-3.737-.337-5.31-1.011-1.574-.703-2.81-1.686-3.709-2.95-.899-1.265-1.349-2.74-1.349-4.425h5.142c.112 1.264.604 2.303 1.475 3.118.899.815 2.149 1.222 3.751 1.222 1.657 0 2.95-.393 3.877-1.18.927-.814 1.39-1.854 1.39-3.118 0-.984-.295-1.784-.885-2.402-.562-.619-1.278-1.096-2.149-1.433-.843-.337-2.023-.703-3.54-1.096-1.91-.506-3.47-1.011-4.678-1.517-1.18-.534-2.191-1.349-3.034-2.444-.843-1.096-1.264-2.557-1.264-4.383 0-1.686.421-3.161 1.264-4.425.843-1.265 2.023-2.234 3.54-2.908 1.517-.674 3.273-1.012 5.268-1.012 2.837 0 5.155.717 6.953 2.15 1.827 1.404 2.838 3.343 3.035 5.815h-5.31c-.085-1.067-.59-1.98-1.517-2.739-.928-.758-2.15-1.138-3.667-1.138-1.377 0-2.5.351-3.371 1.054-.871.702-1.307 1.714-1.307 3.034 0 .899.267 1.644.801 2.234.562.562 1.264 1.011 2.107 1.348.843.337 1.995.703 3.456 1.096 1.938.534 3.512 1.068 4.72 1.601 1.236.534 2.276 1.363 3.118 2.487.871 1.096 1.307 2.571 1.307 4.425 0 1.489-.408 2.894-1.222 4.214-.787 1.321-1.953 2.388-3.498 3.203-1.517.787-3.315 1.18-5.394 1.18Zm39.172-29.584V373h-4.804v-12.811h-13.781V373h-4.804v-29.289h4.804v12.558h13.781v-12.558h4.804Zm19.684 29.584c-2.725 0-5.24-.632-7.544-1.896-2.275-1.293-4.087-3.077-5.436-5.353-1.32-2.303-1.981-4.888-1.981-7.754 0-2.866.661-5.436 1.981-7.712 1.349-2.276 3.161-4.046 5.436-5.31 2.304-1.292 4.819-1.939 7.544-1.939 2.753 0 5.268.647 7.544 1.939a13.908 13.908 0 0 1 5.436 5.31c1.32 2.276 1.981 4.846 1.981 7.712 0 2.866-.661 5.451-1.981 7.754a14.217 14.217 0 0 1-5.436 5.353c-2.276 1.264-4.791 1.896-7.544 1.896Zm0-4.172c1.939 0 3.666-.436 5.184-1.307 1.517-.899 2.697-2.163 3.54-3.792.871-1.658 1.306-3.569 1.306-5.732 0-2.163-.435-4.06-1.306-5.689-.843-1.63-2.023-2.88-3.54-3.751-1.518-.871-3.245-1.306-5.184-1.306s-3.666.435-5.184 1.306c-1.517.871-2.711 2.121-3.582 3.751-.843 1.629-1.264 3.526-1.264 5.689 0 2.163.421 4.074 1.264 5.732.871 1.629 2.065 2.893 3.582 3.792 1.518.871 3.245 1.307 5.184 1.307Zm57.828-25.412L491.881 373h-5.436l-6.153-22.167L473.76 373l-5.395.042-8.302-29.331h5.1l6.068 23.853 6.574-23.853h5.395l6.11 23.726 6.111-23.726h5.142Zm13.308 14.581c0-2.866.66-5.436 1.981-7.712 1.348-2.276 3.16-4.046 5.436-5.31 2.304-1.292 4.818-1.939 7.544-1.939 3.118 0 5.885.773 8.302 2.318 2.444 1.517 4.214 3.681 5.31 6.49h-5.774c-.758-1.545-1.812-2.697-3.161-3.455-1.348-.759-2.907-1.138-4.677-1.138-1.939 0-3.667.435-5.184 1.306-1.517.871-2.711 2.121-3.582 3.751-.843 1.629-1.264 3.526-1.264 5.689 0 2.163.421 4.06 1.264 5.689.871 1.63 2.065 2.894 3.582 3.793 1.517.871 3.245 1.307 5.184 1.307 1.77 0 3.329-.38 4.677-1.138 1.349-.759 2.403-1.911 3.161-3.456h5.774c-1.096 2.81-2.866 4.973-5.31 6.49-2.417 1.517-5.184 2.276-8.302 2.276-2.754 0-5.268-.632-7.544-1.897-2.276-1.292-4.088-3.076-5.436-5.352-1.321-2.275-1.981-4.846-1.981-7.712Zm47.555 15.003c-2.725 0-5.239-.632-7.543-1.896-2.276-1.293-4.088-3.077-5.437-5.353-1.32-2.303-1.98-4.888-1.98-7.754 0-2.866.66-5.436 1.98-7.712 1.349-2.276 3.161-4.046 5.437-5.31 2.304-1.292 4.818-1.939 7.543-1.939 2.754 0 5.268.647 7.544 1.939a13.902 13.902 0 0 1 5.436 5.31c1.321 2.276 1.981 4.846 1.981 7.712 0 2.866-.66 5.451-1.981 7.754a14.21 14.21 0 0 1-5.436 5.353c-2.276 1.264-4.79 1.896-7.544 1.896Zm0-4.172c1.939 0 3.667-.436 5.184-1.307 1.517-.899 2.697-2.163 3.54-3.792.871-1.658 1.306-3.569 1.306-5.732 0-2.163-.435-4.06-1.306-5.689-.843-1.63-2.023-2.88-3.54-3.751s-3.245-1.306-5.184-1.306c-1.938 0-3.666.435-5.183 1.306s-2.711 2.121-3.582 3.751c-.843 1.629-1.265 3.526-1.265 5.689 0 2.163.422 4.074 1.265 5.732.871 1.629 2.065 2.893 3.582 3.792 1.517.871 3.245 1.307 5.183 1.307Zm29.255-25.412c3.119 0 5.844.604 8.176 1.812 2.36 1.18 4.172 2.894 5.436 5.141 1.293 2.22 1.939 4.819 1.939 7.797 0 2.978-.646 5.563-1.939 7.754-1.264 2.191-3.076 3.877-5.436 5.057-2.332 1.152-5.057 1.728-8.176 1.728h-9.566v-29.289h9.566Zm0 25.37c3.428 0 6.055-.927 7.881-2.782 1.826-1.854 2.739-4.467 2.739-7.838 0-3.4-.913-6.055-2.739-7.965-1.826-1.911-4.453-2.866-7.881-2.866h-4.762v21.451h4.762Zm25.117-21.493v8.597h10.114v3.919h-10.114v8.977h11.378V373h-16.183v-29.331h16.183v3.919h-11.378Z"/></g><defs><filter id="b" width="35.723" height="36.753" x="644.523" y="312.973" color-interpolation-filters="sRGB" filterUnits="userSpaceOnUse"><feFlood flood-opacity="0" result="BackgroundImageFix"/><feColorMatrix in="SourceAlpha" result="hardAlpha" values="0 0 0 0 0 0 0 0 0 0 0 0 0 0 0 0 0 0 127 0"/><feOffset dy="3"/><feGaussianBlur stdDeviation="1"/><feComposite in2="hardAlpha" operator="out"/><feColorMatrix values="0 0 0 0 0 0 0 0 0 0 0 0 0 0 0 0 0 0 0.15 0"/><feBlend in2="BackgroundImageFix" result="effect1_dropShadow_5_978"/><feBlend in="SourceGraphic" in2="effect1_dropShadow_5_978" result="shape"/></filter></defs></svg>