<svg xmlns="http://www.w3.org/2000/svg" width="1000" height="700" fill="none" viewBox="0 0 1000 700"><path fill="#FCFCFF" d="M0 0h1000v700H0z"/><path fill="#888" fill-rule="evenodd" d="M237 282.5a7.5 7.5 0 0 1 7.5-7.5h510a7.5 7.5 0 0 1 7.5 7.5v47.948l-21.967 15.907c-2.481 1.797-2.481 5.493 0 7.29L762 369.552V417.5a7.5 7.5 0 0 1-7.5 7.5h-510a7.5 7.5 0 0 1-7.5-7.5v-46.862l23.467-16.993c2.481-1.797 2.481-5.493 0-7.29L237 329.362V282.5Z" clip-rule="evenodd"/><path fill="#fff" d="M333.463 371.42c-2.8 0-5.32-.48-7.56-1.44-2.24-1-4-2.4-5.28-4.2-1.28-1.8-1.92-3.9-1.92-6.3h7.32c.16 1.8.86 3.28 2.1 4.44 1.28 1.16 3.06 1.74 5.34 1.74 2.36 0 4.2-.56 5.52-1.68 1.32-1.16 1.98-2.64 1.98-4.44 0-1.4-.42-2.54-1.26-3.42-.8-.88-1.82-1.56-3.06-2.04-1.2-.48-2.88-1-5.04-1.56-2.72-.72-4.94-1.44-6.66-2.16-1.68-.76-3.12-1.92-4.32-3.48-1.2-1.56-1.8-3.64-1.8-6.24 0-2.4.6-4.5 1.8-6.3 1.2-1.8 2.88-3.18 5.04-4.14 2.16-.96 4.66-1.44 7.5-1.44 4.04 0 7.34 1.02 9.9 3.06 2.6 2 4.04 4.76 4.32 8.28h-7.56c-.12-1.52-.84-2.82-2.16-3.9-1.32-1.08-3.06-1.62-5.22-1.62-1.96 0-3.56.5-4.8 1.5-1.24 1-1.86 2.44-1.86 4.32 0 1.28.38 2.34 1.14 3.18.8.8 1.8 1.44 3 1.92s2.84 1 4.92 1.56c2.76.76 5 1.52 6.72 2.28 1.76.76 3.24 1.94 4.44 3.54 1.24 1.56 1.86 3.66 1.86 6.3 0 2.12-.58 4.12-1.74 6-1.12 1.88-2.78 3.4-4.98 4.56-2.16 1.12-4.72 1.68-7.68 1.68Zm55.771-42.12V371h-6.84v-18.24h-19.62V371h-6.84v-41.7h6.84v17.88h19.62V329.3h6.84Zm28.024 42.12c-3.88 0-7.46-.9-10.74-2.7-3.24-1.84-5.82-4.38-7.74-7.62-1.88-3.28-2.82-6.96-2.82-11.04 0-4.08.94-7.74 2.82-10.98 1.92-3.24 4.5-5.76 7.74-7.56 3.28-1.84 6.86-2.76 10.74-2.76 3.92 0 7.5.92 10.74 2.76 3.28 1.8 5.86 4.32 7.74 7.56 1.88 3.24 2.82 6.9 2.82 10.98s-.94 7.76-2.82 11.04c-1.88 3.24-4.46 5.78-7.74 7.62-3.24 1.8-6.82 2.7-10.74 2.7Zm0-5.94c2.76 0 5.22-.62 7.38-1.86 2.16-1.28 3.84-3.08 5.04-5.4 1.24-2.36 1.86-5.08 1.86-8.16s-.62-5.78-1.86-8.1c-1.2-2.32-2.88-4.1-5.04-5.34-2.16-1.24-4.62-1.86-7.38-1.86s-5.22.62-7.38 1.86c-2.16 1.24-3.86 3.02-5.1 5.34-1.2 2.32-1.8 5.02-1.8 8.1s.6 5.8 1.8 8.16c1.24 2.32 2.94 4.12 5.1 5.4 2.16 1.24 4.62 1.86 7.38 1.86Zm82.331-36.18-12.36 41.7h-7.74l-8.76-31.56-9.3 31.56-7.68.06-11.82-41.76h7.26l8.64 33.96 9.36-33.96h7.68l8.7 33.78 8.7-33.78h7.32Zm18.947 20.76c0-4.08.94-7.74 2.82-10.98 1.92-3.24 4.5-5.76 7.74-7.56 3.28-1.84 6.86-2.76 10.74-2.76 4.44 0 8.38 1.1 11.82 3.3 3.48 2.16 6 5.24 7.56 9.24h-8.22c-1.08-2.2-2.58-3.84-4.5-4.92s-4.14-1.62-6.66-1.62c-2.76 0-5.22.62-7.38 1.86-2.16 1.24-3.86 3.02-5.1 5.34-1.2 2.32-1.8 5.02-1.8 8.1s.6 5.78 1.8 8.1c1.24 2.32 2.94 4.12 5.1 5.4 2.16 1.24 4.62 1.86 7.38 1.86 2.52 0 4.74-.54 6.66-1.62s3.42-2.72 4.5-4.92h8.22c-1.56 4-4.08 7.08-7.56 9.24-3.44 2.16-7.38 3.24-11.82 3.24-3.92 0-7.5-.9-10.74-2.7-3.24-1.84-5.82-4.38-7.74-7.62-1.88-3.24-2.82-6.9-2.82-10.98Zm67.707 21.36c-3.88 0-7.46-.9-10.74-2.7-3.24-1.84-5.82-4.38-7.74-7.62-1.88-3.28-2.82-6.96-2.82-11.04 0-4.08.94-7.74 2.82-10.98 1.92-3.24 4.5-5.76 7.74-7.56 3.28-1.84 6.86-2.76 10.74-2.76 3.92 0 7.5.92 10.74 2.76 3.28 1.8 5.86 4.32 7.74 7.56 1.88 3.24 2.82 6.9 2.82 10.98s-.94 7.76-2.82 11.04c-1.88 3.24-4.46 5.78-7.74 7.62-3.24 1.8-6.82 2.7-10.74 2.7Zm0-5.94c2.76 0 5.22-.62 7.38-1.86 2.16-1.28 3.84-3.08 5.04-5.4 1.24-2.36 1.86-5.08 1.86-8.16s-.62-5.78-1.86-8.1c-1.2-2.32-2.88-4.1-5.04-5.34-2.16-1.24-4.62-1.86-7.38-1.86s-5.22.62-7.38 1.86c-2.16 1.24-3.86 3.02-5.1 5.34-1.2 2.32-1.8 5.02-1.8 8.1s.6 5.8 1.8 8.16c1.24 2.32 2.94 4.12 5.1 5.4 2.16 1.24 4.62 1.86 7.38 1.86Zm41.65-36.18c4.44 0 8.32.86 11.64 2.58 3.36 1.68 5.94 4.12 7.74 7.32 1.84 3.16 2.76 6.86 2.76 11.1 0 4.24-.92 7.92-2.76 11.04-1.8 3.12-4.38 5.52-7.74 7.2-3.32 1.64-7.2 2.46-11.64 2.46h-13.62v-41.7h13.62Zm0 36.12c4.88 0 8.62-1.32 11.22-3.96 2.6-2.64 3.9-6.36 3.9-11.16 0-4.84-1.3-8.62-3.9-11.34-2.6-2.72-6.34-4.08-11.22-4.08h-6.78v30.54h6.78Zm35.76-30.6v12.24h14.4v5.58h-14.4v12.78h16.2V371h-23.04v-41.76h23.04v5.58h-16.2Z"/></svg>