<svg xmlns="http://www.w3.org/2000/svg" width="1000" height="700" fill="none" viewBox="0 0 1000 700"><path fill="#FCFCFF" d="M0 0h1000v700H0z"/><rect width="472" height="104" x="240" y="298" fill="#F2F2F2" rx="7.429"/><g stroke="#E8E8E8" stroke-width="1.486" clip-path="url(#a)"><path d="M406.448 431.217 598.106 218.76M555.02 431.217 746.677 218.76M480.734 431.217 672.391 218.76M629.306 431.217 820.963 218.76M443.591 431.217 635.248 218.76M592.163 431.217 783.82 218.76M517.877 431.217 709.534 218.76M666.448 431.217 858.106 218.76M413.877 431.217 605.534 218.76M562.448 431.217 754.106 218.76M488.163 431.217 679.82 218.76M636.734 431.217 828.391 218.76M451.02 431.217 642.677 218.76M599.591 431.217 791.248 218.76M525.306 431.217 716.963 218.76M673.877 431.217 865.534 218.76M421.306 431.217 612.963 218.76M569.877 431.217 761.534 218.76M495.591 431.217 687.248 218.76M644.163 431.217 835.82 218.76M458.448 431.217 650.106 218.76M607.02 431.217 798.677 218.76M532.734 431.217 724.391 218.76M681.306 431.217 872.963 218.76M428.734 431.217 620.391 218.76M577.306 431.217 768.963 218.76M503.02 431.217 694.677 218.76M651.591 431.217 843.248 218.76M465.877 431.217 657.534 218.76M614.448 431.217 806.106 218.76M540.163 431.217 731.82 218.76M688.734 431.217 880.391 218.76M436.163 431.217 627.82 218.76M584.734 431.217 776.391 218.76M510.448 431.217 702.106 218.76M659.02 431.217 850.677 218.76M473.306 431.217 664.963 218.76M621.877 431.217 813.534 218.76M547.591 431.217 739.248 218.76M696.163 431.217 887.82 218.76M696.163 438.645 887.82 226.188M702.106 438.645l191.657-212.457"/></g><mask id="b" width="472" height="104" x="240" y="298" maskUnits="userSpaceOnUse" style="mask-type:alpha"><rect width="472" height="104" x="240" y="298" fill="#8072FC" rx="7.429"/></mask><g mask="url(#b)"><path fill="#13234A" d="M559.985 365.295c-1.966 0-3.736-.337-5.309-1.011-1.574-.703-2.81-1.686-3.709-2.95-.899-1.264-1.348-2.739-1.348-4.425h5.141c.112 1.264.604 2.304 1.475 3.118.899.815 2.149 1.223 3.75 1.223 1.658 0 2.95-.394 3.877-1.18.927-.815 1.391-1.855 1.391-3.119 0-.983-.295-1.784-.885-2.402-.562-.618-1.278-1.095-2.149-1.432-.843-.338-2.023-.703-3.54-1.096-1.91-.506-3.47-1.011-4.678-1.517-1.179-.534-2.191-1.349-3.034-2.444-.842-1.096-1.264-2.557-1.264-4.383 0-1.685.422-3.16 1.264-4.425.843-1.264 2.023-2.233 3.54-2.907 1.517-.674 3.273-1.012 5.268-1.012 2.837 0 5.155.717 6.953 2.15 1.826 1.404 2.837 3.343 3.034 5.815h-5.31c-.084-1.068-.59-1.981-1.517-2.739-.927-.759-2.149-1.138-3.666-1.138-1.377 0-2.5.351-3.371 1.054-.871.702-1.307 1.713-1.307 3.034 0 .899.267 1.643.801 2.233.562.562 1.264 1.011 2.107 1.348.843.338 1.995.703 3.456 1.096 1.938.534 3.511 1.068 4.719 1.601 1.236.534 2.276 1.363 3.119 2.487.871 1.095 1.306 2.57 1.306 4.424 0 1.489-.407 2.894-1.222 4.214-.787 1.321-1.953 2.388-3.498 3.203-1.517.787-3.315 1.18-5.394 1.18Zm20.586-4.172h9.903V365h-14.707v-29.287h4.804v25.41Zm33.094-22.713h-14.116v8.386c.59-.787 1.46-1.447 2.612-1.981a8.992 8.992 0 0 1 3.751-.801c2.36 0 4.27.506 5.731 1.517 1.489 1.012 2.542 2.29 3.16 3.835.646 1.545.969 3.175.969 4.888 0 2.079-.407 3.933-1.222 5.563-.786 1.601-1.98 2.865-3.581 3.792-1.574.927-3.512 1.391-5.816 1.391-3.062 0-5.52-.759-7.374-2.276s-2.964-3.525-3.329-6.026h4.677c.309 1.321.997 2.374 2.065 3.161 1.068.758 2.402 1.138 4.003 1.138 1.995 0 3.484-.604 4.467-1.812 1.012-1.208 1.517-2.81 1.517-4.804 0-2.023-.505-3.568-1.517-4.636-1.011-1.095-2.5-1.643-4.467-1.643-1.376 0-2.542.351-3.497 1.053-.927.675-1.602 1.602-2.023 2.782h-4.551v-17.741h18.541v4.214Zm26.577-.422L628.527 365h-4.846l11.841-26.506h-15.591v-4.088h20.311v3.582Z"/><path fill="#D5D5D5" d="M240 298h524v104H240z"/><path fill="#888" d="M226 298h146v104H226zM418.879 365.295c-1.967 0-3.737-.337-5.31-1.011-1.574-.703-2.81-1.686-3.709-2.95-.899-1.265-1.349-2.74-1.349-4.425h5.142c.112 1.264.604 2.303 1.475 3.118.899.815 2.149 1.222 3.751 1.222 1.657 0 2.95-.393 3.877-1.18.927-.814 1.39-1.854 1.39-3.118 0-.984-.295-1.784-.885-2.402-.562-.619-1.278-1.096-2.149-1.433-.843-.337-2.023-.703-3.54-1.096-1.91-.506-3.47-1.011-4.678-1.517-1.18-.534-2.191-1.349-3.034-2.444-.843-1.096-1.264-2.557-1.264-4.383 0-1.686.421-3.161 1.264-4.425.843-1.265 2.023-2.234 3.54-2.908 1.517-.674 3.273-1.012 5.268-1.012 2.837 0 5.155.717 6.953 2.15 1.827 1.404 2.838 3.343 3.035 5.815h-5.31c-.085-1.067-.59-1.98-1.517-2.739-.928-.758-2.15-1.138-3.667-1.138-1.377 0-2.5.351-3.371 1.054-.871.702-1.307 1.714-1.307 3.034 0 .899.267 1.644.801 2.234.562.562 1.264 1.011 2.107 1.348.843.337 1.995.703 3.456 1.096 1.938.534 3.512 1.068 4.72 1.601 1.236.534 2.276 1.363 3.118 2.487.871 1.096 1.307 2.571 1.307 4.425 0 1.489-.408 2.894-1.222 4.214-.787 1.321-1.953 2.388-3.498 3.203-1.517.787-3.315 1.18-5.394 1.18Zm39.172-29.584V365h-4.804v-12.811h-13.781V365h-4.804v-29.289h4.804v12.558h13.781v-12.558h4.804Zm19.684 29.584c-2.725 0-5.24-.632-7.544-1.896-2.275-1.293-4.087-3.077-5.436-5.353-1.32-2.303-1.981-4.888-1.981-7.754 0-2.866.661-5.436 1.981-7.712 1.349-2.276 3.161-4.046 5.436-5.31 2.304-1.292 4.819-1.939 7.544-1.939 2.753 0 5.268.647 7.544 1.939a13.908 13.908 0 0 1 5.436 5.31c1.32 2.276 1.981 4.846 1.981 7.712 0 2.866-.661 5.451-1.981 7.754a14.217 14.217 0 0 1-5.436 5.353c-2.276 1.264-4.791 1.896-7.544 1.896Zm0-4.172c1.939 0 3.666-.436 5.184-1.307 1.517-.899 2.697-2.163 3.54-3.792.871-1.658 1.306-3.569 1.306-5.732 0-2.163-.435-4.06-1.306-5.689-.843-1.63-2.023-2.88-3.54-3.751-1.518-.871-3.245-1.306-5.184-1.306s-3.666.435-5.184 1.306c-1.517.871-2.711 2.121-3.582 3.751-.843 1.629-1.264 3.526-1.264 5.689 0 2.163.421 4.074 1.264 5.732.871 1.629 2.065 2.893 3.582 3.792 1.518.871 3.245 1.307 5.184 1.307Zm57.828-25.412L526.881 365h-5.436l-6.153-22.167L508.76 365l-5.395.042-8.302-29.331h5.1l6.068 23.853 6.574-23.853h5.395l6.11 23.726 6.111-23.726h5.142Zm13.308 14.581c0-2.866.66-5.436 1.981-7.712 1.348-2.276 3.16-4.046 5.436-5.31 2.304-1.292 4.818-1.939 7.544-1.939 3.118 0 5.885.773 8.302 2.318 2.444 1.517 4.214 3.681 5.31 6.49h-5.774c-.758-1.545-1.812-2.697-3.161-3.455-1.348-.759-2.907-1.138-4.677-1.138-1.939 0-3.667.435-5.184 1.306-1.517.871-2.711 2.121-3.582 3.751-.843 1.629-1.264 3.526-1.264 5.689 0 2.163.421 4.06 1.264 5.689.871 1.63 2.065 2.894 3.582 3.793 1.517.871 3.245 1.307 5.184 1.307 1.77 0 3.329-.38 4.677-1.138 1.349-.759 2.403-1.911 3.161-3.456h5.774c-1.096 2.81-2.866 4.973-5.31 6.49-2.417 1.517-5.184 2.276-8.302 2.276-2.754 0-5.268-.632-7.544-1.897-2.276-1.292-4.088-3.076-5.436-5.352-1.321-2.275-1.981-4.846-1.981-7.712Zm47.555 15.003c-2.725 0-5.239-.632-7.543-1.896-2.276-1.293-4.088-3.077-5.437-5.353-1.32-2.303-1.98-4.888-1.98-7.754 0-2.866.66-5.436 1.98-7.712 1.349-2.276 3.161-4.046 5.437-5.31 2.304-1.292 4.818-1.939 7.543-1.939 2.754 0 5.268.647 7.544 1.939a13.902 13.902 0 0 1 5.436 5.31c1.321 2.276 1.981 4.846 1.981 7.712 0 2.866-.66 5.451-1.981 7.754a14.21 14.21 0 0 1-5.436 5.353c-2.276 1.264-4.79 1.896-7.544 1.896Zm0-4.172c1.939 0 3.667-.436 5.184-1.307 1.517-.899 2.697-2.163 3.54-3.792.871-1.658 1.306-3.569 1.306-5.732 0-2.163-.435-4.06-1.306-5.689-.843-1.63-2.023-2.88-3.54-3.751s-3.245-1.306-5.184-1.306c-1.938 0-3.666.435-5.183 1.306s-2.711 2.121-3.582 3.751c-.843 1.629-1.265 3.526-1.265 5.689 0 2.163.422 4.074 1.265 5.732.871 1.629 2.065 2.893 3.582 3.792 1.517.871 3.245 1.307 5.183 1.307Zm29.255-25.412c3.119 0 5.844.604 8.176 1.812 2.36 1.18 4.172 2.894 5.436 5.141 1.293 2.22 1.939 4.819 1.939 7.797 0 2.978-.646 5.563-1.939 7.754-1.264 2.191-3.076 3.877-5.436 5.057-2.332 1.152-5.057 1.728-8.176 1.728h-9.566v-29.289h9.566Zm0 25.37c3.428 0 6.055-.927 7.881-2.782 1.826-1.854 2.739-4.467 2.739-7.838 0-3.4-.913-6.055-2.739-7.965-1.826-1.911-4.453-2.866-7.881-2.866h-4.762v21.451h4.762Zm25.117-21.493v8.597h10.114v3.919h-10.114v8.977h11.378V365h-16.183v-29.331h16.183v3.919h-11.378Z"/></g><defs><clipPath id="a"><rect width="305" height="104" x="407" y="298" fill="#fff" rx="7.429"/></clipPath></defs></svg>