<svg xmlns="http://www.w3.org/2000/svg" width="127" height="100" fill="none" viewBox="0 0 127 100"><path fill="#D9D9D9" d="M18 37h90v26H18z"/><path fill="#9AA6AE" d="M18 37h82l4 4.5 4 4.5v17H18V37Z"/><path fill="#6D7A83" d="m100 37 3.73 4.154L108 46h-8v-9Z"/><path fill="#fff" d="M53.912 51.089V54h-.902v-7.702h2.116c.824 0 1.46.2 1.912.601.455.401.682.967.682 1.698 0 .73-.252 1.328-.757 1.794-.501.465-1.18.698-2.036.698h-1.015Zm0-3.975v3.159h.945c.623 0 1.098-.142 1.424-.425.33-.286.494-.69.494-1.208 0-1.017-.602-1.526-1.805-1.526h-1.058ZM63.258 54h-4.082v-7.702h3.91v.816h-3.008v2.562h2.782v.811h-2.782v2.697h3.18V54Zm5.564 0H64.74v-7.702h3.91v.816h-3.007v2.562h2.782v.811h-2.782v2.697h3.18V54Zm5.479 0h-3.996v-7.702h.902v6.886h3.094V54Z"/></svg>