<svg xmlns="http://www.w3.org/2000/svg" width="127" height="100" fill="none" viewBox="0 0 127 100"><path fill="#6D7A83" d="M18 37h90v26H18V37Z"/><path fill="#9AA6AE" d="M18 37h77v26H18V37Z"/><path fill="#fff" d="M30.65 53.688v-1.063c.122.107.267.204.435.29.172.086.35.16.537.22.19.058.38.102.57.135.19.032.365.048.526.048.555 0 .968-.102 1.24-.306.276-.208.414-.505.414-.892 0-.208-.047-.388-.14-.542a1.47 1.47 0 0 0-.376-.42 3.449 3.449 0 0 0-.574-.364 29.993 29.993 0 0 0-.71-.371 12.05 12.05 0 0 1-.751-.414 3.26 3.26 0 0 1-.607-.462 1.98 1.98 0 0 1-.408-.569 1.817 1.817 0 0 1-.145-.752c0-.35.077-.655.23-.913.155-.261.357-.476.608-.645.25-.168.535-.293.854-.376.322-.082.65-.123.982-.123.76 0 1.313.091 1.66.274v1.015c-.455-.315-1.038-.473-1.75-.473-.198 0-.395.022-.592.065-.197.04-.372.105-.526.199-.154.093-.28.213-.376.36a.955.955 0 0 0-.145.536c0 .197.036.367.107.51.076.144.185.275.328.393.143.118.317.233.521.344.208.11.446.232.714.365.276.136.537.28.784.43.248.15.464.316.65.499.187.183.334.385.44.607.112.222.167.476.167.763 0 .38-.075.702-.225.967a1.803 1.803 0 0 1-.602.639c-.25.164-.54.282-.87.354a4.67 4.67 0 0 1-1.042.113c-.122 0-.272-.01-.451-.032a5.094 5.094 0 0 1-.548-.086 4.614 4.614 0 0 1-.532-.135 1.723 1.723 0 0 1-.397-.188Zm10.2.312h-3.997v-7.702h.903v6.886h3.094V54Zm2.084 0h-.903v-7.702h.903V54Zm2.03 0v-7.702h2.127c2.714 0 4.071 1.251 4.071 3.754 0 1.189-.378 2.145-1.133 2.868-.752.72-1.76 1.08-3.024 1.08h-2.041Zm.902-6.886v6.07h1.15c1.01 0 1.795-.27 2.358-.811.562-.541.843-1.307.843-2.3 0-1.972-1.05-2.959-3.148-2.959h-1.203ZM56.76 54h-4.082v-7.702h3.91v.816h-3.008v2.562h2.782v.811H53.58v2.697h3.18V54Zm7.605.129c-1.092 0-1.967-.36-2.626-1.08-.655-.72-.983-1.656-.983-2.809 0-1.239.335-2.227 1.004-2.965.67-.737 1.581-1.106 2.734-1.106 1.064 0 1.92.358 2.568 1.074.651.716.977 1.653.977 2.81 0 1.256-.333 2.25-.999 2.98-.666.73-1.558 1.096-2.675 1.096Zm.065-7.144c-.81 0-1.467.292-1.971.876-.505.584-.758 1.35-.758 2.299 0 .949.245 1.713.736 2.293.494.577 1.137.865 1.928.865.845 0 1.511-.276 1.998-.827.487-.552.73-1.323.73-2.315 0-1.017-.236-1.803-.708-2.358-.473-.555-1.125-.833-1.955-.833Zm10.758 3.9c0 2.163-.976 3.244-2.927 3.244-1.87 0-2.804-1.04-2.804-3.12v-4.711h.902v4.651c0 1.58.666 2.369 1.998 2.369 1.286 0 1.929-.763 1.929-2.288v-4.732h.902v4.587Zm6.483-3.77h-2.224V54h-.902v-6.886h-2.218v-.816h5.344v.816ZM87 50l5 2.887v-5.774L87 50Zm12-.5h-7.5v1H99v-1Z"/></svg>