<svg xmlns="http://www.w3.org/2000/svg" width="127" height="100" fill="none" viewBox="0 0 127 100"><path fill="#9AA6AE" d="M18 37h90v6.5l-6 6.5 6 6.5V63H18v-6.5l6-6.5-6-6.5V37Z"/><path fill="#fff" d="M35.65 53.688v-1.063c.122.107.267.204.435.29.172.086.35.16.537.22.19.058.38.102.57.135.19.032.365.048.526.048.555 0 .968-.102 1.24-.306.276-.208.414-.505.414-.892 0-.208-.047-.388-.14-.542a1.47 1.47 0 0 0-.376-.42 3.449 3.449 0 0 0-.574-.364 29.993 29.993 0 0 0-.71-.371 12.05 12.05 0 0 1-.751-.414 3.26 3.26 0 0 1-.607-.462 1.98 1.98 0 0 1-.408-.569 1.817 1.817 0 0 1-.145-.752c0-.35.077-.655.23-.913.155-.261.357-.476.608-.645.25-.168.535-.293.853-.376.323-.082.65-.123.983-.123.76 0 1.313.091 1.66.274v1.015c-.455-.315-1.038-.473-1.75-.473-.198 0-.395.022-.592.065-.197.04-.372.105-.526.199-.154.093-.28.213-.376.36a.955.955 0 0 0-.145.536c0 .197.036.367.107.51.076.144.185.275.328.393.143.118.317.233.521.344.208.11.446.232.714.365.276.136.537.28.784.43.248.15.464.316.65.499.187.183.334.385.44.607.112.222.167.476.167.763 0 .38-.075.702-.225.967a1.803 1.803 0 0 1-.602.639c-.25.164-.54.282-.87.354a4.67 4.67 0 0 1-1.042.113c-.122 0-.272-.01-.451-.032a5.094 5.094 0 0 1-.548-.086 4.614 4.614 0 0 1-.532-.135 1.723 1.723 0 0 1-.397-.188Zm10.758-6.574h-2.223V54h-.903v-6.886h-2.218v-.816h5.344v.816ZM52.832 54h-.999l-.816-2.16H47.75L46.983 54h-1.005l2.955-7.702h.934L52.832 54Zm-2.11-2.97-1.21-3.282a3.139 3.139 0 0 1-.117-.516h-.022c-.036.219-.077.39-.123.516l-1.198 3.282h2.67ZM60.18 54h-1.107l-3.964-6.14a2.564 2.564 0 0 1-.247-.483h-.032c.029.165.043.518.043 1.058V54h-.902v-7.702h1.17l3.857 6.042c.161.251.265.423.312.516h.021c-.036-.222-.054-.6-.054-1.133v-5.425h.903V54Zm2.02 0v-7.702h2.126c2.714 0 4.072 1.251 4.072 3.754 0 1.189-.378 2.145-1.134 2.868-.752.72-1.76 1.08-3.024 1.08H62.2Zm.902-6.886v6.07h1.149c1.01 0 1.796-.27 2.358-.811s.843-1.307.843-2.3c0-1.972-1.049-2.959-3.147-2.959h-1.203ZM75.606 54h-1l-.816-2.16h-3.266L69.756 54h-1.004l2.954-7.702h.935L75.606 54Zm-2.111-2.97-1.209-3.282a3.14 3.14 0 0 1-.118-.516h-.022a2.87 2.87 0 0 1-.123.516l-1.198 3.282h2.67Zm8.77 2.97h-1.074l-1.289-2.16c-.118-.2-.232-.37-.343-.51a1.873 1.873 0 0 0-.344-.349 1.105 1.105 0 0 0-.376-.193 1.46 1.46 0 0 0-.451-.064h-.742V54h-.902v-7.702h2.299c.337 0 .646.043.93.129.286.082.533.21.74.381.212.172.376.387.495.645.118.254.177.553.177.897 0 .268-.041.515-.124.74-.078.223-.193.422-.343.597a2.068 2.068 0 0 1-.538.451 2.76 2.76 0 0 1-.703.285v.021c.129.058.24.124.333.2.096.07.188.157.274.257.086.1.17.215.252.344.086.125.181.272.285.44L82.266 54Zm-4.618-6.886v2.793h1.224c.226 0 .433-.034.623-.102.194-.068.36-.164.5-.29.14-.129.249-.285.327-.467.08-.186.118-.394.118-.623 0-.412-.134-.732-.402-.962-.265-.232-.65-.349-1.155-.349h-1.236ZM83.329 54v-7.702h2.127c2.714 0 4.071 1.251 4.071 3.754 0 1.189-.377 2.145-1.133 2.868-.752.72-1.76 1.08-3.024 1.08h-2.04Zm.902-6.886v6.07h1.15c1.01 0 1.796-.27 2.358-.811s.843-1.307.843-2.3c0-1.972-1.05-2.959-3.147-2.959H84.23Z"/></svg>