<svg xmlns="http://www.w3.org/2000/svg" width="1000" height="700" fill="none" viewBox="0 0 1000 700"><path fill="#FCFCFF" d="M0 0h1000v700H0z"/><circle cx="360" cy="362" r="35" fill="#888" transform="rotate(-90 360 362)"/><circle cx="570" cy="362" r="35" fill="#888" transform="rotate(-90 570 362)"/><circle cx="290" cy="292" r="35" fill="#888" transform="rotate(-90 290 292)"/><circle cx="500" cy="362" r="35" fill="#888" transform="rotate(-90 500 362)"/><circle cx="430" cy="362" r="35" fill="#888" transform="rotate(-90 430 362)"/><circle cx="640" cy="362" r="35" fill="#888" transform="rotate(-90 640 362)"/><circle cx="710" cy="362" r="35" fill="#888" transform="rotate(-90 710 362)"/><rect width="55" height="8" x="263" y="435" fill="#D5D5D5" rx="4"/><rect width="55" height="8" x="333" y="435" fill="#D5D5D5" rx="4"/><rect width="55" height="8" x="473" y="435" fill="#D5D5D5" rx="4"/><rect width="55" height="8" x="613" y="435" fill="#D5D5D5" rx="4"/><rect width="55" height="8" x="402" y="435" fill="#D5D5D5" rx="4"/><rect width="55" height="8" x="543" y="435" fill="#D5D5D5" rx="4"/><rect width="55" height="8" x="683" y="435" fill="#D5D5D5" rx="4"/></svg>