<svg xmlns="http://www.w3.org/2000/svg" width="1000" height="700" fill="none" viewBox="0 0 1000 700"><path fill="#FCFCFF" d="M0 0h1000v700H0z"/><circle cx="475" cy="351" r="17" fill="#D5D5D5" transform="rotate(90 475 351)"/><circle cx="433" cy="379" r="17" fill="#D5D5D5" transform="rotate(90 433 379)"/><circle cx="517" cy="323" r="17" fill="#D5D5D5" transform="rotate(90 517 323)"/><circle cx="393" cy="396" r="14" fill="#D5D5D5" transform="rotate(90 393 396)"/><circle cx="558" cy="303" r="14" fill="#D5D5D5" transform="rotate(90 558 303)"/><circle cx="353" cy="394" r="12" fill="#D5D5D5" transform="rotate(90 353 394)"/><circle cx="602" cy="311" r="12" fill="#D5D5D5" transform="rotate(90 602 311)"/><circle cx="310" cy="370" r="12" fill="#D5D5D5" transform="rotate(90 310 370)"/><circle cx="643" cy="332" r="12" fill="#D5D5D5" transform="rotate(90 643 332)"/><circle cx="310" cy="326" r="17" fill="#888" transform="rotate(-90 310 326)"/><circle cx="353" cy="303" r="17" fill="#888" transform="rotate(-90 353 303)"/><circle cx="393" cy="309" r="14" fill="#888" transform="rotate(-90 393 309)"/><circle cx="433" cy="332" r="12" fill="#888" transform="rotate(-90 433 332)"/><circle cx="517" cy="370" r="12" fill="#888" transform="rotate(-90 517 370)"/><circle cx="560" cy="394" r="12" fill="#888" transform="rotate(-90 560 394)"/><circle cx="602" cy="398" r="16" fill="#888" transform="rotate(-90 602 398)"/><circle cx="643" cy="378" r="18" fill="#888" transform="rotate(-90 643 378)"/><circle cx="687" cy="351" r="21" fill="#888" transform="rotate(-90 687 351)"/></svg>