<svg xmlns="http://www.w3.org/2000/svg" width="1000" height="700" fill="none" viewBox="0 0 1000 700"><path fill="#FCFCFF" d="M0 0h1000v700H0z"/><path fill="#D5D5D5" d="M361.246 322.445a154.982 154.982 0 0 1 24.201-56.508 154.986 154.986 0 0 1 101.627-64.753 154.996 154.996 0 0 1 61.441 1.94l-11.436 48.582a105.093 105.093 0 0 0-126.968 80.9l-48.865-10.161ZM664.754 385.555a154.982 154.982 0 0 1-24.201 56.508 154.986 154.986 0 0 1-101.627 64.753 154.996 154.996 0 0 1-61.441-1.94l11.436-48.582a105.093 105.093 0 0 0 126.968-80.9l48.865 10.161Z"/><circle cx="513" cy="354" r="66" fill="#888"/></svg>