<svg xmlns="http://www.w3.org/2000/svg" width="1000" height="700" fill="none" viewBox="0 0 1000 700"><path fill="#FCFCFF" d="M0 0h1000v700H0z"/><path stroke="#888" d="M659.5 340.5v19h-317v-19z"/><path fill="#888" d="M546 340v20H342v-20z"/><mask id="a" width="206" height="20" x="340" y="340" maskUnits="userSpaceOnUse" style="mask-type:alpha"><path fill="#888" stroke="#888" d="M545.5 340.5v19h-205v-19z"/></mask><g fill="#D5D5D5" mask="url(#a)"><path d="m322 315.329 8.203-7.33 83.285 93.214-8.203 7.329zM423 315.329l8.203-7.33 83.285 93.214-8.203 7.329zM523 315.329l8.203-7.33 83.285 93.214-8.203 7.329zM354 315.329l8.203-7.33 83.285 93.214-8.203 7.329zM455 315.329l8.203-7.33 83.285 93.214-8.203 7.329zM389 315.329l8.203-7.33 83.285 93.214-8.203 7.329zM490 315.329l8.203-7.33 83.285 93.214-8.203 7.329z"/></g></svg>