<svg xmlns="http://www.w3.org/2000/svg" width="1000" height="700" fill="none" viewBox="0 0 1000 700"><path fill="#FCFCFF" d="M0 0h1000v700H0z"/><path fill="#F2F2F2" d="M190 200h620v300H190z"/><path fill="#888" d="M190 200h20v139h-20zM508 200v20H210v-20z"/><mask id="a" width="318" height="139" x="190" y="200" maskUnits="userSpaceOnUse" style="mask-type:alpha"><path fill="#888" fill-rule="evenodd" d="M508 220v-20H190v139h20V220h298Z" clip-rule="evenodd"/></mask><g fill="#D5D5D5" mask="url(#a)"><path d="m170 175.329 8.203-7.33 83.285 93.214-8.203 7.329zM271 175.329l8.203-7.33 83.285 93.214-8.203 7.329zM178 233.329l8.203-7.33 83.285 93.214-8.203 7.329zM371 175.329l8.203-7.33 83.285 93.214-8.203 7.329zM202 175.329l8.203-7.33 83.285 93.214-8.203 7.329zM137 267.329l8.203-7.33 83.285 93.214-8.203 7.329zM303 175.329l8.203-7.33 83.285 93.214-8.203 7.329z"/><path d="m229 256.329 8.203-7.33 83.285 93.214-8.203 7.329zM403 175.329l8.203-7.33 83.285 93.214-8.203 7.329zM237 175.329l8.203-7.33 83.285 93.214-8.203 7.329zM163 256.329l8.203-7.33 83.285 93.214-8.203 7.329zM338 175.329l8.203-7.33 83.285 93.214-8.203 7.329zM438 175.329l8.203-7.33 83.285 93.214-8.203 7.329zM471 175.329l8.203-7.33 83.285 93.214-8.203 7.329z"/></g><path fill="#888" d="M810 500h-20V361h20zM492 500v-20h298v20z"/><mask id="b" width="318" height="139" x="492" y="361" maskUnits="userSpaceOnUse" style="mask-type:alpha"><path fill="#888" fill-rule="evenodd" d="M492 480v20h318V361h-20v119H492Z" clip-rule="evenodd"/></mask><g fill="#D5D5D5" mask="url(#b)"><path d="m830 524.671-8.203 7.33-83.285-93.213 8.202-7.33zM729 524.671l-8.203 7.33-83.285-93.213 8.202-7.33zM822 466.671l-8.203 7.33-83.285-93.213 8.202-7.33zM629 524.671l-8.203 7.33-83.285-93.213 8.202-7.33zM798 524.671l-8.203 7.33-83.285-93.213 8.202-7.33zM863 432.671l-8.203 7.33-83.285-93.213 8.202-7.33zM697 524.671l-8.203 7.33-83.285-93.213 8.202-7.33z"/><path d="m771 443.671-8.203 7.33-83.285-93.213 8.202-7.33zM597 524.671l-8.203 7.33-83.285-93.213 8.202-7.33zM763 524.671l-8.203 7.33-83.285-93.213 8.202-7.33zM837 443.671l-8.203 7.33-83.285-93.213 8.202-7.33zM662 524.671l-8.203 7.33-83.285-93.213 8.202-7.33zM562 524.671l-8.203 7.33-83.285-93.213 8.202-7.33zM529 524.671l-8.203 7.33-83.285-93.213 8.202-7.33z"/></g></svg>