<svg xmlns="http://www.w3.org/2000/svg" width="1000" height="700" fill="none" viewBox="0 0 1000 700"><path fill="#FCFCFF" d="M0 0h1000v700H0z"/><path fill="#F2F2F2" d="M191 200h620v300H191z"/><path fill="#888" d="M509 200v20H191v-20z"/><mask id="a" width="320" height="20" x="189" y="200" maskUnits="userSpaceOnUse" style="mask-type:alpha"><path fill="#888" d="M509 200v20H189v-20z"/></mask><g fill="#D5D5D5" mask="url(#a)"><path d="m171 175.329 8.203-7.33 83.285 93.214-8.203 7.329zM272 175.329l8.203-7.33 83.285 93.214-8.203 7.329zM372 175.329l8.203-7.33 83.285 93.214-8.203 7.329zM203 175.329l8.203-7.33 83.285 93.214-8.203 7.329zM304 175.329l8.203-7.33 83.285 93.214-8.203 7.329zM404 175.329l8.203-7.33 83.285 93.214-8.203 7.329zM238 175.329l8.203-7.33 83.285 93.214-8.203 7.329zM339 175.329l8.203-7.33 83.285 93.214-8.203 7.329zM439 175.329l8.203-7.33 83.285 93.214-8.203 7.329zM472 175.329l8.203-7.33 83.285 93.214-8.203 7.329z"/></g></svg>