<svg xmlns="http://www.w3.org/2000/svg" width="1000" height="700" fill="none" viewBox="0 0 1000 700"><path fill="#FCFCFF" d="M0 0h1000v700H0z"/><path fill="#888" d="M482.55 340.915h-11.725v6.965c.49-.653 1.213-1.202 2.17-1.645a7.475 7.475 0 0 1 3.115-.665c1.96 0 3.547.42 4.76 1.26 1.237.84 2.112 1.902 2.625 3.185.537 1.283.805 2.637.805 4.06 0 1.727-.338 3.267-1.015 4.62-.653 1.33-1.645 2.38-2.975 3.15-1.307.77-2.917 1.155-4.83 1.155-2.543 0-4.585-.63-6.125-1.89-1.54-1.26-2.462-2.928-2.765-5.005h3.885c.257 1.097.828 1.972 1.715 2.625.887.63 1.995.945 3.325.945 1.657 0 2.893-.502 3.71-1.505.84-1.003 1.26-2.333 1.26-3.99 0-1.68-.42-2.963-1.26-3.85-.84-.91-2.077-1.365-3.71-1.365-1.143 0-2.112.292-2.905.875-.77.56-1.33 1.33-1.68 2.31h-3.78v-14.735h15.4v3.5Zm5.904 8.995c0-4.037.676-7.187 2.03-9.45 1.376-2.287 3.733-3.43 7.07-3.43 3.336 0 5.681 1.143 7.035 3.43 1.376 2.263 2.065 5.413 2.065 9.45 0 4.083-.689 7.28-2.065 9.59-1.354 2.287-3.699 3.43-7.035 3.43-3.337 0-5.694-1.143-7.07-3.43-1.354-2.31-2.03-5.507-2.03-9.59Zm14.28 0c0-1.89-.129-3.488-.385-4.795-.234-1.307-.724-2.368-1.47-3.185-.747-.84-1.855-1.26-3.325-1.26-1.47 0-2.579.42-3.325 1.26-.747.817-1.249 1.878-1.505 3.185-.234 1.307-.35 2.905-.35 4.795 0 1.96.116 3.605.35 4.935.233 1.33.723 2.403 1.47 3.22.77.817 1.89 1.225 3.36 1.225s2.578-.408 3.325-1.225c.77-.817 1.271-1.89 1.505-3.22.233-1.33.35-2.975.35-4.935Zm7.511-6.265c0-1.703.49-3.033 1.47-3.99 1.004-.98 2.287-1.47 3.85-1.47 1.564 0 2.835.49 3.815 1.47 1.004.957 1.505 2.287 1.505 3.99 0 1.703-.501 3.045-1.505 4.025-.98.98-2.251 1.47-3.815 1.47-1.563 0-2.846-.49-3.85-1.47-.98-.98-1.47-2.322-1.47-4.025Zm21.35-5.005L517.63 363h-3.92l13.965-24.36h3.92Zm-16.03 1.96c-1.47 0-2.205 1.015-2.205 3.045 0 2.053.735 3.08 2.205 3.08.7 0 1.237-.245 1.61-.735.397-.513.595-1.295.595-2.345 0-2.03-.735-3.045-2.205-3.045Zm8.925 17.36c0-1.703.49-3.033 1.47-3.99 1.004-.98 2.287-1.47 3.85-1.47 1.54 0 2.8.49 3.78 1.47 1.004.957 1.505 2.287 1.505 3.99 0 1.703-.501 3.045-1.505 4.025-.98.98-2.24 1.47-3.78 1.47-1.563 0-2.846-.49-3.85-1.47-.98-.98-1.47-2.322-1.47-4.025Zm5.285-3.045c-1.47 0-2.205 1.015-2.205 3.045 0 2.03.735 3.045 2.205 3.045 1.47 0 2.205-1.015 2.205-3.045 0-2.03-.735-3.045-2.205-3.045Z"/></svg>