<svg xmlns="http://www.w3.org/2000/svg" width="1000" height="700" fill="none" viewBox="0 0 1000 700"><path fill="#FCFCFF" d="M0 0h1000v700H0z"/><path fill="#D5D5D5" d="M500 525a175 175 0 1 1 0-350v20.21a154.79 154.79 0 1 0 0 309.58V525Z"/><path fill="#888" d="M500 175a175 175 0 1 1 0 350v-20.21a154.79 154.79 0 1 0 0-309.58V175Z"/><path fill="#888" d="M464.1 330.83h-23.45v13.93c.98-1.307 2.427-2.403 4.34-3.29a14.938 14.938 0 0 1 6.23-1.33c3.92 0 7.093.84 9.52 2.52 2.473 1.68 4.223 3.803 5.25 6.37 1.073 2.567 1.61 5.273 1.61 8.12 0 3.453-.677 6.533-2.03 9.24-1.307 2.66-3.29 4.76-5.95 6.3-2.613 1.54-5.833 2.31-9.66 2.31-5.087 0-9.17-1.26-12.25-3.78-3.08-2.52-4.923-5.857-5.53-10.01h7.77c.513 2.193 1.657 3.943 3.43 5.25 1.773 1.26 3.99 1.89 6.65 1.89 3.313 0 5.787-1.003 7.42-3.01 1.68-2.007 2.52-4.667 2.52-7.98 0-3.36-.84-5.927-2.52-7.7-1.68-1.82-4.153-2.73-7.42-2.73-2.287 0-4.223.583-5.81 1.75-1.54 1.12-2.66 2.66-3.36 4.62h-7.56v-29.47h30.8v7Zm11.807 17.99c0-8.073 1.353-14.373 4.06-18.9 2.753-4.573 7.467-6.86 14.14-6.86 6.673 0 11.363 2.287 14.07 6.86 2.753 4.527 4.13 10.827 4.13 18.9 0 8.167-1.377 14.56-4.13 19.18-2.707 4.573-7.397 6.86-14.07 6.86s-11.387-2.287-14.14-6.86c-2.707-4.62-4.06-11.013-4.06-19.18Zm28.56 0c0-3.78-.257-6.977-.77-9.59-.467-2.613-1.447-4.737-2.94-6.37-1.493-1.68-3.71-2.52-6.65-2.52-2.94 0-5.157.84-6.65 2.52-1.493 1.633-2.497 3.757-3.01 6.37-.467 2.613-.7 5.81-.7 9.59 0 3.92.233 7.21.7 9.87.467 2.66 1.447 4.807 2.94 6.44 1.54 1.633 3.78 2.45 6.72 2.45s5.157-.817 6.65-2.45c1.54-1.633 2.543-3.78 3.01-6.44.467-2.66.7-5.95.7-9.87Zm15.024-12.53c0-3.407.98-6.067 2.94-7.98 2.006-1.96 4.573-2.94 7.7-2.94 3.126 0 5.67.98 7.63 2.94 2.006 1.913 3.01 4.573 3.01 7.98s-1.004 6.09-3.01 8.05c-1.96 1.96-4.504 2.94-7.63 2.94-3.127 0-5.694-.98-7.7-2.94-1.96-1.96-2.94-4.643-2.94-8.05Zm42.7-10.01L534.261 375h-7.84l27.93-48.72h7.84Zm-32.06 3.92c-2.94 0-4.41 2.03-4.41 6.09 0 4.107 1.47 6.16 4.41 6.16 1.4 0 2.473-.49 3.22-1.47.793-1.027 1.19-2.59 1.19-4.69 0-4.06-1.47-6.09-4.41-6.09Zm17.85 34.72c0-3.407.98-6.067 2.94-7.98 2.006-1.96 4.573-2.94 7.7-2.94 3.08 0 5.6.98 7.56 2.94 2.006 1.913 3.01 4.573 3.01 7.98s-1.004 6.09-3.01 8.05c-1.96 1.96-4.48 2.94-7.56 2.94-3.127 0-5.694-.98-7.7-2.94-1.96-1.96-2.94-4.643-2.94-8.05Zm10.57-6.09c-2.94 0-4.41 2.03-4.41 6.09 0 4.06 1.47 6.09 4.41 6.09 2.94 0 4.41-2.03 4.41-6.09 0-4.06-1.47-6.09-4.41-6.09Z"/></svg>