<svg xmlns="http://www.w3.org/2000/svg" width="1000" height="700"><g clip-path="url(#clip-Flip_Box_-_Horizontal)"><path fill="#fcfcff" d="M0 0h1000v700H0z"/><rect width="800" height="309" fill="#d5d5d5" rx="5" transform="translate(100 196)"/><g fill="#fff"><path d="M534.984 393.053h-69.618a28.266 28.266 0 0 1-28.235-28.239v-49.448a28.265 28.265 0 0 1 28.235-28.235h69.618a28.269 28.269 0 0 1 28.24 28.235v49.453a28.269 28.269 0 0 1-28.24 28.235ZM465.376 292.18a23.225 23.225 0 0 0-23.2 23.191v49.453a23.22 23.22 0 0 0 23.2 23.191h69.618a23.225 23.225 0 0 0 23.2-23.191v-49.453a23.222 23.222 0 0 0-23.2-23.191h-69.618Z"/><path d="M538.055 372.878h-78.444a2.525 2.525 0 0 1-1.841-4.247l27.311-29.223a2.528 2.528 0 0 1 3.248-.378l14.582 9.724 14.41-24.764a2.518 2.518 0 0 1 4.5.308l18.576 45.1a2.53 2.53 0 0 1-2.345 3.485Zm-72.644-5.043h68.877l-15.192-36.89-13.2 22.671a2.5 2.5 0 0 1-1.6 1.19 2.551 2.551 0 0 1-1.972-.353L487.3 344.427l-21.889 23.408ZM469.965 317.956a8.826 8.826 0 1 1 8.826-8.826 8.836 8.836 0 0 1-8.826 8.826Zm0-12.609a3.783 3.783 0 1 0 3.783 3.783 3.784 3.784 0 0 0-3.783-3.786Z"/></g><g fill="#888" stroke-linecap="round" stroke-linejoin="round"><path d="m589.661 174.808.784-.968 28.95-35.749.783-.968.103 1.242 2.623 31.72.04.476-.475.06-31.572 4.03-1.236.157Z"/><path d="m622.406 170.125-2.623-31.719-28.949 35.749 31.572-4.03m.777.63a.997.997 0 0 1-.65.362l-31.572 4.03a1 1 0 0 1-.904-1.622l28.949-35.748a1 1 0 0 1 1.773.547l2.623 31.719a.997.997 0 0 1-.22.712Z"/></g><g fill="#888" stroke-linecap="round" stroke-linejoin="round"><path d="m409.72 526.418-.784.968-28.95 35.749-.783.968-.103-1.242-2.623-31.72-.04-.476.475-.06 31.572-4.03 1.236-.157Z"/><path d="m376.975 531.1 2.623 31.72 28.949-35.749-31.572 4.03m-.777-.63a.997.997 0 0 1 .65-.362l31.572-4.03a1 1 0 0 1 .904 1.622l-28.949 35.748a1 1 0 0 1-1.773-.547l-2.623-31.719a.997.997 0 0 1 .22-.712Z"/></g><path fill="none" stroke="#888" stroke-width="8" d="M362.5 161.003s41.9-50.569 127.824-50.777S610.5 161.003 610.5 161.003M636.879 540.223s-41.9 50.569-127.824 50.777-120.176-50.777-120.176-50.777"/></g></svg>