<svg xmlns="http://www.w3.org/2000/svg" width="1000" height="700"><g clip-path="url(#clip-Flip_Box_Vertical)"><path fill="#fcfcff" d="M0 0h1000v700H0z"/><rect width="517" height="500" fill="#d5d5d5" rx="5" transform="translate(242 100)"/><g fill="#fff"><path d="M534.984 403.053h-69.618a28.266 28.266 0 0 1-28.235-28.239v-49.448a28.265 28.265 0 0 1 28.235-28.235h69.618a28.269 28.269 0 0 1 28.24 28.235v49.453a28.269 28.269 0 0 1-28.24 28.235ZM465.376 302.18a23.225 23.225 0 0 0-23.2 23.191v49.453a23.22 23.22 0 0 0 23.2 23.191h69.618a23.225 23.225 0 0 0 23.2-23.191v-49.453a23.222 23.222 0 0 0-23.2-23.191h-69.618Z"/><path d="M538.055 382.878h-78.444a2.525 2.525 0 0 1-1.841-4.247l27.311-29.223a2.528 2.528 0 0 1 3.248-.378l14.582 9.724 14.41-24.764a2.518 2.518 0 0 1 4.5.308l18.576 45.1a2.53 2.53 0 0 1-2.345 3.485Zm-72.644-5.043h68.877l-15.192-36.89-13.2 22.671a2.5 2.5 0 0 1-1.6 1.19 2.551 2.551 0 0 1-1.972-.353L487.3 354.427l-21.889 23.408ZM469.965 327.956a8.826 8.826 0 1 1 8.826-8.826 8.836 8.836 0 0 1-8.826 8.826Zm0-12.609a3.783 3.783 0 1 0 3.783 3.783 3.784 3.784 0 0 0-3.783-3.786Z"/></g><g fill="#888" stroke-linecap="round" stroke-linejoin="round"><path d="m196.385 260.142-.968-.784-35.749-28.95-.968-.783 1.242-.103 31.72-2.623.476-.04.06.475 4.03 31.572.157 1.236Z"/><path d="m191.702 227.397-31.719 2.623 35.749 28.949-4.03-31.572m.63-.777a.997.997 0 0 1 .362.65l4.03 31.572a1 1 0 0 1-1.622.904l-35.748-28.949a1 1 0 0 1 .547-1.773l31.719-2.623a.997.997 0 0 1 .712.22Z"/></g><g fill="#888" stroke-linecap="round" stroke-linejoin="round"><path d="m803.993 453.083.968.784 35.749 28.95.968.783-1.242.103-31.72 2.623-.476.04-.06-.475-4.03-31.572-.157-1.236Z"/><path d="m808.676 485.828 31.719-2.623-35.749-28.949 4.03 31.572m-.63.777a.997.997 0 0 1-.362-.65l-4.03-31.572a1 1 0 0 1 1.622-.904l35.748 28.949a1 1 0 0 1-.547 1.773l-31.719 2.623a.997.997 0 0 1-.712-.22Z"/></g><path fill="none" stroke="#888" stroke-width="8" d="M182.58 487.302s-50.569-41.9-50.777-127.824 50.777-120.176 50.777-120.176M817.798 225.923s50.569 41.9 50.777 127.824-50.777 120.176-50.777 120.176"/></g></svg>