<svg xmlns="http://www.w3.org/2000/svg" width="1000" height="700" viewBox="0 0 1000 700"><g clip-path="url(#clip-Scroll_Navigation_Style_4)"><path fill="#fcfcff" d="M0 0h1000v700H0z"/><path fill="none" stroke="#707070" stroke-width="10" d="M649.5 127.5h62M649.5 247.5h62M649.5 466.5h62M649.5 572.5h62M565.5 346.5h146"/><path fill="#888" d="M513.21 308.001a5 5 0 0 1 5 5v21.135l16.6 13.009-16.6 11.994v20.362a5 5 0 0 1-5 5H293.232a5 5 0 0 1-5-5v-66.5a5 5 0 0 1 5-5Z"/><text fill="#fff" font-family="Roboto-Medium, Roboto" font-size="35" font-weight="500" transform="translate(378 360)"><tspan x="0" y="0">Home</tspan></text><path fill="#fff" d="M358.002 359.095h-7.988a.445.445 0 0 1-.444-.444v-7.541h-4.436v7.541a.444.444 0 0 1-.444.444h-7.988a.444.444 0 0 1-.444-.444V344.9h-1.913a.443.443 0 0 1-.295-.775l12.714-11.311a.445.445 0 0 1 .576-.012l3.117 2.559v-2.437a.444.444 0 0 1 .445-.444h4.436a.444.444 0 0 1 .444.444v7.018l4.378 4.194a.443.443 0 0 1-.307.764h-1.411v13.751a.444.444 0 0 1-.44.444Z"/></g></svg>