<svg xmlns="http://www.w3.org/2000/svg" width="1000" height="700" viewBox="0 0 1000 700"><g clip-path="url(#clip-Scroll_Navigation_Style_5)"><path fill="#fcfcff" d="M0 0h1000v700H0z"/><g fill="#d5d5d5" stroke="#d5d5d5" transform="translate(593 100)"><rect width="90" height="90" stroke="none" rx="10"/><rect width="89" height="89" x=".5" y=".5" fill="none" rx="9.5"/></g><g fill="#d5d5d5" stroke="#d5d5d5" transform="translate(593 510)"><rect width="90" height="90" stroke="none" rx="10"/><rect width="89" height="89" x=".5" y=".5" fill="none" rx="9.5"/></g><g fill="#888" stroke="#888" transform="translate(593 305)"><rect width="90" height="90" stroke="none" rx="10"/><rect width="89" height="89" x=".5" y=".5" fill="none" rx="9.5"/></g><path fill="#fff" d="M655.313 139.329a1.011 1.011 0 0 0-.884-.52h-16.561V122.27c0-.456-.1-.853-.543-.976a.882.882 0 0 0-1.034.462L620.058 149.4a1.9 1.9 0 0 0 .019 1.42c.178.313.538.91.9.91h15.275v15.35a1.016 1.016 0 0 0 .729.971.937.937 0 0 0 .281.039 1.009 1.009 0 0 0 .855-.472l17.166-27.266a1.01 1.01 0 0 0 .03-1.023ZM655.313 549.66a1.011 1.011 0 0 0-.884-.52h-16.561v-16.539c0-.456-.1-.853-.543-.976a.882.882 0 0 0-1.034.462l-16.233 27.644a1.9 1.9 0 0 0 .019 1.42c.178.313.538.91.9.91h15.275v15.35a1.016 1.016 0 0 0 .729.971.937.937 0 0 0 .281.039 1.009 1.009 0 0 0 .855-.472l17.166-27.266a1.01 1.01 0 0 0 .03-1.023ZM655.313 343.849a1.011 1.011 0 0 0-.884-.52h-16.561V326.79c0-.456-.1-.853-.543-.976a.882.882 0 0 0-1.034.462l-16.233 27.644a1.9 1.9 0 0 0 .019 1.42c.178.313.538.91.9.91h15.275v15.35a1.016 1.016 0 0 0 .729.971.937.937 0 0 0 .281.039 1.009 1.009 0 0 0 .855-.472l17.166-27.266a1.01 1.01 0 0 0 .03-1.023Z"/><path fill="#888" d="M541.21 312.001a5 5 0 0 1 5 5v21.135l16.6 13.009-16.6 11.994v20.362a5 5 0 0 1-5 5H321.232a5 5 0 0 1-5-5v-66.5a5 5 0 0 1 5-5Z"/><text fill="#fff" font-family="Roboto-Medium, Roboto" font-size="35" font-weight="500" transform="translate(406 364)"><tspan x="0" y="0">Home</tspan></text><path fill="#fff" d="M386.002 363.095h-7.988a.445.445 0 0 1-.444-.444v-7.541h-4.436v7.541a.444.444 0 0 1-.444.444h-7.988a.444.444 0 0 1-.444-.444V348.9h-1.913a.443.443 0 0 1-.295-.775l12.714-11.311a.445.445 0 0 1 .576-.012l3.117 2.559v-2.437a.444.444 0 0 1 .445-.444h4.436a.444.444 0 0 1 .444.444v7.018l4.378 4.194a.443.443 0 0 1-.307.764h-1.411v13.751a.444.444 0 0 1-.44.444Z"/></g></svg>