<svg xmlns="http://www.w3.org/2000/svg" width="1000" height="700" fill="none" viewBox="0 0 1000 700"><g clip-path="url(#a)"><mask id="b" width="1000" height="700" x="0" y="0" maskUnits="userSpaceOnUse" style="mask-type:luminance"><path fill="#fff" d="M1000 0H0v700h1000V0Z"/></mask><g mask="url(#b)"><path fill="#fff" d="M1000 0H0v700h1000V0Z"/><mask id="c" width="85" height="86" x="186" y="307" maskUnits="userSpaceOnUse" style="mask-type:luminance"><path fill="#fff" d="M270.654 307.672H186v84.654h84.654v-84.654Z"/></mask><g mask="url(#c)"><mask id="d" width="85" height="86" x="186" y="307" maskUnits="userSpaceOnUse" style="mask-type:luminance"><path fill="#fff" d="M270.654 307.67H186v84.654h84.654V307.67Z"/></mask><g mask="url(#d)"><path fill="#000" d="M268.372 344.491a.013.013 0 0 0-.006-.007l-34.533-34.53a7.735 7.735 0 0 0-5.509-2.284 7.746 7.746 0 0 0-5.511 2.282l-34.515 34.514c-.012.011-.022.025-.034.035-3.024 3.041-3.018 7.973.014 11.005a7.75 7.75 0 0 0 5.172 2.274c.08.007.159.012.241.012h1.376v25.411c0 5.029 4.091 9.121 9.121 9.121h13.51a2.481 2.481 0 0 0 2.481-2.48v-19.923a4.165 4.165 0 0 1 4.16-4.162h7.969a4.167 4.167 0 0 1 4.162 4.162v19.923a2.48 2.48 0 0 0 2.48 2.48h13.509c5.03 0 9.122-4.092 9.122-9.121v-25.411h1.277a7.743 7.743 0 0 0 5.511-2.284c3.036-3.038 3.036-7.978.003-11.017Z"/></g></g><path fill="#000" d="M339.357 370.317h-8.036v-14.484H316.59v14.484h-8.012v-35.565h8.012v14.187h14.731v-14.187h8.036v35.565Zm23.188.62c-5.091 0-9.242-1.652-12.449-4.959-3.209-3.324-4.812-7.648-4.812-12.972 0-5.621 1.629-10.167 4.886-13.64 3.258-3.472 7.572-5.208 12.946-5.208 5.075 0 9.176 1.661 12.301 4.985 3.141 3.323 4.712 7.705 4.712 13.145 0 5.587-1.628 10.092-4.886 13.516-3.24 3.421-7.473 5.133-12.698 5.133Zm.347-29.885c-2.81 0-5.042 1.059-6.696 3.175-1.652 2.099-2.48 4.886-2.48 8.357 0 3.522.828 6.308 2.48 8.359 1.654 2.05 3.82 3.074 6.498 3.074 2.761 0 4.952-.992 6.573-2.976 1.62-2 2.431-4.769 2.431-8.308 0-3.686-.786-6.556-2.357-8.606-1.571-2.05-3.72-3.075-6.449-3.075Zm63.69 29.265h-7.911v-21.278c0-2.3.098-4.837.298-7.614h-.2c-.413 2.182-.786 3.752-1.116 4.712l-8.333 24.18h-6.547l-8.483-23.933c-.23-.645-.602-2.298-1.115-4.959h-.224c.215 3.505.323 6.579.323 9.225v19.667h-7.217v-35.565h11.731l7.267 21.081c.579 1.686 1 3.381 1.265 5.084h.149c.445-1.967.917-3.679 1.413-5.133l7.267-21.032h11.433v35.565Zm29.414 0h-21.329v-35.565h20.51v6.524h-12.5v7.912h11.633v6.496h-11.633v8.135h13.319v6.498Z"/><g opacity=".35"><mask id="e" width="86" height="86" x="542" y="307" maskUnits="userSpaceOnUse" style="mask-type:luminance"><path fill="#fff" d="M627.441 307.279H542v85.442h85.441v-85.442Z"/></mask><g mask="url(#e)"><path fill="#000" d="M606.092 389.158h-42.721c-.945 0-1.85-.376-2.517-1.044a3.555 3.555 0 0 1 0-5.034 3.555 3.555 0 0 1 2.517-1.042h42.721a3.56 3.56 0 1 1 0 7.12Zm17.799-60.521v28.481a17.791 17.791 0 0 1-5.214 12.585 17.791 17.791 0 0 1-12.585 5.214h-42.721a17.797 17.797 0 0 1-17.801-17.799v-28.481a17.798 17.798 0 0 1 17.801-17.801h42.721a17.81 17.81 0 0 1 12.585 5.214 17.784 17.784 0 0 1 5.214 12.587Zm-64.081 7.12a3.564 3.564 0 0 0 3.561 3.56h21.36a3.57 3.57 0 0 0 2.518-1.042 3.563 3.563 0 0 0-2.518-6.079h-21.36c-.945 0-1.85.376-2.517 1.044a3.556 3.556 0 0 0-1.044 2.517Zm49.841 14.24a3.56 3.56 0 0 0-3.559-3.559h-42.721a3.558 3.558 0 1 0 0 7.119h42.721a3.56 3.56 0 0 0 3.559-3.56Z"/></g><path fill="#000" d="M666.328 370.505V334.61h10.212c3.105 0 5.566.758 7.386 2.277 1.818 1.52 2.727 3.497 2.727 5.933 0 2.036-.55 3.804-1.651 5.306-1.102 1.502-2.621 2.57-4.556 3.204v.101c2.42.284 4.354 1.202 5.807 2.753 1.452 1.536 2.177 3.539 2.177 6.008 0 3.071-1.1 5.557-3.303 7.459-2.203 1.902-4.981 2.854-8.336 2.854h-10.463Zm4.206-32.09v11.589h4.304c2.304 0 4.115-.55 5.432-1.652 1.32-1.118 1.978-2.686 1.978-4.706 0-3.488-2.294-5.231-6.884-5.231h-4.83Zm0 15.369V366.7h5.707c2.469 0 4.38-.583 5.731-1.752 1.369-1.169 2.053-2.77 2.053-4.805 0-4.24-2.887-6.359-8.661-6.359h-4.83Zm43.805 16.721h-18.624V334.61h4.205v32.09h14.419v3.805Zm18.223.602c-5.09 0-9.171-1.678-12.24-5.033-3.056-3.354-4.582-7.717-4.582-13.091 0-5.774 1.561-10.38 4.681-13.818 3.12-3.438 7.368-5.155 12.741-5.155 4.957 0 8.946 1.668 11.965 5.005 3.038 3.337 4.556 7.702 4.556 13.091 0 5.858-1.552 10.489-4.655 13.893-3.105 3.404-7.259 5.108-12.466 5.108Zm.299-33.293c-3.771 0-6.833 1.36-9.186 4.08-2.352 2.721-3.529 6.29-3.529 10.713 0 4.422 1.143 7.985 3.429 10.689 2.304 2.688 5.298 4.031 8.987 4.031 3.937 0 7.042-1.285 9.312-3.855 2.269-2.57 3.404-6.168 3.404-10.79 0-4.738-1.101-8.402-3.305-10.988-2.203-2.587-5.24-3.88-9.112-3.88Zm50.715 30.237c-3.604 2.037-7.61 3.056-12.015 3.056-5.123 0-9.27-1.653-12.44-4.958-3.155-3.303-4.732-7.676-4.732-13.117 0-5.557 1.751-10.112 5.256-13.667 3.522-3.57 7.977-5.355 13.368-5.355 3.905 0 7.184.634 9.836 1.902v4.655c-2.903-1.836-6.341-2.753-10.312-2.753-4.021 0-7.318 1.385-9.888 4.155-2.57 2.77-3.855 6.357-3.855 10.764 0 4.539 1.193 8.11 3.58 10.713 2.386 2.587 5.624 3.881 9.713 3.881 2.803 0 5.231-.561 7.283-1.678v-10.062h-7.859v-3.805h12.065v16.269Zm6.683 1.002v-4.956a9.712 9.712 0 0 0 2.028 1.352c.802.4 1.636.743 2.504 1.027.883.266 1.768.475 2.652.625.885.151 1.704.226 2.454.226 2.587 0 4.514-.477 5.782-1.427 1.285-.969 1.928-2.353 1.928-4.156 0-.967-.217-1.811-.651-2.527-.417-.718-1.002-1.369-1.753-1.954-.751-.601-1.643-1.168-2.678-1.702a144.049 144.049 0 0 0-3.305-1.727 55.553 55.553 0 0 1-3.503-1.928 15.21 15.21 0 0 1-2.83-2.153 9.261 9.261 0 0 1-1.902-2.652c-.451-1.001-.675-2.17-.675-3.505 0-1.635.359-3.053 1.077-4.255a9.172 9.172 0 0 1 2.828-3.004c1.167-.784 2.495-1.369 3.98-1.753a18.462 18.462 0 0 1 4.581-.574c3.537 0 6.116.425 7.734 1.276v4.73c-2.119-1.468-4.839-2.202-8.159-2.202-.92 0-1.837.1-2.755.3a7.54 7.54 0 0 0-2.452.927 5.437 5.437 0 0 0-1.753 1.676c-.45.685-.676 1.519-.676 2.503 0 .918.166 1.711.501 2.379.351.666.86 1.276 1.526 1.827.668.55 1.478 1.085 2.428 1.603.969.516 2.078 1.083 3.329 1.702 1.285.634 2.504 1.3 3.655 2.002a16.712 16.712 0 0 1 3.03 2.328 10.134 10.134 0 0 1 2.052 2.828c.517 1.035.776 2.22.776 3.554 0 1.769-.35 3.271-1.051 4.506a8.414 8.414 0 0 1-2.804 2.979c-1.169.767-2.52 1.319-4.055 1.652a21.739 21.739 0 0 1-4.856.527c-.568 0-1.268-.052-2.102-.151a23.528 23.528 0 0 1-2.555-.401 21.308 21.308 0 0 1-2.478-.626c-.767-.266-1.384-.559-1.852-.876Z"/></g></g></g><defs><clipPath id="a"><path fill="#fff" d="M0 0h1000v700H0z"/></clipPath></defs></svg>