<svg xmlns="http://www.w3.org/2000/svg" width="1000" height="700" viewBox="0 0 1000 700"><defs><clipPath id="a"><path d="M0 0h1000v700H0z"/></clipPath></defs><g clip-path="url(#a)" data-name="Social Sharing - Horizontal- Style 1"><path fill="#fcfcff" d="M0 0h1000v700H0z"/><rect width="378" height="119" fill="#888" data-name="Rectangle 11" rx="10" transform="translate(100 291)"/><rect width="378" height="119" fill="#888" data-name="Rectangle 617" rx="10" transform="translate(522 291)"/><path fill="#fff" fill-rule="evenodd" d="M170.42 370.356v-18.965h6.476l.925-7.4h-7.4v-4.626c0-2.082.694-3.7 3.7-3.7h3.932v-6.708c-.926 0-3.241-.231-5.783-.231-5.551 0-9.482 3.469-9.482 9.714v5.551h-6.476v7.4h6.476v18.965Z" data-name="Path 1"/><text fill="#fff" data-name="Facebook" font-family="Roboto-Bold, Roboto" font-size="46" font-weight="700" transform="translate(220 368)"><tspan x="0" y="0">Facebook</tspan></text><text fill="#fff" font-family="Roboto-Bold, Roboto" font-size="46" font-weight="700" transform="translate(649 368)"><tspan x="0" y="0">Pinterest</tspan></text><path fill="#fff" d="M602.16 330c-8.631 0-17.16 5.754-17.16 15.065 0 5.922 3.331 9.287 5.35 9.287.833 0 1.312-2.322 1.312-2.978 0-.782-1.994-2.448-1.994-5.7 0-6.763 5.148-11.558 11.81-11.558 5.728 0 9.968 3.255 9.968 9.236 0 4.467-1.792 12.845-7.6 12.845a3.735 3.735 0 0 1-3.886-3.684c0-3.18 2.221-6.258 2.221-9.539 0-5.569-7.9-4.559-7.9 2.17a9.882 9.882 0 0 0 .808 4.265c-1.161 5-3.533 12.441-3.533 17.589 0 1.59.227 3.154.379 4.744.286.32.143.286.58.126 4.239-5.8 4.088-6.94 6.006-14.535 1.035 1.968 3.71 3.028 5.829 3.028 8.933 0 12.946-8.706 12.946-16.554.004-8.356-7.212-13.807-15.136-13.807Z"/></g></svg>