<svg xmlns="http://www.w3.org/2000/svg" width="1000" height="700" viewBox="0 0 1000 700"><defs><clipPath id="a"><path d="M0 0h1000v700H0z"/></clipPath></defs><g clip-path="url(#a)" data-name="Style 5"><path fill="#fcfcff" d="M0 0h1000v700H0z"/><rect width="800" height="190" fill="#888" data-name="Rectangle 11" rx="10" transform="translate(100 255)"/><text fill="#fff" font-family="Roboto-Bold, Roboto" font-size="55" font-weight="700" transform="translate(623 372)"><tspan x="0" y="0">Facebook</tspan></text><text fill="#fff" font-family="Roboto-Bold, Roboto" font-size="55" font-weight="700" transform="translate(397 372)"><tspan x="0" y="0">Share</tspan></text><text fill="#fff" data-name="108" font-family="Roboto-Bold, Roboto" font-size="55" font-weight="700" transform="translate(261 372)"><tspan x="0" y="0">108</tspan></text><g data-name="Facebook"><path fill="#fff" fill-rule="evenodd" d="M157.123 379.5v-26.088h8.908l1.272-10.178h-10.18v-6.365c0-2.863.954-5.09 5.09-5.09h5.408v-9.227c-1.273 0-4.454-.318-7.954-.318-7.635 0-13.043 4.772-13.043 13.362v7.638h-8.908v10.178h8.908V379.5Z" data-name="Path 1"/></g><path fill="none" stroke="#fff" stroke-width="2" d="M220.5 326.5v48" data-name="Line 114"/><path fill="none" stroke="#fff" stroke-width="2" d="M582.5 326.5v48" data-name="Line 115"/></g></svg>