<svg xmlns="http://www.w3.org/2000/svg" width="1000" height="700" viewBox="0 0 1000 700"><defs><clipPath id="a"><path d="M0 0h1000v700H0z"/></clipPath></defs><g clip-path="url(#a)" data-name="Social Sharing - Horizontal- Style 3"><path fill="#fcfcff" d="M0 0h1000v700H0z"/><rect width="378" height="228" fill="#888" data-name="Rectangle 11" rx="10" transform="translate(100 236)"/><g fill="#f2f2f2" stroke="#d5d5d5" data-name="Rectangle 617" transform="translate(522 236)"><rect width="378" height="228" stroke="none" rx="10"/><rect width="377" height="227" x=".5" y=".5" fill="none" rx="9.5"/></g><path fill="#fff" fill-rule="evenodd" d="M294.46 349v-30.191h10.309l1.473-11.783H294.46v-7.363c0-3.314 1.1-5.891 5.891-5.891h6.259v-10.678c-1.473 0-5.155-.368-9.2-.368-8.837 0-15.1 5.523-15.1 15.464v8.836H272v11.783h10.309V349Z" data-name="Path 1"/><text fill="#fff" data-name="Facebook" font-family="Roboto-Bold, Roboto" font-size="46" font-weight="700" transform="translate(189 406)"><tspan x="0" y="0">Facebook</tspan></text><text fill="#888" font-family="Roboto-Bold, Roboto" font-size="46" font-weight="700" transform="translate(651 406)"><tspan x="0" y="0">Share</tspan></text><text fill="#888" data-name="5" font-family="Roboto-Medium, Roboto" font-size="62" font-weight="500" transform="translate(694 347)"><tspan x="0" y="0">5</tspan></text></g></svg>