<svg xmlns="http://www.w3.org/2000/svg" width="1000" height="700" viewBox="0 0 1000 700"><defs><clipPath id="a"><path d="M0 0h1000v700H0z"/></clipPath></defs><g clip-path="url(#a)" data-name="Social Sharing - Toggle - Style 1"><path fill="#fcfcff" d="M0 0h1000v700H0z"/><rect width="106" height="106" fill="#888" data-name="Rectangle 550" rx="10" transform="translate(299 395)"/><rect width="106" height="106" fill="#888" data-name="Rectangle 618" rx="10" transform="translate(447 395)"/><rect width="106" height="106" fill="#888" data-name="Rectangle 619" rx="10" transform="translate(595 395)"/><path fill="#fff" fill-rule="evenodd" d="M356.032 473.591v-23.304h7.957l1.137-9.094h-9.094v-5.683c0-2.558.853-4.547 4.547-4.547h4.831v-8.242c-1.137 0-3.979-.284-7.1-.284-6.82 0-11.652 4.263-11.652 11.936v6.82h-7.961v9.094h7.957v23.3Z" data-name="Path 1"/><rect width="398" height="136" fill="#888" data-name="Rectangle 617" rx="68" transform="translate(301 199)"/><text fill="#fff" font-family="Roboto-Bold, Roboto" font-size="64" font-weight="700" transform="translate(365 292)"><tspan x="0" y="0">Share</tspan></text><g transform="translate(566 232)"><circle cx="35" cy="35" r="35" fill="#f2f2f2" data-name="Ellipse 226"/><g data-name="+"><path fill="#888" d="M32.874 52V37.125H18v-4.25h14.874V18h4.251v14.875H52v4.25H37.126V52Z" data-name="Union 1"/></g></g><path fill="#fff" d="M500.985 422.438c-10.516 0-20.908 7.01-20.908 18.356 0 7.215 4.059 11.315 6.518 11.315 1.015 0 1.6-2.829 1.6-3.628 0-.953-2.429-2.982-2.429-6.949 0-8.24 6.272-14.082 14.39-14.082 6.98 0 12.145 3.966 12.145 11.253 0 5.442-2.183 15.65-9.255 15.65a4.551 4.551 0 0 1-4.735-4.489c0-3.874 2.706-7.625 2.706-11.622 0-6.785-9.624-5.555-9.624 2.644a12.041 12.041 0 0 0 .984 5.2c-1.414 6.088-4.3 15.158-4.3 21.431 0 1.937.277 3.843.461 5.78.348.389.174.348.707.154 5.165-7.072 4.981-8.455 7.318-17.71 1.261 2.4 4.52 3.69 7.1 3.69 10.884 0 15.773-10.608 15.773-20.17-.003-10.182-8.797-16.823-18.451-16.823Z"/><g data-name="Symbol 13 – 4"><path fill="#fff" fill-rule="evenodd" d="M647.934 426.985c6.82 0 7.673 0 10.231.284a13.181 13.181 0 0 1 4.831.853 9.98 9.98 0 0 1 4.831 4.831 13.181 13.181 0 0 1 .853 4.831c0 2.558.284 3.41.284 10.231s0 7.673-.284 10.231a13.181 13.181 0 0 1-.853 4.831 9.98 9.98 0 0 1-4.831 4.831 13.181 13.181 0 0 1-4.831.853c-2.558 0-3.41.284-10.231.284s-7.673 0-10.231-.284a13.181 13.181 0 0 1-4.831-.853 9.98 9.98 0 0 1-4.831-4.831 13.181 13.181 0 0 1-.853-4.831c0-2.558-.284-3.41-.284-10.231s0-7.673.284-10.231a13.181 13.181 0 0 1 .853-4.831 10.207 10.207 0 0 1 1.989-2.842 4.8 4.8 0 0 1 2.842-1.989 13.181 13.181 0 0 1 4.831-.853c2.558-.284 3.41-.284 10.231-.284m0-4.547c-6.82 0-7.957 0-10.515.284a17.545 17.545 0 0 0-6.252 1.137 11.125 11.125 0 0 0-4.547 2.842 11.125 11.125 0 0 0-2.842 4.547 12.948 12.948 0 0 0-1.137 6.252c-.284 2.557-.284 3.694-.284 10.515s0 7.957.284 10.515a17.545 17.545 0 0 0 1.137 6.252 11.125 11.125 0 0 0 2.842 4.547 11.125 11.125 0 0 0 4.547 2.841 17.544 17.544 0 0 0 6.252 1.137c2.558.284 3.694.284 10.515.284s7.957 0 10.515-.284a17.544 17.544 0 0 0 6.252-1.137 11.923 11.923 0 0 0 7.389-7.389 17.544 17.544 0 0 0 1.137-6.252c0-2.842.284-3.694.284-10.515s0-7.957-.284-10.515a17.545 17.545 0 0 0-1.138-6.251 11.125 11.125 0 0 0-2.842-4.547 11.125 11.125 0 0 0-4.547-2.842 17.545 17.545 0 0 0-6.251-1.137c-2.558-.284-3.692-.284-10.515-.284m0 12.5a12.862 12.862 0 0 0-13.077 13.077 13.073 13.073 0 1 0 13.077-13.077m0 21.6a8.373 8.373 0 0 1-8.526-8.526 8.373 8.373 0 0 1 8.526-8.526 8.373 8.373 0 0 1 8.523 8.529 8.373 8.373 0 0 1-8.523 8.523m13.641-25.29a3.126 3.126 0 1 0 3.126 3.126 3.154 3.154 0 0 0-3.126-3.126" data-name="Path 3"/></g></g></svg>