<svg xmlns="http://www.w3.org/2000/svg" width="1000" height="700" viewBox="0 0 1000 700"><defs><clipPath id="a"><path d="M0 0h1000v700H0z"/></clipPath></defs><g clip-path="url(#a)" data-name="Social Sharing - Vertical - Style 1"><path fill="#fcfcff" d="M0 0h1000v700H0z"/><rect width="534" height="168" fill="#888" data-name="Rectangle 11" rx="10" transform="translate(233 157)"/><rect width="534" height="168" fill="#888" data-name="Rectangle 617" rx="10" transform="translate(233 375)"/><path fill="#fff" fill-rule="evenodd" d="M332.568 269.203v-26.815h9.152l1.308-10.464h-10.46v-6.54c0-2.943.981-5.232 5.232-5.232h5.559v-9.484c-1.308 0-4.578-.327-8.175-.327-7.849 0-13.408 4.905-13.408 13.734v7.848h-9.156v10.465h9.156v26.815Z" data-name="Path 1"/><text fill="#fff" data-name="Facebook" font-family="Roboto-Bold, Roboto" font-size="64" font-weight="700" transform="translate(403 265)"><tspan x="0" y="0">Facebook</tspan></text><text fill="#fff" font-family="Roboto-Bold, Roboto" font-size="64" font-weight="700" transform="translate(413 483)"><tspan x="0" y="0">Pinterest</tspan></text><path fill="#fff" d="M346.34 429.886c-12.203 0-24.263 8.135-24.263 21.3 0 8.373 4.71 13.13 7.564 13.13 1.177 0 1.855-3.283 1.855-4.21 0-1.106-2.819-3.461-2.819-8.064 0-9.562 7.279-16.342 16.7-16.342 8.1 0 14.094 4.6 14.094 13.059 0 6.315-2.533 18.161-10.74 18.161a5.281 5.281 0 0 1-5.495-5.209c0-4.5 3.14-8.849 3.14-13.487 0-7.873-11.168-6.446-11.168 3.069a13.973 13.973 0 0 0 1.142 6.03c-1.641 7.065-5 17.59-5 24.869 0 2.248.321 4.46.535 6.708.4.452.2.4.821.178 5.994-8.206 5.78-9.812 8.492-20.552 1.463 2.783 5.245 4.282 8.242 4.282 12.631 0 18.3-12.31 18.3-23.406.008-11.809-10.197-19.516-21.4-19.516Z"/></g></svg>