<svg xmlns="http://www.w3.org/2000/svg" width="1000" height="700" viewBox="0 0 1000 700"><defs><clipPath id="a"><path d="M0 0h1000v700H0z"/></clipPath></defs><g clip-path="url(#a)" data-name="Social Sharing - Vertical - Style 2"><path fill="#fcfcff" d="M0 0h1000v700H0z"/><rect width="378" height="228" fill="#888" data-name="Rectangle 11" rx="10" transform="translate(311 105)"/><rect width="378" height="228" fill="#888" data-name="Rectangle 617" rx="10" transform="translate(311 368)"/><path fill="#fff" fill-rule="evenodd" d="M505.46 218v-30.191h10.309l1.473-11.783H505.46v-7.363c0-3.314 1.1-5.891 5.891-5.891h6.259v-10.678c-1.473 0-5.155-.368-9.2-.368-8.837 0-15.1 5.523-15.1 15.464v8.836H483v11.783h10.309V218Z" data-name="Path 1"/><text fill="#fff" data-name="Facebook" font-family="Roboto-Bold, Roboto" font-size="46" font-weight="700" transform="translate(400 275)"><tspan x="0" y="0">Facebook</tspan></text><text fill="#fff" font-family="Roboto-Bold, Roboto" font-size="46" font-weight="700" transform="translate(406 538)"><tspan x="0" y="0">Pinterest</tspan></text><path fill="#fff" d="M502.5 414.727c-13.832 0-27.5 9.22-27.5 24.141 0 9.489 5.338 14.881 8.573 14.881 1.334 0 2.1-3.72 2.1-4.772 0-1.254-3.195-3.922-3.195-9.139 0-10.837 8.249-18.52 18.924-18.52 9.179 0 15.973 5.216 15.973 14.8 0 7.157-2.871 20.582-12.171 20.582a5.985 5.985 0 0 1-6.227-5.9c0-5.1 3.558-10.028 3.558-15.285 0-8.923-12.657-7.306-12.657 3.478a15.835 15.835 0 0 0 1.297 6.834c-1.86 8.006-5.661 19.935-5.661 28.184 0 2.548.364 5.055.607 7.6.458.512.229.458.93.2 6.793-9.3 6.551-11.12 9.624-23.292 1.658 3.154 5.944 4.852 9.341 4.852 14.315 0 20.744-13.951 20.744-26.527-.001-13.383-11.566-22.117-24.26-22.117Z"/></g></svg>