<svg xmlns="http://www.w3.org/2000/svg" width="1000" height="700" viewBox="0 0 1000 700"><defs><clipPath id="a"><path d="M0 0h1000v700H0z"/></clipPath></defs><g clip-path="url(#a)" data-name="Advanced Chart - Bar Chart"><path fill="#fcfcff" d="M0 0h1000v700H0z"/><path fill="none" stroke="#707070" stroke-width="2" d="M155.5 100.5v482" data-name="Line 160"/><path fill="none" stroke="#888" stroke-width="2" d="M136.5 562.5H900" data-name="Line 161"/><path fill="none" stroke="#d5d5d5" d="M136.5 471.5h763.007" data-name="Line 162"/><path fill="none" stroke="#d5d5d5" d="M136.5 380.5h763.007" data-name="Line 163"/><path fill="none" stroke="#d5d5d5" d="M136.5 289.5h763.007" data-name="Line 164"/><path fill="none" stroke="#d5d5d5" d="M136.5 198.5h763.007" data-name="Line 165"/><path fill="none" stroke="#d5d5d5" d="M136.746 99.5h763.007" data-name="Line 170"/><text fill="#888" data-name="0" font-family="Roboto-Medium, Roboto" font-size="18" font-weight="500" transform="translate(121 570)"><tspan x="0" y="0">0</tspan></text><text fill="#888" data-name="1995" font-family="Roboto-Medium, Roboto" font-size="18" font-weight="500" transform="translate(221 602)"><tspan x="0" y="0">1995</tspan></text><text fill="#888" data-name="2000" font-family="Roboto-Medium, Roboto" font-size="18" font-weight="500" transform="translate(407 602)"><tspan x="0" y="0">2000</tspan></text><text fill="#888" data-name="2005" font-family="Roboto-Medium, Roboto" font-size="18" font-weight="500" transform="translate(593 602)"><tspan x="0" y="0">2005</tspan></text><text fill="#888" data-name="2010" font-family="Roboto-Medium, Roboto" font-size="18" font-weight="500" transform="translate(779 602)"><tspan x="0" y="0">2010</tspan></text><text fill="#888" data-name="50" font-family="Roboto-Medium, Roboto" font-size="18" font-weight="500" transform="translate(111 479)"><tspan x="0" y="0">50</tspan></text><text fill="#888" data-name="100" font-family="Roboto-Medium, Roboto" font-size="18" font-weight="500" transform="translate(100 388)"><tspan x="0" y="0">100</tspan></text><text fill="#888" data-name="150" font-family="Roboto-Medium, Roboto" font-size="18" font-weight="500" transform="translate(100 297)"><tspan x="0" y="0">150</tspan></text><text fill="#888" data-name="200" font-family="Roboto-Medium, Roboto" font-size="18" font-weight="500" transform="translate(100 206)"><tspan x="0" y="0">200</tspan></text><text fill="#888" data-name="250" font-family="Roboto-Medium, Roboto" font-size="18" font-weight="500" transform="translate(100.246 107)"><tspan x="0" y="0">250</tspan></text><path fill="#d5d5d5" d="M210 470h32v92h-32z" data-name="Rectangle 657"/><path fill="#d5d5d5" d="M396 329h32v235h-32z" data-name="Rectangle 659"/><path fill="#d5d5d5" d="M582 100h32v464h-32z" data-name="Rectangle 661"/><path fill="#d5d5d5" d="M768 341h32v223h-32z" data-name="Rectangle 664"/><path fill="#888" d="M242 379h32v183h-32z" data-name="Rectangle 658"/><path fill="#888" d="M428 198h32v366h-32z" data-name="Rectangle 660"/><path fill="#888" d="M614 240h32v324h-32z" data-name="Rectangle 662"/><path fill="#888" d="M800 426h32v138h-32z" data-name="Rectangle 663"/></g></svg>