<svg xmlns="http://www.w3.org/2000/svg" width="1000" height="700" viewBox="0 0 1000 700"><defs><clipPath id="a"><path d="M0 0h1000v700H0z"/></clipPath></defs><g clip-path="url(#a)" data-name="Advanced Chart - Bubble Chart"><path fill="#fcfcff" d="M0 0h1000v700H0z"/><path fill="none" stroke="#707070" stroke-width="2" d="M155.5 100.5v482" data-name="Line 160"/><path fill="none" stroke="#d5d5d5" stroke-width="2" d="M262 100v482" data-name="Line 171"/><path fill="none" stroke="#d5d5d5" stroke-width="2" d="M369 100v482" data-name="Line 172"/><path fill="none" stroke="#d5d5d5" stroke-width="2" d="M476 100v482" data-name="Line 173"/><path fill="none" stroke="#d5d5d5" stroke-width="2" d="M583 100v482" data-name="Line 174"/><path fill="none" stroke="#d5d5d5" stroke-width="2" d="M690 100v482" data-name="Line 175"/><path fill="none" stroke="#d5d5d5" stroke-width="2" d="M797 100v482" data-name="Line 176"/><path fill="none" stroke="#d5d5d5" stroke-width="2" d="M900 100v482" data-name="Line 177"/><path fill="none" stroke="#888" stroke-width="2" d="M136.5 562.5H900" data-name="Line 161"/><path fill="none" stroke="#d5d5d5" d="M136.5 471.5h763.007" data-name="Line 162"/><path fill="none" stroke="#d5d5d5" d="M136.5 380.5h763.007" data-name="Line 163"/><path fill="none" stroke="#d5d5d5" d="M136.5 289.5h763.007" data-name="Line 164"/><path fill="none" stroke="#d5d5d5" d="M136.5 198.5h763.007" data-name="Line 165"/><path fill="none" stroke="#d5d5d5" d="M136.746 99.5h763.007" data-name="Line 170"/><text fill="#888" data-name="0" font-family="Roboto-Medium, Roboto" font-size="18" font-weight="500" transform="translate(121 570)"><tspan x="0" y="0">0</tspan></text><text fill="#888" data-name="10" font-family="Roboto-Medium, Roboto" font-size="18" font-weight="500" transform="translate(252 606)"><tspan x="0" y="0">10</tspan></text><text fill="#888" data-name="15" font-family="Roboto-Medium, Roboto" font-size="18" font-weight="500" transform="translate(359 606)"><tspan x="0" y="0">15</tspan></text><text fill="#888" data-name="20" font-family="Roboto-Medium, Roboto" font-size="18" font-weight="500" transform="translate(466 606)"><tspan x="0" y="0">20</tspan></text><text fill="#888" data-name="25" font-family="Roboto-Medium, Roboto" font-size="18" font-weight="500" transform="translate(573 606)"><tspan x="0" y="0">25</tspan></text><text fill="#888" data-name="30" font-family="Roboto-Medium, Roboto" font-size="18" font-weight="500" transform="translate(680 606)"><tspan x="0" y="0">30</tspan></text><text fill="#888" data-name="35" font-family="Roboto-Medium, Roboto" font-size="18" font-weight="500" transform="translate(787 606)"><tspan x="0" y="0">35</tspan></text><text fill="#888" data-name="40" font-family="Roboto-Medium, Roboto" font-size="18" font-weight="500" transform="translate(890 606)"><tspan x="0" y="0">40</tspan></text><text fill="#888" data-name="5" font-family="Roboto-Medium, Roboto" font-size="18" font-weight="500" transform="translate(146 606)"><tspan x="0" y="0">05</tspan></text><text fill="#888" data-name="50" font-family="Roboto-Medium, Roboto" font-size="18" font-weight="500" transform="translate(111 479)"><tspan x="0" y="0">50</tspan></text><text fill="#888" data-name="100" font-family="Roboto-Medium, Roboto" font-size="18" font-weight="500" transform="translate(100 388)"><tspan x="0" y="0">100</tspan></text><text fill="#888" data-name="150" font-family="Roboto-Medium, Roboto" font-size="18" font-weight="500" transform="translate(100 297)"><tspan x="0" y="0">150</tspan></text><text fill="#888" data-name="200" font-family="Roboto-Medium, Roboto" font-size="18" font-weight="500" transform="translate(100 206)"><tspan x="0" y="0">200</tspan></text><text fill="#888" data-name="250" font-family="Roboto-Medium, Roboto" font-size="18" font-weight="500" transform="translate(100.246 107)"><tspan x="0" y="0">250</tspan></text><g fill="#888" data-name="Polygon 17"><path d="M171.138 439.5h-30.276L156 413.008l15.138 26.492Z"/><path d="M156 414.016 141.723 439h28.554L156 414.016m0-2.016 16 28h-32l16-28Z"/></g><g fill="#888" data-name="Polygon 18"><path d="M380.136 570.5h-21.272l10.636-18.497 10.636 18.497Z"/><path d="M369.5 553.006 359.729 570h19.542l-9.771-16.994m0-2.006 11.5 20h-23l11.5-20Z"/></g><g fill="#888" data-name="Polygon 19"><path d="M378.15 389.5h-18.3l9.15-16.47 9.15 16.47Z"/><path d="M369 374.06 360.7 389h16.6l-8.3-14.94m0-2.06 10 18h-20l10-18Z"/></g><g fill="#888" data-name="Polygon 20"><path d="M487.138 299.5h-22.276L476 280.008l11.138 19.492Z"/><path d="M476 281.016 465.723 299h20.554L476 281.016m0-2.016 12 21h-24l12-21Z"/></g><g fill="#888" data-name="Polygon 21"><path d="M592.122 202.5h-17.244l8.622-14.52 8.622 14.52Z"/><path d="M583.5 188.959 575.757 202h15.486l-7.743-13.041m0-1.959 9.5 16h-19l9.5-16Z"/></g><g fill="#888" data-name="Polygon 22"><path d="M805.142 205.5h-15.284l7.642-13.486 7.642 13.486Z"/><path d="M797.5 193.028 790.716 205h13.568l-6.784-11.972m0-2.028 8.5 15h-17l8.5-15Z"/></g><g fill="#888" data-name="Polygon 23"><path d="M911.117 299.5h-22.234L900 280.972l11.117 18.528Z"/><path d="M900 281.944 889.766 299h20.468L900 281.944m0-1.944 12 20h-24l12-20Z"/></g><g fill="#888" data-name="Polygon 24"><path d="M907.165 423.5h-13.33l6.665-12.441 6.665 12.441Z"/><path d="M900.5 412.118 894.67 423h11.66l-5.83-10.882m0-2.118 7.5 14h-15l7.5-14Z"/></g></g></svg>