<svg xmlns="http://www.w3.org/2000/svg" width="1000" height="700" viewBox="0 0 1000 700"><defs><clipPath id="a"><path d="M0 0h1000v700H0z"/></clipPath></defs><g clip-path="url(#a)" data-name="Advanced Chart - Line Chart"><path fill="#fcfcff" d="M0 0h1000v700H0z"/><path fill="none" stroke="#707070" stroke-width="2" d="M155.5 100.5v482" data-name="Line 160"/><path fill="none" stroke="#d5d5d5" d="M341.5 100v482.5" data-name="Line 166"/><path fill="none" stroke="#d5d5d5" d="M527.5 100v482.5" data-name="Line 167"/><path fill="none" stroke="#d5d5d5" d="M713.5 100v482.5" data-name="Line 168"/><path fill="none" stroke="#d5d5d5" d="M900 100v483" data-name="Line 169"/><path fill="none" stroke="#888" stroke-width="2" d="M136.5 562.5H900" data-name="Line 161"/><path fill="none" stroke="#d5d5d5" d="M136.5 471.5h763.007" data-name="Line 162"/><path fill="none" stroke="#d5d5d5" d="M136.5 380.5h763.007" data-name="Line 163"/><path fill="none" stroke="#d5d5d5" d="M136.5 289.5h763.007" data-name="Line 164"/><path fill="none" stroke="#d5d5d5" d="M136.5 198.5h763.007" data-name="Line 165"/><text fill="#888" data-name="0" font-family="Roboto-Medium, Roboto" font-size="18" font-weight="500" transform="translate(121 570)"><tspan x="0" y="0">0</tspan></text><text fill="#888" data-name="1990" font-family="Roboto-Medium, Roboto" font-size="18" font-weight="500" transform="translate(135 602)"><tspan x="0" y="0">1990</tspan></text><text fill="#888" data-name="1995" font-family="Roboto-Medium, Roboto" font-size="18" font-weight="500" transform="translate(321 602)"><tspan x="0" y="0">1995</tspan></text><text fill="#888" data-name="2000" font-family="Roboto-Medium, Roboto" font-size="18" font-weight="500" transform="translate(507 602)"><tspan x="0" y="0">2000</tspan></text><text fill="#888" data-name="2005" font-family="Roboto-Medium, Roboto" font-size="18" font-weight="500" transform="translate(693 602)"><tspan x="0" y="0">2005</tspan></text><text fill="#888" data-name="2010" font-family="Roboto-Medium, Roboto" font-size="18" font-weight="500" transform="translate(879 602)"><tspan x="0" y="0">2010</tspan></text><text fill="#888" data-name="50" font-family="Roboto-Medium, Roboto" font-size="18" font-weight="500" transform="translate(111 479)"><tspan x="0" y="0">50</tspan></text><text fill="#888" data-name="100" font-family="Roboto-Medium, Roboto" font-size="18" font-weight="500" transform="translate(100 388)"><tspan x="0" y="0">100</tspan></text><text fill="#888" data-name="150" font-family="Roboto-Medium, Roboto" font-size="18" font-weight="500" transform="translate(100 297)"><tspan x="0" y="0">150</tspan></text><text fill="#888" data-name="200" font-family="Roboto-Medium, Roboto" font-size="18" font-weight="500" transform="translate(100 206)"><tspan x="0" y="0">200</tspan></text><path fill="none" stroke="#888" stroke-dasharray="5" stroke-width="2" d="M155.5 517.5s14.132-39.428 200.382-40.678c67.05-.45 152.157 41 238.726 46.914C749.463 534.322 900.5 512.5 900.5 512.5" data-name="Path 7108"/><path fill="none" stroke="#888" stroke-dasharray="5" stroke-width="2" d="M155 305.774s24.8-114.306 211.051-115.556c67.049-.45 168.89 65.356 221.749 82.711 29.971 7.129 130.838 37.245 183.216 42.064C850.4 322.293 900 300.774 900 300.774" data-name="Path 7110"/><path fill="none" stroke="#888" stroke-dasharray="5" stroke-width="2" d="M153.636 368.697s31.85 27.16 218.1 25.91c67.05-.45 185.472 27.11 272.041 33.028C810.287 460.556 900 442.959 900 442.959" data-name="Path 7109"/><path fill="none" stroke="#888" stroke-dasharray="5" stroke-width="2" d="M157.516 169.17s126.297 72.17 219.741 99.462c90.3 19.052 185.247 44.086 271.816 50C815.584 351.557 900 383.728 900 383.728" data-name="Path 7111"/><g fill="#888" stroke="#888" data-name="Ellipse 303" transform="translate(149 163)"><circle cx="5" cy="5" r="5" stroke="none"/><circle cx="5" cy="5" r="4.5" fill="none"/></g><g fill="#888" stroke="#888" data-name="Ellipse 304" transform="translate(151 296)"><circle cx="5" cy="5" r="5" stroke="none"/><circle cx="5" cy="5" r="4.5" fill="none"/></g><g fill="#888" stroke="#888" data-name="Ellipse 305" transform="translate(149 362)"><circle cx="5" cy="5" r="5" stroke="none"/><circle cx="5" cy="5" r="4.5" fill="none"/></g><g fill="#888" stroke="#888" data-name="Ellipse 306" transform="translate(149 508)"><circle cx="5" cy="5" r="5" stroke="none"/><circle cx="5" cy="5" r="4.5" fill="none"/></g><g fill="#888" stroke="#888" data-name="Ellipse 307" transform="translate(335 472)"><circle cx="5" cy="5" r="5" stroke="none"/><circle cx="5" cy="5" r="4.5" fill="none"/></g><g fill="#888" stroke="#888" data-name="Ellipse 308" transform="translate(522 508)"><circle cx="5" cy="5" r="5" stroke="none"/><circle cx="5" cy="5" r="4.5" fill="none"/></g><g fill="#888" stroke="#888" data-name="Ellipse 309" transform="translate(708 520)"><circle cx="5" cy="5" r="5" stroke="none"/><circle cx="5" cy="5" r="4.5" fill="none"/></g><g fill="#888" stroke="#888" data-name="Ellipse 310" transform="translate(707 435)"><circle cx="5" cy="5" r="5" stroke="none"/><circle cx="5" cy="5" r="4.5" fill="none"/></g><g fill="#888" stroke="#888" data-name="Ellipse 311" transform="translate(522 408)"><circle cx="5" cy="5" r="5" stroke="none"/><circle cx="5" cy="5" r="4.5" fill="none"/></g><g fill="#888" stroke="#888" data-name="Ellipse 312" transform="translate(335 387)"><circle cx="5" cy="5" r="5" stroke="none"/><circle cx="5" cy="5" r="4.5" fill="none"/></g><g fill="#888" stroke="#888" data-name="Ellipse 313" transform="translate(335 250)"><circle cx="5" cy="5" r="5" stroke="none"/><circle cx="5" cy="5" r="4.5" fill="none"/></g><g fill="#888" stroke="#888" data-name="Ellipse 314" transform="translate(335 185)"><circle cx="5" cy="5" r="5" stroke="none"/><circle cx="5" cy="5" r="4.5" fill="none"/></g><g fill="#888" stroke="#888" data-name="Ellipse 315" transform="translate(521 240)"><circle cx="5" cy="5" r="5" stroke="none"/><circle cx="5" cy="5" r="4.5" fill="none"/></g><g fill="#888" stroke="#888" data-name="Ellipse 316" transform="translate(522 296)"><circle cx="5" cy="5" r="5" stroke="none"/><circle cx="5" cy="5" r="4.5" fill="none"/></g><g fill="#888" stroke="#888" data-name="Ellipse 317" transform="translate(708 296)"><circle cx="5" cy="5" r="5" stroke="none"/><circle cx="5" cy="5" r="4.5" fill="none"/></g><g fill="#888" stroke="#888" data-name="Ellipse 318" transform="translate(708 326)"><circle cx="5" cy="5" r="5" stroke="none"/><circle cx="5" cy="5" r="4.5" fill="none"/></g><g fill="#888" stroke="#888" data-name="Ellipse 319" transform="translate(893 296)"><circle cx="5" cy="5" r="5" stroke="none"/><circle cx="5" cy="5" r="4.5" fill="none"/></g><g fill="#888" stroke="#888" data-name="Ellipse 320" transform="translate(893 377)"><circle cx="5" cy="5" r="5" stroke="none"/><circle cx="5" cy="5" r="4.5" fill="none"/></g><g fill="#888" stroke="#888" data-name="Ellipse 321" transform="translate(893 437)"><circle cx="5" cy="5" r="5" stroke="none"/><circle cx="5" cy="5" r="4.5" fill="none"/></g><g fill="#888" stroke="#888" data-name="Ellipse 322" transform="translate(894 506)"><circle cx="5" cy="5" r="5" stroke="none"/><circle cx="5" cy="5" r="4.5" fill="none"/></g></g></svg>