<svg xmlns="http://www.w3.org/2000/svg" width="1000" height="700" viewBox="0 0 1000 700"><defs><clipPath id="a"><path d="M0 0h1000v700H0z"/></clipPath></defs><g clip-path="url(#a)" data-name="Advanced Chart - Polar Area Chart"><path fill="#fcfcff" d="M0 0h1000v700H0z"/><g fill="none" stroke="#b9b5b5" data-name="Ellipse 323" transform="translate(304 154)"><circle cx="196" cy="196" r="196" stroke="none"/><circle cx="196" cy="196" r="195.5"/></g><g fill="none" stroke="#b9b5b5" data-name="Ellipse 324" transform="translate(361 211)"><circle cx="139.5" cy="139.5" r="139.5" stroke="none"/><circle cx="139.5" cy="139.5" r="139"/></g><g fill="none" stroke="#b9b5b5" data-name="Ellipse 325" transform="translate(413 263)"><circle cx="87" cy="87" r="87" stroke="none"/><circle cx="87" cy="87" r="86.5"/></g><g fill="none" stroke="#b9b5b5" data-name="Ellipse 326" transform="translate(460 310)"><circle cx="40.5" cy="40.5" r="40.5" stroke="none"/><circle cx="40.5" cy="40.5" r="40"/></g><path fill="#eaeaea" d="M486 141h29v24h-29z" data-name="Rectangle 670"/><path fill="#eaeaea" d="M486 199h29v24h-29z" data-name="Rectangle 671"/><path fill="#eaeaea" d="M486 251h29v24h-29z" data-name="Rectangle 672"/><path fill="#eaeaea" d="M486 298h29v24h-29z" data-name="Rectangle 673"/><text fill="#888" data-name="50" font-family="Roboto-Medium, Roboto" font-size="14" font-weight="500" transform="translate(492.5 158.5)"><tspan x="0" y="0">50</tspan></text><text fill="#888" data-name="40" font-family="Roboto-Medium, Roboto" font-size="14" font-weight="500" transform="translate(492.5 216.5)"><tspan x="0" y="0">40</tspan></text><text fill="#888" data-name="30" font-family="Roboto-Medium, Roboto" font-size="14" font-weight="500" transform="translate(492.5 268.5)"><tspan x="0" y="0">30</tspan></text><text fill="#888" data-name="20" font-family="Roboto-Medium, Roboto" font-size="14" font-weight="500" transform="translate(492.5 315.5)"><tspan x="0" y="0">20</tspan></text><g fill="#f2f2f2" data-name="Path 7114" opacity=".795"><path d="M330.38 447.769c-1.067-1.767-5.39-9.148-10.208-20.578a216.497 216.497 0 0 1-8.428-23.817c-2.929-10.118-5.093-20.396-6.432-30.548a189.561 189.561 0 0 1-1.573-28.17 193.285 193.285 0 0 1 3.003-30.542c4.06-22.594 12.1-44.144 23.898-64.052 6.527-11.013 14.022-21.296 22.276-30.562a187.14 187.14 0 0 1 25.07-23.415c15.764-12.21 33.54-21.932 52.833-28.896l.015-.006.015-.006c11.32-4.934 23.531-8.517 36.292-10.648 10.883-1.818 19.964-2.2 25.665-2.2 3.419 0 5.76.138 6.694.205v195.178l-169.12 98.057Z"/><path fill="#b9b9b9" d="M492.806 154.83c-5.683 0-14.734.38-25.583 2.192-12.72 2.125-24.891 5.696-36.175 10.613l-.06.024c-19.243 6.946-36.973 16.643-52.695 28.821a186.635 186.635 0 0 0-25.003 23.352c-8.234 9.243-15.71 19.5-22.22 30.485-11.768 19.856-19.787 41.35-23.836 63.886a192.782 192.782 0 0 0-2.995 30.462c-.173 9.439.355 18.892 1.569 28.096 1.335 10.122 3.492 20.37 6.411 30.458a215.998 215.998 0 0 0 8.404 23.754c4.493 10.663 8.554 17.793 9.933 20.116L499 349.424V155a101.31 101.31 0 0 0-6.194-.171m0-1c4.572 0 7.194.241 7.194.241V350l-169.79 98.446s-19.505-30.915-25.394-75.554a192.372 192.372 0 0 1 25.393-123.085c27.274-46.018 65.837-70.598 100.44-83.088 25.932-11.303 50.441-12.89 62.157-12.89Z"/></g><g fill="#d5d5d5" data-name="Path 7115" opacity=".795"><path d="M622.166 423.35c-.815 1.22-3.405 4.972-7.699 10.064a165.358 165.358 0 0 1-9.94 10.76 171.8 171.8 0 0 1-13.879 12.345c-12.26 9.765-25.543 17.566-39.481 23.188a148.188 148.188 0 0 1-25.561 7.717c-9.556 1.962-19.454 2.988-29.42 3.05-8.74.056-17.35-.701-25.59-2.249a124.396 124.396 0 0 1-22.178-6.334c-12.349-4.816-23.997-11.677-34.622-20.394-8.202-6.73-15.751-14.515-22.438-23.141-5.437-7.013-9.084-13.006-11.186-16.799a72.627 72.627 0 0 1-1.497-2.832l123.103-69.257 120.388 73.882Z"/><path fill="#b9b9b9" d="M380.61 421.314c2.093 3.778 5.726 9.747 11.143 16.736 6.664 8.596 14.187 16.355 22.36 23.06 10.584 8.684 22.187 15.519 34.486 20.315a123.892 123.892 0 0 0 22.09 6.309c8.209 1.541 16.786 2.295 25.494 2.24 9.929-.062 19.79-1.084 29.31-3.037a147.685 147.685 0 0 0 25.465-7.685c13.89-5.6 27.13-13.372 39.35-23.1a171.306 171.306 0 0 0 13.839-12.306 164.894 164.894 0 0 0 9.916-10.728c3.87-4.587 6.353-8.085 7.396-9.615l-119.692-73.455-122.43 68.88c.28.55.704 1.36 1.273 2.386m-.875.485c-1.155-2.083-1.717-3.278-1.717-3.278l123.771-69.633 121.078 74.306s-42.782 67.255-126.678 67.781c-73.158.459-108.585-54.977-116.454-69.176Z"/></g><g fill="#888" data-name="Path 7116" opacity=".795"><path d="M500.45 262.905c2.71.296 15.022 1.743 27.627 4.876 8.987 2.234 18.25 7.183 26.787 14.311 8.524 7.118 16.025 16.159 21.694 26.144 4.707 8.292 7.87 17.208 9.4 26.5 1.466 8.891 1.434 18.087-.094 27.33-2.237 13.536-7.208 23.588-9.971 28.375a49 49 0 0 1-1.625 2.638l-73.818-43.006v-87.168Z"/><path fill="#696969" d="M575.46 390.19c2.746-4.757 7.686-14.747 9.91-28.205 1.52-9.19 1.551-18.33.095-27.168-1.52-9.234-4.664-18.094-9.342-26.334-5.64-9.934-13.101-18.927-21.58-26.007-8.479-7.08-17.672-11.994-26.587-14.21-11.859-2.947-23.46-4.4-27.006-4.802v86.322l73.16 42.622c.325-.503.79-1.249 1.35-2.217m.866.5c-1.15 1.992-1.908 3.054-1.908 3.054l-74.468-43.384v-88.012s13.839 1.366 28.247 4.947c18.498 4.597 37.203 20.272 48.796 40.693 9.724 17.13 12.379 35.923 9.364 54.159-2.254 13.639-7.273 23.764-10.031 28.543Z"/></g></g></svg>