<svg xmlns="http://www.w3.org/2000/svg" width="1000" height="700" viewBox="0 0 1000 700"><defs><clipPath id="a"><path d="M0 0h1000v700H0z"/></clipPath></defs><g clip-path="url(#a)" data-name="Advanced Chart - Radar Chart"><path fill="#fcfcff" d="M0 0h1000v700H0z"/><path fill="none" stroke="#707070" stroke-width="2" d="M155.5 100.5v482" data-name="Line 160"/><path fill="none" stroke="#888" stroke-width="2" d="M136.5 562.5H900" data-name="Line 161"/><text fill="#888" data-name="0" font-family="Roboto-Medium, Roboto" font-size="18" font-weight="500" transform="translate(121 570)"><tspan x="0" y="0">0</tspan></text><text fill="#888" data-name=".2" font-family="Roboto-Medium, Roboto" font-size="18" font-weight="500" transform="translate(106 479)"><tspan x="0" y="0">0.2</tspan></text><text fill="#888" data-name=".1" font-family="Roboto-Medium, Roboto" font-size="18" font-weight="500" transform="translate(106 525)"><tspan x="0" y="0">0.1</tspan></text><text fill="#888" data-name=".3" font-family="Roboto-Medium, Roboto" font-size="18" font-weight="500" transform="translate(106 426)"><tspan x="0" y="0">0.3</tspan></text><text fill="#888" data-name=".4" font-family="Roboto-Medium, Roboto" font-size="18" font-weight="500" transform="translate(106 373)"><tspan x="0" y="0">0.4</tspan></text><text fill="#888" data-name=".5" font-family="Roboto-Medium, Roboto" font-size="18" font-weight="500" transform="translate(106 320)"><tspan x="0" y="0">0.5</tspan></text><text fill="#888" data-name=".6" font-family="Roboto-Medium, Roboto" font-size="18" font-weight="500" transform="translate(106 267)"><tspan x="0" y="0">0.6</tspan></text><text fill="#888" data-name=".7" font-family="Roboto-Medium, Roboto" font-size="18" font-weight="500" transform="translate(106 214)"><tspan x="0" y="0">0.7</tspan></text><text fill="#888" data-name=".8" font-family="Roboto-Medium, Roboto" font-size="18" font-weight="500" transform="translate(106 161)"><tspan x="0" y="0">0.8</tspan></text><text fill="#888" data-name=".9" font-family="Roboto-Medium, Roboto" font-size="18" font-weight="500" transform="translate(106 108)"><tspan x="0" y="0">0.9</tspan></text><text fill="#888" font-family="Roboto-Medium, Roboto" font-size="18" font-weight="500" transform="translate(141 602)"><tspan x="0" y="0">Jan</tspan></text><text fill="#888" data-name="Jan" font-family="Roboto-Medium, Roboto" font-size="18" font-weight="500" transform="translate(506.25 176.593)"><tspan x="0" y="0">Jan</tspan></text><text fill="#888" font-family="Roboto-Medium, Roboto" font-size="18" font-weight="500" transform="translate(505 595)"><tspan x="0" y="0">Feb</tspan></text><text fill="#888" data-name="Feb" font-family="Roboto-Medium, Roboto" font-size="18" font-weight="500" transform="translate(703.25 497.593)"><tspan x="0" y="0">Feb</tspan></text><text fill="#888" font-family="Roboto-Medium, Roboto" font-size="18" font-weight="500" transform="translate(881 595)"><tspan x="0" y="0">Mar</tspan></text><text fill="#888" data-name="Mar" font-family="Roboto-Medium, Roboto" font-size="18" font-weight="500" transform="translate(303.25 497.593)"><tspan x="0" y="0">Mar</tspan></text><g fill="none" data-name="Polygon 13"><path d="m519.25 188.593 176 305h-352Z"/><path fill="#e2e2e2" d="M519.25 190.594 344.982 492.593h348.536l-174.268-302m0-2 176 305h-352l176-305Z"/></g><g fill="none" data-name="Polygon 14"><path d="m519.25 222.593 146 253h-292Z"/><path fill="#e2e2e2" d="M519.25 224.594 374.982 474.593h288.536l-144.268-250m0-2 146 253h-292l146-253Z"/></g><g fill="none" data-name="Polygon 15"><path d="m519.25 259.593 114 197h-228Z"/><path fill="#e2e2e2" d="M519.25 261.59 406.984 455.593h224.532L519.25 261.59m0-1.997 114 197h-228l114-197Z"/></g><path fill="#eaeaea" d="M506 185h29v24h-29z" data-name="Rectangle 665"/><path fill="#eaeaea" d="M506 216h29v24h-29z" data-name="Rectangle 666"/><path fill="#eaeaea" d="M505 250h29v24h-29z" data-name="Rectangle 667"/><path fill="#d5d5d5" d="M505 281h29v24h-29z" data-name="Rectangle 668"/><path fill="#d5d5d5" d="M505 312h29v24h-29z" data-name="Rectangle 669"/><text fill="#888" data-name="50" font-family="Roboto-Medium, Roboto" font-size="14" font-weight="500" transform="translate(512.5 202.5)"><tspan x="0" y="0">50</tspan></text><text fill="#888" data-name="40" font-family="Roboto-Medium, Roboto" font-size="14" font-weight="500" transform="translate(512.5 233.5)"><tspan x="0" y="0">40</tspan></text><text fill="#888" data-name="30" font-family="Roboto-Medium, Roboto" font-size="14" font-weight="500" transform="translate(511.5 267.5)"><tspan x="0" y="0">30</tspan></text><text fill="#888" data-name="20" font-family="Roboto-Medium, Roboto" font-size="14" font-weight="500" transform="translate(511.5 298.5)"><tspan x="0" y="0">20</tspan></text><text fill="#888" data-name="10" font-family="Roboto-Medium, Roboto" font-size="14" font-weight="500" transform="translate(511.5 329.5)"><tspan x="0" y="0">10</tspan></text><g fill="#eaeaea" data-name="Polygon 16"><path d="M587.549 422.093H450.95l68.299-197.967 68.299 197.967Z"/><path fill="#c7c7c7" d="m519.25 225.66-67.597 195.933h135.194L519.25 225.659m0-3.066 69 200h-138l69-200Z"/></g><g fill="#c7c7c7" data-name="Path 7112" opacity=".798"><path d="m520.082 278.956 66.169 142.367-240.068 70.515 173.899-212.882Z"/><path fill="#bab9b9" d="m347.593 490.902 237.96-69.895-65.588-141.117-172.372 211.012m-2.82 1.87L520.2 278.023l66.75 143.617-242.175 71.134Z"/></g><g fill="#888" data-name="Path 7113" opacity=".54"><path d="M691.782 491.16 426.712 437.4l89.945-99.376 80.68 66.421 94.445 86.714Z"/><path fill="#6c6c6c" d="m427.672 437.086 262.448 53.227-93.11-85.49-80.302-66.108-89.036 98.37m-1.92.632 90.855-100.38 81.058 66.732 95.78 87.938-267.694-54.29Z"/></g><path fill="#888" d="m347.191 490.592 3.671-3.671.757-.757a.286.286 0 0 0 0-.4l-.81-.81a.286.286 0 0 0-.4 0l-4.428 4.428-4.431-4.432a.286.286 0 0 0-.4 0l-.81.81a.286.286 0 0 0 0 .4l4.428 4.428-4.434 4.432a.286.286 0 0 0 0 .4l.81.81a.286.286 0 0 0 .4 0l4.428-4.428 3.678 3.676.757.757a.286.286 0 0 0 .4 0l.81-.81a.286.286 0 0 0 0-.4Z"/><path fill="#888" d="m430.191 436.592 3.671-3.671.757-.757a.286.286 0 0 0 0-.4l-.81-.81a.286.286 0 0 0-.4 0l-4.428 4.428-4.431-4.432a.286.286 0 0 0-.4 0l-.81.81a.286.286 0 0 0 0 .4l4.428 4.428-4.434 4.432a.286.286 0 0 0 0 .4l.81.81a.286.286 0 0 0 .4 0l4.428-4.428 3.678 3.676.757.757a.286.286 0 0 0 .4 0l.81-.81a.286.286 0 0 0 0-.4ZM518.465 338.592l3.671-3.671.757-.757a.286.286 0 0 0 0-.4l-.81-.81a.286.286 0 0 0-.4 0l-4.428 4.428-4.431-4.432a.286.286 0 0 0-.4 0l-.81.81a.286.286 0 0 0 0 .4l4.428 4.428-4.434 4.432a.286.286 0 0 0 0 .4l.81.81a.286.286 0 0 0 .4 0l4.428-4.428 3.678 3.676.757.757a.286.286 0 0 0 .4 0l.81-.81a.286.286 0 0 0 0-.4ZM451.922 422.592l3.671-3.671.757-.757a.286.286 0 0 0 0-.4l-.81-.81a.286.286 0 0 0-.4 0l-4.428 4.428-4.431-4.432a.286.286 0 0 0-.4 0l-.81.81a.286.286 0 0 0 0 .4l4.428 4.428-4.434 4.432a.286.286 0 0 0 0 .4l.81.81a.286.286 0 0 0 .4 0l4.428-4.428 3.678 3.676.757.757a.286.286 0 0 0 .4 0l.81-.81a.286.286 0 0 0 0-.4ZM694.674 493.592l3.671-3.671.757-.757a.286.286 0 0 0 0-.4l-.81-.81a.286.286 0 0 0-.4 0l-4.428 4.428-4.431-4.432a.286.286 0 0 0-.4 0l-.81.81a.286.286 0 0 0 0 .4l4.428 4.428-4.434 4.432a.286.286 0 0 0 0 .4l.81.81a.286.286 0 0 0 .4 0l4.428-4.428 3.678 3.676.757.757a.286.286 0 0 0 .4 0l.81-.81a.286.286 0 0 0 0-.4ZM589.465 422.592l3.671-3.671.757-.757a.286.286 0 0 0 0-.4l-.81-.81a.286.286 0 0 0-.4 0l-4.428 4.428-4.431-4.432a.286.286 0 0 0-.4 0l-.81.81a.286.286 0 0 0 0 .4l4.428 4.428-4.434 4.432a.286.286 0 0 0 0 .4l.81.81a.286.286 0 0 0 .4 0l4.428-4.428 3.678 3.676.757.757a.286.286 0 0 0 .4 0l.81-.81a.286.286 0 0 0 0-.4ZM520.465 280.592l3.671-3.671.757-.757a.286.286 0 0 0 0-.4l-.81-.81a.286.286 0 0 0-.4 0l-4.428 4.428-4.431-4.432a.286.286 0 0 0-.4 0l-.81.81a.286.286 0 0 0 0 .4l4.428 4.428-4.434 4.432a.286.286 0 0 0 0 .4l.81.81a.286.286 0 0 0 .4 0l4.428-4.428 3.678 3.676.757.757a.286.286 0 0 0 .4 0l.81-.81a.286.286 0 0 0 0-.4ZM520.465 228.319l3.671-3.671.757-.757a.286.286 0 0 0 0-.4l-.81-.81a.286.286 0 0 0-.4 0l-4.428 4.428-4.431-4.432a.286.286 0 0 0-.4 0l-.81.81a.286.286 0 0 0 0 .4l4.428 4.428-4.434 4.432a.286.286 0 0 0 0 .4l.81.81a.286.286 0 0 0 .4 0l4.428-4.428 3.678 3.676.757.757a.286.286 0 0 0 .4 0l.81-.81a.286.286 0 0 0 0-.4Z" data-name="times"/></g></svg>