<svg xmlns="http://www.w3.org/2000/svg" width="1000" height="700"><defs><clipPath id="b"><circle cx="31" cy="31" r="31" fill="#d5d5d5" data-name="Ellipse 299"/></clipPath><clipPath id="a"><path d="M0 0h1000v700H0z"/></clipPath></defs><g clip-path="url(#a)" data-name="Social Feed - Style 1"><path fill="#fcfcff" d="M0 0h1000v700H0z"/><rect width="530" height="575" fill="#f2f2f2" data-name="Rectangle 632" rx="5" transform="translate(234 63)"/><path fill="none" stroke="#d5d5d5" stroke-width="8" d="M264 353.201h449.05" data-name="Line 1"/><path fill="none" stroke="#d5d5d5" stroke-width="8" d="M264 387.893h471" data-name="Line 2"/><path fill="none" stroke="#d5d5d5" stroke-width="8" d="M264 422.893h471" data-name="Line 118"/><path fill="none" stroke="#d5d5d5" stroke-width="12" d="M338.337 507h200.162" data-name="Line 6"/><path fill="none" stroke="#888" stroke-width="15" d="M336.728 480.671h229.768" data-name="Line 8"/><path fill="#d5d5d5" d="M239 63h520a5 5 0 0 1 5 5v245H234V68a5 5 0 0 1 5-5Z" data-name="Rectangle 631"/><path fill="#888" d="M537.546 224.249h-77.593a8.953 8.953 0 0 1-8.953-8.953v-53.718a8.953 8.953 0 0 1 8.953-8.953h77.593a8.953 8.953 0 0 1 8.954 8.953v53.718a8.953 8.953 0 0 1-8.954 8.953ZM471.89 163.07a10.445 10.445 0 1 0 10.446 10.445 10.445 10.445 0 0 0-10.446-10.445Zm-8.953 49.242h71.625v-20.887l-16.324-16.327a2.238 2.238 0 0 0-3.165 0L489.8 200.375l-10.358-10.355a2.238 2.238 0 0 0-3.165 0l-13.34 13.339Z" opacity=".207"/><g clip-path="url(#b)" data-name="Mask Group 1" transform="translate(264 463)"><path fill="#888" d="M30.893-.001a30.893 30.893 0 1 0 30.893 30.894A30.888 30.888 0 0 0 30.893-.001Zm0 11.959A10.962 10.962 0 1 1 19.931 22.92a10.962 10.962 0 0 1 10.962-10.962Zm0 42.852a23.871 23.871 0 0 1-18.249-8.5 13.889 13.889 0 0 1 12.27-7.449 3.048 3.048 0 0 1 .884.137 16.493 16.493 0 0 0 5.095.86 16.431 16.431 0 0 0 5.095-.86 3.048 3.048 0 0 1 .884-.137 13.889 13.889 0 0 1 12.27 7.449 23.871 23.871 0 0 1-18.249 8.5Z"/></g><path fill="none" stroke="#888" d="M234.5 554.5h531" data-name="Line 117" opacity=".492"/><path fill="#888" d="M284.445 594.571a4.146 4.146 0 0 0 .6-2.185 3.816 3.816 0 0 0-3.763-3.753h-1.6a5.6 5.6 0 0 0 .388-2.041c.003-3.192-1.65-4.592-4.17-4.592-2.7 0-2.547 4.163-3.147 4.762-1 1-2.176 2.914-3.015 3.657H265.4a1.4 1.4 0 0 0-1.4 1.403v10.524a1.4 1.4 0 0 0 1.4 1.4h2.809a1.4 1.4 0 0 0 1.359-1.046c1.952.044 3.291 1.751 7.8 1.751h.974c3.381 0 4.91-1.729 4.952-4.18a4.228 4.228 0 0 0 .76-2.937 4.072 4.072 0 0 0 .391-2.763Zm-2.708 2.36a1.947 1.947 0 0 1-.611 2.524c.338 2.139-.772 2.89-2.329 2.89h-1.658c-3.141 0-5.175-1.658-7.526-1.658v-8.163h.479c1.244 0 2.981-3.108 4.145-4.273 1.243-1.244.829-3.317 1.663-4.151 2.073 0 2.073 1.446 2.073 2.488 0 1.718-1.244 2.487-1.244 4.145h4.56a1.713 1.713 0 0 1 1.654 1.667c0 .829-.562 1.658-.977 1.658a2.107 2.107 0 0 1-.228 2.873Zm-13.878 4.012a1.052 1.052 0 1 1-1.053-1.053 1.052 1.052 0 0 1 1.053 1.053ZM345.876 590.334l-7.718-7.715a2.106 2.106 0 0 0-3.593 1.488v3.539c-6.049.182-13.33 1.354-13.33 8.827a9.01 9.01 0 0 0 4.281 7.627 2.106 2.106 0 0 0 3.166-2.388c-1.068-3.406-.547-5.233 5.883-5.612v3.433a2.106 2.106 0 0 0 3.593 1.488l7.717-7.715a2.1 2.1 0 0 0 .001-2.972Zm-9.206 9.206v-5.609c-7.214.078-12.166 1.483-10 8.4a6.937 6.937 0 0 1-3.335-5.858c0-6.237 7.052-6.726 13.33-6.754V584.1l7.718 7.718ZM402.408 582h-16.839a2.809 2.809 0 0 0-2.806 2.806v12.629a2.809 2.809 0 0 0 2.806 2.806h4.21v3.683a.525.525 0 0 0 .526.526.5.5 0 0 0 .311-.105l5.477-4.1h6.314a2.809 2.809 0 0 0 2.806-2.806v-12.633a2.809 2.809 0 0 0-2.805-2.806Zm.7 15.435a.7.7 0 0 1-.7.7h-7.016l-.561.421-2.947 2.21v-2.629h-6.315a.7.7 0 0 1-.7-.7v-12.631a.7.7 0 0 1 .7-.7h16.839a.7.7 0 0 1 .7.7ZM734.049 487.153l.752-4.9h-4.7v-3.18a2.45 2.45 0 0 1 2.761-2.651H735v-4.169a26.069 26.069 0 0 0-3.793-.331c-3.872 0-6.4 2.347-6.4 6.6v3.735h-4.3v4.9h4.3V499h5.3v-11.847Z"/></g></svg>