<svg xmlns="http://www.w3.org/2000/svg" width="1000" height="700"><defs><clipPath id="b"><ellipse cx="23" cy="23.5" fill="#d5d5d5" data-name="Ellipse 300" rx="23" ry="23.5" transform="translate(.358 .246)"/></clipPath><clipPath id="a"><path d="M0 0h1000v700H0z"/></clipPath></defs><g clip-path="url(#a)" data-name="Social Feed - Style 3"><path fill="#fcfcff" d="M0 0h1000v700H0z"/><path fill="#f2f2f2" d="M105 224h395v253H105a5 5 0 0 1-5-5V229a5 5 0 0 1 5-5Z" data-name="Rectangle 633"/><path fill="none" stroke="#d5d5d5" stroke-width="8" d="M122.642 261.887h335.092" data-name="Line 120"/><path fill="none" stroke="#d5d5d5" stroke-width="8" d="M122.642 288.07h351.472" data-name="Line 121"/><path fill="none" stroke="#d5d5d5" stroke-width="8" d="M122.642 314.484h351.472" data-name="Line 122"/><path fill="none" stroke="#d5d5d5" stroke-width="10" d="M178.745 380.962h151.066" data-name="Line 124"/><path fill="none" stroke="#888" stroke-width="10" d="M177.53 361.091h173.41" data-name="Line 123"/><path fill="#d5d5d5" d="M500 224h395a5 5 0 0 1 5 5v243a5 5 0 0 1-5 5H500V224Z" data-name="Rectangle 634"/><path fill="#888" d="M729.092 377.679h-58.561a6.757 6.757 0 0 1-6.757-6.756V330.38a6.757 6.757 0 0 1 6.757-6.757h58.561a6.757 6.757 0 0 1 6.757 6.757v40.543a6.757 6.757 0 0 1-6.757 6.756Zm-49.552-46.173a7.883 7.883 0 1 0 7.883 7.883 7.883 7.883 0 0 0-7.883-7.883Zm-6.757 37.164h54.056v-15.767l-12.32-12.32a1.689 1.689 0 0 0-2.389 0l-19.076 19.077-7.815-7.815a1.689 1.689 0 0 0-2.389 0l-10.067 10.068Z" opacity=".207"/><g clip-path="url(#b)" data-name="Mask Group 2" transform="translate(122.642 344.755)"><path fill="#888" d="M23.316-.001a23.316 23.316 0 1 0 23.315 23.316A23.312 23.312 0 0 0 23.316-.001Zm0 9.025a8.273 8.273 0 1 1-8.273 8.273 8.273 8.273 0 0 1 8.273-8.272Zm0 32.341a18.016 18.016 0 0 1-13.774-6.414 10.482 10.482 0 0 1 9.26-5.622 2.3 2.3 0 0 1 .668.1 12.448 12.448 0 0 0 3.845.649 12.4 12.4 0 0 0 3.845-.649 2.3 2.3 0 0 1 .668-.1 10.482 10.482 0 0 1 9.26 5.622 18.016 18.016 0 0 1-13.772 6.415Z"/></g><path fill="none" stroke="#888" d="M100.377 413.811h400.755" data-name="Line 125" opacity=".492"/><path fill="#888" d="M138.072 444.054a3.129 3.129 0 0 0 .454-1.649 2.88 2.88 0 0 0-2.84-2.832h-1.207a4.225 4.225 0 0 0 .293-1.54c0-2.41-1.247-3.467-3.152-3.467-2.039 0-1.923 3.142-2.378 3.594-.753.753-1.642 2.2-2.275 2.76h-3.266a1.059 1.059 0 0 0-1.059 1.059v7.942a1.059 1.059 0 0 0 1.059 1.059h2.118a1.059 1.059 0 0 0 1.023-.792c1.473.033 2.484 1.322 5.884 1.322h.735c2.552 0 3.706-1.3 3.738-3.155a3.191 3.191 0 0 0 .574-2.217 3.074 3.074 0 0 0 .299-2.084Zm-2.044 1.781a1.469 1.469 0 0 1-.461 1.905c.255 1.614-.583 2.181-1.758 2.181h-1.251c-2.371 0-3.906-1.252-5.68-1.252v-6.161h.364c.939 0 2.25-2.346 3.129-3.225.939-.939.626-2.5 1.252-3.129 1.564 0 1.564 1.091 1.564 1.877 0 1.3-.939 1.877-.939 3.129h3.441a1.292 1.292 0 0 1 1.253 1.252c0 .625-.424 1.251-.737 1.251a1.59 1.59 0 0 1-.176 2.172Zm-10.474 3.031a.794.794 0 1 1-.794-.794.794.794 0 0 1 .794.794ZM184.438 440.856l-5.828-5.823a1.59 1.59 0 0 0-2.711 1.123v2.671c-4.566.139-10.061 1.024-10.061 6.662a6.8 6.8 0 0 0 3.231 5.757 1.59 1.59 0 0 0 2.389-1.8c-.806-2.571-.411-3.949 4.441-4.232v2.591a1.59 1.59 0 0 0 2.712 1.123l5.827-5.826a1.588 1.588 0 0 0 0-2.246Zm-6.948 6.948v-4.238c-5.452.064-9.184 1.124-7.552 6.346a5.236 5.236 0 0 1-2.516-4.423c0-4.707 5.322-5.076 10.061-5.1v-4.234l5.825 5.825ZM227.1 434.566h-12.708a2.12 2.12 0 0 0-2.118 2.118v9.531a2.12 2.12 0 0 0 2.118 2.118h3.182v2.78a.4.4 0 0 0 .4.4.38.38 0 0 0 .235-.079l4.133-3.1h4.766a2.12 2.12 0 0 0 2.118-2.118v-9.532a2.12 2.12 0 0 0-2.126-2.118Zm.53 11.649a.531.531 0 0 1-.53.53h-5.3l-.424.318-2.218 1.667v-1.985h-4.766a.531.531 0 0 1-.53-.53v-9.531a.531.531 0 0 1 .53-.53H227.1a.531.531 0 0 1 .53.53ZM473.396 362.988l.568-3.7h-3.549v-2.4a1.849 1.849 0 0 1 2.085-2h1.613v-3.15a19.674 19.674 0 0 0-2.863-.25c-2.923 0-4.833 1.771-4.833 4.978v2.822h-3.249v3.7h3.249v8.941h4v-8.941Z"/></g></svg>