<svg xmlns="http://www.w3.org/2000/svg" width="127" height="100" fill="none" viewBox="0 0 127 100"><path fill="#9AA6AE" d="M46.82 54.648c-.62.329-1.394.493-2.32.493-1.195 0-2.152-.385-2.871-1.155-.719-.77-1.078-1.779-1.078-3.029 0-1.344.404-2.43 1.213-3.258.808-.828 1.834-1.242 3.076-1.242.797 0 1.457.115 1.98.346v1.049a4.015 4.015 0 0 0-1.992-.504c-.965 0-1.748.322-2.35.967-.597.644-.896 1.505-.896 2.583 0 1.024.28 1.84.838 2.45.562.605 1.299.908 2.209.908.844 0 1.574-.188 2.191-.563v.955Zm7.858-3.046c0 2.359-1.065 3.539-3.194 3.539-2.039 0-3.058-1.135-3.058-3.405v-5.138h.984v5.074c0 1.723.727 2.584 2.18 2.584 1.402 0 2.103-.832 2.103-2.496v-5.162h.985v5.004Zm1.71 3.058V53.5c.134.117.292.223.475.316.188.094.383.174.586.24.207.063.414.112.621.147.207.035.399.053.575.053.605 0 1.056-.111 1.353-.334.3-.227.451-.55.451-.973 0-.226-.05-.424-.152-.592a1.605 1.605 0 0 0-.41-.457 3.77 3.77 0 0 0-.627-.398 32.385 32.385 0 0 0-.774-.404 13.2 13.2 0 0 1-.82-.451 3.557 3.557 0 0 1-.662-.504 2.161 2.161 0 0 1-.445-.621 1.982 1.982 0 0 1-.159-.82c0-.384.084-.716.252-.997a2.15 2.15 0 0 1 .663-.703c.273-.184.583-.32.931-.41.352-.09.71-.135 1.072-.135.829 0 1.432.1 1.81.299v1.107c-.495-.343-1.132-.515-1.91-.515-.214 0-.429.023-.644.07a1.77 1.77 0 0 0-.574.217 1.272 1.272 0 0 0-.41.392c-.106.16-.158.356-.158.586 0 .215.039.4.117.557.082.156.201.299.357.428.157.129.346.254.569.375.226.12.486.254.779.398.3.148.586.305.855.469.27.164.506.345.71.545.203.199.363.42.48.662.12.242.181.52.181.832 0 .414-.082.766-.246 1.055-.16.285-.379.517-.656.697a2.79 2.79 0 0 1-.95.387c-.358.082-.737.123-1.136.123-.133 0-.297-.012-.492-.035a5.576 5.576 0 0 1-.598-.094 5.02 5.02 0 0 1-.58-.147 1.877 1.877 0 0 1-.433-.205Zm11.737-7.172h-2.426V55h-.984v-7.512h-2.42v-.89h5.83v.89Zm4.148 7.653c-1.191 0-2.146-.393-2.865-1.178-.715-.785-1.072-1.807-1.072-3.065 0-1.351.365-2.43 1.096-3.234.73-.805 1.724-1.207 2.982-1.207 1.16 0 2.094.39 2.8 1.172.712.781 1.067 1.803 1.067 3.064 0 1.372-.363 2.455-1.09 3.252-.726.797-1.699 1.196-2.918 1.196Zm.07-7.793c-.882 0-1.599.318-2.15.955-.55.637-.826 1.472-.826 2.508 0 1.035.268 1.869.803 2.502.539.628 1.24.943 2.103.943.922 0 1.649-.3 2.18-.903.531-.601.797-1.443.797-2.525 0-1.11-.258-1.967-.773-2.572-.516-.606-1.227-.908-2.133-.908ZM86.5 55h-.978v-5.637c0-.445.027-.99.081-1.635h-.023c-.094.38-.178.65-.252.815L82.457 55h-.48l-2.866-6.41c-.082-.188-.166-.475-.252-.862h-.023c.031.337.047.885.047 1.647V55h-.95v-8.402h1.301l2.579 5.859c.199.45.328.785.386 1.008h.035c.168-.461.303-.805.405-1.031l2.63-5.836H86.5V55Z"/></svg>