<svg xmlns="http://www.w3.org/2000/svg" width="1000" height="700" viewBox="0 0 1000 700"><defs><clipPath id="a"><path d="M0 0h1000v700H0z"/></clipPath><filter id="b" width="818" height="142" x="91" y="282" filterUnits="userSpaceOnUse"><feOffset dy="3"/><feGaussianBlur result="b" stdDeviation="3"/><feFlood flood-opacity=".102"/><feComposite in2="b" operator="in"/><feComposite in="SourceGraphic"/></filter></defs><g clip-path="url(#a)"><path fill="#fcfcff" d="M0 0h1000v700H0z"/><g filter="url(#b)"><g fill="#f2f2f2" stroke="#d5d5d5" stroke-width=".5" transform="translate(100 288)"><rect width="800" height="124" stroke="none" rx="5"/><rect width="799.5" height="123.5" x=".25" y=".25" fill="none" rx="4.75"/></g></g><rect width="166" height="103" fill="#888" rx="5" transform="translate(725 299)"/><path fill="none" stroke="#d5d5d5" stroke-width="15" d="M180.158 350.446h300.256"/><path stroke="#449fdb" d="M786.579 326"/><path fill="#fff" d="M804.672 373.73h-11.547a1.538 1.538 0 0 1-1.045-2.67l21.923-20.282-21.973-22.154a1.54 1.54 0 0 1 1.093-2.624h11.547a1.541 1.541 0 0 1 1.093.455l23.095 23.287a1.538 1.538 0 0 1-.048 2.215l-23.093 21.362a1.528 1.528 0 0 1-1.045.41Zm-7.615-3.079h7.013l21.482-19.87-21.521-21.699h-7.21l20.493 20.662a1.539 1.539 0 0 1-.048 2.216l-20.208 18.691Z"/><path stroke="#449fdb" d="M799.579 326"/></g></svg>