<svg xmlns="http://www.w3.org/2000/svg" width="1000" height="700" viewBox="0 0 1000 700"><defs><filter id="b" width="672" height="142" x="164" y="94" filterUnits="userSpaceOnUse"><feOffset dy="3"/><feGaussianBlur result="b" stdDeviation="3"/><feFlood flood-opacity=".102"/><feComposite in2="b" operator="in"/><feComposite in="SourceGraphic"/></filter><filter id="c" width="672" height="141" x="164" y="254" filterUnits="userSpaceOnUse"><feOffset dy="3"/><feGaussianBlur result="d" stdDeviation="3"/><feFlood flood-opacity=".102"/><feComposite in2="d" operator="in"/><feComposite in="SourceGraphic"/></filter><filter id="d" width="672" height="138" x="164" y="474" filterUnits="userSpaceOnUse"><feOffset dy="3"/><feGaussianBlur result="f" stdDeviation="3"/><feFlood flood-opacity=".102"/><feComposite in2="f" operator="in"/><feComposite in="SourceGraphic"/></filter><clipPath id="a"><path d="M0 0h1000v700H0z"/></clipPath></defs><g clip-path="url(#a)"><path fill="#fcfcff" d="M0 0h1000v700H0z"/><g filter="url(#b)"><g fill="#f2f2f2" stroke="#d5d5d5" stroke-width=".5" transform="translate(173 100)"><rect width="654" height="124" stroke="none" rx="5"/><rect width="653.5" height="123.5" x=".25" y=".25" fill="none" rx="4.75"/></g></g><g filter="url(#c)"><g fill="#f2f2f2" stroke="#d5d5d5" stroke-width=".5" transform="translate(173 260)"><rect width="654" height="123" stroke="none" rx="5"/><rect width="653.5" height="122.5" x=".25" y=".25" fill="none" rx="4.75"/></g></g><g filter="url(#d)"><g fill="#888" stroke="#888" transform="translate(173 480)"><rect width="654" height="120" stroke="none" rx="5"/><rect width="653" height="119" x=".5" y=".5" fill="none" rx="4.5"/></g></g><path fill="none" stroke="#d5d5d5" stroke-width="15" d="M311.5 162.446h376.077M311.5 322.63h376.077"/><path fill="none" stroke="#fff" stroke-width="20" d="M311.5 539.63h376.077"/></g></svg>