<svg xmlns="http://www.w3.org/2000/svg" width="1000" height="700" viewBox="0 0 1000 700"><defs><clipPath id="a"><path d="M0 0h1000v700H0z"/></clipPath></defs><g clip-path="url(#a)" data-name="Advanced Button - Style 11"><path fill="#fcfcff" d="M0 0h1000v700H0z"/><path fill="none" stroke="#d5d5d5" d="M900 100v483" data-name="Line 169"/><g fill="none" stroke="#888" stroke-width="10" data-name="Rectangle 11" transform="translate(293.983 148.794)"><rect width="412.034" height="138.182" stroke="none" rx="69.091"/><rect width="402.034" height="128.182" x="5" y="5" rx="64.091"/></g><g fill="none" stroke="#888" stroke-width="10" data-name="Rectangle 678" transform="translate(293.983 413.024)"><rect width="412.034" height="138.182" stroke="none" rx="69.091"/><rect width="402.034" height="128.182" x="5" y="5" rx="64.091"/></g><rect width="265.478" height="20.937" fill="#888" data-name="Rectangle 413" rx="5" transform="translate(367.68 207.417)"/><rect width="265.477" height="20.937" fill="#888" data-name="Rectangle 679" rx="5" transform="translate(367.68 471.646)"/><path fill="#fff" d="m597.518 121.894 35.64 18.16-18.16 35.64-35.64-18.16z" data-name="Rectangle 682"/><path fill="#fff" d="m432.9 421.764-35.64 18.16-18.16-35.64 35.64-18.16z" data-name="Rectangle 685"/><path fill="#fff" d="m409.518 260.076 35.64 18.16-18.16 35.64-35.64-18.16z" data-name="Rectangle 683"/><path fill="#fff" d="m620.9 559.946-35.64 18.16-18.16-35.64 35.64-18.16z" data-name="Rectangle 684"/></g></svg>