<svg xmlns="http://www.w3.org/2000/svg" width="1000" height="700" viewBox="0 0 1000 700"><defs><clipPath id="a"><path d="M0 0h1000v700H0z"/></clipPath></defs><g clip-path="url(#a)" data-name="Advanced Button - Style 13"><path fill="#fcfcff" d="M0 0h1000v700H0z"/><path fill="none" stroke="#d5d5d5" d="M900 100v483" data-name="Line 169"/><rect width="538.572" height="144.064" fill="#888" data-name="Rectangle 11" rx="72.032" transform="translate(230.714 146.924)"/><rect width="538.572" height="144.064" fill="#888" data-name="Rectangle 688" rx="72.032" transform="translate(230.714 391.924)"/><rect width="276.777" height="21.828" fill="#fff" data-name="Rectangle 413" rx="5" transform="translate(361.611 208.042)"/><rect width="83.716" height="21.828" fill="#fff" data-name="Rectangle 689" rx="5" transform="translate(361.611 453.042)"/><rect width="181.777" height="21.828" fill="#fff" data-name="Rectangle 690" rx="5" transform="translate(456.611 453.042)"/><path fill="#d5d5d5" d="M481.582 121.849h334.239L778.9 177H445.328Z" data-name="Path 7117"/><path fill="#d5d5d5" d="M481.582 366.849h334.239L778.9 422H445.328Z" data-name="Path 7118"/><rect width="203.777" height="17.828" fill="#888" data-name="Rectangle 686" rx="5" transform="translate(528.686 140.511)"/><rect width="203.777" height="17.828" fill="#888" data-name="Rectangle 687" rx="5" transform="translate(528.686 385.511)"/></g></svg>