<svg xmlns="http://www.w3.org/2000/svg" width="1000" height="700" viewBox="0 0 1000 700"><defs><clipPath id="a"><path d="M0 0h1000v700H0z"/></clipPath></defs><g clip-path="url(#a)" data-name="Advanced Button - Style 9"><path fill="#fcfcff" d="M0 0h1000v700H0z"/><path fill="none" stroke="#d5d5d5" d="M900 100v483" data-name="Line 169"/><rect width="412.034" height="138.182" fill="#888" data-name="Rectangle 11" rx="69.091" transform="translate(293.983 100)"/><rect width="412.034" height="138.182" fill="#888" data-name="Rectangle 678" rx="69.091" transform="translate(293.983 385.229)"/><rect width="265.478" height="20.937" fill="#fff" data-name="Rectangle 413" rx="5" transform="translate(367.681 158.623)"/><rect width="265.477" height="20.937" fill="#fff" data-name="Rectangle 679" rx="5" transform="translate(367.68 443.852)"/><text fill="#888" data-name="Do It!" font-family="Roboto-Medium, Roboto" font-size="31" font-weight="500" transform="rotate(-27 926.46 -397.705)"><tspan x="0" y="0">Do It!</tspan></text><text fill="#888" data-name="Do It!" font-family="Roboto-Medium, Roboto" font-size="32" font-weight="500" transform="translate(462.5 341)"><tspan x="0" y="0">Do It!</tspan></text><text fill="#888" data-name="Do It!" font-family="Roboto-Medium, Roboto" font-size="27" font-weight="500" transform="rotate(20 -638.186 2022.943)"><tspan x="0" y="0">Do It!</tspan></text><text fill="#888" data-name="Do It!" font-family="Roboto-Medium, Roboto" font-size="27" font-weight="500" transform="rotate(-23 1732.298 -1459.04)"><tspan x="0" y="0">Do It!</tspan></text><text fill="#888" data-name="Do It!" font-family="Roboto-Medium, Roboto" font-size="31" font-weight="500" transform="translate(495.41 585.692)"><tspan x="0" y="0">Do It!</tspan></text><text fill="#888" data-name="Do It!" font-family="Roboto-Medium, Roboto" font-size="26" font-weight="500" transform="rotate(29 -931.246 857.574)"><tspan x="0" y="0">Do It!</tspan></text></g></svg>  