<svg xmlns="http://www.w3.org/2000/svg" width="1000" height="700" viewBox="0 0 1000 700"><defs><clipPath id="a"><path d="M0 0h1000v700H0z"/></clipPath></defs><g clip-path="url(#a)" data-name="Advanced Button - Download Style – 1"><path fill="#fcfcff" d="M0 0h1000v700H0z"/><rect width="313.478" height="24.937" fill="#888" rx="5" transform="translate(232.68 337.532)"/><g fill="#d5d5d5" stroke="#d5d5d5" transform="translate(590 286)"><circle cx="64" cy="64" r="64" stroke="none"/><circle cx="64" cy="64" r="63.5" fill="none"/></g><path fill="#888" d="m678.803 346.212-23.455 23.519a1.9 1.9 0 0 1-2.694 0l-23.456-23.519a1.9 1.9 0 0 1 0-2.694l3.106-3.106a1.881 1.881 0 0 1 2.71.032l14.85 15.389V316.4a1.907 1.907 0 0 1 1.9-1.9h4.438a1.907 1.907 0 0 1 1.9 1.9v39.43l14.85-15.389a1.909 1.909 0 0 1 2.71-.032l3.11 3.109a1.876 1.876 0 0 1 .031 2.694Zm3.724 31.047h-57.055a1.907 1.907 0 0 0-1.9 1.9v4.441a1.907 1.907 0 0 0 1.9 1.9h57.055a1.907 1.907 0 0 0 1.9-1.9v-4.439a1.907 1.907 0 0 0-1.9-1.902Z"/></g></svg>