<svg xmlns="http://www.w3.org/2000/svg" width="1000" height="700" viewBox="0 0 1000 700"><defs><clipPath id="a"><path d="M0 0h1000v700H0z"/></clipPath></defs><g clip-path="url(#a)" data-name="Advanced Button - Download Style – 2"><path fill="#fcfcff" d="M0 0h1000v700H0z"/><rect width="313.478" height="24.937" fill="#888" rx="5" transform="translate(232.68 337.532)"/><g fill="#d5d5d5" stroke="#d5d5d5" transform="translate(590 286)"><circle cx="64" cy="64" r="64" stroke="none"/><circle cx="64" cy="64" r="63.5" fill="none"/></g><path fill="#888" d="m682.206 349.235-2.563-2.563a1.555 1.555 0 0 0-2.2 0l-20.08 20.077v-44.193a1.558 1.558 0 0 0-1.551-1.553h-3.624a1.558 1.558 0 0 0-1.553 1.553v44.193l-20.077-20.077a1.555 1.555 0 0 0-2.2 0l-2.564 2.563a1.555 1.555 0 0 0 0 2.2l27.106 27.106a1.555 1.555 0 0 0 2.2 0l27.106-27.106a1.555 1.555 0 0 0 0-2.2Z"/></g></svg>