<svg xmlns="http://www.w3.org/2000/svg" width="1000" height="700" viewBox="0 0 1000 700"><defs><clipPath id="a"><path d="M0 0h1000v700H0z"/></clipPath></defs><g clip-path="url(#a)" data-name="Advanced Button - Download Style – 3"><path fill="#fcfcff" d="M0 0h1000v700H0z"/><g fill="#f2f2f2" stroke="#d5d5d5" stroke-width="2" transform="translate(536 238)"><rect width="272" height="234" stroke="none" rx="5"/><rect width="270" height="232" x="1" y="1" fill="none" rx="4"/></g><path fill="#888" d="m717.848 313.494-11.331-11.33a10.482 10.482 0 0 0-7.412-3.07h-37.587a10.482 10.482 0 0 0-10.483 10.482v10.483h-17.471a10.482 10.482 0 0 0-10.482 10.482v69.883a10.482 10.482 0 0 0 10.482 10.482h48.918a10.482 10.482 0 0 0 10.483-10.482v-10.482h17.471a10.482 10.482 0 0 0 10.482-10.483v-58.552a10.482 10.482 0 0 0-3.07-7.412Zm-17.895-7.3a3.468 3.468 0 0 1 1.623.916l11.33 11.33a3.469 3.469 0 0 1 .916 1.623h-13.869Zm-13.976 94.23a3.5 3.5 0 0 1-3.494 3.494h-48.919a3.5 3.5 0 0 1-3.494-3.494v-69.883a3.5 3.5 0 0 1 3.494-3.494h17.471v52.412a10.482 10.482 0 0 0 10.483 10.483h24.459Zm27.953-20.965a3.5 3.5 0 0 1-3.494 3.494h-48.918a3.5 3.5 0 0 1-3.494-3.494v-69.883a3.5 3.5 0 0 1 3.494-3.494h31.447v15.724a5.257 5.257 0 0 0 5.241 5.241h15.724ZM360.848 313.494l-11.331-11.33a10.482 10.482 0 0 0-7.412-3.07h-37.587a10.482 10.482 0 0 0-10.483 10.482v10.483h-17.471a10.482 10.482 0 0 0-10.482 10.482v69.883a10.482 10.482 0 0 0 10.482 10.482h48.918a10.482 10.482 0 0 0 10.483-10.482v-10.482h17.471a10.482 10.482 0 0 0 10.482-10.483v-58.552a10.482 10.482 0 0 0-3.07-7.412Zm-17.895-7.3a3.468 3.468 0 0 1 1.623.916l11.33 11.33a3.469 3.469 0 0 1 .916 1.623h-13.869Zm-13.976 94.23a3.5 3.5 0 0 1-3.494 3.494h-48.919a3.5 3.5 0 0 1-3.494-3.494v-69.883a3.5 3.5 0 0 1 3.494-3.494h17.471v52.412a10.482 10.482 0 0 0 10.483 10.483h24.459Zm27.953-20.965a3.5 3.5 0 0 1-3.494 3.494h-48.918a3.5 3.5 0 0 1-3.494-3.494v-69.883a3.5 3.5 0 0 1 3.494-3.494h31.447v15.724a5.257 5.257 0 0 0 5.241 5.241h15.724Z"/><g fill="none" stroke="#d5d5d5" stroke-width="2" transform="translate(179 238)"><rect width="272" height="234" stroke="none" rx="5"/><rect width="270" height="232" x="1" y="1" rx="4"/></g><g fill="#d5d5d5" stroke="#d5d5d5" transform="translate(228 322)"><rect width="174" height="56" stroke="none" rx="5"/><rect width="173" height="55" x=".5" y=".5" fill="none" rx="4.5"/></g><g fill="#d5d5d5" stroke="#d5d5d5" transform="translate(585 322)"><rect width="174" height="56" stroke="none" rx="5"/><rect width="173" height="55" x=".5" y=".5" fill="none" rx="4.5"/></g><rect width="87.713" height="16" fill="#888" rx="2" transform="translate(271.143 342)"/><rect width="125.713" height="16" fill="#888" rx="2" transform="translate(609.143 342)"/></g></svg>