<svg xmlns="http://www.w3.org/2000/svg" width="1000" height="700" viewBox="0 0 1000 700"><defs><clipPath id="a"><path d="M0 0h1000v700H0z"/></clipPath></defs><g clip-path="url(#a)" data-name="Advanced Button - Download Style – 4"><path fill="#fcfcff" d="M0 0h1000v700H0z"/><rect width="313.478" height="24.937" fill="#888" rx="5" transform="translate(232.68 337.532)"/><g fill="#888" stroke="#707070" transform="translate(590 296)"><rect width="108" height="108" stroke="none" rx="5"/><rect width="107" height="107" x=".5" y=".5" fill="none" rx="4.5"/></g><path fill="#fff" d="M639.082 318.522h9.84a2.944 2.944 0 0 1 2.951 2.951v20.658h10.781a2.455 2.455 0 0 1 1.733 4.191l-18.7 18.715a2.382 2.382 0 0 1-3.357 0l-18.729-18.715a2.455 2.455 0 0 1 1.734-4.193h10.8v-20.656a2.944 2.944 0 0 1 2.947-2.951Zm36.4 46.234v13.771a2.944 2.944 0 0 1-2.951 2.951h-57.058a2.944 2.944 0 0 1-2.951-2.951v-13.771a2.944 2.944 0 0 1 2.951-2.951h18.039l6.025 6.025a6.3 6.3 0 0 0 8.927 0l6.025-6.025h18.038a2.944 2.944 0 0 1 2.952 2.951Zm-15.251 10.82a2.459 2.459 0 1 0-2.459 2.459 2.466 2.466 0 0 0 2.459-2.459Zm7.87 0a2.459 2.459 0 1 0-2.459 2.459 2.466 2.466 0 0 0 2.459-2.459Z"/></g></svg>