<svg xmlns="http://www.w3.org/2000/svg" width="1000" height="700" viewBox="0 0 1000 700"><defs><clipPath id="a"><path d="M0 0h1000v700H0z"/></clipPath></defs><g clip-path="url(#a)" data-name="Advanced Button - Download Style – 5"><path fill="#fcfcff" d="M0 0h1000v700H0z"/><path fill="#888" d="M594 296h103a5 5 0 0 1 5 5v98a5 5 0 0 1-5 5H594V296Z"/><path fill="#a5a5a5" d="M303 296h291v108H303a5 5 0 0 1-5-5v-98a5 5 0 0 1 5-5Z"/><rect width="213.702" height="17" fill="#fff" rx="5" transform="translate(339.149 341.5)"/><path fill="#fff" d="m663.868 351.79-14.362 14.362a1.421 1.421 0 0 1-2.011 0l-14.363-14.362a1.421 1.421 0 0 1 0-2.011l2.319-2.319a1.418 1.418 0 0 1 2.035.024l7.938 8.316v-19.023a1.424 1.424 0 0 1 1.42-1.42h3.313a1.424 1.424 0 0 1 1.42 1.42V355.8l7.938-8.317a1.418 1.418 0 0 1 2.035-.024l2.319 2.319a1.421 1.421 0 0 1-.001 2.012ZM675 329.679v41.642a5.68 5.68 0 0 1-5.679 5.679h-41.642a5.68 5.68 0 0 1-5.679-5.679v-41.642a5.68 5.68 0 0 1 5.679-5.679h41.642a5.68 5.68 0 0 1 5.679 5.679Zm-5.679 40.933v-40.224a.712.712 0 0 0-.71-.71h-40.223a.712.712 0 0 0-.71.71v40.224a.712.712 0 0 0 .71.71h40.224a.712.712 0 0 0 .709-.71Z"/></g></svg>