<svg xmlns="http://www.w3.org/2000/svg" width="1000" height="700" fill="none" viewBox="0 0 1000 700"><path fill="#fff" d="M0 0h1000v700H0z"/><path fill="#A6A6A6" d="M80 113h260v177H80z"/><path fill="#000" d="M101.256 137.122v-2.031h14.182v2.031h-5.947V154h-2.289v-16.878h-5.946Zm21.309 17.173c-1.366 0-2.545-.301-3.536-.904-.985-.61-1.745-1.459-2.28-2.549-.53-1.095-.794-2.369-.794-3.822 0-1.453.264-2.733.794-3.841.535-1.114 1.28-1.982 2.234-2.604.96-.628 2.08-.941 3.361-.941.738 0 1.468.123 2.188.369.72.246 1.376.646 1.967 1.2.59.548 1.061 1.274 1.412 2.179.351.905.527 2.019.527 3.342v.924h-10.932v-1.884h8.716c0-.8-.16-1.514-.481-2.142a3.607 3.607 0 0 0-1.348-1.486c-.578-.364-1.261-.545-2.049-.545-.868 0-1.619.215-2.253.646a4.259 4.259 0 0 0-1.45 1.662 4.89 4.89 0 0 0-.507 2.198v1.255c0 1.071.184 1.979.554 2.724.375.739.895 1.302 1.56 1.69.665.381 1.437.572 2.317.572.573 0 1.09-.08 1.551-.24a3.312 3.312 0 0 0 1.21-.739c.339-.332.6-.744.785-1.237l2.105.591a4.678 4.678 0 0 1-1.117 1.884c-.523.535-1.17.954-1.939 1.255-.77.296-1.634.443-2.595.443Zm10.431-14.477 3.398 5.798 3.398-5.798h2.511l-4.579 7.091 4.579 7.091h-2.511l-3.398-5.503-3.398 5.503h-2.511l4.506-7.091-4.506-7.091h2.511Zm18.584 0v1.847h-7.35v-1.847h7.35Zm-5.207-3.398h2.178v13.518c0 .615.09 1.077.268 1.384.185.302.419.505.702.61.289.098.594.148.914.148.24 0 .437-.013.591-.037l.369-.074.443 1.957a4.288 4.288 0 0 1-.618.166c-.265.062-.6.093-1.007.093a4.396 4.396 0 0 1-1.809-.397 3.596 3.596 0 0 1-1.459-1.21c-.382-.542-.572-1.225-.572-2.05V136.42Z"/><rect width="24" height="24" x="163" y="133" fill="#D9D9D9" rx="12"/><path fill="#000" d="M176.046 139.818V150h-1.844v-8.387h-.06l-2.381 1.521v-1.69l2.53-1.626h1.755Z"/><path fill="#A6A6A6" d="M370 113h260v224H370z"/><path fill="#000" d="M391.256 137.122v-2.031h14.182v2.031h-5.947V154h-2.289v-16.878h-5.946Zm21.309 17.173c-1.366 0-2.545-.301-3.536-.904-.985-.61-1.745-1.459-2.28-2.549-.53-1.095-.794-2.369-.794-3.822 0-1.453.264-2.733.794-3.841.535-1.114 1.28-1.982 2.234-2.604.96-.628 2.08-.941 3.361-.941.738 0 1.468.123 2.188.369.72.246 1.376.646 1.967 1.2.59.548 1.061 1.274 1.412 2.179.351.905.527 2.019.527 3.342v.924h-10.932v-1.884h8.716c0-.8-.16-1.514-.481-2.142a3.607 3.607 0 0 0-1.348-1.486c-.578-.364-1.261-.545-2.049-.545-.868 0-1.619.215-2.253.646a4.259 4.259 0 0 0-1.45 1.662 4.89 4.89 0 0 0-.507 2.198v1.255c0 1.071.184 1.979.554 2.724.375.739.895 1.302 1.56 1.69.665.381 1.437.572 2.317.572.573 0 1.09-.08 1.551-.24a3.312 3.312 0 0 0 1.21-.739c.339-.332.6-.744.785-1.237l2.105.591a4.678 4.678 0 0 1-1.117 1.884c-.523.535-1.17.954-1.939 1.255-.77.296-1.634.443-2.595.443Zm10.431-14.477 3.398 5.798 3.398-5.798h2.511l-4.579 7.091 4.579 7.091h-2.511l-3.398-5.503-3.398 5.503h-2.511l4.506-7.091-4.506-7.091h2.511Zm18.584 0v1.847h-7.35v-1.847h7.35Zm-5.207-3.398h2.178v13.518c0 .615.09 1.077.268 1.384.185.302.419.505.702.61.289.098.594.148.914.148.24 0 .437-.013.591-.037l.369-.074.443 1.957a4.288 4.288 0 0 1-.618.166c-.265.062-.6.093-1.007.093a4.396 4.396 0 0 1-1.809-.397 3.596 3.596 0 0 1-1.459-1.21c-.382-.542-.572-1.225-.572-2.05V136.42Z"/><rect width="24" height="24" x="453" y="133" fill="#D9D9D9" rx="12"/><path fill="#000" d="M466.046 139.818V150h-1.844v-8.387h-.06l-2.381 1.521v-1.69l2.53-1.626h1.755Z"/><path fill="#A6A6A6" d="M660 113h260v256H660z"/><path fill="#000" d="M681.256 137.122v-2.031h14.182v2.031h-5.947V154h-2.289v-16.878h-5.946Zm21.309 17.173c-1.366 0-2.545-.301-3.536-.904-.985-.61-1.745-1.459-2.28-2.549-.53-1.095-.794-2.369-.794-3.822 0-1.453.264-2.733.794-3.841.535-1.114 1.28-1.982 2.234-2.604.96-.628 2.08-.941 3.361-.941.738 0 1.468.123 2.188.369.72.246 1.376.646 1.967 1.2.59.548 1.061 1.274 1.412 2.179.351.905.527 2.019.527 3.342v.924h-10.932v-1.884h8.716c0-.8-.16-1.514-.481-2.142a3.607 3.607 0 0 0-1.348-1.486c-.578-.364-1.261-.545-2.049-.545-.868 0-1.619.215-2.253.646a4.259 4.259 0 0 0-1.45 1.662 4.89 4.89 0 0 0-.507 2.198v1.255c0 1.071.184 1.979.554 2.724.375.739.895 1.302 1.56 1.69.665.381 1.437.572 2.317.572.573 0 1.09-.08 1.551-.24a3.312 3.312 0 0 0 1.21-.739c.339-.332.6-.744.785-1.237l2.105.591a4.678 4.678 0 0 1-1.117 1.884c-.523.535-1.17.954-1.939 1.255-.77.296-1.634.443-2.595.443Zm10.431-14.477 3.398 5.798 3.398-5.798h2.511l-4.579 7.091 4.579 7.091h-2.511l-3.398-5.503-3.398 5.503h-2.511l4.506-7.091-4.506-7.091h2.511Zm18.584 0v1.847h-7.35v-1.847h7.35Zm-5.207-3.398h2.178v13.518c0 .615.09 1.077.268 1.384.185.302.419.505.702.61.289.098.594.148.914.148.24 0 .437-.013.591-.037l.369-.074.443 1.957a4.288 4.288 0 0 1-.618.166c-.265.062-.6.093-1.007.093a4.396 4.396 0 0 1-1.809-.397 3.596 3.596 0 0 1-1.459-1.21c-.382-.542-.572-1.225-.572-2.05V136.42Z"/><rect width="24" height="24" x="743" y="133" fill="#D9D9D9" rx="12"/><path fill="#000" d="M756.046 139.818V150h-1.844v-8.387h-.06l-2.381 1.521v-1.69l2.53-1.626h1.755Z"/></svg>