<svg xmlns="http://www.w3.org/2000/svg" width="1000" height="700" fill="none" viewBox="0 0 1000 700"><path fill="#fff" d="M0 0h1000v700H0z"/><path fill="#A6A6A6" d="M80 113h260v177H80z"/><path fill="#fff" d="M100 133h220v60H100z"/><path fill="#000" d="M111.256 145.122v-2.031h14.182v2.031h-5.947V162h-2.289v-16.878h-5.946Zm21.309 17.173c-1.366 0-2.545-.301-3.536-.904-.985-.61-1.745-1.459-2.28-2.549-.53-1.095-.794-2.369-.794-3.822 0-1.453.264-2.733.794-3.841.535-1.114 1.28-1.982 2.234-2.604.96-.628 2.08-.941 3.361-.941.738 0 1.468.123 2.188.369.72.246 1.376.646 1.967 1.2.59.548 1.061 1.274 1.412 2.179.351.905.527 2.019.527 3.342v.924h-10.932v-1.884h8.716c0-.8-.16-1.514-.481-2.142a3.607 3.607 0 0 0-1.348-1.486c-.578-.364-1.261-.545-2.049-.545-.868 0-1.619.215-2.253.646a4.259 4.259 0 0 0-1.45 1.662 4.89 4.89 0 0 0-.507 2.198v1.255c0 1.071.184 1.979.554 2.724.375.739.895 1.302 1.56 1.69.665.381 1.437.572 2.317.572.573 0 1.09-.08 1.551-.24a3.312 3.312 0 0 0 1.21-.739c.339-.332.6-.744.785-1.237l2.105.591a4.678 4.678 0 0 1-1.117 1.884c-.523.535-1.17.954-1.939 1.255-.77.296-1.634.443-2.595.443Zm10.431-14.477 3.398 5.798 3.398-5.798h2.511l-4.579 7.091 4.579 7.091h-2.511l-3.398-5.503-3.398 5.503h-2.511l4.506-7.091-4.506-7.091h2.511Zm18.584 0v1.847h-7.35v-1.847h7.35Zm-5.207-3.398h2.178v13.518c0 .615.09 1.077.268 1.384.185.302.419.505.702.61.289.098.594.148.914.148.24 0 .437-.013.591-.037l.369-.074.443 1.957a4.288 4.288 0 0 1-.618.166c-.265.062-.6.093-1.007.093a4.396 4.396 0 0 1-1.809-.397 3.596 3.596 0 0 1-1.459-1.21c-.382-.542-.572-1.225-.572-2.05V144.42Z"/><path fill="#000" fill-opacity=".5" d="M117.544 183.139c-.703 0-1.329-.129-1.879-.388a3.27 3.27 0 0 1-1.303-1.068 2.752 2.752 0 0 1-.502-1.562h2.088c.023.395.189.715.497.96.309.245.675.368 1.099.368.338 0 .636-.075.895-.224.262-.152.466-.363.611-.631.15-.272.224-.584.224-.935 0-.358-.076-.673-.229-.945a1.623 1.623 0 0 0-.621-.636 1.84 1.84 0 0 0-.91-.234c-.298 0-.588.062-.87.184-.278.123-.495.29-.651.503l-1.914-.343.482-5.37h6.225v1.76h-4.45l-.264 2.551h.06c.179-.252.449-.461.81-.627a2.877 2.877 0 0 1 1.214-.248c.613 0 1.16.144 1.64.432.481.288.86.685 1.139 1.188.278.501.416 1.077.412 1.73.004.686-.155 1.296-.477 1.83-.318.53-.764.948-1.337 1.253-.57.301-1.233.452-1.989.452Z"/><path fill="#A6A6A6" d="M370 113h260v224H370z"/><path fill="#fff" d="M390 133h220v60H390z"/><path fill="#000" d="M401.256 145.122v-2.031h14.182v2.031h-5.947V162h-2.289v-16.878h-5.946Zm21.309 17.173c-1.366 0-2.545-.301-3.536-.904-.985-.61-1.745-1.459-2.28-2.549-.53-1.095-.794-2.369-.794-3.822 0-1.453.264-2.733.794-3.841.535-1.114 1.28-1.982 2.234-2.604.96-.628 2.08-.941 3.361-.941.738 0 1.468.123 2.188.369.72.246 1.376.646 1.967 1.2.59.548 1.061 1.274 1.412 2.179.351.905.527 2.019.527 3.342v.924h-10.932v-1.884h8.716c0-.8-.16-1.514-.481-2.142a3.607 3.607 0 0 0-1.348-1.486c-.578-.364-1.261-.545-2.049-.545-.868 0-1.619.215-2.253.646a4.259 4.259 0 0 0-1.45 1.662 4.89 4.89 0 0 0-.507 2.198v1.255c0 1.071.184 1.979.554 2.724.375.739.895 1.302 1.56 1.69.665.381 1.437.572 2.317.572.573 0 1.09-.08 1.551-.24a3.312 3.312 0 0 0 1.21-.739c.339-.332.6-.744.785-1.237l2.105.591a4.678 4.678 0 0 1-1.117 1.884c-.523.535-1.17.954-1.939 1.255-.77.296-1.634.443-2.595.443Zm10.431-14.477 3.398 5.798 3.398-5.798h2.511l-4.579 7.091 4.579 7.091h-2.511l-3.398-5.503-3.398 5.503h-2.511l4.506-7.091-4.506-7.091h2.511Zm18.584 0v1.847h-7.35v-1.847h7.35Zm-5.207-3.398h2.178v13.518c0 .615.09 1.077.268 1.384.185.302.419.505.702.61.289.098.594.148.914.148.24 0 .437-.013.591-.037l.369-.074.443 1.957a4.288 4.288 0 0 1-.618.166c-.265.062-.6.093-1.007.093a4.396 4.396 0 0 1-1.809-.397 3.596 3.596 0 0 1-1.459-1.21c-.382-.542-.572-1.225-.572-2.05V144.42Z"/><path fill="#000" fill-opacity=".5" d="M407.544 183.139c-.703 0-1.329-.129-1.879-.388a3.27 3.27 0 0 1-1.303-1.068 2.752 2.752 0 0 1-.502-1.562h2.088c.023.395.189.715.497.96.309.245.675.368 1.099.368.338 0 .636-.075.895-.224.262-.152.466-.363.611-.631.15-.272.224-.584.224-.935 0-.358-.076-.673-.229-.945a1.623 1.623 0 0 0-.621-.636 1.84 1.84 0 0 0-.91-.234c-.298 0-.588.062-.87.184-.278.123-.495.29-.651.503l-1.914-.343.482-5.37h6.225v1.76h-4.45l-.264 2.551h.06c.179-.252.449-.461.81-.627a2.877 2.877 0 0 1 1.214-.248c.613 0 1.16.144 1.64.432.481.288.86.685 1.139 1.188.278.501.416 1.077.412 1.73.004.686-.155 1.296-.477 1.83-.318.53-.764.948-1.337 1.253-.57.301-1.233.452-1.989.452Z"/><path fill="#A6A6A6" d="M660 113h260v256H660z"/><path fill="#fff" d="M680 133h220v60H680z"/><path fill="#000" d="M691.256 145.122v-2.031h14.182v2.031h-5.947V162h-2.289v-16.878h-5.946Zm21.309 17.173c-1.366 0-2.545-.301-3.536-.904-.985-.61-1.745-1.459-2.28-2.549-.53-1.095-.794-2.369-.794-3.822 0-1.453.264-2.733.794-3.841.535-1.114 1.28-1.982 2.234-2.604.96-.628 2.08-.941 3.361-.941.738 0 1.468.123 2.188.369.72.246 1.376.646 1.967 1.2.59.548 1.061 1.274 1.412 2.179.351.905.527 2.019.527 3.342v.924h-10.932v-1.884h8.716c0-.8-.16-1.514-.481-2.142a3.607 3.607 0 0 0-1.348-1.486c-.578-.364-1.261-.545-2.049-.545-.868 0-1.619.215-2.253.646a4.259 4.259 0 0 0-1.45 1.662 4.89 4.89 0 0 0-.507 2.198v1.255c0 1.071.184 1.979.554 2.724.375.739.895 1.302 1.56 1.69.665.381 1.437.572 2.317.572.573 0 1.09-.08 1.551-.24a3.312 3.312 0 0 0 1.21-.739c.339-.332.6-.744.785-1.237l2.105.591a4.678 4.678 0 0 1-1.117 1.884c-.523.535-1.17.954-1.939 1.255-.77.296-1.634.443-2.595.443Zm10.431-14.477 3.398 5.798 3.398-5.798h2.511l-4.579 7.091 4.579 7.091h-2.511l-3.398-5.503-3.398 5.503h-2.511l4.506-7.091-4.506-7.091h2.511Zm18.584 0v1.847h-7.35v-1.847h7.35Zm-5.207-3.398h2.178v13.518c0 .615.09 1.077.268 1.384.185.302.419.505.702.61.289.098.594.148.914.148.24 0 .437-.013.591-.037l.369-.074.443 1.957a4.288 4.288 0 0 1-.618.166c-.265.062-.6.093-1.007.093a4.396 4.396 0 0 1-1.809-.397 3.596 3.596 0 0 1-1.459-1.21c-.382-.542-.572-1.225-.572-2.05V144.42Z"/><path fill="#000" fill-opacity=".5" d="M697.544 183.139c-.703 0-1.329-.129-1.879-.388a3.27 3.27 0 0 1-1.303-1.068 2.752 2.752 0 0 1-.502-1.562h2.088c.023.395.189.715.497.96.309.245.675.368 1.099.368.338 0 .636-.075.895-.224.262-.152.466-.363.611-.631.15-.272.224-.584.224-.935 0-.358-.076-.673-.229-.945a1.623 1.623 0 0 0-.621-.636 1.84 1.84 0 0 0-.91-.234c-.298 0-.588.062-.87.184-.278.123-.495.29-.651.503l-1.914-.343.482-5.37h6.225v1.76h-4.45l-.264 2.551h.06c.179-.252.449-.461.81-.627a2.877 2.877 0 0 1 1.214-.248c.613 0 1.16.144 1.64.432.481.288.86.685 1.139 1.188.278.501.416 1.077.412 1.73.004.686-.155 1.296-.477 1.83-.318.53-.764.948-1.337 1.253-.57.301-1.233.452-1.989.452Z"/></svg>