<svg xmlns="http://www.w3.org/2000/svg" width="1000" height="700" fill="none" viewBox="0 0 1000 700"><path fill="#fff" d="M0 0h1000v700H0z"/><path fill="#A6A6A6" d="M80 258h260v70H80z"/><path fill="#000" d="M111.256 285.122v-2.031h14.182v2.031h-5.947V302h-2.289v-16.878h-5.946ZM128.971 302v-18.909h11.412v2.031h-9.122v6.389h8.531v2.032h-8.531v6.426h9.27V302h-11.56Zm16.647-18.909 4.875 7.866h.148l4.875-7.866h2.696l-5.946 9.454 5.946 9.455h-2.696l-4.875-7.719h-.148L145.618 302h-2.696l6.094-9.455-6.094-9.454h2.696Zm14.54 2.031v-2.031h14.182v2.031h-5.946V302h-2.29v-16.878h-5.946Z"/><rect width="32" height="32" x="278" y="277" fill="#fff" rx="16"/><path fill="#000" d="M294.592 299.186c-.884 0-1.675-.166-2.373-.498-.698-.335-1.253-.795-1.664-1.378a3.652 3.652 0 0 1-.649-2.002h2.386c.044.557.285 1.012.723 1.365.437.349.963.524 1.577.524.482 0 .911-.111 1.286-.331.376-.221.672-.529.888-.922.217-.393.323-.842.319-1.346a2.719 2.719 0 0 0-.325-1.365 2.436 2.436 0 0 0-.908-.935 2.535 2.535 0 0 0-1.326-.344 3.138 3.138 0 0 0-1.2.225c-.393.155-.705.358-.935.61l-2.22-.365.709-7h7.875v2.055h-5.84l-.391 3.6h.08c.251-.296.607-.542 1.067-.736a3.76 3.76 0 0 1 1.511-.298c.822 0 1.556.194 2.201.583a4.121 4.121 0 0 1 1.524 1.591c.372.676.557 1.449.557 2.32 0 .897-.207 1.697-.623 2.399a4.4 4.4 0 0 1-1.717 1.651c-.729.398-1.573.597-2.532.597ZM111.256 398.122v-2.031h14.182v2.031h-5.947V415h-2.289v-16.878h-5.946ZM128.971 415v-18.909h11.412v2.031h-9.122v6.389h8.531v2.032h-8.531v6.426h9.27V415h-11.56Zm16.647-18.909 4.875 7.866h.148l4.875-7.866h2.696l-5.946 9.454 5.946 9.455h-2.696l-4.875-7.719h-.148L145.618 415h-2.696l6.094-9.455-6.094-9.454h2.696Zm14.54 2.031v-2.031h14.182v2.031h-5.946V415h-2.29v-16.878h-5.946Z"/><rect width="32" height="32" x="278" y="390" fill="#fff" rx="16"/><path fill="#000" d="M294.592 412.186c-.884 0-1.675-.166-2.373-.498-.698-.335-1.253-.795-1.664-1.378a3.652 3.652 0 0 1-.649-2.002h2.386c.044.557.285 1.012.723 1.365.437.349.963.524 1.577.524.482 0 .911-.111 1.286-.331.376-.221.672-.529.888-.922.217-.393.323-.842.319-1.346a2.719 2.719 0 0 0-.325-1.365 2.436 2.436 0 0 0-.908-.935 2.535 2.535 0 0 0-1.326-.344 3.138 3.138 0 0 0-1.2.225c-.393.155-.705.358-.935.61l-2.22-.365.709-7h7.875v2.055h-5.84l-.391 3.6h.08c.251-.296.607-.542 1.067-.736a3.76 3.76 0 0 1 1.511-.298c.822 0 1.556.194 2.201.583a4.121 4.121 0 0 1 1.524 1.591c.372.676.557 1.449.557 2.32 0 .897-.207 1.697-.623 2.399a4.4 4.4 0 0 1-1.717 1.651c-.729.398-1.573.597-2.532.597ZM401.256 285.122v-2.031h14.182v2.031h-5.947V302h-2.289v-16.878h-5.946ZM418.971 302v-18.909h11.412v2.031h-9.122v6.389h8.531v2.032h-8.531v6.426h9.27V302h-11.56Zm16.647-18.909 4.875 7.866h.148l4.875-7.866h2.696l-5.946 9.454 5.946 9.455h-2.696l-4.875-7.719h-.148L435.618 302h-2.696l6.094-9.455-6.094-9.454h2.696Zm14.54 2.031v-2.031h14.182v2.031h-5.946V302h-2.29v-16.878h-5.946Z"/><rect width="32" height="32" x="568" y="277" fill="#fff" rx="16"/><path fill="#000" d="M584.592 299.186c-.884 0-1.675-.166-2.373-.498-.698-.335-1.253-.795-1.664-1.378a3.652 3.652 0 0 1-.649-2.002h2.386c.044.557.285 1.012.723 1.365.437.349.963.524 1.577.524.482 0 .911-.111 1.286-.331.376-.221.672-.529.888-.922.217-.393.323-.842.319-1.346a2.719 2.719 0 0 0-.325-1.365 2.436 2.436 0 0 0-.908-.935 2.535 2.535 0 0 0-1.326-.344 3.138 3.138 0 0 0-1.2.225c-.393.155-.705.358-.935.61l-2.22-.365.709-7h7.875v2.055h-5.84l-.391 3.6h.08c.251-.296.607-.542 1.067-.736a3.76 3.76 0 0 1 1.511-.298c.822 0 1.556.194 2.201.583a4.121 4.121 0 0 1 1.524 1.591c.372.676.557 1.449.557 2.32 0 .897-.207 1.697-.623 2.399a4.4 4.4 0 0 1-1.717 1.651c-.729.398-1.573.597-2.532.597ZM401.256 398.122v-2.031h14.182v2.031h-5.947V415h-2.289v-16.878h-5.946ZM418.971 415v-18.909h11.412v2.031h-9.122v6.389h8.531v2.032h-8.531v6.426h9.27V415h-11.56Zm16.647-18.909 4.875 7.866h.148l4.875-7.866h2.696l-5.946 9.454 5.946 9.455h-2.696l-4.875-7.719h-.148L435.618 415h-2.696l6.094-9.455-6.094-9.454h2.696Zm14.54 2.031v-2.031h14.182v2.031h-5.946V415h-2.29v-16.878h-5.946Z"/><rect width="32" height="32" x="568" y="390" fill="#fff" rx="16"/><path fill="#000" d="M584.592 412.186c-.884 0-1.675-.166-2.373-.498-.698-.335-1.253-.795-1.664-1.378a3.652 3.652 0 0 1-.649-2.002h2.386c.044.557.285 1.012.723 1.365.437.349.963.524 1.577.524.482 0 .911-.111 1.286-.331.376-.221.672-.529.888-.922.217-.393.323-.842.319-1.346a2.719 2.719 0 0 0-.325-1.365 2.436 2.436 0 0 0-.908-.935 2.535 2.535 0 0 0-1.326-.344 3.138 3.138 0 0 0-1.2.225c-.393.155-.705.358-.935.61l-2.22-.365.709-7h7.875v2.055h-5.84l-.391 3.6h.08c.251-.296.607-.542 1.067-.736a3.76 3.76 0 0 1 1.511-.298c.822 0 1.556.194 2.201.583a4.121 4.121 0 0 1 1.524 1.591c.372.676.557 1.449.557 2.32 0 .897-.207 1.697-.623 2.399a4.4 4.4 0 0 1-1.717 1.651c-.729.398-1.573.597-2.532.597ZM691.256 285.122v-2.031h14.182v2.031h-5.947V302h-2.289v-16.878h-5.946ZM708.971 302v-18.909h11.412v2.031h-9.122v6.389h8.531v2.032h-8.531v6.426h9.27V302h-11.56Zm16.647-18.909 4.875 7.866h.148l4.875-7.866h2.696l-5.946 9.454 5.946 9.455h-2.696l-4.875-7.719h-.148L725.618 302h-2.696l6.094-9.455-6.094-9.454h2.696Zm14.54 2.031v-2.031h14.182v2.031h-5.946V302h-2.29v-16.878h-5.946Z"/><rect width="32" height="32" x="858" y="277" fill="#fff" rx="16"/><path fill="#000" d="M874.592 299.186c-.884 0-1.675-.166-2.373-.498-.698-.335-1.253-.795-1.664-1.378a3.652 3.652 0 0 1-.649-2.002h2.386c.044.557.285 1.012.723 1.365.437.349.963.524 1.577.524.482 0 .911-.111 1.286-.331.376-.221.672-.529.888-.922.217-.393.323-.842.319-1.346a2.719 2.719 0 0 0-.325-1.365 2.436 2.436 0 0 0-.908-.935 2.535 2.535 0 0 0-1.326-.344 3.138 3.138 0 0 0-1.2.225c-.393.155-.705.358-.935.61l-2.22-.365.709-7h7.875v2.055h-5.84l-.391 3.6h.08c.251-.296.607-.542 1.067-.736a3.76 3.76 0 0 1 1.511-.298c.822 0 1.556.194 2.201.583a4.121 4.121 0 0 1 1.524 1.591c.372.676.557 1.449.557 2.32 0 .897-.207 1.697-.623 2.399a4.4 4.4 0 0 1-1.717 1.651c-.729.398-1.573.597-2.532.597ZM691.256 398.122v-2.031h14.182v2.031h-5.947V415h-2.289v-16.878h-5.946ZM708.971 415v-18.909h11.412v2.031h-9.122v6.389h8.531v2.032h-8.531v6.426h9.27V415h-11.56Zm16.647-18.909 4.875 7.866h.148l4.875-7.866h2.696l-5.946 9.454 5.946 9.455h-2.696l-4.875-7.719h-.148L725.618 415h-2.696l6.094-9.455-6.094-9.454h2.696Zm14.54 2.031v-2.031h14.182v2.031h-5.946V415h-2.29v-16.878h-5.946Z"/><rect width="32" height="32" x="858" y="390" fill="#fff" rx="16"/><path fill="#000" d="M874.592 412.186c-.884 0-1.675-.166-2.373-.498-.698-.335-1.253-.795-1.664-1.378a3.652 3.652 0 0 1-.649-2.002h2.386c.044.557.285 1.012.723 1.365.437.349.963.524 1.577.524.482 0 .911-.111 1.286-.331.376-.221.672-.529.888-.922.217-.393.323-.842.319-1.346a2.719 2.719 0 0 0-.325-1.365 2.436 2.436 0 0 0-.908-.935 2.535 2.535 0 0 0-1.326-.344 3.138 3.138 0 0 0-1.2.225c-.393.155-.705.358-.935.61l-2.22-.365.709-7h7.875v2.055h-5.84l-.391 3.6h.08c.251-.296.607-.542 1.067-.736a3.76 3.76 0 0 1 1.511-.298c.822 0 1.556.194 2.201.583a4.121 4.121 0 0 1 1.524 1.591c.372.676.557 1.449.557 2.32 0 .897-.207 1.697-.623 2.399a4.4 4.4 0 0 1-1.717 1.651c-.729.398-1.573.597-2.532.597Z"/></svg>