<svg xmlns="http://www.w3.org/2000/svg" width="127" height="100" fill="none"><path fill="url(#a)" d="M42.28 25A2.28 2.28 0 0 0 40 27.28v24.157a2.28 2.28 0 0 0 2.28 2.28h7.748a2.28 2.28 0 0 0 2.279-2.28V27.279A2.28 2.28 0 0 0 50.027 25H42.28Z"/><path fill="url(#b)" d="M76.01 25a2.28 2.28 0 0 0-2.28 2.28v12.306a2.28 2.28 0 0 0 2.28 2.279h7.292a2.28 2.28 0 0 0 2.28-2.28V27.28A2.28 2.28 0 0 0 83.301 25H76.01Z"/><path fill="url(#c)" d="M56.865 44.123c0-1.259 1.02-2.28 2.279-2.28h7.749a2.28 2.28 0 0 1 2.279 2.28V56.43a2.279 2.279 0 0 1-2.28 2.279h-7.748a2.279 2.279 0 0 1-2.28-2.28V44.124Z"/><path fill="url(#d)" d="M42.28 58.296A2.279 2.279 0 0 0 40 60.575V72.88a2.28 2.28 0 0 0 2.28 2.28h7.748a2.28 2.28 0 0 0 2.279-2.28V60.576a2.279 2.279 0 0 0-2.28-2.28H42.28Z"/><path fill="url(#e)" d="M73.274 65.418a2.279 2.279 0 0 1 2.28-2.28h7.748a2.279 2.279 0 0 1 2.28 2.28v12.306c0 1.26-1.021 2.28-2.28 2.28h-7.749a2.28 2.28 0 0 1-2.279-2.28V65.419Z"/><path fill="url(#f)" d="M59.144 25a2.279 2.279 0 0 0-2.28 2.28v7.596a2.28 2.28 0 0 0 2.28 2.279h7.749a2.28 2.28 0 0 0 2.279-2.28V27.28A2.28 2.28 0 0 0 66.892 25h-7.748Z"/><path fill="url(#g)" d="M56.865 65.56c0-1.259 1.02-2.279 2.279-2.279h7.749a2.28 2.28 0 0 1 2.279 2.28v7.596a2.28 2.28 0 0 1-2.28 2.279h-7.748a2.28 2.28 0 0 1-2.28-2.28V65.56Z"/><path fill="url(#h)" d="M75.553 46.402a2.28 2.28 0 0 0-2.279 2.279v7.597a2.28 2.28 0 0 0 2.28 2.279h7.748a2.279 2.279 0 0 0 2.28-2.28v-7.596a2.28 2.28 0 0 0-2.28-2.28h-7.749Z"/><defs><linearGradient id="a" x1="62.791" x2="62.791" y1="25" y2="71.039" gradientUnits="userSpaceOnUse"><stop stop-color="#9AA6AE"/><stop offset="1" stop-color="#9AA6AE" stop-opacity="0"/></linearGradient><linearGradient id="b" x1="62.791" x2="62.791" y1="25" y2="71.039" gradientUnits="userSpaceOnUse"><stop stop-color="#9AA6AE"/><stop offset="1" stop-color="#9AA6AE" stop-opacity="0"/></linearGradient><linearGradient id="c" x1="62.791" x2="62.791" y1="25" y2="71.039" gradientUnits="userSpaceOnUse"><stop stop-color="#9AA6AE"/><stop offset="1" stop-color="#9AA6AE" stop-opacity="0"/></linearGradient><linearGradient id="d" x1="62.791" x2="62.791" y1="25" y2="71.039" gradientUnits="userSpaceOnUse"><stop stop-color="#9AA6AE"/><stop offset="1" stop-color="#9AA6AE" stop-opacity="0"/></linearGradient><linearGradient id="e" x1="62.791" x2="62.791" y1="25" y2="71.039" gradientUnits="userSpaceOnUse"><stop stop-color="#9AA6AE"/><stop offset="1" stop-color="#9AA6AE" stop-opacity="0"/></linearGradient><linearGradient id="f" x1="62.791" x2="62.791" y1="25" y2="71.039" gradientUnits="userSpaceOnUse"><stop stop-color="#9AA6AE"/><stop offset="1" stop-color="#9AA6AE" stop-opacity="0"/></linearGradient><linearGradient id="g" x1="62.791" x2="62.791" y1="25" y2="71.039" gradientUnits="userSpaceOnUse"><stop stop-color="#9AA6AE"/><stop offset="1" stop-color="#9AA6AE" stop-opacity="0"/></linearGradient><linearGradient id="h" x1="62.791" x2="62.791" y1="25" y2="71.039" gradientUnits="userSpaceOnUse"><stop stop-color="#9AA6AE"/><stop offset="1" stop-color="#9AA6AE" stop-opacity="0"/></linearGradient></defs></svg>