<svg xmlns="http://www.w3.org/2000/svg" width="127" height="100" fill="none"><path fill="#9AA6AE" d="M55 36a2 2 0 0 1 2-2h9a2 2 0 0 1 2 2v26a2 2 0 0 1-2 2h-9a2 2 0 0 1-2-2V36Z"/><path fill="#D2D5D7" d="M72 42a2 2 0 0 1 2-2h9a2 2 0 0 1 2 2v14a2 2 0 0 1-2 2h-9a2 2 0 0 1-2-2V42ZM38 42a2 2 0 0 1 2-2h9a2 2 0 0 1 2 2v14a2 2 0 0 1-2 2h-9a2 2 0 0 1-2-2V42ZM56 70.5a1.5 1.5 0 1 1-3 0 1.5 1.5 0 0 1 3 0Z"/><path fill="#9AA6AE" d="M64 70.5a2.5 2.5 0 1 1-5 0 2.5 2.5 0 0 1 5 0Z"/><path fill="#D2D5D7" d="M70 70.5a1.5 1.5 0 1 1-3 0 1.5 1.5 0 0 1 3 0Z"/></svg>