<svg xmlns="http://www.w3.org/2000/svg" width="127" height="100" fill="none"><path fill="#9AA6AE" d="M42 32.413A3.412 3.412 0 0 1 45.413 29h17.375a3.412 3.412 0 0 1 3.412 3.413v11.375a3.412 3.412 0 0 1-3.413 3.412H45.413A3.412 3.412 0 0 1 42 43.787V32.413ZM69.8 32.267A3.267 3.267 0 0 1 73.067 29h7.666A3.267 3.267 0 0 1 84 32.267v11.666a3.267 3.267 0 0 1-3.267 3.267h-7.666a3.267 3.267 0 0 1-3.267-3.267V32.267ZM59.8 56.067a3.267 3.267 0 0 1 3.267-3.267h17.666A3.267 3.267 0 0 1 84 56.067v11.666A3.267 3.267 0 0 1 80.733 71H63.067a3.267 3.267 0 0 1-3.267-3.267V56.067ZM42 56.267A3.267 3.267 0 0 1 45.267 53h7.666a3.267 3.267 0 0 1 3.267 3.267v11.666a3.267 3.267 0 0 1-3.267 3.267h-7.666A3.267 3.267 0 0 1 42 67.933V56.267Z"/></svg>