<svg xmlns="http://www.w3.org/2000/svg" width="989.233" height="95.686" viewBox="0 0 1000 100" preserveAspectRatio="none"><path d="M999.888 100 6.061 99.976h993.715c-.069-.053-7.914-6.078-24.548-14.972-9.785-5.233-20.662-10.427-32.327-15.44-14.583-6.264-30.448-12.264-47.155-17.833-42.526-14.167-90.7-25.641-143.171-34.1C721.418 12.6 688.377 8.6 654.37 5.722 616.963 2.56 577.46.688 536.959.159L1000 .3l-.112 99.7ZM0 99.977V0l489.308.145c-40.071.507-79.616 2.36-117.536 5.51-34.465 2.863-68.355 6.861-100.731 11.882-54.526 8.457-105.815 19.936-152.441 34.118-18.319 5.571-35.953 11.579-52.412 17.855-13.167 5.021-25.617 10.224-37 15.465C9.85 93.875.1 99.916 0 99.976Z" class="shape-fill"/></svg>