<svg xmlns="http://www.w3.org/2000/svg" width="989.233" height="95.686" viewBox="0 0 1000 100" preserveAspectRatio="none"><path d="M999.999 99.998h-1000 1000c-.512-.1-30.456-5.877-78.149-14.356-44.209-7.86-113.175-19.719-190.677-31.584-87.111-13.339-167.035-23.965-237.551-31.586-88.144-9.527-161.75-14.357-218.774-14.357s-106.957 4.83-148.414 14.357c-33.165 7.621-61.009 18.247-82.76 31.584a146.66 146.66 0 0 0-22.629 16.869A99.571 99.571 0 0 0 7.789 85.64C1.699 94.05.067 99.755-.001 99.998v-100h1000v100Z" class="shape-fill"/></svg>