<svg xmlns="http://www.w3.org/2000/svg" width="989.233" height="95.686" viewBox="0 0 1000 65.424" preserveAspectRatio="none"><path d="M680.599 65.424c-18.854 0-37.112-.206-54.267-.611a88.152 88.152 0 0 1-21.44-3.119 98.192 98.192 0 0 1-18.59-7.252c-11.612-5.874-21.816-13.48-31.685-20.836-8.84-6.589-17.186-12.81-26.051-17.477a70.735 70.735 0 0 0-13.7-5.6 53.683 53.683 0 0 0-14.867-2.105 72.439 72.439 0 0 0-32.518 7.443c-9.528 4.585-18.43 11-27.855 17.8-14.266 10.288-30.435 21.949-53.743 31.144-3.37.226-9.115.34-17.074.34-13.436 0-28.556-.326-29.193-.34-.359 0-36.314.448-74.11.448-22.1 0-40.406-.151-54.4-.448-30.185-.642-63.9-.967-100.223-.967-61.452.001-110.395.955-110.884.968V-.001h1000v64.813H735.925c-.226.006-23.183.611-55.326.612Z" class="shape-fill"/></svg>