<svg xmlns="http://www.w3.org/2000/svg" width="989.233" height="95.686" viewBox="0 0 1000.37 96.465" preserveAspectRatio="none"><path d="M.37 96.465s-9.154-80.114 63.643-76.66C115.734 50.615 180.807-.463 221.419 2.051c53.356-6.94 59.29 44.868 184.663 46.2 64.9-.048 88.414-44.025 147.425-46.2C657.97-1.793 715.059 91.141 793.67 54.965c32.631-.361 81.62-67.4 151.993-52.91 49.061 11.433 54.707 94.41 54.707 94.41H.37Z" class="shape-fill" opacity=".25"/><path d="M.37 84.465s33.141-74.852 105.937-71.4c56.246 6.38 54.891 16.755 95.5 19.269 26.379 4.216 44.016-12.566 87.8-19.269S356.87 39.4 406.593 48.497C567.8 87.752 696.699 19.15 726.923 13.065c20.529-4.827 34.012-8.314 61.441 0s85.023 55.751 85.717 57.02 115.228 5.267 120.119 14.28 6.17 11.545 6.17 11.545l-1000 .391Z" class="shape-fill" opacity=".25"/><path d="M.37 96.465s39.655-74.111 112.451-70.657c56.246 6.38 74.831 42.827 115.443 45.341 53.356-6.94 52.946-64.261 178.32-62.933 64.9-.048 155.2 65.1 214.213 62.933C725.256 67.305 849.432 8.275 906.97 8.216c73.657-.816 93.4 88.249 93.4 88.249H.37Z" class="shape-fill"/></svg>