<svg xmlns="http://www.w3.org/2000/svg" width="989.233" height="95.686" viewBox="0 0 1000 100" preserveAspectRatio="none"><path d="M1000 0c0 .007-.009.024-.031.066l-.019.04c-.141 1.747-.578 6.518-1.6 13.082a205.843 205.843 0 0 1-7.307 31.195c-4.381 13.492-9.935 24.743-16.507 33.443a61.711 61.711 0 0 1-12.81 12.82 46.746 46.746 0 0 1-16.437 7.691A96.468 96.468 0 0 1 934.85 100H1000ZM0 17.617V100h915.719c-12.994-1.321-26.152-5.288-40.226-12.13-17.812-3.815-38.818-10.108-58.865-16.342a252.03 252.03 0 0 1-8.31 5.268c-8.174 4.948-15.013 8.312-20.326 10-11.285 3.582-20.726 5.251-29.712 5.251a82.615 82.615 0 0 1-15.029-1.453c-4.951-.9-10.041-2.155-15.428-3.485h-.006l-1.265-.311c-5.52-1.164-14.115-4.431-26.01-8.952l-.015-.006-.02-.007c-8.989-3.418-20.176-7.671-32.837-12.025l-.471.244-.47.242c-14.4 7.416-31.3 15.854-49.653 22.115-19.833 6.764-38.681 10.053-57.621 10.053-2.111 0-4.237-.041-6.317-.122a109.732 109.732 0 0 1-19.816-2.549 119 119 0 0 1-17.551-5.4C504.637 86.049 494.3 80.319 484.3 74.778h-.007l-.018-.01-.451-.25q-1.438-.8-2.886-1.6A340.464 340.464 0 0 1 442.2 86.405c-13.564 3.683-25.311 5.473-35.911 5.473h-.075c-1.43.016-2.863.024-4.26.024a291.9 291.9 0 0 1-41.38-2.722 186.309 186.309 0 0 1-31.456-7.206c-.382.149-.8.31-1.249.477a86.4 86.4 0 0 1-13.118 3.84 69.265 69.265 0 0 1-14.034 1.438 72.779 72.779 0 0 1-11.479-.933c-4.9-.786-9.8-1.761-14.568-2.9-7.668 4.324-14.063 7.842-20.729 10.479a61.706 61.706 0 0 1-23.371 4.635 70.875 70.875 0 0 1-9.521-.671c-.96.063-1.967.095-2.991.095-14.39 0-31.677-6.292-49.979-12.954l-.023-.008-.394-.143-1.3-.474-2.647-.962c-4.693-1.7-9.768-3.516-15.081-5.275a209.89 209.89 0 0 1-17.548 4.278c-7.566 1.514-15.791 2.79-25.144 3.9a98.53 98.53 0 0 1-4.867.122 92.751 92.751 0 0 1-19.453-2.046 92.346 92.346 0 0 1-17.284-5.561c-.292.177-.5.3-.691.426a91.047 91.047 0 0 1-4.5.115c-20.7 0-36.343-7.48-46.5-22.233a68.408 68.408 0 0 1-9.23-20.292A102.8 102.8 0 0 1 0 17.618Z" class="shape-fill"/></svg>