<svg xmlns="http://www.w3.org/2000/svg" width="1000" height="700" fill="none"><path fill="#FCFCFF" d="M1000 0H0v700h1000V0Z"/><path fill="#888" fill-rule="evenodd" d="M561.312 497.15c0 3.283 3.736 5.168 6.377 3.217l56.312-41.603c2.151-1.59 2.166-4.802.03-6.412l-56.311-42.444c-2.636-1.986-6.408-.106-6.408 3.195v12.976a4 4 0 0 1-4 4h-32c-13.807 0-25 11.193-25 25 0-13.807-11.193-25-25-25h-32a4 4 0 0 1-4-4v-13.072c0-3.283-3.737-5.168-6.377-3.217l-56.312 41.604c-2.151 1.589-2.167 4.801-.031 6.411l56.312 42.444c2.636 1.987 6.408.106 6.408-3.194v-12.976a4 4 0 0 1 4-4H471a4 4 0 0 1 4 4V569a4 4 0 0 0 4 4h42a4 4 0 0 0 4-4v-84.921a4 4 0 0 1 4-4h28.312a4 4 0 0 1 4 4v13.071Z" clip-rule="evenodd"/><path fill="url(#a)" fill-rule="evenodd" d="M750 269H250v-25h500v25Z" clip-rule="evenodd"/><path fill="url(#b)" fill-rule="evenodd" d="M700 350H300v-15h400v15Z" clip-rule="evenodd" opacity=".4"/><path fill="#888" fill-rule="evenodd" d="M800 189H200v-50h600v50Z" clip-rule="evenodd"/><defs><linearGradient id="a" x1="500" x2="500" y1="244" y2="269" gradientUnits="userSpaceOnUse"><stop stop-color="#D5D5D5"/><stop offset="1" stop-color="#D5D5D5" stop-opacity="0"/></linearGradient><linearGradient id="b" x1="500" x2="500" y1="331" y2="370.5" gradientUnits="userSpaceOnUse"><stop stop-color="#D5D5D5" stop-opacity="0"/><stop offset=".99" stop-color="#D5D5D5"/></linearGradient></defs></svg>