<svg xmlns="http://www.w3.org/2000/svg" width="1000" height="700"><g clip-path="url(#clip-Number_Counter_-_Style_2_1)"><path fill="#fcfcff" d="M0 0h1000v700H0z"/><path fill="#d5d5d5" d="M659 238h241v218H659z"/><path fill="none" stroke="#888" stroke-width="30" d="M100 455.645h443.536"/><text fill="#888" font-family="Poppins-Bold, Poppins" font-size="169" font-weight="700" transform="translate(228 368)"><tspan x="0" y="0">245</tspan></text><path stroke="#449fdb" d="M722 292"/><path fill="#fff" d="M782 324.5a27.5 27.5 0 1 0 27.5 27.5 27.528 27.528 0 0 0-27.5-27.5Zm0 45a17.5 17.5 0 1 1 17.5-17.5 17.519 17.519 0 0 1-17.5 17.5Z"/><path fill="#fff" d="M835.272 364.316a12.425 12.425 0 0 1 0-24.628 2.5 2.5 0 0 0 2.072-3.144 57.746 57.746 0 0 0-5.256-12.752 2.515 2.515 0 0 0-3.7-.764 12.772 12.772 0 0 1-16.336-1.08 12.521 12.521 0 0 1-1.076-16.348 2.521 2.521 0 0 0 .444-2.016 2.453 2.453 0 0 0-1.22-1.668 57.033 57.033 0 0 0-12.744-5.26 2.538 2.538 0 0 0-2.048.32 2.494 2.494 0 0 0-1.1 1.744 12.421 12.421 0 0 1-24.624 0 2.5 2.5 0 0 0-3.148-2.064 57.158 57.158 0 0 0-12.736 5.26 2.483 2.483 0 0 0-1.224 1.672 2.539 2.539 0 0 0 .444 2.012 12.516 12.516 0 0 1-1.076 16.344 12.783 12.783 0 0 1-16.336 1.08 2.51 2.51 0 0 0-3.692.764 57.386 57.386 0 0 0-5.264 12.756 2.519 2.519 0 0 0 .324 2.04 2.494 2.494 0 0 0 1.748 1.1 12.424 12.424 0 0 1 0 24.628 2.5 2.5 0 0 0-2.064 3.148 57.727 57.727 0 0 0 5.256 12.748 2.5 2.5 0 0 0 3.692.772 12.758 12.758 0 0 1 16.336 1.08 12.51 12.51 0 0 1 1.076 16.34 2.542 2.542 0 0 0-.448 2.016 2.481 2.481 0 0 0 1.216 1.672 56.9 56.9 0 0 0 12.748 5.256 2.492 2.492 0 0 0 3.148-2.064 12.424 12.424 0 0 1 24.628 0 2.494 2.494 0 0 0 1.1 1.748 2.5 2.5 0 0 0 2.048.32 57.2 57.2 0 0 0 12.752-5.256 2.505 2.505 0 0 0 1.216-1.672 2.542 2.542 0 0 0-.448-2.016 12.51 12.51 0 0 1 1.08-16.336 12.763 12.763 0 0 1 16.336-1.08 2.509 2.509 0 0 0 3.7-.772 57.143 57.143 0 0 0 5.256-12.748 2.47 2.47 0 0 0-.32-2.04 2.5 2.5 0 0 0-1.756-1.108ZM782 384.5a32.5 32.5 0 1 1 32.5-32.5 32.535 32.535 0 0 1-32.5 32.5Z"/><path fill="#fff" d="M794.5 352a12.5 12.5 0 1 1-12.5-12.5 12.5 12.5 0 0 1 12.5 12.5Z"/></g></svg>