<svg xmlns="http://www.w3.org/2000/svg" width="1000" height="700" viewBox="0 0 1000 700"><defs><clipPath id="a"><path d="M0 0h1000v700H0z"/></clipPath></defs><g clip-path="url(#a)" data-name="Animated Service Boxes - Article Box"><path fill="#fcfcff" d="M0 0h1000v700H0z"/><rect width="380" height="380" fill="#f2f2f2" data-name="Rectangle 644" rx="5" transform="translate(100 150)"/><rect width="380" height="380" fill="#f2f2f2" data-name="Rectangle 645" rx="5" transform="translate(520 150)"/><path fill="#888" d="M340.633 386.738H239.368a11.684 11.684 0 0 1-11.685-11.684v-70.108a11.684 11.684 0 0 1 11.685-11.684h101.265a11.684 11.684 0 0 1 11.685 11.685v70.107a11.684 11.684 0 0 1-11.685 11.684Zm-85.686-79.844a13.632 13.632 0 1 0 13.636 13.632 13.632 13.632 0 0 0-13.636-13.632Zm-11.685 64.268h93.476v-27.267l-21.3-21.3a2.921 2.921 0 0 0-4.131 0l-32.991 32.984-13.514-13.517a2.921 2.921 0 0 0-4.131 0l-17.409 17.412Z" opacity=".399"/><path fill="#888" d="M760.633 386.738H659.368a11.684 11.684 0 0 1-11.685-11.684v-70.108a11.684 11.684 0 0 1 11.685-11.684h101.265a11.684 11.684 0 0 1 11.685 11.685v70.107a11.684 11.684 0 0 1-11.685 11.684Zm-85.686-79.844a13.632 13.632 0 1 0 13.636 13.632 13.632 13.632 0 0 0-13.636-13.632Zm-11.685 64.268h93.476v-27.267l-21.3-21.3a2.921 2.921 0 0 0-4.131 0l-32.991 32.984-13.514-13.517a2.921 2.921 0 0 0-4.131 0l-17.409 17.412Z" data-name="image" opacity=".399"/><rect width="210" height="51" fill="#888" data-name="Rectangle 646" rx="5" transform="translate(129 452)"/><rect width="284" height="187" fill="#888" data-name="Rectangle 647" rx="5" transform="translate(551 316)"/><path fill="none" stroke="#fff" stroke-width="10" d="M166.5 477.5h135" data-name="Line 142"/><path fill="none" stroke="#d5d5d5" stroke-width="8" d="M587.732 388.22h210.536" data-name="Line 1"/><path fill="none" stroke="#d5d5d5" stroke-width="8" d="M587.732 411.147h210.536" data-name="Line 2"/><path fill="none" stroke="#fff" stroke-width="10" d="M587.732 357.875h97.536" data-name="Line 6"/><path fill="none" stroke="#fff" stroke-width="25" d="M587.732 461.125h113" data-name="Line 11"/></g></svg>