<svg xmlns="http://www.w3.org/2000/svg" width="1000" height="700" viewBox="0 0 1000 700"><defs><clipPath id="a"><path d="M0 0h1000v700H0z"/></clipPath></defs><g clip-path="url(#a)" data-name="Animated Service Boxes - Fancy Box"><path fill="#fcfcff" d="M0 0h1000v700H0z"/><rect width="380" height="380" fill="#d5d5d5" data-name="Rectangle 647" rx="5" transform="translate(100 156)"/><rect width="380" height="380" fill="#f2f2f2" data-name="Rectangle 651" rx="5" transform="translate(520 156)"/><path fill="#888" d="M336.531 392.949h-93.062a10.738 10.738 0 0 1-10.738-10.735v-64.427a10.738 10.738 0 0 1 10.738-10.738h93.062a10.738 10.738 0 0 1 10.738 10.738v64.427a10.738 10.738 0 0 1-10.738 10.735Zm-78.745-73.373a12.527 12.527 0 1 0 12.527 12.528 12.527 12.527 0 0 0-12.527-12.528Zm-10.738 59.059h85.9V353.58l-19.575-19.578a2.685 2.685 0 0 0-3.8 0l-30.311 30.316-12.419-12.419a2.685 2.685 0 0 0-3.8 0l-16 16Z" opacity=".15"/><path fill="#888" d="M756.531 392.949h-93.062a10.738 10.738 0 0 1-10.738-10.735v-64.427a10.738 10.738 0 0 1 10.738-10.738h93.062a10.738 10.738 0 0 1 10.738 10.738v64.427a10.738 10.738 0 0 1-10.738 10.735Zm-78.745-73.373a12.527 12.527 0 1 0 12.527 12.528 12.527 12.527 0 0 0-12.527-12.528Zm-10.738 59.059h85.9V353.58l-19.575-19.578a2.685 2.685 0 0 0-3.8 0l-30.311 30.316-12.419-12.419a2.685 2.685 0 0 0-3.8 0l-16 16Z" data-name="image" opacity=".15"/><path fill="none" stroke="#888" stroke-width="8" d="M136.732 279.22H333.5" data-name="Line 1" opacity=".598"/><path fill="none" stroke="#888" stroke-width="8" d="M556.732 279.22H753.5" data-name="Line 146" opacity=".598"/><path fill="none" stroke="#888" stroke-width="8" d="M136.732 302.147H347.5" data-name="Line 2" opacity=".598"/><path fill="none" stroke="#888" stroke-width="8" d="M556.732 302.147H767.5" data-name="Line 147" opacity=".598"/><path fill="none" stroke="#888" stroke-width="8" d="M136.732 325.073H368.5" data-name="Line 144" opacity=".598"/><path fill="none" stroke="#888" stroke-width="8" d="M556.732 325.073H788.5" data-name="Line 148" opacity=".598"/><path fill="none" stroke="#888" stroke-width="15" d="M136.732 246.875H249.5" data-name="Line 6"/><path fill="none" stroke="#888" stroke-width="15" d="M556.732 246.875H669.5" data-name="Line 145"/><path fill="none" stroke="#888" stroke-width="25" d="M136.732 471.125h113" data-name="Line 11"/><path fill="none" stroke="#888" stroke-width="25" d="M556.732 471.125h113" data-name="Line 149"/><path fill="#888" d="M520 523h380v8a5 5 0 0 1-5 5H525a5 5 0 0 1-5-5v-8Z" data-name="Rectangle 652"/></g></svg>