<svg xmlns="http://www.w3.org/2000/svg" width="1000" height="700" viewBox="0 0 1000 700"><defs><clipPath id="a"><path d="M0 0h1000v700H0z"/></clipPath></defs><g clip-path="url(#a)" data-name="Animated Service Boxes - Hover Section"><path fill="#fcfcff" d="M0 0h1000v700H0z"/><rect width="800" height="500" fill="#f2f2f2" data-name="Rectangle 641" rx="5" transform="translate(100 100)"/><path fill="#888" d="M644 223.25h74v67h-74z" data-name="Rectangle 2"/><path fill="none" stroke="#888" stroke-width="8" d="M556.218 370.095h249.996" data-name="Line 1" opacity=".5"/><path fill="none" stroke="#888" stroke-width="8" d="M547.999 393.022H814.07" data-name="Line 2" opacity=".5"/><path fill="none" stroke="#888" stroke-width="8" d="M547.999 415.949H814.07" data-name="Line 3" opacity=".5"/><path fill="none" stroke="#888" stroke-width="10" d="M613.5 330.75h135" data-name="Line 6"/><path fill="none" stroke="#888" stroke-width="10" d="M228.5 330.75h135" data-name="Line 140"/><path fill="none" stroke="#888" stroke-width="30" d="M624.5 476.75h113" data-name="Line 11"/><path stroke="#449fdb" d="M664.629 238.168" data-name="Line 13"/><path fill="#fff" d="M697.783 253.125a.8.8 0 0 0-.7-.412h-13.116v-13.095c0-.361-.081-.676-.43-.773a.7.7 0 0 0-.822.366l-12.852 21.892a1.507 1.507 0 0 0 .015 1.125c.141.248.426.72.714.72h12.1v12.155a.8.8 0 0 0 .577.769.742.742 0 0 0 .223.031.8.8 0 0 0 .677-.374l13.6-21.592a.8.8 0 0 0 .014-.812Z" data-name="Path 217"/></g></svg>