<svg xmlns="http://www.w3.org/2000/svg" width="1000" height="700" viewBox="0 0 1000 700"><defs><clipPath id="a"><path d="M0 0h1000v700H0z"/></clipPath></defs><g clip-path="url(#a)" data-name="Animated Service Boxes - Image Accordians"><path fill="#fcfcff" d="M0 0h1000v700H0z"/><rect width="800" height="500" fill="#f2f2f2" data-name="Rectangle 635" rx="5" transform="translate(100 100)"/><rect width="215" height="500" fill="#d5d5d5" data-name="Rectangle 642" rx="5" transform="translate(470 100)"/><rect width="215" height="500" fill="#888" data-name="Rectangle 643" rx="5" transform="translate(685 100)"/><path fill="#888" d="M330.95 396.738H229.685A11.684 11.684 0 0 1 218 385.054v-70.108a11.684 11.684 0 0 1 11.685-11.684H330.95a11.684 11.684 0 0 1 11.685 11.685v70.107a11.684 11.684 0 0 1-11.685 11.684Zm-85.686-79.844a13.632 13.632 0 1 0 13.636 13.632 13.632 13.632 0 0 0-13.636-13.632Zm-11.685 64.268h93.476v-27.267l-21.3-21.3a2.921 2.921 0 0 0-4.131 0l-32.991 32.984-13.514-13.517a2.921 2.921 0 0 0-4.131 0l-17.409 17.412Z" opacity=".514"/><path fill="#888" d="M608.984 379.063h-62.968a7.266 7.266 0 0 1-7.266-7.266v-43.593a7.266 7.266 0 0 1 7.266-7.266h62.968a7.266 7.266 0 0 1 7.266 7.266v43.594a7.266 7.266 0 0 1-7.266 7.265Zm-53.281-49.648a8.477 8.477 0 1 0 8.477 8.477 8.477 8.477 0 0 0-8.477-8.477Zm-7.265 39.961h58.125v-16.954l-13.247-13.247a1.817 1.817 0 0 0-2.569 0l-20.513 20.513-8.4-8.4a1.817 1.817 0 0 0-2.569 0l-10.827 10.822Z" data-name="image" opacity=".514"/><path fill="#f2f2f2" d="M823.984 379.063h-62.968a7.266 7.266 0 0 1-7.266-7.266v-43.593a7.266 7.266 0 0 1 7.266-7.266h62.968a7.266 7.266 0 0 1 7.266 7.266v43.594a7.266 7.266 0 0 1-7.266 7.265Zm-53.281-49.648a8.477 8.477 0 1 0 8.477 8.477 8.477 8.477 0 0 0-8.477-8.477Zm-7.265 39.961h58.125v-16.954l-13.247-13.247a1.817 1.817 0 0 0-2.569 0l-20.513 20.513-8.4-8.4a1.817 1.817 0 0 0-2.569 0l-10.827 10.822Z" data-name="image" opacity=".506"/><path fill="none" stroke="#888" stroke-width="15" d="M133.5 143.75h85" data-name="Line 141" opacity=".7"/></g></svg>