<svg xmlns="http://www.w3.org/2000/svg" width="1000" height="700" viewBox="0 0 1000 700"><defs><clipPath id="a"><path d="M0 0h1000v700H0z"/></clipPath></defs><g clip-path="url(#a)" data-name="Animated Service Boxes - Info Banner"><path fill="#fcfcff" d="M0 0h1000v700H0z"/><rect width="380" height="380" fill="#f2f2f2" data-name="Rectangle 648" rx="5" transform="translate(100 160)"/><rect width="380" height="380" fill="#888" data-name="Rectangle 649" rx="5" transform="translate(520 160)"/><path fill="#888" d="M252.783 271.375h74v67h-74z" data-name="Rectangle 2"/><path fill="none" stroke="#888" stroke-width="8" d="M214.5 428.625h151" data-name="Line 1" opacity=".6"/><path fill="none" stroke="#888" stroke-width="15" d="M190.5 388.625h199" data-name="Line 6"/><path stroke="#449fdb" d="M273.412 286.293" data-name="Line 13"/><path fill="#fff" d="M306.566 301.25a.8.8 0 0 0-.7-.412H292.75v-13.095c0-.361-.081-.676-.43-.773a.7.7 0 0 0-.822.366l-12.852 21.892a1.507 1.507 0 0 0 .015 1.125c.141.248.426.72.714.72h12.1v12.155a.8.8 0 0 0 .577.769.742.742 0 0 0 .223.031.8.8 0 0 0 .677-.374l13.6-21.592a.8.8 0 0 0 .014-.812Z" data-name="Path 217"/><path fill="none" stroke="#fff" stroke-width="8" d="M608.5 277.563h203" data-name="Line 1" opacity=".5"/><path fill="none" stroke="#fff" stroke-width="8" d="M586.5 300.563h247" data-name="Line 2" opacity=".5"/><path fill="none" stroke="#fff" stroke-width="8" d="M576.964 323.589h266.071" data-name="Line 3" opacity=".5"/><rect width="198.875" height="48.375" fill="#fff" data-name="Rectangle 650" rx="5" transform="translate(610.563 374.063)"/><path fill="none" stroke="#888" stroke-width="10" d="M645.981 398.147h127.506" data-name="Line 143"/></g></svg>