<svg xmlns="http://www.w3.org/2000/svg" width="1000" height="700" viewBox="0 0 1000 700"><defs><clipPath id="a"><path d="M0 0h1000v700H0z"/></clipPath></defs><g clip-path="url(#a)" data-name="Animated Service Boxes - Portfolio"><path fill="#fcfcff" d="M0 0h1000v700H0z"/><rect width="380" height="276" fill="#f2f2f2" data-name="Rectangle 644" rx="5" transform="translate(100 151)"/><rect width="380" height="398" fill="#d5d5d5" data-name="Rectangle 655" rx="5" transform="translate(520 151)"/><path fill="#888" d="M157.464 204.114h74v67h-74z" data-name="Rectangle 2"/><path fill="#888" d="M577.464 204.114h74v67h-74z" data-name="Rectangle 656"/><path fill="none" stroke="#888" stroke-width="8" d="M156.964 350.959H406.96" data-name="Line 1" opacity=".5"/><path fill="none" stroke="#888" stroke-width="8" d="M576.964 350.959H826.96" data-name="Line 154" opacity=".5"/><path fill="none" stroke="#888" stroke-width="8" d="M577.464 447.092H774.5" data-name="Line 156"/><path fill="none" stroke="#888" stroke-width="8" d="M577.464 503.092h218.202" data-name="Line 157"/><path fill="none" stroke="#888" stroke-width="8" d="M156.964 373.886h266.071" data-name="Line 2" opacity=".5"/><path fill="none" stroke="#888" stroke-width="8" d="M576.964 373.886h266.071" data-name="Line 155" opacity=".5"/><path fill="none" stroke="#888" stroke-width="10" d="M156.964 311.614h135" data-name="Line 6"/><path fill="none" stroke="#888" stroke-width="10" d="M576.964 311.614h135" data-name="Line 153"/><path stroke="#449fdb" d="M177.838 218.747" data-name="Line 13"/><path fill="#fff" d="M210.992 233.704a.8.8 0 0 0-.7-.412h-13.116v-13.095c0-.361-.081-.676-.43-.773a.7.7 0 0 0-.822.366l-12.852 21.892a1.507 1.507 0 0 0 .015 1.125c.141.248.426.72.714.72h12.1v12.155a.8.8 0 0 0 .577.769.742.742 0 0 0 .223.031.8.8 0 0 0 .677-.374l13.6-21.592a.8.8 0 0 0 .014-.812Z" data-name="Path 217"/><g data-name="Flash"><g data-name="icomoon-ignore"><path stroke="#449fdb" d="M597.838 218.747" data-name="Line 13"/></g><path fill="#fff" d="M630.992 233.704a.8.8 0 0 0-.7-.412h-13.116v-13.095c0-.361-.081-.676-.43-.773a.7.7 0 0 0-.822.366l-12.852 21.892a1.507 1.507 0 0 0 .015 1.125c.141.248.426.72.714.72h12.1v12.155a.8.8 0 0 0 .577.769.742.742 0 0 0 .223.031.8.8 0 0 0 .677-.374l13.6-21.592a.8.8 0 0 0 .014-.812Z" data-name="Path 217"/></g><path fill="none" stroke="#a5a5a5" d="M577.464 475.092h265.071" data-name="Line 158"/><path fill="none" stroke="#a5a5a5" d="M577.464 419.092h265.071" data-name="Line 159"/></g></svg>