<svg xmlns="http://www.w3.org/2000/svg" width="1000" height="700" viewBox="0 0 1000 700"><defs><clipPath id="a"><path d="M0 0h1000v700H0z"/></clipPath></defs><g clip-path="url(#a)" data-name="Animated Service Boxes - Services Elements"><path fill="#fcfcff" d="M0 0h1000v700H0z"/><rect width="800" height="500" fill="#f2f2f2" data-name="Rectangle 641" rx="5" transform="translate(100 100)"/><path fill="#888" d="M707.397 541.443H292.603a47.86 47.86 0 0 1-47.861-47.861V206.417a47.86 47.86 0 0 1 47.861-47.861h414.794a47.86 47.86 0 0 1 47.861 47.861v287.165a47.86 47.86 0 0 1-47.861 47.861Zm-350.98-327.049a55.838 55.838 0 1 0 55.838 55.838 55.838 55.838 0 0 0-55.838-55.838Zm-47.861 263.235h382.886V365.956l-87.26-87.264a11.966 11.966 0 0 0-16.922 0L452.142 413.814l-55.357-55.358a11.966 11.966 0 0 0-16.922 0l-71.307 71.312Z" opacity=".083"/><path fill="none" stroke="#b1b1b1" stroke-width="20" d="M413.5 258.5h173" data-name="Line 140"/><path fill="none" stroke="#525252" stroke-width="20" d="M365.5 319.5h269" data-name="Line 150"/><path fill="none" stroke="#b1b1b1" stroke-width="20" d="M397 380.5h206" data-name="Line 151"/><path fill="none" stroke="#b1b1b1" stroke-width="20" d="M380.5 441.5h239" data-name="Line 152"/></g></svg>