<svg xmlns="http://www.w3.org/2000/svg" width="1000" height="700" viewBox="0 0 1000 700"><defs><clipPath id="a"><path d="M0 0h1000v700H0z"/></clipPath></defs><g clip-path="url(#a)" data-name="Animated Service Boxes - Sliding Boxes"><path fill="#fcfcff" d="M0 0h1000v700H0z"/><rect width="259" height="248" fill="#f2f2f2" data-name="Rectangle 644" rx="5" transform="translate(100 226)"/><path fill="#f2f2f2" d="M381 226h260v248H381a5 5 0 0 1-5-5V231a5 5 0 0 1 5-5Z" data-name="Rectangle 653"/><path fill="#d5d5d5" d="M641 226h254a5 5 0 0 1 5 5v238a5 5 0 0 1-5 5H641V226Z" data-name="Rectangle 654"/><path fill="#888" d="M261.147 379.88H197.36a7.36 7.36 0 0 1-7.36-7.36v-44.16a7.36 7.36 0 0 1 7.36-7.36h63.787a7.36 7.36 0 0 1 7.36 7.36v44.16a7.36 7.36 0 0 1-7.36 7.36Zm-53.974-50.293a8.587 8.587 0 1 0 8.587 8.587 8.587 8.587 0 0 0-8.587-8.587Zm-7.36 40.48h58.88v-17.174l-13.418-13.419a1.84 1.84 0 0 0-2.6 0l-20.782 20.779-8.512-8.512a1.84 1.84 0 0 0-2.6 0l-10.968 10.966Z" opacity=".399"/><path fill="#888" d="M540.147 379.88H476.36a7.36 7.36 0 0 1-7.36-7.36v-44.16a7.36 7.36 0 0 1 7.36-7.36h63.787a7.36 7.36 0 0 1 7.36 7.36v44.16a7.36 7.36 0 0 1-7.36 7.36Zm-53.974-50.293a8.587 8.587 0 1 0 8.587 8.587 8.587 8.587 0 0 0-8.587-8.587Zm-7.36 40.48h58.88v-17.174l-13.418-13.419a1.84 1.84 0 0 0-2.6 0l-20.782 20.779-8.512-8.512a1.84 1.84 0 0 0-2.6 0l-10.968 10.966Z" data-name="image" opacity=".399"/><path fill="none" stroke="#888" stroke-width="8" d="M689.464 328.72H872.31" data-name="Line 1" opacity=".503"/><path fill="none" stroke="#888" stroke-width="8" d="M689.464 351.647H872.31" data-name="Line 2" opacity=".503"/><path fill="none" stroke="#888" stroke-width="10" d="M689.464 298.375H787" data-name="Line 6"/><path fill="none" stroke="#888" stroke-width="25" d="M689.464 401.625h113" data-name="Line 11"/></g></svg>