<svg xmlns="http://www.w3.org/2000/svg" width="1000" height="700" viewBox="0 0 1000 700"><defs><clipPath id="a"><path d="M0 0h1000v700H0z"/></clipPath></defs><g clip-path="url(#a)" data-name="Media Listing - Style 2"><path fill="#fcfcff" d="M0 0h1000v700H0z"/><rect width="800" height="500" fill="#d5d5d5" data-name="Rectangle 628" rx="5" transform="translate(100 100)"/><path fill="#888" d="M100 430h800v165a5 5 0 0 1-5 5H105a5 5 0 0 1-5-5V430Z" data-name="Rectangle 629"/><path fill="none" stroke="#f2f2f2" stroke-width="25" d="M153 514.629h364.5" data-name="Line 16"/><path fill="#888" d="M611.37 374H387.8a25.8 25.8 0 0 1-25.8-25.797V193.425a25.8 25.8 0 0 1 25.8-25.8h223.57a25.8 25.8 0 0 1 25.8 25.8v154.778A25.8 25.8 0 0 1 611.37 374ZM422.193 197.725a30.1 30.1 0 1 0 30.1 30.1 30.1 30.1 0 0 0-30.1-30.1ZM396.4 339.604h206.371v-60.193l-47.034-47.034a6.45 6.45 0 0 0-9.121 0l-72.83 72.83-29.835-29.834a6.45 6.45 0 0 0-9.121 0l-38.43 38.434Z" opacity=".125"/><path fill="#fff" d="M511.243 256v7.5a2.82 2.82 0 0 1-2.812 2.812h-13.124v13.119a2.82 2.82 0 0 1-2.812 2.812H485a2.82 2.82 0 0 1-2.812-2.812v-13.124H469.06a2.82 2.82 0 0 1-2.812-2.812V256a2.82 2.82 0 0 1 2.812-2.812h13.123V240.06a2.82 2.82 0 0 1 2.817-2.813h7.5a2.82 2.82 0 0 1 2.812 2.812v13.124h13.119a2.82 2.82 0 0 1 2.812 2.817Zm47.1 66.72-6.632 6.632a5.6 5.6 0 0 1-7.945 0l-23.383-23.369a5.62 5.62 0 0 1-1.641-3.983v-3.82a48.723 48.723 0 1 1 8.437-8.437H531a5.62 5.62 0 0 1 3.984 1.64l23.365 23.365a5.672 5.672 0 0 1-.001 7.968Zm-37.726-62.975a31.872 31.872 0 1 0-31.872 31.872 31.845 31.845 0 0 0 31.872-31.872Z"/></g></svg>