<svg xmlns="http://www.w3.org/2000/svg" width="1000" height="700" viewBox="0 0 1000 700"><defs><clipPath id="a"><path d="M0 0h1000v700H0z"/></clipPath></defs><g clip-path="url(#a)" data-name="Media Listing - Style 3"><path fill="#fcfcff" d="M0 0h1000v700H0z"/><rect width="800" height="500" fill="#d5d5d5" data-name="Rectangle 628" rx="5" transform="translate(100 100)"/><path fill="#888" d="M629.644 470H369.963A29.963 29.963 0 0 1 340 440.037V260.258a29.963 29.963 0 0 1 29.963-29.963h259.68a29.963 29.963 0 0 1 29.963 29.963v179.779A29.963 29.963 0 0 1 629.644 470Zm-219.73-204.748a34.957 34.957 0 1 0 34.957 34.957 34.957 34.957 0 0 0-34.957-34.957Zm-29.963 164.8h239.705v-69.917l-54.63-54.63a7.491 7.491 0 0 0-10.594 0l-84.592 84.59-34.654-34.651a7.491 7.491 0 0 0-10.594 0l-44.641 44.642Z" opacity=".499"/><rect width="800" height="500" fill="#888" data-name="Rectangle 630" opacity=".618" rx="5" transform="translate(100 100)"/><path fill="none" stroke="#fff" stroke-width="25" d="M318.5 448.5h363" data-name="Line 16"/><path fill="#fff" d="M511.243 297v7.5a2.82 2.82 0 0 1-2.812 2.812h-13.124v13.119a2.82 2.82 0 0 1-2.812 2.812H485a2.82 2.82 0 0 1-2.812-2.812v-13.124H469.06a2.82 2.82 0 0 1-2.812-2.812V297a2.82 2.82 0 0 1 2.812-2.812h13.123V281.06a2.82 2.82 0 0 1 2.817-2.813h7.5a2.82 2.82 0 0 1 2.812 2.812v13.124h13.119a2.82 2.82 0 0 1 2.812 2.817Zm47.1 66.72-6.632 6.632a5.6 5.6 0 0 1-7.945 0l-23.383-23.369a5.62 5.62 0 0 1-1.641-3.983v-3.82a48.723 48.723 0 1 1 8.437-8.437H531a5.62 5.62 0 0 1 3.984 1.64l23.365 23.365a5.672 5.672 0 0 1-.001 7.968Zm-37.726-62.975a31.872 31.872 0 1 0-31.872 31.872 31.845 31.845 0 0 0 31.872-31.872Z"/></g></svg>