<svg xmlns="http://www.w3.org/2000/svg" width="1000" height="700" viewBox="0 0 1000 700"><defs><clipPath id="a"><path d="M0 0h1000v700H0z"/></clipPath></defs><g clip-path="url(#a)" data-name="Media Listing - Style 4"><path fill="#fcfcff" d="M0 0h1000v700H0z"/><rect width="448" height="337" fill="#d5d5d5" data-name="Rectangle 628" rx="5" transform="translate(276 121)"/><path fill="none" stroke="#888" stroke-width="25" d="M373.5 523.5h253" data-name="Line 16"/><path fill="none" stroke="#d5d5d5" stroke-width="25" d="M318 578.629h364.5" data-name="Line 116"/><path fill="#888" d="M589.977 372.125h-179.29A20.687 20.687 0 0 1 390 351.436V227.312a20.687 20.687 0 0 1 20.687-20.687h179.29a20.687 20.687 0 0 1 20.687 20.687v124.124a20.687 20.687 0 0 1-20.687 20.689ZM438.27 230.76a24.135 24.135 0 1 0 24.135 24.135 24.135 24.135 0 0 0-24.135-24.135Zm-20.687 113.78h165.5v-48.27l-37.718-37.718a5.172 5.172 0 0 0-7.314 0l-58.4 58.4-23.932-23.921a5.172 5.172 0 0 0-7.314 0l-30.822 30.822Z" opacity=".298"/></g></svg>