<svg xmlns="http://www.w3.org/2000/svg" width="127" height="100" fill="none" viewBox="0 0 127 100"><rect width="16" height="16" x="55" y="42" fill="#9AA6AE" rx="8"/><rect width="16" height="16" x="55" y="69" fill="#9AA6AE" opacity=".4" rx="8"/><rect width="16" height="16" x="55" y="15" fill="#9AA6AE" opacity=".4" rx="8"/><rect width="16" height="16" x="42.545" y="52.57" fill="#9AA6AE" opacity=".4" rx="8" transform="rotate(60 42.545 52.57)"/><rect width="16" height="16" x="89.311" y="25.57" fill="#9AA6AE" opacity=".4" rx="8" transform="rotate(60 89.31 25.57)"/><rect width="16" height="16" x="75.454" y="66.43" fill="#9AA6AE" opacity=".4" rx="8" transform="rotate(-60 75.454 66.43)"/><rect width="16" height="16" x="28.689" y="39.43" fill="#9AA6AE" opacity=".4" rx="8" transform="rotate(-60 28.69 39.43)"/><path fill="#010101" d="M63.937 53.756h-1.875a.312.312 0 0 1-.312-.312v-2.5a.938.938 0 0 1 .937-.938h.625a.938.938 0 0 1 .938.938v2.5a.313.313 0 0 1-.313.312ZM59.425 49.38l-.35-.525 3.575-2.428a.625.625 0 0 1 .697 0l3.575 2.384-.344.519L63 46.945l-3.575 2.435Z"/><path fill="#010101" d="M65.187 53.756h-4.375a.938.938 0 0 1-.937-.937v-4.375h.625v4.375a.313.313 0 0 0 .312.312h4.375a.313.313 0 0 0 .313-.312v-4.375h.625v4.375a.937.937 0 0 1-.938.937Z"/><path fill="#000" fill-rule="evenodd" d="M72.73 49.377c-.32-5.095-4.555-9.127-9.73-9.127v-.5c5.464 0 9.93 4.275 10.234 9.663l1.18-1.18a.25.25 0 0 1 .354.353l-1.591 1.59a.25.25 0 0 1-.354 0l-1.59-1.59a.25.25 0 0 1 .353-.354l1.144 1.145ZM53.27 50.623c.32 5.095 4.554 9.127 9.73 9.127v.5c-5.464 0-9.93-4.275-10.233-9.663l-1.181 1.18a.25.25 0 0 1-.354-.353l1.591-1.59a.25.25 0 0 1 .354 0l1.59 1.59a.25.25 0 0 1-.353.354l-1.144-1.145Z" clip-rule="evenodd"/></svg>