<svg xmlns="http://www.w3.org/2000/svg" width="1000" height="700" viewBox="0 0 1000 700"><defs><clipPath id="a"><path d="M0 0h1000v700H0z"/></clipPath></defs><g clip-path="url(#a)" data-name="Timeline - Style 2"><path fill="#fcfcff" d="M0 0h1000v700H0z"/><g fill="#d5d5d5" stroke="#d5d5d5" data-name="Rectangle 622"><path stroke="none" d="M189 166h226v164H189z"/><path fill="none" d="M189.5 166.5h225v163h-225z"/></g><g fill="#d5d5d5" stroke="#d5d5d5" data-name="Rectangle 623"><path stroke="none" d="M585.934 425h226v164h-226z"/><path fill="none" d="M586.434 425.5h225v163h-225z"/></g><g fill="#888" stroke="#888" stroke-width="5" data-name="Ellipse 298" transform="translate(487 574)"><circle cx="13" cy="13" r="13" stroke="none"/><circle cx="13" cy="13" r="10.5" fill="none"/></g><path fill="#888" d="M777.21 166.001a5 5 0 0 1 5 5v56.5a5 5 0 0 1-5 5H584.952a5 5 0 0 1-5-5v-15.352l-15.331-12 15.331-13.02v-16.128a5 5 0 0 1 5-5Z" data-name="Union 25"/><text fill="#fff" data-name="26-6-2018" font-family="Roboto-Medium, Roboto" font-size="35" font-weight="500" transform="translate(600 213)"><tspan x="0" y="0">26-6-2018</tspan></text><g data-name="Notification"><path fill="#888" d="M416.21 439.001a5 5 0 0 1 5 5v16.176l15.274 12.968-15.274 11.956v15.4a5 5 0 0 1-5 5H223.952a5 5 0 0 1-5-5v-56.5a5 5 0 0 1 5-5Z" data-name="Union 25"/><text fill="#fff" data-name="26-6-2018" font-family="Roboto-Medium, Roboto" font-size="35" font-weight="500" transform="translate(239 486)"><tspan x="0" y="0">26-6-2018</tspan></text></g><path fill="none" stroke="#888" stroke-width="5" d="M500.5 129.5v464" data-name="Line 98"/><path fill="none" stroke="#f2f2f2" stroke-width="8" d="M209.425 271.61h184.831" data-name="Line 1"/><path fill="none" stroke="#f2f2f2" stroke-width="8" d="M791.508 530.609H606.677" data-name="Line 107"/><path fill="none" stroke="#f2f2f2" stroke-width="8" d="M248.988 290.287h145.565" data-name="Line 2"/><path fill="none" stroke="#f2f2f2" stroke-width="8" d="M751.946 549.287H606.381" data-name="Line 108"/><path fill="none" stroke="#888" stroke-width="15" d="M258.14 205.289h136.492" data-name="Line 5"/><path fill="none" stroke="#888" stroke-width="15" d="M742.793 464.289H606.301" data-name="Line 105"/><g fill="#d5d5d5" stroke="#d5d5d5" stroke-width="5" data-name="Ellipse 294" transform="translate(461 161)"><circle cx="39.5" cy="39.5" r="39.5" stroke="none"/><circle cx="39.5" cy="39.5" r="37" fill="none"/></g><g fill="#d5d5d5" stroke="#d5d5d5" stroke-width="5" data-name="Ellipse 296" transform="translate(461 425)"><circle cx="39.5" cy="39.5" r="39.5" stroke="none"/><circle cx="39.5" cy="39.5" r="37" fill="none"/></g><path fill="#888" d="M511.002 214.095h-7.988a.445.445 0 0 1-.444-.444v-7.541h-4.436v7.541a.444.444 0 0 1-.444.444h-7.988a.444.444 0 0 1-.444-.444V199.9h-1.913a.443.443 0 0 1-.295-.775l12.714-11.311a.445.445 0 0 1 .576-.012l3.117 2.559v-2.437a.444.444 0 0 1 .445-.444h4.436a.444.444 0 0 1 .444.444v7.018l4.378 4.194a.443.443 0 0 1-.307.764h-1.411v13.751a.444.444 0 0 1-.44.444Z" data-name="Path 7084"/><g data-name="Home"><path fill="#888" d="M511.002 478.095h-7.988a.445.445 0 0 1-.444-.444v-7.541h-4.436v7.541a.444.444 0 0 1-.444.444h-7.988a.444.444 0 0 1-.444-.444V463.9h-1.913a.443.443 0 0 1-.295-.775l12.714-11.311a.445.445 0 0 1 .576-.012l3.117 2.559v-2.437a.444.444 0 0 1 .445-.444h4.436a.444.444 0 0 1 .444.444v7.018l4.378 4.194a.443.443 0 0 1-.307.764h-1.411v13.751a.444.444 0 0 1-.44.444Z" data-name="Path 7084"/></g><path fill="#888" d="m499.791 117.848-7.61-7.548a.618.618 0 0 1 0-.874l1.018-1.018a.618.618 0 0 1 .874 0l6.152 6.093 6.155-6.093a.618.618 0 0 1 .874 0l1.021 1.017a.618.618 0 0 1 0 .874l-7.61 7.549a.618.618 0 0 1-.874 0Zm.874-8.223 7.61-7.548a.618.618 0 0 0 0-.874l-1.018-1.018a.618.618 0 0 0-.874 0l-6.158 6.089-6.152-6.093a.618.618 0 0 0-.874 0l-1.018 1.018a.618.618 0 0 0 0 .874l7.61 7.552a.618.618 0 0 0 .874 0Z"/><path fill="#f2f2f2" d="m494.291 584.47 5.46 2.476a.6.6 0 0 0 .5 0l5.459-2.477a.524.524 0 0 0 0-.938l-5.46-2.476a.6.6 0 0 0-.5 0l-5.459 2.476a.524.524 0 0 0 0 .939Zm11.418 2.069-1.361-.617-3.789 1.717a1.351 1.351 0 0 1-1.118 0l-3.788-1.717-1.362.617a.523.523 0 0 0 0 .937l5.46 2.475a.6.6 0 0 0 .5 0l5.46-2.475a.523.523 0 0 0 0-.937Zm0 3-1.356-.62-3.794 1.72a1.351 1.351 0 0 1-1.118 0l-3.793-1.72-1.357.615a.523.523 0 0 0 0 .937l5.459 2.475a.6.6 0 0 0 .5 0l5.46-2.475a.523.523 0 0 0-.001-.937Z"/><path fill="none" stroke="#f2f2f2" stroke-width="2" d="M334.805 241.845h59.036" data-name="Line 104"/><path fill="none" stroke="#f2f2f2" stroke-width="2" d="M666.129 500.845h-59.036" data-name="Line 106"/><g fill="#d5d5d5" data-name="Path 7106"><path d="M414.43 215.2v-17.542h24.925l-24.925 17.543Z"/><path d="M437.776 198.158H414.93v16.08l22.846-16.08m3.158-1-27.004 19.006v-19.006h27.004Z"/></g><g fill="#d5d5d5" data-name="Path 7107"><path d="M561.58 456.658h24.924v17.543l-24.925-17.543Z"/><path d="m563.158 457.158 22.846 16.08v-16.08h-22.846m-3.158-1h27.004v19.006L560 456.158Z"/></g></g></svg>