<svg xmlns="http://www.w3.org/2000/svg" width="1000" height="700" viewBox="0 0 1000 700"><defs><clipPath id="a"><path d="M0 0h1000v700H0z"/></clipPath></defs><g clip-path="url(#a)" data-name="Pin Center Style 1"><path fill="#fcfcff" d="M0 0h1000v700H0z"/><g fill="#888" stroke="#888" stroke-width="5" data-name="Ellipse 298" transform="translate(483 566)"><circle cx="17" cy="17" r="17" stroke="none"/><circle cx="17" cy="17" r="14.5" fill="none"/></g><path fill="none" stroke="#888" stroke-width="5" d="M500.5 137.5v456" data-name="Line 98"/><path fill="#888" d="m499.748 129.203-12.451-12.35a1.01 1.01 0 0 1 0-1.43l1.666-1.666a1.01 1.01 0 0 1 1.43 0l10.07 9.969 10.07-9.969a1.01 1.01 0 0 1 1.43 0l1.662 1.668a1.01 1.01 0 0 1 0 1.43l-12.451 12.35a1.01 1.01 0 0 1-1.426-.002Zm1.43-13.461 12.447-12.35a1.01 1.01 0 0 0 0-1.43l-1.666-1.666a1.01 1.01 0 0 0-1.43 0l-10.07 9.969-10.067-9.968a1.01 1.01 0 0 0-1.43 0l-1.665 1.665a1.01 1.01 0 0 0 0 1.43l12.451 12.35a1.01 1.01 0 0 0 1.43.001Z"/><path fill="#f2f2f2" d="m492.59 579.573 7.18 3.258a.789.789 0 0 0 .656 0l7.184-3.258a.689.689 0 0 0 0-1.234l-7.183-3.257a.789.789 0 0 0-.656 0l-7.181 3.257a.689.689 0 0 0 0 1.234Zm15.02 2.722-1.791-.812-4.985 2.259a1.777 1.777 0 0 1-1.471 0l-4.982-2.259-1.791.812a.688.688 0 0 0 0 1.233l7.18 3.255a.792.792 0 0 0 .656 0l7.184-3.255a.688.688 0 0 0 0-1.233Zm0 3.939-1.784-.809-4.992 2.262a1.777 1.777 0 0 1-1.471 0l-4.989-2.262-1.784.809a.688.688 0 0 0 0 1.233l7.18 3.251a.792.792 0 0 0 .656 0l7.184-3.251a.688.688 0 0 0 0-1.233Z"/><g fill="#d5d5d5" stroke="#d5d5d5" stroke-width="5" data-name="Ellipse 294" transform="translate(427 277)"><circle cx="73" cy="73" r="73" stroke="none"/><circle cx="73" cy="73" r="70.5" fill="none"/></g><path fill="#888" d="M525.002 380.539h-18.346a1.022 1.022 0 0 1-1.022-1.019v-17.327h-10.19v17.327a1.021 1.021 0 0 1-1.019 1.019h-18.346a1.021 1.021 0 0 1-1.019-1.019v-31.6h-4.407a1.019 1.019 0 0 1-.677-1.782l29.213-25.986a1.022 1.022 0 0 1 1.323-.026l7.163 5.879v-5.6a1.021 1.021 0 0 1 1.019-1.019h10.192a1.02 1.02 0 0 1 1.019 1.019v16.126l10.06 9.638a1.019 1.019 0 0 1-.705 1.755h-3.239v31.6a1.021 1.021 0 0 1-1.019 1.015Z" data-name="Path 7084"/></g></svg>