<svg xmlns="http://www.w3.org/2000/svg" width="1000" height="700" viewBox="0 0 1000 700"><defs><clipPath id="a"><path d="M0 0h1000v700H0z"/></clipPath></defs><g clip-path="url(#a)"><path fill="#fcfcff" d="M0 0h1000v700H0z"/><g fill="#d5d5d5" stroke="#d5d5d5"><path stroke="none" d="M223 251h166v30H223z"/><path fill="none" d="M223.5 251.5h165v29h-165z"/></g><g fill="#888" stroke="#888"><path stroke="none" d="M303 141h326v30H303z"/><path fill="none" d="M303.5 141.5h325v29h-325z"/></g><g fill="#d5d5d5" stroke="#d5d5d5"><path stroke="none" d="M276 411h166v30H276z"/><path fill="none" d="M276.5 411.5h165v29h-165z"/></g><g fill="#d5d5d5" stroke="#d5d5d5"><path stroke="none" d="M223 334h166v30H223z"/><path fill="none" d="M223.5 334.5h165v29h-165z"/></g><g fill="#888" stroke="#888"><path stroke="none" d="M276 488h166v30H276z"/><path fill="none" d="M276.5 488.5h165v29h-165z"/></g><g fill="#d5d5d5" stroke="#d5d5d5"><path stroke="none" d="M223 570h166v30H223z"/><path fill="none" d="M223.5 570.5h165v29h-165z"/></g><g fill="#888"><path d="M229.359 100h-1.471a5.893 5.893 0 0 0-5.888 5.888v58.876a5.893 5.893 0 0 0 5.888 5.888h1.472a1.471 1.471 0 0 0 1.472-1.472v-67.708a1.471 1.471 0 0 0-1.473-1.472ZM269.101 100h-33.859a1.471 1.471 0 0 0-1.472 1.472v67.707a1.471 1.471 0 0 0 1.472 1.472h33.854a5.894 5.894 0 0 0 5.888-5.888v-58.875a5.893 5.893 0 0 0-5.883-5.888Zm-8.831 22.079a1.467 1.467 0 0 1-.907 1.36 1.492 1.492 0 0 1-1.605-.319l-3.806-3.806a1.471 1.471 0 0 0-2.081 0l-3.806 3.806a1.486 1.486 0 0 1-1.6.319 1.467 1.467 0 0 1-.908-1.36v-19.135h14.719v19.135Z"/></g><path fill="none" stroke="#707070" stroke-width="5" d="M222.5 210.5h556"/><path fill="none" stroke="#707070" stroke-width="10" d="m732.378 144.35 22.9 19.623 21.075-19.623"/><g fill="#d5d5d5" stroke="#d5d5d5" transform="translate(223 399)"><rect width="9" height="131" stroke="none" rx="4.5"/><rect width="8" height="130" x=".5" y=".5" fill="none" rx="4"/></g><g fill="#888" stroke="#888" transform="translate(221 476)"><rect width="13" height="54" stroke="none" rx="6.5"/><rect width="12" height="53" x=".5" y=".5" fill="none" rx="6"/></g></g></svg>