<svg xmlns="http://www.w3.org/2000/svg" width="1000" height="700"><g clip-path="url(#clip-Pricing_List_-_Classic_Style)"><path fill="#fcfcff" d="M0 0h1000v700H0z"/><path fill="#d5d5d5" d="M100 182h161v146H100z"/><path fill="none" stroke="#d5d5d5" stroke-width="8" d="M317.5 344.201h547.472M317.5 378.893h582.676M317.5 413.586h582.676M317.5 483.404h582.676M317.5 448.277h524.693M317.5 518.098h524.693"/><path fill="none" stroke="#d5d5d5" stroke-width="15" d="M317.5 200.246h241"/><path fill="none" stroke="#888" stroke-width="25" d="M317.5 257.336h308"/><path stroke="#449fdb" d="M135 214"/><path fill="#fff" d="M206.838 246.794a1.73 1.73 0 0 0-1.513-.891h-28.352v-28.308c0-.78-.174-1.461-.929-1.671a1.509 1.509 0 0 0-1.77.791l-27.792 47.325a3.257 3.257 0 0 0 .033 2.431c.3.537.921 1.557 1.543 1.557h26.149v26.279a1.739 1.739 0 0 0 1.248 1.662 1.6 1.6 0 0 0 .481.066 1.728 1.728 0 0 0 1.463-.808l29.39-46.678a1.729 1.729 0 0 0 .05-1.756Z"/><text fill="#888" font-family="Poppins-Bold, Poppins" font-size="57" font-weight="700" transform="translate(729 273)"><tspan x="0" y="0">$ 0.00</tspan></text></g></svg>