<svg xmlns="http://www.w3.org/2000/svg" width="1000" height="700"><defs><clipPath id="a"><path d="M0 0h1000v700H0z"/></clipPath></defs><g clip-path="url(#a)" data-name="Blog Listing - Style 1"><path fill="#fcfcff" d="M0 0h1000v700H0z"/><rect width="800" height="500" fill="#d5d5d5" data-name="Rectangle 628" rx="5" transform="translate(100 100)"/><path fill="#888" d="M100 430h800v165a5 5 0 0 1-5 5H105a5 5 0 0 1-5-5V430Z" data-name="Rectangle 629"/><path fill="none" stroke="#f2f2f2" stroke-width="15" d="M152 547.629h273.5" data-name="Line 16"/><path fill="none" stroke="#f2f2f2" stroke-width="10" d="M470 491.629h96.5" data-name="Line 112"/><path fill="none" stroke="#fff" stroke-width="2" d="M445.5 477.5v39" data-name="Line 111"/><path fill="#888" d="M611.37 374H387.8a25.8 25.8 0 0 1-25.8-25.797V193.425a25.8 25.8 0 0 1 25.8-25.8h223.57a25.8 25.8 0 0 1 25.8 25.8v154.778A25.8 25.8 0 0 1 611.37 374ZM422.193 197.725a30.1 30.1 0 1 0 30.1 30.1 30.1 30.1 0 0 0-30.1-30.1ZM396.4 339.604h206.371v-60.193l-47.034-47.034a6.45 6.45 0 0 0-9.121 0l-72.83 72.83-29.835-29.834a6.45 6.45 0 0 0-9.121 0l-38.43 38.434Z" opacity=".207"/><text fill="#fff" data-name="October 16, 2018" font-family="Roboto-Medium, Roboto" font-size="35" font-weight="500" transform="translate(152 506)"><tspan x="0" y="0">October 16, 2018</tspan></text></g></svg>