<svg xmlns="http://www.w3.org/2000/svg" width="1000" height="700"><defs><linearGradient id="b" x1=".5" x2=".5" y2="1" gradientUnits="objectBoundingBox"><stop offset="0" stop-color="#d5d5d5"/><stop offset=".251" stop-color="#d5d5d5"/><stop offset="1" stop-color="#343434"/></linearGradient><clipPath id="a"><path d="M0 0h1000v700H0z"/></clipPath></defs><g clip-path="url(#a)" data-name="Blog Listing - Style 2"><path fill="#fcfcff" d="M0 0h1000v700H0z"/><rect width="800" height="500" fill="#d5d5d5" data-name="Rectangle 628" rx="5" transform="translate(100 100)"/><path fill="url(#b)" d="M0 0h800v221a5 5 0 0 1-5 5H5a5 5 0 0 1-5-5V0Z" data-name="Rectangle 629" transform="translate(100 374)"/><path fill="none" stroke="#888" stroke-width="20" d="M161 426.629h273.5" data-name="Line 16"/><path fill="none" stroke="#f2f2f2" stroke-width="10" d="M172 556.629h96.5" data-name="Line 112"/><path fill="none" stroke="#fff" stroke-width="2" d="m323.5 534.5-26 43" data-name="Line 111"/><path fill="#888" d="M611.37 374H387.8a25.8 25.8 0 0 1-25.8-25.797V193.425a25.8 25.8 0 0 1 25.8-25.8h223.57a25.8 25.8 0 0 1 25.8 25.8v154.778A25.8 25.8 0 0 1 611.37 374ZM422.193 197.725a30.1 30.1 0 1 0 30.1 30.1 30.1 30.1 0 0 0-30.1-30.1ZM396.4 339.604h206.371v-60.193l-47.034-47.034a6.45 6.45 0 0 0-9.121 0l-72.83 72.83-29.835-29.834a6.45 6.45 0 0 0-9.121 0l-38.43 38.434Z" opacity=".207"/><text fill="#fff" data-name="October 16, 2018" font-family="Roboto-Medium, Roboto" font-size="35" font-weight="500" transform="translate(353 569)"><tspan x="0" y="0">October 16, 2018</tspan></text><path fill="none" stroke="#fff" stroke-width="8" d="M161.044 463.801H418" data-name="Line 102"/><path fill="none" stroke="#fff" stroke-width="8" d="M161.044 486.58h202.367" data-name="Line 103"/><path fill="none" stroke="#d5d5d5" d="M100.5 517.5h800" data-name="Line 113"/><path fill="#888" d="M264.844 209.075h-98.843a5 5 0 0 1-5-5v-49.931a5 5 0 0 1 5-5h98.843a5 5 0 0 1 5 5v49.931a5 5 0 0 1-5 5Z" data-name="Union 25"/><text fill="#fff" font-family="Roboto-Medium, Roboto" font-size="42" font-weight="500" transform="translate(174 193)"><tspan x="0" y="0">New</tspan></text></g></svg>