<svg xmlns="http://www.w3.org/2000/svg" width="1000" height="700"><defs><clipPath id="a"><path d="M0 0h1000v700H0z"/></clipPath></defs><g clip-path="url(#a)" data-name="Blog Listing - Style 3"><path fill="#fcfcff" d="M0 0h1000v700H0z"/><rect width="335" height="313" fill="#d5d5d5" data-name="Rectangle 628" rx="5" transform="translate(100 194)"/><path fill="none" stroke="#888" stroke-width="20" d="M481 377.629h273.5" data-name="Line 16"/><path fill="none" stroke="#888" stroke-width="10" d="M481 305.629h96.5" data-name="Line 112"/><path fill="none" stroke="#888" stroke-width="6" d="m632.5 283.5-26 43" data-name="Line 111"/><path fill="#888" d="M349.156 426.375H185.844A18.844 18.844 0 0 1 167 407.531V294.469a18.844 18.844 0 0 1 18.844-18.844h163.312A18.844 18.844 0 0 1 368 294.469v113.062a18.844 18.844 0 0 1-18.844 18.844ZM210.969 297.609a21.984 21.984 0 1 0 21.984 21.984 21.984 21.984 0 0 0-21.984-21.984ZM192.125 401.25h150.75v-43.969l-34.356-34.356a4.711 4.711 0 0 0-6.662 0l-53.2 53.2-21.795-21.794a4.711 4.711 0 0 0-6.662 0l-28.075 28.075Z" opacity=".207"/><text fill="#888" data-name="October 16, 2018" font-family="Roboto-Medium, Roboto" font-size="32" font-weight="500" transform="translate(652 318)"><tspan x="0" y="0">October 16, 2018</tspan></text><path fill="none" stroke="#888" stroke-width="5" d="M481.044 489.58h202.367" data-name="Line 103"/><text fill="#888" font-family="Roboto-Medium, Roboto" font-size="42" font-weight="500" transform="translate(481 255)"><tspan x="0" y="0">New</tspan></text><text fill="#888" data-name="Read More" font-family="Roboto-Medium, Roboto" font-size="42" font-weight="500" transform="translate(481 472)"><tspan x="0" y="0">Read More</tspan></text></g></svg>