<svg xmlns="http://www.w3.org/2000/svg" width="1000" height="700"><defs><clipPath id="a"><path d="M0 0h1000v700H0z"/></clipPath></defs><g clip-path="url(#a)" data-name="Blog Listing - Style 4"><path fill="#fcfcff" d="M0 0h1000v700H0z"/><rect width="800" height="500" fill="#d5d5d5" data-name="Rectangle 628" rx="5" transform="translate(100 100)"/><path fill="#888" d="M648.016 503.5H314.484A38.484 38.484 0 0 1 276 465.016V234.109a38.484 38.484 0 0 1 38.484-38.484h333.532a38.484 38.484 0 0 1 38.484 38.484v230.907a38.484 38.484 0 0 1-38.484 38.484ZM365.8 240.525a44.9 44.9 0 1 0 44.9 44.9 44.9 44.9 0 0 0-44.9-44.9Zm-38.487 211.663h307.875v-89.8l-70.166-70.163a9.622 9.622 0 0 0-13.607 0l-108.649 108.65-44.51-44.51a9.622 9.622 0 0 0-13.607 0l-57.336 57.338Z" opacity=".207"/><path fill="none" stroke="#888" stroke-width="20" d="M161 386.629h273.5" data-name="Line 16"/><path fill="none" stroke="#888" stroke-width="10" d="M161 516.629h96.5" data-name="Line 112"/><path fill="none" stroke="#888" stroke-width="2" d="m312.5 494.5-26 43" data-name="Line 111"/><text fill="#888" data-name="October 16, 2018" font-family="Roboto-Medium, Roboto" font-size="35" font-weight="500" transform="translate(342 529)"><tspan x="0" y="0">October 16, 2018</tspan></text><path fill="none" stroke="#fff" stroke-width="8" d="M161.043 423.801h256.956" data-name="Line 102"/><path fill="none" stroke="#fff" stroke-width="8" d="M161.043 446.58H363.41" data-name="Line 103"/><text fill="#888" font-family="Roboto-Medium, Roboto" font-size="42" font-weight="500" transform="translate(161 315)"><tspan x="0" y="0">New</tspan></text></g></svg>