<svg xmlns="http://www.w3.org/2000/svg" width="1000" height="700" fill="none"><path fill="#fff" d="M0 0h1000v700H0z"/><path fill="#D5D5D5" d="M653 180h100v100H653z"/><path fill="#888" d="M683.46 247.69h38.66a4.46 4.46 0 0 0 4.46-4.46v-26.77a4.46 4.46 0 0 0-4.46-4.46h-38.66a4.46 4.46 0 0 0-4.46 4.46v26.77a4.46 4.46 0 0 0 4.46 4.46Zm32.71-30.49a5.2 5.2 0 1 1 0 10.41 5.2 5.2 0 0 1 0-10.4Zm4.47 24.54h-35.7v-10.4l8.14-8.14a1.1 1.1 0 0 1 1.22-.24c.13.05.26.13.36.24l12.6 12.59 5.15-5.16a1.1 1.1 0 0 1 1.22-.24c.13.05.25.14.36.24l6.65 6.65v4.46Z" opacity=".21"/><path fill="#D5D5D5" d="M653 301h100v219H653z"/><path fill="#888" d="M683.46 428.69h38.66a4.46 4.46 0 0 0 4.46-4.46v-26.77a4.46 4.46 0 0 0-4.46-4.46h-38.66a4.46 4.46 0 0 0-4.46 4.46v26.77a4.46 4.46 0 0 0 4.46 4.46Zm32.71-30.49a5.2 5.2 0 1 1 0 10.41 5.2 5.2 0 0 1 0-10.4Zm4.47 24.54h-35.7v-10.4l8.14-8.14a1.1 1.1 0 0 1 1.22-.25c.13.06.26.14.36.25l12.6 12.59 5.15-5.16a1.1 1.1 0 0 1 1.22-.24c.13.05.25.13.36.24l6.65 6.65v4.46Z" opacity=".21"/><path fill="#D5D5D5" d="M774 180h100v219H774z"/><path fill="#888" d="M804.46 307.69h38.66a4.46 4.46 0 0 0 4.46-4.46v-26.77a4.46 4.46 0 0 0-4.46-4.46h-38.66a4.46 4.46 0 0 0-4.46 4.46v26.77a4.46 4.46 0 0 0 4.46 4.46Zm32.71-30.49a5.2 5.2 0 1 1 0 10.41 5.2 5.2 0 0 1 0-10.4Zm4.47 24.54h-35.7v-10.4l8.14-8.14a1.1 1.1 0 0 1 1.22-.25c.13.06.26.14.36.25l12.6 12.59 5.15-5.16a1.1 1.1 0 0 1 1.22-.24c.13.05.25.13.36.24l6.65 6.65v4.46Z" opacity=".21"/><path fill="#888" d="M126 422.5h242.5V180H126v242.5Z"/><path fill="#D5D5D5" d="M389 280h243V180H389v100Zm0 240h243V300H389v220Z"/><path fill="#888" d="M491.46 427.69h38.66a4.46 4.46 0 0 0 4.46-4.46v-26.77a4.46 4.46 0 0 0-4.46-4.46h-38.66a4.46 4.46 0 0 0-4.46 4.46v26.77a4.46 4.46 0 0 0 4.46 4.46Zm32.71-30.49a5.2 5.2 0 1 1 0 10.41 5.2 5.2 0 0 1 0-10.4Zm4.47 24.54h-35.7v-10.4l8.14-8.14a1.1 1.1 0 0 1 1.22-.25c.13.06.26.14.36.25l12.6 12.59 5.15-5.16a1.1 1.1 0 0 1 1.22-.24c.13.05.25.13.36.24l6.65 6.65v4.46Zm-37.18-174.05h38.66a4.46 4.46 0 0 0 4.46-4.46v-26.77a4.46 4.46 0 0 0-4.46-4.46h-38.66a4.46 4.46 0 0 0-4.46 4.46v26.77a4.46 4.46 0 0 0 4.46 4.46Zm32.71-30.49a5.2 5.2 0 1 1 0 10.41 5.2 5.2 0 0 1 0-10.4Zm4.47 24.54h-35.7v-10.4l8.14-8.14a1.1 1.1 0 0 1 1.22-.24c.13.05.26.13.36.24l12.6 12.59 5.15-5.16a1.1 1.1 0 0 1 1.22-.24c.13.05.25.14.36.24l6.65 6.65v4.46Z" opacity=".21"/></svg>