<svg xmlns="http://www.w3.org/2000/svg" width="1000" height="700"><defs><clipPath id="a"><path d="M0 0h1000v700H0z"/></clipPath></defs><g clip-path="url(#a)"><path fill="#fcfcff" d="M0 0h1000v700H0z"/><g fill="#d5d5d5" stroke="#d5d5d5"><path stroke="none" d="M100 371h800v5H100z"/><path fill="none" d="M100.5 371.5h799v4h-799z"/></g><g fill="#888"><path d="M454.5 375.5h-354v-4h354v4Z"/><path d="M101 372v3h353v-3H101m-1-1h355v5H100v-5Z"/></g><g fill="#888" stroke="#888"><path stroke="none" d="M100 316h166v25H100z"/><path fill="none" d="M100.5 316.5h165v24h-165z"/></g><g fill="#888" stroke="#888"><path stroke="none" d="M852 312h48v34h-48z"/><path fill="none" d="M852.5 312.5h47v33h-47z"/></g><g fill="#888" stroke="#888"><path stroke="none" d="M450 376h5v13h-5z"/><path fill="none" d="M450.5 376.5h4v12h-4z"/></g></g></svg>