<svg xmlns="http://www.w3.org/2000/svg" width="127" height="100" fill="none"><g fill-rule="evenodd" clip-rule="evenodd" filter="url(#a)"><path fill="#C4C9CC" d="M64 74c13.255 0 24-10.745 24-24S77.255 26 64 26 40 36.745 40 50s10.745 24 24 24Zm0 1c13.807 0 25-11.193 25-25S77.807 25 64 25 39 36.193 39 50s11.193 25 25 25Z"/><path fill="#9AA6AE" d="M64 71.498h-.009A21.498 21.498 0 1 1 85.498 50H89a24.993 24.993 0 0 0-4.213-13.89A25 25 0 1 0 64 75v-3.502Z"/></g><defs><filter id="a" width="149" height="122" x="-11" y="-6" color-interpolation-filters="sRGB" filterUnits="userSpaceOnUse"><feFlood flood-opacity="0" result="BackgroundImageFix"/><feColorMatrix in="SourceAlpha" result="hardAlpha" values="0 0 0 0 0 0 0 0 0 0 0 0 0 0 0 0 0 0 127 0"/><feOffset dy="5"/><feGaussianBlur stdDeviation="5.5"/><feColorMatrix values="0 0 0 0 0 0 0 0 0 0 0 0 0 0 0 0 0 0 0.1 0"/><feBlend in2="BackgroundImageFix" result="effect1_dropShadow_1587_34413"/><feBlend in="SourceGraphic" in2="effect1_dropShadow_1587_34413" result="shape"/></filter></defs></svg>