<svg xmlns="http://www.w3.org/2000/svg" width="1000" height="700" viewBox="0 0 1000 700"><g clip-path="url(#clip-Process_Steps_-_Horizontal)"><path fill="#fcfcff" d="M0 0h1000v700H0z"/><circle cx="78" cy="78" r="78" fill="#d5d5d5" transform="translate(103 219)"/><circle cx="78" cy="78" r="78" fill="#d5d5d5" transform="translate(422 219)"/><circle cx="78" cy="78" r="78" fill="#d5d5d5" transform="translate(741 219)"/><path fill="none" stroke="#d5d5d5" stroke-width="3" d="M256.5 297.5h166M578.5 297.5h166"/><path fill="none" stroke="#888" stroke-width="20" d="M127.5 445.5h108M446.5 445.5h108M765.5 445.5h108"/><path fill="none" stroke="#d5d5d5" stroke-width="10" d="M100.5 481.5h162M419.5 481.5h162M738.5 481.5h162"/><path fill="#fff" d="M205.931 289.493a1.426 1.426 0 0 0-1.247-.734h-23.37v-23.333c0-.643-.144-1.2-.766-1.377a1.244 1.244 0 0 0-1.459.652l-22.908 39.008a2.685 2.685 0 0 0 .027 2c.251.442.759 1.284 1.272 1.284h21.554v21.66a1.434 1.434 0 0 0 1.028 1.37 1.323 1.323 0 0 0 .4.055 1.424 1.424 0 0 0 1.206-.666l24.222-38.471a1.426 1.426 0 0 0 .041-1.448ZM524.931 289.493a1.426 1.426 0 0 0-1.247-.734h-23.37v-23.333c0-.643-.144-1.2-.766-1.377a1.244 1.244 0 0 0-1.459.652l-22.908 39.008a2.685 2.685 0 0 0 .027 2c.251.442.759 1.284 1.272 1.284h21.554v21.66a1.434 1.434 0 0 0 1.028 1.37 1.323 1.323 0 0 0 .4.055 1.424 1.424 0 0 0 1.206-.666l24.222-38.471a1.426 1.426 0 0 0 .041-1.448ZM843.931 289.493a1.426 1.426 0 0 0-1.247-.734h-23.37v-23.333c0-.643-.144-1.2-.766-1.377a1.244 1.244 0 0 0-1.459.652l-22.908 39.008a2.685 2.685 0 0 0 .027 2c.251.442.759 1.284 1.272 1.284h21.554v21.66a1.434 1.434 0 0 0 1.028 1.37 1.323 1.323 0 0 0 .4.055 1.424 1.424 0 0 0 1.206-.666l24.222-38.471a1.426 1.426 0 0 0 .041-1.448Z"/></g></svg>