<svg xmlns="http://www.w3.org/2000/svg" width="1000" height="700" viewBox="0 0 1000 700"><g clip-path="url(#clip-Process_Steps_-_Vertical)"><path fill="#fcfcff" d="M0 0h1000v700H0z"/><circle cx="59" cy="59" r="59" fill="#d5d5d5" transform="translate(327 100)"/><circle cx="59" cy="59" r="59" fill="#d5d5d5" transform="translate(327 291)"/><ellipse cx="59" cy="59.5" fill="#d5d5d5" rx="59" ry="59.5" transform="translate(327 481)"/><path fill="none" stroke="#888" stroke-width="20" d="M511.5 141.5h108M511.5 332.5h108M511.5 540.5h108"/><path fill="none" stroke="#d5d5d5" stroke-width="10" d="M511.5 177.5h162M511.5 368.5h162M511.5 576.5h162"/><path fill="none" stroke="#d5d5d5" stroke-width="3" d="M386.5 218.5v73M386.5 409.5v72"/><path fill="#fff" d="M403.978 153.315a1.046 1.046 0 0 0-.915-.538h-17.139v-17.113c0-.472-.105-.883-.562-1.01a.912.912 0 0 0-1.07.478l-16.8 28.609a1.969 1.969 0 0 0 .02 1.47c.184.324.557.941.933.941h15.807v15.885a1.051 1.051 0 0 0 .754 1 .97.97 0 0 0 .291.04 1.044 1.044 0 0 0 .885-.488l17.766-28.213a1.045 1.045 0 0 0 .03-1.062ZM404.618 344.697a1.046 1.046 0 0 0-.915-.538h-17.139v-17.113c0-.472-.105-.883-.562-1.01a.912.912 0 0 0-1.07.478l-16.8 28.609a1.969 1.969 0 0 0 .02 1.47c.184.324.557.941.933.941h15.807v15.885a1.051 1.051 0 0 0 .754 1 .97.97 0 0 0 .291.04 1.044 1.044 0 0 0 .885-.488l17.766-28.213a1.045 1.045 0 0 0 .03-1.062ZM404.618 534.697a1.046 1.046 0 0 0-.915-.538h-17.139v-17.113c0-.472-.105-.883-.562-1.01a.912.912 0 0 0-1.07.478l-16.8 28.609a1.969 1.969 0 0 0 .02 1.47c.184.324.557.941.933.941h15.807v15.885a1.051 1.051 0 0 0 .754 1 .97.97 0 0 0 .291.04 1.044 1.044 0 0 0 .885-.488l17.766-28.213a1.045 1.045 0 0 0 .03-1.062Z"/></g></svg>