<svg xmlns="http://www.w3.org/2000/svg" width="1000" height="700" viewBox="0 0 1000 700"><defs><clipPath id="a"><path d="M0 0h1000v700H0z"/></clipPath></defs><g clip-path="url(#a)" data-name="Team Member - Style 3"><path fill="#fcfcff" d="M0 0h1000v700H0z"/><rect width="439" height="500" fill="#d5d5d5" data-name="Rectangle 2" rx="5" transform="translate(281 100)"/><rect width="360" height="298" fill="#f2f2f2" data-name="Rectangle 620" rx="5" transform="translate(320 143)"/><path fill="#888" d="M442 351v-14.623c0-16.091 26.325-29.254 58.5-29.254s58.5 13.163 58.5 29.254V351Zm29.247-87.747A29.25 29.25 0 1 1 500.5 292.5a29.253 29.253 0 0 1-29.253-29.247Z" data-name="Union 38"/><path fill="none" stroke="#888" stroke-width="20" d="M320.5 493.102h208" data-name="Line 6"/><path fill="none" stroke="#f2f2f2" stroke-width="12" d="M320.5 529.078h165" data-name="Line 7"/><g fill="#888" stroke="#888" data-name="Rectangle 621"><path stroke="none" d="M281 593h439v2a5 5 0 0 1-5 5H286a5 5 0 0 1-5-5v-2Z"/><path fill="none" d="M282 593.5h437a.5.5 0 0 1 .5.5v1a4.5 4.5 0 0 1-4.5 4.5H286a4.5 4.5 0 0 1-4.5-4.5v-1a.5.5 0 0 1 .5-.5Z"/></g><path fill="#888" fill-rule="evenodd" d="M632.974 506.288v-11.776h4.021l.574-4.6h-4.6v-2.868c0-1.292.431-2.3 2.3-2.3h2.445v-4.162c-.575 0-2.011-.144-3.591-.144-3.447 0-5.888 2.154-5.888 6.032v3.446h-4.021v4.6h4.021v11.772Z" data-name="Path 1"/><g data-name="Symbol 13 – 4"><path fill="#888" fill-rule="evenodd" d="M666.586 482.738a39.63 39.63 0 0 1 5.17.144 6.661 6.661 0 0 1 2.441.431 5.043 5.043 0 0 1 2.441 2.441 6.661 6.661 0 0 1 .431 2.441c0 1.292.144 1.723.144 5.17a39.629 39.629 0 0 1-.144 5.17 6.661 6.661 0 0 1-.431 2.441 5.043 5.043 0 0 1-2.441 2.441 6.661 6.661 0 0 1-2.441.431c-1.292 0-1.723.144-5.17.144a39.629 39.629 0 0 1-5.17-.144 6.661 6.661 0 0 1-2.441-.431 5.043 5.043 0 0 1-2.441-2.441 6.661 6.661 0 0 1-.431-2.441c0-1.292-.144-1.723-.144-5.17a39.63 39.63 0 0 1 .144-5.17 6.661 6.661 0 0 1 .431-2.441 5.158 5.158 0 0 1 1.004-1.439 2.428 2.428 0 0 1 1.436-1.005 6.661 6.661 0 0 1 2.441-.431 39.63 39.63 0 0 1 5.17-.144m0-2.3a42.432 42.432 0 0 0-5.313.147 8.866 8.866 0 0 0-3.159.574 5.622 5.622 0 0 0-2.3 1.436 5.622 5.622 0 0 0-1.436 2.3 6.543 6.543 0 0 0-.572 3.157 42.432 42.432 0 0 0-.144 5.314 42.432 42.432 0 0 0 .144 5.313 8.866 8.866 0 0 0 .574 3.162 5.622 5.622 0 0 0 1.436 2.3 5.622 5.622 0 0 0 2.3 1.436 8.866 8.866 0 0 0 3.159.574 42.432 42.432 0 0 0 5.313.144 42.432 42.432 0 0 0 5.313-.144 8.866 8.866 0 0 0 3.159-.574 6.025 6.025 0 0 0 3.733-3.736 8.866 8.866 0 0 0 .574-3.159c0-1.436.144-1.867.144-5.313a42.432 42.432 0 0 0-.144-5.313 8.866 8.866 0 0 0-.574-3.159 5.622 5.622 0 0 0-1.436-2.3 5.622 5.622 0 0 0-2.295-1.438 8.866 8.866 0 0 0-3.162-.574 42.432 42.432 0 0 0-5.313-.144m0 6.319a6.5 6.5 0 0 0-6.606 6.606 6.606 6.606 0 1 0 6.606-6.606m0 10.914a4.231 4.231 0 0 1-4.308-4.308 4.231 4.231 0 0 1 4.308-4.308 4.231 4.231 0 0 1 4.308 4.308 4.231 4.231 0 0 1-4.308 4.308m6.893-12.781a1.58 1.58 0 1 0 1.58 1.58 1.594 1.594 0 0 0-1.58-1.58" data-name="Path 3"/></g></g></svg>