<svg xmlns="http://www.w3.org/2000/svg" width="1000" height="700" viewBox="0 0 1000 700"><defs><clipPath id="a"><path d="M0 0h1000v700H0z"/></clipPath></defs><g clip-path="url(#a)" data-name="Team Member - Style 4"><path fill="#fcfcff" d="M0 0h1000v700H0z"/><path fill="#f2f2f2" d="M597.163 126.391c26.132 19.776 44.26 49.91 63.565 85.224 19.54 35.314 40.022 76.042 33.195 111.356-6.592 35.078-40.493 64.977-76.984 82.4s-75.336 22.13-116.064 24.72c-40.493 2.354-82.87 2.354-116.064-16.009-33.195-18.6-56.973-55.325-70.157-95.582-12.947-40.26-15.065-84.049 3.533-114.89 18.6-30.605 58.15-48.5 92.287-65.448 34.372-17.186 63.329-33.9 94.876-37.433s65.683 5.881 91.813 25.662Z"/><path fill="none" stroke="#888" stroke-width="20" d="M351.5 516.102h297.41" data-name="Line 6"/><path fill="none" stroke="#d5d5d5" stroke-width="12" d="M396.5 552.078h208.33" data-name="Line 7"/><path fill="#d5d5d5" d="M558.998 162.837c18.507 15.628 33.929 31.873 51 50.791s36.191 40.3 41.743 64.774c5.346 24.676-2.673 52.436-17.067 76.083-14.189 23.853-34.752 43.8-58.81 51-24.059 7.4-51.408 2.056-80.4 4.318-28.788 2.468-59.016 12.543-86.159 6.991-26.938-5.346-50.791-26.526-58.81-52.847-8.02-26.115-.206-57.371 4.113-86.159s5.141-54.9 11.721-83.9c6.368-28.79 18.501-60.456 41.12-73.411 22.825-13.16 56.137-7.608 83.692 2.262 27.554 10.076 49.351 24.676 67.857 40.098Z" data-name="blob copy"/><path fill="#888" d="M438 328v-15.5c0-17.054 27.9-31 62-31s62 13.95 62 31V328Zm31-93a31 31 0 1 1 31 31 31 31 0 0 1-31-31Z" data-name="Union 38"/></g></svg>