<svg xmlns="http://www.w3.org/2000/svg" width="1000" height="700"><defs><clipPath id="a"><path d="M0 0h1000v700H0z"/></clipPath></defs><g clip-path="url(#a)"><path fill="#fcfcff" d="M0 0h1000v700H0z"/><rect width="722" height="251" fill="#f2f2f2" rx="5" transform="translate(139 100)"/><path fill="#f2f2f2" d="m500 375-18-24h36Z"/><path fill="#d5d5d5" d="M445 395h111v112H445z"/><path fill="#f2f2f2" d="M475 479v-6.749c0-7.427 12.15-13.5 27-13.5s27 6.075 27 13.5V479Zm13.5-40.5A13.5 13.5 0 1 1 502 452a13.5 13.5 0 0 1-13.5-13.5Z"/><path fill="none" stroke="#d5d5d5" stroke-width="8" d="M211.118 153.703h578.033M194.291 185.504h611.821M194.291 217.305h611.821M222.055 249.106h556.17"/><path fill="none" stroke="#888" stroke-width="15" d="M429.87 296.807h140.122"/><path fill="none" stroke="#888" stroke-width="20" d="M378.547 562.317H622.31"/><path fill="none" stroke="#d5d5d5" stroke-width="12" d="M414.726 600h170.752"/></g></svg>