<svg xmlns="http://www.w3.org/2000/svg" width="1000" height="700"><defs><clipPath id="a"><path d="M0 0h1000v700H0z"/></clipPath></defs><g clip-path="url(#a)"><path fill="#fcfcff" d="M0 0h1000v700H0z"/><path fill="#d5d5d5" d="M431 342h140v141H431z"/><path fill="#f2f2f2" d="M467 444v-8.124c0-8.939 14.625-16.252 32.5-16.252s32.5 7.313 32.5 16.252V444Zm16.248-48.748A16.25 16.25 0 1 1 499.5 411.5a16.251 16.251 0 0 1-16.252-16.248Z"/><path fill="none" stroke="#d5d5d5" stroke-width="8" d="M137.38 100h725.617M116.257 139.92h768.032M116.257 179.84h768.032M151.11 219.761h698.172"/><path fill="none" stroke="#888" stroke-width="15" d="M411.984 283.866h175.898"/><path fill="none" stroke="#888" stroke-width="20" d="M347.558 552.696h306.001"/><path fill="none" stroke="#d5d5d5" stroke-width="12" d="M392.973 600h214.348"/></g></svg>