<svg xmlns="http://www.w3.org/2000/svg" width="1000" height="700"><defs><clipPath id="a"><path d="M0 0h1000v700H0z"/></clipPath></defs><g clip-path="url(#a)"><path fill="#fcfcff" d="M0 0h1000v700H0z"/><path fill="#d5d5d5" d="M185 463h137v137H185z"/><path fill="#f2f2f2" d="M220 565v-8.124c0-8.939 14.625-16.252 32.5-16.252s32.5 7.313 32.5 16.252V565Zm16.248-48.748A16.25 16.25 0 1 1 252.5 532.5a16.251 16.251 0 0 1-16.252-16.248Z"/><path fill="none" stroke="#d5d5d5" stroke-width="8" d="M184.5 163.555h565.453M184.5 197.43h606.442M184.5 231.305h606.442M184.5 265.18h587.811M184.5 299.055h606.442M184.5 332.93h630.662M184.5 366.806h616.689M184.5 400.681h587.811"/><path fill="none" stroke="#888" stroke-width="15" d="M184.5 100h170.96"/><path fill="none" stroke="#888" stroke-width="20" d="M409.307 509.101h297.41"/><path fill="none" stroke="#d5d5d5" stroke-width="12" d="M409.308 555.078h208.33"/></g></svg>