<svg xmlns="http://www.w3.org/2000/svg" width="1000" height="700"><defs><clipPath id="a"><path d="M0 0h1000v700H0z"/></clipPath></defs><g clip-path="url(#a)"><path fill="#fcfcff" d="M0 0h1000v700H0z"/><rect width="149" height="149" fill="#d5d5d5" rx="74.5" transform="translate(425 341)"/><path fill="#f2f2f2" d="M465 450v-8.749c0-9.627 15.75-17.5 35-17.5s35 7.875 35 17.5V450Zm17.5-52.5A17.5 17.5 0 1 1 500 415a17.5 17.5 0 0 1-17.5-17.5Z"/><path fill="none" stroke="#d5d5d5" stroke-width="8" d="M156.5 159.801h686.7M136.5 197.58h726.84M136.5 235.36h726.84M169.5 273.139h660.727"/><path fill="none" stroke="#888" stroke-width="15" d="M416.5 99.917h166.464"/><path fill="none" stroke="#888" stroke-width="20" d="M355.5 556.233h289.589"/><path fill="none" stroke="#d5d5d5" stroke-width="12" d="M398.5 601h202.852"/></g></svg>