<svg xmlns="http://www.w3.org/2000/svg" width="1000" height="700"><defs><clipPath id="a"><path d="M0 0h1000v700H0z"/></clipPath></defs><g clip-path="url(#a)"><path fill="#fcfcff" d="M0 0h1000v700H0z"/><path fill="#d5d5d5" d="M100 215h270v270H100z"/><path fill="#f2f2f2" d="M171 414v-16c0-17.6 28.8-32 64-32s64 14.4 64 32v16Zm32-96a32 32 0 1 1 32 32 32 32 0 0 1-32-32Z"/><path fill="none" stroke="#d5d5d5" stroke-width="8" d="M442.362 277.651h432.365M442.362 309.693H900M442.362 341.736H900M442.362 373.778h416.011"/><path fill="none" stroke="#888" stroke-width="15" d="M442.362 228.555h141.187"/><path fill="none" stroke="#888" stroke-width="20" d="M442.362 433.315h196.079"/><path fill="none" stroke="#d5d5d5" stroke-width="12" d="M442.362 471.284h137.35"/></g></svg>