<svg xmlns="http://www.w3.org/2000/svg" width="1000" height="700" fill="none" viewBox="0 0 1000 700"><path fill="#fff" d="M0 0h1000v700H0z"/><path fill="#fff" d="M100 100h800v500H100z"/><path fill="#888" d="M349 306h303v88H349z"/><path fill="#fff" d="M391.818 361v-23.273h2.818V358.5h10.819v2.5h-13.637Zm24.727.364c-1.575 0-2.958-.375-4.147-1.125-1.182-.75-2.106-1.8-2.773-3.148-.659-1.349-.989-2.924-.989-4.727 0-1.819.33-3.406.989-4.762.667-1.356 1.591-2.409 2.773-3.159 1.189-.75 2.572-1.125 4.147-1.125 1.576 0 2.955.375 4.137 1.125 1.189.75 2.113 1.803 2.773 3.159.666 1.356 1 2.943 1 4.762 0 1.803-.334 3.378-1 4.727-.66 1.348-1.584 2.398-2.773 3.148-1.182.75-2.561 1.125-4.137 1.125Zm0-2.409c1.197 0 2.182-.307 2.955-.921.773-.614 1.345-1.42 1.716-2.42s.557-2.084.557-3.25c0-1.167-.186-2.254-.557-3.262-.371-1.007-.943-1.822-1.716-2.443s-1.758-.932-2.955-.932-2.181.311-2.954.932c-.773.621-1.345 1.436-1.716 2.443-.371 1.008-.557 2.095-.557 3.262 0 1.166.186 2.25.557 3.25.371 1 .943 1.806 1.716 2.42.773.614 1.757.921 2.954.921Zm19.049 8.954c-1.296 0-2.409-.167-3.341-.5-.932-.326-1.708-.757-2.33-1.295-.613-.531-1.102-1.099-1.466-1.705l2.137-1.5c.242.318.549.682.92 1.091.371.417.879.777 1.523 1.08.651.31 1.504.465 2.557.465 1.409 0 2.572-.34 3.488-1.022.917-.682 1.375-1.75 1.375-3.205v-3.545h-.227c-.197.318-.477.712-.841 1.182-.356.462-.871.875-1.545 1.238-.667.356-1.568.534-2.705.534-1.409 0-2.674-.333-3.795-1-1.114-.666-1.996-1.636-2.648-2.909-.644-1.273-.966-2.818-.966-4.636 0-1.788.315-3.345.943-4.671.629-1.333 1.504-2.363 2.625-3.091 1.122-.734 2.417-1.102 3.887-1.102 1.136 0 2.038.19 2.704.568.674.372 1.19.796 1.546 1.273.363.47.644.856.841 1.159h.272v-2.773h2.591V361.5c0 1.5-.341 2.72-1.023 3.659-.674.947-1.583 1.64-2.727 2.08-1.136.447-2.401.67-3.795.67Zm-.091-9.591c1.076 0 1.985-.246 2.727-.738.743-.493 1.307-1.201 1.693-2.125.387-.925.58-2.031.58-3.319 0-1.257-.19-2.367-.568-3.329-.379-.962-.94-1.716-1.682-2.262-.743-.545-1.659-.818-2.75-.818-1.137 0-2.083.288-2.841.864-.75.576-1.314 1.348-1.693 2.318-.371.97-.557 2.046-.557 3.227 0 1.212.189 2.284.568 3.216.386.925.955 1.652 1.705 2.182.757.523 1.697.784 2.818.784Zm24.727-20.591V361h-2.818v-23.273h2.818Zm7.969 12.773V361h-2.682v-17.455h2.591v2.728h.227a4.986 4.986 0 0 1 1.864-2.137c.833-.545 1.909-.818 3.227-.818 1.182 0 2.216.243 3.102.727.887.478 1.576 1.205 2.069 2.182.492.97.738 2.197.738 3.682V361h-2.682v-10.909c0-1.371-.356-2.439-1.068-3.205-.712-.772-1.689-1.159-2.932-1.159-.856 0-1.621.186-2.295.557-.667.371-1.193.913-1.58 1.625-.386.712-.579 1.576-.579 2.591Zm24.264-13.864-7.5 27.864h-2.454l7.5-27.864h2.454Zm16.27 6.909c-.136-1.151-.689-2.045-1.659-2.681-.97-.637-2.159-.955-3.568-.955-1.031 0-1.932.167-2.705.5-.765.333-1.363.792-1.795 1.375a3.29 3.29 0 0 0-.637 1.989c0 .621.148 1.155.443 1.602.304.439.69.807 1.16 1.102.469.288.962.527 1.477.716.515.182.989.33 1.42.443l2.364.637c.606.159 1.28.379 2.023.659.75.28 1.466.663 2.147 1.148a5.833 5.833 0 0 1 1.705 1.84c.447.75.67 1.671.67 2.762 0 1.257-.329 2.394-.988 3.409-.652 1.015-1.606 1.822-2.864 2.42-1.25.599-2.769.898-4.557.898-1.666 0-3.11-.269-4.329-.807-1.212-.538-2.167-1.288-2.864-2.25-.689-.962-1.079-2.079-1.17-3.352h2.909c.076.879.371 1.606.886 2.182.523.568 1.182.992 1.977 1.273a8.026 8.026 0 0 0 2.591.409c1.076 0 2.042-.175 2.898-.523.856-.356 1.534-.849 2.034-1.477.5-.637.75-1.379.75-2.228 0-.772-.216-1.401-.648-1.886-.431-.485-1-.879-1.704-1.182a17.908 17.908 0 0 0-2.284-.795l-2.864-.818c-1.818-.523-3.257-1.269-4.318-2.239-1.061-.97-1.591-2.239-1.591-3.807 0-1.303.352-2.439 1.057-3.409.712-.977 1.667-1.735 2.863-2.273 1.205-.545 2.55-.818 4.035-.818 1.5 0 2.833.269 4 .807 1.166.53 2.091 1.257 2.772 2.182a5.43 5.43 0 0 1 1.091 3.147h-2.727ZM516.048 361v-17.455h2.682V361h-2.682Zm1.364-20.364c-.523 0-.974-.178-1.352-.534a1.713 1.713 0 0 1-.557-1.284c0-.5.185-.928.557-1.284a1.905 1.905 0 0 1 1.352-.534c.523 0 .97.178 1.341.534.379.356.568.784.568 1.284s-.189.928-.568 1.284a1.867 1.867 0 0 1-1.341.534Zm13.276 27.273c-1.296 0-2.41-.167-3.341-.5-.932-.326-1.709-.757-2.33-1.295a7.104 7.104 0 0 1-1.466-1.705l2.137-1.5c.242.318.549.682.92 1.091.371.417.879.777 1.523 1.08.651.31 1.503.465 2.557.465 1.409 0 2.571-.34 3.488-1.022.917-.682 1.375-1.75 1.375-3.205v-3.545h-.227c-.197.318-.477.712-.841 1.182-.356.462-.871.875-1.545 1.238-.667.356-1.569.534-2.705.534-1.409 0-2.674-.333-3.795-1-1.114-.666-1.997-1.636-2.648-2.909-.644-1.273-.966-2.818-.966-4.636 0-1.788.314-3.345.943-4.671.629-1.333 1.504-2.363 2.625-3.091 1.121-.734 2.417-1.102 3.886-1.102 1.137 0 2.038.19 2.705.568.674.372 1.189.796 1.545 1.273.364.47.644.856.841 1.159h.273v-2.773h2.591V361.5c0 1.5-.341 2.72-1.023 3.659-.674.947-1.583 1.64-2.727 2.08-1.136.447-2.402.67-3.795.67Zm-.091-9.591c1.075 0 1.984-.246 2.727-.738.742-.493 1.307-1.201 1.693-2.125.386-.925.58-2.031.58-3.319 0-1.257-.19-2.367-.569-3.329-.378-.962-.939-1.716-1.681-2.262-.743-.545-1.659-.818-2.75-.818-1.137 0-2.084.288-2.841.864-.75.576-1.315 1.348-1.694 2.318-.371.97-.556 2.046-.556 3.227 0 1.212.189 2.284.568 3.216.386.925.954 1.652 1.704 2.182.758.523 1.697.784 2.819.784Zm15.227-7.818V361h-2.682v-17.455h2.591v2.728h.227a4.986 4.986 0 0 1 1.864-2.137c.833-.545 1.909-.818 3.227-.818 1.182 0 2.216.243 3.102.727.887.478 1.576 1.205 2.069 2.182.492.97.738 2.197.738 3.682V361h-2.682v-10.909c0-1.371-.356-2.439-1.068-3.205-.712-.772-1.689-1.159-2.932-1.159-.856 0-1.621.186-2.295.557-.667.371-1.193.913-1.58 1.625-.386.712-.579 1.576-.579 2.591Zm40.673-12.773h2.818v15.409c0 1.591-.375 3.012-1.125 4.262-.742 1.242-1.791 2.223-3.147 2.943-1.356.712-2.947 1.068-4.773 1.068-1.826 0-3.417-.356-4.773-1.068-1.356-.72-2.409-1.701-3.159-2.943-.742-1.25-1.114-2.671-1.114-4.262v-15.409h2.819v15.182c0 1.136.25 2.148.75 3.034.5.879 1.212 1.572 2.136 2.08.932.5 2.045.75 3.341.75 1.295 0 2.409-.25 3.341-.75.932-.508 1.644-1.201 2.136-2.08.5-.886.75-1.898.75-3.034v-15.182Zm8.083 29.818v-24h2.59v2.773h.319c.197-.303.469-.689.818-1.159.356-.477.863-.901 1.523-1.273.666-.378 1.568-.568 2.704-.568 1.47 0 2.765.368 3.886 1.102 1.122.735 1.997 1.777 2.625 3.125.629 1.349.944 2.94.944 4.773 0 1.849-.315 3.451-.944 4.807-.628 1.348-1.5 2.394-2.613 3.136-1.114.735-2.398 1.103-3.852 1.103-1.122 0-2.019-.186-2.694-.557-.674-.379-1.193-.807-1.556-1.284a17.162 17.162 0 0 1-.841-1.205h-.228v9.227h-2.681Zm2.636-15.272c0 1.318.193 2.481.579 3.488.387 1 .951 1.784 1.694 2.353.742.56 1.651.841 2.727.841 1.121 0 2.057-.296 2.807-.887.757-.598 1.325-1.401 1.704-2.409.387-1.015.58-2.144.58-3.386 0-1.228-.19-2.334-.568-3.318-.372-.993-.936-1.777-1.694-2.353-.75-.583-1.693-.875-2.829-.875-1.091 0-2.008.277-2.75.83-.743.545-1.303 1.31-1.682 2.295-.379.978-.568 2.118-.568 3.421Z"/></svg>