<svg xmlns="http://www.w3.org/2000/svg" width="1000" height="700" fill="none" viewBox="0 0 1000 700"><path fill="#fff" d="M0 0h1000v700H0z"/><path fill="#fff" d="M100 100h800v500H100z"/><path fill="#888" d="M100 455h326v72H100z"/><path fill="#fff" d="M142.818 502v-23.273h14.046v2.5h-11.228v7.864h10.5v2.5h-10.5v7.909h11.409v2.5h-14.227Zm18.762 0v-17.455h2.59v2.728h.228c.363-.932.95-1.656 1.761-2.171.811-.522 1.784-.784 2.921-.784 1.151 0 2.109.262 2.875.784.772.515 1.375 1.239 1.806 2.171h.182a5.082 5.082 0 0 1 2.012-2.148c.893-.538 1.965-.807 3.215-.807 1.561 0 2.838.489 3.83 1.466.992.97 1.489 2.481 1.489 4.534V502h-2.682v-11.682c0-1.288-.352-2.208-1.057-2.761-.705-.553-1.534-.83-2.489-.83-1.227 0-2.178.371-2.852 1.114-.674.735-1.011 1.667-1.011 2.795V502h-2.728v-11.955c0-.992-.322-1.791-.965-2.397-.644-.614-1.474-.921-2.489-.921a3.68 3.68 0 0 0-1.955.557 4.199 4.199 0 0 0-1.454 1.546c-.364.651-.546 1.405-.546 2.261V502h-2.681Zm32.948.409c-1.106 0-2.109-.208-3.011-.625a5.176 5.176 0 0 1-2.148-1.829c-.53-.803-.795-1.773-.795-2.91 0-1 .197-1.81.591-2.431a4.17 4.17 0 0 1 1.579-1.478 8.3 8.3 0 0 1 2.182-.795c.803-.182 1.61-.326 2.421-.432 1.06-.136 1.92-.239 2.579-.307.667-.075 1.152-.2 1.455-.375.31-.174.466-.477.466-.909v-.091c0-1.121-.307-1.992-.921-2.613-.606-.622-1.526-.932-2.761-.932-1.281 0-2.284.28-3.012.841-.727.56-1.238 1.159-1.534 1.795l-2.545-.909c.454-1.061 1.06-1.886 1.818-2.477a6.811 6.811 0 0 1 2.5-1.25 10.355 10.355 0 0 1 2.682-.364c.56 0 1.204.068 1.932.205a6.17 6.17 0 0 1 2.125.807c.689.409 1.261 1.026 1.716 1.852.454.826.681 1.932.681 3.318V502h-2.681v-2.364h-.137c-.182.379-.485.784-.909 1.216-.424.432-.988.8-1.693 1.103-.705.303-1.564.454-2.58.454Zm.41-2.409c1.06 0 1.954-.208 2.681-.625.735-.417 1.288-.955 1.659-1.614a4.11 4.11 0 0 0 .569-2.079v-2.455c-.114.137-.364.262-.75.375-.379.106-.819.201-1.319.284-.492.076-.973.144-1.443.205-.462.053-.837.098-1.125.136-.697.091-1.348.239-1.954.443-.599.197-1.084.497-1.455.898-.363.394-.545.932-.545 1.614 0 .932.344 1.636 1.034 2.113.697.47 1.579.705 2.648.705Zm12.485 2v-17.455h2.682V502h-2.682Zm1.364-20.364c-.523 0-.974-.178-1.352-.534a1.713 1.713 0 0 1-.557-1.284c0-.5.185-.928.557-1.284a1.905 1.905 0 0 1 1.352-.534c.523 0 .97.178 1.341.534.379.356.568.784.568 1.284s-.189.928-.568 1.284a1.867 1.867 0 0 1-1.341.534Zm8.912-2.909V502h-2.682v-23.273h2.682ZM231.974 502v-23.273h7.864c1.818 0 3.311.311 4.477.932 1.167.614 2.031 1.458 2.591 2.534.561 1.076.841 2.299.841 3.671 0 1.371-.28 2.587-.841 3.647-.56 1.061-1.42 1.894-2.579 2.5-1.159.599-2.64.898-4.443.898h-6.364v-2.545h6.273c1.242 0 2.242-.182 3-.546.765-.363 1.318-.879 1.659-1.545.348-.675.522-1.478.522-2.409 0-.932-.174-1.747-.522-2.444-.349-.697-.906-1.234-1.671-1.613-.765-.387-1.776-.58-3.034-.58h-4.954V502h-2.819Zm10.955-10.455L248.656 502h-3.272l-5.637-10.455h3.182Zm16.281 10.819c-1.682 0-3.132-.372-4.352-1.114-1.212-.75-2.148-1.795-2.807-3.136-.651-1.349-.977-2.917-.977-4.705 0-1.788.326-3.364.977-4.727.659-1.371 1.576-2.44 2.75-3.205 1.182-.772 2.561-1.159 4.137-1.159.909 0 1.806.152 2.693.455a6.668 6.668 0 0 1 2.42 1.477c.727.674 1.307 1.568 1.739 2.682.432 1.113.648 2.485.648 4.113v1.137h-13.455v-2.318h10.727c0-.985-.197-1.864-.591-2.637a4.451 4.451 0 0 0-1.659-1.829c-.712-.447-1.553-.671-2.522-.671-1.069 0-1.993.265-2.773.796a5.218 5.218 0 0 0-1.784 2.045 6.007 6.007 0 0 0-.625 2.705v1.545c0 1.318.227 2.436.682 3.352.462.91 1.102 1.603 1.92 2.08.818.47 1.769.705 2.852.705.705 0 1.341-.099 1.909-.296a4.075 4.075 0 0 0 1.489-.909c.417-.409.739-.917.966-1.523l2.591.728a5.754 5.754 0 0 1-1.375 2.318c-.644.659-1.44 1.174-2.387 1.545-.947.364-2.011.546-3.193.546Zm23.671-13.909-2.409.681a4.485 4.485 0 0 0-.671-1.17c-.288-.386-.682-.705-1.182-.955-.5-.25-1.14-.375-1.92-.375-1.068 0-1.958.247-2.671.739-.704.485-1.056 1.102-1.056 1.852 0 .667.242 1.193.727 1.58.485.386 1.242.708 2.273.966l2.59.636c1.561.379 2.724.958 3.489 1.739.765.772 1.148 1.769 1.148 2.988 0 1-.288 1.894-.864 2.682-.568.788-1.363 1.409-2.386 1.864-1.023.454-2.212.682-3.568.682-1.781 0-3.254-.387-4.421-1.159-1.166-.773-1.905-1.902-2.216-3.387l2.546-.636c.242.939.701 1.644 1.375 2.113.682.47 1.572.705 2.67.705 1.25 0 2.243-.265 2.977-.795.743-.538 1.114-1.182 1.114-1.932 0-.606-.212-1.114-.636-1.523-.424-.417-1.076-.727-1.955-.932l-2.909-.682c-1.598-.378-2.773-.966-3.523-1.761-.742-.803-1.113-1.807-1.113-3.011 0-.985.276-1.856.829-2.614.561-.758 1.322-1.352 2.284-1.784.97-.432 2.069-.648 3.296-.648 1.727 0 3.083.379 4.068 1.137.992.757 1.697 1.757 2.114 3Zm11.673 13.909c-1.682 0-3.133-.372-4.352-1.114-1.212-.75-2.148-1.795-2.807-3.136-.652-1.349-.977-2.917-.977-4.705 0-1.788.325-3.364.977-4.727.659-1.371 1.576-2.44 2.75-3.205 1.182-.772 2.56-1.159 4.136-1.159.909 0 1.807.152 2.693.455a6.664 6.664 0 0 1 2.421 1.477c.727.674 1.307 1.568 1.739 2.682.431 1.113.647 2.485.647 4.113v1.137h-13.454v-2.318h10.727c0-.985-.197-1.864-.591-2.637a4.451 4.451 0 0 0-1.659-1.829c-.712-.447-1.553-.671-2.523-.671-1.068 0-1.992.265-2.772.796a5.228 5.228 0 0 0-1.785 2.045 6.02 6.02 0 0 0-.625 2.705v1.545c0 1.318.228 2.436.682 3.352.462.91 1.103 1.603 1.921 2.08.818.47 1.769.705 2.852.705.705 0 1.341-.099 1.909-.296a4.075 4.075 0 0 0 1.489-.909 4.15 4.15 0 0 0 .966-1.523l2.591.728a5.765 5.765 0 0 1-1.375 2.318c-.644.659-1.44 1.174-2.387 1.545-.947.364-2.011.546-3.193.546Zm18.898-17.819v2.273h-9.046v-2.273h9.046Zm-6.409-4.181h2.681V497c0 .758.11 1.326.33 1.705.227.371.515.621.864.75.356.121.731.181 1.125.181.295 0 .537-.015.727-.045l.454-.091.546 2.409a5.623 5.623 0 0 1-.761.205c-.326.075-.739.113-1.239.113-.758 0-1.5-.163-2.227-.488a4.422 4.422 0 0 1-1.796-1.489c-.47-.667-.704-1.508-.704-2.523v-17.363ZM326.849 502v-23.273h2.819V499.5h10.818v2.5h-13.637Zm17.637 0v-17.455h2.682V502h-2.682Zm1.363-20.364c-.522 0-.973-.178-1.352-.534a1.716 1.716 0 0 1-.557-1.284c0-.5.186-.928.557-1.284.379-.356.83-.534 1.352-.534.523 0 .97.178 1.341.534.379.356.569.784.569 1.284s-.19.928-.569 1.284a1.867 1.867 0 0 1-1.341.534Zm8.912 9.864V502h-2.681v-17.455h2.59v2.728h.228a4.983 4.983 0 0 1 1.863-2.137c.834-.545 1.909-.818 3.228-.818 1.181 0 2.216.243 3.102.727.886.478 1.576 1.205 2.068 2.182.493.97.739 2.197.739 3.682V502h-2.682v-10.909c0-1.371-.356-2.439-1.068-3.205-.712-.772-1.69-1.159-2.932-1.159-.856 0-1.621.186-2.296.557-.666.371-1.193.913-1.579 1.625-.386.712-.58 1.576-.58 2.591Zm18.537 4.136-.045-3.318h.545l7.637-7.773h3.318l-8.137 8.228h-.227l-3.091 2.863Zm-2.5 6.364v-23.273h2.682V502h-2.682Zm11.091 0-6.818-8.636 1.909-1.864 8.318 10.5h-3.409Z"/><path fill="#D5D5D5" d="M100 333h800v72H100z"/><path fill="#888" d="M118.091 281.727h2.818v15.409c0 1.591-.375 3.012-1.125 4.262-.742 1.242-1.792 2.223-3.148 2.943-1.356.712-2.947 1.068-4.772 1.068-1.826 0-3.417-.356-4.773-1.068-1.356-.72-2.409-1.701-3.159-2.943-.743-1.25-1.114-2.671-1.114-4.262v-15.409h2.818v15.182c0 1.136.25 2.148.75 3.034.5.879 1.212 1.572 2.137 2.08.932.5 2.045.75 3.341.75 1.295 0 2.409-.25 3.341-.75.931-.508 1.643-1.201 2.136-2.08.5-.886.75-1.898.75-3.034v-15.182Zm20.446 9.728-2.409.681a4.485 4.485 0 0 0-.671-1.17c-.287-.386-.681-.705-1.181-.955s-1.141-.375-1.921-.375c-1.068 0-1.958.247-2.67.739-.705.485-1.057 1.102-1.057 1.852 0 .667.242 1.193.727 1.58.485.386 1.243.708 2.273.966l2.591.636c1.56.379 2.723.958 3.488 1.739.766.772 1.148 1.769 1.148 2.988 0 1-.288 1.894-.864 2.682-.568.788-1.363 1.409-2.386 1.864-1.023.454-2.212.682-3.568.682-1.78 0-3.254-.387-4.421-1.159-1.166-.773-1.905-1.902-2.215-3.387l2.545-.636c.242.939.701 1.644 1.375 2.113.682.47 1.572.705 2.67.705 1.25 0 2.243-.265 2.978-.795.742-.538 1.113-1.182 1.113-1.932 0-.606-.212-1.114-.636-1.523-.424-.417-1.076-.727-1.955-.932l-2.909-.682c-1.598-.378-2.772-.966-3.522-1.761-.743-.803-1.114-1.807-1.114-3.011 0-.985.277-1.856.83-2.614.56-.758 1.322-1.352 2.284-1.784.969-.432 2.068-.648 3.295-.648 1.727 0 3.083.379 4.068 1.137.993.757 1.697 1.757 2.114 3Zm11.673 13.909c-1.682 0-3.132-.372-4.352-1.114-1.212-.75-2.148-1.795-2.807-3.136-.651-1.349-.977-2.917-.977-4.705 0-1.788.326-3.364.977-4.727.659-1.371 1.576-2.44 2.75-3.205 1.182-.772 2.561-1.159 4.137-1.159.909 0 1.806.152 2.693.455a6.668 6.668 0 0 1 2.42 1.477c.727.674 1.307 1.568 1.739 2.682.432 1.113.648 2.485.648 4.113v1.137h-13.455v-2.318h10.727c0-.985-.197-1.864-.591-2.637a4.451 4.451 0 0 0-1.659-1.829c-.712-.447-1.553-.671-2.522-.671-1.069 0-1.993.265-2.773.796a5.218 5.218 0 0 0-1.784 2.045 6.007 6.007 0 0 0-.625 2.705v1.545c0 1.318.227 2.436.682 3.352.462.91 1.102 1.603 1.92 2.08.818.47 1.769.705 2.852.705.705 0 1.341-.099 1.909-.296a4.075 4.075 0 0 0 1.489-.909c.417-.409.739-.917.966-1.523l2.591.728a5.754 5.754 0 0 1-1.375 2.318c-.644.659-1.44 1.174-2.387 1.545-.947.364-2.011.546-3.193.546Zm11.307-.364v-17.455h2.591v2.637h.182c.318-.864.894-1.565 1.727-2.102.833-.538 1.773-.807 2.818-.807.197 0 .443.004.739.011.295.008.519.019.67.034v2.727a8.704 8.704 0 0 0-.625-.102 6.15 6.15 0 0 0-1.011-.079c-.849 0-1.606.178-2.273.534a4.023 4.023 0 0 0-1.568 1.454c-.379.614-.568 1.315-.568 2.103V305h-2.682Zm14.588-10.5V305h-2.682v-17.455h2.591v2.728h.227a4.992 4.992 0 0 1 1.864-2.137c.833-.545 1.909-.818 3.227-.818 1.182 0 2.216.243 3.103.727.886.478 1.575 1.205 2.068 2.182.492.97.738 2.197.738 3.682V305h-2.681v-10.909c0-1.371-.356-2.439-1.069-3.205-.712-.772-1.689-1.159-2.931-1.159-.856 0-1.622.186-2.296.557-.666.371-1.193.913-1.579 1.625-.387.712-.58 1.576-.58 2.591Zm21.173 10.909c-1.106 0-2.109-.208-3.011-.625a5.176 5.176 0 0 1-2.148-1.829c-.53-.803-.795-1.773-.795-2.91 0-1 .197-1.81.591-2.431a4.17 4.17 0 0 1 1.579-1.478 8.3 8.3 0 0 1 2.182-.795c.803-.182 1.61-.326 2.421-.432 1.06-.136 1.92-.239 2.579-.307.667-.075 1.152-.2 1.455-.375.31-.174.466-.477.466-.909v-.091c0-1.121-.307-1.992-.921-2.613-.606-.622-1.526-.932-2.761-.932-1.281 0-2.284.28-3.012.841-.727.56-1.238 1.159-1.534 1.795l-2.545-.909c.454-1.061 1.06-1.886 1.818-2.477a6.811 6.811 0 0 1 2.5-1.25 10.355 10.355 0 0 1 2.682-.364c.56 0 1.204.068 1.932.205a6.17 6.17 0 0 1 2.125.807c.689.409 1.261 1.026 1.716 1.852.454.826.681 1.932.681 3.318V305h-2.681v-2.364h-.137c-.182.379-.485.784-.909 1.216-.424.432-.988.8-1.693 1.103-.705.303-1.564.454-2.58.454Zm.41-2.409c1.06 0 1.954-.208 2.681-.625.735-.417 1.288-.955 1.659-1.614a4.11 4.11 0 0 0 .569-2.079v-2.455c-.114.137-.364.262-.75.375-.379.106-.819.201-1.319.284-.492.076-.973.144-1.443.205-.462.053-.837.098-1.125.136-.697.091-1.348.239-1.954.443-.599.197-1.084.497-1.455.898-.363.394-.545.932-.545 1.614 0 .932.344 1.636 1.034 2.113.697.47 1.579.705 2.648.705Zm12.485 2v-17.455h2.591v2.728h.227c.364-.932.951-1.656 1.762-2.171.81-.522 1.784-.784 2.92-.784 1.152 0 2.11.262 2.875.784.773.515 1.375 1.239 1.807 2.171h.182a5.08 5.08 0 0 1 2.011-2.148c.894-.538 1.966-.807 3.216-.807 1.561 0 2.837.489 3.83 1.466.992.97 1.488 2.481 1.488 4.534V305h-2.681v-11.682c0-1.288-.353-2.208-1.057-2.761-.705-.553-1.534-.83-2.489-.83-1.227 0-2.178.371-2.852 1.114-.674.735-1.012 1.667-1.012 2.795V305h-2.727v-11.955c0-.992-.322-1.791-.966-2.397-.644-.614-1.473-.921-2.488-.921a3.68 3.68 0 0 0-1.955.557 4.199 4.199 0 0 0-1.454 1.546c-.364.651-.546 1.405-.546 2.261V305h-2.682Zm35.131.364c-1.682 0-3.133-.372-4.352-1.114-1.212-.75-2.148-1.795-2.807-3.136-.652-1.349-.977-2.917-.977-4.705 0-1.788.325-3.364.977-4.727.659-1.371 1.576-2.44 2.75-3.205 1.182-.772 2.56-1.159 4.136-1.159.909 0 1.807.152 2.693.455a6.664 6.664 0 0 1 2.421 1.477c.727.674 1.307 1.568 1.739 2.682.431 1.113.647 2.485.647 4.113v1.137h-13.454v-2.318h10.727c0-.985-.197-1.864-.591-2.637a4.451 4.451 0 0 0-1.659-1.829c-.712-.447-1.553-.671-2.523-.671-1.068 0-1.992.265-2.772.796a5.228 5.228 0 0 0-1.785 2.045 6.02 6.02 0 0 0-.625 2.705v1.545c0 1.318.228 2.436.682 3.352.462.91 1.103 1.603 1.921 2.08.818.47 1.769.705 2.852.705.705 0 1.341-.099 1.909-.296a4.075 4.075 0 0 0 1.489-.909 4.15 4.15 0 0 0 .966-1.523l2.591.728a5.765 5.765 0 0 1-1.375 2.318c-.644.659-1.44 1.174-2.387 1.545-.947.364-2.011.546-3.193.546Zm19.534-24.728-7.5 27.864h-2.454l7.5-27.864h2.454ZM268.381 305v-23.273h14.045v2.5h-11.227v7.864h10.5v2.5h-10.5v7.909h11.409v2.5h-14.227Zm18.761 0v-17.455h2.591v2.728h.227c.364-.932.951-1.656 1.762-2.171.81-.522 1.784-.784 2.92-.784 1.152 0 2.11.262 2.875.784.773.515 1.375 1.239 1.807 2.171h.182a5.08 5.08 0 0 1 2.011-2.148c.894-.538 1.966-.807 3.216-.807 1.561 0 2.837.489 3.829 1.466.993.97 1.489 2.481 1.489 4.534V305h-2.682v-11.682c0-1.288-.352-2.208-1.057-2.761-.704-.553-1.534-.83-2.488-.83-1.227 0-2.178.371-2.852 1.114-.675.735-1.012 1.667-1.012 2.795V305h-2.727v-11.955c0-.992-.322-1.791-.966-2.397-.644-.614-1.473-.921-2.489-.921-.697 0-1.348.186-1.954.557a4.201 4.201 0 0 0-1.455 1.546c-.363.651-.545 1.405-.545 2.261V305h-2.682Zm32.949.409c-1.106 0-2.11-.208-3.011-.625a5.164 5.164 0 0 1-2.148-1.829c-.53-.803-.796-1.773-.796-2.91 0-1 .197-1.81.591-2.431a4.173 4.173 0 0 1 1.58-1.478 8.287 8.287 0 0 1 2.182-.795 26.441 26.441 0 0 1 2.42-.432c1.061-.136 1.921-.239 2.58-.307.666-.075 1.151-.2 1.454-.375.311-.174.466-.477.466-.909v-.091c0-1.121-.307-1.992-.92-2.613-.606-.622-1.527-.932-2.762-.932-1.28 0-2.284.28-3.011.841-.727.56-1.239 1.159-1.534 1.795l-2.546-.909c.455-1.061 1.061-1.886 1.819-2.477a6.804 6.804 0 0 1 2.5-1.25 10.353 10.353 0 0 1 2.681-.364c.561 0 1.205.068 1.932.205a6.17 6.17 0 0 1 2.125.807c.69.409 1.262 1.026 1.716 1.852.455.826.682 1.932.682 3.318V305h-2.682v-2.364h-.136c-.182.379-.485.784-.909 1.216-.425.432-.989.8-1.694 1.103-.704.303-1.564.454-2.579.454ZM320.5 303c1.061 0 1.955-.208 2.682-.625.735-.417 1.288-.955 1.659-1.614a4.108 4.108 0 0 0 .568-2.079v-2.455c-.114.137-.364.262-.75.375a12.59 12.59 0 0 1-1.318.284c-.493.076-.974.144-1.443.205-.462.053-.837.098-1.125.136-.697.091-1.349.239-1.955.443-.598.197-1.083.497-1.454.898-.364.394-.546.932-.546 1.614 0 .932.345 1.636 1.034 2.113.697.47 1.58.705 2.648.705Zm12.486 2v-17.455h2.682V305h-2.682Zm1.363-20.364c-.522 0-.973-.178-1.352-.534a1.716 1.716 0 0 1-.557-1.284c0-.5.186-.928.557-1.284.379-.356.83-.534 1.352-.534.523 0 .97.178 1.341.534.379.356.569.784.569 1.284s-.19.928-.569 1.284a1.867 1.867 0 0 1-1.341.534Zm8.912-2.909V305h-2.681v-23.273h2.681ZM102.655 214v-30.545h6.458v25.22h13.095V214h-19.553Zm34.061.447c-2.316 0-4.32-.492-6.01-1.476-1.681-.994-2.978-2.377-3.893-4.146-.915-1.78-1.372-3.843-1.372-6.19 0-2.367.457-4.435 1.372-6.205.915-1.779 2.212-3.162 3.893-4.146 1.69-.994 3.694-1.491 6.01-1.491 2.317 0 4.316.497 5.996 1.491 1.691.984 2.993 2.367 3.908 4.146.915 1.77 1.372 3.838 1.372 6.205 0 2.347-.457 4.41-1.372 6.19-.915 1.769-2.217 3.152-3.908 4.146-1.68.984-3.679 1.476-5.996 1.476Zm.03-4.921c1.054 0 1.934-.299 2.64-.895.706-.607 1.238-1.432 1.596-2.476.368-1.044.552-2.232.552-3.565 0-1.332-.184-2.52-.552-3.564-.358-1.044-.89-1.87-1.596-2.476-.706-.607-1.586-.91-2.64-.91-1.064 0-1.959.303-2.684.91-.716.606-1.258 1.432-1.626 2.476-.358 1.044-.537 2.232-.537 3.564 0 1.333.179 2.521.537 3.565.368 1.044.91 1.869 1.626 2.476.725.596 1.62.895 2.684.895Zm34.438-11.902-5.816.358a3.004 3.004 0 0 0-.642-1.343 3.4 3.4 0 0 0-1.297-.969c-.527-.249-1.159-.373-1.894-.373-.985 0-1.815.209-2.491.626-.676.408-1.014.955-1.014 1.641 0 .547.218 1.009.656 1.387.437.378 1.188.681 2.252.91l4.146.835c2.228.457 3.888 1.193 4.982 2.207 1.094 1.015 1.641 2.347 1.641 3.998 0 1.501-.443 2.818-1.328 3.952-.875 1.134-2.078 2.018-3.609 2.655-1.522.626-3.277.939-5.265.939-3.033 0-5.449-.631-7.249-1.894-1.79-1.272-2.839-3.003-3.147-5.19l6.249-.328c.189.925.647 1.63 1.373 2.118.725.477 1.655.716 2.789.716 1.113 0 2.008-.214 2.684-.642.686-.437 1.034-.999 1.044-1.685-.01-.577-.253-1.049-.73-1.417-.478-.378-1.213-.666-2.208-.865l-3.967-.791c-2.237-.447-3.903-1.223-4.997-2.326-1.083-1.104-1.625-2.511-1.625-4.221 0-1.472.397-2.739 1.193-3.803.805-1.064 1.934-1.885 3.386-2.461 1.461-.577 3.171-.865 5.13-.865 2.894 0 5.171.611 6.831 1.834 1.671 1.223 2.645 2.889 2.923 4.997Zm16.709-6.533v4.773h-13.796v-4.773h13.796Zm-10.664-5.489h6.353v21.358c0 .587.09 1.044.269 1.372.179.319.427.542.746.672.328.129.706.193 1.133.193.298 0 .597-.024.895-.074.298-.06.527-.105.686-.134l.999 4.728c-.318.099-.765.213-1.342.343-.577.139-1.278.223-2.103.253-1.531.06-2.874-.144-4.027-.611-1.143-.468-2.033-1.193-2.67-2.178-.636-.984-.949-2.227-.939-3.729v-22.193Zm22.853-2.147h7.234l6.965 13.154h.298l6.965-13.154h7.234l-11.141 19.747V214h-6.414v-10.798l-11.141-19.747Zm37.656 30.992c-2.317 0-4.32-.492-6.011-1.476-1.68-.994-2.978-2.377-3.892-4.146-.915-1.78-1.373-3.843-1.373-6.19 0-2.367.458-4.435 1.373-6.205.914-1.779 2.212-3.162 3.892-4.146 1.691-.994 3.694-1.491 6.011-1.491s4.315.497 5.996 1.491c1.69.984 2.993 2.367 3.907 4.146.915 1.77 1.372 3.838 1.372 6.205 0 2.347-.457 4.41-1.372 6.19-.914 1.769-2.217 3.152-3.907 4.146-1.681.984-3.679 1.476-5.996 1.476Zm.03-4.921c1.054 0 1.934-.299 2.64-.895.706-.607 1.238-1.432 1.596-2.476.367-1.044.551-2.232.551-3.565 0-1.332-.184-2.52-.551-3.564-.358-1.044-.89-1.87-1.596-2.476-.706-.607-1.586-.91-2.64-.91-1.064 0-1.959.303-2.685.91-.716.606-1.258 1.432-1.626 2.476-.358 1.044-.537 2.232-.537 3.564 0 1.333.179 2.521.537 3.565.368 1.044.91 1.869 1.626 2.476.726.596 1.621.895 2.685.895Zm30.068-5.28v-13.155h6.354V214h-6.101v-4.161h-.238a6.763 6.763 0 0 1-2.58 3.236c-1.194.816-2.65 1.223-4.37 1.223-1.532 0-2.879-.348-4.042-1.044-1.164-.696-2.073-1.685-2.73-2.968-.646-1.282-.974-2.819-.984-4.608v-14.587h6.354v13.453c.01 1.352.372 2.421 1.088 3.207.716.785 1.676 1.178 2.879 1.178.766 0 1.481-.174 2.148-.522.666-.358 1.203-.885 1.61-1.581.418-.696.622-1.556.612-2.58ZM279.272 214v-22.909h6.16v3.997h.238c.418-1.422 1.119-2.496 2.103-3.222.985-.735 2.118-1.103 3.401-1.103.318 0 .661.02 1.029.059.368.04.691.095.969.165v5.637a8.292 8.292 0 0 0-1.238-.238 11.054 11.054 0 0 0-1.446-.105c-.935 0-1.77.204-2.506.612a4.497 4.497 0 0 0-1.73 1.67c-.418.716-.626 1.541-.626 2.476V214h-6.354Zm27.025 0v-30.545h12.052c2.316 0 4.29.442 5.921 1.327 1.63.875 2.873 2.093 3.728 3.654.865 1.551 1.298 3.341 1.298 5.369 0 2.029-.438 3.819-1.313 5.37-.875 1.551-2.142 2.759-3.803 3.624-1.65.865-3.649 1.298-5.996 1.298h-7.681v-5.176h6.637c1.243 0 2.267-.214 3.073-.641.815-.438 1.422-1.039 1.819-1.805.408-.775.612-1.665.612-2.67 0-1.014-.204-1.899-.612-2.654-.397-.766-1.004-1.358-1.819-1.775-.815-.428-1.85-.642-3.102-.642h-4.355V214h-6.459Zm32.992.433c-1.462 0-2.764-.254-3.908-.761-1.143-.517-2.048-1.278-2.714-2.282-.657-1.014-.985-2.277-.985-3.788 0-1.273.234-2.342.701-3.207a5.685 5.685 0 0 1 1.909-2.088 9.26 9.26 0 0 1 2.745-1.193 20.815 20.815 0 0 1 3.251-.567 82.495 82.495 0 0 0 3.222-.388c.815-.129 1.407-.318 1.775-.567.368-.248.551-.616.551-1.103v-.09c0-.944-.298-1.675-.894-2.192-.587-.517-1.422-.776-2.506-.776-1.144 0-2.053.254-2.73.761-.676.497-1.123 1.123-1.342 1.879l-5.876-.477c.298-1.392.885-2.595 1.76-3.61.875-1.024 2.003-1.809 3.385-2.356 1.392-.557 3.003-.835 4.833-.835 1.272 0 2.49.149 3.654.447 1.173.298 2.212.761 3.117 1.387a6.748 6.748 0 0 1 2.163 2.416c.527.975.79 2.143.79 3.505V214h-6.025v-3.177h-.179a6.46 6.46 0 0 1-1.477 1.894c-.616.537-1.357.96-2.222 1.268-.865.298-1.865.448-2.998.448Zm1.819-4.385c.935 0 1.76-.184 2.476-.552.716-.378 1.278-.885 1.686-1.522.407-.636.611-1.357.611-2.162v-2.431a3.439 3.439 0 0 1-.82.358c-.338.099-.721.194-1.149.283-.427.08-.855.154-1.282.224-.428.059-.816.114-1.164.164-.745.109-1.397.283-1.953.522-.557.238-.99.562-1.298.969-.308.398-.462.895-.462 1.492 0 .865.313 1.526.939 1.983.637.448 1.442.672 2.416.672Zm35.073-12.424-5.817.358a3.004 3.004 0 0 0-.642-1.343 3.4 3.4 0 0 0-1.297-.969c-.527-.249-1.158-.373-1.894-.373-.985 0-1.815.209-2.491.626-.676.408-1.014.955-1.014 1.641 0 .547.218 1.009.656 1.387.437.378 1.188.681 2.252.91l4.146.835c2.228.457 3.888 1.193 4.982 2.207 1.094 1.015 1.641 2.347 1.641 3.998 0 1.501-.443 2.818-1.328 3.952-.875 1.134-2.078 2.018-3.609 2.655-1.522.626-3.276.939-5.265.939-3.033 0-5.449-.631-7.249-1.894-1.789-1.272-2.838-3.003-3.147-5.19l6.25-.328c.189.925.646 1.63 1.372 2.118.726.477 1.655.716 2.789.716 1.113 0 2.008-.214 2.684-.642.687-.437 1.035-.999 1.044-1.685-.009-.577-.253-1.049-.73-1.417-.478-.378-1.213-.666-2.208-.865l-3.967-.791c-2.237-.447-3.903-1.223-4.996-2.326-1.084-1.104-1.626-2.511-1.626-4.221 0-1.472.398-2.739 1.193-3.803.805-1.064 1.934-1.885 3.386-2.461 1.461-.577 3.172-.865 5.13-.865 2.894 0 5.171.611 6.831 1.834 1.671 1.223 2.645 2.889 2.924 4.997Zm23.584 0-5.817.358a3.004 3.004 0 0 0-.642-1.343 3.4 3.4 0 0 0-1.297-.969c-.527-.249-1.159-.373-1.894-.373-.985 0-1.815.209-2.491.626-.676.408-1.014.955-1.014 1.641 0 .547.218 1.009.656 1.387.437.378 1.188.681 2.252.91l4.146.835c2.228.457 3.888 1.193 4.982 2.207 1.094 1.015 1.641 2.347 1.641 3.998 0 1.501-.443 2.818-1.328 3.952-.875 1.134-2.078 2.018-3.609 2.655-1.522.626-3.276.939-5.265.939-3.033 0-5.449-.631-7.249-1.894-1.789-1.272-2.838-3.003-3.147-5.19l6.25-.328c.188.925.646 1.63 1.372 2.118.726.477 1.655.716 2.789.716 1.113 0 2.008-.214 2.684-.642.687-.437 1.035-.999 1.044-1.685-.009-.577-.253-1.049-.73-1.417-.478-.378-1.213-.666-2.208-.865l-3.967-.791c-2.237-.447-3.903-1.223-4.997-2.326-1.083-1.104-1.625-2.511-1.625-4.221 0-1.472.398-2.739 1.193-3.803.805-1.064 1.934-1.885 3.386-2.461 1.461-.577 3.171-.865 5.13-.865 2.894 0 5.171.611 6.831 1.834 1.671 1.223 2.645 2.889 2.924 4.997ZM408.807 214l-6.235-22.909h6.429l3.549 15.392h.209l3.699-15.392h6.309l3.758 15.302h.194l3.49-15.302h6.414L430.403 214h-6.726l-3.938-14.408h-.283L415.518 214h-6.711Zm40.982.447c-2.317 0-4.321-.492-6.011-1.476-1.68-.994-2.978-2.377-3.893-4.146-.914-1.78-1.372-3.843-1.372-6.19 0-2.367.458-4.435 1.372-6.205.915-1.779 2.213-3.162 3.893-4.146 1.69-.994 3.694-1.491 6.011-1.491 2.316 0 4.315.497 5.995 1.491 1.691.984 2.993 2.367 3.908 4.146.915 1.77 1.372 3.838 1.372 6.205 0 2.347-.457 4.41-1.372 6.19-.915 1.769-2.217 3.152-3.908 4.146-1.68.984-3.679 1.476-5.995 1.476Zm.03-4.921c1.054 0 1.933-.299 2.639-.895.706-.607 1.238-1.432 1.596-2.476.368-1.044.552-2.232.552-3.565 0-1.332-.184-2.52-.552-3.564-.358-1.044-.89-1.87-1.596-2.476-.706-.607-1.585-.91-2.639-.91-1.064 0-1.959.303-2.685.91-.716.606-1.258 1.432-1.626 2.476-.358 1.044-.537 2.232-.537 3.564 0 1.333.179 2.521.537 3.565.368 1.044.91 1.869 1.626 2.476.726.596 1.621.895 2.685.895ZM465.196 214v-22.909h6.159v3.997h.239c.418-1.422 1.119-2.496 2.103-3.222.984-.735 2.118-1.103 3.401-1.103.318 0 .661.02 1.029.059.368.04.691.095.969.165v5.637a8.292 8.292 0 0 0-1.238-.238 11.054 11.054 0 0 0-1.446-.105c-.935 0-1.77.204-2.506.612a4.49 4.49 0 0 0-1.73 1.67c-.418.716-.627 1.541-.627 2.476V214h-6.353Zm24.561.373c-1.74 0-3.316-.448-4.728-1.342-1.402-.905-2.516-2.233-3.341-3.983-.816-1.76-1.223-3.917-1.223-6.473 0-2.625.422-4.807 1.267-6.547.846-1.75 1.969-3.058 3.371-3.923a8.637 8.637 0 0 1 4.639-1.312c1.282 0 2.351.218 3.206.656.865.427 1.561.964 2.088 1.611.537.636.945 1.262 1.223 1.879h.194v-11.484h6.339V214h-6.264v-3.669h-.269c-.298.636-.72 1.268-1.267 1.894-.537.617-1.238 1.129-2.103 1.536-.855.408-1.899.612-3.132.612Zm2.013-5.056c1.024 0 1.889-.279 2.595-.835.716-.567 1.263-1.358 1.641-2.372.388-1.014.582-2.202.582-3.565 0-1.362-.189-2.545-.567-3.549-.378-1.005-.925-1.78-1.641-2.327-.716-.547-1.586-.82-2.61-.82-1.044 0-1.924.283-2.64.85-.716.567-1.258 1.352-1.626 2.356-.367 1.005-.551 2.168-.551 3.49 0 1.333.184 2.511.551 3.535.378 1.014.92 1.81 1.626 2.387.716.566 1.596.85 2.64.85Zm21.705-4.475v-.507c.01-1.74.164-3.127.462-4.161.308-1.034.756-1.869 1.342-2.506a10.307 10.307 0 0 1 2.118-1.73c.617-.398 1.169-.81 1.656-1.238.487-.427.875-.9 1.163-1.417a3.597 3.597 0 0 0 .433-1.76c0-.686-.164-1.287-.492-1.804a3.28 3.28 0 0 0-1.328-1.193 3.943 3.943 0 0 0-1.819-.418c-.647 0-1.258.144-1.835.432a3.512 3.512 0 0 0-1.417 1.253c-.368.547-.567 1.228-.596 2.044h-6.086c.05-1.989.527-3.63 1.432-4.922.905-1.303 2.103-2.272 3.595-2.909 1.491-.646 3.137-.969 4.936-.969 1.979 0 3.729.328 5.25.984 1.522.647 2.715 1.586 3.58 2.819.865 1.233 1.298 2.72 1.298 4.46 0 1.163-.194 2.197-.582 3.102a7.56 7.56 0 0 1-1.596 2.386 12.362 12.362 0 0 1-2.431 1.865c-.786.467-1.432.954-1.939 1.461a4.977 4.977 0 0 0-1.119 1.76c-.238.666-.363 1.487-.373 2.461v.507h-5.652Zm2.953 9.546a3.503 3.503 0 0 1-2.551-1.044c-.696-.706-1.039-1.551-1.029-2.536-.01-.974.333-1.809 1.029-2.505a3.503 3.503 0 0 1 2.551-1.044c.945 0 1.775.348 2.491 1.044.716.696 1.079 1.531 1.088 2.505a3.454 3.454 0 0 1-.522 1.805c-.328.537-.76.969-1.297 1.298a3.393 3.393 0 0 1-1.76.477Z"/></svg>