<svg xmlns="http://www.w3.org/2000/svg" width="1000" height="700" fill="none" viewBox="0 0 1000 700"><path fill="#fff" d="M0 0h1000v700H0z"/><g clip-path="url(#a)"><path fill="#fff" d="M100 100h800v500H100z"/><path fill="#888" d="M119.225 119.239c-.119-1.203-.631-2.137-1.536-2.804-.905-.666-2.133-.999-3.684-.999-1.054 0-1.944.149-2.67.448-.726.288-1.282.691-1.67 1.208a2.905 2.905 0 0 0-.567 1.76c-.02.546.094 1.024.343 1.431.259.408.612.761 1.059 1.059a8 8 0 0 0 1.551.761 16.04 16.04 0 0 0 1.879.537l2.745.656c1.332.298 2.555.696 3.669 1.193 1.113.498 2.078 1.109 2.893 1.835a7.613 7.613 0 0 1 1.894 2.565c.458.985.691 2.113.701 3.386-.01 1.869-.487 3.49-1.431 4.862-.935 1.362-2.287 2.421-4.057 3.177-1.76.746-3.883 1.119-6.369 1.119-2.466 0-4.613-.378-6.443-1.134-1.82-.756-3.242-1.874-4.266-3.356-1.014-1.491-1.546-3.336-1.596-5.533h6.25c.069 1.024.363 1.879.88 2.565.527.676 1.228 1.188 2.103 1.536.885.338 1.884.507 2.998.507 1.093 0 2.043-.159 2.848-.477.816-.318 1.447-.76 1.894-1.327a3.063 3.063 0 0 0 .672-1.954c0-.686-.204-1.263-.612-1.73-.398-.468-.984-.865-1.76-1.193-.765-.328-1.705-.627-2.819-.895l-3.326-.835c-2.575-.627-4.608-1.606-6.1-2.939-1.491-1.332-2.232-3.127-2.222-5.384-.01-1.849.482-3.465 1.476-4.847 1.005-1.382 2.382-2.461 4.132-3.237 1.75-.775 3.738-1.163 5.966-1.163 2.267 0 4.245.388 5.936 1.163 1.7.776 3.023 1.855 3.967 3.237.945 1.382 1.432 2.983 1.462 4.802h-6.19ZM130.057 141v-22.909h6.354V141h-6.354Zm3.192-25.862c-.945 0-1.755-.313-2.431-.94-.667-.636-1-1.397-1-2.282 0-.875.333-1.626 1-2.252.676-.636 1.486-.954 2.431-.954.944 0 1.75.318 2.416.954.676.626 1.014 1.377 1.014 2.252 0 .885-.338 1.646-1.014 2.282-.666.627-1.472.94-2.416.94Zm18.572 34.93c-2.058 0-3.823-.283-5.294-.85-1.462-.557-2.625-1.317-3.49-2.282-.865-.964-1.427-2.048-1.686-3.251l5.877-.791c.179.458.462.885.85 1.283.388.398.9.716 1.536.954.646.249 1.432.373 2.357.373 1.382 0 2.52-.338 3.415-1.014.905-.666 1.357-1.785 1.357-3.356v-4.191h-.268c-.279.637-.696 1.238-1.253 1.805-.557.567-1.273 1.029-2.148 1.387-.875.358-1.919.537-3.132.537-1.72 0-3.286-.398-4.698-1.193-1.402-.806-2.521-2.034-3.356-3.684-.825-1.661-1.238-3.759-1.238-6.294 0-2.595.423-4.763 1.268-6.503.845-1.74 1.969-3.043 3.371-3.908a8.71 8.71 0 0 1 4.638-1.297c1.283 0 2.357.218 3.222.656.865.427 1.561.964 2.088 1.611.537.636.949 1.262 1.238 1.879h.238v-3.848h6.309v23.133c0 1.949-.477 3.579-1.431 4.892-.955 1.312-2.277 2.297-3.968 2.953-1.68.666-3.614.999-5.802.999Zm.135-14.169c1.024 0 1.889-.253 2.595-.761.716-.517 1.263-1.252 1.64-2.207.388-.964.582-2.118.582-3.46s-.189-2.506-.567-3.49c-.378-.994-.924-1.765-1.64-2.312-.716-.547-1.586-.82-2.61-.82-1.044 0-1.924.283-2.64.85-.716.557-1.258 1.332-1.626 2.327-.368.994-.552 2.142-.552 3.445 0 1.322.184 2.466.552 3.43.378.955.92 1.696 1.626 2.223.716.517 1.596.775 2.64.775Zm22.476-8.143V141h-6.354v-22.909h6.056v4.042h.268a6.388 6.388 0 0 1 2.551-3.162c1.193-.786 2.64-1.178 4.34-1.178 1.591 0 2.978.348 4.161 1.044 1.183.696 2.103 1.69 2.759 2.983.657 1.282.985 2.814.985 4.593V141h-6.354v-13.453c.01-1.402-.348-2.496-1.074-3.281-.726-.796-1.725-1.194-2.998-1.194-.855 0-1.61.184-2.267.552-.646.368-1.153.905-1.521 1.611-.358.696-.542 1.536-.552 2.521Zm36.072-17.301V141h-6.459v-30.545h6.459Zm11.547 17.301V141h-6.353v-22.909h6.055v4.042h.268a6.393 6.393 0 0 1 2.551-3.162c1.193-.786 2.64-1.178 4.34-1.178 1.591 0 2.978.348 4.161 1.044 1.184.696 2.103 1.69 2.76 2.983.656 1.282.984 2.814.984 4.593V141h-6.354v-13.453c.01-1.402-.348-2.496-1.074-3.281-.725-.796-1.725-1.194-2.997-1.194-.856 0-1.611.184-2.268.552-.646.368-1.153.905-1.521 1.611-.358.696-.542 1.536-.552 2.521Z"/><path fill="#D5D5D5" d="M100 253h801v72H100z"/><path fill="#888" d="M118.091 201.727h2.818v15.409c0 1.591-.375 3.012-1.125 4.262-.742 1.242-1.792 2.223-3.148 2.943-1.356.712-2.947 1.068-4.772 1.068-1.826 0-3.417-.356-4.773-1.068-1.356-.72-2.409-1.701-3.159-2.943-.743-1.25-1.114-2.671-1.114-4.262v-15.409h2.818v15.182c0 1.136.25 2.148.75 3.034.5.879 1.212 1.572 2.137 2.08.932.5 2.045.75 3.341.75 1.295 0 2.409-.25 3.341-.75.931-.508 1.643-1.201 2.136-2.08.5-.886.75-1.898.75-3.034v-15.182Zm20.446 9.728-2.409.681a4.485 4.485 0 0 0-.671-1.17c-.287-.386-.681-.705-1.181-.955s-1.141-.375-1.921-.375c-1.068 0-1.958.247-2.67.739-.705.485-1.057 1.102-1.057 1.852 0 .667.242 1.193.727 1.58.485.386 1.243.708 2.273.966l2.591.636c1.56.379 2.723.958 3.488 1.739.766.772 1.148 1.769 1.148 2.988 0 1-.288 1.894-.864 2.682-.568.788-1.363 1.409-2.386 1.864-1.023.454-2.212.682-3.568.682-1.78 0-3.254-.387-4.421-1.159-1.166-.773-1.905-1.902-2.215-3.387l2.545-.636c.242.939.701 1.644 1.375 2.113.682.47 1.572.705 2.67.705 1.25 0 2.243-.265 2.978-.795.742-.538 1.113-1.182 1.113-1.932 0-.606-.212-1.114-.636-1.523-.424-.417-1.076-.727-1.955-.932l-2.909-.682c-1.598-.378-2.772-.966-3.522-1.761-.743-.803-1.114-1.807-1.114-3.011 0-.985.277-1.856.83-2.614.56-.758 1.322-1.352 2.284-1.784.969-.432 2.068-.648 3.295-.648 1.727 0 3.083.379 4.068 1.137.993.757 1.697 1.757 2.114 3Zm11.673 13.909c-1.682 0-3.132-.372-4.352-1.114-1.212-.75-2.148-1.795-2.807-3.136-.651-1.349-.977-2.917-.977-4.705 0-1.788.326-3.364.977-4.727.659-1.371 1.576-2.44 2.75-3.205 1.182-.772 2.561-1.159 4.137-1.159.909 0 1.806.152 2.693.455a6.668 6.668 0 0 1 2.42 1.477c.727.674 1.307 1.568 1.739 2.682.432 1.113.648 2.485.648 4.113v1.137h-13.455v-2.318h10.727c0-.985-.197-1.864-.591-2.637a4.451 4.451 0 0 0-1.659-1.829c-.712-.447-1.553-.671-2.522-.671-1.069 0-1.993.265-2.773.796a5.218 5.218 0 0 0-1.784 2.045 6.007 6.007 0 0 0-.625 2.705v1.545c0 1.318.227 2.436.682 3.352.462.91 1.102 1.603 1.92 2.08.818.47 1.769.705 2.852.705.705 0 1.341-.099 1.909-.296a4.075 4.075 0 0 0 1.489-.909c.417-.409.739-.917.966-1.523l2.591.728a5.754 5.754 0 0 1-1.375 2.318c-.644.659-1.44 1.174-2.387 1.545-.947.364-2.011.546-3.193.546Zm11.307-.364v-17.455h2.591v2.637h.182c.318-.864.894-1.565 1.727-2.102.833-.538 1.773-.807 2.818-.807.197 0 .443.004.739.011.295.008.519.019.67.034v2.727a8.704 8.704 0 0 0-.625-.102 6.15 6.15 0 0 0-1.011-.079c-.849 0-1.606.178-2.273.534a4.023 4.023 0 0 0-1.568 1.454c-.379.614-.568 1.315-.568 2.103V225h-2.682Zm14.588-10.5V225h-2.682v-17.455h2.591v2.728h.227a4.992 4.992 0 0 1 1.864-2.137c.833-.545 1.909-.818 3.227-.818 1.182 0 2.216.243 3.103.727.886.478 1.575 1.205 2.068 2.182.492.97.738 2.197.738 3.682V225h-2.681v-10.909c0-1.371-.356-2.439-1.069-3.205-.712-.772-1.689-1.159-2.931-1.159-.856 0-1.622.186-2.296.557-.666.371-1.193.913-1.579 1.625-.387.712-.58 1.576-.58 2.591Zm21.173 10.909c-1.106 0-2.109-.208-3.011-.625a5.176 5.176 0 0 1-2.148-1.829c-.53-.803-.795-1.773-.795-2.91 0-1 .197-1.81.591-2.431a4.17 4.17 0 0 1 1.579-1.478 8.3 8.3 0 0 1 2.182-.795c.803-.182 1.61-.326 2.421-.432 1.06-.136 1.92-.239 2.579-.307.667-.075 1.152-.2 1.455-.375.31-.174.466-.477.466-.909v-.091c0-1.121-.307-1.992-.921-2.613-.606-.622-1.526-.932-2.761-.932-1.281 0-2.284.28-3.012.841-.727.56-1.238 1.159-1.534 1.795l-2.545-.909c.454-1.061 1.06-1.886 1.818-2.477a6.811 6.811 0 0 1 2.5-1.25 10.355 10.355 0 0 1 2.682-.364c.56 0 1.204.068 1.932.205a6.17 6.17 0 0 1 2.125.807c.689.409 1.261 1.026 1.716 1.852.454.826.681 1.932.681 3.318V225h-2.681v-2.364h-.137c-.182.379-.485.784-.909 1.216-.424.432-.988.8-1.693 1.103-.705.303-1.564.454-2.58.454Zm.41-2.409c1.06 0 1.954-.208 2.681-.625.735-.417 1.288-.955 1.659-1.614a4.11 4.11 0 0 0 .569-2.079v-2.455c-.114.137-.364.262-.75.375-.379.106-.819.201-1.319.284-.492.076-.973.144-1.443.205-.462.053-.837.098-1.125.136-.697.091-1.348.239-1.954.443-.599.197-1.084.497-1.455.898-.363.394-.545.932-.545 1.614 0 .932.344 1.636 1.034 2.113.697.47 1.579.705 2.648.705Zm12.485 2v-17.455h2.591v2.728h.227c.364-.932.951-1.656 1.762-2.171.81-.522 1.784-.784 2.92-.784 1.152 0 2.11.262 2.875.784.773.515 1.375 1.239 1.807 2.171h.182a5.08 5.08 0 0 1 2.011-2.148c.894-.538 1.966-.807 3.216-.807 1.561 0 2.837.489 3.83 1.466.992.97 1.488 2.481 1.488 4.534V225h-2.681v-11.682c0-1.288-.353-2.208-1.057-2.761-.705-.553-1.534-.83-2.489-.83-1.227 0-2.178.371-2.852 1.114-.674.735-1.012 1.667-1.012 2.795V225h-2.727v-11.955c0-.992-.322-1.791-.966-2.397-.644-.614-1.473-.921-2.488-.921a3.68 3.68 0 0 0-1.955.557 4.199 4.199 0 0 0-1.454 1.546c-.364.651-.546 1.405-.546 2.261V225h-2.682Zm35.131.364c-1.682 0-3.133-.372-4.352-1.114-1.212-.75-2.148-1.795-2.807-3.136-.652-1.349-.977-2.917-.977-4.705 0-1.788.325-3.364.977-4.727.659-1.371 1.576-2.44 2.75-3.205 1.182-.772 2.56-1.159 4.136-1.159.909 0 1.807.152 2.693.455a6.664 6.664 0 0 1 2.421 1.477c.727.674 1.307 1.568 1.739 2.682.431 1.113.647 2.485.647 4.113v1.137h-13.454v-2.318h10.727c0-.985-.197-1.864-.591-2.637a4.451 4.451 0 0 0-1.659-1.829c-.712-.447-1.553-.671-2.523-.671-1.068 0-1.992.265-2.772.796a5.228 5.228 0 0 0-1.785 2.045 6.02 6.02 0 0 0-.625 2.705v1.545c0 1.318.228 2.436.682 3.352.462.91 1.103 1.603 1.921 2.08.818.47 1.769.705 2.852.705.705 0 1.341-.099 1.909-.296a4.075 4.075 0 0 0 1.489-.909 4.15 4.15 0 0 0 .966-1.523l2.591.728a5.765 5.765 0 0 1-1.375 2.318c-.644.659-1.44 1.174-2.387 1.545-.947.364-2.011.546-3.193.546Z"/><path fill="#D5D5D5" d="M100 414h801v72H100z"/><path fill="#888" d="M102.818 386v-23.273h7.864c1.826 0 3.318.33 4.477.989 1.167.651 2.03 1.534 2.591 2.648.561 1.113.841 2.356.841 3.727s-.28 2.617-.841 3.739c-.553 1.121-1.409 2.015-2.568 2.681-1.159.659-2.644.989-4.455.989h-5.636V375h5.545c1.25 0 2.254-.216 3.012-.648.757-.432 1.307-1.015 1.647-1.75.349-.742.523-1.579.523-2.511 0-.932-.174-1.765-.523-2.5-.34-.735-.893-1.311-1.659-1.727-.765-.425-1.78-.637-3.045-.637h-4.955V386h-2.818Zm25.085.409c-1.106 0-2.109-.208-3.011-.625a5.176 5.176 0 0 1-2.148-1.829c-.53-.803-.795-1.773-.795-2.91 0-1 .197-1.81.591-2.431a4.17 4.17 0 0 1 1.579-1.478 8.3 8.3 0 0 1 2.182-.795c.803-.182 1.61-.326 2.421-.432 1.06-.136 1.92-.239 2.579-.307.667-.075 1.152-.2 1.455-.375.31-.174.466-.477.466-.909v-.091c0-1.121-.307-1.992-.921-2.613-.606-.622-1.526-.932-2.761-.932-1.281 0-2.284.28-3.012.841-.727.56-1.238 1.159-1.534 1.795l-2.545-.909c.454-1.061 1.06-1.886 1.818-2.477a6.811 6.811 0 0 1 2.5-1.25 10.355 10.355 0 0 1 2.682-.364c.56 0 1.204.068 1.932.205a6.17 6.17 0 0 1 2.125.807c.689.409 1.261 1.026 1.716 1.852.454.826.681 1.932.681 3.318V386h-2.681v-2.364h-.137c-.182.379-.485.784-.909 1.216-.424.432-.988.8-1.693 1.103-.705.303-1.564.454-2.58.454Zm.409-2.409c1.061 0 1.955-.208 2.682-.625.735-.417 1.288-.955 1.659-1.614a4.11 4.11 0 0 0 .569-2.079v-2.455c-.114.137-.364.262-.75.375-.379.106-.819.201-1.319.284-.492.076-.973.144-1.443.205-.462.053-.837.098-1.125.136-.697.091-1.348.239-1.954.443-.599.197-1.084.497-1.455.898-.363.394-.545.932-.545 1.614 0 .932.344 1.636 1.034 2.113.697.47 1.579.705 2.647.705Zm24.85-11.545-2.409.681a4.485 4.485 0 0 0-.671-1.17c-.287-.386-.681-.705-1.181-.955s-1.141-.375-1.921-.375c-1.068 0-1.958.247-2.67.739-.705.485-1.057 1.102-1.057 1.852 0 .667.242 1.193.727 1.58.485.386 1.243.708 2.273.966l2.591.636c1.56.379 2.723.958 3.488 1.739.766.772 1.148 1.769 1.148 2.988 0 1-.288 1.894-.864 2.682-.568.788-1.363 1.409-2.386 1.864-1.023.454-2.212.682-3.568.682-1.78 0-3.254-.387-4.421-1.159-1.166-.773-1.905-1.902-2.215-3.387l2.545-.636c.242.939.701 1.644 1.375 2.113.682.47 1.572.705 2.67.705 1.25 0 2.243-.265 2.978-.795.742-.538 1.113-1.182 1.113-1.932 0-.606-.212-1.114-.636-1.523-.424-.417-1.076-.727-1.955-.932l-2.909-.682c-1.598-.378-2.772-.966-3.522-1.761-.743-.803-1.114-1.807-1.114-3.011 0-.985.277-1.856.83-2.614.56-.758 1.322-1.352 2.284-1.784.969-.432 2.068-.648 3.295-.648 1.727 0 3.083.379 4.068 1.137.993.757 1.697 1.757 2.114 3Zm16.719 0-2.409.681a4.485 4.485 0 0 0-.671-1.17c-.288-.386-.682-.705-1.182-.955-.5-.25-1.14-.375-1.92-.375-1.068 0-1.958.247-2.671.739-.704.485-1.056 1.102-1.056 1.852 0 .667.242 1.193.727 1.58.485.386 1.242.708 2.273.966l2.59.636c1.561.379 2.724.958 3.489 1.739.765.772 1.148 1.769 1.148 2.988 0 1-.288 1.894-.864 2.682-.568.788-1.363 1.409-2.386 1.864-1.023.454-2.212.682-3.568.682-1.781 0-3.254-.387-4.421-1.159-1.166-.773-1.905-1.902-2.216-3.387l2.546-.636c.242.939.701 1.644 1.375 2.113.682.47 1.572.705 2.67.705 1.25 0 2.243-.265 2.977-.795.743-.538 1.114-1.182 1.114-1.932 0-.606-.212-1.114-.636-1.523-.424-.417-1.076-.727-1.955-.932l-2.909-.682c-1.598-.378-2.773-.966-3.523-1.761-.742-.803-1.113-1.807-1.113-3.011 0-.985.276-1.856.829-2.614.561-.758 1.322-1.352 2.284-1.784.97-.432 2.069-.648 3.296-.648 1.727 0 3.083.379 4.068 1.137.992.757 1.697 1.757 2.114 3ZM178.19 386l-5.318-17.455h2.818l3.773 13.364h.182l3.727-13.364h2.864l3.682 13.319h.181l3.773-13.319h2.818L191.372 386h-2.636l-3.818-13.409h-.273L180.827 386h-2.637Zm28.543.364c-1.576 0-2.958-.375-4.148-1.125-1.182-.75-2.106-1.8-2.773-3.148-.659-1.349-.988-2.924-.988-4.727 0-1.819.329-3.406.988-4.762.667-1.356 1.591-2.409 2.773-3.159 1.19-.75 2.572-1.125 4.148-1.125 1.576 0 2.955.375 4.136 1.125 1.19.75 2.114 1.803 2.773 3.159.667 1.356 1 2.943 1 4.762 0 1.803-.333 3.378-1 4.727-.659 1.348-1.583 2.398-2.773 3.148-1.181.75-2.56 1.125-4.136 1.125Zm0-2.409c1.197 0 2.182-.307 2.955-.921.772-.614 1.344-1.42 1.715-2.42.372-1 .557-2.084.557-3.25 0-1.167-.185-2.254-.557-3.262-.371-1.007-.943-1.822-1.715-2.443-.773-.621-1.758-.932-2.955-.932s-2.182.311-2.955.932c-.772.621-1.344 1.436-1.716 2.443-.371 1.008-.556 2.095-.556 3.262 0 1.166.185 2.25.556 3.25.372 1 .944 1.806 1.716 2.42.773.614 1.758.921 2.955.921ZM218.736 386v-17.455h2.591v2.637h.182c.318-.864.893-1.565 1.727-2.102.833-.538 1.773-.807 2.818-.807.197 0 .443.004.739.011.295.008.519.019.67.034v2.727a8.704 8.704 0 0 0-.625-.102 6.15 6.15 0 0 0-1.011-.079c-.849 0-1.606.178-2.273.534a4.023 4.023 0 0 0-1.568 1.454c-.379.614-.568 1.315-.568 2.103V386h-2.682Zm17.966.364c-1.455 0-2.739-.368-3.853-1.103-1.113-.742-1.984-1.788-2.613-3.136-.629-1.356-.943-2.958-.943-4.807 0-1.833.314-3.424.943-4.773.629-1.348 1.504-2.39 2.625-3.125 1.121-.734 2.416-1.102 3.886-1.102 1.137 0 2.034.19 2.693.568.667.372 1.175.796 1.523 1.273.356.47.633.856.83 1.159h.227v-8.591h2.682V386h-2.591v-2.682h-.318c-.197.318-.478.72-.841 1.205-.364.477-.883.905-1.557 1.284-.674.371-1.572.557-2.693.557Zm.363-2.409c1.076 0 1.985-.281 2.728-.841.742-.569 1.306-1.353 1.693-2.353.386-1.007.579-2.17.579-3.488 0-1.303-.189-2.443-.568-3.421-.379-.985-.939-1.75-1.682-2.295-.742-.553-1.659-.83-2.75-.83-1.136 0-2.083.292-2.841.875-.75.576-1.314 1.36-1.693 2.353-.371.984-.557 2.09-.557 3.318 0 1.242.19 2.371.569 3.386.386 1.008.954 1.811 1.704 2.409.758.591 1.697.887 2.818.887ZM100 528h173v72H100z"/><path fill="#fff" d="M142.818 575v-23.273h2.818V572.5h10.819v2.5h-13.637Zm24.727.364c-1.575 0-2.958-.375-4.147-1.125-1.182-.75-2.106-1.8-2.773-3.148-.659-1.349-.989-2.924-.989-4.727 0-1.819.33-3.406.989-4.762.667-1.356 1.591-2.409 2.773-3.159 1.189-.75 2.572-1.125 4.147-1.125 1.576 0 2.955.375 4.137 1.125 1.189.75 2.113 1.803 2.773 3.159.666 1.356 1 2.943 1 4.762 0 1.803-.334 3.378-1 4.727-.66 1.348-1.584 2.398-2.773 3.148-1.182.75-2.561 1.125-4.137 1.125Zm0-2.409c1.197 0 2.182-.307 2.955-.921.773-.614 1.345-1.42 1.716-2.42s.557-2.084.557-3.25c0-1.167-.186-2.254-.557-3.262-.371-1.007-.943-1.822-1.716-2.443s-1.758-.932-2.955-.932-2.181.311-2.954.932c-.773.621-1.345 1.436-1.716 2.443-.371 1.008-.557 2.095-.557 3.262 0 1.166.186 2.25.557 3.25.371 1 .943 1.806 1.716 2.42.773.614 1.757.921 2.954.921Zm19.049 8.954c-1.296 0-2.409-.167-3.341-.5-.932-.326-1.708-.757-2.33-1.295-.613-.531-1.102-1.099-1.466-1.705l2.137-1.5c.242.318.549.682.92 1.091.371.417.879.777 1.523 1.08.651.31 1.504.465 2.557.465 1.409 0 2.572-.34 3.488-1.022.917-.682 1.375-1.75 1.375-3.205v-3.545h-.227c-.197.318-.477.712-.841 1.182-.356.462-.871.875-1.545 1.238-.667.356-1.568.534-2.705.534-1.409 0-2.674-.333-3.795-1-1.114-.666-1.996-1.636-2.648-2.909-.644-1.273-.966-2.818-.966-4.636 0-1.788.315-3.345.943-4.671.629-1.333 1.504-2.363 2.625-3.091 1.122-.734 2.417-1.102 3.887-1.102 1.136 0 2.038.19 2.704.568.674.372 1.19.796 1.546 1.273.363.47.644.856.841 1.159h.272v-2.773h2.591V575.5c0 1.5-.341 2.72-1.023 3.659-.674.947-1.583 1.64-2.727 2.08-1.136.447-2.401.67-3.795.67Zm-.091-9.591c1.076 0 1.985-.246 2.727-.738.743-.493 1.307-1.201 1.693-2.125.387-.925.58-2.031.58-3.319 0-1.257-.19-2.367-.568-3.329-.379-.962-.94-1.716-1.682-2.262-.743-.545-1.659-.818-2.75-.818-1.137 0-2.083.288-2.841.864-.75.576-1.314 1.348-1.693 2.318-.371.97-.557 2.046-.557 3.227 0 1.212.189 2.284.568 3.216.386.925.955 1.652 1.705 2.182.757.523 1.697.784 2.818.784Zm24.727-20.591V575h-2.818v-23.273h2.818Zm7.969 12.773V575h-2.682v-17.455h2.591v2.728h.227a4.986 4.986 0 0 1 1.864-2.137c.833-.545 1.909-.818 3.227-.818 1.182 0 2.216.243 3.102.727.887.478 1.576 1.205 2.069 2.182.492.97.738 2.197.738 3.682V575h-2.682v-10.909c0-1.371-.356-2.439-1.068-3.205-.712-.772-1.689-1.159-2.932-1.159-.856 0-1.621.186-2.295.557-.667.371-1.193.913-1.58 1.625-.386.712-.579 1.576-.579 2.591Z"/></g><defs><clipPath id="a"><path fill="#fff" d="M100 100h800v500H100z"/></clipPath></defs></svg>