<svg xmlns="http://www.w3.org/2000/svg" width="1000" height="700" fill="none" viewBox="0 0 1000 700"><path fill="#fff" d="M0 0h1000v700H0z"/><g clip-path="url(#a)"><path fill="#fff" d="M100 100h800v500H100z"/><path fill="#888" d="M100 528h173v72H100z"/><path fill="#fff" d="M142.818 575v-23.273h2.818V572.5h10.819v2.5h-13.637Zm24.727.364c-1.575 0-2.958-.375-4.147-1.125-1.182-.75-2.106-1.8-2.773-3.148-.659-1.349-.989-2.924-.989-4.727 0-1.819.33-3.406.989-4.762.667-1.356 1.591-2.409 2.773-3.159 1.189-.75 2.572-1.125 4.147-1.125 1.576 0 2.955.375 4.137 1.125 1.189.75 2.113 1.803 2.773 3.159.666 1.356 1 2.943 1 4.762 0 1.803-.334 3.378-1 4.727-.66 1.348-1.584 2.398-2.773 3.148-1.182.75-2.561 1.125-4.137 1.125Zm0-2.409c1.197 0 2.182-.307 2.955-.921.773-.614 1.345-1.42 1.716-2.42s.557-2.084.557-3.25c0-1.167-.186-2.254-.557-3.262-.371-1.007-.943-1.822-1.716-2.443s-1.758-.932-2.955-.932-2.181.311-2.954.932c-.773.621-1.345 1.436-1.716 2.443-.371 1.008-.557 2.095-.557 3.262 0 1.166.186 2.25.557 3.25.371 1 .943 1.806 1.716 2.42.773.614 1.757.921 2.954.921Zm19.049 8.954c-1.296 0-2.409-.167-3.341-.5-.932-.326-1.708-.757-2.33-1.295-.613-.531-1.102-1.099-1.466-1.705l2.137-1.5c.242.318.549.682.92 1.091.371.417.879.777 1.523 1.08.651.31 1.504.465 2.557.465 1.409 0 2.572-.34 3.488-1.022.917-.682 1.375-1.75 1.375-3.205v-3.545h-.227c-.197.318-.477.712-.841 1.182-.356.462-.871.875-1.545 1.238-.667.356-1.568.534-2.705.534-1.409 0-2.674-.333-3.795-1-1.114-.666-1.996-1.636-2.648-2.909-.644-1.273-.966-2.818-.966-4.636 0-1.788.315-3.345.943-4.671.629-1.333 1.504-2.363 2.625-3.091 1.122-.734 2.417-1.102 3.887-1.102 1.136 0 2.038.19 2.704.568.674.372 1.19.796 1.546 1.273.363.47.644.856.841 1.159h.272v-2.773h2.591V575.5c0 1.5-.341 2.72-1.023 3.659-.674.947-1.583 1.64-2.727 2.08-1.136.447-2.401.67-3.795.67Zm-.091-9.591c1.076 0 1.985-.246 2.727-.738.743-.493 1.307-1.201 1.693-2.125.387-.925.58-2.031.58-3.319 0-1.257-.19-2.367-.568-3.329-.379-.962-.94-1.716-1.682-2.262-.743-.545-1.659-.818-2.75-.818-1.137 0-2.083.288-2.841.864-.75.576-1.314 1.348-1.693 2.318-.371.97-.557 2.046-.557 3.227 0 1.212.189 2.284.568 3.216.386.925.955 1.652 1.705 2.182.757.523 1.697.784 2.818.784Zm24.727-20.591V575h-2.818v-23.273h2.818Zm7.969 12.773V575h-2.682v-17.455h2.591v2.728h.227a4.986 4.986 0 0 1 1.864-2.137c.833-.545 1.909-.818 3.227-.818 1.182 0 2.216.243 3.102.727.887.478 1.576 1.205 2.069 2.182.492.97.738 2.197.738 3.682V575h-2.682v-10.909c0-1.371-.356-2.439-1.068-3.205-.712-.772-1.689-1.159-2.932-1.159-.856 0-1.621.186-2.295.557-.667.371-1.193.913-1.58 1.625-.386.712-.579 1.576-.579 2.591Z"/><path stroke="#888" d="M500.5 100.5h172v71h-172z"/><path fill="#888" d="M526.818 147v-23.273h7.864c1.818 0 3.31.311 4.477.932 1.167.614 2.03 1.458 2.591 2.534.561 1.076.841 2.299.841 3.671 0 1.371-.28 2.587-.841 3.647-.561 1.061-1.42 1.894-2.58 2.5-1.159.599-2.64.898-4.443.898h-6.363v-2.545h6.272c1.243 0 2.243-.182 3-.546.766-.363 1.319-.879 1.659-1.545.349-.675.523-1.478.523-2.409 0-.932-.174-1.747-.523-2.444-.348-.697-.905-1.234-1.67-1.613-.765-.387-1.777-.58-3.034-.58h-4.955V147h-2.818Zm10.955-10.455L543.5 147h-3.273l-5.636-10.455h3.182Zm16.281 10.819c-1.682 0-3.133-.372-4.352-1.114-1.212-.75-2.148-1.795-2.807-3.136-.652-1.349-.977-2.917-.977-4.705 0-1.788.325-3.364.977-4.727.659-1.371 1.576-2.44 2.75-3.205 1.182-.772 2.56-1.159 4.136-1.159.909 0 1.807.152 2.693.455a6.664 6.664 0 0 1 2.421 1.477c.727.674 1.307 1.568 1.739 2.682.431 1.113.647 2.485.647 4.113v1.137h-13.454v-2.318h10.727c0-.985-.197-1.864-.591-2.637a4.451 4.451 0 0 0-1.659-1.829c-.712-.447-1.553-.671-2.523-.671-1.068 0-1.992.265-2.772.796a5.228 5.228 0 0 0-1.785 2.045 6.02 6.02 0 0 0-.625 2.705v1.545c0 1.318.228 2.436.682 3.352.462.91 1.103 1.603 1.921 2.08.818.47 1.769.705 2.852.705.705 0 1.341-.099 1.909-.296a4.075 4.075 0 0 0 1.489-.909 4.15 4.15 0 0 0 .966-1.523l2.591.728a5.765 5.765 0 0 1-1.375 2.318c-.644.659-1.44 1.174-2.387 1.545-.947.364-2.011.546-3.193.546Zm18.352 6.545c-1.295 0-2.409-.167-3.341-.5-.931-.326-1.708-.757-2.329-1.295a7.104 7.104 0 0 1-1.466-1.705l2.136-1.5c.243.318.549.682.921 1.091.371.417.878.777 1.522 1.08.652.31 1.504.465 2.557.465 1.409 0 2.572-.34 3.489-1.022.917-.682 1.375-1.75 1.375-3.205v-3.545h-.227c-.197.318-.478.712-.841 1.182-.356.462-.872.875-1.546 1.238-.666.356-1.568.534-2.704.534-1.409 0-2.675-.333-3.796-1-1.113-.666-1.996-1.636-2.647-2.909-.644-1.273-.966-2.818-.966-4.636 0-1.788.314-3.345.943-4.671.629-1.333 1.504-2.363 2.625-3.091 1.121-.734 2.416-1.102 3.886-1.102 1.137 0 2.038.19 2.705.568.674.372 1.189.796 1.545 1.273.364.47.644.856.841 1.159h.273v-2.773h2.591V147.5c0 1.5-.341 2.72-1.023 3.659-.674.947-1.583 1.64-2.727 2.08-1.137.447-2.402.67-3.796.67Zm-.091-9.591c1.076 0 1.985-.246 2.728-.738.742-.493 1.306-1.201 1.693-2.125.386-.925.579-2.031.579-3.319 0-1.257-.189-2.367-.568-3.329-.379-.962-.939-1.716-1.682-2.262-.742-.545-1.659-.818-2.75-.818-1.136 0-2.083.288-2.841.864-.75.576-1.314 1.348-1.693 2.318-.371.97-.557 2.046-.557 3.227 0 1.212.19 2.284.569 3.216.386.925.954 1.652 1.704 2.182.758.523 1.697.784 2.818.784ZM584.861 147v-17.455h2.682V147h-2.682Zm1.363-20.364c-.522 0-.973-.178-1.352-.534a1.716 1.716 0 0 1-.557-1.284c0-.5.186-.928.557-1.284.379-.356.83-.534 1.352-.534.523 0 .97.178 1.341.534.379.356.569.784.569 1.284s-.19.928-.569 1.284a1.867 1.867 0 0 1-1.341.534Zm18.594 6.819-2.409.681a4.48 4.48 0 0 0-.67-1.17c-.288-.386-.682-.705-1.182-.955-.5-.25-1.14-.375-1.921-.375-1.068 0-1.958.247-2.67.739-.705.485-1.057 1.102-1.057 1.852 0 .667.243 1.193.727 1.58.485.386 1.243.708 2.273.966l2.591.636c1.561.379 2.723.958 3.489 1.739.765.772 1.147 1.769 1.147 2.988 0 1-.288 1.894-.863 2.682-.568.788-1.364 1.409-2.387 1.864-1.022.454-2.212.682-3.568.682-1.78 0-3.254-.387-4.42-1.159-1.167-.773-1.906-1.902-2.216-3.387l2.545-.636c.243.939.701 1.644 1.375 2.113.682.47 1.572.705 2.671.705 1.25 0 2.242-.265 2.977-.795.742-.538 1.114-1.182 1.114-1.932 0-.606-.212-1.114-.637-1.523-.424-.417-1.075-.727-1.954-.932l-2.909-.682c-1.599-.378-2.773-.966-3.523-1.761-.743-.803-1.114-1.807-1.114-3.011 0-.985.277-1.856.83-2.614.56-.758 1.322-1.352 2.284-1.784.97-.432 2.068-.648 3.295-.648 1.728 0 3.084.379 4.069 1.137.992.757 1.697 1.757 2.113 3Zm11.946-3.91v2.273h-9.045v-2.273h9.045Zm-6.409-4.181h2.682V142c0 .758.11 1.326.329 1.705.228.371.516.621.864.75.356.121.731.181 1.125.181.296 0 .538-.015.727-.045l.455-.091.545 2.409a5.54 5.54 0 0 1-.761.205c-.326.075-.739.113-1.239.113-.757 0-1.5-.163-2.227-.488a4.42 4.42 0 0 1-1.795-1.489c-.47-.667-.705-1.508-.705-2.523v-17.363Zm17.574 22c-1.682 0-3.133-.372-4.352-1.114-1.212-.75-2.148-1.795-2.807-3.136-.652-1.349-.977-2.917-.977-4.705 0-1.788.325-3.364.977-4.727.659-1.371 1.576-2.44 2.75-3.205 1.182-.772 2.56-1.159 4.136-1.159.909 0 1.807.152 2.693.455a6.664 6.664 0 0 1 2.421 1.477c.727.674 1.307 1.568 1.739 2.682.431 1.113.647 2.485.647 4.113v1.137h-13.454v-2.318h10.727c0-.985-.197-1.864-.591-2.637a4.451 4.451 0 0 0-1.659-1.829c-.712-.447-1.553-.671-2.523-.671-1.068 0-1.992.265-2.772.796a5.228 5.228 0 0 0-1.785 2.045 6.02 6.02 0 0 0-.625 2.705v1.545c0 1.318.228 2.436.682 3.352.462.91 1.103 1.603 1.921 2.08.818.47 1.769.705 2.852.705.705 0 1.341-.099 1.909-.296a4.075 4.075 0 0 0 1.489-.909 4.15 4.15 0 0 0 .966-1.523l2.591.728a5.765 5.765 0 0 1-1.375 2.318c-.644.659-1.44 1.174-2.387 1.545-.947.364-2.011.546-3.193.546Zm11.307-.364v-17.455h2.591v2.637h.182c.318-.864.893-1.565 1.727-2.102.833-.538 1.773-.807 2.818-.807.197 0 .443.004.739.011.295.008.519.019.67.034v2.727a8.704 8.704 0 0 0-.625-.102 6.15 6.15 0 0 0-1.011-.079c-.849 0-1.606.178-2.273.534a4.023 4.023 0 0 0-1.568 1.454c-.379.614-.568 1.315-.568 2.103V147h-2.682ZM327 100h173v72H327z"/><path fill="#fff" d="M369.818 147v-23.273h2.818V144.5h10.819v2.5h-13.637Zm24.727.364c-1.575 0-2.958-.375-4.147-1.125-1.182-.75-2.106-1.8-2.773-3.148-.659-1.349-.989-2.924-.989-4.727 0-1.819.33-3.406.989-4.762.667-1.356 1.591-2.409 2.773-3.159 1.189-.75 2.572-1.125 4.147-1.125 1.576 0 2.955.375 4.137 1.125 1.189.75 2.113 1.803 2.773 3.159.666 1.356 1 2.943 1 4.762 0 1.803-.334 3.378-1 4.727-.66 1.348-1.584 2.398-2.773 3.148-1.182.75-2.561 1.125-4.137 1.125Zm0-2.409c1.197 0 2.182-.307 2.955-.921.773-.614 1.345-1.42 1.716-2.42s.557-2.084.557-3.25c0-1.167-.186-2.254-.557-3.262-.371-1.007-.943-1.822-1.716-2.443s-1.758-.932-2.955-.932-2.181.311-2.954.932c-.773.621-1.345 1.436-1.716 2.443-.371 1.008-.557 2.095-.557 3.262 0 1.166.186 2.25.557 3.25.371 1 .943 1.806 1.716 2.42.773.614 1.757.921 2.954.921Zm19.049 8.954c-1.296 0-2.409-.167-3.341-.5-.932-.326-1.708-.757-2.33-1.295-.613-.531-1.102-1.099-1.466-1.705l2.137-1.5c.242.318.549.682.92 1.091.371.417.879.777 1.523 1.08.651.31 1.504.465 2.557.465 1.409 0 2.572-.34 3.488-1.022.917-.682 1.375-1.75 1.375-3.205v-3.545h-.227c-.197.318-.477.712-.841 1.182-.356.462-.871.875-1.545 1.238-.667.356-1.568.534-2.705.534-1.409 0-2.674-.333-3.795-1-1.114-.666-1.996-1.636-2.648-2.909-.644-1.273-.966-2.818-.966-4.636 0-1.788.315-3.345.943-4.671.629-1.333 1.504-2.363 2.625-3.091 1.122-.734 2.417-1.102 3.887-1.102 1.136 0 2.038.19 2.704.568.674.372 1.19.796 1.546 1.273.363.47.644.856.841 1.159h.272v-2.773h2.591V147.5c0 1.5-.341 2.72-1.023 3.659-.674.947-1.583 1.64-2.727 2.08-1.136.447-2.401.67-3.795.67Zm-.091-9.591c1.076 0 1.985-.246 2.727-.738.743-.493 1.307-1.201 1.693-2.125.387-.925.58-2.031.58-3.319 0-1.257-.19-2.367-.568-3.329-.379-.962-.94-1.716-1.682-2.262-.743-.545-1.659-.818-2.75-.818-1.137 0-2.083.288-2.841.864-.75.576-1.314 1.348-1.693 2.318-.371.97-.557 2.046-.557 3.227 0 1.212.189 2.284.568 3.216.386.925.955 1.652 1.705 2.182.757.523 1.697.784 2.818.784Zm24.727-20.591V147h-2.818v-23.273h2.818Zm7.969 12.773V147h-2.682v-17.455h2.591v2.728h.227a4.986 4.986 0 0 1 1.864-2.137c.833-.545 1.909-.818 3.227-.818 1.182 0 2.216.243 3.102.727.887.478 1.576 1.205 2.069 2.182.492.97.738 2.197.738 3.682V147h-2.682v-10.909c0-1.371-.356-2.439-1.068-3.205-.712-.772-1.689-1.159-2.932-1.159-.856 0-1.621.186-2.295.557-.667.371-1.193.913-1.58 1.625-.386.712-.579 1.576-.579 2.591Z"/><path fill="#D5D5D5" d="M100 263h801v72H100z"/><path fill="#888" d="M118.091 211.727h2.818v15.409c0 1.591-.375 3.012-1.125 4.262-.742 1.242-1.792 2.223-3.148 2.943-1.356.712-2.947 1.068-4.772 1.068-1.826 0-3.417-.356-4.773-1.068-1.356-.72-2.409-1.701-3.159-2.943-.743-1.25-1.114-2.671-1.114-4.262v-15.409h2.818v15.182c0 1.136.25 2.148.75 3.034.5.879 1.212 1.572 2.137 2.08.932.5 2.045.75 3.341.75 1.295 0 2.409-.25 3.341-.75.931-.508 1.643-1.201 2.136-2.08.5-.886.75-1.898.75-3.034v-15.182Zm20.446 9.728-2.409.681a4.485 4.485 0 0 0-.671-1.17c-.287-.386-.681-.705-1.181-.955s-1.141-.375-1.921-.375c-1.068 0-1.958.247-2.67.739-.705.485-1.057 1.102-1.057 1.852 0 .667.242 1.193.727 1.58.485.386 1.243.708 2.273.966l2.591.636c1.56.379 2.723.958 3.488 1.739.766.772 1.148 1.769 1.148 2.988 0 1-.288 1.894-.864 2.682-.568.788-1.363 1.409-2.386 1.864-1.023.454-2.212.682-3.568.682-1.78 0-3.254-.387-4.421-1.159-1.166-.773-1.905-1.902-2.215-3.387l2.545-.636c.242.939.701 1.644 1.375 2.113.682.47 1.572.705 2.67.705 1.25 0 2.243-.265 2.978-.795.742-.538 1.113-1.182 1.113-1.932 0-.606-.212-1.114-.636-1.523-.424-.417-1.076-.727-1.955-.932l-2.909-.682c-1.598-.378-2.772-.966-3.522-1.761-.743-.803-1.114-1.807-1.114-3.011 0-.985.277-1.856.83-2.614.56-.758 1.322-1.352 2.284-1.784.969-.432 2.068-.648 3.295-.648 1.727 0 3.083.379 4.068 1.137.993.757 1.697 1.757 2.114 3Zm11.673 13.909c-1.682 0-3.132-.372-4.352-1.114-1.212-.75-2.148-1.795-2.807-3.136-.651-1.349-.977-2.917-.977-4.705 0-1.788.326-3.364.977-4.727.659-1.371 1.576-2.44 2.75-3.205 1.182-.772 2.561-1.159 4.137-1.159.909 0 1.806.152 2.693.455a6.668 6.668 0 0 1 2.42 1.477c.727.674 1.307 1.568 1.739 2.682.432 1.113.648 2.485.648 4.113v1.137h-13.455v-2.318h10.727c0-.985-.197-1.864-.591-2.637a4.451 4.451 0 0 0-1.659-1.829c-.712-.447-1.553-.671-2.522-.671-1.069 0-1.993.265-2.773.796a5.218 5.218 0 0 0-1.784 2.045 6.007 6.007 0 0 0-.625 2.705v1.545c0 1.318.227 2.436.682 3.352.462.91 1.102 1.603 1.92 2.08.818.47 1.769.705 2.852.705.705 0 1.341-.099 1.909-.296a4.075 4.075 0 0 0 1.489-.909c.417-.409.739-.917.966-1.523l2.591.728a5.754 5.754 0 0 1-1.375 2.318c-.644.659-1.44 1.174-2.387 1.545-.947.364-2.011.546-3.193.546Zm11.307-.364v-17.455h2.591v2.637h.182c.318-.864.894-1.565 1.727-2.102.833-.538 1.773-.807 2.818-.807.197 0 .443.004.739.011.295.008.519.019.67.034v2.727a8.704 8.704 0 0 0-.625-.102 6.15 6.15 0 0 0-1.011-.079c-.849 0-1.606.178-2.273.534a4.023 4.023 0 0 0-1.568 1.454c-.379.614-.568 1.315-.568 2.103V235h-2.682Zm14.588-10.5V235h-2.682v-17.455h2.591v2.728h.227a4.992 4.992 0 0 1 1.864-2.137c.833-.545 1.909-.818 3.227-.818 1.182 0 2.216.243 3.103.727.886.478 1.575 1.205 2.068 2.182.492.97.738 2.197.738 3.682V235h-2.681v-10.909c0-1.371-.356-2.439-1.069-3.205-.712-.772-1.689-1.159-2.931-1.159-.856 0-1.622.186-2.296.557-.666.371-1.193.913-1.579 1.625-.387.712-.58 1.576-.58 2.591Zm21.173 10.909c-1.106 0-2.109-.208-3.011-.625a5.176 5.176 0 0 1-2.148-1.829c-.53-.803-.795-1.773-.795-2.91 0-1 .197-1.81.591-2.431a4.17 4.17 0 0 1 1.579-1.478 8.3 8.3 0 0 1 2.182-.795c.803-.182 1.61-.326 2.421-.432 1.06-.136 1.92-.239 2.579-.307.667-.075 1.152-.2 1.455-.375.31-.174.466-.477.466-.909v-.091c0-1.121-.307-1.992-.921-2.613-.606-.622-1.526-.932-2.761-.932-1.281 0-2.284.28-3.012.841-.727.56-1.238 1.159-1.534 1.795l-2.545-.909c.454-1.061 1.06-1.886 1.818-2.477a6.811 6.811 0 0 1 2.5-1.25 10.355 10.355 0 0 1 2.682-.364c.56 0 1.204.068 1.932.205a6.17 6.17 0 0 1 2.125.807c.689.409 1.261 1.026 1.716 1.852.454.826.681 1.932.681 3.318V235h-2.681v-2.364h-.137c-.182.379-.485.784-.909 1.216-.424.432-.988.8-1.693 1.103-.705.303-1.564.454-2.58.454Zm.41-2.409c1.06 0 1.954-.208 2.681-.625.735-.417 1.288-.955 1.659-1.614a4.11 4.11 0 0 0 .569-2.079v-2.455c-.114.137-.364.262-.75.375-.379.106-.819.201-1.319.284-.492.076-.973.144-1.443.205-.462.053-.837.098-1.125.136-.697.091-1.348.239-1.954.443-.599.197-1.084.497-1.455.898-.363.394-.545.932-.545 1.614 0 .932.344 1.636 1.034 2.113.697.47 1.579.705 2.648.705Zm12.485 2v-17.455h2.591v2.728h.227c.364-.932.951-1.656 1.762-2.171.81-.522 1.784-.784 2.92-.784 1.152 0 2.11.262 2.875.784.773.515 1.375 1.239 1.807 2.171h.182a5.08 5.08 0 0 1 2.011-2.148c.894-.538 1.966-.807 3.216-.807 1.561 0 2.837.489 3.83 1.466.992.97 1.488 2.481 1.488 4.534V235h-2.681v-11.682c0-1.288-.353-2.208-1.057-2.761-.705-.553-1.534-.83-2.489-.83-1.227 0-2.178.371-2.852 1.114-.674.735-1.012 1.667-1.012 2.795V235h-2.727v-11.955c0-.992-.322-1.791-.966-2.397-.644-.614-1.473-.921-2.488-.921a3.68 3.68 0 0 0-1.955.557 4.199 4.199 0 0 0-1.454 1.546c-.364.651-.546 1.405-.546 2.261V235h-2.682Zm35.131.364c-1.682 0-3.133-.372-4.352-1.114-1.212-.75-2.148-1.795-2.807-3.136-.652-1.349-.977-2.917-.977-4.705 0-1.788.325-3.364.977-4.727.659-1.371 1.576-2.44 2.75-3.205 1.182-.772 2.56-1.159 4.136-1.159.909 0 1.807.152 2.693.455a6.664 6.664 0 0 1 2.421 1.477c.727.674 1.307 1.568 1.739 2.682.431 1.113.647 2.485.647 4.113v1.137h-13.454v-2.318h10.727c0-.985-.197-1.864-.591-2.637a4.451 4.451 0 0 0-1.659-1.829c-.712-.447-1.553-.671-2.523-.671-1.068 0-1.992.265-2.772.796a5.228 5.228 0 0 0-1.785 2.045 6.02 6.02 0 0 0-.625 2.705v1.545c0 1.318.228 2.436.682 3.352.462.91 1.103 1.603 1.921 2.08.818.47 1.769.705 2.852.705.705 0 1.341-.099 1.909-.296a4.075 4.075 0 0 0 1.489-.909 4.15 4.15 0 0 0 .966-1.523l2.591.728a5.765 5.765 0 0 1-1.375 2.318c-.644.659-1.44 1.174-2.387 1.545-.947.364-2.011.546-3.193.546Z"/><path fill="#D5D5D5" d="M100 424h801v72H100z"/><path fill="#888" d="M102.818 396v-23.273h7.864c1.826 0 3.318.33 4.477.989 1.167.651 2.03 1.534 2.591 2.648.561 1.113.841 2.356.841 3.727s-.28 2.617-.841 3.739c-.553 1.121-1.409 2.015-2.568 2.681-1.159.659-2.644.989-4.455.989h-5.636V385h5.545c1.25 0 2.254-.216 3.012-.648.757-.432 1.307-1.015 1.647-1.75.349-.742.523-1.579.523-2.511 0-.932-.174-1.765-.523-2.5-.34-.735-.893-1.311-1.659-1.727-.765-.425-1.78-.637-3.045-.637h-4.955V396h-2.818Zm25.085.409c-1.106 0-2.109-.208-3.011-.625a5.176 5.176 0 0 1-2.148-1.829c-.53-.803-.795-1.773-.795-2.91 0-1 .197-1.81.591-2.431a4.17 4.17 0 0 1 1.579-1.478 8.3 8.3 0 0 1 2.182-.795c.803-.182 1.61-.326 2.421-.432 1.06-.136 1.92-.239 2.579-.307.667-.075 1.152-.2 1.455-.375.31-.174.466-.477.466-.909v-.091c0-1.121-.307-1.992-.921-2.613-.606-.622-1.526-.932-2.761-.932-1.281 0-2.284.28-3.012.841-.727.56-1.238 1.159-1.534 1.795l-2.545-.909c.454-1.061 1.06-1.886 1.818-2.477a6.811 6.811 0 0 1 2.5-1.25 10.355 10.355 0 0 1 2.682-.364c.56 0 1.204.068 1.932.205a6.17 6.17 0 0 1 2.125.807c.689.409 1.261 1.026 1.716 1.852.454.826.681 1.932.681 3.318V396h-2.681v-2.364h-.137c-.182.379-.485.784-.909 1.216-.424.432-.988.8-1.693 1.103-.705.303-1.564.454-2.58.454Zm.409-2.409c1.061 0 1.955-.208 2.682-.625.735-.417 1.288-.955 1.659-1.614a4.11 4.11 0 0 0 .569-2.079v-2.455c-.114.137-.364.262-.75.375-.379.106-.819.201-1.319.284-.492.076-.973.144-1.443.205-.462.053-.837.098-1.125.136-.697.091-1.348.239-1.954.443-.599.197-1.084.497-1.455.898-.363.394-.545.932-.545 1.614 0 .932.344 1.636 1.034 2.113.697.47 1.579.705 2.647.705Zm24.85-11.545-2.409.681a4.485 4.485 0 0 0-.671-1.17c-.287-.386-.681-.705-1.181-.955s-1.141-.375-1.921-.375c-1.068 0-1.958.247-2.67.739-.705.485-1.057 1.102-1.057 1.852 0 .667.242 1.193.727 1.58.485.386 1.243.708 2.273.966l2.591.636c1.56.379 2.723.958 3.488 1.739.766.772 1.148 1.769 1.148 2.988 0 1-.288 1.894-.864 2.682-.568.788-1.363 1.409-2.386 1.864-1.023.454-2.212.682-3.568.682-1.78 0-3.254-.387-4.421-1.159-1.166-.773-1.905-1.902-2.215-3.387l2.545-.636c.242.939.701 1.644 1.375 2.113.682.47 1.572.705 2.67.705 1.25 0 2.243-.265 2.978-.795.742-.538 1.113-1.182 1.113-1.932 0-.606-.212-1.114-.636-1.523-.424-.417-1.076-.727-1.955-.932l-2.909-.682c-1.598-.378-2.772-.966-3.522-1.761-.743-.803-1.114-1.807-1.114-3.011 0-.985.277-1.856.83-2.614.56-.758 1.322-1.352 2.284-1.784.969-.432 2.068-.648 3.295-.648 1.727 0 3.083.379 4.068 1.137.993.757 1.697 1.757 2.114 3Zm16.719 0-2.409.681a4.485 4.485 0 0 0-.671-1.17c-.288-.386-.682-.705-1.182-.955-.5-.25-1.14-.375-1.92-.375-1.068 0-1.958.247-2.671.739-.704.485-1.056 1.102-1.056 1.852 0 .667.242 1.193.727 1.58.485.386 1.242.708 2.273.966l2.59.636c1.561.379 2.724.958 3.489 1.739.765.772 1.148 1.769 1.148 2.988 0 1-.288 1.894-.864 2.682-.568.788-1.363 1.409-2.386 1.864-1.023.454-2.212.682-3.568.682-1.781 0-3.254-.387-4.421-1.159-1.166-.773-1.905-1.902-2.216-3.387l2.546-.636c.242.939.701 1.644 1.375 2.113.682.47 1.572.705 2.67.705 1.25 0 2.243-.265 2.977-.795.743-.538 1.114-1.182 1.114-1.932 0-.606-.212-1.114-.636-1.523-.424-.417-1.076-.727-1.955-.932l-2.909-.682c-1.598-.378-2.773-.966-3.523-1.761-.742-.803-1.113-1.807-1.113-3.011 0-.985.276-1.856.829-2.614.561-.758 1.322-1.352 2.284-1.784.97-.432 2.069-.648 3.296-.648 1.727 0 3.083.379 4.068 1.137.992.757 1.697 1.757 2.114 3ZM178.19 396l-5.318-17.455h2.818l3.773 13.364h.182l3.727-13.364h2.864l3.682 13.319h.181l3.773-13.319h2.818L191.372 396h-2.636l-3.818-13.409h-.273L180.827 396h-2.637Zm28.543.364c-1.576 0-2.958-.375-4.148-1.125-1.182-.75-2.106-1.8-2.773-3.148-.659-1.349-.988-2.924-.988-4.727 0-1.819.329-3.406.988-4.762.667-1.356 1.591-2.409 2.773-3.159 1.19-.75 2.572-1.125 4.148-1.125 1.576 0 2.955.375 4.136 1.125 1.19.75 2.114 1.803 2.773 3.159.667 1.356 1 2.943 1 4.762 0 1.803-.333 3.378-1 4.727-.659 1.348-1.583 2.398-2.773 3.148-1.181.75-2.56 1.125-4.136 1.125Zm0-2.409c1.197 0 2.182-.307 2.955-.921.772-.614 1.344-1.42 1.715-2.42.372-1 .557-2.084.557-3.25 0-1.167-.185-2.254-.557-3.262-.371-1.007-.943-1.822-1.715-2.443-.773-.621-1.758-.932-2.955-.932s-2.182.311-2.955.932c-.772.621-1.344 1.436-1.716 2.443-.371 1.008-.556 2.095-.556 3.262 0 1.166.185 2.25.556 3.25.372 1 .944 1.806 1.716 2.42.773.614 1.758.921 2.955.921ZM218.736 396v-17.455h2.591v2.637h.182c.318-.864.893-1.565 1.727-2.102.833-.538 1.773-.807 2.818-.807.197 0 .443.004.739.011.295.008.519.019.67.034v2.727a8.704 8.704 0 0 0-.625-.102 6.15 6.15 0 0 0-1.011-.079c-.849 0-1.606.178-2.273.534a4.023 4.023 0 0 0-1.568 1.454c-.379.614-.568 1.315-.568 2.103V396h-2.682Zm17.966.364c-1.455 0-2.739-.368-3.853-1.103-1.113-.742-1.984-1.788-2.613-3.136-.629-1.356-.943-2.958-.943-4.807 0-1.833.314-3.424.943-4.773.629-1.348 1.504-2.39 2.625-3.125 1.121-.734 2.416-1.102 3.886-1.102 1.137 0 2.034.19 2.693.568.667.372 1.175.796 1.523 1.273.356.47.633.856.83 1.159h.227v-8.591h2.682V396h-2.591v-2.682h-.318c-.197.318-.478.72-.841 1.205-.364.477-.883.905-1.557 1.284-.674.371-1.572.557-2.693.557Zm.363-2.409c1.076 0 1.985-.281 2.728-.841.742-.569 1.306-1.353 1.693-2.353.386-1.007.579-2.17.579-3.488 0-1.303-.189-2.443-.568-3.421-.379-.985-.939-1.75-1.682-2.295-.742-.553-1.659-.83-2.75-.83-1.136 0-2.083.292-2.841.875-.75.576-1.314 1.36-1.693 2.353-.371.984-.557 2.09-.557 3.318 0 1.242.19 2.371.569 3.386.386 1.008.954 1.811 1.704 2.409.758.591 1.697.887 2.818.887Z"/></g><defs><clipPath id="a"><path fill="#fff" d="M100 100h800v500H100z"/></clipPath></defs></svg>