<svg xmlns="http://www.w3.org/2000/svg" width="1000" height="700" fill="none" viewBox="0 0 1000 700"><path fill="#fff" d="M0 0h1000v700H0z"/><g clip-path="url(#a)"><path fill="#fff" d="M100 100h800v500H100z"/><path fill="#888" d="M129.606 121.148h-6.533c-.119-.845-.363-1.595-.731-2.252a5.723 5.723 0 0 0-1.417-1.7 6.236 6.236 0 0 0-1.998-1.074 7.661 7.661 0 0 0-2.431-.373c-1.581 0-2.958.393-4.132 1.179-1.173.775-2.083 1.909-2.729 3.4-.646 1.482-.97 3.281-.97 5.399 0 2.178.324 4.007.97 5.489.656 1.481 1.571 2.6 2.744 3.356 1.174.755 2.531 1.133 4.072 1.133.865 0 1.665-.114 2.401-.343a6.308 6.308 0 0 0 1.984-.999 5.757 5.757 0 0 0 1.432-1.626 6.323 6.323 0 0 0 .805-2.177l6.533.029a11.818 11.818 0 0 1-1.268 4.057 12.173 12.173 0 0 1-2.7 3.475c-1.123 1.015-2.465 1.82-4.026 2.417-1.552.586-3.307.88-5.265.88-2.725 0-5.161-.617-7.309-1.85-2.137-1.233-3.828-3.018-5.071-5.354-1.233-2.337-1.849-5.166-1.849-8.487 0-3.331.626-6.165 1.879-8.501 1.253-2.337 2.953-4.117 5.101-5.34 2.148-1.233 4.564-1.849 7.249-1.849 1.769 0 3.41.249 4.921.746 1.522.497 2.869 1.223 4.042 2.177a11.202 11.202 0 0 1 2.864 3.475c.746 1.373 1.223 2.944 1.432 4.713ZM134.118 141v-22.909h6.159v3.997h.239c.418-1.422 1.119-2.496 2.103-3.222.984-.735 2.118-1.103 3.401-1.103.318 0 .661.02 1.029.059.368.04.691.095.969.165v5.637a8.292 8.292 0 0 0-1.238-.238 11.057 11.057 0 0 0-1.447-.105c-.934 0-1.769.204-2.505.612a4.49 4.49 0 0 0-1.73 1.67c-.418.716-.627 1.541-.627 2.476V141h-6.353Zm26.559.447c-2.357 0-4.385-.477-6.085-1.431-1.691-.965-2.993-2.327-3.908-4.087-.915-1.77-1.372-3.863-1.372-6.279 0-2.357.457-4.425 1.372-6.205.915-1.78 2.203-3.167 3.863-4.161 1.671-.994 3.629-1.491 5.876-1.491 1.512 0 2.919.243 4.221.73a9.383 9.383 0 0 1 3.431 2.163c.984.965 1.75 2.178 2.297 3.639.547 1.452.82 3.152.82 5.101v1.745h-19.345v-3.937h13.364c0-.915-.199-1.725-.596-2.431a4.279 4.279 0 0 0-1.656-1.656c-.696-.408-1.506-.611-2.431-.611-.965 0-1.82.223-2.565.671a4.704 4.704 0 0 0-1.731 1.775c-.417.735-.631 1.556-.641 2.46v3.744c0 1.134.209 2.113.627 2.938a4.576 4.576 0 0 0 1.804 1.909c.776.448 1.696.672 2.759.672.706 0 1.353-.1 1.939-.299a4.025 4.025 0 0 0 1.507-.895c.417-.397.736-.885.954-1.461l5.877.388a8.03 8.03 0 0 1-1.835 3.698c-.915 1.044-2.098 1.86-3.55 2.446-1.441.577-3.107.865-4.996.865Zm21.194-.014c-1.462 0-2.764-.254-3.908-.761-1.143-.517-2.048-1.278-2.714-2.282-.656-1.014-.985-2.277-.985-3.788 0-1.273.234-2.342.701-3.207a5.685 5.685 0 0 1 1.909-2.088 9.26 9.26 0 0 1 2.745-1.193 20.815 20.815 0 0 1 3.251-.567 82.495 82.495 0 0 0 3.222-.388c.815-.129 1.407-.318 1.775-.567.368-.248.552-.616.552-1.103v-.09c0-.944-.299-1.675-.895-2.192-.587-.517-1.422-.776-2.506-.776-1.144 0-2.053.254-2.729.761-.677.497-1.124 1.123-1.343 1.879l-5.876-.477c.298-1.392.885-2.595 1.76-3.61.875-1.024 2.003-1.809 3.385-2.356 1.392-.557 3.003-.835 4.833-.835 1.272 0 2.491.149 3.654.447 1.173.298 2.212.761 3.117 1.387a6.748 6.748 0 0 1 2.163 2.416c.527.975.79 2.143.79 3.505V141h-6.025v-3.177h-.179a6.46 6.46 0 0 1-1.477 1.894c-.616.537-1.357.96-2.222 1.268-.865.298-1.865.448-2.998.448Zm1.82-4.385c.934 0 1.759-.184 2.475-.552.716-.378 1.278-.885 1.686-1.522.407-.636.611-1.357.611-2.162v-2.431a3.439 3.439 0 0 1-.82.358c-.338.099-.721.194-1.149.283-.427.08-.855.154-1.282.224-.428.059-.816.114-1.164.164-.745.109-1.397.283-1.953.522-.557.238-.99.562-1.298.969-.308.398-.462.895-.462 1.492 0 .865.313 1.526.939 1.983.637.448 1.442.672 2.417.672Zm28.196-18.957v4.773h-13.796v-4.773h13.796Zm-10.664-5.489h6.354v21.358c0 .587.089 1.044.268 1.372.179.319.428.542.746.672.328.129.706.193 1.133.193.299 0 .597-.024.895-.074.298-.06.527-.105.686-.134l1 4.728c-.319.099-.766.213-1.343.343-.577.139-1.278.223-2.103.253-1.531.06-2.873-.144-4.027-.611-1.143-.468-2.033-1.193-2.67-2.178-.636-.984-.949-2.227-.939-3.729v-22.193Zm31.056 28.831c-1.462 0-2.764-.254-3.908-.761-1.143-.517-2.048-1.278-2.714-2.282-.656-1.014-.984-2.277-.984-3.788 0-1.273.233-2.342.701-3.207a5.668 5.668 0 0 1 1.909-2.088 9.242 9.242 0 0 1 2.744-1.193 20.815 20.815 0 0 1 3.251-.567 82.256 82.256 0 0 0 3.222-.388c.815-.129 1.407-.318 1.775-.567.368-.248.552-.616.552-1.103v-.09c0-.944-.299-1.675-.895-2.192-.587-.517-1.422-.776-2.506-.776-1.143 0-2.053.254-2.729.761-.676.497-1.124 1.123-1.343 1.879l-5.876-.477c.298-1.392.885-2.595 1.76-3.61.875-1.024 2.003-1.809 3.386-2.356 1.392-.557 3.002-.835 4.832-.835 1.273 0 2.491.149 3.654.447 1.173.298 2.212.761 3.117 1.387a6.748 6.748 0 0 1 2.163 2.416c.527.975.79 2.143.79 3.505V141h-6.025v-3.177h-.179a6.46 6.46 0 0 1-1.477 1.894c-.616.537-1.357.96-2.222 1.268-.865.298-1.864.448-2.998.448Zm1.82-4.385c.934 0 1.76-.184 2.476-.552.715-.378 1.277-.885 1.685-1.522.408-.636.611-1.357.611-2.162v-2.431c-.198.129-.472.248-.82.358a14.99 14.99 0 0 1-1.148.283 57.4 57.4 0 0 1-1.283.224c-.428.059-.815.114-1.163.164-.746.109-1.397.283-1.954.522-.557.238-.99.562-1.298.969-.308.398-.462.895-.462 1.492 0 .865.313 1.526.94 1.983.636.448 1.441.672 2.416.672Zm22.364-9.292V141h-6.353v-22.909h6.055v4.042h.269a6.386 6.386 0 0 1 2.55-3.162c1.193-.786 2.64-1.178 4.34-1.178 1.591 0 2.978.348 4.161 1.044 1.184.696 2.103 1.69 2.76 2.983.656 1.282.984 2.814.984 4.593V141h-6.354v-13.453c.01-1.402-.348-2.496-1.074-3.281-.725-.796-1.725-1.194-2.997-1.194-.855 0-1.611.184-2.267.552-.647.368-1.154.905-1.522 1.611-.358.696-.542 1.536-.552 2.521ZM291.342 141h-6.921l10.545-30.545h8.322L313.818 141h-6.92l-7.652-23.565h-.238L291.342 141Zm-.433-12.006h16.347v5.041h-16.347v-5.041Zm35.751 12.453c-2.347 0-4.365-.497-6.056-1.491-1.68-1.004-2.973-2.396-3.877-4.176-.895-1.78-1.343-3.828-1.343-6.145 0-2.347.453-4.405 1.357-6.175.915-1.78 2.213-3.167 3.893-4.161 1.681-1.004 3.679-1.506 5.996-1.506 1.999 0 3.749.363 5.25 1.088 1.501.726 2.69 1.745 3.565 3.058.875 1.312 1.357 2.854 1.446 4.623h-5.995c-.169-1.143-.617-2.063-1.343-2.759-.716-.706-1.655-1.059-2.819-1.059-.984 0-1.844.269-2.58.806-.726.527-1.292 1.297-1.7 2.312-.408 1.014-.612 2.242-.612 3.683 0 1.462.199 2.705.597 3.729.408 1.024.979 1.805 1.715 2.342.736.537 1.596.805 2.58.805.726 0 1.378-.149 1.954-.447a3.778 3.778 0 0 0 1.447-1.298c.388-.577.641-1.268.761-2.073h5.995c-.099 1.75-.576 3.291-1.431 4.624-.846 1.322-2.014 2.356-3.505 3.102-1.492.746-3.257 1.118-5.295 1.118Zm24.65 0c-2.346 0-4.365-.497-6.055-1.491-1.681-1.004-2.973-2.396-3.878-4.176-.895-1.78-1.342-3.828-1.342-6.145 0-2.347.452-4.405 1.357-6.175.915-1.78 2.212-3.167 3.893-4.161 1.68-1.004 3.679-1.506 5.995-1.506 1.999 0 3.749.363 5.25 1.088 1.502.726 2.69 1.745 3.565 3.058.875 1.312 1.357 2.854 1.447 4.623h-5.996c-.169-1.143-.616-2.063-1.342-2.759-.716-.706-1.656-1.059-2.819-1.059-.985 0-1.845.269-2.58.806-.726.527-1.293 1.297-1.701 2.312-.407 1.014-.611 2.242-.611 3.683 0 1.462.199 2.705.596 3.729.408 1.024.98 1.805 1.716 2.342.735.537 1.595.805 2.58.805.726 0 1.377-.149 1.954-.447a3.783 3.783 0 0 0 1.446-1.298c.388-.577.642-1.268.761-2.073h5.996c-.1 1.75-.577 3.291-1.432 4.624-.845 1.322-2.014 2.356-3.505 3.102-1.492.746-3.256 1.118-5.295 1.118Zm24.651 0c-2.317 0-4.321-.492-6.011-1.476-1.68-.994-2.978-2.377-3.893-4.146-.915-1.78-1.372-3.843-1.372-6.19 0-2.367.457-4.435 1.372-6.205.915-1.779 2.213-3.162 3.893-4.146 1.69-.994 3.694-1.491 6.011-1.491 2.316 0 4.315.497 5.995 1.491 1.691.984 2.993 2.367 3.908 4.146.915 1.77 1.372 3.838 1.372 6.205 0 2.347-.457 4.41-1.372 6.19-.915 1.769-2.217 3.152-3.908 4.146-1.68.984-3.679 1.476-5.995 1.476Zm.029-4.921c1.054 0 1.934-.299 2.64-.895.706-.607 1.238-1.432 1.596-2.476.368-1.044.552-2.232.552-3.565 0-1.332-.184-2.52-.552-3.564-.358-1.044-.89-1.87-1.596-2.476-.706-.607-1.586-.91-2.64-.91-1.064 0-1.958.303-2.684.91-.716.606-1.258 1.432-1.626 2.476-.358 1.044-.537 2.232-.537 3.564 0 1.333.179 2.521.537 3.565.368 1.044.91 1.869 1.626 2.476.726.596 1.62.895 2.684.895Zm30.069-5.28v-13.155h6.353V141h-6.1v-4.161h-.238a6.771 6.771 0 0 1-2.581 3.236c-1.193.816-2.65 1.223-4.37 1.223-1.531 0-2.878-.348-4.042-1.044-1.163-.696-2.073-1.685-2.729-2.968-.646-1.282-.975-2.819-.984-4.608v-14.587h6.353v13.453c.01 1.352.373 2.421 1.089 3.207.716.785 1.675 1.178 2.879 1.178.765 0 1.481-.174 2.147-.522.666-.358 1.203-.885 1.611-1.581.418-.696.622-1.556.612-2.58Zm17.789-3.49V141h-6.354v-22.909h6.056v4.042h.268a6.388 6.388 0 0 1 2.551-3.162c1.193-.786 2.64-1.178 4.34-1.178 1.591 0 2.978.348 4.161 1.044 1.183.696 2.103 1.69 2.759 2.983.657 1.282.985 2.814.985 4.593V141h-6.354v-13.453c.01-1.402-.348-2.496-1.074-3.281-.726-.796-1.725-1.194-2.998-1.194-.855 0-1.61.184-2.267.552-.646.368-1.153.905-1.521 1.611-.358.696-.542 1.536-.552 2.521Zm31.959-9.665v4.773h-13.796v-4.773h13.796Zm-10.664-5.489h6.353v21.358c0 .587.09 1.044.269 1.372.179.319.427.542.746.672.328.129.706.193 1.133.193.298 0 .597-.024.895-.074.298-.06.527-.105.686-.134l.999 4.728c-.318.099-.765.213-1.342.343-.577.139-1.278.223-2.103.253-1.531.06-2.873-.144-4.027-.611-1.143-.468-2.033-1.193-2.67-2.178-.636-.984-.949-2.227-.939-3.729v-22.193Z"/><path fill="#D5D5D5" d="M100 220h800v50H100z"/><path fill="#888" d="M102.818 202v-23.273h13.955v2.5h-11.137v7.864h10.091v2.5h-10.091V202h-2.818Zm18.418 0v-17.455h2.682V202h-2.682Zm1.363-20.364c-.522 0-.973-.178-1.352-.534a1.716 1.716 0 0 1-.557-1.284c0-.5.186-.928.557-1.284.379-.356.83-.534 1.352-.534.523 0 .97.178 1.341.534.379.356.569.784.569 1.284s-.19.928-.569 1.284a1.867 1.867 0 0 1-1.341.534ZM128.83 202v-17.455h2.59v2.637h.182c.318-.864.894-1.565 1.728-2.102.833-.538 1.772-.807 2.818-.807.197 0 .443.004.738.011.296.008.519.019.671.034v2.727a8.704 8.704 0 0 0-.625-.102 6.153 6.153 0 0 0-1.012-.079c-.848 0-1.606.178-2.272.534a4.023 4.023 0 0 0-1.568 1.454c-.379.614-.569 1.315-.569 2.103V202h-2.681Zm24.269-13.545-2.409.681a4.48 4.48 0 0 0-.67-1.17c-.288-.386-.682-.705-1.182-.955-.5-.25-1.14-.375-1.92-.375-1.069 0-1.959.247-2.671.739-.704.485-1.057 1.102-1.057 1.852 0 .667.243 1.193.728 1.58.484.386 1.242.708 2.272.966l2.591.636c1.561.379 2.724.958 3.489 1.739.765.772 1.148 1.769 1.148 2.988 0 1-.288 1.894-.864 2.682-.568.788-1.364 1.409-2.386 1.864-1.023.454-2.213.682-3.569.682-1.78 0-3.253-.387-4.42-1.159-1.167-.773-1.905-1.902-2.216-3.387l2.546-.636c.242.939.7 1.644 1.375 2.113.681.47 1.571.705 2.67.705 1.25 0 2.242-.265 2.977-.795.743-.538 1.114-1.182 1.114-1.932 0-.606-.212-1.114-.636-1.523-.425-.417-1.076-.727-1.955-.932l-2.909-.682c-1.599-.378-2.773-.966-3.523-1.761-.742-.803-1.113-1.807-1.113-3.011 0-.985.276-1.856.829-2.614.561-.758 1.322-1.352 2.284-1.784.97-.432 2.068-.648 3.296-.648 1.727 0 3.083.379 4.068 1.137.992.757 1.697 1.757 2.113 3Zm11.946-3.91v2.273H156v-2.273h9.045Zm-6.409-4.181h2.682V197c0 .758.11 1.326.33 1.705.227.371.515.621.863.75.356.121.731.181 1.125.181.296 0 .538-.015.728-.045l.454-.091.546 2.409a5.602 5.602 0 0 1-.762.205c-.325.075-.738.113-1.238.113-.758 0-1.5-.163-2.228-.488a4.426 4.426 0 0 1-1.795-1.489c-.47-.667-.705-1.508-.705-2.523v-17.363Zm38.262-1.637V202h-2.728l-12.681-18.273h-.228V202h-2.818v-23.273h2.727l12.728 18.318h.227v-18.318h2.773Zm10.412 23.682c-1.106 0-2.11-.208-3.012-.625a5.167 5.167 0 0 1-2.147-1.829c-.531-.803-.796-1.773-.796-2.91 0-1 .197-1.81.591-2.431a4.166 4.166 0 0 1 1.58-1.478 8.293 8.293 0 0 1 2.181-.795c.803-.182 1.61-.326 2.421-.432 1.06-.136 1.92-.239 2.579-.307.667-.075 1.152-.2 1.455-.375.311-.174.466-.477.466-.909v-.091c0-1.121-.307-1.992-.921-2.613-.606-.622-1.526-.932-2.761-.932-1.28 0-2.284.28-3.011.841-.728.56-1.239 1.159-1.534 1.795l-2.546-.909c.455-1.061 1.061-1.886 1.818-2.477a6.811 6.811 0 0 1 2.5-1.25 10.355 10.355 0 0 1 2.682-.364c.561 0 1.205.068 1.932.205a6.17 6.17 0 0 1 2.125.807c.689.409 1.261 1.026 1.716 1.852.454.826.682 1.932.682 3.318V202h-2.682v-2.364h-.137c-.181.379-.484.784-.909 1.216-.424.432-.988.8-1.693 1.103-.704.303-1.564.454-2.579.454Zm.409-2.409c1.06 0 1.954-.208 2.682-.625.734-.417 1.287-.955 1.659-1.614a4.118 4.118 0 0 0 .568-2.079v-2.455c-.114.137-.364.262-.75.375a12.59 12.59 0 0 1-1.318.284c-.493.076-.974.144-1.444.205-.462.053-.837.098-1.125.136-.696.091-1.348.239-1.954.443-.599.197-1.083.497-1.455.898-.363.394-.545.932-.545 1.614 0 .932.345 1.636 1.034 2.113.697.47 1.58.705 2.648.705Zm12.486 2v-17.455h2.59v2.728h.228c.363-.932.95-1.656 1.761-2.171.811-.522 1.784-.784 2.921-.784 1.151 0 2.109.262 2.875.784.772.515 1.375 1.239 1.806 2.171h.182a5.082 5.082 0 0 1 2.012-2.148c.893-.538 1.965-.807 3.215-.807 1.561 0 2.838.489 3.83 1.466.992.97 1.489 2.481 1.489 4.534V202h-2.682v-11.682c0-1.288-.352-2.208-1.057-2.761-.705-.553-1.534-.83-2.489-.83-1.227 0-2.178.371-2.852 1.114-.674.735-1.011 1.667-1.011 2.795V202h-2.728v-11.955c0-.992-.322-1.791-.965-2.397-.644-.614-1.474-.921-2.489-.921a3.68 3.68 0 0 0-1.955.557 4.199 4.199 0 0 0-1.454 1.546c-.364.651-.546 1.405-.546 2.261V202h-2.681Zm35.13.364c-1.682 0-3.132-.372-4.352-1.114-1.212-.75-2.148-1.795-2.807-3.136-.651-1.349-.977-2.917-.977-4.705 0-1.788.326-3.364.977-4.727.659-1.371 1.576-2.44 2.75-3.205 1.182-.772 2.561-1.159 4.136-1.159.91 0 1.807.152 2.694.455a6.668 6.668 0 0 1 2.42 1.477c.727.674 1.307 1.568 1.739 2.682.432 1.113.647 2.485.647 4.113v1.137h-13.454v-2.318h10.727c0-.985-.197-1.864-.591-2.637a4.451 4.451 0 0 0-1.659-1.829c-.712-.447-1.553-.671-2.523-.671-1.068 0-1.992.265-2.772.796a5.218 5.218 0 0 0-1.784 2.045 6.007 6.007 0 0 0-.625 2.705v1.545c0 1.318.227 2.436.681 3.352.463.91 1.103 1.603 1.921 2.08.818.47 1.769.705 2.852.705.705 0 1.341-.099 1.909-.296a4.075 4.075 0 0 0 1.489-.909c.417-.409.739-.917.966-1.523l2.591.728a5.754 5.754 0 0 1-1.375 2.318c-.644.659-1.44 1.174-2.387 1.545-.947.364-2.011.546-3.193.546Z"/><path fill="#D5D5D5" d="M100 339h800v50H100z"/><path fill="#888" d="M102.818 321v-23.273h2.818V318.5h10.819v2.5h-13.637Zm22.773.409c-1.106 0-2.11-.208-3.011-.625a5.164 5.164 0 0 1-2.148-1.829c-.53-.803-.796-1.773-.796-2.91 0-1 .197-1.81.591-2.431a4.173 4.173 0 0 1 1.58-1.478 8.287 8.287 0 0 1 2.182-.795 26.441 26.441 0 0 1 2.42-.432c1.061-.136 1.921-.239 2.58-.307.666-.075 1.151-.2 1.454-.375.311-.174.466-.477.466-.909v-.091c0-1.121-.307-1.992-.92-2.613-.606-.622-1.527-.932-2.762-.932-1.28 0-2.284.28-3.011.841-.727.56-1.239 1.159-1.534 1.795l-2.546-.909c.455-1.061 1.061-1.886 1.819-2.477a6.804 6.804 0 0 1 2.5-1.25 10.353 10.353 0 0 1 2.681-.364c.561 0 1.205.068 1.932.205a6.17 6.17 0 0 1 2.125.807c.69.409 1.262 1.026 1.716 1.852.455.826.682 1.932.682 3.318V321h-2.682v-2.364h-.136c-.182.379-.485.784-.909 1.216-.425.432-.989.8-1.694 1.103-.704.303-1.564.454-2.579.454ZM126 319c1.061 0 1.955-.208 2.682-.625.735-.417 1.288-.955 1.659-1.614a4.108 4.108 0 0 0 .568-2.079v-2.455c-.114.137-.364.262-.75.375a12.59 12.59 0 0 1-1.318.284c-.493.076-.974.144-1.443.205-.462.053-.837.098-1.125.136-.697.091-1.349.239-1.955.443-.598.197-1.083.497-1.454.898-.364.394-.546.932-.546 1.614 0 .932.345 1.636 1.034 2.113.697.47 1.58.705 2.648.705Zm24.849-11.545-2.409.681a4.48 4.48 0 0 0-.67-1.17c-.288-.386-.682-.705-1.182-.955-.5-.25-1.14-.375-1.92-.375-1.069 0-1.959.247-2.671.739-.704.485-1.057 1.102-1.057 1.852 0 .667.243 1.193.728 1.58.484.386 1.242.708 2.272.966l2.591.636c1.561.379 2.724.958 3.489 1.739.765.772 1.148 1.769 1.148 2.988 0 1-.288 1.894-.864 2.682-.568.788-1.364 1.409-2.386 1.864-1.023.454-2.213.682-3.569.682-1.78 0-3.253-.387-4.42-1.159-1.167-.773-1.905-1.902-2.216-3.387l2.546-.636c.242.939.7 1.644 1.375 2.113.681.47 1.571.705 2.67.705 1.25 0 2.242-.265 2.977-.795.743-.538 1.114-1.182 1.114-1.932 0-.606-.212-1.114-.636-1.523-.425-.417-1.076-.727-1.955-.932l-2.909-.682c-1.599-.378-2.773-.966-3.523-1.761-.742-.803-1.113-1.807-1.113-3.011 0-.985.276-1.856.829-2.614.561-.758 1.322-1.352 2.284-1.784.97-.432 2.068-.648 3.296-.648 1.727 0 3.083.379 4.068 1.137.992.757 1.697 1.757 2.113 3Zm11.946-3.91v2.273h-9.045v-2.273h9.045Zm-6.409-4.181h2.682V316c0 .758.11 1.326.33 1.705.227.371.515.621.863.75.356.121.731.181 1.125.181.296 0 .538-.015.728-.045l.454-.091.546 2.409a5.602 5.602 0 0 1-.762.205c-.325.075-.738.113-1.238.113-.758 0-1.5-.163-2.228-.488a4.426 4.426 0 0 1-1.795-1.489c-.47-.667-.705-1.508-.705-2.523v-17.363Zm38.262-1.637V321h-2.728l-12.681-18.273h-.228V321h-2.818v-23.273h2.727l12.728 18.318h.227v-18.318h2.773Zm10.412 23.682c-1.106 0-2.11-.208-3.012-.625a5.167 5.167 0 0 1-2.147-1.829c-.531-.803-.796-1.773-.796-2.91 0-1 .197-1.81.591-2.431a4.166 4.166 0 0 1 1.58-1.478 8.293 8.293 0 0 1 2.181-.795c.803-.182 1.61-.326 2.421-.432 1.06-.136 1.92-.239 2.579-.307.667-.075 1.152-.2 1.455-.375.311-.174.466-.477.466-.909v-.091c0-1.121-.307-1.992-.921-2.613-.606-.622-1.526-.932-2.761-.932-1.28 0-2.284.28-3.011.841-.728.56-1.239 1.159-1.534 1.795l-2.546-.909c.455-1.061 1.061-1.886 1.818-2.477a6.811 6.811 0 0 1 2.5-1.25 10.355 10.355 0 0 1 2.682-.364c.561 0 1.205.068 1.932.205a6.17 6.17 0 0 1 2.125.807c.689.409 1.261 1.026 1.716 1.852.454.826.682 1.932.682 3.318V321h-2.682v-2.364h-.137c-.181.379-.484.784-.909 1.216-.424.432-.988.8-1.693 1.103-.704.303-1.564.454-2.579.454Zm.409-2.409c1.06 0 1.954-.208 2.682-.625.734-.417 1.287-.955 1.659-1.614a4.118 4.118 0 0 0 .568-2.079v-2.455c-.114.137-.364.262-.75.375a12.59 12.59 0 0 1-1.318.284c-.493.076-.974.144-1.444.205-.462.053-.837.098-1.125.136-.696.091-1.348.239-1.954.443-.599.197-1.083.497-1.455.898-.363.394-.545.932-.545 1.614 0 .932.345 1.636 1.034 2.113.697.47 1.58.705 2.648.705Zm12.486 2v-17.455h2.59v2.728h.228c.363-.932.95-1.656 1.761-2.171.811-.522 1.784-.784 2.921-.784 1.151 0 2.109.262 2.875.784.772.515 1.375 1.239 1.806 2.171h.182a5.082 5.082 0 0 1 2.012-2.148c.893-.538 1.965-.807 3.215-.807 1.561 0 2.838.489 3.83 1.466.992.97 1.489 2.481 1.489 4.534V321h-2.682v-11.682c0-1.288-.352-2.208-1.057-2.761-.705-.553-1.534-.83-2.489-.83-1.227 0-2.178.371-2.852 1.114-.674.735-1.011 1.667-1.011 2.795V321h-2.728v-11.955c0-.992-.322-1.791-.965-2.397-.644-.614-1.474-.921-2.489-.921a3.68 3.68 0 0 0-1.955.557 4.199 4.199 0 0 0-1.454 1.546c-.364.651-.546 1.405-.546 2.261V321h-2.681Zm35.13.364c-1.682 0-3.132-.372-4.352-1.114-1.212-.75-2.148-1.795-2.807-3.136-.651-1.349-.977-2.917-.977-4.705 0-1.788.326-3.364.977-4.727.659-1.371 1.576-2.44 2.75-3.205 1.182-.772 2.561-1.159 4.136-1.159.91 0 1.807.152 2.694.455a6.668 6.668 0 0 1 2.42 1.477c.727.674 1.307 1.568 1.739 2.682.432 1.113.647 2.485.647 4.113v1.137h-13.454v-2.318h10.727c0-.985-.197-1.864-.591-2.637a4.451 4.451 0 0 0-1.659-1.829c-.712-.447-1.553-.671-2.523-.671-1.068 0-1.992.265-2.772.796a5.218 5.218 0 0 0-1.784 2.045 6.007 6.007 0 0 0-.625 2.705v1.545c0 1.318.227 2.436.681 3.352.463.91 1.103 1.603 1.921 2.08.818.47 1.769.705 2.852.705.705 0 1.341-.099 1.909-.296a4.075 4.075 0 0 0 1.489-.909c.417-.409.739-.917.966-1.523l2.591.728a5.754 5.754 0 0 1-1.375 2.318c-.644.659-1.44 1.174-2.387 1.545-.947.364-2.011.546-3.193.546Z"/><path fill="#D5D5D5" d="M100 458h800v50H100z"/><path fill="#888" d="M102.818 440v-23.273h14.046v2.5h-11.228v7.864h10.5v2.5h-10.5v7.909h11.409v2.5h-14.227Zm18.762 0v-17.455h2.59v2.728h.228c.363-.932.95-1.656 1.761-2.171.811-.522 1.784-.784 2.921-.784 1.151 0 2.109.262 2.875.784.772.515 1.375 1.239 1.806 2.171h.182a5.082 5.082 0 0 1 2.012-2.148c.893-.538 1.965-.807 3.215-.807 1.561 0 2.838.489 3.83 1.466.992.97 1.489 2.481 1.489 4.534V440h-2.682v-11.682c0-1.288-.352-2.208-1.057-2.761-.705-.553-1.534-.83-2.489-.83-1.227 0-2.178.371-2.852 1.114-.674.735-1.011 1.667-1.011 2.795V440h-2.728v-11.955c0-.992-.322-1.791-.965-2.397-.644-.614-1.474-.921-2.489-.921a3.68 3.68 0 0 0-1.955.557 4.199 4.199 0 0 0-1.454 1.546c-.364.651-.546 1.405-.546 2.261V440h-2.681Zm32.948.409c-1.106 0-2.109-.208-3.011-.625a5.176 5.176 0 0 1-2.148-1.829c-.53-.803-.795-1.773-.795-2.91 0-1 .197-1.81.591-2.431a4.17 4.17 0 0 1 1.579-1.478 8.3 8.3 0 0 1 2.182-.795c.803-.182 1.61-.326 2.421-.432 1.06-.136 1.92-.239 2.579-.307.667-.075 1.152-.2 1.455-.375.31-.174.466-.477.466-.909v-.091c0-1.121-.307-1.992-.921-2.613-.606-.622-1.526-.932-2.761-.932-1.281 0-2.284.28-3.012.841-.727.56-1.238 1.159-1.534 1.795l-2.545-.909c.454-1.061 1.06-1.886 1.818-2.477a6.811 6.811 0 0 1 2.5-1.25 10.355 10.355 0 0 1 2.682-.364c.56 0 1.204.068 1.932.205a6.17 6.17 0 0 1 2.125.807c.689.409 1.261 1.026 1.716 1.852.454.826.681 1.932.681 3.318V440h-2.681v-2.364h-.137c-.182.379-.485.784-.909 1.216-.424.432-.988.8-1.693 1.103-.705.303-1.564.454-2.58.454Zm.41-2.409c1.06 0 1.954-.208 2.681-.625.735-.417 1.288-.955 1.659-1.614a4.11 4.11 0 0 0 .569-2.079v-2.455c-.114.137-.364.262-.75.375-.379.106-.819.201-1.319.284-.492.076-.973.144-1.443.205-.462.053-.837.098-1.125.136-.697.091-1.348.239-1.954.443-.599.197-1.084.497-1.455.898-.363.394-.545.932-.545 1.614 0 .932.344 1.636 1.034 2.113.697.47 1.579.705 2.648.705Zm12.485 2v-17.455h2.682V440h-2.682Zm1.364-20.364c-.523 0-.974-.178-1.352-.534a1.713 1.713 0 0 1-.557-1.284c0-.5.185-.928.557-1.284a1.905 1.905 0 0 1 1.352-.534c.523 0 .97.178 1.341.534.379.356.568.784.568 1.284s-.189.928-.568 1.284a1.867 1.867 0 0 1-1.341.534Zm8.912-2.909V440h-2.682v-23.273h2.682ZM100 528h173v72H100z"/><path fill="#fff" d="M142.818 575v-23.273h2.818V572.5h10.819v2.5h-13.637Zm24.727.364c-1.575 0-2.958-.375-4.147-1.125-1.182-.75-2.106-1.8-2.773-3.148-.659-1.349-.989-2.924-.989-4.727 0-1.819.33-3.406.989-4.762.667-1.356 1.591-2.409 2.773-3.159 1.189-.75 2.572-1.125 4.147-1.125 1.576 0 2.955.375 4.137 1.125 1.189.75 2.113 1.803 2.773 3.159.666 1.356 1 2.943 1 4.762 0 1.803-.334 3.378-1 4.727-.66 1.348-1.584 2.398-2.773 3.148-1.182.75-2.561 1.125-4.137 1.125Zm0-2.409c1.197 0 2.182-.307 2.955-.921.773-.614 1.345-1.42 1.716-2.42s.557-2.084.557-3.25c0-1.167-.186-2.254-.557-3.262-.371-1.007-.943-1.822-1.716-2.443s-1.758-.932-2.955-.932-2.181.311-2.954.932c-.773.621-1.345 1.436-1.716 2.443-.371 1.008-.557 2.095-.557 3.262 0 1.166.186 2.25.557 3.25.371 1 .943 1.806 1.716 2.42.773.614 1.757.921 2.954.921Zm19.049 8.954c-1.296 0-2.409-.167-3.341-.5-.932-.326-1.708-.757-2.33-1.295-.613-.531-1.102-1.099-1.466-1.705l2.137-1.5c.242.318.549.682.92 1.091.371.417.879.777 1.523 1.08.651.31 1.504.465 2.557.465 1.409 0 2.572-.34 3.488-1.022.917-.682 1.375-1.75 1.375-3.205v-3.545h-.227c-.197.318-.477.712-.841 1.182-.356.462-.871.875-1.545 1.238-.667.356-1.568.534-2.705.534-1.409 0-2.674-.333-3.795-1-1.114-.666-1.996-1.636-2.648-2.909-.644-1.273-.966-2.818-.966-4.636 0-1.788.315-3.345.943-4.671.629-1.333 1.504-2.363 2.625-3.091 1.122-.734 2.417-1.102 3.887-1.102 1.136 0 2.038.19 2.704.568.674.372 1.19.796 1.546 1.273.363.47.644.856.841 1.159h.272v-2.773h2.591V575.5c0 1.5-.341 2.72-1.023 3.659-.674.947-1.583 1.64-2.727 2.08-1.136.447-2.401.67-3.795.67Zm-.091-9.591c1.076 0 1.985-.246 2.727-.738.743-.493 1.307-1.201 1.693-2.125.387-.925.58-2.031.58-3.319 0-1.257-.19-2.367-.568-3.329-.379-.962-.94-1.716-1.682-2.262-.743-.545-1.659-.818-2.75-.818-1.137 0-2.083.288-2.841.864-.75.576-1.314 1.348-1.693 2.318-.371.97-.557 2.046-.557 3.227 0 1.212.189 2.284.568 3.216.386.925.955 1.652 1.705 2.182.757.523 1.697.784 2.818.784Zm24.727-20.591V575h-2.818v-23.273h2.818Zm7.969 12.773V575h-2.682v-17.455h2.591v2.728h.227a4.986 4.986 0 0 1 1.864-2.137c.833-.545 1.909-.818 3.227-.818 1.182 0 2.216.243 3.102.727.887.478 1.576 1.205 2.069 2.182.492.97.738 2.197.738 3.682V575h-2.682v-10.909c0-1.371-.356-2.439-1.068-3.205-.712-.772-1.689-1.159-2.932-1.159-.856 0-1.621.186-2.295.557-.667.371-1.193.913-1.58 1.625-.386.712-.579 1.576-.579 2.591Z"/></g><defs><clipPath id="a"><path fill="#fff" d="M100 100h800v500H100z"/></clipPath></defs></svg>