<svg xmlns="http://www.w3.org/2000/svg" width="117" height="100" fill="none" viewBox="0 0 117 100"><rect width="64" height="24" x="27" y="38" fill="#9AA6AE" opacity=".5" rx="2"/><rect width="14" height="14" x="32" y="43" fill="#9AA6AE" rx="1"/><path fill="#fff" d="M55.553 47.366h-1.82V53h-.738v-5.634H51.18v-.668h4.373v.668Zm3.634 3.564H56.01c.012.501.146.888.404 1.16.258.273.612.409 1.063.409a2.21 2.21 0 0 0 1.398-.501v.677c-.395.287-.919.43-1.569.43-.636 0-1.135-.203-1.498-.61-.364-.41-.545-.986-.545-1.727 0-.7.197-1.27.593-1.71a1.913 1.913 0 0 1 1.48-.663c.59 0 1.045.19 1.368.57.322.382.483.91.483 1.587v.378Zm-.738-.61c-.003-.417-.104-.74-.303-.972-.197-.231-.47-.347-.822-.347-.34 0-.629.122-.866.365s-.384.56-.44.953h2.43Zm5.12-1.82-1.512 2.276L63.542 53h-.84l-.883-1.459a9.259 9.259 0 0 1-.197-.343h-.018c-.015.027-.084.14-.206.343L60.496 53h-.831l1.534-2.206-1.468-2.294h.84l.87 1.538c.064.114.127.232.188.352h.018l1.125-1.89h.795Zm2.93 4.456c-.17.094-.393.14-.672.14-.788 0-1.182-.439-1.182-1.318v-2.663h-.773V48.5h.773v-1.099l.72-.233V48.5H66.5v.615h-1.134v2.536c0 .302.051.517.153.646.103.129.273.193.51.193.182 0 .339-.05.47-.15v.616Z"/></svg>