<svg xmlns="http://www.w3.org/2000/svg" width="127" height="100" fill="none"><rect width="20" height="20" x="53" y="40" fill="#9AA6AE" rx="10"/><g stroke="#000" stroke-linecap="round" stroke-linejoin="round" stroke-width=".8" clip-path="url(#a)"><path d="M63 51.25a1.25 1.25 0 1 0 0-2.5 1.25 1.25 0 0 0 0 2.5Z"/><path d="M66.083 51.25a.688.688 0 0 0 .138.758l.025.025a.832.832 0 0 1-.59 1.424.834.834 0 0 1-.59-.245l-.024-.025a.687.687 0 0 0-.759-.137.687.687 0 0 0-.416.63v.07a.833.833 0 0 1-1.667 0v-.038a.688.688 0 0 0-.45-.629.688.688 0 0 0-.758.138l-.025.025a.832.832 0 0 1-1.424-.59.834.834 0 0 1 .245-.59l.025-.024a.687.687 0 0 0 .137-.759.687.687 0 0 0-.63-.416h-.07a.833.833 0 0 1 0-1.667h.038a.688.688 0 0 0 .629-.45.688.688 0 0 0-.138-.758l-.025-.025a.832.832 0 0 1 .59-1.424.834.834 0 0 1 .59.245l.024.025a.687.687 0 0 0 .759.137h.033a.688.688 0 0 0 .417-.63v-.07a.834.834 0 0 1 1.666 0v.038a.688.688 0 0 0 .417.629.688.688 0 0 0 .758-.138l.025-.025a.832.832 0 0 1 1.424.59.834.834 0 0 1-.244.59l-.025.024a.687.687 0 0 0-.138.759v.033a.688.688 0 0 0 .63.417h.07a.834.834 0 0 1 0 1.666h-.037a.688.688 0 0 0-.63.417Z"/></g><defs><clipPath id="a"><path fill="#fff" d="M58 45h10v10H58z"/></clipPath></defs></svg>