<svg xmlns="http://www.w3.org/2000/svg" width="127" height="100" fill="none"><path fill="#9AA6AE" d="M87 40h31v18H87z"/><path fill="#fff" d="M98.906 52h-.905l-3.243-5.023a2.1 2.1 0 0 1-.202-.395h-.027c.024.134.035.423.035.865V52h-.738v-6.302h.958l3.155 4.944c.132.205.217.346.255.422h.018c-.03-.182-.044-.49-.044-.927v-4.439h.738V52Zm5.173-2.07h-3.178c.012.501.147.888.405 1.16.257.273.612.409 1.063.409.507 0 .973-.167 1.398-.501v.677c-.396.287-.919.43-1.569.43-.636 0-1.136-.203-1.499-.61-.363-.41-.545-.986-.545-1.727 0-.7.198-1.27.594-1.71a1.912 1.912 0 0 1 1.481-.663c.588 0 1.044.19 1.366.57.322.382.484.91.484 1.587v.378Zm-.739-.61c-.003-.417-.104-.74-.303-.972-.196-.231-.47-.347-.822-.347-.34 0-.628.122-.865.365-.238.243-.384.56-.44.953h2.43Zm5.12-1.82-1.512 2.276L108.434 52h-.84l-.883-1.459a8.432 8.432 0 0 1-.198-.343h-.017c-.015.027-.084.14-.207.343L105.388 52h-.83l1.533-2.206-1.467-2.294h.839l.87 1.538c.064.114.127.232.189.352h.018l1.125-1.89h.795Zm2.931 4.456c-.17.094-.394.14-.672.14-.788 0-1.182-.439-1.182-1.318v-2.663h-.774V47.5h.774v-1.099l.72-.233V47.5h1.134v.615h-1.134v2.536c0 .302.052.517.154.646.103.129.273.193.51.193.182 0 .338-.05.47-.15v.616Z"/><path fill="#F0F3F4" d="M43 40h18v18H43z"/><path fill="#9AA6AE" d="M51.482 48.823c0 .527-.048.994-.145 1.402a3.223 3.223 0 0 1-.413 1.032 1.86 1.86 0 0 1-.663.638 1.825 1.825 0 0 1-.892.215c-.317 0-.6-.069-.849-.207a1.798 1.798 0 0 1-.623-.61 3.086 3.086 0 0 1-.387-.98 6.102 6.102 0 0 1-.132-1.336c0-.551.045-1.037.136-1.46a3.36 3.36 0 0 1 .409-1.059c.179-.287.4-.502.663-.645.267-.147.572-.22.915-.22 1.32 0 1.981 1.076 1.981 3.23Zm-.738.07c0-1.793-.426-2.69-1.279-2.69-.9 0-1.349.913-1.349 2.738 0 1.703.441 2.554 1.323 2.554.87 0 1.305-.868 1.305-2.602ZM55.034 52h-.721v-5.445a1.72 1.72 0 0 1-.247.194 4.702 4.702 0 0 1-.782.409c-.146.06-.29.11-.43.144v-.73a4.12 4.12 0 0 0 .5-.175 6.607 6.607 0 0 0 1.011-.54 4.11 4.11 0 0 0 .396-.3h.272V52Z"/><path fill="#F0F3F4" d="M65 40h18v18H65z"/><path fill="#9AA6AE" d="M73.482 48.823c0 .527-.048.994-.145 1.402a3.223 3.223 0 0 1-.413 1.032 1.86 1.86 0 0 1-.663.638 1.825 1.825 0 0 1-.892.215c-.317 0-.6-.069-.849-.207a1.798 1.798 0 0 1-.623-.61 3.086 3.086 0 0 1-.387-.98 6.102 6.102 0 0 1-.132-1.336c0-.551.045-1.037.136-1.46a3.36 3.36 0 0 1 .409-1.059c.179-.287.4-.502.663-.645.267-.147.572-.22.915-.22 1.32 0 1.981 1.076 1.981 3.23Zm-.738.07c0-1.793-.426-2.69-1.279-2.69-.9 0-1.349.913-1.349 2.738 0 1.703.441 2.554 1.323 2.554.87 0 1.305-.868 1.305-2.602Zm4.5-1.542c0-.194-.03-.362-.092-.506a.946.946 0 0 0-.246-.356.973.973 0 0 0-.365-.215 1.515 1.515 0 0 0-.87-.013 2.07 2.07 0 0 0-.396.158 2.582 2.582 0 0 0-.698.554v-.774a2.12 2.12 0 0 1 .676-.448c.252-.105.558-.158.919-.158.258 0 .496.038.716.114a1.496 1.496 0 0 1 .949.857c.094.21.141.453.141.725 0 .25-.03.475-.088.677a2.009 2.009 0 0 1-.26.571 2.69 2.69 0 0 1-.434.514 6.202 6.202 0 0 1-.62.501 26.1 26.1 0 0 0-.734.54c-.19.15-.343.29-.457.423a1.24 1.24 0 0 0-.237.39 1.39 1.39 0 0 0-.066.449h3.138V52h-3.89v-.312c0-.27.03-.507.088-.712.06-.205.156-.4.29-.584.135-.185.311-.37.528-.554.22-.185.488-.393.804-.624.229-.164.419-.32.571-.47.156-.15.28-.3.374-.449.094-.149.16-.3.198-.452.04-.156.061-.32.061-.492ZM9 40h30v18H9z"/><path fill="#fff" d="M16.564 49.618V52h-.738v-6.302h1.732c.673 0 1.195.164 1.564.492.372.329.558.791.558 1.39 0 .597-.206 1.086-.62 1.467-.41.38-.965.571-1.665.571h-.83Zm0-3.252v2.584h.774c.51 0 .898-.116 1.164-.347.27-.234.405-.564.405-.989 0-.832-.492-1.248-1.477-1.248h-.866Zm6.557 1.864c-.126-.097-.307-.145-.545-.145-.307 0-.565.145-.773.434-.205.29-.308.686-.308 1.187V52h-.72v-4.5h.72v.927h.018c.102-.316.259-.562.47-.738.21-.179.447-.268.707-.268.188 0 .331.02.431.061v.748Zm4.399 1.7h-3.177c.012.501.146.888.404 1.16.258.273.612.409 1.064.409a2.21 2.21 0 0 0 1.397-.501v.677c-.395.287-.918.43-1.569.43-.636 0-1.135-.203-1.498-.61-.364-.41-.545-.986-.545-1.727 0-.7.198-1.27.593-1.71a1.913 1.913 0 0 1 1.48-.663c.59 0 1.045.19 1.368.57.322.382.483.91.483 1.587v.378Zm-.738-.61c-.003-.417-.104-.74-.303-.972-.197-.231-.47-.347-.822-.347-.34 0-.629.122-.866.365s-.384.56-.44.953h2.43Zm5.37-1.82L30.359 52h-.708l-1.705-4.5h.791l1.143 3.27c.085.24.138.45.158.628h.018c.029-.226.076-.43.14-.61l1.196-3.288h.76Z"/></svg>