<svg xmlns="http://www.w3.org/2000/svg" width="1000" height="700"><g clip-path="url(#clip-Social_Icon_-_Style_10)"><path fill="#fcfcff" d="M0 0h1000v700H0z"/><g fill="#f2f2f2" stroke="#d5d5d5" transform="translate(520 237)"><rect width="225" height="225" stroke="none" rx="10"/><rect width="224" height="224" x=".5" y=".5" fill="none" rx="9.5"/></g><rect width="225" height="225" fill="#888" rx="10" transform="translate(256 239)"/><path fill="#fff" fill-rule="evenodd" d="M374.514 389.133v-35.638h12.17l1.739-13.909h-13.909v-8.697c0-3.912 1.3-6.955 6.955-6.955h7.389V311.33c-1.739 0-6.085-.435-10.867-.435-10.431 0-17.821 6.52-17.821 18.256v10.431H348v13.913h12.17v35.638ZM950.011 479.86v-26.483h9.043l1.292-10.335h-10.335v-6.459c0-2.907.969-5.167 5.167-5.167h5.49v-9.367c-1.292 0-4.522-.323-8.074-.323-7.749 0-13.24 4.845-13.24 13.565v7.751h-9.043v10.335h9.043v26.483Z"/><text fill="#888" font-family="Roboto-Bold, Roboto" font-size="39" font-weight="700" transform="translate(548 365)"><tspan x="0" y="0">Facebook</tspan></text></g></svg>