<svg xmlns="http://www.w3.org/2000/svg" width="1000" height="700"><g clip-path="url(#clip-Social_Icon_-_Style_11)"><path fill="#fcfcff" d="M0 0h1000v700H0z"/><rect width="225" height="225" fill="#888" rx="10" transform="translate(256 239)"/><g fill="#fff" stroke="#888" stroke-width="10" transform="translate(519 238)"><rect width="225" height="225" stroke="none" rx="10"/><rect width="215" height="215" x="5" y="5" fill="none" rx="5"/></g><path fill="#fff" fill-rule="evenodd" d="M375.044 389.8v-36.352h12.414l1.773-14.187h-14.187v-8.867c0-3.99 1.33-7.094 7.094-7.094h7.537v-12.857c-1.775 0-6.207-.443-11.084-.443-10.64 0-18.177 6.65-18.177 18.621v10.64H348v14.187h12.414V389.8Z"/><path fill="#888" fill-rule="evenodd" d="M637.383 390.8v-36.807h12.569l1.8-14.365h-14.369v-8.978c0-4.04 1.347-7.182 7.182-7.182h7.635v-13.019c-1.8 0-6.288-.449-11.226-.449-10.774 0-18.405 6.734-18.405 18.854v10.774H610v14.365h12.569V390.8Z"/></g></svg>