<svg xmlns="http://www.w3.org/2000/svg" width="1000" height="700"><g clip-path="url(#clip-Social_Icon_-_Style_13)"><path fill="#fcfcff" d="M0 0h1000v700H0z"/><g fill="none" stroke="#888" stroke-width="5" transform="translate(255 238)"><rect width="225" height="225" stroke="none" rx="112.5"/><rect width="220" height="220" x="2.5" y="2.5" rx="110"/></g><g fill="none" stroke="#888" stroke-width="5" transform="translate(525 222)"><rect width="257" height="257" stroke="none" rx="128.5"/><rect width="252" height="252" x="2.5" y="2.5" rx="126"/></g><g fill="#888" stroke="#888" transform="translate(562 259)"><rect width="182" height="182" stroke="none" rx="91"/><rect width="181" height="181" x=".5" y=".5" fill="none" rx="90.5"/></g><path fill="#888" fill-rule="evenodd" d="M373.422 389.047v-35.1h11.989l1.712-13.7h-13.7v-8.557c0-3.852 1.284-6.849 6.849-6.849h7.277v-12.413c-1.712 0-5.993-.428-10.7-.428-10.273 0-17.55 6.421-17.55 17.978v10.273h-11.988v13.7h11.985v35.1Z"/><path fill="#fff" fill-rule="evenodd" d="M659.422 388.047v-35.1h11.989l1.712-13.7h-13.7v-8.557c0-3.852 1.284-6.849 6.849-6.849h7.277v-12.413c-1.712 0-5.993-.428-10.7-.428-10.273 0-17.55 6.421-17.55 17.978v10.273h-11.988v13.7h11.985v35.1Z"/></g></svg>