<svg xmlns="http://www.w3.org/2000/svg" width="1000" height="700"><g clip-path="url(#clip-Social_Icon_-_Style_5)"><path fill="#fcfcff" d="M0 0h1000v700H0z"/><g fill="#f2f2f2" stroke="#d5d5d5" transform="translate(254 245)"><rect width="227" height="211" stroke="none" rx="10"/><rect width="226" height="210" x=".5" y=".5" fill="none" rx="9.5"/></g><g fill="#888" stroke="#888" transform="translate(519 245)"><rect width="227" height="211" stroke="none" rx="10"/><rect width="226" height="210" x=".5" y=".5" fill="none" rx="9.5"/></g><path fill="#888" fill-rule="evenodd" d="M373.942 389.311v-35.8h12.224l1.745-13.971h-13.969v-8.731c0-3.929 1.31-6.985 6.985-6.985h7.422v-12.661c-1.746 0-6.111-.437-10.914-.437-10.478 0-17.9 6.549-17.9 18.336v10.478h-12.224v13.971h12.224v35.8Z"/><path fill="#fff" fill-rule="evenodd" d="M638.942 389.311v-35.8h12.224l1.745-13.971h-13.969v-8.731c0-3.929 1.31-6.985 6.985-6.985h7.422v-12.661c-1.746 0-6.111-.437-10.914-.437-10.478 0-17.9 6.549-17.9 18.336v10.478h-12.224v13.971h12.224v35.8Z"/></g></svg>