<svg xmlns="http://www.w3.org/2000/svg" width="1000" height="700"><g clip-path="url(#clip-Social_Icon_-_Style_6)"><path fill="#fcfcff" d="M0 0h1000v700H0z"/><g fill="#f2f2f2" stroke="#d5d5d5" transform="translate(260 245)"><rect width="225" height="225" stroke="none" rx="112.5"/><rect width="224" height="224" x=".5" y=".5" fill="none" rx="112"/></g><g fill="#888" stroke="#888" transform="translate(525 245)"><rect width="225" height="225" stroke="none" rx="112.5"/><rect width="224" height="224" x=".5" y=".5" fill="none" rx="112"/></g><path fill="#888" fill-rule="evenodd" d="M378.422 396.047v-35.1h11.989l1.712-13.7h-13.7v-8.557c0-3.852 1.284-6.849 6.849-6.849h7.277v-12.413c-1.712 0-5.993-.428-10.7-.428-10.273 0-17.55 6.421-17.55 17.978v10.273h-11.988v13.7h11.985v35.1Z"/><path fill="#fff" fill-rule="evenodd" d="M643.422 396.047v-35.1h11.989l1.712-13.7h-13.7v-8.557c0-3.852 1.284-6.849 6.849-6.849h7.277v-12.413c-1.712 0-5.993-.428-10.7-.428-10.273 0-17.55 6.421-17.55 17.978v10.273h-11.988v13.7h11.985v35.1Z"/></g></svg>