<svg xmlns="http://www.w3.org/2000/svg" width="1000" height="700"><g clip-path="url(#clip-Social_Icon_-_Style_7)"><path fill="#fcfcff" d="M0 0h1000v700H0z"/><g fill="#f2f2f2" stroke="#d5d5d5" transform="translate(221 245)"><rect width="227" height="211" stroke="none" rx="10"/><rect width="226" height="210" x=".5" y=".5" fill="none" rx="9.5"/></g><g fill="#888" stroke="#888" transform="translate(491 216)"><rect width="289" height="268" stroke="none" rx="10"/><rect width="288" height="267" x=".5" y=".5" fill="none" rx="9.5"/></g><path fill="#888" fill-rule="evenodd" d="M340.571 389.215v-35.3h12.054l1.722-13.776h-13.776v-8.613c0-3.874 1.292-6.888 6.888-6.888h7.318v-12.482c-1.722 0-6.027-.43-10.766-.43-10.332 0-17.65 6.457-17.65 18.081v10.332h-12.05v13.775h12.054v35.3Z"/><path fill="#fff" fill-rule="evenodd" d="M652.726 412.492v-57.789h19.733l2.819-22.552h-22.552v-14.095c0-6.343 2.114-11.276 11.276-11.276h11.981v-20.442c-2.819 0-9.866-.7-17.619-.7-16.913 0-28.894 10.571-28.894 29.6v16.913h-19.733v22.552h19.733v57.789Z"/></g></svg>