<svg xmlns="http://www.w3.org/2000/svg" width="1000" height="700"><g clip-path="url(#clip-Social_Icon_-_Style_8)"><path fill="#fcfcff" d="M0 0h1000v700H0z"/><g fill="#f2f2f2" stroke="#d5d5d5" transform="translate(260 245)"><rect width="225" height="225" stroke="none" rx="112.5"/><rect width="224" height="224" x=".5" y=".5" fill="none" rx="112"/></g><g fill="#888" stroke="#888" transform="translate(525 245)"><rect width="225" height="225" stroke="none" rx="10"/><rect width="224" height="224" x=".5" y=".5" fill="none" rx="9.5"/></g><path fill="#888" fill-rule="evenodd" d="M378.227 397.424v-36.182h12.355l1.765-14.12h-14.12V338.3c0-3.971 1.324-7.06 7.06-7.06h7.5v-12.799c-1.764 0-6.176-.441-11.03-.441-10.59 0-18.091 6.619-18.091 18.532v10.59h-12.355v14.12h12.355v36.182Z"/><path fill="#fff" fill-rule="evenodd" d="M643.227 389.424v-36.182h12.355l1.765-14.12h-14.12V330.3c0-3.971 1.324-7.06 7.06-7.06h7.5v-12.799c-1.764 0-6.176-.441-11.03-.441-10.59 0-18.091 6.619-18.091 18.532v10.59h-12.355v14.12h12.355v36.182Z"/></g></svg>