<svg xmlns="http://www.w3.org/2000/svg" width="1000" height="700"><g clip-path="url(#clip-Social_Icon_-_Style_9)"><path fill="#fcfcff" d="M0 0h1000v700H0z"/><path fill="#d5d5d5" fill-rule="evenodd" d="M295.136 436.582v-79.076h27l3.857-30.859h-30.857V307.36c0-8.679 2.893-15.43 15.43-15.43h16.394v-27.966c-3.858 0-13.501-.964-24.109-.964-23.14 0-39.54 14.465-39.54 40.5v23.147h-27v30.859h27v79.076Z"/><path fill="#888" fill-rule="evenodd" d="M606.136 436.582v-79.076h27l3.857-30.859h-30.857V307.36c0-8.679 2.893-15.43 15.43-15.43h16.394v-27.966c-3.858 0-13.501-.964-24.109-.964-23.14 0-39.54 14.465-39.54 40.5v23.147h-27v30.859h27v79.076Z"/><path fill="none" stroke="#707070" stroke-width="5" d="m736.5 237.5-20 20M473.5 228.5l20 20M755.5 357.5h-29M475.5 350.5h-29M506.5 452.5l-23 18M706.5 457.5l19 18M592.5 482.5v29M605.5 192.5v29"/></g></svg>