<svg xmlns="http://www.w3.org/2000/svg" viewBox="0 0 166.667 200"><g fill="#8072fc"><path d="M150 180H90a3.343 3.343 0 0 1-3.333-3.334v-65.6a3.313 3.313 0 0 1 .68-2.007l10.86-14.4a3.331 3.331 0 0 1 2.66-1.326H150a3.339 3.339 0 0 1 3.333 3.333v80A3.343 3.343 0 0 1 150 180Zm-56.666-6.667h53.333V100h-44.14l-9.193 12.18Z"/><path d="M103.333 113.334h-10a3.334 3.334 0 1 1 0-6.667H100V100a3.334 3.334 0 1 1 6.667 0v10a3.343 3.343 0 0 1-3.334 3.334ZM163.334 166.667h-10a3.334 3.334 0 1 1 0-6.667h6.667V86.667h-46.667v6.667a3.334 3.334 0 1 1-6.667 0v-10A3.339 3.339 0 0 1 110 80h53.333a3.339 3.339 0 0 1 3.334 3.333v80a3.343 3.343 0 0 1-3.333 3.334Z"/><path d="M86.667 200H3.333A3.339 3.339 0 0 1 0 196.667V49.853a3.336 3.336 0 0 1 .913-2.293L45.007 1.04A3.323 3.323 0 0 1 47.427 0H150a3.339 3.339 0 0 1 3.333 3.333V60a3.334 3.334 0 1 1-6.667 0V6.667H48.86L6.667 51.18v142.153h80a3.334 3.334 0 1 1 0 6.667Z"/><path d="M50 53.333H6.666a3.334 3.334 0 0 1 0-6.667h40v-40a3.334 3.334 0 0 1 6.667 0V50A3.335 3.335 0 0 1 50 53.333Z"/></g></svg>