<svg xmlns="http://www.w3.org/2000/svg" viewBox="0 0 200 200"><g fill="none" stroke-linecap="round" stroke-linejoin="round"><path d="M0 110.659s22.167 34.185 45.694 32.489 43.893-32.687 64.619-32.489 31.162 38.054 55.226 38.054S200 131.76 200 131.76V200H0Z"/><path d="M110.115 115.658c-1.934 0-3.941.349-6.137 1.065-2.102.686-4.326 1.693-6.801 3.08-4.857 2.724-9.798 6.414-15.03 10.321-11.225 8.385-22.833 17.055-36.093 18.011-.682.05-1.377.074-2.066.074-10.863 0-22.34-5.968-34.11-17.74A112.2 112.2 0 0 1 5 125.263V195h190v-50.92a45.79 45.79 0 0 1-.192.145c-5.726 4.328-15.452 9.488-29.269 9.488-14.794 0-24.794-11.585-33.617-21.806-3.856-4.467-7.499-8.687-11.276-11.753-3.74-3.035-7.038-4.463-10.38-4.495h-.151m0-5h.198c20.726.199 31.163 38.054 55.226 38.054 24.064 0 34.461-16.953 34.461-16.953V200H0v-89.34s21.107 32.549 43.988 32.549c.568 0 1.136-.02 1.706-.061 23.451-1.69 43.764-32.487 64.42-32.49Z" fill="#8072fc"/><g><path d="M0 131.659s22.167 26.15 45.694 24.852 43.893-25 64.619-24.852 31.163 29.108 55.226 29.108S200 147.8 200 147.8V200H0Z"/><path d="M110.115 136.658c-8.935.001-18.428 5.425-28.48 11.168-11.153 6.372-22.686 12.962-35.666 13.678a36.13 36.13 0 0 1-1.98.054c-10.613 0-21.922-4.535-33.613-13.478-1.961-1.5-3.763-2.999-5.376-4.418V195h190v-36.803c-.23.139-.465.277-.704.416-5.646 3.264-15.218 7.155-28.757 7.155-14.402 0-24.361-8.826-33.148-16.613-3.842-3.404-7.47-6.62-11.232-8.955-3.849-2.39-7.307-3.515-10.883-3.541h-.16m-.001-5h.198c20.726.152 31.163 29.109 55.226 29.109C189.603 160.768 200 147.8 200 147.8V200H0v-68.341s21.107 24.899 43.988 24.899c.568 0 1.136-.015 1.706-.047 23.451-1.293 43.764-24.85 64.42-24.853Z" fill="#8072fc"/></g></g><g fill="none" stroke="#8072fc" stroke-width="5"><path stroke="none" d="M0 0h200v200H0z"/><path d="M2.5 2.5h195v195H2.5z"/></g><path d="M193.3 35.2H5.7a3.35 3.35 0 1 1 0-6.7h187.6a3.35 3.35 0 0 1 0 6.7ZM25.726 16.775a4.187 4.187 0 1 1-4.187-4.188 4.187 4.187 0 0 1 4.187 4.188ZM42.476 16.775a4.187 4.187 0 1 1-4.188-4.188 4.187 4.187 0 0 1 4.188 4.188ZM59.226 16.775a4.188 4.188 0 1 1-4.187-4.188 4.187 4.187 0 0 1 4.187 4.188Z" fill="#8072fc"/></svg>