<svg fill="none" xmlns="http://www.w3.org/2000/svg" viewBox="0 0 36 36"><path fill-rule="evenodd" clip-rule="evenodd" d="M30 5H6a1 1 0 0 0-1 1v24a1 1 0 0 0 1 1h24a1 1 0 0 0 1-1V6a1 1 0 0 0-1-1ZM6 3a3 3 0 0 0-3 3v24a3 3 0 0 0 3 3h24a3 3 0 0 0 3-3V6a3 3 0 0 0-3-3H6Z" fill="#5900E7"/><path fill-rule="evenodd" clip-rule="evenodd" d="M9 9v6h6V9H9Zm-.5-2A1.5 1.5 0 0 0 7 8.5v7A1.5 1.5 0 0 0 8.5 17h7a1.5 1.5 0 0 0 1.5-1.5v-7A1.5 1.5 0 0 0 15.5 7h-7ZM21 15v6h6v-6h-6Zm-.5-2a1.5 1.5 0 0 0-1.5 1.5v7a1.5 1.5 0 0 0 1.5 1.5h7a1.5 1.5 0 0 0 1.5-1.5v-7a1.5 1.5 0 0 0-1.5-1.5h-7ZM9 21v6h6v-6H9Zm-.5-2A1.5 1.5 0 0 0 7 20.5v7A1.5 1.5 0 0 0 8.5 29h7a1.5 1.5 0 0 0 1.5-1.5v-7a1.5 1.5 0 0 0-1.5-1.5h-7ZM29 29v-2.5a1.5 1.5 0 0 0-1.5-1.5h-7a1.5 1.5 0 0 0-1.5 1.5V29h2v-2h6v2h2ZM19 7v2.5a1.5 1.5 0 0 0 1.5 1.5h7A1.5 1.5 0 0 0 29 9.5V7h-2v2h-6V7h-2Z" fill="#1DD8A7"/></svg>