<svg xmlns="http://www.w3.org/2000/svg" width="24" height="24" fill="none" viewBox="0 0 24 24" class="tpgb-block-icon-clr" aria-hidden="true" focusable="false"><path fill="#1717CC" fill-rule="evenodd" d="M1.333 9.334A2.667 2.667 0 0 1 4 6.667h13.333A2.667 2.667 0 0 1 20 9.334v5.333a2.667 2.667 0 0 1-2.667 2.667H4a2.667 2.667 0 0 1-2.667-2.667V9.334ZM4 8c-.736 0-1.333.597-1.333 1.334v5.333C2.667 15.403 3.264 16 4 16h13.333c.737 0 1.334-.597 1.334-1.333V9.334c0-.737-.597-1.334-1.334-1.334H4Z" clip-rule="evenodd"></path><path fill="#1717CC" fill-rule="evenodd" d="M3.333 4.667A2.667 2.667 0 0 1 6 2h9.333A2.667 2.667 0 0 1 18 4.667v2.667h-1.333V4.667c0-.736-.597-1.333-1.334-1.333H6c-.736 0-1.333.597-1.333 1.333v2.667H3.333V4.667ZM3.333 19.334A2.667 2.667 0 0 0 6 22h9.333A2.667 2.667 0 0 0 18 19.334v-2.667h-1.333v2.667c0 .736-.597 1.333-1.334 1.333H6a1.333 1.333 0 0 1-1.333-1.333v-2.667H3.333v2.667Z" clip-rule="evenodd"></path><path fill="#1717CC" d="M22.667 12a.667.667 0 1 1-1.334 0 .667.667 0 0 1 1.334 0ZM22.667 9.334a.667.667 0 1 1-1.334 0 .667.667 0 0 1 1.334 0ZM22.667 14.667a.667.667 0 1 1-1.334 0 .667.667 0 0 1 1.334 0Z"></path></svg>