<svg xmlns="http://www.w3.org/2000/svg" viewBox="0 0 24 24" width="24" height="24" aria-hidden="true" focusable="false" fill="none" class="tpgb-block-icon-clr"><path fill="#fff" d="M14.852 5.693c-.137.428-.509 1.47-1.315 1.533-.807.064.795-.505.987-1.153.191-.647.287-.728.287-.728s.178-.08.04.348Z"></path><path fill="#1717CC" d="M12 8.667A3.333 3.333 0 1 0 12 2a3.333 3.333 0 0 0 0 6.667Z"></path><path fill="#1717CC" fill-rule="evenodd" d="M8.516 7.373a.667.667 0 0 1-.358.872l-2.38.994 6.556 2.564 6.562-2.566-2.355-.993a.667.667 0 0 1 .518-1.228l4.275 1.801v9.046l-9 3.52-9-3.52V8.816l4.31-1.801c.34-.142.73.018.872.358Zm11.485 2.863-7 2.738v6.716l7-2.737v-6.717Zm-8.334 9.454v-6.716l-7-2.738v6.717l7 2.737Z" clip-rule="evenodd"></path><path fill="#1717CC" d="M12 10c1.473 0 2.667-.149 2.667-.333 0-.184-1.194-.333-2.666-.333-1.473 0-2.667.149-2.667.333 0 .184 1.194.333 2.667.333Z"></path></svg>