<svg xmlns="http://www.w3.org/2000/svg" width="1000" height="700"><g clip-path="url(#clip-Pricing_Table_Style_2)"><path fill="#fcfcff" d="M0 0h1000v700H0z"/><path fill="#f2f2f2" d="M100 100h800v500H100z"/><path fill="none" stroke="#888" stroke-width="40" d="M429.5 158.5h140"/><path fill="none" stroke="#d5d5d5" stroke-width="20" d="M436.5 305.5h126"/><path fill="none" stroke="#d5d5d5" stroke-width="10" d="M267.5 397.5h164M267.5 456.5h164M267.5 515.5h164"/><text fill="#888" font-family="Arial-BoldMT, Arial" font-size="60" font-weight="700" transform="translate(414 207)"><tspan x="0" y="54">$ 0.00</tspan></text><g fill="none" stroke="#d5d5d5" stroke-width="2" transform="translate(155 350)"><rect width="686" height="211" stroke="none" rx="5"/><rect width="684" height="209" x="1" y="1" rx="4"/></g><g fill="#888"><path d="M218.393 410.98a13.393 13.393 0 1 1 7.225-24.668.914.914 0 0 1-.987 1.538 11.565 11.565 0 1 0 5.328 9.737c0-.381-.018-.759-.054-1.13a.913.913 0 1 1 1.818-.177q.062.645.062 1.306a13.408 13.408 0 0 1-13.392 13.394Zm0 0"/><path d="M219.914 400.631a.906.906 0 0 1-.645-.268l-5.479-5.479a.914.914 0 1 1 1.292-1.292l4.834 4.834 12.746-12.746a.914.914 0 0 1 1.292 1.292l-13.393 13.393a.915.915 0 0 1-.647.266Zm0 0"/></g><g fill="#888"><path d="M218.393 469.98a13.393 13.393 0 1 1 7.225-24.668.914.914 0 0 1-.987 1.538 11.565 11.565 0 1 0 5.328 9.737c0-.381-.018-.759-.054-1.13a.913.913 0 1 1 1.818-.177q.062.645.062 1.306a13.408 13.408 0 0 1-13.392 13.394Zm0 0"/><path d="M219.914 459.631a.906.906 0 0 1-.645-.268l-5.479-5.479a.914.914 0 1 1 1.292-1.292l4.834 4.834 12.746-12.746a.914.914 0 0 1 1.292 1.292l-13.393 13.393a.915.915 0 0 1-.647.266Zm0 0"/></g><g fill="#888"><path d="M218.393 528.98a13.393 13.393 0 1 1 7.225-24.668.914.914 0 0 1-.987 1.538 11.565 11.565 0 1 0 5.328 9.737c0-.381-.018-.759-.054-1.13a.913.913 0 1 1 1.818-.177q.062.645.062 1.306a13.408 13.408 0 0 1-13.392 13.394Zm0 0"/><path d="M219.914 518.631a.906.906 0 0 1-.645-.268l-5.479-5.479a.914.914 0 1 1 1.292-1.292l4.834 4.834 12.746-12.746a.914.914 0 0 1 1.292 1.292l-13.393 13.393a.915.915 0 0 1-.647.266Zm0 0"/></g></g></svg>