<svg xmlns="http://www.w3.org/2000/svg" width="1000" height="700"><g clip-path="url(#clip-Pricing_Table_Style_3)"><path fill="#fcfcff" d="M0 0h1000v700H0z"/><g fill="none" stroke="#888" stroke-width="5" transform="translate(100 100)"><rect width="800" height="250" stroke="none" rx="5"/><rect width="795" height="245" x="2.5" y="2.5" rx="2.5"/></g><path fill="none" stroke="#888" stroke-width="10" d="M267.5 435.5h164M267.5 494.5h164M267.5 553.5h164"/><g fill="none" stroke="#888" stroke-width="5" transform="translate(155 388)"><rect width="686" height="211" stroke="none" rx="5"/><rect width="681" height="206" x="2.5" y="2.5" rx="2.5"/></g><g fill="#888"><path d="M218.393 448.98a13.393 13.393 0 1 1 7.225-24.668.914.914 0 0 1-.987 1.538 11.565 11.565 0 1 0 5.328 9.737c0-.381-.018-.759-.054-1.13a.913.913 0 1 1 1.818-.177q.062.645.062 1.306a13.408 13.408 0 0 1-13.392 13.394Zm0 0"/><path d="M219.914 438.631a.906.906 0 0 1-.645-.268l-5.479-5.479a.914.914 0 1 1 1.292-1.292l4.834 4.834 12.746-12.746a.914.914 0 0 1 1.292 1.292l-13.393 13.393a.915.915 0 0 1-.647.266Zm0 0"/></g><g fill="#888"><path d="M218.393 507.98a13.393 13.393 0 1 1 7.225-24.668.914.914 0 0 1-.987 1.538 11.565 11.565 0 1 0 5.328 9.737c0-.381-.018-.759-.054-1.13a.913.913 0 1 1 1.818-.177q.062.645.062 1.306a13.408 13.408 0 0 1-13.392 13.394Zm0 0"/><path d="M219.914 497.631a.906.906 0 0 1-.645-.268l-5.479-5.479a.914.914 0 1 1 1.292-1.292l4.834 4.834 12.746-12.746a.914.914 0 0 1 1.292 1.292l-13.393 13.393a.915.915 0 0 1-.647.266Zm0 0"/></g><g fill="#888"><path d="M218.393 566.98a13.393 13.393 0 1 1 7.225-24.668.914.914 0 0 1-.987 1.538 11.565 11.565 0 1 0 5.328 9.737c0-.381-.018-.759-.054-1.13a.913.913 0 1 1 1.818-.177q.062.645.062 1.306a13.408 13.408 0 0 1-13.392 13.394Zm0 0"/><path d="M219.914 556.631a.906.906 0 0 1-.645-.268l-5.479-5.479a.914.914 0 1 1 1.292-1.292l4.834 4.834 12.746-12.746a.914.914 0 0 1 1.292 1.292l-13.393 13.393a.915.915 0 0 1-.647.266Zm0 0"/></g><path fill="none" stroke="#888" stroke-width="30" d="M430.5 156.5h140"/><path fill="none" stroke="#d5d5d5" stroke-width="10" d="M437.5 293.5h126"/><text fill="#888" font-family="Arial-BoldMT, Arial" font-size="50" font-weight="700" transform="translate(431 195)"><tspan x="0" y="45">$ </tspan></text></g></svg>