<svg width="127" height="100" viewBox="0 0 127 100" fill="none" xmlns="http://www.w3.org/2000/svg">
<rect opacity="0.1" x="24" y="15" width="80" height="70" fill="#9AA6AE"/>
<rect x="24" y="15" width="80" height="14" fill="#9AA6AE"/>
<path d="M34.3438 25H33.4648L32.4102 23.2334C32.3135 23.0693 32.2197 22.9302 32.1289 22.8159C32.0381 22.6987 31.9443 22.6035 31.8477 22.5303C31.7539 22.457 31.6514 22.4043 31.54 22.3721C31.4316 22.3369 31.3086 22.3193 31.1709 22.3193H30.5645V25H29.8262V18.6982H31.707C31.9824 18.6982 32.2358 18.7334 32.4673 18.8037C32.7017 18.8711 32.9038 18.9751 33.0737 19.1157C33.2466 19.2563 33.3813 19.4321 33.478 19.6431C33.5747 19.8511 33.623 20.0957 33.623 20.377C33.623 20.5967 33.5894 20.7988 33.522 20.9834C33.4575 21.165 33.3638 21.3276 33.2407 21.4712C33.1206 21.6147 32.9741 21.7378 32.8013 21.8403C32.6313 21.9399 32.4395 22.0176 32.2256 22.0732V22.0908C32.3311 22.1377 32.4219 22.1919 32.498 22.2534C32.5771 22.312 32.6519 22.3823 32.7222 22.4644C32.7925 22.5464 32.8613 22.6401 32.9287 22.7456C32.999 22.8481 33.0767 22.9683 33.1616 23.106L34.3438 25ZM30.5645 19.3662V21.6514H31.5664C31.751 21.6514 31.9209 21.6235 32.0762 21.5679C32.2344 21.5122 32.3706 21.4331 32.4849 21.3306C32.5991 21.2251 32.6885 21.0977 32.7529 20.9482C32.8174 20.7959 32.8496 20.626 32.8496 20.4385C32.8496 20.1016 32.7397 19.8394 32.52 19.6519C32.3032 19.4614 31.9883 19.3662 31.5752 19.3662H30.5645ZM35.9521 25H35.2139V18.6982H35.9521V25ZM37.6133 25V18.6982H39.4062C39.9512 18.6982 40.3833 18.8315 40.7026 19.0981C41.022 19.3647 41.1816 19.7119 41.1816 20.1396C41.1816 20.4971 41.085 20.8076 40.8916 21.0713C40.6982 21.335 40.4316 21.5225 40.0918 21.6338V21.6514C40.5166 21.7012 40.8564 21.8623 41.1113 22.1348C41.3662 22.4043 41.4937 22.7559 41.4937 23.1895C41.4937 23.7285 41.3003 24.165 40.9136 24.499C40.5269 24.833 40.0391 25 39.4502 25H37.6133ZM38.3516 19.3662V21.4009H39.1074C39.5117 21.4009 39.8296 21.3042 40.061 21.1108C40.2925 20.9146 40.4082 20.6392 40.4082 20.2847C40.4082 19.6724 40.0054 19.3662 39.1997 19.3662H38.3516ZM38.3516 22.0645V24.332H39.3535C39.7871 24.332 40.1226 24.2295 40.3599 24.0244C40.6001 23.8193 40.7202 23.5381 40.7202 23.1807C40.7202 22.4365 40.2134 22.0645 39.1997 22.0645H38.3516ZM42.7725 25V18.6982H44.5654C45.1104 18.6982 45.5425 18.8315 45.8618 19.0981C46.1812 19.3647 46.3408 19.7119 46.3408 20.1396C46.3408 20.4971 46.2441 20.8076 46.0508 21.0713C45.8574 21.335 45.5908 21.5225 45.251 21.6338V21.6514C45.6758 21.7012 46.0156 21.8623 46.2705 22.1348C46.5254 22.4043 46.6528 22.7559 46.6528 23.1895C46.6528 23.7285 46.4595 24.165 46.0728 24.499C45.686 24.833 45.1982 25 44.6094 25H42.7725ZM43.5107 19.3662V21.4009H44.2666C44.6709 21.4009 44.9888 21.3042 45.2202 21.1108C45.4517 20.9146 45.5674 20.6392 45.5674 20.2847C45.5674 19.6724 45.1646 19.3662 44.3589 19.3662H43.5107ZM43.5107 22.0645V24.332H44.5127C44.9463 24.332 45.2817 24.2295 45.519 24.0244C45.7593 23.8193 45.8794 23.5381 45.8794 23.1807C45.8794 22.4365 45.3726 22.0645 44.3589 22.0645H43.5107ZM50.4717 25.1055C49.5781 25.1055 48.8618 24.811 48.3228 24.2222C47.7866 23.6333 47.5186 22.8672 47.5186 21.9238C47.5186 20.9102 47.7925 20.1016 48.3403 19.498C48.8882 18.8945 49.6338 18.5928 50.5771 18.5928C51.4473 18.5928 52.1475 18.8857 52.6777 19.4717C53.2109 20.0576 53.4775 20.8237 53.4775 21.77C53.4775 22.7983 53.2051 23.6113 52.6602 24.209C52.1152 24.8066 51.3857 25.1055 50.4717 25.1055ZM50.5244 19.2607C49.8623 19.2607 49.3247 19.4995 48.9116 19.9771C48.4985 20.4546 48.292 21.0815 48.292 21.8579C48.292 22.6343 48.4927 23.2598 48.894 23.7344C49.2983 24.2061 49.8242 24.4419 50.4717 24.4419C51.1631 24.4419 51.708 24.2163 52.1064 23.7651C52.5049 23.314 52.7041 22.6826 52.7041 21.8711C52.7041 21.0391 52.5107 20.396 52.124 19.9419C51.7373 19.4878 51.2041 19.2607 50.5244 19.2607ZM59.7969 25H58.8916L55.6484 19.9771C55.5664 19.8511 55.499 19.7192 55.4463 19.5815H55.4199C55.4434 19.7163 55.4551 20.0049 55.4551 20.4473V25H54.7168V18.6982H55.6748L58.8301 23.6421C58.9619 23.8472 59.0469 23.9878 59.085 24.064H59.1025C59.0732 23.8823 59.0586 23.5732 59.0586 23.1367V18.6982H59.7969V25Z" fill="white"/>
<rect opacity="0.5" x="32" y="60" width="64" height="12" fill="#9AA6AE"/>
<rect opacity="0.5" x="38" y="45" width="52" height="4" fill="#9AA6AE"/>
<rect opacity="0.5" x="48" y="52" width="32" height="2" fill="#9AA6AE"/>
</svg>
