<svg width="127" height="100" viewBox="0 0 127 100" fill="none" xmlns="http://www.w3.org/2000/svg">
<rect opacity="0.1" x="24" y="15" width="80" height="70" fill="#9AA6AE"/>
<path d="M60 20H83.5H95.25H104V18L107 20V34H60V20Z" fill="#9AA6AE"/>
<path d="M70.3438 30H69.4648L68.4102 28.2334C68.3135 28.0693 68.2197 27.9302 68.1289 27.8159C68.0381 27.6987 67.9443 27.6035 67.8477 27.5303C67.7539 27.457 67.6514 27.4043 67.54 27.3721C67.4316 27.3369 67.3086 27.3193 67.1709 27.3193H66.5645V30H65.8262V23.6982H67.707C67.9824 23.6982 68.2358 23.7334 68.4673 23.8037C68.7017 23.8711 68.9038 23.9751 69.0737 24.1157C69.2466 24.2563 69.3813 24.4321 69.478 24.6431C69.5747 24.8511 69.623 25.0957 69.623 25.377C69.623 25.5967 69.5894 25.7988 69.522 25.9834C69.4575 26.165 69.3638 26.3276 69.2407 26.4712C69.1206 26.6147 68.9741 26.7378 68.8013 26.8403C68.6313 26.9399 68.4395 27.0176 68.2256 27.0732V27.0908C68.3311 27.1377 68.4219 27.1919 68.498 27.2534C68.5771 27.312 68.6519 27.3823 68.7222 27.4644C68.7925 27.5464 68.8613 27.6401 68.9287 27.7456C68.999 27.8481 69.0767 27.9683 69.1616 28.106L70.3438 30ZM66.5645 24.3662V26.6514H67.5664C67.751 26.6514 67.9209 26.6235 68.0762 26.5679C68.2344 26.5122 68.3706 26.4331 68.4849 26.3306C68.5991 26.2251 68.6885 26.0977 68.7529 25.9482C68.8174 25.7959 68.8496 25.626 68.8496 25.4385C68.8496 25.1016 68.7397 24.8394 68.52 24.6519C68.3032 24.4614 67.9883 24.3662 67.5752 24.3662H66.5645ZM71.9521 30H71.2139V23.6982H71.9521V30ZM73.6133 30V23.6982H75.4062C75.9512 23.6982 76.3833 23.8315 76.7026 24.0981C77.022 24.3647 77.1816 24.7119 77.1816 25.1396C77.1816 25.4971 77.085 25.8076 76.8916 26.0713C76.6982 26.335 76.4316 26.5225 76.0918 26.6338V26.6514C76.5166 26.7012 76.8564 26.8623 77.1113 27.1348C77.3662 27.4043 77.4937 27.7559 77.4937 28.1895C77.4937 28.7285 77.3003 29.165 76.9136 29.499C76.5269 29.833 76.0391 30 75.4502 30H73.6133ZM74.3516 24.3662V26.4009H75.1074C75.5117 26.4009 75.8296 26.3042 76.061 26.1108C76.2925 25.9146 76.4082 25.6392 76.4082 25.2847C76.4082 24.6724 76.0054 24.3662 75.1997 24.3662H74.3516ZM74.3516 27.0645V29.332H75.3535C75.7871 29.332 76.1226 29.2295 76.3599 29.0244C76.6001 28.8193 76.7202 28.5381 76.7202 28.1807C76.7202 27.4365 76.2134 27.0645 75.1997 27.0645H74.3516ZM78.7725 30V23.6982H80.5654C81.1104 23.6982 81.5425 23.8315 81.8618 24.0981C82.1812 24.3647 82.3408 24.7119 82.3408 25.1396C82.3408 25.4971 82.2441 25.8076 82.0508 26.0713C81.8574 26.335 81.5908 26.5225 81.251 26.6338V26.6514C81.6758 26.7012 82.0156 26.8623 82.2705 27.1348C82.5254 27.4043 82.6528 27.7559 82.6528 28.1895C82.6528 28.7285 82.4595 29.165 82.0728 29.499C81.686 29.833 81.1982 30 80.6094 30H78.7725ZM79.5107 24.3662V26.4009H80.2666C80.6709 26.4009 80.9888 26.3042 81.2202 26.1108C81.4517 25.9146 81.5674 25.6392 81.5674 25.2847C81.5674 24.6724 81.1646 24.3662 80.3589 24.3662H79.5107ZM79.5107 27.0645V29.332H80.5127C80.9463 29.332 81.2817 29.2295 81.519 29.0244C81.7593 28.8193 81.8794 28.5381 81.8794 28.1807C81.8794 27.4365 81.3726 27.0645 80.3589 27.0645H79.5107ZM86.4717 30.1055C85.5781 30.1055 84.8618 29.811 84.3228 29.2222C83.7866 28.6333 83.5186 27.8672 83.5186 26.9238C83.5186 25.9102 83.7925 25.1016 84.3403 24.498C84.8882 23.8945 85.6338 23.5928 86.5771 23.5928C87.4473 23.5928 88.1475 23.8857 88.6777 24.4717C89.2109 25.0576 89.4775 25.8237 89.4775 26.77C89.4775 27.7983 89.2051 28.6113 88.6602 29.209C88.1152 29.8066 87.3857 30.1055 86.4717 30.1055ZM86.5244 24.2607C85.8623 24.2607 85.3247 24.4995 84.9116 24.9771C84.4985 25.4546 84.292 26.0815 84.292 26.8579C84.292 27.6343 84.4927 28.2598 84.894 28.7344C85.2983 29.2061 85.8242 29.4419 86.4717 29.4419C87.1631 29.4419 87.708 29.2163 88.1064 28.7651C88.5049 28.314 88.7041 27.6826 88.7041 26.8711C88.7041 26.0391 88.5107 25.396 88.124 24.9419C87.7373 24.4878 87.2041 24.2607 86.5244 24.2607ZM95.7969 30H94.8916L91.6484 24.9771C91.5664 24.8511 91.499 24.7192 91.4463 24.5815H91.4199C91.4434 24.7163 91.4551 25.0049 91.4551 25.4473V30H90.7168V23.6982H91.6748L94.8301 28.6421C94.9619 28.8472 95.0469 28.9878 95.085 29.064H95.1025C95.0732 28.8823 95.0586 28.5732 95.0586 28.1367V23.6982H95.7969V30Z" fill="white"/>
<rect opacity="0.5" x="38" y="45" width="52" height="4" fill="#9AA6AE"/>
<rect opacity="0.5" x="32" y="60" width="64" height="12" fill="#9AA6AE"/>
<rect opacity="0.5" x="48" y="52" width="32" height="2" fill="#9AA6AE"/>
</svg>
