<svg xmlns="http://www.w3.org/2000/svg" width="127" height="100" fill="none"><path fill="#9AA6AE" d="M31 21h64v8H31zM43 33h40v4H43z" opacity=".5"/><path fill="#9AA6AE" d="M54 59h18v3H54z" opacity=".35"/><path fill="#9AA6AE" d="M39 75h48v4H39z" opacity=".4"/><path fill="#9AA6AE" d="M48.762 54.953v1.272h-.721V55c-.867 0-1.572-.168-2.115-.504V53.19c.238.207.56.38.967.52.41.142.792.212 1.148.212v-2.607c-.922-.426-1.52-.819-1.793-1.178-.27-.36-.404-.785-.404-1.278 0-.582.207-1.084.62-1.506.415-.425.94-.681 1.577-.767V45.53h.72v1.032c.821.023 1.387.132 1.7.328v1.254c-.426-.313-.992-.48-1.7-.504v2.7c.86.4 1.448.786 1.764 1.161.317.375.475.799.475 1.271 0 .575-.197 1.055-.592 1.442-.394.387-.943.633-1.646.738Zm-.721-4.945V47.67a1.229 1.229 0 0 0-.697.375 1.007 1.007 0 0 0-.258.697c0 .29.07.526.21.71.142.183.39.368.745.556Zm.72 1.623v2.256c.665-.14.997-.487.997-1.037 0-.461-.332-.868-.996-1.22Zm9.042-1.29c0 .84-.092 1.563-.276 2.169-.18.605-.43 1.103-.75 1.494-.316.39-.69.68-1.119.867a3.44 3.44 0 0 1-1.377.276c-.16 0-.322-.01-.486-.03a5.424 5.424 0 0 1-.861-.176 3.214 3.214 0 0 1-.293-.11v-1.226a2.71 2.71 0 0 0 .697.3c.144.038.293.072.445.099.157.023.307.035.451.035.332 0 .633-.064.903-.193.273-.13.506-.32.697-.574a2.74 2.74 0 0 0 .44-.944 4.91 4.91 0 0 0 .158-1.312h-.024a1.57 1.57 0 0 1-.281.357c-.113.11-.244.207-.393.293a2.285 2.285 0 0 1-1.078.275c-.351 0-.68-.06-.984-.181a2.356 2.356 0 0 1-1.313-1.354 2.991 2.991 0 0 1-.187-1.084c0-.437.072-.832.217-1.183a2.603 2.603 0 0 1 1.494-1.477 3.002 3.002 0 0 1 1.119-.205c.379 0 .736.072 1.072.217.34.14.637.367.89.68.259.308.462.709.61 1.2.153.493.229 1.089.229 1.788Zm-1.418-.896c0-.28-.037-.537-.112-.767-.07-.23-.17-.428-.298-.592a1.354 1.354 0 0 0-.463-.38 1.255 1.255 0 0 0-.58-.136c-.188 0-.367.04-.54.117a1.326 1.326 0 0 0-.445.323c-.125.14-.224.31-.299.51-.074.199-.11.42-.11.662 0 .265.034.5.105.703.074.203.175.375.304.515.13.137.283.243.463.317.184.07.385.105.604.105a1.354 1.354 0 0 0 1.265-.838c.07-.168.106-.347.106-.539Zm8.12.897c0 .84-.09 1.562-.274 2.168-.18.605-.43 1.103-.75 1.494-.317.39-.69.68-1.12.867a3.44 3.44 0 0 1-1.377.276c-.16 0-.322-.01-.486-.03a5.415 5.415 0 0 1-.861-.176 3.2 3.2 0 0 1-.293-.11v-1.226a2.699 2.699 0 0 0 .697.3c.145.038.293.072.445.099.157.023.307.035.452.035.331 0 .632-.064.902-.193.273-.13.506-.32.697-.574.191-.254.338-.569.44-.944.105-.379.158-.816.158-1.312h-.024c-.07.125-.164.244-.28.357-.114.11-.245.207-.394.293a2.284 2.284 0 0 1-1.078.275c-.351 0-.68-.06-.984-.181a2.356 2.356 0 0 1-1.313-1.354 2.991 2.991 0 0 1-.187-1.084c0-.437.072-.832.217-1.183a2.602 2.602 0 0 1 1.494-1.477 3.002 3.002 0 0 1 1.12-.205c.378 0 .735.072 1.071.217.34.14.637.367.891.68.258.308.46.709.61 1.2.152.493.228 1.089.228 1.788Zm-1.417-.897c0-.28-.037-.537-.111-.767-.07-.23-.17-.428-.3-.592a1.354 1.354 0 0 0-.462-.38 1.255 1.255 0 0 0-.58-.136c-.188 0-.367.04-.54.117a1.326 1.326 0 0 0-.445.323c-.125.14-.224.31-.298.51-.075.199-.112.42-.112.662 0 .265.035.5.106.703.074.203.176.375.304.515.13.137.284.243.463.317.184.07.385.105.604.105a1.355 1.355 0 0 0 1.37-1.377Zm3.434 5.684a.847.847 0 0 1-.598-.229.743.743 0 0 1-.246-.556.75.75 0 0 1 .246-.563.835.835 0 0 1 .597-.234c.239 0 .44.078.604.234a.742.742 0 0 1 .252.563c0 .215-.084.4-.252.556a.854.854 0 0 1-.603.229Zm7.581-4.787c0 .84-.091 1.562-.275 2.168-.18.605-.43 1.103-.75 1.494-.316.39-.69.68-1.119.867a3.44 3.44 0 0 1-1.377.276c-.16 0-.322-.01-.486-.03a5.411 5.411 0 0 1-.862-.176 3.203 3.203 0 0 1-.293-.11v-1.226a2.701 2.701 0 0 0 .698.3c.144.038.293.072.445.099.156.023.307.035.451.035.332 0 .633-.064.903-.193.273-.13.505-.32.697-.574a2.74 2.74 0 0 0 .44-.944 4.91 4.91 0 0 0 .157-1.312h-.023c-.07.125-.164.244-.281.357-.114.11-.244.207-.393.293a2.285 2.285 0 0 1-1.078.275c-.351 0-.68-.06-.984-.181a2.356 2.356 0 0 1-1.313-1.354 2.991 2.991 0 0 1-.187-1.084c0-.437.072-.832.216-1.183a2.603 2.603 0 0 1 1.495-1.477 3.001 3.001 0 0 1 1.119-.205c.379 0 .736.072 1.072.217.34.14.637.367.89.68.258.308.462.709.61 1.2.152.493.228 1.089.228 1.788Zm-1.417-.897c0-.28-.038-.537-.112-.767-.07-.23-.17-.428-.299-.592a1.354 1.354 0 0 0-.463-.38 1.255 1.255 0 0 0-.58-.136c-.187 0-.367.04-.539.117a1.327 1.327 0 0 0-.445.323c-.125.14-.225.31-.299.51-.074.199-.111.42-.111.662 0 .265.035.5.105.703.075.203.176.375.305.515.129.137.283.243.463.317.183.07.385.105.603.105a1.354 1.354 0 0 0 1.372-1.377Zm8.12.897c0 .84-.091 1.562-.275 2.168-.18.605-.43 1.103-.75 1.494-.316.39-.69.68-1.119.867a3.44 3.44 0 0 1-1.377.276c-.16 0-.322-.01-.486-.03a5.424 5.424 0 0 1-.862-.176 3.214 3.214 0 0 1-.293-.11v-1.226a2.71 2.71 0 0 0 .698.3c.144.038.293.072.445.099.156.023.307.035.451.035.332 0 .633-.064.903-.193.273-.13.505-.32.697-.574a2.74 2.74 0 0 0 .44-.944 4.91 4.91 0 0 0 .157-1.312h-.023a1.57 1.57 0 0 1-.281.357c-.113.11-.244.207-.393.293a2.285 2.285 0 0 1-1.078.275c-.351 0-.68-.06-.984-.181a2.356 2.356 0 0 1-1.313-1.354 2.991 2.991 0 0 1-.187-1.084c0-.437.072-.832.217-1.183a2.603 2.603 0 0 1 1.494-1.477 3.002 3.002 0 0 1 1.119-.205c.379 0 .736.072 1.072.217.34.14.637.367.89.68.259.308.462.709.61 1.2.153.493.229 1.089.229 1.788Zm-1.417-.897c0-.28-.037-.537-.112-.767-.07-.23-.17-.428-.299-.592a1.354 1.354 0 0 0-.462-.38 1.255 1.255 0 0 0-.58-.136c-.188 0-.368.04-.54.117a1.326 1.326 0 0 0-.445.323c-.125.14-.224.31-.299.51-.074.199-.111.42-.111.662 0 .265.035.5.106.703.074.203.175.375.304.515.13.137.283.243.463.317.184.07.385.105.604.105a1.354 1.354 0 0 0 1.265-.838c.07-.168.106-.347.106-.539Z"/></svg>