<svg xmlns="http://www.w3.org/2000/svg" width="127" height="100" fill="none"><path fill="#9AA6AE" d="M32 21h64v8H32zM44 33h40v4H44z" opacity=".5"/><path fill="#9AA6AE" d="M77 54h18v3H77z" opacity=".35"/><path fill="#9AA6AE" d="M40 75h48v4H40z" opacity=".4"/><path fill="#9AA6AE" d="M34.508 54.969v.847h-.48V55c-.579 0-1.049-.112-1.41-.336v-.871c.158.138.373.254.644.348.273.093.528.14.765.14v-1.738c-.614-.284-1.013-.546-1.195-.785a1.38 1.38 0 0 1-.27-.852c0-.388.139-.722.415-1.004a1.744 1.744 0 0 1 1.05-.511v-.703h.48v.687c.548.016.925.089 1.134.219v.836c-.284-.209-.662-.32-1.133-.336v1.8c.573.266.965.524 1.176.774.21.25.316.532.316.848 0 .382-.132.703-.395.96-.263.258-.628.422-1.097.493Zm-.48-3.297v-1.559a.82.82 0 0 0-.465.25.67.67 0 0 0-.172.465c0 .193.047.35.14.473.094.122.26.246.496.37Zm.48 1.082v1.504c.442-.094.664-.324.664-.692 0-.307-.221-.578-.664-.812ZM46.157 51.565c0 .98-.107 1.823-.321 2.53-.21.706-.501 1.287-.875 1.743-.37.456-.804.793-1.306 1.012a4.014 4.014 0 0 1-1.606.32c-.187 0-.376-.01-.568-.033a6.39 6.39 0 0 1-1.004-.205 3.68 3.68 0 0 1-.342-.13v-1.429c.096.06.214.12.355.185.142.059.294.114.458.164.169.045.342.084.52.116.182.027.357.04.526.04a2.41 2.41 0 0 0 1.053-.225c.319-.15.59-.373.813-.67.224-.296.395-.663.513-1.1.123-.442.185-.953.185-1.531h-.028a1.834 1.834 0 0 1-.328.417 2.35 2.35 0 0 1-.458.341 2.667 2.667 0 0 1-.58.233 2.48 2.48 0 0 1-.678.089c-.41 0-.793-.071-1.148-.212a2.748 2.748 0 0 1-.916-.615 2.866 2.866 0 0 1-.615-.964 3.49 3.49 0 0 1-.22-1.265c0-.51.085-.97.254-1.38a3.037 3.037 0 0 1 1.743-1.724 3.5 3.5 0 0 1 1.306-.239c.442 0 .859.084 1.25.253.397.164.743.428 1.04.793.3.36.537.827.71 1.401.178.575.267 1.27.267 2.085Zm-1.654-1.045a2.91 2.91 0 0 0-.13-.896 2.092 2.092 0 0 0-.349-.69 1.58 1.58 0 0 0-.54-.445 1.464 1.464 0 0 0-.676-.157c-.22 0-.429.046-.63.137-.195.086-.368.212-.519.376a1.862 1.862 0 0 0-.349.595 2.2 2.2 0 0 0-.13.772c0 .31.042.583.124.82.086.237.205.438.355.602.15.16.33.282.54.369.214.082.45.123.704.123a1.579 1.579 0 0 0 1.477-.978c.082-.196.123-.405.123-.629Zm9.474 1.045c0 .98-.107 1.823-.32 2.53-.21.706-.502 1.287-.876 1.743-.369.456-.804.793-1.305 1.012a4.013 4.013 0 0 1-1.607.32c-.187 0-.376-.01-.567-.033a6.386 6.386 0 0 1-1.005-.205 3.69 3.69 0 0 1-.342-.13v-1.429c.096.06.214.12.355.185.142.059.294.114.459.164.168.045.341.084.52.116.181.027.357.04.526.04.387 0 .738-.074 1.052-.225.32-.15.59-.373.814-.67.223-.296.394-.663.512-1.1.123-.442.185-.953.185-1.531h-.027a1.834 1.834 0 0 1-.328.417 2.357 2.357 0 0 1-.459.341 2.67 2.67 0 0 1-.58.233 2.48 2.48 0 0 1-.677.089c-.41 0-.793-.071-1.149-.212a2.749 2.749 0 0 1-.916-.615 2.864 2.864 0 0 1-.615-.964 3.489 3.489 0 0 1-.219-1.265c0-.51.084-.97.253-1.38a3.039 3.039 0 0 1 1.743-1.724c.401-.159.837-.239 1.306-.239.442 0 .859.084 1.25.253.397.164.744.428 1.04.793.3.36.538.827.71 1.401.179.575.267 1.27.267 2.085Zm-1.654-1.045c0-.329-.043-.627-.13-.896a2.094 2.094 0 0 0-.348-.69 1.58 1.58 0 0 0-.54-.445 1.464 1.464 0 0 0-.677-.157c-.219 0-.428.046-.629.137-.196.086-.37.212-.52.376a1.862 1.862 0 0 0-.348.595c-.087.232-.13.49-.13.772 0 .31.041.583.123.82.087.237.205.438.355.602.15.16.33.282.54.369.215.082.45.123.705.123a1.579 1.579 0 0 0 1.476-.978c.082-.196.123-.405.123-.629Zm4.006 6.63a.988.988 0 0 1-.697-.266.867.867 0 0 1-.287-.65c0-.255.095-.474.287-.656a.974.974 0 0 1 .697-.273c.278 0 .513.09.704.273a.865.865 0 0 1 .294.656c0 .251-.098.468-.294.65a.996.996 0 0 1-.704.266Zm8.846-5.585c0 .98-.107 1.823-.322 2.53-.21.706-.5 1.287-.874 1.743-.37.456-.805.793-1.306 1.012a4.014 4.014 0 0 1-1.607.32c-.186 0-.376-.01-.567-.033a6.39 6.39 0 0 1-1.005-.205 3.702 3.702 0 0 1-.342-.13v-1.429c.096.06.215.12.356.185.141.059.294.114.458.164.168.045.342.084.52.116.182.027.357.04.526.04a2.41 2.41 0 0 0 1.053-.225c.319-.15.59-.373.813-.67.223-.296.394-.663.513-1.1.123-.442.184-.953.184-1.531h-.027a1.837 1.837 0 0 1-.328.417 2.35 2.35 0 0 1-.458.341 2.67 2.67 0 0 1-.581.233c-.21.059-.436.089-.677.089-.41 0-.793-.071-1.148-.212a2.748 2.748 0 0 1-.916-.615 2.866 2.866 0 0 1-.616-.964 3.49 3.49 0 0 1-.218-1.265c0-.51.084-.97.252-1.38a3.036 3.036 0 0 1 1.744-1.724 3.5 3.5 0 0 1 1.305-.239c.442 0 .86.084 1.251.253.397.164.743.428 1.04.793.3.36.537.827.71 1.401.178.575.267 1.27.267 2.085ZM63.52 50.52a2.91 2.91 0 0 0-.13-.896 2.092 2.092 0 0 0-.349-.69 1.58 1.58 0 0 0-.54-.445 1.464 1.464 0 0 0-.677-.157c-.219 0-.428.046-.629.137-.196.086-.369.212-.52.376a1.862 1.862 0 0 0-.348.595c-.087.232-.13.49-.13.772 0 .31.041.583.123.82.087.237.205.438.356.602.15.16.33.282.54.369.214.082.449.123.704.123a1.579 1.579 0 0 0 1.477-.978c.081-.196.122-.405.122-.629Zm9.474 1.045c0 .98-.107 1.823-.321 2.53-.21.706-.502 1.287-.875 1.743-.37.456-.805.793-1.306 1.012a4.014 4.014 0 0 1-1.606.32c-.187 0-.376-.01-.568-.033a6.39 6.39 0 0 1-1.005-.205 3.68 3.68 0 0 1-.341-.13v-1.429c.095.06.214.12.355.185.141.059.294.114.458.164.169.045.342.084.52.116.182.027.357.04.526.04a2.41 2.41 0 0 0 1.053-.225c.319-.15.59-.373.813-.67.224-.296.394-.663.513-1.1.123-.442.184-.953.184-1.531h-.027a1.834 1.834 0 0 1-.328.417 2.35 2.35 0 0 1-.458.341 2.667 2.667 0 0 1-.581.233c-.21.059-.435.089-.677.089-.41 0-.793-.071-1.148-.212a2.748 2.748 0 0 1-.916-.615 2.866 2.866 0 0 1-.616-.964 3.49 3.49 0 0 1-.218-1.265c0-.51.084-.97.253-1.38a3.037 3.037 0 0 1 1.743-1.724 3.5 3.5 0 0 1 1.306-.239c.442 0 .859.084 1.25.253.397.164.743.428 1.04.793.3.36.537.827.71 1.401.178.575.267 1.27.267 2.085Zm-1.654-1.045a2.91 2.91 0 0 0-.13-.896 2.092 2.092 0 0 0-.349-.69 1.58 1.58 0 0 0-.54-.445 1.464 1.464 0 0 0-.677-.157c-.218 0-.428.046-.628.137-.196.086-.37.212-.52.376a1.862 1.862 0 0 0-.349.595c-.086.232-.13.49-.13.772 0 .31.042.583.124.82.086.237.205.438.355.602.15.16.33.282.54.369.214.082.449.123.704.123a1.579 1.579 0 0 0 1.477-.978c.082-.196.123-.405.123-.629Z"/></svg>