<svg xmlns="http://www.w3.org/2000/svg" width="127" height="100" fill="none"><path fill="#9AA6AE" d="M38 16h52v6H38zM32 36h64v12H32zM48 26h32v3H48z" opacity=".5"/><path stroke="#9AA6AE" d="M12.5 58.5h103v31h-103z"/><rect width="8" height="8" x="17" y="64" fill="#9AA6AE" rx="4"/><path stroke="#fff" stroke-linecap="round" stroke-linejoin="round" stroke-width=".952" d="m19.333 68.366.953.953 2.38-2.382"/><rect width="8" height="8" x="17" y="76" fill="#9AA6AE" rx="4"/><path stroke="#fff" stroke-linecap="round" stroke-linejoin="round" stroke-width=".952" d="m19.335 80.366.952.953 2.381-2.382"/><path fill="#9AA6AE" d="M35.059 65.74h-2.022V72h-.82v-6.26H30.2v-.742h4.859v.742Zm4.038 3.96h-3.53c.012.557.162.986.449 1.29.286.302.68.453 1.181.453.563 0 1.081-.185 1.553-.556v.752c-.44.319-1.02.478-1.743.478-.706 0-1.262-.226-1.665-.678-.404-.456-.606-1.096-.606-1.92 0-.778.22-1.41.66-1.899a2.126 2.126 0 0 1 1.645-.737c.654 0 1.16.211 1.519.635.358.423.537 1.01.537 1.762v.42Zm-.82-.678c-.004-.463-.116-.823-.337-1.08-.219-.257-.523-.385-.914-.385-.377 0-.698.135-.962.405-.263.27-.426.623-.488 1.06h2.7ZM43.964 67l-1.68 2.53 1.65 2.47h-.932l-.981-1.621a10.03 10.03 0 0 1-.22-.381h-.02c-.016.03-.092.156-.23.38l-1 1.622h-.923l1.704-2.451L39.703 67h.932l.967 1.709c.071.127.141.257.21.39h.02L43.081 67h.883Zm3.257 4.951c-.19.104-.438.156-.747.156-.876 0-1.314-.488-1.314-1.464v-2.96h-.86V67h.86v-1.22l.8-.26V67h1.26v.684h-1.26V70.5c0 .335.058.575.172.718.114.143.302.215.566.215a.842.842 0 0 0 .523-.166v.683Zm7.983-3.481c0 .586-.054 1.105-.161 1.557a3.583 3.583 0 0 1-.459 1.148c-.199.309-.444.545-.737.708-.29.16-.62.24-.992.24-.351 0-.665-.077-.942-.23a2 2 0 0 1-.693-.68 3.43 3.43 0 0 1-.43-1.088 6.785 6.785 0 0 1-.146-1.484c0-.612.05-1.153.15-1.622.105-.468.256-.86.455-1.176.199-.32.444-.559.737-.718a2.074 2.074 0 0 1 1.016-.244c1.468 0 2.202 1.196 2.202 3.589Zm-.82.078c0-1.992-.474-2.988-1.421-2.988-1 0-1.5 1.014-1.5 3.042 0 1.89.49 2.837 1.47 2.837.967 0 1.45-.964 1.45-2.891ZM59.15 72h-.8v-6.05a1.905 1.905 0 0 1-.274.215 5.211 5.211 0 0 1-.87.454 3.307 3.307 0 0 1-.478.161v-.81c.176-.05.362-.114.557-.196a7.326 7.326 0 0 0 1.123-.6c.17-.114.316-.225.44-.332h.302V72ZM35.059 77.74h-2.022V84h-.82v-6.26H30.2v-.742h4.859v.742Zm4.038 3.96h-3.53c.012.557.162.986.449 1.29.286.302.68.453 1.181.453.563 0 1.081-.185 1.553-.556v.752c-.44.319-1.02.478-1.743.478-.706 0-1.262-.226-1.665-.678-.404-.456-.606-1.096-.606-1.92 0-.778.22-1.41.66-1.899a2.126 2.126 0 0 1 1.645-.737c.654 0 1.16.211 1.519.635.358.423.537 1.01.537 1.762v.42Zm-.82-.678c-.004-.463-.116-.823-.337-1.08-.219-.257-.523-.385-.914-.385-.377 0-.698.135-.962.405-.263.27-.426.623-.488 1.06h2.7ZM43.964 79l-1.68 2.53 1.65 2.47h-.932l-.981-1.621a10.03 10.03 0 0 1-.22-.381h-.02c-.016.03-.092.156-.23.38l-1 1.622h-.923l1.704-2.451L39.703 79h.932l.967 1.709c.071.127.141.257.21.39h.02L43.081 79h.883Zm3.257 4.951c-.19.104-.438.156-.747.156-.876 0-1.314-.488-1.314-1.464v-2.96h-.86V79h.86v-1.22l.8-.26V79h1.26v.684h-1.26V82.5c0 .335.058.575.172.718.114.143.302.215.566.215a.842.842 0 0 0 .523-.166v.683Zm7.983-3.481c0 .586-.054 1.105-.161 1.557a3.583 3.583 0 0 1-.459 1.148c-.199.309-.444.545-.737.708-.29.16-.62.24-.992.24-.351 0-.665-.077-.942-.23a2 2 0 0 1-.693-.68 3.43 3.43 0 0 1-.43-1.088 6.785 6.785 0 0 1-.146-1.484c0-.612.05-1.153.15-1.622.105-.468.256-.86.455-1.176.199-.32.444-.559.737-.718a2.074 2.074 0 0 1 1.016-.244c1.468 0 2.202 1.196 2.202 3.589Zm-.82.078c0-1.992-.474-2.988-1.421-2.988-1 0-1.5 1.014-1.5 3.042 0 1.89.49 2.837 1.47 2.837.967 0 1.45-.964 1.45-2.891Zm5-1.714c0-.215-.034-.402-.103-.562a1.05 1.05 0 0 0-.273-.395 1.079 1.079 0 0 0-.406-.24 1.681 1.681 0 0 0-.967-.015c-.149.043-.295.102-.439.177a2.86 2.86 0 0 0-.776.615v-.86c.224-.217.475-.383.752-.497.28-.118.62-.176 1.02-.176.287 0 .552.042.796.127.244.081.456.202.635.361.18.16.319.357.42.591.104.234.156.503.156.806 0 .276-.032.527-.098.752a2.23 2.23 0 0 1-.287.634 2.988 2.988 0 0 1-.484.572 6.9 6.9 0 0 1-.688.556c-.33.235-.601.435-.816.6-.211.167-.38.323-.508.47a1.375 1.375 0 0 0-.263.434 1.54 1.54 0 0 0-.074.498h3.487V84h-4.322v-.347c0-.3.033-.563.098-.79.065-.229.173-.445.322-.65.15-.205.345-.41.586-.615.245-.205.542-.436.894-.694.254-.182.465-.356.635-.522a2.67 2.67 0 0 0 .415-.498c.104-.166.177-.334.22-.503.045-.173.068-.355.068-.547Z"/></svg>