<svg xmlns="http://www.w3.org/2000/svg" width="127" height="100" fill="none"><path fill="#9AA6AE" d="M31 43h64v14H31z" opacity=".5"/><path fill="#9AA6AE" d="M31 43h37v14H31zM57 22h22v14h-8.5L68 40l-3-4h-8V22Z"/><path fill="#fff" d="M64.258 30.075c0 .308-.052.586-.158.835a1.814 1.814 0 0 1-.452.642 1.993 1.993 0 0 1-.704.413 2.758 2.758 0 0 1-.918.145c-.586 0-1.021-.088-1.305-.264v-.765c.427.276.865.414 1.314.414.228 0 .433-.034.615-.101.184-.068.341-.162.47-.282a1.18 1.18 0 0 0 .295-.435c.07-.17.105-.356.105-.558 0-.41-.138-.73-.413-.962-.276-.235-.675-.352-1.2-.352a8.383 8.383 0 0 0-.55.018 8.437 8.437 0 0 0-.276.013 4.644 4.644 0 0 0-.242.022l.216-3.16h2.913v.65h-2.29l-.127 1.85a8.98 8.98 0 0 1 .3-.012c.105-.006.198-.01.28-.01.334 0 .633.045.897.133.264.087.486.213.668.377.184.162.323.36.417.598.097.235.145.498.145.791Zm5.076-1.252c0 .527-.048.994-.145 1.402a3.228 3.228 0 0 1-.413 1.032c-.179.279-.4.491-.664.637-.26.144-.558.216-.892.216-.316 0-.599-.069-.848-.207a1.8 1.8 0 0 1-.624-.61 3.086 3.086 0 0 1-.387-.98 6.103 6.103 0 0 1-.132-1.336c0-.551.046-1.038.137-1.46.094-.421.23-.774.408-1.058.18-.288.4-.503.664-.646.267-.147.571-.22.914-.22 1.321 0 1.982 1.076 1.982 3.23Zm-.738.07c0-1.793-.427-2.69-1.28-2.69-.898 0-1.348.913-1.348 2.738 0 1.703.44 2.554 1.322 2.554.87 0 1.306-.868 1.306-2.602Zm2.882-.035c-.433 0-.779-.142-1.037-.426-.257-.287-.386-.67-.386-1.147 0-.522.136-.932.408-1.23.273-.303.64-.453 1.103-.453.449 0 .796.139 1.042.417.249.278.373.67.373 1.173 0 .504-.139.909-.417 1.213-.275.302-.637.453-1.085.453Zm.062-2.773a.789.789 0 0 0-.66.312c-.16.205-.24.488-.24.848 0 .355.078.631.236.83a.785.785 0 0 0 .646.295c.276 0 .491-.102.646-.308.156-.205.233-.489.233-.852 0-.355-.077-.63-.233-.826a.748.748 0 0 0-.628-.299Zm4.157-.387-4.043 6.346h-.628l4.038-6.346h.633Zm-.466 6.399c-.433 0-.779-.144-1.037-.431-.258-.287-.386-.668-.386-1.143 0-.521.137-.933.413-1.234.275-.305.641-.458 1.098-.458.446 0 .793.141 1.042.422.249.282.373.676.373 1.183 0 .5-.139.903-.417 1.208-.275.302-.637.453-1.086.453Zm.062-2.769a.798.798 0 0 0-.664.308c-.158.205-.237.489-.237.852 0 .349.08.623.237.822a.786.786 0 0 0 .646.295c.276 0 .491-.103.646-.308.156-.208.233-.492.233-.853 0-.357-.077-.633-.233-.826a.756.756 0 0 0-.628-.29Z"/></svg>