<svg xmlns="http://www.w3.org/2000/svg" width="127" height="100" fill="none"><path fill="#9AA6AE" d="M31 43h64v14H31z" opacity=".5"/><path fill="#9AA6AE" d="M31 43h37v14H31zM32.565 36.618V39h-.739v-6.302h1.732c.673 0 1.195.164 1.564.492.372.329.558.791.558 1.39 0 .597-.206 1.086-.62 1.467-.41.38-.965.571-1.665.571h-.83Zm0-3.252v2.584h.773c.51 0 .898-.116 1.164-.347.27-.234.405-.564.405-.989 0-.832-.492-1.248-1.477-1.248h-.865Zm4.579-.009a.456.456 0 0 1-.466-.465c0-.135.045-.247.136-.334.09-.091.2-.137.33-.137.131 0 .243.046.334.137.093.087.14.199.14.334a.442.442 0 0 1-.14.33.454.454 0 0 1-.334.135ZM37.495 39h-.72v-4.5h.72V39Zm5.195 0h-.721v-2.566c0-.956-.349-1.433-1.046-1.433-.36 0-.66.136-.897.409-.234.27-.351.61-.351 1.024V39h-.72v-4.5h.72v.747h.017c.34-.568.832-.852 1.477-.852.492 0 .869.16 1.13.478.26.317.39.775.39 1.376V39Z"/></svg>