<svg xmlns="http://www.w3.org/2000/svg" width="127" height="100" fill="none"><path fill="#9AA6AE" d="M16 34h95v32H16z" opacity=".15"/><path fill="#9AA6AE" d="M23 42h60v4H23zM26.804 50l1.223 2.317 2.581.447-1.826 1.879.373 2.593-2.35-1.156-2.352 1.156.373-2.593L23 52.763l2.582-.446L26.804 50ZM36.804 50l1.223 2.317 2.581.447-1.826 1.879.373 2.593-2.35-1.156-2.352 1.156.373-2.593L33 52.763l2.582-.446L36.804 50ZM46.804 50l1.223 2.317 2.581.447-1.826 1.879.373 2.593-2.35-1.156-2.352 1.156.373-2.593L43 52.763l2.582-.446L46.804 50ZM56.804 50l1.223 2.317 2.581.447-1.826 1.879.373 2.593-2.35-1.156-2.352 1.156.373-2.593L53 52.763l2.582-.446L56.804 50ZM66.804 50l1.223 2.317 2.582.447-1.827 1.879.373 2.593-2.35-1.156-2.352 1.156.373-2.593L63 52.763l2.582-.446L66.804 50Z"/></svg>