<svg xmlns="http://www.w3.org/2000/svg" width="1000" height="700" fill="none"><path fill="#FCFCFF" d="M0 0h1000v700H0z"/><rect width="726" height="315" x="137.5" y="118.5" fill="#F2F2F2" stroke="#D5D5D5" rx="29.5"/><path stroke="#D5D5D5" stroke-width="5" d="M197 262h606M197 292h606.442M197 322h606.442M197 352h606M197 382h324"/><g clip-path="url(#a)"><path fill="#D5D5D5" d="m219.729 189.962 8.568 1.264c.71.101 1.306.602 1.533 1.288a1.92 1.92 0 0 1-.471 1.956l-6.213 6.093 1.466 8.741a1.911 1.911 0 0 1-2.778 2.004l-7.656-4.085-7.65 4.085a1.921 1.921 0 0 1-2.015-.137 1.899 1.899 0 0 1-.763-1.867l1.466-8.741-6.214-6.093a1.917 1.917 0 0 1-.47-1.956 1.896 1.896 0 0 1 1.534-1.288l8.561-1.264 3.84-7.89a1.903 1.903 0 0 1 3.428 0l3.834 7.89Z"/></g><g clip-path="url(#b)"><path fill="#D5D5D5" d="m258.494 189.962 8.568 1.264a1.902 1.902 0 0 1 1.532 1.288 1.915 1.915 0 0 1-.471 1.956l-6.213 6.093 1.467 8.741a1.904 1.904 0 0 1-.769 1.867 1.913 1.913 0 0 1-2.01.137l-7.655-4.085-7.65 4.085a1.923 1.923 0 0 1-2.016-.137 1.9 1.9 0 0 1-.763-1.867l1.467-8.741-6.214-6.093a1.917 1.917 0 0 1-.471-1.956 1.897 1.897 0 0 1 1.535-1.288l8.56-1.264 3.84-7.89a1.901 1.901 0 0 1 1.712-1.074c.733 0 1.401.417 1.717 1.074l3.834 7.89Z"/></g><g clip-path="url(#c)"><path fill="#D5D5D5" d="m297.258 189.962 8.568 1.264c.71.101 1.306.602 1.533 1.288a1.917 1.917 0 0 1-.471 1.956l-6.213 6.093 1.467 8.741a1.904 1.904 0 0 1-.769 1.867 1.913 1.913 0 0 1-2.01.137l-7.656-4.085-7.65 4.085a1.921 1.921 0 0 1-2.015-.137 1.9 1.9 0 0 1-.763-1.867l1.467-8.741-6.214-6.093a1.917 1.917 0 0 1-.471-1.956 1.896 1.896 0 0 1 1.534-1.288l8.561-1.264 3.84-7.89a1.9 1.9 0 0 1 1.711-1.074c.734 0 1.402.417 1.718 1.074l3.833 7.89Z"/></g><g clip-path="url(#d)"><path fill="#D5D5D5" d="m336.023 189.962 8.568 1.264c.71.101 1.306.602 1.532 1.288a1.915 1.915 0 0 1-.471 1.956l-6.213 6.093 1.467 8.741a1.911 1.911 0 0 1-2.778 2.004l-7.656-4.085-7.65 4.085a1.921 1.921 0 0 1-2.015-.137 1.9 1.9 0 0 1-.764-1.867l1.467-8.741-6.214-6.093a1.917 1.917 0 0 1-.47-1.956 1.894 1.894 0 0 1 1.534-1.288l8.561-1.264 3.84-7.89a1.903 1.903 0 0 1 3.428 0l3.834 7.89Z"/></g><g clip-path="url(#e)"><path fill="#D5D5D5" d="m374.788 189.962 8.568 1.264a1.902 1.902 0 0 1 1.532 1.288 1.915 1.915 0 0 1-.471 1.956l-6.213 6.093 1.467 8.741a1.904 1.904 0 0 1-.769 1.867 1.913 1.913 0 0 1-2.01.137l-7.655-4.085-7.65 4.085a1.923 1.923 0 0 1-2.016-.137 1.9 1.9 0 0 1-.763-1.867l1.467-8.741-6.214-6.093a1.92 1.92 0 0 1-.471-1.956 1.897 1.897 0 0 1 1.535-1.288l8.561-1.264 3.839-7.89a1.901 1.901 0 0 1 1.712-1.074c.733 0 1.401.417 1.717 1.074l3.834 7.89Z"/></g><path fill="#D5D5D5" d="M751 196c0 14.359 11.641 26 26 26s26-11.641 26-26-11.641-26-26-26-26 11.641-26 26ZM151 514.5c0 27.89 22.61 50.5 50.5 50.5s50.5-22.61 50.5-50.5-22.61-50.5-50.5-50.5-50.5 22.61-50.5 50.5Z"/><path fill="#F2F2F2" d="M176.803 539.197v-5.989c0-6.59 10.782-11.982 23.96-11.982s23.96 5.392 23.96 11.982v5.989h-47.92Zm11.978-35.938a11.984 11.984 0 0 1 14.316-11.752 11.978 11.978 0 0 1 8.733 16.333 11.976 11.976 0 0 1-11.067 7.397 11.982 11.982 0 0 1-11.982-11.978Z"/><path stroke="#888" stroke-width="10" d="M284 495h216"/><path stroke="#D5D5D5" stroke-width="5" d="M284 535h127.907"/><defs><clipPath id="a"><path fill="#fff" d="M197 181h34.344v30.528H197z"/></clipPath><clipPath id="b"><path fill="#fff" d="M235.765 181h34.344v30.528h-34.344z"/></clipPath><clipPath id="c"><path fill="#fff" d="M274.529 181h34.344v30.528h-34.344z"/></clipPath><clipPath id="d"><path fill="#fff" d="M313.294 181h34.344v30.528h-34.344z"/></clipPath><clipPath id="e"><path fill="#fff" d="M352.059 181h34.344v30.528h-34.344z"/></clipPath></defs></svg>