<svg xmlns="http://www.w3.org/2000/svg" width="1000" height="700" fill="none"><path fill="#FCFCFF" d="M0 0h1000v700H0z"/><rect width="726" height="464" x="136.5" y="118.5" fill="#F2F2F2" stroke="#D5D5D5" rx="29.5"/><path stroke="#D5D5D5" stroke-width="5" d="M196 355h606M196 385h606.442M196 415h606.442M196 445h606M337 475h324"/><path stroke="#888" stroke-width="10" d="M339 275h320"/><g clip-path="url(#a)"><path fill="#D5D5D5" d="m426.729 308.962 8.568 1.264c.71.101 1.306.602 1.533 1.288a1.917 1.917 0 0 1-.472 1.956l-6.212 6.093 1.466 8.741a1.911 1.911 0 0 1-2.778 2.004l-7.656-4.085-7.65 4.085a1.921 1.921 0 0 1-2.015-.137 1.899 1.899 0 0 1-.763-1.867l1.466-8.741-6.214-6.093a1.917 1.917 0 0 1-.47-1.956 1.896 1.896 0 0 1 1.534-1.288l8.561-1.264 3.84-7.89a1.903 1.903 0 0 1 3.428 0l3.834 7.89Z"/></g><g clip-path="url(#b)"><path fill="#D5D5D5" d="m465.494 308.962 8.568 1.264a1.902 1.902 0 0 1 1.532 1.288 1.915 1.915 0 0 1-.471 1.956l-6.213 6.093 1.467 8.741a1.904 1.904 0 0 1-.769 1.867 1.913 1.913 0 0 1-2.01.137l-7.655-4.085-7.65 4.085a1.923 1.923 0 0 1-2.016-.137 1.9 1.9 0 0 1-.763-1.867l1.467-8.741-6.214-6.093a1.917 1.917 0 0 1-.471-1.956 1.897 1.897 0 0 1 1.535-1.288l8.561-1.264 3.839-7.89a1.901 1.901 0 0 1 1.712-1.074c.733 0 1.401.417 1.717 1.074l3.834 7.89Z"/></g><g clip-path="url(#c)"><path fill="#D5D5D5" d="m504.258 308.962 8.569 1.264a1.904 1.904 0 0 1 1.532 1.288 1.917 1.917 0 0 1-.471 1.956l-6.213 6.093 1.467 8.741a1.904 1.904 0 0 1-.769 1.867 1.913 1.913 0 0 1-2.01.137l-7.656-4.085-7.649 4.085a1.923 1.923 0 0 1-2.016-.137 1.9 1.9 0 0 1-.763-1.867l1.467-8.741-6.214-6.093a1.917 1.917 0 0 1-.471-1.956 1.896 1.896 0 0 1 1.534-1.288l8.561-1.264 3.84-7.89a1.9 1.9 0 0 1 1.711-1.074c.734 0 1.402.417 1.718 1.074l3.833 7.89Z"/></g><g clip-path="url(#d)"><path fill="#D5D5D5" d="m543.023 308.962 8.568 1.264c.71.101 1.306.602 1.532 1.288a1.915 1.915 0 0 1-.471 1.956l-6.212 6.093 1.466 8.741a1.911 1.911 0 0 1-2.778 2.004l-7.656-4.085-7.65 4.085a1.921 1.921 0 0 1-2.015-.137 1.897 1.897 0 0 1-.763-1.867l1.466-8.741-6.214-6.093a1.917 1.917 0 0 1-.47-1.956 1.896 1.896 0 0 1 1.534-1.288l8.561-1.264 3.84-7.89a1.903 1.903 0 0 1 3.428 0l3.834 7.89Z"/></g><g clip-path="url(#e)"><path fill="#D5D5D5" d="m581.788 308.962 8.568 1.264a1.902 1.902 0 0 1 1.532 1.288 1.915 1.915 0 0 1-.471 1.956l-6.213 6.093 1.467 8.741a1.904 1.904 0 0 1-.769 1.867 1.913 1.913 0 0 1-2.01.137l-7.655-4.085-7.65 4.085a1.923 1.923 0 0 1-2.016-.137 1.9 1.9 0 0 1-.763-1.867l1.467-8.741-6.214-6.093a1.917 1.917 0 0 1-.471-1.956 1.897 1.897 0 0 1 1.535-1.288l8.56-1.264 3.84-7.89a1.901 1.901 0 0 1 1.712-1.074c.733 0 1.401.417 1.717 1.074l3.834 7.89Z"/></g><path fill="#D5D5D5" d="M449 200.5c0 27.89 22.61 50.5 50.5 50.5s50.5-22.61 50.5-50.5-22.61-50.5-50.5-50.5-50.5 22.61-50.5 50.5Z"/><path fill="#F2F2F2" d="M474.803 225.197v-5.989c0-6.59 10.782-11.982 23.96-11.982s23.96 5.392 23.96 11.982v5.989h-47.92Zm11.978-35.938a11.978 11.978 0 0 1 23.73-2.34 11.986 11.986 0 0 1-5.093 12.298 11.974 11.974 0 0 1-15.127-1.488 11.985 11.985 0 0 1-3.51-8.47Z"/><path stroke="#D5D5D5" stroke-width="5" d="M471 525h127.907"/><path fill="#D5D5D5" d="M399 525c0 14.359 11.641 26 26 26s26-11.641 26-26-11.641-26-26-26-26 11.641-26 26Z"/><defs><clipPath id="a"><path fill="#fff" d="M404 300h34.344v30.528H404z"/></clipPath><clipPath id="b"><path fill="#fff" d="M442.765 300h34.344v30.528h-34.344z"/></clipPath><clipPath id="c"><path fill="#fff" d="M481.529 300h34.344v30.528h-34.344z"/></clipPath><clipPath id="d"><path fill="#fff" d="M520.294 300h34.344v30.528h-34.344z"/></clipPath><clipPath id="e"><path fill="#fff" d="M559.059 300h34.344v30.528h-34.344z"/></clipPath></defs></svg>