<svg xmlns="http://www.w3.org/2000/svg" width="127" height="100" fill="none"><path fill="#9AA6AE" d="M16 34h95v32H16z" opacity=".15"/><path fill="#9AA6AE" d="M44 54h36v2H44z" opacity=".5"/><path fill="#9AA6AE" d="M21 41h18v18H21zm25.804 2 1.223 2.317 2.581.447-1.826 1.879.373 2.593-2.35-1.156-2.352 1.156.373-2.593L43 45.763l2.582-.446L46.804 43Zm10 0 1.223 2.317 2.581.447-1.826 1.879.373 2.593-2.35-1.156-2.352 1.156.373-2.593L53 45.763l2.582-.446L56.804 43Zm10 0 1.223 2.317 2.582.447-1.827 1.879.373 2.593-2.35-1.156-2.352 1.156.373-2.593L63 45.763l2.582-.446L66.804 43Zm10 0 1.223 2.317 2.582.447-1.827 1.879.373 2.593-2.35-1.156-2.352 1.156.373-2.593L73 45.763l2.582-.446L76.804 43Zm10 0 1.223 2.317 2.582.447-1.827 1.879.373 2.593-2.35-1.156-2.352 1.156.373-2.593L83 45.763l2.582-.446L86.804 43Z"/></svg>