<svg xmlns="http://www.w3.org/2000/svg" width="1000" height="700" fill="none"><path fill="#FCFCFF" d="M0 0h1000v700H0z"/><rect width="726" height="464" x="136.5" y="118.5" fill="#F2F2F2" stroke="#D5D5D5" rx="29.5"/><path stroke="#D5D5D5" stroke-width="5" d="M196 327h606M196 357h606.442M196 387h606.442M196 417h606M196 447h324"/><path stroke="#888" stroke-width="10" d="M368 196h320"/><g clip-path="url(#a)"><path fill="#D5D5D5" d="m390.729 229.962 8.568 1.264c.71.101 1.306.602 1.533 1.288a1.92 1.92 0 0 1-.471 1.956l-6.213 6.093 1.466 8.741a1.911 1.911 0 0 1-2.778 2.004l-7.656-4.085-7.65 4.085a1.921 1.921 0 0 1-2.015-.137 1.899 1.899 0 0 1-.763-1.867l1.466-8.741-6.214-6.093a1.917 1.917 0 0 1-.47-1.956 1.896 1.896 0 0 1 1.534-1.288l8.561-1.264 3.84-7.89a1.903 1.903 0 0 1 3.428 0l3.834 7.89Z"/></g><g clip-path="url(#b)"><path fill="#D5D5D5" d="m429.494 229.962 8.568 1.264a1.902 1.902 0 0 1 1.532 1.288 1.915 1.915 0 0 1-.471 1.956l-6.213 6.093 1.467 8.741a1.904 1.904 0 0 1-.769 1.867 1.913 1.913 0 0 1-2.01.137l-7.655-4.085-7.65 4.085a1.923 1.923 0 0 1-2.016-.137 1.9 1.9 0 0 1-.763-1.867l1.467-8.741-6.214-6.093a1.917 1.917 0 0 1-.471-1.956 1.897 1.897 0 0 1 1.535-1.288l8.56-1.264 3.84-7.89a1.901 1.901 0 0 1 1.712-1.074c.733 0 1.401.417 1.717 1.074l3.834 7.89Z"/></g><g clip-path="url(#c)"><path fill="#D5D5D5" d="m468.258 229.962 8.569 1.264a1.904 1.904 0 0 1 1.532 1.288 1.917 1.917 0 0 1-.471 1.956l-6.213 6.093 1.467 8.741a1.904 1.904 0 0 1-.769 1.867 1.913 1.913 0 0 1-2.01.137l-7.656-4.085-7.649 4.085a1.923 1.923 0 0 1-2.016-.137 1.9 1.9 0 0 1-.763-1.867l1.467-8.741-6.214-6.093a1.917 1.917 0 0 1-.471-1.956 1.896 1.896 0 0 1 1.534-1.288l8.561-1.264 3.84-7.89a1.9 1.9 0 0 1 1.711-1.074c.734 0 1.402.417 1.718 1.074l3.833 7.89Z"/></g><g clip-path="url(#d)"><path fill="#D5D5D5" d="m507.023 229.962 8.568 1.264c.71.101 1.306.602 1.532 1.288a1.915 1.915 0 0 1-.471 1.956l-6.213 6.093 1.467 8.741a1.911 1.911 0 0 1-2.778 2.004l-7.656-4.085-7.65 4.085a1.921 1.921 0 0 1-2.015-.137 1.897 1.897 0 0 1-.763-1.867l1.466-8.741-6.214-6.093a1.917 1.917 0 0 1-.47-1.956 1.896 1.896 0 0 1 1.534-1.288l8.561-1.264 3.84-7.89a1.903 1.903 0 0 1 3.428 0l3.834 7.89Z"/></g><g clip-path="url(#e)"><path fill="#D5D5D5" d="m545.788 229.962 8.568 1.264a1.902 1.902 0 0 1 1.532 1.288 1.915 1.915 0 0 1-.471 1.956l-6.213 6.093 1.467 8.741a1.904 1.904 0 0 1-.769 1.867 1.913 1.913 0 0 1-2.01.137l-7.655-4.085-7.65 4.085a1.923 1.923 0 0 1-2.016-.137 1.9 1.9 0 0 1-.763-1.867l1.467-8.741-6.214-6.093a1.917 1.917 0 0 1-.471-1.956 1.897 1.897 0 0 1 1.535-1.288l8.56-1.264 3.84-7.89a1.901 1.901 0 0 1 1.712-1.074c.733 0 1.401.417 1.717 1.074l3.834 7.89Z"/></g><path fill="#D5D5D5" d="M196 223.5c0 37.832 30.668 68.5 68.5 68.5s68.5-30.668 68.5-68.5-30.668-68.5-68.5-68.5-68.5 30.668-68.5 68.5Z"/><path fill="#F2F2F2" d="M231 257v-8.124c0-8.939 14.625-16.252 32.5-16.252s32.5 7.313 32.5 16.252V257h-65Zm16.248-48.748a16.245 16.245 0 0 1 10.03-15.014 16.246 16.246 0 0 1 22.157 11.84 16.25 16.25 0 1 1-32.187 3.174Z"/><path stroke="#D5D5D5" stroke-width="5" d="M674 512h127.907M286 497h127.907M286 527h128"/><path fill="#D5D5D5" d="M196 512c0 19.33 15.67 35 35 35s35-15.67 35-35-15.67-35-35-35-35 15.67-35 35Z"/><defs><clipPath id="a"><path fill="#fff" d="M368 221h34.344v30.528H368z"/></clipPath><clipPath id="b"><path fill="#fff" d="M406.765 221h34.344v30.528h-34.344z"/></clipPath><clipPath id="c"><path fill="#fff" d="M445.529 221h34.344v30.528h-34.344z"/></clipPath><clipPath id="d"><path fill="#fff" d="M484.294 221h34.344v30.528h-34.344z"/></clipPath><clipPath id="e"><path fill="#fff" d="M523.059 221h34.344v30.528h-34.344z"/></clipPath></defs></svg>