<svg xmlns="http://www.w3.org/2000/svg" width="127" height="100" fill="none"><circle cx="64" cy="27" r="10" fill="#9AA6AE" opacity=".3"/><path fill="#9AA6AE" d="M16 70h96v4H16zM34 79h60v4H34z" opacity=".15"/><path fill="#9AA6AE" d="M36.71 46.49c0 .83-.176 1.477-.527 1.939-.352.459-.822.688-1.411.688-.274 0-.499-.039-.674-.117v-.81c.175.126.403.19.683.19.74 0 1.109-.627 1.109-1.88v-4.502h.82v4.492ZM42.428 49h-.801v-.791h-.02c-.332.605-.846.908-1.542.908-1.192 0-1.788-.71-1.788-2.129V44h.796v2.861c0 1.055.404 1.582 1.211 1.582.39 0 .711-.143.962-.43.254-.289.381-.667.381-1.132V44h.8v5Zm1.318-.18v-.86a2.37 2.37 0 0 0 1.44.483c.704 0 1.055-.234 1.055-.703a.586.586 0 0 0-.093-.337.843.843 0 0 0-.244-.249 1.707 1.707 0 0 0-.361-.19 13.949 13.949 0 0 0-.444-.18 6.432 6.432 0 0 1-.586-.264 1.931 1.931 0 0 1-.42-.303 1.203 1.203 0 0 1-.254-.386 1.391 1.391 0 0 1-.083-.503c0-.234.054-.441.161-.62.107-.182.25-.334.43-.454.179-.124.382-.217.61-.278.231-.062.469-.093.713-.093.433 0 .82.075 1.162.224v.811a2.265 2.265 0 0 0-1.27-.361c-.15 0-.284.017-.405.053a.982.982 0 0 0-.312.142.694.694 0 0 0-.2.225.588.588 0 0 0-.069.283c0 .13.023.239.069.327a.75.75 0 0 0 .21.234c.09.069.201.13.332.186.13.055.278.115.444.18.221.085.42.173.596.264.175.088.325.189.449.303.123.11.218.24.283.386.068.146.102.32.102.522 0 .248-.055.462-.166.645a1.377 1.377 0 0 1-.434.454 2 2 0 0 1-.63.268 3.11 3.11 0 0 1-.747.088c-.514 0-.96-.1-1.338-.298Zm6.87.131c-.189.104-.438.156-.747.156-.876 0-1.313-.488-1.313-1.464v-2.96h-.86V44h.86v-1.22l.8-.26V44h1.26v.684h-1.26V47.5c0 .335.057.575.171.718.114.143.303.215.567.215a.842.842 0 0 0 .522-.166v.683Zm1.48-6.22a.508.508 0 0 1-.518-.518c0-.15.05-.273.151-.371.101-.101.224-.152.367-.152.146 0 .27.05.37.152a.487.487 0 0 1 .157.37.491.491 0 0 1-.156.367c-.101.101-.225.151-.371.151Zm.39 6.269h-.8v-5h.8v5Zm5.772 0h-.801v-2.852c0-1.06-.387-1.591-1.162-1.591-.4 0-.733.151-.996.454-.26.3-.39.678-.39 1.137V49h-.802v-5h.801v.83h.02c.377-.631.924-.947 1.64-.947.547 0 .965.177 1.255.532.29.352.435.861.435 1.528V49Zm12.666-7.002L68.946 49h-.962l-1.44-5.117a3.21 3.21 0 0 1-.112-.713h-.02c-.02.24-.062.475-.127.703L64.835 49h-.952l-2.051-7.002h.903l1.49 5.371c.062.225.1.46.117.703h.024c.016-.172.067-.407.152-.703l1.547-5.371h.787l1.484 5.41c.052.186.091.404.117.654h.02c.013-.169.057-.393.132-.673l1.43-5.391h.889Zm2.636 7.12c-.738 0-1.33-.234-1.772-.7-.44-.468-.66-1.088-.66-1.86 0-.84.23-1.495.69-1.967.458-.472 1.079-.708 1.86-.708.745 0 1.326.23 1.743.688.42.46.63 1.096.63 1.91 0 .797-.227 1.437-.679 1.918-.45.479-1.053.718-1.811.718Zm.06-4.561c-.515 0-.922.175-1.222.527-.299.348-.449.83-.449 1.445 0 .593.152 1.06.454 1.402.303.342.708.512 1.216.512.518 0 .915-.167 1.192-.503.28-.335.42-.812.42-1.43 0-.625-.14-1.107-.42-1.445-.277-.34-.674-.508-1.192-.508ZM78.13 49h-.8v-7.402h.8V49Zm5.89-.4c0 1.835-.88 2.753-2.637 2.753-.619 0-1.159-.117-1.621-.351v-.8c.563.312 1.1.468 1.611.468 1.23 0 1.846-.654 1.846-1.963v-.547h-.02c-.38.638-.954.957-1.718.957-.622 0-1.124-.221-1.504-.664-.378-.446-.567-1.043-.567-1.792 0-.85.204-1.525.61-2.026.41-.502.97-.752 1.68-.752.674 0 1.174.27 1.5.81h.019V44h.8v4.6Zm-.801-1.86v-.738c0-.397-.135-.737-.405-1.02a1.319 1.319 0 0 0-1.001-.425c-.495 0-.883.18-1.163.542-.28.358-.42.86-.42 1.508 0 .557.134 1.003.4 1.338.271.332.627.498 1.07.498.45 0 .814-.16 1.094-.478.283-.32.425-.728.425-1.226Zm6.44-.04h-3.53c.013.557.163.986.45 1.29.286.302.68.453 1.18.453.564 0 1.082-.185 1.553-.556v.752c-.439.319-1.02.478-1.743.478-.706 0-1.261-.226-1.665-.678-.403-.456-.605-1.096-.605-1.92 0-.777.22-1.41.659-1.899a2.126 2.126 0 0 1 1.645-.737c.655 0 1.161.211 1.52.635.357.423.536 1.01.536 1.762v.42Zm-.82-.678c-.003-.463-.116-.822-.337-1.08-.218-.257-.522-.385-.913-.385-.378 0-.698.135-.962.405s-.426.623-.488 1.06h2.7Zm4.643-1.212c-.14-.107-.341-.16-.605-.16-.342 0-.628.16-.86.483-.227.322-.341.761-.341 1.318V49h-.801v-5h.8v1.03h.02c.114-.351.288-.625.523-.82.234-.199.496-.298.786-.298.208 0 .368.023.478.069v.83ZM44 54l1.222 2.317 2.582.447-1.826 1.879.373 2.593-2.352-1.156-2.35 1.156.372-2.593-1.826-1.88 2.582-.446L43.999 54ZM54 54l1.222 2.317 2.582.447-1.826 1.879.373 2.593-2.352-1.156-2.35 1.156.372-2.593-1.826-1.88 2.582-.446L53.999 54ZM64 54l1.222 2.317 2.582.447-1.826 1.879.373 2.593-2.352-1.156-2.35 1.156.372-2.593-1.826-1.88 2.582-.446L63.999 54ZM74 54l1.222 2.317 2.582.447-1.826 1.879.373 2.593-2.352-1.156-2.35 1.156.372-2.593-1.826-1.88 2.582-.446L73.999 54ZM84 54l1.222 2.317 2.582.447-1.826 1.879.373 2.593-2.352-1.156-2.35 1.156.372-2.593-1.826-1.88 2.582-.446L83.999 54Z"/></svg>