<svg xmlns="http://www.w3.org/2000/svg" width="127" height="100" fill="none"><path fill="#9AA6AE" d="M16 35h95v32H16z" opacity=".15"/><path fill="#9AA6AE" d="M44 58h36v2H44z" opacity=".5"/><path fill="#9AA6AE" d="M21 40h18v22H21zM47.154 49l1.014 1.921 2.14.37-1.513 1.559.309 2.15-1.95-.959-1.95.959.31-2.15L44 51.292l2.14-.37L47.155 49ZM55.446 49l1.014 1.921 2.14.37-1.514 1.559.31 2.15-1.95-.959-1.95.959.31-2.15-1.514-1.558 2.14-.37L55.446 49ZM63.738 49l1.014 1.921 2.14.37-1.514 1.559.31 2.15-1.95-.959-1.95.959.31-2.15-1.514-1.558 2.14-.37L63.738 49ZM72.03 49l1.013 1.921 2.141.37-1.514 1.559.31 2.15-1.95-.959-1.95.959.31-2.15-1.515-1.558 2.141-.37L72.03 49ZM80.322 49l1.013 1.921 2.141.37-1.514 1.559.31 2.15-1.95-.959-1.95.959.31-2.15-1.515-1.558 2.14-.37L80.323 49Z"/><path fill="#fff" d="M29.98 51.47c0 .586-.053 1.105-.16 1.557a3.583 3.583 0 0 1-.46 1.148c-.198.309-.444.545-.737.708-.29.16-.62.24-.991.24-.352 0-.666-.077-.943-.23a2 2 0 0 1-.693-.68 3.43 3.43 0 0 1-.43-1.088 6.785 6.785 0 0 1-.146-1.484c0-.612.05-1.153.151-1.621.104-.47.256-.862.454-1.177.199-.32.445-.559.738-.718a2.074 2.074 0 0 1 1.015-.244c1.468 0 2.203 1.196 2.203 3.589Zm-.82.078c0-1.992-.474-2.988-1.42-2.988-1 0-1.5 1.014-1.5 3.042 0 1.89.49 2.837 1.47 2.837.967 0 1.45-.964 1.45-2.891ZM33.926 55h-.801v-6.05a1.905 1.905 0 0 1-.273.215 5.211 5.211 0 0 1-.87.454 3.307 3.307 0 0 1-.478.161v-.81a4.77 4.77 0 0 0 .556-.196 7.312 7.312 0 0 0 1.124-.6c.169-.114.315-.225.439-.332h.303V55Z"/><path fill="#9AA6AE" d="M44 42h60v4H44z"/></svg>