<svg xmlns="http://www.w3.org/2000/svg" width="26" height="26" fill="none" viewBox="0 0 26 26"><mask id="a" width="20" height="20" x="3" y="3" maskUnits="userSpaceOnUse" style="mask-type:luminance"><path fill="#fff" d="M23 3H3v20h20V3Z"/></mask><g mask="url(#a)"><mask id="b" width="20" height="20" x="3" y="3" maskUnits="userSpaceOnUse" style="mask-type:luminance"><path fill="#fff" d="M19 3H7a4 4 0 0 0-4 4v12a4 4 0 0 0 4 4h12a4 4 0 0 0 4-4V7a4 4 0 0 0-4-4Z"/></mask><g mask="url(#b)"><path fill="#F0F6FC" fill-opacity=".6" fill-rule="evenodd" d="M23 3H3v20h20V3Zm-8.89 3.588v9.129c.021.128-.043.245-.192.352a.725.725 0 0 1-.48.16H11.9V6.3h1.858c.107 0 .192.032.256.096a.216.216 0 0 1 .096.192Zm.032 11.5-.032 1.569H11.9v-2.178h1.602c.02 0 .032.01.032.032.085 0 .16.01.224.032.021 0 .042.01.064.032a.88.88 0 0 1 .256.224v.032c0 .021.01.043.032.064v.032a.526.526 0 0 1 .032.16Z" clip-rule="evenodd"/></g></g></svg>