<svg xmlns="http://www.w3.org/2000/svg" width="253" height="205" fill="none"><path fill="#1717CC" fill-rule="evenodd" d="M9.14 1.78a5.25 5.25 0 1 0 3.113 4.798v-.536a.583.583 0 0 1 1.166 0v.536A6.418 6.418 0 1 1 9.614.714a.583.583 0 0 1-.475 1.065Zm4.108-.284a.583.583 0 0 1 0 .824L7.416 8.16a.583.583 0 0 1-.825 0L4.84 6.41a.583.583 0 1 1 .825-.825l1.337 1.337 5.421-5.426a.583.583 0 0 1 .825 0Z" clip-rule="evenodd"/><path fill="#010101" d="M27.01 10.435v-.926c.468.266.964.399 1.487.399.762 0 1.354-.307 1.776-.92.426-.614.639-1.485.639-2.614a.025.025 0 0 1-.024 0c-.36.723-.984 1.084-1.875 1.084-.719 0-1.309-.244-1.77-.732-.46-.488-.69-1.117-.69-1.887 0-.82.251-1.492.755-2.015.508-.528 1.156-.791 1.945-.791.828 0 1.473.328 1.934.984.465.652.697 1.603.697 2.853 0 1.551-.3 2.747-.902 3.586-.602.84-1.438 1.26-2.508 1.26-.563 0-1.05-.094-1.465-.281Zm2.155-7.588c-.464 0-.853.176-1.166.527-.308.348-.462.791-.462 1.33 0 .59.152 1.055.457 1.395.304.336.716.504 1.236.504.453 0 .836-.154 1.148-.463a1.52 1.52 0 0 0 .475-1.13c0-.638-.156-1.157-.469-1.56a1.472 1.472 0 0 0-1.219-.603ZM35.622 10.716c-.832 0-1.482-.357-1.95-1.072-.466-.715-.698-1.748-.698-3.1 0-1.484.242-2.607.727-3.369.488-.762 1.19-1.142 2.109-1.142 1.758 0 2.637 1.435 2.637 4.306 0 1.422-.248 2.508-.745 3.258-.496.746-1.189 1.12-2.08 1.12Zm.135-7.869c-1.2 0-1.799 1.217-1.799 3.65 0 2.274.588 3.41 1.764 3.41 1.16 0 1.74-1.156 1.74-3.468 0-2.395-.568-3.592-1.705-3.592ZM45.806 7.47h-2.367v2.361h-.78v-2.36H40.3v-.786h2.36V4.324h.78v2.36h2.367v.786ZM52.533 7.4v3.175h-.985V2.174h2.309c.898 0 1.593.219 2.086.656.496.438.744 1.055.744 1.852 0 .797-.276 1.45-.826 1.957-.547.508-1.287.762-2.221.762h-1.107Zm0-4.336v3.445h1.03c.68 0 1.198-.154 1.553-.463.36-.312.54-.752.54-1.318 0-1.11-.657-1.664-1.97-1.664h-1.153ZM61.275 5.548c-.168-.129-.41-.193-.727-.193-.41 0-.754.193-1.031.58-.274.387-.41.914-.41 1.582v3.058h-.961v-6h.96v1.237h.024c.137-.422.346-.75.627-.985.281-.238.596-.357.944-.357.25 0 .44.027.574.082v.996ZM67.14 7.816h-4.236c.015.668.195 1.183.539 1.547.343.363.816.545 1.418.545.675 0 1.297-.223 1.863-.668v.902c-.527.383-1.225.574-2.092.574-.848 0-1.514-.271-1.998-.814-.484-.547-.726-1.315-.726-2.303 0-.934.263-1.693.79-2.28.532-.59 1.19-.884 1.975-.884.785 0 1.393.254 1.822.762.43.507.645 1.213.645 2.115v.504ZM66.156 7c-.004-.554-.14-.986-.405-1.295-.261-.308-.627-.463-1.095-.463-.454 0-.838.163-1.155.487-.316.324-.511.748-.586 1.271h3.24ZM77.118 10.575h-.96V7.13c0-.664-.104-1.144-.311-1.441-.203-.297-.547-.446-1.031-.446-.41 0-.76.188-1.05.563-.284.375-.427.824-.427 1.348v3.421h-.96V7.014c0-1.18-.456-1.77-1.366-1.77-.422 0-.77.178-1.043.534-.273.351-.41.81-.41 1.377v3.421h-.961v-6h.96v.95h.024c.426-.727 1.047-1.09 1.864-1.09.41 0 .767.115 1.072.346.305.226.514.525.627.896.445-.828 1.11-1.242 1.992-1.242 1.32 0 1.98.814 1.98 2.443v3.697ZM79.427 3.052a.609.609 0 0 1-.621-.621c0-.18.06-.328.182-.445a.599.599 0 0 1 .44-.182c.175 0 .323.06.444.182a.584.584 0 0 1 .188.445.59.59 0 0 1-.188.44.605.605 0 0 1-.445.181Zm.469 7.524h-.961v-6h.96v6ZM86.693 10.575h-.961v-.949h-.024c-.398.727-1.015 1.09-1.851 1.09-1.43 0-2.145-.851-2.145-2.555V4.576h.955v3.433c0 1.266.485 1.899 1.453 1.899.47 0 .854-.172 1.155-.516.304-.348.457-.8.457-1.36V4.577h.96v6ZM97.158 10.575h-.961V7.13c0-.664-.104-1.144-.31-1.441-.204-.297-.548-.446-1.032-.446-.41 0-.76.188-1.049.563-.285.375-.428.824-.428 1.348v3.421h-.96V7.014c0-1.18-.456-1.77-1.366-1.77-.422 0-.77.178-1.043.534-.273.351-.41.81-.41 1.377v3.421h-.961v-6h.961v.95h.023c.426-.727 1.047-1.09 1.864-1.09.41 0 .767.115 1.072.346.305.226.514.525.627.896.445-.828 1.11-1.242 1.992-1.242 1.32 0 1.98.814 1.98 2.443v3.697ZM108.677 10.001c-.844.477-1.781.715-2.812.715-1.2 0-2.17-.387-2.913-1.16-.738-.773-1.107-1.797-1.107-3.07 0-1.301.41-2.367 1.231-3.2.824-.835 1.867-1.253 3.128-1.253.914 0 1.682.148 2.303.445v1.09c-.68-.43-1.484-.645-2.414-.645-.941 0-1.713.324-2.314.973-.602.648-.903 1.488-.903 2.52 0 1.062.28 1.898.838 2.507.559.606 1.317.908 2.274.908.656 0 1.224-.13 1.705-.392V7.083h-1.84v-.89h2.824V10ZM115.357 10.575h-.961v-.949h-.024c-.398.727-1.015 1.09-1.851 1.09-1.43 0-2.145-.851-2.145-2.555V4.576h.955v3.433c0 1.266.485 1.899 1.454 1.899.468 0 .853-.172 1.154-.516.304-.348.457-.8.457-1.36V4.577h.961v6ZM120.085 10.517c-.226.125-.525.187-.896.187-1.051 0-1.576-.586-1.576-1.757V5.396h-1.032v-.82h1.032V3.11l.961-.31v1.775h1.511v.82h-1.511v3.38c0 .403.068.69.205.862.136.172.363.258.679.258.243 0 .452-.067.627-.2v.82ZM126.191 7.816h-4.237c.016.668.196 1.183.539 1.547.344.363.817.545 1.418.545.676 0 1.297-.223 1.864-.668v.902c-.528.383-1.225.574-2.092.574-.848 0-1.514-.271-1.998-.814-.484-.547-.727-1.315-.727-2.303 0-.934.264-1.693.791-2.28.532-.59 1.19-.884 1.975-.884.785 0 1.393.254 1.822.762.43.507.645 1.213.645 2.115v.504ZM125.206 7c-.004-.554-.138-.986-.404-1.295-.262-.308-.627-.463-1.096-.463-.453 0-.838.163-1.154.487-.316.324-.512.748-.586 1.271h3.24ZM132.63 10.575h-.961V7.155c0-1.274-.465-1.91-1.394-1.91a1.52 1.52 0 0 0-1.196.544c-.312.36-.468.815-.468 1.366v3.421h-.961v-6h.961v.997h.023c.453-.758 1.109-1.137 1.969-1.137.656 0 1.158.213 1.506.639.347.421.521 1.033.521 1.834v3.667ZM135.431 9.708h-.023v.867h-.961V1.694h.961V5.63h.023c.473-.797 1.164-1.195 2.074-1.195.77 0 1.371.27 1.805.809.437.535.656 1.253.656 2.156 0 1.004-.244 1.808-.732 2.414-.489.601-1.157.902-2.004.902-.793 0-1.393-.336-1.799-1.008Zm-.023-2.42v.838c0 .496.16.918.48 1.266.324.344.734.516 1.23.516.583 0 1.038-.223 1.366-.668.332-.446.498-1.065.498-1.858 0-.668-.155-1.191-.463-1.57-.309-.38-.727-.569-1.254-.569-.559 0-1.008.196-1.348.586-.34.387-.509.873-.509 1.46ZM146.324 7.816h-4.237c.016.668.196 1.183.539 1.547.344.363.817.545 1.418.545.676 0 1.297-.223 1.864-.668v.902c-.528.383-1.225.574-2.092.574-.848 0-1.514-.271-1.998-.814-.485-.547-.727-1.315-.727-2.303 0-.934.264-1.693.791-2.28.531-.59 1.19-.884 1.975-.884.785 0 1.392.254 1.822.762.43.507.645 1.213.645 2.115v.504ZM145.339 7c-.004-.554-.138-.986-.404-1.295-.262-.308-.627-.463-1.096-.463-.453 0-.838.163-1.154.487-.317.324-.512.748-.586 1.271h3.24ZM150.911 5.548c-.168-.129-.41-.193-.726-.193-.41 0-.754.193-1.031.58-.274.387-.411.914-.411 1.582v3.058h-.96v-6h.96v1.237h.024c.137-.422.346-.75.627-.985.281-.238.596-.357.943-.357.25 0 .442.027.574.082v.996ZM157.076 10.095c0 2.203-1.055 3.305-3.165 3.305-.742 0-1.39-.14-1.945-.422v-.961c.676.375 1.32.562 1.934.562 1.476 0 2.215-.785 2.215-2.355v-.656h-.024c-.457.765-1.144 1.148-2.062 1.148-.746 0-1.348-.265-1.805-.797-.453-.535-.68-1.252-.68-2.15 0-1.02.244-1.83.733-2.432.492-.601 1.164-.902 2.015-.902.809 0 1.409.324 1.799.973h.024v-.832h.961v5.52Zm-.961-2.232v-.885c0-.477-.163-.885-.487-1.225a1.58 1.58 0 0 0-1.201-.51c-.594 0-1.059.217-1.394.65-.336.43-.504 1.034-.504 1.811 0 .668.16 1.204.48 1.606.324.398.752.598 1.283.598.539 0 .977-.192 1.313-.575.34-.382.51-.873.51-1.47ZM162.443 10.575V2.174h2.39c.727 0 1.303.178 1.729.533.426.356.639.819.639 1.39 0 .476-.129.89-.387 1.241a2.084 2.084 0 0 1-1.067.75v.024c.567.066 1.02.28 1.36.644.34.36.51.828.51 1.406 0 .72-.258 1.301-.774 1.747-.516.445-1.166.668-1.951.668h-2.449Zm.984-7.511v2.713h1.008c.539 0 .963-.13 1.271-.387.309-.262.463-.629.463-1.102 0-.816-.537-1.224-1.611-1.224h-1.131Zm0 3.597v3.024h1.336c.578 0 1.025-.137 1.342-.41.32-.274.48-.649.48-1.125 0-.992-.675-1.489-2.027-1.489h-1.131ZM170.154 10.575h-.961V1.694h.961v8.883ZM174.607 10.716c-.887 0-1.596-.28-2.127-.838-.528-.562-.791-1.306-.791-2.232 0-1.008.275-1.795.826-2.361.551-.567 1.295-.85 2.232-.85.895 0 1.592.275 2.092.826.504.55.756 1.315.756 2.291 0 .957-.271 1.725-.814 2.303-.539.574-1.264.861-2.174.861Zm.07-5.472c-.617 0-1.105.21-1.465.632-.359.418-.539.996-.539 1.735 0 .71.182 1.271.545 1.681.363.41.85.616 1.459.616.621 0 1.098-.202 1.43-.604.336-.402.504-.975.504-1.717 0-.75-.168-1.328-.504-1.734-.332-.406-.809-.61-1.43-.61ZM183.22 10.3c-.461.277-1.008.416-1.641.416-.855 0-1.546-.277-2.074-.832-.523-.558-.785-1.281-.785-2.168 0-.988.283-1.781.85-2.379.566-.601 1.322-.902 2.267-.902.528 0 .992.098 1.395.293v.984a2.445 2.445 0 0 0-1.43-.468c-.613 0-1.117.22-1.512.662-.39.437-.586 1.013-.586 1.728 0 .703.184 1.258.551 1.664.371.406.867.61 1.488.61.524 0 1.016-.174 1.477-.522v.914ZM189.654 10.575h-1.348l-2.648-2.882h-.024v2.883h-.961V1.693h.961v5.63h.024l2.519-2.747h1.26l-2.783 2.894 3 3.106ZM190.275 10.359V9.327c.523.387 1.099.58 1.728.58.844 0 1.266-.28 1.266-.843a.705.705 0 0 0-.111-.404 1.021 1.021 0 0 0-.293-.3 2.074 2.074 0 0 0-.434-.228c-.164-.07-.342-.142-.533-.217a7.64 7.64 0 0 1-.703-.316c-.2-.11-.368-.23-.504-.363a1.437 1.437 0 0 1-.305-.463 1.679 1.679 0 0 1-.1-.604c0-.281.065-.529.194-.744.129-.219.301-.4.515-.545.215-.148.459-.26.733-.334a3.29 3.29 0 0 1 .855-.111c.52 0 .985.09 1.395.27v.972a2.72 2.72 0 0 0-1.524-.433c-.179 0-.341.021-.486.064-.144.039-.269.096-.375.17a.83.83 0 0 0-.24.27.702.702 0 0 0-.082.34c0 .155.027.286.082.392.058.105.142.199.252.281.109.082.242.156.398.223.157.066.334.138.533.217.266.101.504.207.715.316.211.105.391.226.539.363.149.133.262.287.34.463.082.176.123.385.123.627 0 .297-.066.555-.199.773a1.66 1.66 0 0 1-.521.545 2.405 2.405 0 0 1-.756.323c-.285.07-.584.105-.897.105-.617 0-1.152-.119-1.605-.357Z"/><path fill="#1717CC" fill-rule="evenodd" d="M9.14 30.113a5.25 5.25 0 1 0 3.113 4.799v-.536a.583.583 0 0 1 1.166 0v.536a6.418 6.418 0 0 1-11.8 3.49 6.417 6.417 0 0 1 7.995-9.354.583.583 0 0 1-.475 1.065Zm4.108-.284a.583.583 0 0 1 0 .825l-5.833 5.84a.584.584 0 0 1-.825 0l-1.75-1.75a.583.583 0 1 1 .825-.825l1.337 1.337 5.421-5.426a.583.583 0 0 1 .825 0Z" clip-rule="evenodd"/><path fill="#010101" d="M28.087 35.732v3.176h-.984v-8.403h2.308c.899 0 1.594.219 2.086.657.497.437.745 1.054.745 1.851 0 .797-.276 1.45-.827 1.957-.546.508-1.287.762-2.22.762h-1.108Zm0-4.336v3.445h1.032c.68 0 1.197-.154 1.552-.463.36-.312.54-.752.54-1.318 0-1.11-.657-1.664-1.97-1.664h-1.154ZM36.83 33.88c-.169-.129-.41-.193-.727-.193-.41 0-.754.193-1.031.58-.274.387-.41.914-.41 1.582v3.059H33.7v-6h.961v1.236h.024c.137-.422.346-.75.627-.984.281-.239.596-.358.943-.358.25 0 .442.027.574.082v.996ZM42.695 36.148h-4.237c.016.668.196 1.183.54 1.547.343.363.816.545 1.417.545.676 0 1.297-.223 1.864-.668v.902c-.528.383-1.225.574-2.092.574-.848 0-1.514-.271-1.998-.814-.485-.547-.727-1.315-.727-2.303 0-.934.264-1.693.791-2.28.532-.59 1.19-.884 1.975-.884.785 0 1.392.254 1.822.762.43.507.645 1.212.645 2.115v.504Zm-.985-.815c-.004-.554-.138-.986-.404-1.295-.262-.308-.627-.462-1.096-.462-.453 0-.838.162-1.154.486-.316.324-.512.748-.586 1.271h3.24ZM52.673 38.908h-.96v-3.446c0-.664-.104-1.144-.311-1.441-.203-.297-.547-.446-1.032-.446-.41 0-.76.188-1.048.563-.286.375-.428.824-.428 1.348v3.422h-.961v-3.563c0-1.18-.455-1.77-1.365-1.77-.422 0-.77.178-1.043.534-.274.351-.41.81-.41 1.377v3.422h-.961v-6h.96v.949h.024c.426-.727 1.047-1.09 1.863-1.09.41 0 .768.115 1.073.346.304.226.513.525.627.896.445-.828 1.109-1.242 1.992-1.242 1.32 0 1.98.814 1.98 2.443v3.698ZM54.982 31.384a.609.609 0 0 1-.621-.621c0-.18.06-.328.181-.445a.599.599 0 0 1 .44-.182c.176 0 .324.06.445.182a.584.584 0 0 1 .188.445.59.59 0 0 1-.188.44.605.605 0 0 1-.445.181Zm.468 7.524h-.96v-6h.96v6ZM62.247 38.908h-.96v-.95h-.024c-.398.727-1.016 1.09-1.852 1.09-1.43 0-2.144-.851-2.144-2.555v-3.585h.955v3.433c0 1.266.484 1.899 1.453 1.899.469 0 .854-.172 1.154-.516.305-.348.457-.8.457-1.36v-3.456h.961v6ZM72.712 38.908h-.96v-3.446c0-.664-.104-1.144-.311-1.441-.203-.297-.547-.446-1.032-.446-.41 0-.76.188-1.048.563-.285.375-.428.824-.428 1.348v3.422h-.961v-3.563c0-1.18-.455-1.77-1.365-1.77-.422 0-.77.178-1.043.534-.274.351-.41.81-.41 1.377v3.422h-.961v-6h.96v.949h.024c.426-.727 1.047-1.09 1.863-1.09.41 0 .768.115 1.073.346.304.226.513.525.627.896.445-.828 1.109-1.242 1.992-1.242 1.32 0 1.98.814 1.98 2.443v3.698ZM77.558 38.568v-1.16c.133.117.291.222.475.316.187.094.382.174.585.24.208.063.415.111.622.147.207.035.398.052.574.052.605 0 1.056-.11 1.353-.334.301-.226.451-.55.451-.972 0-.227-.05-.424-.152-.592a1.602 1.602 0 0 0-.41-.457 3.765 3.765 0 0 0-.627-.398 32.74 32.74 0 0 0-.773-.405 13.068 13.068 0 0 1-.82-.451 3.553 3.553 0 0 1-.663-.504 2.16 2.16 0 0 1-.445-.621 1.982 1.982 0 0 1-.158-.82c0-.383.084-.715.252-.996.168-.285.388-.52.662-.703.273-.184.584-.32.931-.41a4.31 4.31 0 0 1 1.073-.135c.828 0 1.431.1 1.81.298v1.108c-.496-.344-1.133-.516-1.91-.516-.215 0-.43.024-.645.07a1.772 1.772 0 0 0-.574.217 1.272 1.272 0 0 0-.41.393c-.105.16-.158.355-.158.586 0 .215.039.4.117.556.082.157.201.3.358.428.156.13.345.254.568.375.226.121.486.254.78.399.3.148.585.304.855.468.27.164.505.346.709.545.203.2.363.42.48.662.121.243.182.52.182.832 0 .414-.082.766-.246 1.055-.16.285-.38.518-.657.697-.273.18-.59.309-.949.387-.36.082-.738.123-1.136.123-.133 0-.297-.012-.493-.035a5.572 5.572 0 0 1-.597-.094 5.042 5.042 0 0 1-.58-.146 1.881 1.881 0 0 1-.434-.205ZM89.048 38.908h-.96v-.95h-.024c-.399.727-1.016 1.09-1.852 1.09-1.43 0-2.144-.851-2.144-2.555v-3.585h.955v3.433c0 1.266.484 1.899 1.453 1.899.469 0 .853-.172 1.154-.516.305-.348.457-.8.457-1.36v-3.456h.961v6ZM91.978 38.04h-.024v3.627h-.96v-8.76h.96v1.055h.024c.473-.797 1.164-1.195 2.074-1.195.773 0 1.377.27 1.81.808.434.536.651 1.254.651 2.157 0 1.004-.244 1.808-.732 2.414-.489.601-1.157.902-2.004.902-.778 0-1.377-.336-1.8-1.008Zm-.024-2.42v.838c0 .496.16.918.48 1.266.325.344.735.516 1.231.516.582 0 1.037-.223 1.366-.668.332-.446.498-1.065.498-1.858 0-.668-.155-1.191-.463-1.57-.309-.379-.727-.569-1.254-.569-.559 0-1.008.196-1.348.586-.34.387-.51.873-.51 1.46ZM99.033 38.04h-.024v3.627h-.96v-8.76h.96v1.055h.024c.472-.797 1.164-1.195 2.074-1.195.773 0 1.377.27 1.81.808.434.536.651 1.254.651 2.157 0 1.004-.244 1.808-.733 2.414-.488.601-1.156.902-2.004.902-.777 0-1.377-.336-1.798-1.008Zm-.024-2.42v.838c0 .496.16.918.48 1.266.325.344.735.516 1.231.516.582 0 1.037-.223 1.365-.668.332-.446.498-1.065.498-1.858 0-.668-.154-1.191-.463-1.57-.308-.379-.726-.569-1.253-.569-.559 0-1.008.196-1.348.586-.34.387-.51.873-.51 1.46ZM107.611 39.048c-.887 0-1.596-.28-2.127-.838-.528-.562-.791-1.306-.791-2.232 0-1.008.275-1.795.826-2.361.551-.567 1.295-.85 2.232-.85.895 0 1.592.275 2.092.826.504.55.756 1.315.756 2.291 0 .957-.272 1.725-.814 2.303-.54.574-1.264.861-2.174.861Zm.07-5.473c-.617 0-1.105.211-1.465.633-.359.418-.539.996-.539 1.735 0 .71.182 1.271.545 1.681.363.41.85.616 1.459.616.621 0 1.098-.202 1.43-.604.336-.402.504-.975.504-1.717 0-.75-.168-1.328-.504-1.734-.332-.406-.809-.61-1.43-.61ZM115.263 33.88c-.168-.129-.41-.193-.727-.193-.41 0-.753.193-1.031.58-.273.387-.41.914-.41 1.582v3.059h-.961v-6h.961v1.236h.023c.137-.422.346-.75.627-.984.282-.239.596-.358.944-.358.25 0 .441.027.574.082v.996ZM119.089 38.849c-.226.125-.525.188-.896.188-1.051 0-1.576-.587-1.576-1.758v-3.551h-1.032v-.82h1.032v-1.465l.96-.31v1.775h1.512v.82h-1.512v3.38c0 .403.069.69.206.862.136.172.363.258.679.258.242 0 .451-.067.627-.2v.821Z"/><path fill="#1717CC" fill-rule="evenodd" d="M9.14 60.78a5.25 5.25 0 1 0 3.113 4.798v-.537a.583.583 0 1 1 1.166 0v.537a6.417 6.417 0 1 1-3.805-5.864.583.583 0 1 1-.475 1.065Zm4.108-.285a.583.583 0 0 1 0 .825l-5.833 5.84a.584.584 0 0 1-.825 0l-1.75-1.75a.583.583 0 1 1 .825-.825l1.337 1.337 5.421-5.426a.583.583 0 0 1 .825 0Z" clip-rule="evenodd"/><path fill="#010101" d="M31.785 64.242h-4.752v-.844h1.898V56.87l-1.945.58v-.914l2.906-.884v7.746h1.893v.843ZM35.622 64.382c-.832 0-1.482-.357-1.95-1.072-.466-.715-.698-1.748-.698-3.1 0-1.484.242-2.607.727-3.369.488-.762 1.19-1.142 2.109-1.142 1.758 0 2.637 1.435 2.637 4.306 0 1.422-.248 2.508-.745 3.258-.496.746-1.189 1.12-2.08 1.12Zm.135-7.869c-1.2 0-1.799 1.217-1.799 3.65 0 2.274.588 3.41 1.764 3.41 1.16 0 1.74-1.156 1.74-3.468 0-2.395-.568-3.592-1.705-3.592ZM42.091 64.382c-.832 0-1.482-.357-1.951-1.072-.465-.715-.697-1.748-.697-3.1 0-1.484.242-2.607.726-3.369.489-.762 1.192-1.142 2.11-1.142 1.757 0 2.636 1.435 2.636 4.306 0 1.422-.248 2.508-.744 3.258-.496.746-1.19 1.12-2.08 1.12Zm.135-7.869c-1.2 0-1.799 1.217-1.799 3.65 0 2.274.588 3.41 1.764 3.41 1.16 0 1.74-1.156 1.74-3.468 0-2.395-.568-3.592-1.705-3.592ZM48.56 64.382c-.832 0-1.483-.357-1.951-1.072-.465-.715-.698-1.748-.698-3.1 0-1.484.243-2.607.727-3.369.488-.762 1.191-1.142 2.11-1.142 1.757 0 2.636 1.435 2.636 4.306 0 1.422-.248 2.508-.744 3.258-.496.746-1.19 1.12-2.08 1.12Zm.135-7.869c-1.2 0-1.8 1.217-1.8 3.65 0 2.274.589 3.41 1.764 3.41 1.16 0 1.74-1.156 1.74-3.468 0-2.395-.568-3.592-1.704-3.592ZM58.743 61.136h-2.367v2.361h-.779v-2.361h-2.361v-.785h2.361V57.99h.78v2.36h2.366v.786ZM65.47 61.066v3.175h-.984V55.84h2.308c.899 0 1.594.219 2.086.656.496.438.744 1.055.744 1.852 0 .797-.275 1.45-.826 1.957-.547.508-1.287.762-2.22.762H65.47Zm0-4.336v3.445h1.031c.68 0 1.198-.154 1.553-.463.36-.312.54-.752.54-1.318 0-1.11-.657-1.664-1.97-1.664H65.47ZM74.212 59.214c-.168-.129-.41-.193-.726-.193-.41 0-.754.193-1.032.58-.273.387-.41.914-.41 1.582v3.059h-.96v-6h.96v1.236h.024c.136-.422.345-.75.627-.985.28-.238.595-.357.943-.357.25 0 .441.027.574.082v.996ZM80.078 61.482H75.84c.016.668.196 1.183.54 1.547.343.363.816.544 1.417.544.676 0 1.297-.222 1.864-.667v.902c-.528.383-1.225.574-2.092.574-.848 0-1.514-.271-1.998-.814-.485-.547-.727-1.315-.727-2.303 0-.934.264-1.693.791-2.28.531-.59 1.19-.884 1.975-.884.785 0 1.392.254 1.822.762.43.507.644 1.212.644 2.115v.504Zm-.985-.815c-.004-.554-.139-.986-.404-1.295-.262-.308-.627-.462-1.096-.462-.453 0-.838.162-1.154.486-.317.324-.512.748-.586 1.271h3.24ZM90.056 64.242h-.96v-3.446c0-.664-.105-1.144-.312-1.441-.203-.297-.546-.445-1.03-.445-.41 0-.76.187-1.05.562-.285.375-.427.824-.427 1.348v3.422h-.961v-3.563c0-1.18-.455-1.77-1.365-1.77-.422 0-.77.178-1.043.534-.274.351-.41.81-.41 1.377v3.422h-.962v-6h.961v.949h.024c.426-.727 1.047-1.09 1.863-1.09.41 0 .768.115 1.072.346.305.226.514.525.627.896.446-.828 1.11-1.242 1.993-1.242 1.32 0 1.98.814 1.98 2.443v3.698ZM92.365 56.718a.609.609 0 0 1-.621-.621c0-.18.06-.328.181-.445a.599.599 0 0 1 .44-.182c.175 0 .324.06.445.182a.584.584 0 0 1 .187.445.59.59 0 0 1-.187.44.605.605 0 0 1-.445.181Zm.468 7.523h-.96v-6h.96v6ZM99.63 64.242h-.96v-.95h-.024c-.399.727-1.016 1.09-1.852 1.09-1.43 0-2.144-.851-2.144-2.555v-3.585h.955v3.433c0 1.266.484 1.899 1.453 1.899.469 0 .853-.172 1.154-.516.305-.348.457-.8.457-1.36v-3.456h.961v6ZM110.095 64.242h-.961v-3.446c0-.664-.103-1.144-.31-1.441-.204-.297-.547-.445-1.032-.445-.41 0-.759.187-1.049.562-.285.375-.427.824-.427 1.348v3.422h-.961v-3.563c0-1.18-.455-1.77-1.365-1.77-.422 0-.77.178-1.043.534-.274.351-.411.81-.411 1.377v3.422h-.96v-6h.96v.949h.024c.426-.727 1.047-1.09 1.863-1.09.41 0 .768.115 1.072.346.305.226.514.525.627.896.446-.828 1.11-1.242 1.993-1.242 1.32 0 1.98.814 1.98 2.443v3.698ZM116.318 61.066v3.175h-.985V55.84h2.309c.898 0 1.594.219 2.086.656.496.438.744 1.055.744 1.852 0 .797-.275 1.45-.826 1.957-.547.508-1.287.762-2.221.762h-1.107Zm0-4.336v3.445h1.031c.68 0 1.197-.154 1.553-.463.359-.312.539-.752.539-1.318 0-1.11-.656-1.664-1.969-1.664h-1.154ZM126.226 64.242h-.961v-.938h-.023c-.418.719-1.034 1.078-1.846 1.078-.598 0-1.067-.158-1.406-.475-.336-.316-.504-.736-.504-1.26 0-1.12.66-1.773 1.98-1.956l1.799-.252c0-1.02-.412-1.53-1.236-1.53-.723 0-1.375.247-1.957.739v-.985c.589-.375 1.269-.562 2.039-.562 1.41 0 2.115.746 2.115 2.238v3.903Zm-.961-3.036-1.447.2c-.446.062-.782.173-1.008.334-.227.156-.34.435-.34.837a.93.93 0 0 0 .311.721c.211.184.49.276.837.276.477 0 .87-.166 1.178-.498.313-.336.469-.76.469-1.272v-.598ZM133.158 63.761c0 2.203-1.055 3.305-3.165 3.305-.742 0-1.39-.14-1.945-.422v-.961c.676.375 1.32.562 1.934.562 1.476 0 2.215-.785 2.215-2.355v-.656h-.024c-.457.765-1.144 1.148-2.062 1.148-.746 0-1.348-.266-1.805-.797-.453-.535-.68-1.252-.68-2.15 0-1.02.244-1.83.733-2.432.492-.601 1.164-.902 2.015-.902.809 0 1.409.324 1.799.973h.024v-.832h.961v5.519Zm-.961-2.232v-.885c0-.477-.162-.885-.487-1.225a1.58 1.58 0 0 0-1.201-.51c-.594 0-1.058.217-1.394.65-.336.43-.504 1.034-.504 1.811 0 .668.16 1.204.48 1.606.324.398.752.598 1.283.598.539 0 .977-.192 1.313-.575.34-.383.51-.873.51-1.47ZM139.925 61.482h-4.236c.015.668.195 1.183.539 1.547.344.363.816.544 1.418.544.676 0 1.297-.222 1.863-.667v.902c-.527.383-1.224.574-2.092.574-.847 0-1.513-.271-1.998-.814-.484-.547-.726-1.315-.726-2.303 0-.934.263-1.693.791-2.28.531-.59 1.189-.884 1.974-.884.785 0 1.393.254 1.823.762.429.507.644 1.212.644 2.115v.504Zm-.984-.815c-.004-.554-.139-.986-.405-1.295-.261-.308-.626-.462-1.095-.462-.453 0-.838.162-1.155.486-.316.324-.511.748-.585 1.271h3.24ZM149.775 56.73h-2.426v7.512h-.984V56.73h-2.42v-.89h5.83v.89ZM155.792 61.482h-4.236c.016.668.195 1.183.539 1.547.344.363.816.544 1.418.544.676 0 1.297-.222 1.863-.667v.902c-.527.383-1.224.574-2.091.574-.848 0-1.514-.271-1.999-.814-.484-.547-.726-1.315-.726-2.303 0-.934.264-1.693.791-2.28.531-.59 1.189-.884 1.975-.884.785 0 1.392.254 1.822.762.429.507.644 1.212.644 2.115v.504Zm-.984-.815c-.004-.554-.139-.986-.404-1.295-.262-.308-.627-.462-1.096-.462-.453 0-.838.162-1.154.486-.317.324-.512.748-.586 1.271h3.24ZM165.771 64.242h-.961v-3.446c0-.664-.104-1.144-.311-1.441-.203-.297-.547-.445-1.031-.445-.41 0-.76.187-1.049.562-.285.375-.427.824-.427 1.348v3.422h-.961v-3.563c0-1.18-.455-1.77-1.366-1.77-.422 0-.769.178-1.043.534-.273.351-.41.81-.41 1.377v3.422h-.961v-6h.961v.949h.024c.425-.727 1.047-1.09 1.863-1.09.41 0 .768.115 1.072.346.305.226.514.525.627.896.445-.828 1.11-1.242 1.992-1.242 1.321 0 1.981.814 1.981 2.443v3.698ZM168.572 63.374h-.024v3.627h-.961v-8.76h.961v1.055h.024c.472-.797 1.164-1.195 2.074-1.195.773 0 1.377.27 1.81.809.434.535.651 1.253.651 2.156 0 1.004-.244 1.808-.733 2.414-.488.601-1.156.902-2.004.902-.777 0-1.377-.336-1.798-1.008Zm-.024-2.42v.838c0 .496.16.918.481 1.266.324.344.734.516 1.23.516.582 0 1.037-.223 1.365-.668.332-.446.498-1.065.498-1.858 0-.668-.154-1.191-.462-1.57-.309-.38-.727-.569-1.254-.569-.559 0-1.008.196-1.348.586-.34.387-.51.873-.51 1.46ZM175.603 64.242h-.961v-8.883h.961v8.883ZM181.843 64.242h-.961v-.938h-.023c-.418.719-1.033 1.078-1.846 1.078-.598 0-1.066-.158-1.406-.475-.336-.316-.504-.736-.504-1.26 0-1.12.66-1.773 1.98-1.956l1.799-.252c0-1.02-.412-1.53-1.236-1.53-.723 0-1.375.247-1.957.739v-.985c.59-.375 1.269-.562 2.039-.562 1.41 0 2.115.746 2.115 2.238v3.903Zm-.961-3.036-1.447.2c-.445.062-.781.173-1.008.334-.226.156-.34.435-.34.837a.93.93 0 0 0 .311.721c.211.184.49.276.838.276.476 0 .869-.166 1.177-.498.313-.336.469-.76.469-1.272v-.598ZM186.437 64.183c-.227.125-.526.187-.897.187-1.05 0-1.576-.586-1.576-1.757v-3.551h-1.031v-.82h1.031v-1.465l.961-.31v1.775h1.512v.82h-1.512v3.38c0 .403.068.69.205.862.137.172.363.258.68.258.242 0 .451-.067.627-.2v.82ZM192.542 61.482h-4.236c.016.668.195 1.183.539 1.547.344.363.816.544 1.418.544.676 0 1.297-.222 1.863-.667v.902c-.527.383-1.224.574-2.091.574-.848 0-1.514-.271-1.999-.814-.484-.547-.726-1.315-.726-2.303 0-.934.264-1.693.791-2.28.531-.59 1.189-.884 1.975-.884.785 0 1.392.254 1.822.762.429.507.644 1.212.644 2.115v.504Zm-.984-.815c-.004-.554-.139-.986-.404-1.295-.262-.308-.627-.462-1.096-.462-.453 0-.838.162-1.154.486-.317.324-.512.748-.586 1.271h3.24ZM204.788 64.376a1.694 1.694 0 0 1-1.06-.346 2.949 2.949 0 0 1-.422-.41c-.133-.16-.273-.341-.422-.544-.156.167-.338.33-.545.486a3.876 3.876 0 0 1-1.5.703 3.981 3.981 0 0 1-.967.111c-.421 0-.808-.053-1.16-.158a2.6 2.6 0 0 1-.902-.463 2.17 2.17 0 0 1-.586-.762 2.478 2.478 0 0 1-.205-1.037c0-.597.17-1.107.51-1.529.339-.426.82-.773 1.441-1.043a3.525 3.525 0 0 1-.352-.299 2.423 2.423 0 0 1-.316-.392 2.419 2.419 0 0 1-.223-.487 2.028 2.028 0 0 1-.082-.586c0-.308.055-.582.164-.82.114-.238.268-.44.463-.603.196-.165.426-.288.692-.37.265-.085.552-.128.861-.128.305 0 .582.043.832.129.254.081.471.2.651.357.183.156.326.344.427.562.102.22.153.463.153.733 0 .469-.135.86-.405 1.172-.265.308-.666.572-1.201.79.27.106.514.235.733.387.218.153.419.323.603.51.188.188.361.389.522.604.16.215.318.437.474.668.317-.442.555-.928.715-1.46a5.76 5.76 0 0 0 .24-1.67c0-.148-.01-.286-.029-.415a3.432 3.432 0 0 0-.07-.393h.931c.032.13.049.252.053.37.008.113.016.25.023.41 0 .355-.037.712-.111 1.072a7.149 7.149 0 0 1-.738 2.01 7.414 7.414 0 0 1-.522.837c.137.188.262.352.375.493.114.136.227.252.34.345.117.094.237.164.358.211.125.043.265.065.421.065.118 0 .237-.016.358-.047.121-.032.246-.07.375-.117v.89a2.564 2.564 0 0 1-.897.164Zm-4.916-.832c.297 0 .571-.031.821-.093.25-.067.48-.153.691-.258a3.31 3.31 0 0 0 .574-.375c.172-.145.328-.295.469-.451a13.118 13.118 0 0 0-.662-.95 5.073 5.073 0 0 0-.609-.685 3.609 3.609 0 0 0-.657-.492 5.31 5.31 0 0 0-.802-.381 5.001 5.001 0 0 0-.68.328 2.218 2.218 0 0 0-.539.422c-.149.16-.266.347-.352.562a2.027 2.027 0 0 0-.129.756c0 .266.049.5.147.703.098.203.23.373.398.51.172.133.371.234.598.305.227.066.471.1.732.1Zm1.465-5.982a1.033 1.033 0 0 0-.386-.838 1.02 1.02 0 0 0-.37-.193 1.336 1.336 0 0 0-.404-.065c-.383 0-.689.104-.92.31-.226.208-.342.489-.346.844 0 .16.024.311.071.452.051.14.119.271.205.392.09.121.193.229.31.322.118.094.243.174.375.24.493-.171.86-.37 1.102-.597.242-.23.363-.52.363-.867ZM209.933 63.902v-1.16c.133.117.291.222.475.316.187.094.382.174.585.24.208.063.415.111.622.147.207.035.398.052.574.052.605 0 1.056-.111 1.353-.334.301-.226.451-.55.451-.972 0-.227-.05-.424-.152-.592a1.605 1.605 0 0 0-.41-.457 3.788 3.788 0 0 0-.627-.399 32.874 32.874 0 0 0-.773-.404 13.224 13.224 0 0 1-.821-.451 3.565 3.565 0 0 1-.662-.504 2.162 2.162 0 0 1-.445-.621 1.974 1.974 0 0 1-.158-.82c0-.383.084-.715.252-.996.168-.286.388-.52.662-.704.273-.183.584-.32.931-.41a4.32 4.32 0 0 1 1.073-.134c.828 0 1.431.1 1.81.298v1.108c-.496-.344-1.133-.516-1.91-.516-.215 0-.43.024-.645.07a1.778 1.778 0 0 0-.574.217 1.276 1.276 0 0 0-.41.393c-.105.16-.158.355-.158.586 0 .215.039.4.117.556.082.157.201.3.358.428.156.13.345.254.568.375.226.121.486.254.779.399.301.148.586.304.856.468.269.164.506.346.709.545.203.2.363.42.48.662.121.243.182.52.182.832 0 .415-.082.766-.246 1.055a1.972 1.972 0 0 1-.657.697 2.78 2.78 0 0 1-.949.387 5.094 5.094 0 0 1-1.137.123c-.132 0-.296-.012-.492-.035a5.543 5.543 0 0 1-.597-.094 4.963 4.963 0 0 1-.58-.146 1.869 1.869 0 0 1-.434-.205ZM221.394 61.482h-4.236c.015.668.195 1.183.539 1.547.343.363.816.544 1.418.544.675 0 1.296-.222 1.863-.667v.902c-.527.383-1.225.574-2.092.574-.848 0-1.514-.271-1.998-.814-.484-.547-.727-1.315-.727-2.303 0-.934.264-1.693.791-2.28.532-.59 1.19-.884 1.975-.884.785 0 1.393.254 1.822.762.43.507.645 1.212.645 2.115v.504Zm-.984-.815c-.004-.554-.139-.986-.405-1.295-.262-.308-.627-.462-1.095-.462-.454 0-.838.162-1.155.486-.316.324-.512.748-.586 1.271h3.241ZM226.943 63.966c-.461.277-1.008.416-1.641.416-.855 0-1.547-.277-2.074-.832-.524-.558-.785-1.281-.785-2.168 0-.988.283-1.781.849-2.379.567-.601 1.323-.902 2.268-.902.527 0 .992.098 1.394.293v.984a2.44 2.44 0 0 0-1.429-.468c-.614 0-1.117.22-1.512.662-.391.437-.586 1.013-.586 1.728 0 .703.184 1.258.551 1.664.371.406.867.61 1.488.61.524 0 1.016-.174 1.477-.522v.914ZM231.179 64.183c-.227.125-.525.187-.896.187-1.051 0-1.577-.586-1.577-1.757v-3.551h-1.031v-.82h1.031v-1.465l.961-.31v1.775h1.512v.82h-1.512v3.38c0 .403.069.69.205.862.137.172.364.258.68.258.242 0 .451-.067.627-.2v.82ZM232.954 56.718a.609.609 0 0 1-.621-.621c0-.18.061-.328.182-.445a.599.599 0 0 1 .439-.182c.176 0 .325.06.446.182a.584.584 0 0 1 .187.445.589.589 0 0 1-.187.44.607.607 0 0 1-.446.181Zm.469 7.523h-.961v-6h.961v6ZM237.876 64.382c-.886 0-1.595-.28-2.127-.838-.527-.562-.791-1.306-.791-2.232 0-1.008.276-1.795.827-2.361.55-.567 1.294-.85 2.232-.85.894 0 1.592.275 2.092.826.504.55.756 1.315.756 2.291 0 .957-.272 1.725-.815 2.303-.539.574-1.264.861-2.174.861Zm.071-5.473c-.618 0-1.106.211-1.465.633-.36.418-.539.996-.539 1.735 0 .71.181 1.271.545 1.681.363.41.849.616 1.459.616.621 0 1.097-.202 1.429-.604.336-.402.504-.975.504-1.717 0-.75-.168-1.328-.504-1.734-.332-.406-.808-.61-1.429-.61ZM247.38 64.242h-.961V60.82c0-1.274-.465-1.91-1.394-1.91a1.52 1.52 0 0 0-1.196.544c-.312.36-.468.815-.468 1.366v3.422h-.961v-6h.961v.996h.023c.453-.758 1.109-1.137 1.969-1.137.656 0 1.158.213 1.506.639.347.421.521 1.033.521 1.834v3.668ZM248.833 64.025v-1.032c.524.387 1.1.58 1.729.58.844 0 1.265-.28 1.265-.843a.705.705 0 0 0-.111-.404 1.009 1.009 0 0 0-.293-.3 2.037 2.037 0 0 0-.433-.228c-.164-.07-.342-.142-.534-.217a7.794 7.794 0 0 1-.703-.316 2.335 2.335 0 0 1-.504-.363 1.45 1.45 0 0 1-.304-.463 1.657 1.657 0 0 1-.1-.604c0-.281.065-.529.193-.744.129-.219.301-.4.516-.545.215-.148.459-.26.732-.334.278-.074.563-.111.856-.111.519 0 .984.09 1.394.27v.972c-.441-.289-.949-.434-1.523-.434a1.7 1.7 0 0 0-.486.065 1.17 1.17 0 0 0-.375.17.833.833 0 0 0-.241.27.713.713 0 0 0-.082.34c0 .156.028.286.082.392.059.105.143.199.252.281.11.082.243.156.399.223.156.066.334.138.533.217.266.101.504.207.715.316.211.105.391.227.539.363.148.133.262.287.34.463.082.176.123.385.123.627 0 .297-.067.555-.199.773-.129.22-.303.4-.522.545a2.407 2.407 0 0 1-.756.323 3.73 3.73 0 0 1-.896.105c-.617 0-1.153-.119-1.606-.357Z"/><path fill="#1717CC" fill-rule="evenodd" d="M9.14 89.111a5.25 5.25 0 1 0 3.113 4.799v-.536a.583.583 0 1 1 1.166 0v.536a6.418 6.418 0 1 1-3.805-5.864.583.583 0 0 1-.475 1.065Zm4.108-.283a.583.583 0 0 1 0 .825l-5.833 5.839a.583.583 0 0 1-.825 0l-1.75-1.75a.583.583 0 0 1 .825-.825l1.337 1.337 5.421-5.426a.583.583 0 0 1 .825 0Z" clip-rule="evenodd"/><path fill="#010101" d="M31.462 97.908h-4.36v-8.403h.985v7.512h3.375v.89ZM35.13 98.048c-.887 0-1.596-.28-2.127-.838-.527-.562-.79-1.306-.79-2.232 0-1.008.275-1.795.825-2.361.551-.567 1.295-.85 2.233-.85.894 0 1.592.275 2.092.826.504.55.755 1.315.755 2.291 0 .957-.271 1.725-.814 2.303-.539.574-1.264.861-2.174.861Zm.07-5.472c-.617 0-1.105.21-1.464.632-.36.418-.54.996-.54 1.735 0 .71.182 1.271.546 1.681.363.41.85.616 1.459.616.62 0 1.097-.202 1.43-.604.335-.402.503-.974.503-1.717 0-.75-.168-1.328-.504-1.734-.332-.406-.808-.61-1.43-.61ZM44.775 97.427c0 2.203-1.055 3.305-3.164 3.305-.742 0-1.39-.141-1.946-.422v-.961c.676.375 1.32.563 1.934.563 1.477 0 2.215-.786 2.215-2.356V96.9h-.024c-.457.765-1.144 1.148-2.062 1.148-.746 0-1.348-.265-1.805-.797-.453-.535-.68-1.252-.68-2.15 0-1.02.245-1.83.733-2.432.492-.601 1.164-.902 2.016-.902.808 0 1.408.324 1.798.973h.024v-.832h.96v5.52Zm-.961-2.232v-.885a1.71 1.71 0 0 0-.486-1.225c-.32-.34-.721-.51-1.202-.51-.593 0-1.058.217-1.394.65-.336.43-.504 1.034-.504 1.812 0 .667.16 1.203.48 1.605.325.398.752.598 1.284.598.539 0 .976-.192 1.312-.575.34-.382.51-.873.51-1.47ZM47.212 90.384a.609.609 0 0 1-.62-.621c0-.18.06-.328.18-.445a.599.599 0 0 1 .44-.182c.176 0 .324.06.446.182a.584.584 0 0 1 .187.445.59.59 0 0 1-.187.44.606.606 0 0 1-.446.181Zm.469 7.524h-.96v-6h.96v6ZM54.607 97.908h-.961v-3.422c0-1.274-.465-1.91-1.395-1.91-.48 0-.879.181-1.195.545-.313.359-.469.814-.469 1.365v3.422h-.96v-6h.96v.996h.024c.453-.758 1.11-1.137 1.968-1.137.657 0 1.159.213 1.506.639.348.421.522 1.033.522 1.834v3.668ZM57.302 96.572l-.937 2.882h-.686l.686-2.882h.937ZM68.47 97.908h-1.172l-1.406-2.356a4.877 4.877 0 0 0-.375-.556 2.041 2.041 0 0 0-.375-.381 1.204 1.204 0 0 0-.41-.211 1.592 1.592 0 0 0-.492-.07h-.809v3.574h-.984v-8.403h2.507c.368 0 .706.047 1.014.14.313.09.582.23.809.417.23.187.41.422.539.703.129.277.193.603.193.978 0 .294-.045.563-.135.81a2.039 2.039 0 0 1-.375.65c-.16.19-.355.355-.586.492a3.006 3.006 0 0 1-.767.31v.024c.14.062.262.134.363.217.106.078.205.171.299.28.094.11.185.235.275.376.094.136.198.297.31.48l1.577 2.526Zm-5.039-7.512v3.047h1.336c.246 0 .473-.037.68-.112a1.6 1.6 0 0 0 .544-.316c.153-.14.272-.31.358-.51.086-.203.129-.43.129-.68 0-.449-.147-.798-.44-1.048-.289-.254-.709-.381-1.26-.381h-1.347ZM74.324 95.148h-4.237c.016.668.196 1.183.54 1.547.343.363.816.545 1.417.545.676 0 1.297-.223 1.864-.668v.902c-.528.383-1.225.574-2.092.574-.848 0-1.514-.271-1.998-.814-.485-.547-.727-1.315-.727-2.303 0-.934.264-1.693.791-2.28.531-.59 1.19-.884 1.975-.884.785 0 1.392.254 1.822.762.43.508.645 1.213.645 2.115v.504Zm-.985-.815c-.004-.554-.138-.986-.404-1.295-.262-.308-.627-.462-1.096-.462-.453 0-.838.162-1.154.486-.317.324-.512.748-.586 1.271h3.24ZM80.904 97.427c0 2.203-1.055 3.305-3.164 3.305-.743 0-1.391-.141-1.946-.422v-.961c.676.375 1.32.563 1.934.563 1.476 0 2.215-.786 2.215-2.356V96.9h-.024c-.457.765-1.144 1.148-2.062 1.148-.746 0-1.348-.265-1.805-.797-.453-.535-.68-1.252-.68-2.15 0-1.02.245-1.83.733-2.432.492-.601 1.164-.902 2.015-.902.809 0 1.409.324 1.8.973h.023v-.832h.96v5.52Zm-.961-2.232v-.885a1.71 1.71 0 0 0-.487-1.225c-.32-.34-.72-.51-1.2-.51-.594 0-1.06.217-1.395.65-.336.43-.504 1.034-.504 1.812 0 .667.16 1.203.48 1.605.325.398.752.598 1.283.598.54 0 .977-.192 1.313-.575.34-.382.51-.873.51-1.47ZM83.341 90.384a.609.609 0 0 1-.62-.621c0-.18.06-.328.18-.445a.599.599 0 0 1 .44-.182c.176 0 .324.06.446.182a.584.584 0 0 1 .187.445.59.59 0 0 1-.188.44.606.606 0 0 1-.445.181Zm.469 7.524h-.961v-6h.96v6ZM85.392 97.69v-1.03c.523.386 1.1.58 1.728.58.844 0 1.266-.282 1.266-.844a.703.703 0 0 0-.111-.404 1.014 1.014 0 0 0-.293-.3 2.052 2.052 0 0 0-.434-.228c-.164-.07-.342-.142-.533-.217-.266-.105-.5-.21-.703-.316-.2-.11-.367-.23-.504-.363a1.444 1.444 0 0 1-.305-.463 1.67 1.67 0 0 1-.1-.604c0-.28.065-.529.194-.744.129-.219.3-.4.516-.545.215-.148.459-.26.732-.334.277-.074.563-.111.856-.111.52 0 .984.09 1.394.27v.972a2.719 2.719 0 0 0-1.523-.433c-.18 0-.342.021-.487.064a1.18 1.18 0 0 0-.375.17.83.83 0 0 0-.24.27.705.705 0 0 0-.082.34c0 .156.027.286.082.392.059.105.143.2.252.281.11.082.242.156.398.223.157.066.334.138.534.217.265.101.504.207.715.316.21.105.39.227.539.363.148.133.261.287.34.463.081.176.122.385.122.627 0 .297-.066.555-.199.773-.129.22-.303.4-.521.546-.219.144-.471.251-.756.322-.285.07-.584.105-.897.105-.617 0-1.152-.119-1.605-.357ZM93.636 97.849c-.227.125-.525.188-.896.188-1.051 0-1.577-.587-1.577-1.758v-3.551h-1.03v-.82h1.03v-1.465l.961-.31v1.775h1.512v.82h-1.512v3.38c0 .403.069.69.205.862.137.172.364.258.68.258.242 0 .451-.066.627-.2v.821ZM99.742 95.148h-4.237c.016.668.196 1.183.54 1.547.343.363.816.545 1.417.545.676 0 1.297-.223 1.864-.668v.902c-.528.383-1.225.574-2.092.574-.848 0-1.514-.271-1.998-.814-.485-.547-.727-1.315-.727-2.303 0-.934.264-1.693.791-2.28.531-.59 1.19-.884 1.975-.884.785 0 1.392.254 1.822.762.43.508.645 1.213.645 2.115v.504Zm-.985-.815c-.004-.554-.139-.986-.404-1.295-.262-.308-.627-.462-1.096-.462-.453 0-.838.162-1.154.486-.316.324-.512.748-.586 1.271h3.24ZM104.329 92.88c-.168-.129-.41-.193-.726-.193-.41 0-.754.193-1.031.58-.274.387-.411.914-.411 1.582v3.059h-.96v-6h.96v1.236h.024c.137-.422.346-.75.627-.985.281-.238.596-.357.943-.357.25 0 .442.027.574.082v.996ZM116.16 98.042a1.695 1.695 0 0 1-1.061-.346 2.953 2.953 0 0 1-.422-.41c-.133-.16-.273-.341-.422-.544a4.17 4.17 0 0 1-.545.486 3.888 3.888 0 0 1-1.5.703 3.981 3.981 0 0 1-.967.111 4.03 4.03 0 0 1-1.16-.158 2.596 2.596 0 0 1-.902-.463 2.17 2.17 0 0 1-.586-.762 2.478 2.478 0 0 1-.205-1.037c0-.597.17-1.107.51-1.529.34-.426.82-.773 1.441-1.043a3.396 3.396 0 0 1-.351-.299 2.372 2.372 0 0 1-.317-.392 2.36 2.36 0 0 1-.222-.487 1.993 1.993 0 0 1-.083-.585c0-.31.055-.583.165-.82.113-.24.267-.44.462-.604.196-.164.426-.287.692-.37.265-.085.553-.128.861-.128.305 0 .582.043.832.129.254.082.471.2.651.357.183.156.326.344.427.562.102.22.153.463.153.733 0 .469-.135.86-.405 1.172-.265.308-.666.572-1.201.79.27.106.514.235.733.388.218.152.42.322.603.51.188.187.361.388.522.603.16.215.318.437.474.668.317-.442.555-.928.715-1.46a5.76 5.76 0 0 0 .24-1.67c0-.148-.009-.286-.029-.415a3.434 3.434 0 0 0-.07-.393h.931c.032.13.049.252.053.37.008.113.016.25.024.41 0 .355-.038.712-.112 1.072a7.153 7.153 0 0 1-.738 2.01 7.414 7.414 0 0 1-.522.837c.137.188.262.352.375.493.114.136.227.252.34.345.117.094.237.164.358.211a1.422 1.422 0 0 0 .779.018c.121-.031.246-.07.375-.117v.89a2.552 2.552 0 0 1-.896.164Zm-4.917-.832c.297 0 .571-.031.821-.093.25-.067.48-.153.691-.258.211-.11.403-.235.574-.375.172-.145.329-.295.469-.451a13.144 13.144 0 0 0-.662-.95 5.073 5.073 0 0 0-.609-.685 3.58 3.58 0 0 0-.657-.492 5.32 5.32 0 0 0-.802-.381 5.002 5.002 0 0 0-.68.328 2.22 2.22 0 0 0-.539.422c-.148.16-.266.347-.352.562a2.027 2.027 0 0 0-.129.756c0 .266.049.5.147.703.098.203.23.373.398.51.172.133.372.234.598.305.227.066.471.1.732.1Zm1.465-5.982a1.034 1.034 0 0 0-.386-.838 1.02 1.02 0 0 0-.37-.193 1.34 1.34 0 0 0-.404-.065c-.383 0-.689.104-.92.31-.226.208-.342.489-.345.845 0 .16.023.31.07.45.051.141.119.272.205.393.09.121.193.229.31.323.118.093.243.173.375.24.493-.172.86-.371 1.102-.598.242-.23.363-.52.363-.867ZM122.681 94.732v3.176h-.984v-8.403h2.308c.899 0 1.594.219 2.086.657.496.437.744 1.054.744 1.851 0 .797-.275 1.45-.826 1.957-.547.508-1.287.762-2.221.762h-1.107Zm0-4.336v3.445h1.031c.68 0 1.198-.154 1.553-.463.359-.312.539-.752.539-1.318 0-1.11-.656-1.664-1.969-1.664h-1.154ZM132.589 97.908h-.961v-.938h-.023c-.418.719-1.033 1.078-1.846 1.078-.598 0-1.066-.158-1.406-.474-.336-.317-.504-.737-.504-1.26 0-1.121.66-1.774 1.98-1.957l1.799-.252c0-1.02-.412-1.53-1.236-1.53-.723 0-1.375.247-1.957.739v-.985c.59-.375 1.269-.562 2.039-.562 1.41 0 2.115.746 2.115 2.238v3.903Zm-.961-3.036-1.447.2c-.445.062-.781.174-1.008.334-.226.156-.34.435-.34.837a.93.93 0 0 0 .311.721c.211.184.49.276.838.276.476 0 .869-.166 1.178-.498.312-.336.468-.76.468-1.272v-.598ZM134.036 97.69v-1.03c.524.386 1.1.58 1.729.58.844 0 1.266-.282 1.266-.844a.706.706 0 0 0-.112-.404 1.01 1.01 0 0 0-.293-.3 2.042 2.042 0 0 0-.433-.228c-.164-.07-.342-.142-.533-.217-.266-.105-.5-.21-.704-.316a2.335 2.335 0 0 1-.504-.363 1.45 1.45 0 0 1-.304-.463 1.657 1.657 0 0 1-.1-.604c0-.28.065-.529.194-.744.128-.219.3-.4.515-.545.215-.148.459-.26.733-.334.277-.074.562-.111.855-.111.52 0 .984.09 1.395.27v.972a2.722 2.722 0 0 0-1.524-.433c-.18 0-.342.021-.486.064a1.17 1.17 0 0 0-.375.17.82.82 0 0 0-.24.27.702.702 0 0 0-.082.34c0 .156.027.286.082.392.058.105.142.2.252.281.109.082.242.156.398.223.156.066.334.138.533.217.266.101.504.207.715.316.211.105.391.227.539.363.149.133.262.287.34.463.082.176.123.385.123.627 0 .297-.066.555-.199.773-.129.22-.303.4-.522.546-.218.144-.47.251-.756.322a3.73 3.73 0 0 1-.896.105c-.617 0-1.152-.119-1.606-.357ZM139.134 97.69v-1.03c.524.386 1.1.58 1.729.58.843 0 1.265-.282 1.265-.844a.705.705 0 0 0-.111-.404 1.01 1.01 0 0 0-.293-.3 2.05 2.05 0 0 0-.434-.228 15.89 15.89 0 0 0-.533-.217c-.265-.105-.5-.21-.703-.316a2.335 2.335 0 0 1-.504-.363 1.453 1.453 0 0 1-.305-.463 1.679 1.679 0 0 1-.099-.604c0-.28.064-.529.193-.744.129-.219.301-.4.516-.545.215-.148.459-.26.732-.334.278-.074.563-.111.856-.111.519 0 .984.09 1.394.27v.972a2.716 2.716 0 0 0-1.523-.433c-.18 0-.342.021-.487.064a1.19 1.19 0 0 0-.375.17.843.843 0 0 0-.24.27.713.713 0 0 0-.082.34c0 .156.028.286.082.392.059.105.143.2.252.281.11.082.242.156.399.223.156.066.334.138.533.217a7 7 0 0 1 .715.316c.211.105.39.227.539.363.148.133.261.287.34.463.082.176.123.385.123.627 0 .297-.067.555-.2.773a1.64 1.64 0 0 1-.521.546 2.407 2.407 0 0 1-.756.322 3.73 3.73 0 0 1-.896.105c-.618 0-1.153-.119-1.606-.357ZM152.154 91.908l-1.799 6h-.996l-1.237-4.295a2.819 2.819 0 0 1-.093-.557h-.024c-.012.14-.053.322-.123.545l-1.342 4.307h-.961l-1.816-6h1.008l1.242 4.511c.039.137.066.317.082.54h.047c.012-.172.047-.356.105-.551l1.383-4.5h.879l1.242 4.523c.039.145.069.324.088.54h.047c.008-.153.041-.333.1-.54l1.218-4.523h.95ZM155.775 98.048c-.887 0-1.596-.28-2.127-.838-.528-.562-.791-1.306-.791-2.232 0-1.008.275-1.795.826-2.361.551-.567 1.295-.85 2.232-.85.895 0 1.592.275 2.092.826.504.55.756 1.315.756 2.291 0 .957-.271 1.725-.814 2.303-.539.574-1.264.861-2.174.861Zm.07-5.472c-.617 0-1.105.21-1.465.632-.359.418-.539.996-.539 1.735 0 .71.182 1.271.545 1.681.363.41.85.616 1.459.616.621 0 1.098-.202 1.43-.604.336-.402.504-.974.504-1.717 0-.75-.168-1.328-.504-1.734-.332-.406-.809-.61-1.43-.61ZM163.427 92.88c-.168-.129-.41-.193-.726-.193-.411 0-.754.193-1.032.58-.273.387-.41.914-.41 1.582v3.059h-.961v-6h.961v1.236h.024c.136-.422.345-.75.627-.985a1.42 1.42 0 0 1 .943-.357c.25 0 .441.027.574.082v.996ZM169.591 97.908h-.961v-1.02h-.023c-.446.773-1.133 1.16-2.063 1.16-.754 0-1.357-.267-1.81-.802-.449-.54-.674-1.272-.674-2.198 0-.992.25-1.787.75-2.385.5-.597 1.166-.896 1.998-.896.824 0 1.424.324 1.799.973h.023v-3.715h.961v8.883Zm-.961-2.713v-.885c0-.484-.16-.895-.48-1.23-.321-.337-.727-.504-1.219-.504-.586 0-1.047.214-1.383.644-.336.43-.504 1.023-.504 1.781 0 .692.16 1.239.481 1.64.324.4.758.599 1.301.599.535 0 .968-.194 1.3-.58.336-.387.504-.876.504-1.465ZM180.982 97.908h-1.172l-1.406-2.356a4.903 4.903 0 0 0-.375-.556 2.035 2.035 0 0 0-.375-.381 1.202 1.202 0 0 0-.411-.211 1.587 1.587 0 0 0-.492-.07h-.808v3.574h-.985v-8.403h2.508c.367 0 .705.047 1.014.14.312.09.582.23.808.417.231.187.411.422.539.703a2.3 2.3 0 0 1 .194.978c0 .294-.045.563-.135.81a2.039 2.039 0 0 1-.375.65c-.16.19-.355.355-.586.492a2.997 2.997 0 0 1-.767.31v.024c.14.062.261.134.363.217.105.078.205.171.299.28.093.11.185.235.275.376.094.136.197.297.311.48l1.576 2.526Zm-5.039-7.512v3.047h1.336c.246 0 .472-.037.679-.112.211-.074.393-.18.545-.316.153-.14.272-.31.358-.51.086-.203.129-.43.129-.68 0-.449-.147-.798-.44-1.048-.289-.254-.709-.381-1.26-.381h-1.347ZM186.835 95.148h-4.236c.016.668.195 1.183.539 1.547.344.363.816.545 1.418.545.676 0 1.297-.223 1.863-.668v.902c-.527.383-1.224.574-2.092.574-.847 0-1.513-.271-1.998-.814-.484-.547-.726-1.315-.726-2.303 0-.934.264-1.693.791-2.28.531-.59 1.189-.884 1.974-.884.786 0 1.393.254 1.823.762.429.508.644 1.213.644 2.115v.504Zm-.984-.815c-.004-.554-.139-.986-.404-1.295-.262-.308-.627-.462-1.096-.462a1.55 1.55 0 0 0-1.154.486c-.317.324-.512.748-.586 1.271h3.24ZM187.931 97.69v-1.03c.523.386 1.1.58 1.729.58.843 0 1.265-.282 1.265-.844a.705.705 0 0 0-.111-.404 1.023 1.023 0 0 0-.293-.3 2.05 2.05 0 0 0-.434-.228c-.164-.07-.342-.142-.533-.217-.266-.105-.5-.21-.703-.316a2.335 2.335 0 0 1-.504-.363 1.453 1.453 0 0 1-.305-.463 1.679 1.679 0 0 1-.099-.604c0-.28.064-.529.193-.744.129-.219.301-.4.516-.545.215-.148.459-.26.732-.334.277-.074.563-.111.856-.111.519 0 .984.09 1.394.27v.972a2.716 2.716 0 0 0-1.523-.433c-.18 0-.342.021-.487.064a1.19 1.19 0 0 0-.375.17.843.843 0 0 0-.24.27.702.702 0 0 0-.082.34c0 .156.027.286.082.392.059.105.143.2.252.281.109.082.242.156.399.223.156.066.333.138.533.217a7 7 0 0 1 .715.316c.21.105.39.227.539.363.148.133.261.287.339.463.082.176.124.385.124.627 0 .297-.067.555-.2.773a1.65 1.65 0 0 1-.521.546 2.407 2.407 0 0 1-.756.322c-.285.07-.584.105-.897.105-.617 0-1.152-.119-1.605-.357ZM198.214 95.148h-4.236c.015.668.195 1.183.539 1.547.344.363.816.545 1.418.545.676 0 1.297-.223 1.863-.668v.902c-.527.383-1.224.574-2.092.574-.847 0-1.513-.271-1.998-.814-.484-.547-.726-1.315-.726-2.303 0-.934.263-1.693.791-2.28.531-.59 1.189-.884 1.974-.884.786 0 1.393.254 1.823.762.429.508.644 1.213.644 2.115v.504Zm-.984-.815c-.004-.554-.139-.986-.404-1.295-.262-.308-.627-.462-1.096-.462a1.55 1.55 0 0 0-1.154.486c-.317.324-.512.748-.586 1.271h3.24ZM202.456 97.849c-.226.125-.525.188-.896.188-1.051 0-1.576-.587-1.576-1.758v-3.551h-1.032v-.82h1.032v-1.465l.961-.31v1.775h1.511v.82h-1.511v3.38c0 .403.068.69.205.862.136.172.363.258.679.258.243 0 .452-.066.627-.2v.821ZM211.427 90.396h-3.281v2.906h3.035v.885h-3.035v3.72h-.985v-8.402h4.266v.89ZM215.4 98.048c-.887 0-1.596-.28-2.127-.838-.528-.562-.791-1.306-.791-2.232 0-1.008.275-1.795.826-2.361.551-.567 1.295-.85 2.232-.85.895 0 1.592.275 2.092.826.504.55.756 1.315.756 2.291 0 .957-.271 1.725-.814 2.303-.539.574-1.264.861-2.174.861Zm.07-5.472c-.617 0-1.105.21-1.465.632-.359.418-.539.996-.539 1.735 0 .71.182 1.271.545 1.681.363.41.85.616 1.459.616.621 0 1.098-.202 1.43-.604.336-.402.504-.974.504-1.717 0-.75-.168-1.328-.504-1.734-.332-.406-.809-.61-1.43-.61ZM223.052 92.88c-.168-.129-.41-.193-.726-.193-.411 0-.754.193-1.032.58-.273.387-.41.914-.41 1.582v3.059h-.961v-6h.961v1.236h.024c.136-.422.345-.75.627-.985a1.42 1.42 0 0 1 .943-.357c.25 0 .441.027.574.082v.996ZM232.615 97.908h-.961v-3.446c0-.664-.104-1.144-.311-1.441-.203-.297-.547-.445-1.031-.445-.41 0-.76.187-1.049.562-.285.375-.428.824-.428 1.348v3.422h-.961v-3.563c0-1.18-.455-1.77-1.365-1.77-.422 0-.769.178-1.043.534-.273.351-.41.81-.41 1.377v3.422h-.961v-6h.961v.949h.023c.426-.727 1.047-1.09 1.864-1.09.41 0 .767.115 1.072.346.305.226.514.525.627.896.445-.828 1.109-1.242 1.992-1.242 1.32 0 1.981.814 1.981 2.443v3.698Z"/><path fill="#1717CC" fill-rule="evenodd" d="M9.14 115.113a5.252 5.252 0 0 0-7.376 4.45 5.248 5.248 0 0 0 6.727 5.38 5.249 5.249 0 0 0 3.762-5.031v-.536a.583.583 0 1 1 1.166 0v.536a6.418 6.418 0 1 1-3.805-5.864.583.583 0 1 1-.475 1.065Zm4.108-.283a.582.582 0 0 1 0 .824l-5.833 5.84a.585.585 0 0 1-.825 0l-1.75-1.75a.583.583 0 0 1 .825-.825l1.337 1.337 5.421-5.426a.583.583 0 0 1 .825 0Z" clip-rule="evenodd"/><path fill="#010101" d="M28.087 120.732v3.176h-.984v-8.403h2.308c.899 0 1.594.219 2.086.656.497.438.745 1.055.745 1.852 0 .797-.276 1.449-.827 1.957-.546.508-1.287.762-2.22.762h-1.108Zm0-4.336v3.445h1.032c.68 0 1.197-.154 1.552-.463.36-.312.54-.752.54-1.318 0-1.109-.657-1.664-1.97-1.664h-1.154ZM36.208 124.048c-.886 0-1.595-.279-2.127-.838-.527-.562-.79-1.306-.79-2.232 0-1.008.275-1.795.826-2.361.55-.567 1.294-.85 2.232-.85.895 0 1.592.275 2.092.826.504.551.756 1.315.756 2.291 0 .957-.272 1.725-.815 2.303-.539.574-1.264.861-2.174.861Zm.07-5.472c-.617 0-1.105.21-1.464.632-.36.418-.54.996-.54 1.735 0 .711.182 1.271.546 1.681.363.411.85.616 1.459.616.62 0 1.097-.202 1.43-.604.335-.402.503-.975.503-1.717 0-.75-.168-1.328-.504-1.734-.332-.406-.808-.609-1.43-.609ZM41.716 123.04h-.023v3.627h-.961v-8.759h.96v1.054h.024c.473-.797 1.164-1.195 2.074-1.195.774 0 1.377.269 1.81.809.434.535.651 1.253.651 2.156 0 1.004-.244 1.808-.732 2.414-.488.601-1.156.902-2.004.902-.777 0-1.377-.336-1.799-1.008Zm-.023-2.42v.838c0 .496.16.918.48 1.266.324.344.735.516 1.23.516.583 0 1.038-.223 1.366-.668.332-.446.498-1.065.498-1.858 0-.668-.154-1.191-.463-1.57-.309-.379-.727-.568-1.254-.568-.558 0-1.008.195-1.347.585-.34.387-.51.874-.51 1.459ZM52.638 123.908h-.96v-.95h-.024c-.399.727-1.016 1.09-1.852 1.09-1.43 0-2.144-.851-2.144-2.555v-3.585h.955v3.433c0 1.266.484 1.899 1.453 1.899.468 0 .853-.172 1.154-.516.305-.348.457-.801.457-1.359v-3.457h.961v6ZM55.568 123.04h-.024v3.627h-.96v-8.759h.96v1.054h.024c.472-.797 1.164-1.195 2.074-1.195.773 0 1.377.269 1.81.809.434.535.65 1.253.65 2.156 0 1.004-.243 1.808-.732 2.414-.488.601-1.156.902-2.003.902-.778 0-1.377-.336-1.8-1.008Zm-.024-2.42v.838c0 .496.16.918.48 1.266.325.344.735.516 1.231.516.582 0 1.037-.223 1.365-.668.333-.446.498-1.065.498-1.858 0-.668-.154-1.191-.462-1.57-.309-.379-.727-.568-1.254-.568-.559 0-1.008.195-1.348.585-.34.387-.51.874-.51 1.459ZM65.06 123.908v-8.403h2.39c.727 0 1.303.178 1.729.533.426.356.639.819.639 1.389 0 .477-.13.891-.387 1.242a2.08 2.08 0 0 1-1.066.75v.024c.566.066 1.02.281 1.359.644.34.36.51.828.51 1.406 0 .719-.258 1.301-.774 1.747-.515.445-1.166.668-1.95.668h-2.45Zm.984-7.512v2.713h1.008c.54 0 .963-.129 1.272-.387.308-.262.463-.629.463-1.102 0-.816-.538-1.224-1.612-1.224h-1.13Zm0 3.597v3.024h1.336c.578 0 1.026-.137 1.342-.41.32-.274.48-.649.48-1.125 0-.992-.675-1.489-2.027-1.489h-1.13ZM76.662 123.908H75.7v-.95h-.023c-.398.727-1.016 1.09-1.852 1.09-1.43 0-2.144-.851-2.144-2.555v-3.585h.955v3.433c0 1.266.484 1.899 1.453 1.899.469 0 .854-.172 1.154-.516.305-.348.458-.801.458-1.359v-3.457h.96v6ZM79.099 116.384a.606.606 0 0 1-.44-.176.592.592 0 0 1-.181-.445c0-.18.06-.328.181-.445a.6.6 0 0 1 .44-.182c.176 0 .324.061.445.182a.583.583 0 0 1 .188.445.588.588 0 0 1-.188.439.602.602 0 0 1-.445.182Zm.469 7.524h-.961v-6h.96v6ZM82.474 123.908h-.961v-8.883h.961v8.883ZM89.54 123.908h-.96v-1.02h-.024c-.445.773-1.133 1.16-2.063 1.16-.753 0-1.357-.267-1.81-.803-.45-.539-.674-1.271-.674-2.197 0-.992.25-1.787.75-2.385.5-.597 1.166-.896 1.998-.896.824 0 1.424.324 1.799.973h.023v-3.715h.961v8.883Zm-.96-2.713v-.885c0-.484-.16-.895-.481-1.231-.32-.336-.727-.503-1.219-.503-.586 0-1.047.214-1.383.644-.335.43-.504 1.023-.504 1.781 0 .692.16 1.239.481 1.641.324.398.758.598 1.3.598.536 0 .97-.194 1.302-.58.336-.387.503-.875.503-1.465ZM96.308 121.148h-4.236c.015.668.195 1.183.539 1.547.343.363.816.545 1.418.545.675 0 1.297-.223 1.863-.668v.902c-.527.383-1.225.574-2.092.574-.847 0-1.513-.271-1.998-.814-.484-.547-.727-1.315-.727-2.303 0-.934.264-1.693.791-2.279.532-.59 1.19-.885 1.975-.885.785 0 1.393.254 1.822.762.43.507.645 1.213.645 2.115v.504Zm-.984-.815c-.004-.554-.14-.986-.405-1.295-.261-.308-.627-.462-1.095-.462-.454 0-.838.162-1.155.486-.316.324-.511.748-.586 1.271h3.24ZM100.896 118.88c-.168-.129-.41-.193-.727-.193-.41 0-.754.193-1.031.58-.273.387-.41.914-.41 1.582v3.059h-.961v-6h.96v1.236h.024c.137-.422.346-.75.627-.984a1.42 1.42 0 0 1 .944-.358c.25 0 .441.027.574.082v.996Z"/><path fill="#1717CC" fill-rule="evenodd" d="M9.14 141.113a5.252 5.252 0 0 0-7.376 4.45 5.248 5.248 0 0 0 6.727 5.38 5.249 5.249 0 0 0 3.762-5.031v-.536a.583.583 0 1 1 1.166 0v.536a6.418 6.418 0 1 1-3.805-5.864.583.583 0 1 1-.475 1.065Zm4.108-.284a.583.583 0 0 1 0 .825l-5.833 5.84a.585.585 0 0 1-.825 0l-1.75-1.75a.583.583 0 0 1 .825-.825l1.337 1.337 5.421-5.426a.584.584 0 0 1 .825-.001Z" clip-rule="evenodd"/><path fill="#010101" d="M27.103 149.908v-8.403h2.32c2.961 0 4.442 1.365 4.442 4.096 0 1.297-.413 2.34-1.237 3.129-.82.785-1.92 1.178-3.299 1.178h-2.226Zm.984-7.512v6.621h1.254c1.102 0 1.96-.295 2.572-.885.614-.59.92-1.426.92-2.508 0-2.152-1.144-3.228-3.433-3.228h-1.313ZM40.163 143.908l-2.76 6.96c-.492 1.243-1.183 1.864-2.074 1.864-.25 0-.459-.026-.627-.076v-.862c.208.071.397.106.569.106.484 0 .847-.289 1.09-.867l.48-1.137-2.344-5.988h1.067l1.623 4.617c.02.058.06.211.123.457h.035c.02-.094.059-.242.117-.446l1.705-4.628h.996ZM46.181 149.908h-.96v-3.422c0-1.274-.466-1.91-1.395-1.91-.48 0-.88.181-1.196.544-.312.36-.469.815-.469 1.366v3.422h-.96v-6h.96v.996h.024c.453-.758 1.11-1.137 1.969-1.137.656 0 1.158.213 1.505.639.348.421.522 1.033.522 1.834v3.668ZM52.292 149.908h-.96v-.938h-.024c-.418.719-1.033 1.078-1.846 1.078-.597 0-1.066-.158-1.406-.474-.336-.317-.504-.737-.504-1.26 0-1.121.66-1.774 1.98-1.957l1.8-.252c0-1.02-.413-1.529-1.237-1.529-.723 0-1.375.246-1.957.738v-.985c.59-.375 1.27-.562 2.04-.562 1.41 0 2.114.746 2.114 2.238v3.903Zm-.96-3.036-1.448.2c-.445.062-.781.173-1.008.334-.226.156-.34.435-.34.837 0 .293.104.534.311.721.21.184.49.276.838.276.476 0 .869-.166 1.178-.498.312-.336.468-.76.468-1.272v-.598ZM62.622 149.908h-.96v-3.446c0-.664-.104-1.144-.311-1.441-.203-.297-.547-.445-1.031-.445-.41 0-.76.187-1.05.562-.284.375-.427.824-.427 1.348v3.422h-.96v-3.563c0-1.18-.456-1.769-1.366-1.769-.422 0-.77.177-1.043.533-.273.351-.41.81-.41 1.377v3.422h-.961v-6h.96v.949h.024c.426-.727 1.047-1.09 1.863-1.09.41 0 .768.115 1.073.346.304.226.513.525.627.896.445-.828 1.11-1.242 1.992-1.242 1.32 0 1.98.814 1.98 2.443v3.698ZM64.931 142.384a.606.606 0 0 1-.44-.176.592.592 0 0 1-.181-.445c0-.18.06-.328.181-.445a.6.6 0 0 1 .44-.182c.176 0 .324.061.445.182a.583.583 0 0 1 .188.445.588.588 0 0 1-.188.439.602.602 0 0 1-.445.182Zm.469 7.524h-.961v-6h.96v6ZM71.435 149.632c-.461.278-1.008.416-1.64.416-.856 0-1.548-.277-2.075-.832-.523-.558-.785-1.281-.785-2.168 0-.988.283-1.781.85-2.379.566-.601 1.322-.902 2.267-.902.527 0 .992.098 1.395.293v.984a2.446 2.446 0 0 0-1.43-.468c-.613 0-1.117.22-1.512.662-.39.437-.586 1.013-.586 1.728 0 .703.184 1.258.551 1.664.371.406.867.61 1.488.61.524 0 1.016-.174 1.477-.522v.914ZM82.029 149.556c-.621.328-1.395.492-2.32.492-1.196 0-2.153-.385-2.872-1.154-.719-.77-1.078-1.779-1.078-3.029 0-1.344.404-2.43 1.213-3.258.809-.828 1.834-1.242 3.076-1.242.797 0 1.457.115 1.98.345v1.049a4.015 4.015 0 0 0-1.992-.504c-.964 0-1.748.322-2.35.967-.597.645-.896 1.506-.896 2.584 0 1.023.28 1.84.838 2.449.563.606 1.3.908 2.21.908.843 0 1.574-.187 2.19-.562v.955ZM86.118 150.048c-.886 0-1.595-.279-2.126-.838-.528-.562-.791-1.306-.791-2.232 0-1.008.275-1.795.826-2.361.55-.567 1.295-.85 2.232-.85.895 0 1.592.275 2.092.826.504.551.756 1.315.756 2.291 0 .957-.272 1.725-.815 2.303-.539.574-1.263.861-2.174.861Zm.07-5.472c-.616 0-1.105.21-1.464.632-.36.418-.54.996-.54 1.735 0 .711.183 1.271.546 1.681.363.411.85.616 1.459.616.62 0 1.098-.202 1.43-.604.335-.402.503-.975.503-1.717 0-.75-.168-1.328-.504-1.734-.331-.406-.808-.609-1.43-.609ZM95.622 149.908h-.96v-3.422c0-1.274-.465-1.91-1.395-1.91-.48 0-.879.181-1.195.544-.313.36-.47.815-.47 1.366v3.422h-.96v-6h.96v.996h.024c.453-.758 1.11-1.137 1.97-1.137.655 0 1.157.213 1.505.639.348.421.521 1.033.521 1.834v3.668ZM100.222 149.849c-.227.125-.525.187-.896.187-1.051 0-1.577-.585-1.577-1.757v-3.551h-1.03v-.82h1.03v-1.465l.961-.311v1.776h1.512v.82H98.71v3.381c0 .402.069.689.205.861.137.172.364.258.68.258.242 0 .451-.067.627-.199v.82ZM106.327 147.148h-4.236c.016.668.195 1.183.539 1.547.344.363.817.545 1.418.545.676 0 1.297-.223 1.863-.668v.902c-.527.383-1.224.574-2.091.574-.848 0-1.514-.271-1.998-.814-.485-.547-.727-1.315-.727-2.303 0-.934.264-1.693.791-2.279.531-.59 1.19-.885 1.975-.885.785 0 1.392.254 1.822.762.43.507.644 1.213.644 2.115v.504Zm-.984-.815c-.004-.554-.139-.986-.404-1.295-.262-.308-.627-.462-1.096-.462-.453 0-.838.162-1.154.486-.317.324-.512.748-.586 1.271h3.24ZM112.767 149.908h-.961v-3.422c0-1.274-.465-1.91-1.395-1.91-.48 0-.878.181-1.195.544-.312.36-.469.815-.469 1.366v3.422h-.961v-6h.961v.996h.024c.453-.758 1.109-1.137 1.969-1.137.656 0 1.158.213 1.505.639.348.421.522 1.033.522 1.834v3.668ZM117.367 149.849c-.227.125-.526.187-.897.187-1.051 0-1.576-.585-1.576-1.757v-3.551h-1.031v-.82h1.031v-1.465l.961-.311v1.776h1.512v.82h-1.512v3.381c0 .402.068.689.205.861.137.172.363.258.68.258.242 0 .451-.067.627-.199v.82ZM121.679 149.568v-1.16c.133.117.291.222.475.316.187.094.382.174.586.24.207.063.414.112.621.147.207.035.398.052.574.052.605 0 1.057-.111 1.353-.334.301-.226.452-.55.452-.972 0-.227-.051-.424-.153-.592a1.593 1.593 0 0 0-.41-.457 3.762 3.762 0 0 0-.627-.398 33.943 33.943 0 0 0-.773-.405 13.121 13.121 0 0 1-.821-.451 3.535 3.535 0 0 1-.662-.504 2.147 2.147 0 0 1-.445-.621 1.973 1.973 0 0 1-.158-.82c0-.383.084-.715.252-.996a2.13 2.13 0 0 1 .662-.703 3 3 0 0 1 .931-.411 4.357 4.357 0 0 1 1.073-.134c.828 0 1.431.099 1.81.298v1.108c-.496-.344-1.133-.516-1.91-.516-.215 0-.43.024-.644.071a1.765 1.765 0 0 0-.575.216 1.284 1.284 0 0 0-.41.393c-.105.16-.158.355-.158.586 0 .215.039.4.117.556.082.157.201.299.358.428.156.129.345.254.568.375.227.121.486.254.779.399.301.148.586.304.856.468.269.164.506.346.709.545.203.2.363.42.48.662.121.243.182.52.182.832 0 .415-.082.766-.246 1.055-.16.285-.379.518-.657.697-.273.18-.589.309-.949.387a5.091 5.091 0 0 1-1.136.123c-.133 0-.297-.012-.493-.035a5.672 5.672 0 0 1-.597-.094 5.119 5.119 0 0 1-.58-.146 1.898 1.898 0 0 1-.434-.205ZM133.169 149.908h-.961v-.95h-.023c-.399.727-1.016 1.09-1.852 1.09-1.429 0-2.144-.851-2.144-2.555v-3.585h.955v3.433c0 1.266.484 1.899 1.453 1.899.469 0 .854-.172 1.154-.516.305-.348.457-.801.457-1.359v-3.457h.961v6ZM136.099 149.04h-.023v3.627h-.961v-8.759h.961v1.054h.023c.473-.797 1.164-1.195 2.074-1.195.774 0 1.377.269 1.811.809.433.535.65 1.253.65 2.156 0 1.004-.244 1.808-.732 2.414-.489.601-1.157.902-2.004.902-.778 0-1.377-.336-1.799-1.008Zm-.023-2.42v.838c0 .496.16.918.48 1.266.324.344.734.516 1.23.516.582 0 1.038-.223 1.366-.668.332-.446.498-1.065.498-1.858 0-.668-.155-1.191-.463-1.57-.309-.379-.727-.568-1.254-.568-.559 0-1.008.195-1.348.585-.34.387-.509.874-.509 1.459ZM143.154 149.04h-.024v3.627h-.961v-8.759h.961v1.054h.024c.472-.797 1.164-1.195 2.074-1.195.773 0 1.377.269 1.81.809.434.535.651 1.253.651 2.156 0 1.004-.244 1.808-.733 2.414-.488.601-1.156.902-2.004.902-.777 0-1.376-.336-1.798-1.008Zm-.024-2.42v.838c0 .496.16.918.481 1.266.324.344.734.516 1.23.516.582 0 1.037-.223 1.365-.668.332-.446.498-1.065.498-1.858 0-.668-.154-1.191-.462-1.57-.309-.379-.727-.568-1.254-.568-.559 0-1.008.195-1.348.585-.34.387-.51.874-.51 1.459ZM151.732 150.048c-.887 0-1.596-.279-2.127-.838-.528-.562-.791-1.306-.791-2.232 0-1.008.275-1.795.826-2.361.551-.567 1.295-.85 2.232-.85.895 0 1.592.275 2.092.826.504.551.756 1.315.756 2.291 0 .957-.271 1.725-.814 2.303-.539.574-1.264.861-2.174.861Zm.07-5.472c-.617 0-1.105.21-1.465.632-.359.418-.539.996-.539 1.735 0 .711.182 1.271.545 1.681.363.411.85.616 1.459.616.621 0 1.098-.202 1.43-.604.336-.402.504-.975.504-1.717 0-.75-.168-1.328-.504-1.734-.332-.406-.809-.609-1.43-.609ZM159.384 144.88c-.168-.129-.41-.193-.726-.193-.411 0-.754.193-1.032.58-.273.387-.41.914-.41 1.582v3.059h-.961v-6h.961v1.236h.024c.136-.422.345-.75.627-.984.281-.239.595-.358.943-.358.25 0 .441.027.574.082v.996ZM163.21 149.849c-.226.125-.525.187-.896.187-1.051 0-1.576-.585-1.576-1.757v-3.551h-1.032v-.82h1.032v-1.465l.961-.311v1.776h1.511v.82h-1.511v3.381c0 .402.068.689.205.861.136.172.363.258.679.258.243 0 .452-.067.627-.199v.82Z"/><path fill="#1717CC" fill-rule="evenodd" d="M9.14 167.111a5.252 5.252 0 0 0-7.376 4.45 5.248 5.248 0 0 0 6.727 5.38 5.249 5.249 0 0 0 3.762-5.031v-.536a.583.583 0 1 1 1.166 0v.536a6.418 6.418 0 1 1-3.805-5.864.583.583 0 1 1-.475 1.065Zm4.108-.283a.583.583 0 0 1 0 .825l-5.833 5.839a.585.585 0 0 1-.825 0l-1.75-1.75a.583.583 0 0 1 .825-.825l1.337 1.337 5.421-5.426a.583.583 0 0 1 .825 0Z" clip-rule="evenodd"/><path fill="#010101" d="M26.71 175.568v-1.16c.133.117.291.222.475.316.187.094.383.174.586.24.207.063.414.112.62.147.208.035.4.052.575.052.606 0 1.057-.111 1.354-.334.3-.226.45-.55.45-.972 0-.227-.05-.424-.151-.592a1.607 1.607 0 0 0-.41-.457 3.74 3.74 0 0 0-.628-.398 33.816 33.816 0 0 0-.773-.405 13.097 13.097 0 0 1-.82-.451 3.523 3.523 0 0 1-.662-.504 2.146 2.146 0 0 1-.446-.621 1.981 1.981 0 0 1-.158-.82c0-.383.084-.715.252-.996.168-.286.389-.52.662-.703a3 3 0 0 1 .932-.411 4.353 4.353 0 0 1 1.072-.134c.828 0 1.432.099 1.81.298v1.108c-.496-.344-1.132-.516-1.91-.516-.214 0-.43.024-.644.071a1.762 1.762 0 0 0-.574.216 1.278 1.278 0 0 0-.41.393 1.04 1.04 0 0 0-.159.586c0 .215.04.4.117.556.082.157.202.299.358.428.156.129.346.254.568.375.227.121.487.254.78.399.3.148.585.304.855.468.27.164.506.346.709.545.203.2.363.42.48.662.121.243.182.52.182.832 0 .415-.082.766-.246 1.055-.16.285-.379.518-.656.697-.274.18-.59.309-.95.387-.359.082-.738.123-1.136.123-.133 0-.297-.012-.492-.035a5.674 5.674 0 0 1-.598-.094 5.142 5.142 0 0 1-.58-.146 1.909 1.909 0 0 1-.434-.205ZM35.857 176.048c-.887 0-1.596-.279-2.127-.838-.527-.562-.791-1.306-.791-2.232 0-1.008.275-1.795.826-2.361.55-.567 1.295-.85 2.232-.85.895 0 1.592.275 2.092.826.504.551.756 1.315.756 2.291 0 .957-.271 1.725-.814 2.303-.54.574-1.264.861-2.174.861Zm.07-5.472c-.617 0-1.105.21-1.465.632-.36.418-.539.996-.539 1.735 0 .711.182 1.271.545 1.681.363.411.85.616 1.46.616.62 0 1.097-.202 1.429-.604.336-.402.504-.975.504-1.717 0-.75-.168-1.328-.504-1.734-.332-.406-.809-.609-1.43-.609ZM44.47 175.632c-.46.278-1.008.416-1.64.416-.856 0-1.547-.277-2.075-.832-.523-.558-.785-1.281-.785-2.168 0-.988.283-1.781.85-2.379.566-.601 1.322-.902 2.267-.902.528 0 .992.098 1.395.293v.984a2.446 2.446 0 0 0-1.43-.468c-.613 0-1.117.22-1.512.662-.39.437-.586 1.013-.586 1.728 0 .703.184 1.258.551 1.664.371.406.867.61 1.488.61.524 0 1.016-.174 1.477-.522v.914ZM46.415 168.384a.606.606 0 0 1-.44-.176.592.592 0 0 1-.18-.445c0-.18.06-.328.18-.445a.6.6 0 0 1 .44-.182c.176 0 .325.061.446.182a.583.583 0 0 1 .187.445.588.588 0 0 1-.187.439.602.602 0 0 1-.446.182Zm.47 7.524h-.962v-6h.961v6ZM53.124 175.908h-.96v-.938h-.024c-.418.719-1.033 1.078-1.846 1.078-.597 0-1.066-.158-1.406-.474-.336-.317-.504-.737-.504-1.26 0-1.121.66-1.774 1.98-1.957l1.8-.252c0-1.02-.413-1.529-1.237-1.529-.723 0-1.375.246-1.957.738v-.985c.59-.375 1.27-.562 2.04-.562 1.41 0 2.114.746 2.114 2.238v3.903Zm-.96-3.036-1.448.2c-.445.062-.781.173-1.008.334-.226.156-.34.435-.34.837 0 .293.104.534.311.721.211.184.49.276.838.276.476 0 .87-.166 1.178-.498.312-.336.468-.76.468-1.272v-.598ZM55.896 175.908h-.961v-8.883h.96v8.883ZM65.529 168.396h-3.282v2.906h3.036v.885h-3.036v3.721h-.984v-8.403h4.266v.891ZM71.816 173.148h-4.237c.016.668.196 1.183.54 1.547.343.363.816.545 1.418.545.675 0 1.296-.223 1.863-.668v.902c-.528.383-1.225.574-2.092.574-.848 0-1.514-.271-1.998-.814-.484-.547-.727-1.315-.727-2.303 0-.934.264-1.693.791-2.279.532-.59 1.19-.885 1.975-.885.785 0 1.392.254 1.822.762.43.507.645 1.213.645 2.115v.504Zm-.985-.815c-.004-.554-.138-.986-.404-1.295-.262-.308-.627-.462-1.096-.462-.453 0-.838.162-1.154.486-.316.324-.512.748-.586 1.271h3.24ZM78.097 173.148h-4.236c.015.668.195 1.183.539 1.547.343.363.816.545 1.418.545.675 0 1.297-.223 1.863-.668v.902c-.527.383-1.225.574-2.092.574-.847 0-1.513-.271-1.998-.814-.484-.547-.726-1.315-.726-2.303 0-.934.263-1.693.79-2.279.532-.59 1.19-.885 1.975-.885.785 0 1.393.254 1.823.762.43.507.644 1.213.644 2.115v.504Zm-.984-.815c-.004-.554-.139-.986-.405-1.295-.261-.308-.627-.462-1.095-.462-.454 0-.838.162-1.155.486-.316.324-.511.748-.586 1.271h3.24ZM84.677 175.908h-.96v-1.02h-.024c-.446.773-1.133 1.16-2.063 1.16-.754 0-1.357-.267-1.81-.803-.45-.539-.674-1.271-.674-2.197 0-.992.25-1.787.75-2.385.5-.597 1.166-.896 1.998-.896.824 0 1.424.324 1.799.973h.023v-3.715h.961v8.883Zm-.96-2.713v-.885c0-.484-.161-.895-.481-1.231-.32-.336-.727-.503-1.22-.503-.585 0-1.046.214-1.382.644-.336.43-.504 1.023-.504 1.781 0 .692.16 1.239.48 1.641.325.398.758.598 1.302.598.535 0 .968-.194 1.3-.58.336-.387.504-.875.504-1.465ZM97.41 176.042a1.74 1.74 0 0 1-.592-.093 1.721 1.721 0 0 1-.469-.252 2.955 2.955 0 0 1-.422-.411c-.133-.16-.273-.341-.422-.544a4.16 4.16 0 0 1-.545.486 3.904 3.904 0 0 1-1.5.703c-.297.074-.619.111-.966.111-.422 0-.81-.052-1.16-.158a2.59 2.59 0 0 1-.903-.463 2.17 2.17 0 0 1-.586-.761 2.485 2.485 0 0 1-.205-1.038c0-.597.17-1.107.51-1.529.34-.426.82-.773 1.441-1.043a3.34 3.34 0 0 1-.351-.299 2.407 2.407 0 0 1-.317-.392 2.415 2.415 0 0 1-.222-.487 2 2 0 0 1-.082-.586c0-.308.054-.582.164-.82.113-.238.267-.439.462-.603.196-.164.426-.287.692-.37.266-.085.553-.128.861-.128.305 0 .582.043.832.128.254.083.47.202.65.358a1.635 1.635 0 0 1 .58 1.295c0 .469-.134.859-.404 1.172-.265.308-.666.572-1.2.791.269.105.513.234.732.386.218.153.42.323.603.51.188.188.362.389.522.604.16.215.318.437.474.668.317-.442.555-.928.715-1.459a5.76 5.76 0 0 0 .24-1.67c0-.149-.01-.287-.029-.416a3.291 3.291 0 0 0-.07-.393h.931c.032.129.05.252.053.369.008.114.016.25.023.41 0 .356-.037.713-.11 1.073a7.168 7.168 0 0 1-.738 2.01 7.438 7.438 0 0 1-.523.837c.137.188.262.352.375.493.114.136.227.252.34.345.118.094.237.164.358.211.125.043.265.065.422.065.117 0 .236-.016.357-.047s.246-.07.375-.117v.89a2.29 2.29 0 0 1-.445.123 2.49 2.49 0 0 1-.452.041Zm-4.916-.832c.296 0 .57-.031.82-.093.25-.067.48-.153.691-.258.211-.11.403-.235.574-.375.172-.145.329-.295.47-.451a13.078 13.078 0 0 0-.663-.95 5.095 5.095 0 0 0-.61-.685 3.539 3.539 0 0 0-.656-.492 5.267 5.267 0 0 0-.802-.381 4.927 4.927 0 0 0-.68.328 2.221 2.221 0 0 0-.539.422c-.148.16-.266.347-.352.562a2.03 2.03 0 0 0-.129.756c0 .266.05.5.147.703.098.203.23.373.398.51.172.133.371.234.598.305.227.066.47.099.733.099Zm1.464-5.982a1.033 1.033 0 0 0-.386-.838 1.01 1.01 0 0 0-.37-.193 1.343 1.343 0 0 0-.404-.065c-.383 0-.69.104-.92.311-.226.207-.341.488-.345.843 0 .161.023.311.07.452.05.14.119.271.205.392.09.121.193.229.31.322.118.094.243.174.376.241.492-.172.859-.371 1.101-.598.242-.23.363-.519.363-.867ZM108.97 175.908h-1.172l-1.406-2.356a4.957 4.957 0 0 0-.375-.557 2.02 2.02 0 0 0-.375-.38 1.204 1.204 0 0 0-.41-.211 1.592 1.592 0 0 0-.492-.071h-.809v3.575h-.984v-8.403h2.507c.368 0 .706.047 1.014.141.313.09.582.228.809.416.23.187.41.422.539.703.129.277.193.603.193.978 0 .293-.045.563-.135.809a2.035 2.035 0 0 1-.375.65c-.16.192-.355.356-.586.493a3.018 3.018 0 0 1-.767.31v.024c.14.062.262.134.363.216.106.079.205.172.299.282.094.109.185.234.275.375.094.136.198.297.311.48l1.576 2.526Zm-5.039-7.512v3.047h1.336c.246 0 .473-.037.68-.112.211-.074.392-.179.545-.316.152-.141.271-.311.357-.51.086-.203.129-.429.129-.679 0-.45-.147-.799-.44-1.049-.289-.254-.709-.381-1.259-.381h-1.348ZM114.824 173.148h-4.237c.016.668.196 1.183.539 1.547.344.363.817.545 1.418.545.676 0 1.297-.223 1.864-.668v.902c-.528.383-1.225.574-2.092.574-.848 0-1.514-.271-1.998-.814-.485-.547-.727-1.315-.727-2.303 0-.934.264-1.693.791-2.279.531-.59 1.19-.885 1.975-.885.785 0 1.392.254 1.822.762.43.507.645 1.213.645 2.115v.504Zm-.985-.815c-.004-.554-.138-.986-.404-1.295-.262-.308-.627-.462-1.096-.462-.453 0-.838.162-1.154.486-.317.324-.512.748-.586 1.271h3.24ZM120.999 169.908l-2.39 6h-.944l-2.273-6h1.055l1.523 4.359c.113.32.184.6.211.838h.023c.039-.301.102-.572.188-.815l1.594-4.382h1.013ZM122.529 168.384a.607.607 0 0 1-.621-.621c0-.18.06-.328.181-.445a.6.6 0 0 1 .44-.182c.175 0 .324.061.445.182a.582.582 0 0 1 .187.445.588.588 0 0 1-.187.439.603.603 0 0 1-.445.182Zm.468 7.524h-.961v-6h.961v6ZM129.765 173.148h-4.236c.015.668.195 1.183.539 1.547.343.363.816.545 1.418.545.675 0 1.297-.223 1.863-.668v.902c-.527.383-1.225.574-2.092.574-.847 0-1.514-.271-1.998-.814-.484-.547-.726-1.315-.726-2.303 0-.934.263-1.693.791-2.279.531-.59 1.189-.885 1.974-.885.785 0 1.393.254 1.822.762.43.507.645 1.213.645 2.115v.504Zm-.984-.815c-.004-.554-.139-.986-.405-1.295-.261-.308-.627-.462-1.095-.462-.454 0-.838.162-1.155.486-.316.324-.511.748-.586 1.271h3.241ZM138.783 169.908l-1.799 6h-.996l-1.237-4.295a2.751 2.751 0 0 1-.093-.557h-.024a2.666 2.666 0 0 1-.123.545l-1.342 4.307h-.961l-1.816-6h1.008l1.242 4.511c.039.137.066.317.082.539h.047a2.56 2.56 0 0 1 .105-.55l1.383-4.5h.879l1.242 4.523c.039.145.069.324.088.539h.047c.008-.152.041-.332.1-.539l1.218-4.523h.95ZM139.533 175.691v-1.031c.523.386 1.099.58 1.728.58.844 0 1.266-.282 1.266-.844a.696.696 0 0 0-.112-.404 1.002 1.002 0 0 0-.293-.299 2.065 2.065 0 0 0-.433-.229c-.164-.07-.342-.142-.533-.217a7.8 7.8 0 0 1-.704-.316 2.283 2.283 0 0 1-.503-.363 1.44 1.44 0 0 1-.305-.463 1.658 1.658 0 0 1-.1-.604c0-.281.065-.529.194-.744.129-.219.3-.4.515-.545.215-.148.459-.26.733-.334.277-.074.562-.111.855-.111.52 0 .985.09 1.395.269v.973c-.442-.289-.95-.433-1.524-.433-.179 0-.342.021-.486.064-.145.039-.27.096-.375.17a.82.82 0 0 0-.24.269.704.704 0 0 0-.082.34c0 .157.027.287.082.393a.887.887 0 0 0 .252.281c.109.082.242.156.398.223.156.066.334.138.533.217.266.101.504.207.715.316.211.105.391.227.539.363.149.133.262.287.34.463.082.176.123.385.123.627 0 .297-.066.555-.199.774-.129.218-.303.4-.522.544-.218.145-.47.252-.755.323-.286.07-.584.105-.897.105-.617 0-1.152-.119-1.605-.357Z"/><path fill="#1717CC" fill-rule="evenodd" d="M9.14 193.113a5.252 5.252 0 0 0-7.376 4.45 5.248 5.248 0 0 0 6.727 5.38 5.249 5.249 0 0 0 3.762-5.031v-.536a.583.583 0 1 1 1.166 0v.536a6.418 6.418 0 1 1-3.805-5.864.583.583 0 1 1-.475 1.065Zm4.108-.283a.582.582 0 0 1 0 .824l-5.833 5.84a.585.585 0 0 1-.825 0l-1.75-1.75a.583.583 0 0 1 .825-.825l1.337 1.337 5.421-5.426a.583.583 0 0 1 .825 0Z" clip-rule="evenodd"/><path fill="#010101" d="M35.67 201.908h-.98v-5.637c0-.445.028-.99.083-1.635h-.024c-.093.379-.177.65-.252.815l-2.87 6.457h-.481l-2.865-6.411c-.082-.187-.166-.474-.252-.861h-.024c.032.336.047.885.047 1.647v5.625h-.95v-8.403h1.302l2.578 5.86c.199.449.328.785.387 1.007h.035c.168-.461.302-.804.404-1.031l2.63-5.836h1.231v8.403ZM42.578 199.148H38.34c.016.668.195 1.183.54 1.547.343.363.816.545 1.417.545.676 0 1.297-.223 1.863-.668v.902c-.527.383-1.224.574-2.091.574-.848 0-1.514-.271-1.998-.814-.485-.547-.727-1.315-.727-2.303 0-.934.264-1.693.791-2.279.531-.59 1.19-.885 1.975-.885.785 0 1.392.254 1.822.762.43.507.645 1.213.645 2.115v.504Zm-.985-.815c-.004-.554-.139-.986-.404-1.295-.262-.308-.627-.462-1.096-.462-.453 0-.838.162-1.154.486-.317.324-.512.748-.586 1.271h3.24ZM49.158 201.427c0 2.203-1.055 3.305-3.165 3.305-.742 0-1.39-.141-1.945-.422v-.961c.676.375 1.32.562 1.934.562 1.476 0 2.215-.785 2.215-2.355v-.656h-.024c-.457.765-1.144 1.148-2.062 1.148-.746 0-1.348-.265-1.805-.797-.453-.535-.68-1.252-.68-2.15 0-1.02.244-1.83.733-2.432.492-.601 1.164-.902 2.015-.902.809 0 1.409.324 1.8.973h.023v-.832h.96v5.519Zm-.961-2.232v-.885c0-.477-.163-.885-.487-1.225a1.58 1.58 0 0 0-1.2-.509c-.595 0-1.06.216-1.395.65-.336.43-.504 1.033-.504 1.81 0 .668.16 1.204.48 1.606.324.398.752.598 1.283.598.54 0 .977-.192 1.313-.575.34-.382.51-.873.51-1.47ZM55.398 201.908h-.961v-.938h-.024c-.418.719-1.033 1.078-1.845 1.078-.598 0-1.067-.158-1.407-.474-.336-.317-.503-.737-.503-1.26 0-1.121.66-1.774 1.98-1.957l1.799-.252c0-1.02-.412-1.529-1.236-1.529-.723 0-1.376.246-1.958.738v-.985c.59-.375 1.27-.562 2.04-.562 1.41 0 2.115.746 2.115 2.238v3.903Zm-.961-3.036-1.447.2c-.446.062-.782.173-1.008.334-.227.156-.34.435-.34.837 0 .293.103.534.31.721.211.184.49.276.838.276.477 0 .87-.166 1.178-.498.313-.336.469-.76.469-1.272v-.598ZM69.197 201.908h-.979v-5.637c0-.445.027-.99.082-1.635h-.023c-.094.379-.178.65-.252.815l-2.871 6.457h-.48l-2.866-6.411c-.082-.187-.166-.474-.252-.861h-.023c.03.336.046.885.046 1.647v5.625h-.949v-8.403h1.301l2.578 5.86c.2.449.328.785.387 1.007h.035c.168-.461.303-.804.404-1.031l2.631-5.836h1.23v8.403ZM76.105 199.148h-4.237c.016.668.196 1.183.54 1.547.343.363.816.545 1.418.545.675 0 1.296-.223 1.863-.668v.902c-.527.383-1.225.574-2.092.574-.848 0-1.514-.271-1.998-.814-.484-.547-.727-1.315-.727-2.303 0-.934.264-1.693.791-2.279.532-.59 1.19-.885 1.975-.885.785 0 1.393.254 1.822.762.43.507.645 1.213.645 2.115v.504Zm-.985-.815c-.004-.554-.138-.986-.404-1.295-.262-.308-.627-.462-1.096-.462-.453 0-.837.162-1.154.486-.316.324-.512.748-.586 1.271h3.24ZM82.544 201.908h-.96v-3.422c0-1.274-.466-1.91-1.395-1.91-.48 0-.88.181-1.195.544-.313.36-.47.815-.47 1.366v3.422h-.96v-6h.96v.996h.024c.453-.758 1.11-1.137 1.969-1.137.656 0 1.158.213 1.506.639.347.421.521 1.033.521 1.834v3.668ZM89.212 201.908h-.96v-.95h-.024c-.399.727-1.016 1.09-1.852 1.09-1.43 0-2.144-.851-2.144-2.555v-3.585h.955v3.433c0 1.266.484 1.899 1.453 1.899.469 0 .853-.172 1.154-.516.305-.348.457-.801.457-1.359v-3.457h.961v6ZM94.58 201.908v-8.403h2.39c.727 0 1.303.178 1.729.533.425.356.638.819.638 1.389 0 .477-.129.891-.386 1.242a2.08 2.08 0 0 1-1.067.75v.024c.567.066 1.02.281 1.36.644.34.36.51.828.51 1.406 0 .719-.259 1.301-.774 1.747-.516.445-1.166.668-1.951.668h-2.45Zm.984-7.512v2.713h1.008c.539 0 .962-.129 1.271-.387.309-.262.463-.629.463-1.102 0-.816-.537-1.224-1.611-1.224h-1.131Zm0 3.597v3.024H96.9c.578 0 1.025-.137 1.341-.41.32-.274.481-.649.481-1.125 0-.992-.676-1.489-2.027-1.489h-1.131ZM106.181 201.908h-.961v-.95h-.023c-.399.727-1.016 1.09-1.852 1.09-1.43 0-2.144-.851-2.144-2.555v-3.585h.955v3.433c0 1.266.484 1.899 1.453 1.899.468 0 .853-.172 1.154-.516.305-.348.457-.801.457-1.359v-3.457h.961v6ZM108.618 194.384a.606.606 0 0 1-.439-.176.592.592 0 0 1-.182-.445c0-.18.061-.328.182-.445a.6.6 0 0 1 .439-.182c.176 0 .325.061.446.182a.582.582 0 0 1 .187.445.588.588 0 0 1-.187.439.603.603 0 0 1-.446.182Zm.469 7.524h-.961v-6h.961v6ZM111.993 201.908h-.96v-8.883h.96v8.883ZM119.06 201.908h-.961v-1.02h-.023c-.446.773-1.133 1.16-2.063 1.16-.754 0-1.357-.267-1.811-.803-.449-.539-.673-1.271-.673-2.197 0-.992.25-1.787.75-2.385.5-.597 1.166-.896 1.998-.896.824 0 1.424.324 1.799.973h.023v-3.715h.961v8.883Zm-.961-2.713v-.885c0-.484-.16-.895-.481-1.231-.32-.336-.726-.503-1.218-.503-.586 0-1.047.214-1.383.644-.336.43-.504 1.023-.504 1.781 0 .692.16 1.239.48 1.641.325.398.758.598 1.301.598.535 0 .969-.194 1.301-.58.336-.387.504-.875.504-1.465ZM125.827 199.148h-4.236c.016.668.195 1.183.539 1.547.344.363.817.545 1.418.545.676 0 1.297-.223 1.863-.668v.902c-.527.383-1.224.574-2.091.574-.848 0-1.514-.271-1.998-.814-.485-.547-.727-1.315-.727-2.303 0-.934.264-1.693.791-2.279.531-.59 1.19-.885 1.975-.885.785 0 1.392.254 1.822.762.43.507.644 1.213.644 2.115v.504Zm-.984-.815c-.004-.554-.139-.986-.404-1.295-.262-.308-.627-.462-1.096-.462-.453 0-.838.162-1.154.486-.317.324-.512.748-.586 1.271h3.24ZM130.415 196.88c-.168-.129-.41-.193-.726-.193-.41 0-.754.193-1.031.58-.274.387-.411.914-.411 1.582v3.059h-.961v-6h.961v1.236h.024c.137-.422.346-.75.627-.984.281-.239.595-.358.943-.358.25 0 .442.027.574.082v.996Z"/></svg>