<svg xmlns="http://www.w3.org/2000/svg" width="243" height="263" fill="none"><path fill="#101014" fill-rule="evenodd" d="M119.428 117.576a.986.986 0 0 1-.691-.275 1.005 1.005 0 0 1-.29-.684l-1.304-63.515a.988.988 0 0 1 .228-.653c.157-.18.377-.298.612-.338l24.163-3.506a.98.98 0 0 1 .723.18l33.248 24.647a.93.93 0 0 1 .369.566l4.68 20.842a.963.963 0 0 1-.094.692c-.118.212-.306.37-.534.456L119.75 117.52a.96.96 0 0 1-.322.055Zm-.314-63.649 1.264 61.298 58.692-20.802-4.406-19.639-32.628-24.174-22.922 3.317Z" clip-rule="evenodd"/><path fill="#101014" d="M180.206 96.036c-.188 0-.377-.055-.542-.157l-62.099-41.982a1.151 1.151 0 0 1-.283-.267 1.077 1.077 0 0 1-.157-.362 1.128 1.128 0 0 1 0-.393.922.922 0 0 1 .149-.361 1.018 1.018 0 0 1 .644-.417 1.036 1.036 0 0 1 .738.173l62.1 41.973a.993.993 0 0 1 .392 1.109 1.03 1.03 0 0 1-.353.503.993.993 0 0 1-.589.189v-.008Z"/><path fill="#101014" d="M167.289 87.301h-.133a.977.977 0 0 1-.793-.66l-7.79-23.475-25.914.707a.929.929 0 0 1-.518-.133.934.934 0 0 1-.369-.394.92.92 0 0 1-.11-.526.97.97 0 0 1 .18-.504L141.501 49a.97.97 0 0 1 1.366-.212c.212.149.354.377.393.636.039.26-.023.52-.173.731l-8.488 11.706 24.657-.676a.936.936 0 0 1 .589.181c.173.118.298.291.369.495l7.39 22.273 7.13-10.464c.07-.11.165-.205.267-.283.11-.07.235-.126.361-.15a.98.98 0 0 1 .746.15 1.02 1.02 0 0 1 .408.644.894.894 0 0 1-.008.386 1.091 1.091 0 0 1-.157.353l-8.253 12.1a.908.908 0 0 1-.353.314.938.938 0 0 1-.456.118Z"/><path fill="#101014" d="M119.432 117.576a.98.98 0 0 1-.778-.369 1.092 1.092 0 0 1-.18-.401.908.908 0 0 1 .008-.44l13.208-53.704a1.02 1.02 0 0 1 .157-.354c.079-.11.173-.196.283-.267.11-.063.235-.11.369-.134.125-.015.259-.015.385.016.125.032.243.094.345.165a.996.996 0 0 1 .385.653.795.795 0 0 1-.024.385l-12.627 51.345 45.805-28.978a.956.956 0 0 1 .746-.126.95.95 0 0 1 .605.432c.141.22.188.487.133.74a1.014 1.014 0 0 1-.432.612l-47.87 30.276a.947.947 0 0 1-.518.149Z"/><path fill="#1717CC" d="m65.322 66.545 67.384 39.419 16.46-77.674-24.838-8.467-47.164 19.096-11.842 27.626Z"/><path fill="#F3F4FA" d="M77.112 62.153a.997.997 0 0 1-.62-.22.94.94 0 0 1-.338-.551.988.988 0 0 1 .079-.652c.102-.197.267-.362.47-.456l69.914-31.896a.946.946 0 0 1 .746-.023.88.88 0 0 1 .329.196.977.977 0 0 1 .22.315c.055.118.087.244.095.37 0 .125-.016.259-.063.377a.96.96 0 0 1-.511.55L77.52 62.058a.915.915 0 0 1-.408.095ZM67.757 66.412c-.22 0-.44-.071-.613-.213a.985.985 0 0 1-.338-.558.96.96 0 0 1 .079-.645 1.02 1.02 0 0 1 .471-.456l2.356-1.077c.118-.055.243-.078.377-.086a.906.906 0 0 1 .377.063c.118.04.228.11.322.196.094.087.173.197.228.315.054.118.078.244.086.37a.889.889 0 0 1-.063.377.947.947 0 0 1-.196.33.986.986 0 0 1-.314.22l-2.364 1.077a.908.908 0 0 1-.408.087Z"/><path fill="#F3F4FA" d="M84.924 58.59h-.094a1 1 0 0 1-.817-.605l-6.628-15.968a1.022 1.022 0 0 1 .016-.747 1 1 0 0 1 .526-.519.998.998 0 0 1 .738 0 .998.998 0 0 1 .534.511l5.913 14.245 15.886-24.536a.905.905 0 0 1 .424-.362c.173-.078.369-.102.558-.078l14.166 2.256a.978.978 0 0 1 .369.126c.11.07.204.157.283.26.079.11.134.227.165.353.031.126.039.26.016.385a.88.88 0 0 1-.134.362c-.071.11-.157.204-.267.283-.102.07-.22.126-.353.157a.907.907 0 0 1-.385.008l-13.538-2.154L85.74 58.14a.995.995 0 0 1-.353.322 1.072 1.072 0 0 1-.463.126ZM131.716 37.236a.796.796 0 0 1-.157-.016l-7.979-1.265a1.008 1.008 0 0 1-.361-.134.902.902 0 0 1-.29-.26.91.91 0 0 1-.157-.345 1.045 1.045 0 0 1-.024-.386.986.986 0 0 1 .141-.361.89.89 0 0 1 .26-.283.887.887 0 0 1 .353-.157.908.908 0 0 1 .385-.008l6.188.974-5.45-12.122a.997.997 0 0 1-.024-.755.978.978 0 0 1 .519-.542.974.974 0 0 1 1.295.495l6.204 13.773c.063.15.094.315.086.48a1.005 1.005 0 0 1-.51.786.973.973 0 0 1-.471.118l-.008.008Z"/><path fill="#F3F4FA" d="M131.601 43.423h-.023a.978.978 0 0 1-.958-.998l.11-6.188c.007-.26.117-.51.298-.692a.997.997 0 0 1 1.39.032c.18.18.275.432.275.692l-.118 6.187a.97.97 0 0 1-.291.684.974.974 0 0 1-.683.283ZM131.442 52.19h-.008c-.126 0-.259-.032-.377-.08a1.073 1.073 0 0 1-.314-.22 1.073 1.073 0 0 1-.204-.322.889.889 0 0 1-.063-.377l.024-1.36c0-.26.11-.511.298-.692.189-.181.44-.275.699-.275a.984.984 0 0 1 .683.306c.181.181.283.433.275.692l-.024 1.368a.992.992 0 0 1-.298.684 1.008 1.008 0 0 1-.691.275ZM130.554 101.009a.982.982 0 0 1-.66-.259l-45.64-42.43a.963.963 0 0 1-.314-.676c-.008-.26.086-.519.259-.707.18-.19.424-.3.683-.315a.99.99 0 0 1 .7.26l44.037 40.935.668-36.997a.985.985 0 0 1 .306-.684.941.941 0 0 1 .691-.275c.259 0 .51.11.691.299.181.189.275.44.275.7l-.715 39.198a.97.97 0 0 1-.597.881c-.117.047-.251.07-.376.07h-.008ZM77.107 105.687l31.451 8.16-2.183-32.98-10.908-.581L78.733 93.28l-1.626 12.406Z"/><path fill="#101014" fill-rule="evenodd" d="M108.564 114.824c-.084 0-.165-.007-.243-.023l-31.45-8.161a.978.978 0 0 1-.566-.401 1.026 1.026 0 0 1-.165-.676l1.626-12.413a.979.979 0 0 1 .117-.362c.071-.11.15-.212.252-.29l16.742-12.98a.966.966 0 0 1 .651-.205l10.908.574c.243.016.463.118.636.283a.975.975 0 0 1 .29.637l2.184 32.98a.958.958 0 0 1-.267.731.789.789 0 0 1-.322.228.987.987 0 0 1-.393.086v-.008Zm-30.366-9.874 29.306 7.602-2.042-30.755-9.674-.51-16.13 12.515-1.46 11.148Z" clip-rule="evenodd"/><path fill="#101014" d="M77.11 106.672a.968.968 0 0 1-.565-.181.996.996 0 0 1-.384-1.045 1.05 1.05 0 0 1 .314-.503l29.267-24.828a1.1 1.1 0 0 1 .337-.188c.126-.048.252-.063.385-.048.126.008.251.04.369.103.118.055.22.141.307.236.086.102.149.22.188.338a1.03 1.03 0 0 1-.071.763c-.062.11-.149.211-.251.298l-29.267 24.819a.97.97 0 0 1-.628.236Z"/><path fill="#101014" d="M83.955 100.87a.908.908 0 0 1-.424-.102.887.887 0 0 1-.338-.275l-5.222-6.604a.962.962 0 0 1-.204-.723.962.962 0 0 1 .361-.653.959.959 0 0 1 .723-.204.96.96 0 0 1 .651.361l3.99 5.055 2.85-11.32a.943.943 0 0 1 .33-.52.942.942 0 0 1 .573-.22l11.025-.518-3.541-4.23a.942.942 0 0 1-.228-.708.948.948 0 0 1 .346-.668.947.947 0 0 1 .714-.228c.26.024.495.15.66.346l4.814 5.74a.963.963 0 0 1 .22.487c.023.18 0 .37-.071.534a.987.987 0 0 1-.856.59l-12.274.574-3.157 12.547a.928.928 0 0 1-.267.464 1.004 1.004 0 0 1-.675.275Z"/><path fill="#101014" d="M108.559 114.824a.943.943 0 0 1-.479-.126l-24.61-13.947a1.006 1.006 0 0 1-.464-.597 1.01 1.01 0 0 1 .094-.74.99.99 0 0 1 .59-.463.99.99 0 0 1 .745.094l22.49 12.752-7.578-25.48c-.039-.125-.054-.251-.039-.385a.912.912 0 0 1 .11-.37.82.82 0 0 1 .244-.298.938.938 0 0 1 .337-.181.92.92 0 0 1 .385-.04.968.968 0 0 1 .369.119.956.956 0 0 1 .471.597l8.277 27.815c.039.149.047.299.024.448a.952.952 0 0 1-.181.417.962.962 0 0 1-.785.393v-.008ZM159.038 24.956a.93.93 0 0 1-.55-.173.955.955 0 0 1-.361-.448.98.98 0 0 1-.04-.582.965.965 0 0 1 .283-.495l3.251-3.003a.992.992 0 0 1 .699-.26c.259.016.511.126.683.315a.976.976 0 0 1 .259.707.957.957 0 0 1-.314.676l-3.243 3.003a.984.984 0 0 1-.667.26ZM60.97 91.709a.907.907 0 0 1-.527-.165.953.953 0 0 1-.432-.967.936.936 0 0 1 .236-.504l3.966-4.41c.086-.102.188-.197.306-.26a.91.91 0 0 1 .377-.11.88.88 0 0 1 .4.048.95.95 0 0 1 .573.519c.056.125.087.251.095.385a.976.976 0 0 1-.079.393.937.937 0 0 1-.22.33l-3.965 4.41a1 1 0 0 1-.33.244.99.99 0 0 1-.4.087ZM180.207 60.956h-4.681a.956.956 0 0 1-.691-.29.984.984 0 0 1-.282-.692c0-.26.102-.511.282-.692a.989.989 0 0 1 .691-.291h4.681c.267 0 .51.11.699.29.18.181.282.433.282.693a.974.974 0 0 1-.981.983Z"/><path fill="#FCF2C8" d="M116.436 19.565a28.34 28.34 0 0 0 .438 3.097L84.122 35.926a29.275 29.275 0 0 0-1.831-2.533l34.145-13.828Z"/><path fill="#FEE24B" d="M117.599 7.365c-1.527 4.405-1.453 9.179-1.167 12.199.089 1.04.236 2.073.438 3.096L84.118 35.924a29.297 29.297 0 0 0-1.83-2.533c-1.895-2.368-5.154-5.852-9.313-7.955 0 0 19.362-1.496 19.005-17.112l.11.155-.028-.189c10.583 11.476 25.537-.925 25.537-.925Z"/><path fill="#333" d="M116.996 22.964 84.244 36.228a.334.334 0 0 1-.408-.134 29.423 29.423 0 0 0-1.81-2.493c-1.966-2.458-5.164-5.817-9.202-7.862a.334.334 0 0 1 .124-.633 30.14 30.14 0 0 0 7.99-1.979c4.994-2.023 10.907-6.229 10.71-14.784a.335.335 0 0 1 .229-.324L91.92 8a.334.334 0 0 1 .39.073c5.794 6.275 12.97 5.195 17.965 3.172a30.171 30.171 0 0 0 7.12-4.129.337.337 0 0 1 .406-.018.333.333 0 0 1 .123.387c-1.486 4.282-1.447 8.92-1.154 12.056.09 1.024.234 2.043.431 3.052a.336.336 0 0 1-.205.37ZM84.25 35.504l32.239-13.056c-.087-.46-.259-1.47-.387-2.852-.278-2.959-.333-7.227.862-11.324a31.683 31.683 0 0 1-6.433 3.58c-5.048 2.045-12.231 3.162-18.206-2.815-.135 8.451-6.084 12.652-11.131 14.696a31.724 31.724 0 0 1-7.123 1.91c3.693 2.117 6.634 5.217 8.475 7.539a32.19 32.19 0 0 1 1.704 2.322Z"/><path fill="#333" d="m116.996 22.964-33.013 13.37-.147-.24a29.423 29.423 0 0 0-1.81-2.493l-.282-.35 34.982-14.167.04.448c.091 1.024.234 2.043.431 3.052l.058.275-.259.105ZM84.25 35.504l32.239-13.056a28.928 28.928 0 0 1-.341-2.398l-33.32 13.494a29.81 29.81 0 0 1 1.422 1.96Z"/><path fill="#FCF2C8" d="M91.47 6.67a2.257 2.257 0 0 0-1.69-4.184 2.258 2.258 0 0 0-1.245 2.939A2.253 2.253 0 0 0 91.47 6.67Z"/><path fill="#333" d="M91.596 6.975a2.585 2.585 0 0 1-3.513-1.917 2.594 2.594 0 0 1 1.123-2.65 2.586 2.586 0 0 1 3.8 3.176 2.595 2.595 0 0 1-1.41 1.391Zm-1.69-4.184a1.92 1.92 0 0 0-.886 2.837 1.92 1.92 0 1 0 .887-2.832l-.001-.005Z"/><path fill="#FCF2C8" d="M120.349 5.612a2.257 2.257 0 0 0-1.691-4.184 2.257 2.257 0 0 0 1.691 4.184Z"/><path fill="#333" d="M120.473 5.92a2.588 2.588 0 0 1-3.351-3.416 2.59 2.59 0 0 1 2.405-1.578 2.585 2.585 0 0 1 2.377 1.62 2.596 2.596 0 0 1-1.431 3.375Zm-1.691-4.184a1.924 1.924 0 0 0-.03 3.552 1.92 1.92 0 0 0 2.53-2.491 1.921 1.921 0 0 0-2.5-1.061Z"/><path fill="#FCF2C8" d="M70.235 25.715a2.258 2.258 0 0 0 1.245-2.938 2.253 2.253 0 1 0-4.18 1.692 2.253 2.253 0 0 0 2.935 1.246Z"/><path fill="#333" d="M70.366 26.026a2.588 2.588 0 0 1-3.517-1.92 2.597 2.597 0 0 1 1.126-2.654 2.59 2.59 0 0 1 3.822 1.2 2.596 2.596 0 0 1-1.431 3.374Zm-1.69-4.184a1.92 1.92 0 0 0-.886 2.837 1.92 1.92 0 1 0 2.355-2.824 1.92 1.92 0 0 0-1.47-.013Z"/><path fill="#010101" d="M83.302 151.479c0 3.539-1.676 5.309-5.028 5.309-3.21 0-4.816-1.703-4.816-5.107v-7.708h2.092v7.278c0 2.472.96 3.709 2.883 3.709 1.851 0 2.777-1.193 2.777-3.578v-7.409h2.092v7.506ZM88.11 155.25h-.036v5.466h-2.039v-13.139h2.04v1.582h.034c.698-1.196 1.717-1.793 3.059-1.793 1.142 0 2.033.401 2.672 1.204.638.803.958 1.881.958 3.234 0 1.5-.36 2.701-1.081 3.604-.72.902-1.705 1.353-2.953 1.353-1.149 0-2.033-.504-2.655-1.511Zm-.053-3.551v1.116c0 .656.208 1.213.624 1.67.422.457.955.685 1.6.685.755 0 1.347-.293 1.775-.878.433-.592.65-1.416.65-2.47 0-.885-.202-1.576-.606-2.074-.399-.504-.94-.756-1.626-.756-.727 0-1.313.258-1.758.773-.44.516-.66 1.16-.66 1.934ZM105.072 155.856c0 3.305-1.661 4.957-4.983 4.957-1.172 0-2.195-.196-3.067-.589v-1.863c.984.562 1.918.844 2.803.844 2.139 0 3.208-1.052 3.208-3.156v-.984h-.035c-.674 1.148-1.687 1.723-3.041 1.723-1.096 0-1.98-.399-2.654-1.196-.668-.802-1.002-1.878-1.002-3.225 0-1.53.36-2.745 1.08-3.648.722-.902 1.712-1.353 2.972-1.353 1.189 0 2.071.486 2.645 1.459h.035v-1.248h2.039v8.279Zm-2.021-3.401v-1.169c0-.633-.211-1.172-.633-1.618a2.04 2.04 0 0 0-1.564-.676c-.774 0-1.38.287-1.82.861-.433.568-.65 1.365-.65 2.391 0 .884.208 1.593.624 2.127.422.527.978.791 1.67.791.703 0 1.274-.252 1.714-.756.439-.51.659-1.16.659-1.951ZM112.947 149.519c-.246-.193-.6-.29-1.063-.29-.604 0-1.108.272-1.512.817-.404.545-.606 1.287-.606 2.224v4.307h-2.039v-9h2.039v1.854h.035c.199-.633.504-1.125.914-1.476.416-.358.879-.537 1.389-.537.369 0 .65.056.843.167v1.934ZM121.297 156.577h-1.978v-1.407h-.035c-.621 1.079-1.532 1.618-2.733 1.618-.885 0-1.579-.241-2.083-.721-.498-.481-.747-1.116-.747-1.907 0-1.7.978-2.69 2.935-2.971l2.672-.378c0-1.283-.609-1.925-1.828-1.925-1.072 0-2.039.369-2.9 1.108v-1.784c.949-.563 2.045-.844 3.287-.844 2.273 0 3.41 1.119 3.41 3.357v5.854Zm-1.969-4.421-1.89.263c-.585.077-1.028.22-1.327.431-.293.205-.439.568-.439 1.09 0 .381.135.694.404.94.276.241.642.361 1.099.361.621 0 1.134-.217 1.538-.651.41-.439.615-.99.615-1.652v-.782ZM131.976 156.577h-2.039v-1.53h-.036c-.656 1.161-1.667 1.741-3.032 1.741-1.107 0-1.995-.402-2.663-1.204-.662-.809-.993-1.908-.993-3.296 0-1.489.366-2.681 1.099-3.578.738-.896 1.719-1.344 2.944-1.344 1.213 0 2.095.486 2.645 1.459h.036v-5.573h2.039v13.325Zm-2.013-4.114v-1.177c0-.639-.208-1.181-.624-1.626-.416-.446-.946-.668-1.591-.668-.762 0-1.362.284-1.802.852-.433.569-.65 1.357-.65 2.365 0 .914.208 1.637.624 2.17.422.528.987.791 1.696.791.697 0 1.263-.254 1.696-.764.434-.516.651-1.163.651-1.943ZM142.259 152.63h-6.135c.023.832.278 1.474.765 1.925.492.451 1.166.677 2.021.677a4.45 4.45 0 0 0 2.646-.861v1.643c-.821.516-1.905.774-3.252.774-1.325 0-2.365-.408-3.12-1.222-.75-.82-1.125-1.972-1.125-3.454 0-1.401.413-2.54 1.239-3.419.832-.885 1.863-1.327 3.094-1.327 1.23 0 2.182.395 2.856 1.186.674.791 1.011 1.89 1.011 3.296v.782Zm-1.969-1.441c-.006-.732-.179-1.301-.519-1.705-.339-.41-.808-.615-1.406-.615-.586 0-1.084.214-1.494.641-.404.428-.653.988-.747 1.679h4.166ZM153.904 156.48c-.398.199-.923.299-1.573.299-1.746 0-2.619-.838-2.619-2.514v-5.089h-1.503v-1.599h1.503v-2.083l2.039-.58v2.663h2.153v1.599h-2.153v4.5c0 .534.097.914.29 1.143.193.228.516.343.967.343.346 0 .644-.1.896-.299v1.617ZM159.547 156.788c-1.389 0-2.499-.419-3.331-1.257-.826-.844-1.239-1.96-1.239-3.349 0-1.512.43-2.692 1.292-3.542.867-.849 2.033-1.274 3.498-1.274 1.406 0 2.502.413 3.287 1.239.785.826 1.177 1.972 1.177 3.437 0 1.435-.424 2.586-1.274 3.454-.844.861-1.98 1.292-3.41 1.292Zm.097-7.796c-.797 0-1.427.278-1.89.835-.463.556-.694 1.324-.694 2.302 0 .944.234 1.688.703 2.233.468.539 1.095.808 1.881.808.802 0 1.418-.266 1.845-.799.434-.534.651-1.292.651-2.277 0-.99-.217-1.755-.651-2.294-.427-.539-1.043-.808-1.845-.808ZM57.163 180.577h-2.285l-6.02-9.264a4.125 4.125 0 0 1-.378-.729h-.053c.047.269.07.846.07 1.731v8.262h-2.021v-12.604h2.434l5.819 9.044c.246.375.404.633.474.774h.035c-.058-.334-.088-.9-.088-1.697v-8.121h2.013v12.604ZM67.684 176.63h-6.135c.023.832.278 1.474.764 1.925.493.451 1.166.677 2.022.677a4.45 4.45 0 0 0 2.646-.861v1.643c-.82.516-1.905.774-3.252.774-1.325 0-2.365-.408-3.12-1.222-.75-.82-1.126-1.972-1.126-3.454 0-1.401.414-2.54 1.24-3.419.832-.885 1.863-1.327 3.093-1.327s2.183.395 2.857 1.186c.674.791 1.01 1.89 1.01 3.296v.782Zm-1.97-1.441c-.005-.732-.178-1.301-.518-1.705-.34-.41-.808-.615-1.406-.615-.586 0-1.084.214-1.494.641-.404.428-.653.988-.747 1.679h4.166ZM77.15 171.577l-2.998 4.552 2.962 4.448H74.75l-1.582-2.786c-.1-.17-.217-.387-.352-.651h-.035c-.023.053-.146.27-.369.651l-1.608 2.786h-2.356l3.059-4.412-2.9-4.588h2.373l1.555 2.926c.117.217.232.44.343.668h.026l2.013-3.594h2.232ZM83.39 180.48c-.399.199-.923.299-1.574.299-1.746 0-2.619-.838-2.619-2.514v-5.089h-1.503v-1.599h1.503v-2.083l2.04-.58v2.663h2.153v1.599h-2.154v4.5c0 .534.097.914.29 1.143.194.228.516.343.967.343.346 0 .645-.1.897-.299v1.617ZM92.662 176.63h-6.135c.024.832.279 1.474.765 1.925.492.451 1.166.677 2.022.677a4.45 4.45 0 0 0 2.645-.861v1.643c-.82.516-1.904.774-3.252.774-1.324 0-2.364-.408-3.12-1.222-.75-.82-1.125-1.972-1.125-3.454 0-1.401.413-2.54 1.24-3.419.831-.885 1.862-1.327 3.093-1.327 1.23 0 2.183.395 2.856 1.186.674.791 1.011 1.89 1.011 3.296v.782Zm-1.969-1.441c-.005-.732-.178-1.301-.518-1.705-.34-.41-.809-.615-1.406-.615-.586 0-1.084.214-1.495.641-.404.428-.653.988-.747 1.679h4.166ZM99.825 173.519c-.246-.193-.6-.29-1.063-.29-.604 0-1.108.272-1.512.817-.404.545-.606 1.287-.606 2.224v4.307h-2.04v-9h2.04v1.854h.035c.199-.633.504-1.125.914-1.476.416-.358.879-.537 1.388-.537.37 0 .65.056.844.167v1.934ZM106.452 180.577v-12.604h3.999c1.219 0 2.183.267 2.892.8.715.533 1.072 1.228 1.072 2.083 0 .715-.202 1.336-.606 1.863-.405.528-.964.903-1.679 1.125v.035c.867.1 1.558.422 2.074.967.522.539.782 1.242.782 2.11 0 1.078-.424 1.951-1.274 2.619-.85.668-1.922 1.002-3.217 1.002h-4.043Zm2.083-10.925v3.586h1.354c.726 0 1.295-.17 1.705-.51.416-.346.624-.832.624-1.459 0-1.078-.721-1.617-2.162-1.617h-1.521Zm0 5.265v3.99h1.784c.78 0 1.38-.179 1.802-.536.428-.364.642-.862.642-1.495 0-1.306-.906-1.959-2.716-1.959h-1.512ZM119.152 180.577h-2.048v-13.325h2.048v13.325ZM125.806 180.788c-1.389 0-2.499-.419-3.331-1.257-.827-.844-1.24-1.96-1.24-3.349 0-1.512.431-2.692 1.292-3.542.868-.849 2.034-1.274 3.498-1.274 1.407 0 2.502.413 3.287 1.239.786.826 1.178 1.972 1.178 3.437 0 1.435-.425 2.586-1.274 3.454-.844.861-1.981 1.292-3.41 1.292Zm.096-7.796c-.797 0-1.426.278-1.889.835-.463.556-.695 1.324-.695 2.302 0 .944.235 1.688.703 2.233.469.539 1.096.808 1.881.808.803 0 1.418-.266 1.846-.799.434-.534.65-1.292.65-2.277 0-.99-.216-1.755-.65-2.294-.428-.539-1.043-.808-1.846-.808ZM139.016 180.164c-.721.416-1.574.624-2.558.624-1.336 0-2.414-.416-3.234-1.248-.821-.838-1.231-1.922-1.231-3.252 0-1.483.44-2.672 1.319-3.569.884-.902 2.065-1.353 3.542-1.353.82 0 1.543.143 2.17.43v1.899c-.627-.469-1.295-.703-2.003-.703-.862 0-1.568.293-2.119.879-.55.58-.826 1.341-.826 2.285 0 .931.258 1.667.774 2.206.521.539 1.218.808 2.091.808.733 0 1.424-.26 2.075-.782v1.776ZM149.211 180.577h-2.584l-3.498-4.325h-.035v4.325h-2.048v-13.325h2.048v8.447h.035l3.305-4.122h2.452l-3.718 4.341 4.043 4.659ZM149.94 180.295v-1.889c.762.58 1.603.87 2.523.87 1.23 0 1.846-.363 1.846-1.09a.834.834 0 0 0-.159-.518 1.45 1.45 0 0 0-.43-.387 3.166 3.166 0 0 0-.633-.299l-.809-.299a8.876 8.876 0 0 1-1.002-.466 3.19 3.19 0 0 1-.738-.553 2.194 2.194 0 0 1-.439-.712 2.6 2.6 0 0 1-.15-.923c0-.434.103-.815.308-1.143.205-.334.48-.612.826-.835a3.819 3.819 0 0 1 1.178-.509 5.223 5.223 0 0 1 1.362-.176c.832 0 1.576.126 2.232.378v1.784c-.632-.434-1.359-.651-2.179-.651-.258 0-.492.027-.703.08a1.82 1.82 0 0 0-.528.219c-.146.094-.26.208-.342.343a.788.788 0 0 0-.124.431c0 .193.042.357.124.492.082.135.202.255.36.36.164.1.357.194.58.282.228.082.489.172.782.272.387.158.733.319 1.037.483.311.164.575.352.791.563.217.205.384.445.501.721.117.269.176.591.176.966 0 .457-.105.856-.316 1.196-.211.34-.493.621-.844.843a3.882 3.882 0 0 1-1.222.493c-.457.111-.94.167-1.45.167-.984 0-1.837-.164-2.558-.493ZM165.541 176.006v4.571h-2.083v-12.604h3.823c1.448 0 2.57.337 3.366 1.011.797.674 1.196 1.623 1.196 2.848 0 1.224-.416 2.226-1.248 3.005-.832.78-1.957 1.169-3.375 1.169h-1.679Zm0-6.31v4.605h1.354c.896 0 1.579-.208 2.047-.624.469-.416.704-1.002.704-1.758 0-1.482-.862-2.223-2.584-2.223h-1.521ZM183.726 180.577h-2.444l-2.012-3.375a6.279 6.279 0 0 0-.537-.791 2.894 2.894 0 0 0-.527-.545 1.736 1.736 0 0 0-.58-.308 2.447 2.447 0 0 0-.712-.097h-.844v5.116h-2.083v-12.604h4.149c.592 0 1.136.07 1.635.211a3.76 3.76 0 0 1 1.3.642c.369.281.657.635.862 1.063.211.422.316.917.316 1.486 0 .445-.067.855-.202 1.23-.129.369-.317.7-.563.993-.24.287-.533.533-.879.738a4.264 4.264 0 0 1-1.151.475v.035c.229.129.428.273.598.431.17.152.331.31.483.474.153.165.302.352.448.563.153.205.32.445.501.721l2.242 3.542Zm-7.656-10.908v4.096h1.741c.322 0 .618-.05.887-.149a1.946 1.946 0 0 0 1.178-1.116c.111-.27.167-.572.167-.906 0-.603-.19-1.075-.571-1.415-.381-.34-.929-.51-1.644-.51h-1.758ZM190.221 180.788c-1.817 0-3.273-.589-4.368-1.767-1.09-1.178-1.635-2.71-1.635-4.597 0-2.027.556-3.644 1.67-4.851 1.113-1.207 2.625-1.811 4.535-1.811 1.769 0 3.193.586 4.271 1.758 1.084 1.172 1.626 2.704 1.626 4.597 0 2.056-.553 3.682-1.661 4.878-1.107 1.195-2.587 1.793-4.438 1.793Zm.096-11.189c-1.154 0-2.094.431-2.821 1.292-.721.861-1.081 1.995-1.081 3.402 0 1.4.352 2.528 1.055 3.383.703.856 1.623 1.284 2.759 1.284 1.208 0 2.16-.408 2.857-1.222.697-.815 1.046-1.954 1.046-3.419 0-1.506-.34-2.669-1.02-3.489-.674-.821-1.605-1.231-2.795-1.231Z"/><path fill="#010101" fill-opacity=".6" d="M9.729 205.002c-.844.477-1.782.715-2.813.715-1.2 0-2.17-.386-2.912-1.16-.738-.773-1.108-1.797-1.108-3.07 0-1.301.41-2.367 1.231-3.199.824-.836 1.867-1.254 3.129-1.254.914 0 1.681.148 2.303.445v1.09c-.68-.43-1.485-.645-2.414-.645-.942 0-1.713.325-2.315.973-.601.648-.902 1.488-.902 2.52 0 1.062.279 1.898.838 2.507.558.606 1.316.909 2.273.909.656 0 1.225-.131 1.705-.393v-2.355h-1.84v-.891H9.73v3.808ZM14.065 205.717c-.887 0-1.596-.279-2.127-.838-.528-.562-.792-1.306-.792-2.232 0-1.008.276-1.795.827-2.361.55-.567 1.295-.85 2.232-.85.895 0 1.592.275 2.092.826.504.551.756 1.315.756 2.291 0 .957-.272 1.725-.815 2.303-.539.574-1.263.861-2.173.861Zm.07-5.472c-.617 0-1.106.211-1.465.632-.36.418-.54.997-.54 1.735 0 .711.182 1.271.546 1.681.363.411.85.616 1.459.616.62 0 1.097-.201 1.43-.604.335-.402.503-.974.503-1.717 0-.75-.168-1.328-.504-1.734-.332-.406-.808-.609-1.43-.609ZM22.842 205.577h-.961v-8.883h.96v8.883ZM25.28 198.053a.606.606 0 0 1-.44-.176.592.592 0 0 1-.182-.445c0-.18.06-.328.182-.445a.6.6 0 0 1 .44-.182c.175 0 .323.061.445.182a.583.583 0 0 1 .187.445.59.59 0 0 1-.187.44.605.605 0 0 1-.446.181Zm.468 7.524h-.96v-6h.96v6ZM36.213 205.577h-.961v-3.446c0-.664-.104-1.144-.31-1.441-.204-.297-.547-.445-1.032-.445-.41 0-.76.187-1.049.562-.285.375-.427.824-.427 1.348v3.422h-.961v-3.563c0-1.179-.455-1.769-1.366-1.769-.421 0-.77.177-1.043.533-.273.351-.41.81-.41 1.377v3.422h-.96v-6h.96v.949h.024c.425-.727 1.047-1.09 1.863-1.09.41 0 .768.115 1.072.346.305.226.514.525.627.896.445-.828 1.11-1.242 1.992-1.242 1.32 0 1.98.815 1.98 2.443v3.698ZM38.522 198.053a.606.606 0 0 1-.44-.176.592.592 0 0 1-.182-.445c0-.18.06-.328.182-.445a.6.6 0 0 1 .44-.182c.175 0 .324.061.445.182a.583.583 0 0 1 .187.445.59.59 0 0 1-.187.44.605.605 0 0 1-.445.181Zm.468 7.524h-.96v-6h.96v6ZM43.719 205.518c-.227.125-.526.188-.897.188-1.05 0-1.576-.586-1.576-1.758v-3.551h-1.031v-.82h1.031v-1.465l.961-.311v1.776h1.512v.82h-1.512v3.381c0 .402.068.689.205.861.137.172.363.258.68.258.242 0 .451-.066.627-.199v.82ZM45.963 205.577h-.961v-8.883h.96v8.883ZM52.73 202.817h-4.236c.016.668.196 1.184.54 1.547.343.363.816.545 1.417.545.676 0 1.297-.223 1.864-.668v.902c-.528.383-1.225.574-2.092.574-.848 0-1.514-.271-1.998-.814-.485-.547-.727-1.315-.727-2.303 0-.933.264-1.693.791-2.279.531-.59 1.19-.885 1.975-.885.785 0 1.392.254 1.822.762.43.508.645 1.213.645 2.115v.504Zm-.984-.815c-.004-.554-.139-.986-.404-1.294-.262-.309-.627-.463-1.096-.463-.453 0-.838.162-1.154.486-.317.324-.512.748-.586 1.271h3.24ZM53.826 205.36v-1.031c.524.386 1.1.58 1.729.58.843 0 1.265-.282 1.265-.844a.702.702 0 0 0-.111-.404 1.006 1.006 0 0 0-.293-.299 2.073 2.073 0 0 0-.434-.229c-.164-.07-.341-.142-.533-.216a7.7 7.7 0 0 1-.703-.317c-.2-.109-.367-.23-.504-.363a1.447 1.447 0 0 1-.304-.463 1.672 1.672 0 0 1-.1-.604c0-.281.064-.529.193-.744.13-.218.301-.4.516-.545.215-.148.459-.259.732-.334.278-.074.563-.111.856-.111.52 0 .984.09 1.394.27v.972c-.441-.289-.949-.433-1.523-.433-.18 0-.342.021-.486.064-.145.039-.27.096-.376.17a.826.826 0 0 0-.24.27.7.7 0 0 0-.082.339c0 .157.028.288.082.393a.903.903 0 0 0 .252.281c.11.082.242.156.399.223.156.066.334.139.533.217.265.101.504.207.715.316.21.106.39.227.539.363.148.133.261.287.34.463.082.176.123.385.123.627 0 .297-.067.555-.2.774-.128.218-.302.4-.521.545-.219.144-.47.252-.756.322-.285.07-.584.105-.896.105-.617 0-1.153-.119-1.606-.357ZM58.924 205.36v-1.031c.523.386 1.1.58 1.728.58.844 0 1.266-.282 1.266-.844a.701.701 0 0 0-.111-.404 1.005 1.005 0 0 0-.293-.299 2.076 2.076 0 0 0-.434-.229c-.164-.07-.342-.142-.533-.216a7.687 7.687 0 0 1-.703-.317c-.2-.109-.367-.23-.504-.363a1.446 1.446 0 0 1-.305-.463 1.671 1.671 0 0 1-.1-.604c0-.281.065-.529.194-.744.129-.218.3-.4.516-.545.214-.148.458-.259.732-.334.277-.074.563-.111.855-.111.52 0 .985.09 1.395.27v.972c-.442-.289-.95-.433-1.524-.433-.18 0-.341.021-.486.064-.144.039-.27.096-.375.17a.824.824 0 0 0-.24.27.7.7 0 0 0-.082.339c0 .157.027.288.082.393a.9.9 0 0 0 .252.281c.11.082.242.156.398.223.157.066.334.139.533.217.266.101.505.207.715.316.211.106.391.227.54.363.148.133.261.287.34.463.081.176.122.385.122.627 0 .297-.066.555-.199.774-.129.218-.303.4-.521.545-.22.144-.471.252-.756.322-.285.07-.584.105-.897.105-.617 0-1.152-.119-1.605-.357ZM70.186 205.717c-.887 0-1.596-.279-2.127-.838-.528-.562-.791-1.306-.791-2.232 0-1.008.275-1.795.826-2.361.55-.567 1.295-.85 2.232-.85.895 0 1.592.275 2.092.826.504.551.756 1.315.756 2.291 0 .957-.272 1.725-.815 2.303-.539.574-1.263.861-2.173.861Zm.07-5.472c-.617 0-1.106.211-1.465.632-.36.418-.539.997-.539 1.735 0 .711.182 1.271.545 1.681.363.411.85.616 1.459.616.621 0 1.097-.201 1.43-.604.335-.402.503-.974.503-1.717 0-.75-.167-1.328-.503-1.734-.333-.406-.809-.609-1.43-.609ZM79.69 205.577h-.962v-3.422c0-1.274-.464-1.91-1.394-1.91-.48 0-.879.181-1.195.545-.313.359-.47.814-.47 1.365v3.422h-.96v-6h.96v.996h.024c.454-.758 1.11-1.137 1.97-1.137.655 0 1.157.213 1.505.639.348.422.521 1.033.521 1.834v3.668ZM94.889 197.174l-2.373 8.403H91.36l-1.728-6.141a3.853 3.853 0 0 1-.135-.855h-.023c-.024.289-.075.57-.153.843l-1.74 6.153H86.44l-2.462-8.403h1.085l1.787 6.446c.074.269.12.55.14.843h.03c.02-.207.08-.488.181-.843l1.858-6.446h.943l1.781 6.493c.063.222.11.484.14.785h.024c.016-.203.069-.473.159-.809l1.716-6.469h1.067ZM98.522 205.717c-.887 0-1.596-.279-2.128-.838-.527-.562-.79-1.306-.79-2.232 0-1.008.275-1.795.826-2.361.55-.567 1.295-.85 2.232-.85.895 0 1.592.275 2.092.826.504.551.756 1.315.756 2.291 0 .957-.272 1.725-.815 2.303-.539.574-1.263.861-2.173.861Zm.07-5.472c-.617 0-1.106.211-1.465.632-.36.418-.54.997-.54 1.735 0 .711.182 1.271.546 1.681.363.411.85.616 1.459.616.62 0 1.097-.201 1.429-.604.336-.402.504-.974.504-1.717 0-.75-.168-1.328-.504-1.734-.332-.406-.808-.609-1.43-.609ZM106.174 200.549c-.168-.129-.41-.193-.727-.193-.41 0-.754.193-1.031.58-.273.387-.41.914-.41 1.582v3.059h-.961v-6h.961v1.236h.023c.137-.422.346-.75.627-.984.282-.239.596-.358.944-.358.25 0 .441.028.574.082v.996ZM112.338 205.577h-.961v-1.02h-.023c-.446.774-1.133 1.16-2.063 1.16-.754 0-1.357-.267-1.811-.802-.449-.539-.673-1.272-.673-2.198 0-.992.25-1.787.75-2.384.5-.598 1.166-.897 1.998-.897.824 0 1.424.324 1.799.973h.023v-3.715h.961v8.883Zm-.961-2.713v-.885c0-.484-.16-.894-.481-1.23-.32-.336-.726-.504-1.218-.504-.586 0-1.047.215-1.383.644-.336.43-.504 1.024-.504 1.781 0 .692.16 1.239.48 1.641.325.399.758.598 1.301.598.535 0 .969-.194 1.301-.58.336-.387.504-.875.504-1.465ZM115.396 202.401v3.176h-.984v-8.403h2.309c.898 0 1.593.219 2.086.657.496.437.744 1.054.744 1.851 0 .797-.276 1.449-.826 1.957-.547.508-1.287.762-2.221.762h-1.108Zm0-4.336v3.445h1.032c.679 0 1.197-.154 1.552-.463.36-.312.54-.752.54-1.318 0-1.109-.657-1.664-1.969-1.664h-1.155ZM124.139 200.549c-.168-.129-.41-.193-.727-.193-.41 0-.754.193-1.031.58-.274.387-.41.914-.41 1.582v3.059h-.961v-6h.961v1.236h.023c.137-.422.346-.75.627-.984a1.42 1.42 0 0 1 .943-.358c.25 0 .442.028.575.082v.996ZM130.004 202.817h-4.236c.015.668.195 1.184.539 1.547.343.363.816.545 1.418.545.675 0 1.296-.223 1.863-.668v.902c-.527.383-1.225.574-2.092.574-.848 0-1.514-.271-1.998-.814-.484-.547-.727-1.315-.727-2.303 0-.933.264-1.693.791-2.279.532-.59 1.19-.885 1.975-.885.785 0 1.393.254 1.822.762.43.508.645 1.213.645 2.115v.504Zm-.984-.815c-.004-.554-.139-.986-.405-1.294-.261-.309-.627-.463-1.095-.463-.454 0-.838.162-1.155.486-.316.324-.511.748-.586 1.271h3.241ZM131.1 205.36v-1.031c.523.386 1.099.58 1.728.58.844 0 1.266-.282 1.266-.844a.696.696 0 0 0-.112-.404 1.002 1.002 0 0 0-.293-.299 2.065 2.065 0 0 0-.433-.229c-.164-.07-.342-.142-.533-.216a7.636 7.636 0 0 1-.703-.317c-.2-.109-.368-.23-.504-.363a1.44 1.44 0 0 1-.305-.463 1.68 1.68 0 0 1-.1-.604c0-.281.065-.529.194-.744.129-.218.3-.4.515-.545.215-.148.459-.259.733-.334.277-.074.562-.111.855-.111.52 0 .985.09 1.395.27v.972c-.442-.289-.949-.433-1.524-.433-.179 0-.341.021-.486.064-.145.039-.27.096-.375.17a.813.813 0 0 0-.24.27.697.697 0 0 0-.082.339c0 .157.027.288.082.393a.887.887 0 0 0 .252.281c.109.082.242.156.398.223.156.066.334.139.533.217.266.101.504.207.715.316.211.106.391.227.539.363.149.133.262.287.34.463.082.176.123.385.123.627 0 .297-.066.555-.199.774-.129.218-.303.4-.522.545-.218.144-.47.252-.755.322-.286.07-.584.105-.897.105-.617 0-1.152-.119-1.605-.357ZM136.197 205.36v-1.031c.524.386 1.1.58 1.729.58.844 0 1.265-.282 1.265-.844a.704.704 0 0 0-.111-.404 1.002 1.002 0 0 0-.293-.299 2.09 2.09 0 0 0-.433-.229c-.165-.07-.342-.142-.534-.216a7.76 7.76 0 0 1-.703-.317 2.314 2.314 0 0 1-.504-.363 1.436 1.436 0 0 1-.304-.463 1.658 1.658 0 0 1-.1-.604c0-.281.064-.529.193-.744.129-.218.301-.4.516-.545a2.4 2.4 0 0 1 .732-.334c.278-.074.563-.111.856-.111.519 0 .984.09 1.394.27v.972c-.441-.289-.949-.433-1.523-.433-.18 0-.342.021-.486.064-.145.039-.27.096-.375.17a.828.828 0 0 0-.241.27.708.708 0 0 0-.082.339c0 .157.028.288.082.393a.912.912 0 0 0 .252.281c.11.082.243.156.399.223.156.066.334.139.533.217.266.101.504.207.715.316.211.106.39.227.539.363.148.133.262.287.34.463.082.176.123.385.123.627 0 .297-.067.555-.199.774-.129.218-.303.4-.522.545a2.411 2.411 0 0 1-.756.322c-.285.07-.584.105-.896.105-.617 0-1.153-.119-1.606-.357ZM152.51 199.577l-1.799 6h-.996l-1.236-4.295a2.748 2.748 0 0 1-.094-.557h-.024a2.538 2.538 0 0 1-.123.545l-1.342 4.307h-.96l-1.817-6h1.008l1.242 4.511c.039.137.067.317.082.539h.047c.012-.171.047-.355.106-.55l1.382-4.5h.879l1.242 4.523c.039.145.069.324.088.539h.047c.008-.152.041-.332.1-.539l1.219-4.523h.949ZM154.115 198.053a.604.604 0 0 1-.439-.176.592.592 0 0 1-.182-.445c0-.18.061-.328.182-.445a.598.598 0 0 1 .439-.182c.176 0 .324.061.446.182a.582.582 0 0 1 .187.445.59.59 0 0 1-.187.44.608.608 0 0 1-.446.181Zm.469 7.524h-.961v-6h.961v6ZM159.312 205.518c-.226.125-.525.188-.896.188-1.051 0-1.576-.586-1.576-1.758v-3.551h-1.031v-.82h1.031v-1.465l.961-.311v1.776h1.511v.82h-1.511v3.381c0 .402.068.689.205.861.137.172.363.258.68.258.242 0 .451-.066.626-.199v.82ZM165.576 205.577h-.961v-3.457c0-1.25-.465-1.875-1.394-1.875-.469 0-.864.181-1.184.545-.32.359-.48.822-.48 1.388v3.399h-.961v-8.883h.961v3.879h.023c.461-.758 1.117-1.137 1.969-1.137 1.351 0 2.027.815 2.027 2.443v3.698ZM173.469 205.518c-.227.125-.526.188-.897.188-1.051 0-1.576-.586-1.576-1.758v-3.551h-1.031v-.82h1.031v-1.465l.961-.311v1.776h1.512v.82h-1.512v3.381c0 .402.068.689.205.861.137.172.363.258.68.258.242 0 .451-.066.627-.199v.82ZM179.732 205.577h-.961v-3.457c0-1.25-.464-1.875-1.394-1.875-.469 0-.863.181-1.184.545-.32.359-.48.822-.48 1.388v3.399h-.961v-8.883h.961v3.879h.023c.461-.758 1.118-1.137 1.969-1.137 1.352 0 2.027.815 2.027 2.443v3.698ZM186.371 202.817h-4.236c.015.668.195 1.184.539 1.547.344.363.816.545 1.418.545.676 0 1.297-.223 1.863-.668v.902c-.527.383-1.225.574-2.092.574-.847 0-1.513-.271-1.998-.814-.484-.547-.726-1.315-.726-2.303 0-.933.263-1.693.791-2.279.531-.59 1.189-.885 1.974-.885.785 0 1.393.254 1.823.762.429.508.644 1.213.644 2.115v.504Zm-.984-.815c-.004-.554-.139-.986-.405-1.294-.261-.309-.627-.463-1.095-.463-.453 0-.838.162-1.155.486-.316.324-.511.748-.586 1.271h3.241ZM195.213 205.301c-.461.278-1.008.416-1.641.416-.855 0-1.547-.277-2.074-.832-.523-.558-.785-1.281-.785-2.168 0-.988.283-1.781.849-2.379.567-.601 1.323-.902 2.268-.902.527 0 .992.098 1.395.293v.984a2.448 2.448 0 0 0-1.43-.468c-.613 0-1.117.22-1.512.662-.39.437-.586 1.013-.586 1.728 0 .703.184 1.258.551 1.664.371.407.867.61 1.488.61.524 0 1.016-.174 1.477-.522v.914ZM199.174 205.717c-.887 0-1.596-.279-2.127-.838-.527-.562-.791-1.306-.791-2.232 0-1.008.275-1.795.826-2.361.551-.567 1.295-.85 2.232-.85.895 0 1.592.275 2.092.826.504.551.756 1.315.756 2.291 0 .957-.271 1.725-.814 2.303-.539.574-1.264.861-2.174.861Zm.07-5.472c-.617 0-1.105.211-1.465.632-.359.418-.539.997-.539 1.735 0 .711.182 1.271.545 1.681.363.411.85.616 1.459.616.621 0 1.098-.201 1.43-.604.336-.402.504-.974.504-1.717 0-.75-.168-1.328-.504-1.734-.332-.406-.809-.609-1.43-.609ZM212.217 205.577h-.961v-3.446c0-.664-.104-1.144-.311-1.441-.203-.297-.547-.445-1.031-.445-.41 0-.76.187-1.049.562-.285.375-.427.824-.427 1.348v3.422h-.961v-3.563c0-1.179-.456-1.769-1.366-1.769-.422 0-.769.177-1.043.533-.273.351-.41.81-.41 1.377v3.422h-.961v-6h.961v.949h.024c.425-.727 1.047-1.09 1.863-1.09.41 0 .767.115 1.072.346.305.226.514.525.627.896.445-.828 1.11-1.242 1.992-1.242 1.321 0 1.981.815 1.981 2.443v3.698ZM215.018 204.71h-.024v3.626h-.961v-8.759h.961v1.054h.024c.472-.796 1.164-1.195 2.074-1.195.773 0 1.377.27 1.81.809.434.535.651 1.254.651 2.156 0 1.004-.244 1.809-.733 2.414-.488.602-1.156.902-2.004.902-.777 0-1.377-.336-1.798-1.007Zm-.024-2.42v.837c0 .497.16.918.481 1.266.324.344.734.516 1.23.516.582 0 1.037-.223 1.365-.668.332-.446.498-1.065.498-1.858 0-.668-.154-1.191-.463-1.57-.308-.379-.726-.568-1.253-.568-.559 0-1.008.195-1.348.586-.34.386-.51.873-.51 1.459ZM222.049 205.577h-.961v-8.883h.961v8.883ZM228.816 202.817h-4.236c.016.668.195 1.184.539 1.547.344.363.817.545 1.418.545.676 0 1.297-.223 1.863-.668v.902c-.527.383-1.224.574-2.091.574-.848 0-1.514-.271-1.998-.814-.485-.547-.727-1.315-.727-2.303 0-.933.264-1.693.791-2.279.531-.59 1.189-.885 1.975-.885.785 0 1.392.254 1.822.762.43.508.644 1.213.644 2.115v.504Zm-.984-.815c-.004-.554-.139-.986-.404-1.294-.262-.309-.627-.463-1.096-.463-.453 0-.838.162-1.154.486-.317.324-.512.748-.586 1.271h3.24ZM233.059 205.518c-.227.125-.526.188-.897.188-1.051 0-1.576-.586-1.576-1.758v-3.551h-1.031v-.82h1.031v-1.465l.961-.311v1.776h1.512v.82h-1.512v3.381c0 .402.068.689.205.861.137.172.363.258.68.258.242 0 .451-.066.627-.199v.82ZM239.164 202.817h-4.236c.015.668.195 1.184.539 1.547.344.363.816.545 1.418.545.676 0 1.297-.223 1.863-.668v.902c-.527.383-1.225.574-2.092.574-.847 0-1.513-.271-1.998-.814-.484-.547-.726-1.315-.726-2.303 0-.933.263-1.693.791-2.279.531-.59 1.189-.885 1.974-.885.785 0 1.393.254 1.823.762.429.508.644 1.213.644 2.115v.504Zm-.984-.815c-.004-.554-.139-.986-.405-1.294-.261-.309-.627-.463-1.095-.463-.453 0-.838.162-1.155.486-.316.324-.511.748-.586 1.271h3.241ZM7.156 223.577H5.95l-4.324-6.698c-.11-.168-.2-.343-.27-.527H1.32c.032.18.047.565.047 1.154v6.071H.383v-8.403H1.66l4.207 6.592c.176.274.29.461.34.563h.023c-.039-.243-.058-.655-.058-1.237v-5.918h.984v8.403ZM14.053 220.817H9.816c.016.668.196 1.184.54 1.547.343.363.816.545 1.417.545.676 0 1.297-.223 1.864-.668v.902c-.528.383-1.225.574-2.092.574-.848 0-1.514-.271-1.998-.814-.485-.547-.727-1.315-.727-2.303 0-.933.264-1.693.791-2.279.532-.59 1.19-.885 1.975-.885.785 0 1.393.254 1.822.762.43.508.645 1.213.645 2.115v.504Zm-.985-.815c-.003-.554-.138-.986-.404-1.294-.262-.309-.627-.463-1.096-.463-.453 0-.838.162-1.154.486-.316.324-.512.748-.586 1.271h3.24ZM19.895 217.577l-2.016 3.035 1.98 2.965H18.74l-1.177-1.946a11.856 11.856 0 0 1-.264-.457h-.024c-.02.036-.11.188-.275.457l-1.201 1.946H14.69l2.045-2.942-1.957-3.058h1.12l1.16 2.05a14 14 0 0 1 .252.469h.023l1.5-2.519h1.06ZM23.803 223.518c-.227.125-.526.188-.897.188-1.05 0-1.576-.586-1.576-1.758v-3.551H20.3v-.82h1.031v-1.465l.961-.311v1.776h1.512v.82H22.29v3.381c0 .402.068.689.205.861.137.172.363.258.68.258.242 0 .451-.066.627-.199v.82ZM29.908 220.817h-4.236c.015.668.195 1.184.539 1.547.344.363.816.545 1.418.545.676 0 1.297-.223 1.863-.668v.902c-.527.383-1.224.574-2.092.574-.847 0-1.513-.271-1.998-.814-.484-.547-.726-1.315-.726-2.303 0-.933.264-1.693.79-2.279.532-.59 1.19-.885 1.975-.885.786 0 1.393.254 1.823.762.43.508.644 1.213.644 2.115v.504Zm-.984-.815c-.004-.554-.139-.986-.404-1.294-.262-.309-.627-.463-1.096-.463-.453 0-.838.162-1.154.486-.317.324-.512.748-.586 1.271h3.24ZM34.496 218.549c-.168-.129-.41-.193-.727-.193-.41 0-.753.193-1.03.58-.274.387-.41.914-.41 1.582v3.059h-.962v-6h.961v1.236h.024c.136-.422.345-.75.627-.984a1.42 1.42 0 0 1 .943-.358c.25 0 .441.028.574.082v.996ZM39.945 220.401v3.176h-.984v-8.403h2.309c.898 0 1.593.219 2.085.657.497.437.745 1.054.745 1.851 0 .797-.276 1.449-.827 1.957-.546.508-1.287.762-2.22.762h-1.108Zm0-4.336v3.445h1.032c.68 0 1.197-.154 1.552-.463.36-.312.54-.752.54-1.318 0-1.109-.657-1.664-1.97-1.664h-1.154ZM51.71 223.577h-1.17l-1.407-2.356a4.82 4.82 0 0 0-.375-.556 2.003 2.003 0 0 0-.375-.381 1.2 1.2 0 0 0-.41-.211 1.589 1.589 0 0 0-.492-.071h-.81v3.575h-.983v-8.403h2.507c.367 0 .705.047 1.014.141.313.09.582.228.809.416.23.187.41.422.539.703.128.277.193.604.193.979 0 .293-.045.562-.135.808-.086.242-.21.459-.375.651-.16.191-.355.355-.586.492a2.992 2.992 0 0 1-.767.31v.024c.14.062.261.135.363.217.105.078.205.171.299.281.094.109.185.234.275.375.094.137.198.297.31.48l1.577 2.526Zm-5.038-7.512v3.047h1.336c.246 0 .472-.037.68-.111.21-.075.392-.18.544-.317a1.48 1.48 0 0 0 .358-.51c.086-.203.129-.429.129-.679 0-.45-.147-.799-.44-1.049-.289-.254-.709-.381-1.26-.381h-1.347ZM56.258 223.717c-1.192 0-2.147-.392-2.865-1.177-.715-.786-1.073-1.807-1.073-3.065 0-1.351.365-2.43 1.096-3.234.73-.805 1.725-1.207 2.982-1.207 1.16 0 2.094.39 2.801 1.172.711.781 1.067 1.802 1.067 3.064 0 1.371-.364 2.455-1.09 3.252-.727.797-1.7 1.195-2.918 1.195Zm.07-7.793c-.883 0-1.6.319-2.15.955-.551.637-.826 1.473-.826 2.508s.267 1.869.802 2.502c.54.629 1.24.944 2.104.944.922 0 1.648-.301 2.18-.903.53-.601.796-1.443.796-2.525 0-1.11-.257-1.967-.773-2.572-.516-.606-1.227-.909-2.133-.909ZM66.066 222.71h-.023v.867h-.961v-8.883h.961v3.937h.023c.473-.796 1.165-1.195 2.075-1.195.77 0 1.37.27 1.804.809.438.535.657 1.254.657 2.156 0 1.004-.245 1.809-.733 2.414-.488.602-1.156.902-2.004.902-.793 0-1.392-.336-1.799-1.007Zm-.023-2.42v.837c0 .497.16.918.48 1.266.325.344.735.516 1.23.516.583 0 1.038-.223 1.366-.668.332-.446.498-1.065.498-1.858 0-.668-.154-1.191-.463-1.57-.308-.379-.726-.568-1.254-.568-.558 0-1.007.195-1.347.586-.34.386-.51.873-.51 1.459ZM73.098 223.577h-.961v-8.883h.96v8.883ZM77.55 223.717c-.886 0-1.595-.279-2.126-.838-.528-.562-.791-1.306-.791-2.232 0-1.008.275-1.795.826-2.361.55-.567 1.295-.85 2.232-.85.895 0 1.592.275 2.092.826.504.551.756 1.315.756 2.291 0 .957-.271 1.725-.814 2.303-.54.574-1.264.861-2.174.861Zm.071-5.472c-.617 0-1.105.211-1.465.632-.36.418-.539.997-.539 1.735 0 .711.182 1.271.545 1.681.363.411.85.616 1.46.616.62 0 1.097-.201 1.429-.604.336-.402.504-.974.504-1.717 0-.75-.168-1.328-.504-1.734-.332-.406-.809-.609-1.43-.609ZM86.164 223.301c-.46.278-1.008.416-1.64.416-.856 0-1.547-.277-2.075-.832-.523-.558-.785-1.281-.785-2.168 0-.988.283-1.781.85-2.379.566-.601 1.322-.902 2.267-.902.528 0 .992.098 1.395.293v.984a2.446 2.446 0 0 0-1.43-.468c-.613 0-1.117.22-1.512.662-.39.437-.586 1.013-.586 1.728 0 .703.184 1.258.551 1.664.371.407.867.61 1.489.61.523 0 1.015-.174 1.476-.522v.914ZM92.598 223.577H91.25l-2.648-2.883h-.024v2.883h-.96v-8.883h.96v5.631h.024l2.52-2.748h1.259l-2.783 2.894 3 3.106ZM93.219 223.36v-1.031c.523.386 1.1.58 1.728.58.844 0 1.266-.282 1.266-.844a.702.702 0 0 0-.111-.404 1.007 1.007 0 0 0-.293-.299 2.073 2.073 0 0 0-.434-.229c-.164-.07-.342-.142-.533-.216a7.7 7.7 0 0 1-.703-.317c-.2-.109-.367-.23-.504-.363a1.447 1.447 0 0 1-.305-.463 1.672 1.672 0 0 1-.1-.604c0-.281.065-.529.194-.744.129-.218.3-.4.515-.545.215-.148.46-.259.733-.334.277-.074.562-.111.855-.111.52 0 .985.09 1.395.27v.972c-.441-.289-.95-.433-1.524-.433-.18 0-.341.021-.486.064-.144.039-.27.096-.375.17a.825.825 0 0 0-.24.27.7.7 0 0 0-.082.339c0 .157.027.288.082.393a.903.903 0 0 0 .252.281c.11.082.242.156.398.223.156.066.334.139.534.217.265.101.503.207.714.316.211.106.39.227.54.363.148.133.261.287.34.463.081.176.122.385.122.627 0 .297-.066.555-.199.774-.129.218-.303.4-.521.545-.22.144-.471.252-.756.322-.285.07-.584.105-.897.105-.617 0-1.152-.119-1.605-.357ZM99.014 218.749a.632.632 0 0 1-.463-.194.641.641 0 0 1-.188-.463.641.641 0 0 1 .65-.644c.184 0 .34.062.47.187a.614.614 0 0 1 .193.457c0 .18-.065.334-.194.463a.638.638 0 0 1-.468.194Zm0 4.957a.632.632 0 0 1-.463-.194.641.641 0 0 1-.188-.463c0-.179.063-.334.188-.463a.625.625 0 0 1 .463-.199c.183 0 .34.067.468.199a.633.633 0 0 1 .194.463c0 .18-.065.334-.194.463a.638.638 0 0 1-.468.194ZM108.869 223.577h-.961v-.938h-.023c-.418.719-1.033 1.078-1.846 1.078-.598 0-1.066-.158-1.406-.474-.336-.317-.504-.737-.504-1.26 0-1.121.66-1.773 1.98-1.957l1.799-.252c0-1.02-.412-1.529-1.236-1.529-.723 0-1.375.246-1.957.738v-.984c.59-.375 1.269-.563 2.039-.563 1.41 0 2.115.746 2.115 2.238v3.903Zm-.961-3.035-1.447.199c-.445.062-.781.174-1.008.334-.226.156-.34.435-.34.838 0 .293.104.533.311.72.211.184.49.276.838.276.476 0 .869-.166 1.177-.498.313-.336.469-.76.469-1.272v-.597ZM115.801 223.577h-.961v-1.02h-.024c-.445.774-1.132 1.16-2.062 1.16-.754 0-1.358-.267-1.811-.802-.449-.539-.673-1.272-.673-2.198 0-.992.25-1.787.75-2.384.5-.598 1.166-.897 1.998-.897.824 0 1.423.324 1.798.973h.024v-3.715h.961v8.883Zm-.961-2.713v-.885c0-.484-.16-.894-.481-1.23-.32-.336-.726-.504-1.218-.504-.586 0-1.047.215-1.383.644-.336.43-.504 1.024-.504 1.781 0 .692.16 1.239.48 1.641.325.399.758.598 1.301.598.535 0 .969-.194 1.301-.58.336-.387.504-.875.504-1.465ZM122.463 217.577l-2.391 6h-.943l-2.274-6h1.055l1.524 4.359c.113.32.183.6.211.838h.023a4.01 4.01 0 0 1 .187-.814l1.594-4.383h1.014ZM127.795 223.577h-.961v-.938h-.023c-.418.719-1.034 1.078-1.846 1.078-.598 0-1.067-.158-1.406-.474-.336-.317-.504-.737-.504-1.26 0-1.121.66-1.773 1.98-1.957l1.799-.252c0-1.02-.412-1.529-1.236-1.529-.723 0-1.375.246-1.957.738v-.984c.589-.375 1.269-.563 2.039-.563 1.41 0 2.115.746 2.115 2.238v3.903Zm-.961-3.035-1.447.199c-.446.062-.782.174-1.008.334-.227.156-.34.435-.34.838 0 .293.104.533.311.72.211.184.49.276.838.276.476 0 .869-.166 1.177-.498.313-.336.469-.76.469-1.272v-.597ZM134.586 223.577h-.961v-3.422c0-1.274-.465-1.91-1.395-1.91-.48 0-.878.181-1.195.545-.312.359-.469.814-.469 1.365v3.422h-.961v-6h.961v.996h.024c.453-.758 1.109-1.137 1.969-1.137.656 0 1.158.213 1.505.639.348.422.522 1.033.522 1.834v3.668ZM140.492 223.301c-.461.278-1.008.416-1.64.416-.856 0-1.547-.277-2.075-.832-.523-.558-.785-1.281-.785-2.168 0-.988.283-1.781.85-2.379.566-.601 1.322-.902 2.267-.902.528 0 .993.098 1.395.293v.984a2.446 2.446 0 0 0-1.43-.468c-.613 0-1.117.22-1.512.662-.39.437-.585 1.013-.585 1.728 0 .703.183 1.258.55 1.664.371.407.868.61 1.489.61.523 0 1.015-.174 1.476-.522v.914ZM146.768 220.817h-4.237c.016.668.196 1.184.539 1.547.344.363.817.545 1.418.545.676 0 1.297-.223 1.864-.668v.902c-.528.383-1.225.574-2.092.574-.848 0-1.514-.271-1.998-.814-.485-.547-.727-1.315-.727-2.303 0-.933.264-1.693.791-2.279.531-.59 1.19-.885 1.975-.885.785 0 1.392.254 1.822.762.43.508.645 1.213.645 2.115v.504Zm-.985-.815c-.004-.554-.138-.986-.404-1.294-.262-.309-.627-.463-1.096-.463-.453 0-.838.162-1.154.486-.317.324-.512.748-.586 1.271h3.24ZM153.348 223.577h-.961v-1.02h-.024c-.445.774-1.133 1.16-2.062 1.16-.754 0-1.358-.267-1.811-.802-.449-.539-.674-1.272-.674-2.198 0-.992.25-1.787.75-2.384.5-.598 1.166-.897 1.998-.897.825 0 1.424.324 1.799.973h.024v-3.715h.961v8.883Zm-.961-2.713v-.885c0-.484-.16-.894-.481-1.23-.32-.336-.726-.504-1.218-.504-.586 0-1.047.215-1.383.644-.336.43-.504 1.024-.504 1.781 0 .692.16 1.239.48 1.641.324.399.758.598 1.301.598.535 0 .969-.194 1.301-.58.336-.387.504-.875.504-1.465ZM161.551 215.538a1.278 1.278 0 0 0-.639-.159c-.672 0-1.008.424-1.008 1.272v.926h1.407v.82h-1.407v5.18h-.955v-5.18h-1.025v-.82h1.025v-.973c0-.629.182-1.125.545-1.488.363-.367.817-.551 1.36-.551.292 0 .525.035.697.105v.868ZM167.17 220.817h-4.236c.015.668.195 1.184.539 1.547.343.363.816.545 1.418.545.675 0 1.297-.223 1.863-.668v.902c-.527.383-1.225.574-2.092.574-.848 0-1.514-.271-1.998-.814-.484-.547-.726-1.315-.726-2.303 0-.933.263-1.693.791-2.279.531-.59 1.189-.885 1.974-.885.785 0 1.393.254 1.822.762.43.508.645 1.213.645 2.115v.504Zm-.984-.815c-.004-.554-.139-.986-.405-1.294-.261-.309-.627-.463-1.095-.463-.454 0-.838.162-1.155.486-.316.324-.511.748-.586 1.271h3.241ZM172.924 223.577h-.961v-.938h-.024c-.418.719-1.033 1.078-1.845 1.078-.598 0-1.067-.158-1.406-.474-.336-.317-.504-.737-.504-1.26 0-1.121.66-1.773 1.98-1.957l1.799-.252c0-1.02-.412-1.529-1.236-1.529-.723 0-1.375.246-1.957.738v-.984c.589-.375 1.269-.563 2.039-.563 1.41 0 2.115.746 2.115 2.238v3.903Zm-.961-3.035-1.447.199c-.446.062-.782.174-1.008.334-.227.156-.34.435-.34.838 0 .293.103.533.311.72.21.184.49.276.837.276.477 0 .87-.166 1.178-.498.313-.336.469-.76.469-1.272v-.597ZM177.518 223.518c-.227.125-.526.188-.897.188-1.051 0-1.576-.586-1.576-1.758v-3.551h-1.031v-.82h1.031v-1.465l.961-.311v1.776h1.512v.82h-1.512v3.381c0 .402.068.689.205.861.137.172.363.258.68.258.242 0 .451-.066.627-.199v.82ZM183.652 223.577h-.961v-.95h-.023c-.398.727-1.016 1.09-1.852 1.09-1.429 0-2.144-.851-2.144-2.554v-3.586h.955v3.433c0 1.266.484 1.899 1.453 1.899.469 0 .854-.172 1.154-.516.305-.348.457-.801.457-1.359v-3.457h.961v6ZM188.727 218.549c-.168-.129-.411-.193-.727-.193-.41 0-.754.193-1.031.58-.274.387-.41.914-.41 1.582v3.059h-.961v-6h.961v1.236h.023c.137-.422.346-.75.627-.984a1.42 1.42 0 0 1 .943-.358c.25 0 .442.028.575.082v.996ZM194.592 220.817h-4.237c.016.668.196 1.184.54 1.547.343.363.816.545 1.417.545.676 0 1.297-.223 1.864-.668v.902c-.528.383-1.225.574-2.092.574-.848 0-1.514-.271-1.998-.814-.484-.547-.727-1.315-.727-2.303 0-.933.264-1.693.791-2.279.532-.59 1.19-.885 1.975-.885.785 0 1.393.254 1.822.762.43.508.645 1.213.645 2.115v.504Zm-.985-.815c-.003-.554-.138-.986-.404-1.294-.262-.309-.627-.463-1.096-.463-.453 0-.837.162-1.154.486-.316.324-.512.748-.586 1.271h3.24ZM195.688 223.36v-1.031c.523.386 1.099.58 1.728.58.844 0 1.266-.282 1.266-.844a.696.696 0 0 0-.112-.404 1.002 1.002 0 0 0-.293-.299 2.065 2.065 0 0 0-.433-.229c-.164-.07-.342-.142-.533-.216a7.787 7.787 0 0 1-.704-.317 2.283 2.283 0 0 1-.503-.363 1.44 1.44 0 0 1-.305-.463 1.658 1.658 0 0 1-.1-.604c0-.281.065-.529.194-.744.128-.218.3-.4.515-.545.215-.148.459-.259.733-.334.277-.074.562-.111.855-.111.52 0 .984.09 1.395.27v.972c-.442-.289-.95-.433-1.524-.433-.179 0-.342.021-.486.064-.145.039-.27.096-.375.17a.813.813 0 0 0-.24.27.697.697 0 0 0-.082.339c0 .157.027.288.082.393a.887.887 0 0 0 .252.281c.109.082.242.156.398.223.156.066.334.139.533.217.266.101.504.207.715.316.211.106.391.227.539.363.149.133.262.287.34.463.082.176.123.385.123.627 0 .297-.066.555-.199.774-.129.218-.303.4-.522.545-.218.144-.47.252-.756.322-.285.07-.584.105-.896.105-.617 0-1.152-.119-1.605-.357ZM202.027 222.241l-.937 2.883h-.686l.686-2.883h.937ZM211.895 223.577h-.961v-.95h-.024c-.398.727-1.015 1.09-1.851 1.09-1.43 0-2.145-.851-2.145-2.554v-3.586h.955v3.433c0 1.266.485 1.899 1.453 1.899.469 0 .854-.172 1.155-.516.304-.348.457-.801.457-1.359v-3.457h.961v6ZM218.82 223.577h-.961v-3.422c0-1.274-.464-1.91-1.394-1.91-.481 0-.879.181-1.195.545-.313.359-.469.814-.469 1.365v3.422h-.961v-6h.961v.996h.023c.453-.758 1.11-1.137 1.969-1.137.656 0 1.158.213 1.506.639.347.422.521 1.033.521 1.834v3.668ZM221.129 216.053a.608.608 0 0 1-.621-.621c0-.18.06-.328.181-.445a.602.602 0 0 1 .44-.182c.176 0 .324.061.445.182a.583.583 0 0 1 .188.445.59.59 0 0 1-.188.44.604.604 0 0 1-.445.181Zm.469 7.524h-.961v-6h.961v6ZM228.664 226.336h-.961v-3.791h-.023c-.418.782-1.102 1.172-2.051 1.172-.754 0-1.359-.267-1.817-.802-.453-.539-.679-1.272-.679-2.198 0-.996.25-1.791.75-2.384.5-.598 1.172-.897 2.015-.897.821 0 1.414.324 1.782.973h.023v-.832h.961v8.759Zm-.961-5.46v-.874c0-.492-.162-.908-.486-1.248-.321-.339-.729-.509-1.225-.509-.578 0-1.035.215-1.371.644-.336.426-.504 1.028-.504 1.805 0 .691.162 1.234.487 1.629.324.39.742.586 1.253.586.563 0 1.01-.192 1.342-.574.336-.387.504-.874.504-1.459ZM235.461 223.577h-.961v-.95h-.023c-.399.727-1.016 1.09-1.852 1.09-1.43 0-2.145-.851-2.145-2.554v-3.586h.956v3.433c0 1.266.484 1.899 1.453 1.899.468 0 .853-.172 1.154-.516.305-.348.457-.801.457-1.359v-3.457h.961v6ZM242.229 220.817h-4.237c.016.668.196 1.184.539 1.547.344.363.817.545 1.418.545.676 0 1.297-.223 1.863-.668v.902c-.527.383-1.224.574-2.091.574-.848 0-1.514-.271-1.998-.814-.485-.547-.727-1.315-.727-2.303 0-.933.264-1.693.791-2.279.531-.59 1.19-.885 1.975-.885.785 0 1.392.254 1.822.762.43.508.645 1.213.645 2.115v.504Zm-.985-.815c-.004-.554-.139-.986-.404-1.294-.262-.309-.627-.463-1.096-.463-.453 0-.838.162-1.154.486-.317.324-.512.748-.586 1.271h3.24ZM12.934 240.71h-.024v.867h-.96v-8.883h.96v3.937h.024c.472-.796 1.164-1.195 2.074-1.195.77 0 1.37.27 1.805.809.437.535.656 1.254.656 2.156 0 1.004-.244 1.809-.733 2.414-.488.602-1.156.902-2.004.902-.792 0-1.392-.336-1.798-1.007Zm-.024-2.42v.837c0 .497.16.918.48 1.266.325.344.735.516 1.231.516.582 0 1.037-.223 1.365-.668.332-.446.498-1.065.498-1.858 0-.668-.154-1.191-.463-1.57-.308-.379-.726-.568-1.253-.568-.559 0-1.008.195-1.348.586-.34.386-.51.873-.51 1.459ZM19.965 241.577h-.961v-8.883h.96v8.883ZM24.418 241.717c-.887 0-1.596-.279-2.127-.838-.527-.562-.791-1.306-.791-2.232 0-1.008.275-1.795.826-2.361.551-.567 1.295-.85 2.233-.85.894 0 1.591.275 2.091.826.504.551.756 1.315.756 2.291 0 .957-.271 1.725-.814 2.303-.54.574-1.264.861-2.174.861Zm.07-5.472c-.617 0-1.105.211-1.465.632-.359.418-.539.997-.539 1.735 0 .711.182 1.271.545 1.681.364.411.85.616 1.46.616.62 0 1.097-.201 1.429-.604.336-.402.504-.974.504-1.717 0-.75-.168-1.328-.504-1.734-.332-.406-.809-.609-1.43-.609ZM33.031 241.301c-.46.278-1.008.416-1.64.416-.856 0-1.547-.277-2.075-.832-.523-.558-.785-1.281-.785-2.168 0-.988.284-1.781.85-2.379.566-.601 1.322-.902 2.267-.902.528 0 .993.098 1.395.293v.984a2.446 2.446 0 0 0-1.43-.468c-.613 0-1.117.22-1.511.662-.391.437-.586 1.013-.586 1.728 0 .703.183 1.258.55 1.664.372.407.868.61 1.489.61.523 0 1.015-.174 1.476-.522v.914ZM39.465 241.577h-1.348l-2.648-2.883h-.024v2.883h-.96v-8.883h.96v5.631h.024l2.52-2.748h1.259l-2.783 2.894 3 3.106ZM40.086 241.36v-1.031c.523.386 1.1.58 1.729.58.843 0 1.265-.282 1.265-.844a.702.702 0 0 0-.111-.404 1.007 1.007 0 0 0-.293-.299 2.073 2.073 0 0 0-.434-.229c-.164-.07-.342-.142-.533-.216a7.7 7.7 0 0 1-.703-.317 2.3 2.3 0 0 1-.504-.363 1.445 1.445 0 0 1-.305-.463 1.672 1.672 0 0 1-.1-.604c0-.281.065-.529.194-.744.129-.218.3-.4.516-.545.215-.148.459-.259.732-.334.277-.074.563-.111.855-.111.52 0 .985.09 1.395.27v.972c-.441-.289-.95-.433-1.523-.433-.18 0-.342.021-.487.064-.144.039-.27.096-.375.17a.825.825 0 0 0-.24.27.7.7 0 0 0-.082.339c0 .157.027.288.082.393a.902.902 0 0 0 .252.281c.11.082.242.156.399.223.156.066.333.139.533.217.265.101.504.207.715.316.21.106.39.227.539.363.148.133.261.287.34.463.081.176.123.385.123.627 0 .297-.067.555-.2.774-.129.218-.303.4-.521.545-.219.144-.471.252-.756.322-.285.07-.584.105-.897.105-.617 0-1.152-.119-1.605-.357ZM56.398 235.577l-1.798 6h-.997l-1.236-4.295a2.806 2.806 0 0 1-.094-.557h-.023a2.627 2.627 0 0 1-.123.545l-1.342 4.307h-.96l-1.817-6h1.008l1.242 4.511c.039.137.066.317.082.539h.047a2.52 2.52 0 0 1 .105-.55l1.383-4.5h.879l1.242 4.523c.04.145.069.324.088.539h.047c.008-.152.04-.332.1-.539l1.218-4.523h.95ZM58.004 234.053a.605.605 0 0 1-.44-.176.592.592 0 0 1-.181-.445c0-.18.06-.328.181-.445a.599.599 0 0 1 .44-.182c.176 0 .324.061.445.182a.583.583 0 0 1 .188.445.59.59 0 0 1-.188.44.605.605 0 0 1-.445.181Zm.469 7.524h-.961v-6h.96v6ZM63.201 241.518c-.226.125-.525.188-.896.188-1.051 0-1.577-.586-1.577-1.758v-3.551h-1.03v-.82h1.03v-1.465l.962-.311v1.776H63.2v.82H61.69v3.381c0 .402.068.689.205.861.136.172.363.258.68.258.241 0 .45-.066.626-.199v.82ZM69.465 241.577h-.961v-3.457c0-1.25-.465-1.875-1.395-1.875-.468 0-.863.181-1.183.545-.32.359-.48.822-.48 1.388v3.399h-.962v-8.883h.961v3.879h.024c.46-.758 1.117-1.137 1.969-1.137 1.351 0 2.027.815 2.027 2.443v3.698ZM79.555 241.577h-.961v-3.457c0-1.25-.465-1.875-1.395-1.875-.468 0-.863.181-1.183.545-.32.359-.48.822-.48 1.388v3.399h-.962v-8.883h.961v3.879h.024c.46-.758 1.117-1.137 1.968-1.137 1.352 0 2.028.815 2.028 2.443v3.698ZM81.863 234.053a.606.606 0 0 1-.44-.176.592.592 0 0 1-.18-.445c0-.18.06-.328.18-.445a.6.6 0 0 1 .44-.182c.176 0 .325.061.446.182a.583.583 0 0 1 .187.445.59.59 0 0 1-.187.44.605.605 0 0 1-.446.181Zm.469 7.524h-.96v-6h.96v6ZM89.398 241.096c0 2.203-1.054 3.305-3.164 3.305-.742 0-1.39-.141-1.945-.422v-.961c.676.375 1.32.563 1.934.563 1.476 0 2.215-.786 2.215-2.356v-.656h-.024c-.457.766-1.145 1.148-2.062 1.148-.746 0-1.348-.265-1.805-.797-.453-.535-.68-1.252-.68-2.15 0-1.019.244-1.83.733-2.432.492-.601 1.164-.902 2.015-.902.809 0 1.408.324 1.8.973h.022v-.832h.961v5.519Zm-.96-2.232v-.885c0-.477-.163-.885-.487-1.225a1.584 1.584 0 0 0-1.201-.509c-.594 0-1.059.216-1.394.65-.337.43-.504 1.033-.504 1.811 0 .668.16 1.203.48 1.605.324.399.752.598 1.283.598.54 0 .977-.192 1.313-.574.34-.383.51-.874.51-1.471ZM96.324 241.577h-.96v-3.457c0-1.25-.466-1.875-1.395-1.875-.469 0-.863.181-1.184.545-.32.359-.48.822-.48 1.388v3.399h-.961v-8.883h.96v3.879h.024c.461-.758 1.117-1.137 1.969-1.137 1.351 0 2.027.815 2.027 2.443v3.698ZM105.523 241.301c-.461.278-1.007.416-1.64.416-.856 0-1.547-.277-2.074-.832-.524-.558-.786-1.281-.786-2.168 0-.988.284-1.781.85-2.379.566-.601 1.322-.902 2.268-.902.527 0 .992.098 1.394.293v.984a2.446 2.446 0 0 0-1.43-.468c-.613 0-1.117.22-1.511.662-.391.437-.586 1.013-.586 1.728 0 .703.183 1.258.551 1.664.371.407.867.61 1.488.61.523 0 1.015-.174 1.476-.522v.914ZM111.828 241.577h-.961v-.95h-.023c-.399.727-1.016 1.09-1.852 1.09-1.43 0-2.144-.851-2.144-2.554v-3.586h.955v3.433c0 1.266.484 1.899 1.453 1.899.469 0 .853-.172 1.154-.516.305-.348.457-.801.457-1.359v-3.457h.961v6ZM113.41 241.36v-1.031c.524.386 1.1.58 1.729.58.843 0 1.265-.282 1.265-.844a.704.704 0 0 0-.111-.404 1.002 1.002 0 0 0-.293-.299 2.074 2.074 0 0 0-.434-.229c-.164-.07-.341-.142-.533-.216a7.76 7.76 0 0 1-.703-.317 2.314 2.314 0 0 1-.504-.363 1.456 1.456 0 0 1-.305-.463 1.68 1.68 0 0 1-.099-.604c0-.281.064-.529.193-.744.129-.218.301-.4.516-.545a2.4 2.4 0 0 1 .732-.334c.278-.074.563-.111.856-.111.519 0 .984.09 1.394.27v.972c-.441-.289-.949-.433-1.523-.433-.18 0-.342.021-.486.064-.145.039-.27.096-.375.17a.828.828 0 0 0-.241.27.708.708 0 0 0-.082.339c0 .157.028.288.082.393a.912.912 0 0 0 .252.281c.11.082.242.156.399.223.156.066.334.139.533.217.266.101.504.207.715.316.211.106.39.227.539.363.148.133.262.287.34.463.082.176.123.385.123.627 0 .297-.067.555-.2.774-.128.218-.302.4-.521.545a2.411 2.411 0 0 1-.756.322c-.285.07-.584.105-.896.105-.618 0-1.153-.119-1.606-.357ZM121.654 241.518c-.226.125-.525.188-.896.188-1.051 0-1.576-.586-1.576-1.758v-3.551h-1.032v-.82h1.032v-1.465l.961-.311v1.776h1.511v.82h-1.511v3.381c0 .402.068.689.205.861.136.172.363.258.679.258.243 0 .452-.066.627-.199v.82ZM125.445 241.717c-.886 0-1.595-.279-2.127-.838-.527-.562-.791-1.306-.791-2.232 0-1.008.276-1.795.827-2.361.55-.567 1.294-.85 2.232-.85.894 0 1.592.275 2.092.826.504.551.756 1.315.756 2.291 0 .957-.272 1.725-.815 2.303-.539.574-1.264.861-2.174.861Zm.071-5.472c-.618 0-1.106.211-1.465.632-.36.418-.539.997-.539 1.735 0 .711.181 1.271.545 1.681.363.411.849.616 1.459.616.621 0 1.097-.201 1.429-.604.336-.402.504-.974.504-1.717 0-.75-.168-1.328-.504-1.734-.332-.406-.808-.609-1.429-.609ZM138.488 241.577h-.961v-3.446c0-.664-.103-1.144-.31-1.441-.203-.297-.547-.445-1.031-.445-.411 0-.76.187-1.049.562-.285.375-.428.824-.428 1.348v3.422h-.961v-3.563c0-1.179-.455-1.769-1.365-1.769-.422 0-.77.177-1.043.533-.274.351-.41.81-.41 1.377v3.422h-.961v-6h.961v.949h.023c.426-.727 1.047-1.09 1.863-1.09.411 0 .768.115 1.073.346.304.226.513.525.627.896.445-.828 1.109-1.242 1.992-1.242 1.32 0 1.98.815 1.98 2.443v3.698ZM140.797 234.053a.608.608 0 0 1-.621-.621c0-.18.06-.328.181-.445a.602.602 0 0 1 .44-.182c.176 0 .324.061.445.182a.583.583 0 0 1 .188.445.59.59 0 0 1-.188.44.604.604 0 0 1-.445.181Zm.469 7.524h-.961v-6h.961v6ZM147.395 235.852l-3.551 4.904h3.515v.821h-4.927v-.299l3.55-4.881h-3.216v-.82h4.629v.275ZM152.932 241.577h-.961v-.938h-.024c-.418.719-1.033 1.078-1.845 1.078-.598 0-1.067-.158-1.407-.474-.336-.317-.504-.737-.504-1.26 0-1.121.661-1.773 1.981-1.957l1.799-.252c0-1.02-.412-1.529-1.237-1.529-.722 0-1.375.246-1.957.738v-.984c.59-.375 1.27-.563 2.039-.563 1.411 0 2.116.746 2.116 2.238v3.903Zm-.961-3.035-1.448.199c-.445.062-.781.174-1.007.334-.227.156-.34.435-.34.838 0 .293.103.533.31.72.211.184.491.276.838.276.477 0 .869-.166 1.178-.498.312-.336.469-.76.469-1.272v-.597ZM157.525 241.518c-.226.125-.525.188-.896.188-1.051 0-1.576-.586-1.576-1.758v-3.551h-1.032v-.82h1.032v-1.465l.961-.311v1.776h1.511v.82h-1.511v3.381c0 .402.068.689.205.861.136.172.363.258.679.258.243 0 .452-.066.627-.199v.82ZM159.301 234.053a.607.607 0 0 1-.621-.621c0-.18.06-.328.181-.445a.6.6 0 0 1 .44-.182c.176 0 .324.061.445.182a.583.583 0 0 1 .188.445.59.59 0 0 1-.188.44.604.604 0 0 1-.445.181Zm.469 7.524h-.961v-6h.961v6ZM164.223 241.717c-.887 0-1.596-.279-2.127-.838-.528-.562-.791-1.306-.791-2.232 0-1.008.275-1.795.826-2.361.551-.567 1.295-.85 2.232-.85.895 0 1.592.275 2.092.826.504.551.756 1.315.756 2.291 0 .957-.272 1.725-.815 2.303-.539.574-1.263.861-2.173.861Zm.07-5.472c-.617 0-1.105.211-1.465.632-.359.418-.539.997-.539 1.735 0 .711.182 1.271.545 1.681.363.411.85.616 1.459.616.621 0 1.098-.201 1.43-.604.336-.402.504-.974.504-1.717 0-.75-.168-1.328-.504-1.734-.332-.406-.809-.609-1.43-.609ZM173.727 241.577h-.961v-3.422c0-1.274-.465-1.91-1.395-1.91-.48 0-.879.181-1.195.545-.313.359-.469.814-.469 1.365v3.422h-.961v-6h.961v.996h.023c.454-.758 1.11-1.137 1.969-1.137.656 0 1.158.213 1.506.639.348.422.522 1.033.522 1.834v3.668ZM176.422 240.241l-.938 2.883h-.685l.685-2.883h.938ZM185.732 241.577h-.961v-.938h-.023c-.418.719-1.033 1.078-1.846 1.078-.597 0-1.066-.158-1.406-.474-.336-.317-.504-.737-.504-1.26 0-1.121.66-1.773 1.981-1.957l1.798-.252c0-1.02-.412-1.529-1.236-1.529-.723 0-1.375.246-1.957.738v-.984c.59-.375 1.27-.563 2.039-.563 1.41 0 2.115.746 2.115 2.238v3.903Zm-.961-3.035-1.447.199c-.445.062-.781.174-1.008.334-.226.156-.339.435-.339.838 0 .293.103.533.31.72.211.184.49.276.838.276.477 0 .869-.166 1.178-.498.312-.336.468-.76.468-1.272v-.597ZM192.523 241.577h-.961v-3.422c0-1.274-.464-1.91-1.394-1.91-.48 0-.879.181-1.195.545-.313.359-.469.814-.469 1.365v3.422h-.961v-6h.961v.996h.023c.453-.758 1.11-1.137 1.969-1.137.656 0 1.158.213 1.506.639.348.422.521 1.033.521 1.834v3.668ZM199.461 241.577h-.961v-1.02h-.023c-.446.774-1.133 1.16-2.063 1.16-.754 0-1.357-.267-1.81-.802-.45-.539-.674-1.272-.674-2.198 0-.992.25-1.787.75-2.384.5-.598 1.166-.897 1.998-.897.824 0 1.424.324 1.799.973h.023v-3.715h.961v8.883Zm-.961-2.713v-.885c0-.484-.16-.894-.48-1.23-.321-.336-.727-.504-1.219-.504-.586 0-1.047.215-1.383.644-.336.43-.504 1.024-.504 1.781 0 .692.16 1.239.481 1.641.324.399.757.598 1.3.598.535 0 .969-.194 1.301-.58.336-.387.504-.875.504-1.465ZM209.521 238.817h-4.236c.016.668.195 1.184.539 1.547.344.363.817.545 1.418.545.676 0 1.297-.223 1.863-.668v.902c-.527.383-1.224.574-2.091.574-.848 0-1.514-.271-1.998-.814-.485-.547-.727-1.315-.727-2.303 0-.933.264-1.693.791-2.279.531-.59 1.19-.885 1.975-.885.785 0 1.392.254 1.822.762.43.508.644 1.213.644 2.115v.504Zm-.984-.815c-.004-.554-.139-.986-.404-1.294-.262-.309-.627-.463-1.096-.463-.453 0-.838.162-1.154.486-.317.324-.512.748-.586 1.271h3.24ZM215.697 235.577l-2.39 6h-.944l-2.273-6h1.055l1.523 4.359c.113.32.184.6.211.838h.023c.039-.301.102-.572.188-.814l1.594-4.383h1.013ZM221.557 238.817h-4.237c.016.668.196 1.184.539 1.547.344.363.817.545 1.418.545.676 0 1.297-.223 1.864-.668v.902c-.528.383-1.225.574-2.092.574-.848 0-1.514-.271-1.998-.814-.485-.547-.727-1.315-.727-2.303 0-.933.264-1.693.791-2.279.531-.59 1.19-.885 1.975-.885.785 0 1.392.254 1.822.762.43.508.645 1.213.645 2.115v.504Zm-.985-.815c-.004-.554-.138-.986-.404-1.294-.262-.309-.627-.463-1.096-.463-.453 0-.838.162-1.154.486-.316.324-.512.748-.586 1.271h3.24ZM226.145 236.549c-.168-.129-.411-.193-.727-.193-.41 0-.754.193-1.031.58-.274.387-.41.914-.41 1.582v3.059h-.961v-6h.961v1.236H224c.137-.422.346-.75.627-.984a1.42 1.42 0 0 1 .943-.358c.25 0 .442.028.575.082v.996ZM230.258 238.612h-3.199v-.756h3.199v.756ZM54.365 259.096c0 2.203-1.055 3.305-3.164 3.305-.742 0-1.39-.141-1.945-.422v-.961c.676.375 1.32.563 1.934.563 1.476 0 2.214-.786 2.214-2.356v-.656h-.023c-.457.766-1.145 1.148-2.063 1.148-.746 0-1.347-.265-1.804-.797-.454-.535-.68-1.252-.68-2.15 0-1.019.244-1.83.732-2.432.493-.601 1.164-.902 2.016-.902.809 0 1.408.324 1.799.973h.023v-.832h.961v5.519Zm-.96-2.232v-.885c0-.477-.163-.885-.487-1.225a1.584 1.584 0 0 0-1.201-.509c-.594 0-1.059.216-1.395.65-.336.43-.504 1.033-.504 1.811 0 .668.16 1.203.48 1.605.325.399.753.598 1.284.598.54 0 .977-.192 1.313-.574.34-.383.51-.874.51-1.471ZM59.44 254.549c-.168-.129-.41-.193-.727-.193-.41 0-.754.193-1.031.58-.274.387-.41.914-.41 1.582v3.059h-.962v-6h.962v1.236h.023c.137-.422.346-.75.627-.984a1.42 1.42 0 0 1 .943-.358c.25 0 .442.028.575.082v.996ZM62.99 259.717c-.887 0-1.596-.279-2.127-.838-.527-.562-.79-1.306-.79-2.232 0-1.008.275-1.795.825-2.361.551-.567 1.295-.85 2.233-.85.894 0 1.592.275 2.092.826.504.551.755 1.315.755 2.291 0 .957-.271 1.725-.814 2.303-.539.574-1.264.861-2.174.861Zm.07-5.472c-.617 0-1.105.211-1.464.632-.36.418-.54.997-.54 1.735 0 .711.182 1.271.546 1.681.363.411.85.616 1.459.616.62 0 1.097-.201 1.43-.604.335-.402.503-.974.503-1.717 0-.75-.168-1.328-.504-1.734-.332-.406-.808-.609-1.43-.609ZM75.072 253.577l-1.799 6h-.996l-1.236-4.295a2.799 2.799 0 0 1-.094-.557h-.023a2.627 2.627 0 0 1-.123.545l-1.342 4.307h-.961l-1.816-6h1.007l1.243 4.511c.039.137.066.317.082.539h.047c.011-.171.046-.355.105-.55l1.383-4.5h.879l1.242 4.523c.039.145.068.324.088.539h.047c.007-.152.04-.332.1-.539l1.218-4.523h.95ZM76.678 252.053a.606.606 0 0 1-.44-.176.592.592 0 0 1-.181-.445c0-.18.06-.328.181-.445a.6.6 0 0 1 .44-.182c.175 0 .324.061.445.182a.583.583 0 0 1 .188.445.59.59 0 0 1-.188.44.605.605 0 0 1-.445.181Zm.469 7.524h-.962v-6h.962v6ZM84.072 259.577h-.96v-3.422c0-1.274-.465-1.91-1.395-1.91-.48 0-.88.181-1.195.545-.313.359-.47.814-.47 1.365v3.422h-.96v-6h.96v.996h.024c.453-.758 1.11-1.137 1.969-1.137.656 0 1.158.213 1.506.639.347.422.521 1.033.521 1.834v3.668ZM91.01 259.096c0 2.203-1.055 3.305-3.164 3.305-.743 0-1.39-.141-1.946-.422v-.961c.676.375 1.32.563 1.934.563 1.477 0 2.215-.786 2.215-2.356v-.656h-.024c-.457.766-1.144 1.148-2.062 1.148-.746 0-1.348-.265-1.805-.797-.453-.535-.68-1.252-.68-2.15 0-1.019.245-1.83.733-2.432.492-.601 1.164-.902 2.016-.902.808 0 1.408.324 1.798.973h.024v-.832h.96v5.519Zm-.961-2.232v-.885c0-.477-.162-.885-.487-1.225a1.584 1.584 0 0 0-1.2-.509c-.594 0-1.06.216-1.395.65-.336.43-.504 1.033-.504 1.811 0 .668.16 1.203.48 1.605.325.399.752.598 1.284.598.539 0 .976-.192 1.312-.574.34-.383.51-.874.51-1.471ZM103.807 253.577l-1.799 6h-.996l-1.237-4.295a2.806 2.806 0 0 1-.093-.557h-.024a2.627 2.627 0 0 1-.123.545l-1.342 4.307h-.96l-1.817-6h1.008l1.242 4.511c.04.137.066.317.082.539h.047a2.52 2.52 0 0 1 .105-.55l1.383-4.5h.879l1.242 4.523c.039.145.069.324.088.539h.047c.008-.152.041-.332.1-.539l1.218-4.523h.95ZM109.742 256.817h-4.236c.015.668.195 1.184.539 1.547.344.363.816.545 1.418.545.676 0 1.297-.223 1.863-.668v.902c-.527.383-1.224.574-2.092.574-.847 0-1.513-.271-1.998-.814-.484-.547-.726-1.315-.726-2.303 0-.933.263-1.693.791-2.279.531-.59 1.189-.885 1.974-.885.786 0 1.393.254 1.823.762.429.508.644 1.213.644 2.115v.504Zm-.984-.815c-.004-.554-.139-.986-.404-1.294-.262-.309-.627-.463-1.096-.463-.453 0-.838.162-1.154.486-.317.324-.512.748-.586 1.271h3.24ZM112.186 258.71h-.024v.867h-.961v-8.883h.961v3.937h.024c.472-.796 1.164-1.195 2.074-1.195.769 0 1.371.27 1.804.809.438.535.657 1.254.657 2.156 0 1.004-.244 1.809-.733 2.414-.488.602-1.156.902-2.004.902-.793 0-1.392-.336-1.798-1.007Zm-.024-2.42v.837c0 .497.16.918.481 1.266.324.344.734.516 1.23.516.582 0 1.037-.223 1.365-.668.332-.446.498-1.065.498-1.858 0-.668-.154-1.191-.463-1.57-.308-.379-.726-.568-1.253-.568-.559 0-1.008.195-1.348.586-.34.386-.51.873-.51 1.459ZM117.893 259.36v-1.031c.523.386 1.099.58 1.728.58.844 0 1.266-.282 1.266-.844a.696.696 0 0 0-.112-.404 1.002 1.002 0 0 0-.293-.299 2.065 2.065 0 0 0-.433-.229c-.164-.07-.342-.142-.533-.216a7.787 7.787 0 0 1-.704-.317 2.283 2.283 0 0 1-.503-.363 1.44 1.44 0 0 1-.305-.463 1.68 1.68 0 0 1-.1-.604c0-.281.065-.529.194-.744.129-.218.3-.4.515-.545.215-.148.459-.259.733-.334.277-.074.562-.111.855-.111.52 0 .985.09 1.395.27v.972c-.442-.289-.95-.433-1.524-.433-.179 0-.342.021-.486.064-.145.039-.27.096-.375.17a.813.813 0 0 0-.24.27.697.697 0 0 0-.082.339c0 .157.027.288.082.393a.887.887 0 0 0 .252.281c.109.082.242.156.398.223.156.066.334.139.533.217.266.101.504.207.715.316.211.106.391.227.539.363.149.133.262.287.34.463.082.176.123.385.123.627 0 .297-.066.555-.199.774-.129.218-.303.4-.522.545-.218.144-.47.252-.755.322-.286.07-.584.105-.897.105-.617 0-1.152-.119-1.605-.357ZM123.846 252.053a.607.607 0 0 1-.621-.621c0-.18.06-.328.181-.445a.6.6 0 0 1 .44-.182c.175 0 .324.061.445.182a.583.583 0 0 1 .188.445.59.59 0 0 1-.188.44.606.606 0 0 1-.445.181Zm.468 7.524h-.96v-6h.96v6ZM129.043 259.518c-.227.125-.525.188-.897.188-1.05 0-1.576-.586-1.576-1.758v-3.551h-1.031v-.82h1.031v-1.465l.961-.311v1.776h1.512v.82h-1.512v3.381c0 .402.069.689.205.861.137.172.364.258.68.258.242 0 .451-.066.627-.199v.82ZM135.148 256.817h-4.236c.016.668.195 1.184.539 1.547.344.363.817.545 1.418.545.676 0 1.297-.223 1.863-.668v.902c-.527.383-1.224.574-2.091.574-.848 0-1.514-.271-1.998-.814-.485-.547-.727-1.315-.727-2.303 0-.933.264-1.693.791-2.279.531-.59 1.189-.885 1.975-.885.785 0 1.392.254 1.822.762.43.508.644 1.213.644 2.115v.504Zm-.984-.815c-.004-.554-.139-.986-.404-1.294-.262-.309-.627-.463-1.096-.463-.453 0-.838.162-1.154.486-.317.324-.512.748-.586 1.271h3.24ZM142.684 259.518c-.227.125-.526.188-.897.188-1.051 0-1.576-.586-1.576-1.758v-3.551h-1.031v-.82h1.031v-1.465l.961-.311v1.776h1.512v.82h-1.512v3.381c0 .402.068.689.205.861.137.172.363.258.68.258.242 0 .451-.066.627-.199v.82ZM148.789 256.817h-4.236c.015.668.195 1.184.539 1.547.344.363.816.545 1.418.545.676 0 1.297-.223 1.863-.668v.902c-.527.383-1.225.574-2.092.574-.847 0-1.513-.271-1.998-.814-.484-.547-.726-1.315-.726-2.303 0-.933.263-1.693.791-2.279.531-.59 1.189-.885 1.974-.885.785 0 1.393.254 1.823.762.429.508.644 1.213.644 2.115v.504Zm-.984-.815c-.004-.554-.139-.986-.405-1.294-.261-.309-.627-.463-1.095-.463-.453 0-.838.162-1.155.486-.316.324-.511.748-.586 1.271h3.241ZM158.768 259.577h-.961v-3.446c0-.664-.104-1.144-.311-1.441-.203-.297-.547-.445-1.031-.445-.41 0-.76.187-1.049.562-.285.375-.428.824-.428 1.348v3.422h-.961v-3.563c0-1.179-.455-1.769-1.365-1.769-.422 0-.769.177-1.043.533-.273.351-.41.81-.41 1.377v3.422h-.961v-6h.961v.949h.023c.426-.727 1.047-1.09 1.864-1.09.41 0 .767.115 1.072.346.305.226.514.525.627.896.445-.828 1.109-1.242 1.992-1.242 1.32 0 1.981.815 1.981 2.443v3.698ZM161.568 258.71h-.023v3.626h-.961v-8.759h.961v1.054h.023c.473-.796 1.164-1.195 2.075-1.195.773 0 1.377.27 1.81.809.434.535.651 1.254.651 2.156 0 1.004-.245 1.809-.733 2.414-.488.602-1.156.902-2.004.902-.777 0-1.377-.336-1.799-1.007Zm-.023-2.42v.837c0 .497.16.918.48 1.266.325.344.735.516 1.231.516.582 0 1.037-.223 1.365-.668.332-.446.498-1.065.498-1.858 0-.668-.154-1.191-.463-1.57-.308-.379-.726-.568-1.254-.568-.558 0-1.007.195-1.347.586-.34.386-.51.873-.51 1.459ZM168.6 259.577h-.961v-8.883h.961v8.883ZM174.84 259.577h-.961v-.938h-.024c-.417.719-1.033 1.078-1.845 1.078-.598 0-1.067-.158-1.406-.474-.336-.317-.504-.737-.504-1.26 0-1.121.66-1.773 1.98-1.957l1.799-.252c0-1.02-.412-1.529-1.236-1.529-.723 0-1.375.246-1.957.738v-.984c.589-.375 1.269-.563 2.039-.563 1.41 0 2.115.746 2.115 2.238v3.903Zm-.961-3.035-1.447.199c-.446.062-.782.174-1.008.334-.227.156-.34.435-.34.838 0 .293.104.533.311.72.21.184.49.276.837.276.477 0 .87-.166 1.178-.498.313-.336.469-.76.469-1.272v-.597ZM179.434 259.518c-.227.125-.526.188-.897.188-1.051 0-1.576-.586-1.576-1.758v-3.551h-1.031v-.82h1.031v-1.465l.961-.311v1.776h1.512v.82h-1.512v3.381c0 .402.068.689.205.861.137.172.363.258.68.258.242 0 .451-.066.627-.199v.82ZM185.539 256.817h-4.236c.015.668.195 1.184.539 1.547.344.363.816.545 1.418.545.676 0 1.297-.223 1.863-.668v.902c-.527.383-1.225.574-2.092.574-.847 0-1.513-.271-1.998-.814-.484-.547-.726-1.315-.726-2.303 0-.933.263-1.693.791-2.279.531-.59 1.189-.885 1.974-.885.785 0 1.393.254 1.823.762.429.508.644 1.213.644 2.115v.504Zm-.984-.815c-.004-.554-.139-.986-.405-1.294-.261-.309-.627-.463-1.095-.463-.453 0-.838.162-1.155.486-.316.324-.511.748-.586 1.271h3.241ZM186.635 259.36v-1.031c.523.386 1.099.58 1.728.58.844 0 1.266-.282 1.266-.844a.704.704 0 0 0-.111-.404 1.014 1.014 0 0 0-.293-.299 2.074 2.074 0 0 0-.434-.229c-.164-.07-.342-.142-.533-.216a7.636 7.636 0 0 1-.703-.317 2.29 2.29 0 0 1-.504-.363 1.44 1.44 0 0 1-.305-.463 1.68 1.68 0 0 1-.1-.604c0-.281.065-.529.194-.744.129-.218.301-.4.515-.545.215-.148.459-.259.733-.334.277-.074.562-.111.855-.111.52 0 .985.09 1.395.27v.972c-.442-.289-.949-.433-1.524-.433-.179 0-.341.021-.486.064a1.195 1.195 0 0 0-.375.17.825.825 0 0 0-.24.27.697.697 0 0 0-.082.339c0 .157.027.288.082.393a.887.887 0 0 0 .252.281c.109.082.242.156.398.223.157.066.334.139.533.217.266.101.504.207.715.316.211.106.391.227.539.363.149.133.262.287.34.463.082.176.123.385.123.627 0 .297-.066.555-.199.774-.129.218-.303.4-.521.545a2.411 2.411 0 0 1-.756.322c-.285.07-.584.105-.897.105-.617 0-1.152-.119-1.605-.357ZM192.43 259.706a.632.632 0 0 1-.463-.194.642.642 0 0 1-.188-.463c0-.179.063-.334.188-.463a.625.625 0 0 1 .463-.199.63.63 0 0 1 .468.199.633.633 0 0 1 .194.463c0 .18-.065.334-.194.463a.636.636 0 0 1-.468.194Z"/></svg>