<svg width="127" height="100" viewBox="0 0 127 100" fill="none" xmlns="http://www.w3.org/2000/svg">
<rect x="0.25" y="0.25" width="126.5" height="99.5" rx="2.75" stroke="#162D9E" stroke-width="0.5"/>
<rect opacity="0.3" x="52" y="41" width="18" height="18" fill="#9AA6AE"/>
<path d="M35 36L35 30.5L35 25L87 25L87 36L63 36L61 39L59 36L35 36Z" fill="#9AA6AE"/>
<path d="M45.0469 27.9922H43.4297V33H42.7734V27.9922H41.1602V27.3984H45.0469V27.9922ZM46.7344 33.0938C46.1432 33.0938 45.6706 32.9076 45.3164 32.5352C44.9648 32.1602 44.7891 31.6641 44.7891 31.0469C44.7891 30.375 44.9727 29.8503 45.3398 29.4727C45.707 29.0951 46.2031 28.9062 46.8281 28.9062C47.4245 28.9062 47.8893 29.0898 48.2227 29.457C48.5586 29.8242 48.7266 30.3333 48.7266 30.9844C48.7266 31.6224 48.5456 32.1341 48.1836 32.5195C47.8242 32.9023 47.3411 33.0938 46.7344 33.0938ZM46.7812 29.4453C46.3698 29.4453 46.0443 29.5859 45.8047 29.8672C45.5651 30.1458 45.4453 30.5312 45.4453 31.0234C45.4453 31.4974 45.5664 31.8711 45.8086 32.1445C46.0508 32.418 46.375 32.5547 46.7812 32.5547C47.1953 32.5547 47.513 32.4206 47.7344 32.1523C47.9583 31.8841 48.0703 31.5026 48.0703 31.0078C48.0703 30.5078 47.9583 30.1224 47.7344 29.8516C47.513 29.5807 47.1953 29.4453 46.7812 29.4453ZM51.4219 33.0938C50.8307 33.0938 50.3581 32.9076 50.0039 32.5352C49.6523 32.1602 49.4766 31.6641 49.4766 31.0469C49.4766 30.375 49.6602 29.8503 50.0273 29.4727C50.3945 29.0951 50.8906 28.9062 51.5156 28.9062C52.112 28.9062 52.5768 29.0898 52.9102 29.457C53.2461 29.8242 53.4141 30.3333 53.4141 30.9844C53.4141 31.6224 53.2331 32.1341 52.8711 32.5195C52.5117 32.9023 52.0286 33.0938 51.4219 33.0938ZM51.4688 29.4453C51.0573 29.4453 50.7318 29.5859 50.4922 29.8672C50.2526 30.1458 50.1328 30.5312 50.1328 31.0234C50.1328 31.4974 50.2539 31.8711 50.4961 32.1445C50.7383 32.418 51.0625 32.5547 51.4688 32.5547C51.8828 32.5547 52.2005 32.4206 52.4219 32.1523C52.6458 31.8841 52.7578 31.5026 52.7578 31.0078C52.7578 30.5078 52.6458 30.1224 52.4219 29.8516C52.2005 29.5807 51.8828 29.4453 51.4688 29.4453ZM55.0781 33H54.4375V27.0781H55.0781V33ZM58.2305 32.9609C58.0794 33.0443 57.8802 33.0859 57.6328 33.0859C56.9323 33.0859 56.582 32.6953 56.582 31.9141V29.5469H55.8945V29H56.582V28.0234L57.2227 27.8164V29H58.2305V29.5469H57.2227V31.8008C57.2227 32.069 57.2682 32.2604 57.3594 32.375C57.4505 32.4896 57.6016 32.5469 57.8125 32.5469C57.974 32.5469 58.1133 32.5026 58.2305 32.4141V32.9609ZM59.4141 27.9844C59.2995 27.9844 59.2018 27.9453 59.1211 27.8672C59.0404 27.7891 59 27.6901 59 27.5703C59 27.4505 59.0404 27.3516 59.1211 27.2734C59.2018 27.1927 59.2995 27.1523 59.4141 27.1523C59.5312 27.1523 59.6302 27.1927 59.7109 27.2734C59.7943 27.3516 59.8359 27.4505 59.8359 27.5703C59.8359 27.6849 59.7943 27.7826 59.7109 27.8633C59.6302 27.944 59.5312 27.9844 59.4141 27.9844ZM59.7266 33H59.0859V29H59.7266V33ZM61.6797 32.4219H61.6641V34.8398H61.0234V29H61.6641V29.7031H61.6797C61.9948 29.1719 62.4557 28.9062 63.0625 28.9062C63.5781 28.9062 63.9805 29.0859 64.2695 29.4453C64.5586 29.8021 64.7031 30.2812 64.7031 30.8828C64.7031 31.5521 64.5404 32.0885 64.2148 32.4922C63.8893 32.8932 63.444 33.0938 62.8789 33.0938C62.3607 33.0938 61.9609 32.8698 61.6797 32.4219ZM61.6641 30.8086V31.3672C61.6641 31.6979 61.7708 31.9792 61.9844 32.2109C62.2005 32.4401 62.474 32.5547 62.8047 32.5547C63.1927 32.5547 63.4961 32.4062 63.7148 32.1094C63.9362 31.8125 64.0469 31.3997 64.0469 30.8711C64.0469 30.4258 63.944 30.0768 63.7383 29.8242C63.5326 29.5716 63.2539 29.4453 62.9023 29.4453C62.5299 29.4453 62.2305 29.5755 62.0039 29.8359C61.7773 30.0938 61.6641 30.418 61.6641 30.8086ZM71.3203 27.9922H69.7031V33H69.0469V27.9922H67.4336V27.3984H71.3203V27.9922ZM74.5508 31.1602H71.7266C71.737 31.6055 71.8568 31.9492 72.0859 32.1914C72.3151 32.4336 72.6302 32.5547 73.0312 32.5547C73.4818 32.5547 73.8958 32.4062 74.2734 32.1094V32.7109C73.9219 32.9661 73.457 33.0938 72.8789 33.0938C72.3138 33.0938 71.8698 32.9128 71.5469 32.5508C71.224 32.1862 71.0625 31.6745 71.0625 31.0156C71.0625 30.3932 71.2383 29.8867 71.5898 29.4961C71.944 29.1029 72.3828 28.9062 72.9062 28.9062C73.4297 28.9062 73.8346 29.0755 74.1211 29.4141C74.4076 29.7526 74.5508 30.2227 74.5508 30.8242V31.1602ZM73.8945 30.6172C73.8919 30.2474 73.8021 29.9596 73.625 29.7539C73.4505 29.5482 73.207 29.4453 72.8945 29.4453C72.5924 29.4453 72.3359 29.5534 72.125 29.7695C71.9141 29.9857 71.7839 30.2682 71.7344 30.6172H73.8945ZM78.4453 29L77.1016 31.0234L78.4219 33H77.6758L76.8906 31.7031C76.8411 31.6224 76.7826 31.5208 76.7148 31.3984H76.6992C76.6862 31.4219 76.625 31.5234 76.5156 31.7031L75.7148 33H74.9766L76.3398 31.0391L75.0352 29H75.7812L76.5547 30.3672C76.612 30.4688 76.668 30.5729 76.7227 30.6797H76.7383L77.7383 29H78.4453ZM81.0508 32.9609C80.8997 33.0443 80.7005 33.0859 80.4531 33.0859C79.7526 33.0859 79.4023 32.6953 79.4023 31.9141V29.5469H78.7148V29H79.4023V28.0234L80.043 27.8164V29H81.0508V29.5469H80.043V31.8008C80.043 32.069 80.0885 32.2604 80.1797 32.375C80.2708 32.4896 80.4219 32.5469 80.6328 32.5469C80.7943 32.5469 80.9336 32.5026 81.0508 32.4141V32.9609Z" fill="#010101"/>
</svg>
