<svg xmlns="http://www.w3.org/2000/svg" width="127" height="100" fill="none" viewBox="0 0 127 100"><path fill="#9AA6AE" d="M52 41h18v18H52z" opacity=".3"/><path fill="#9AA6AE" d="M35 36V25h52v11H63l-2 3-2-3H35Z"/><path fill="#010101" d="M45.047 27.992H43.43V33h-.657v-5.008H41.16v-.594h3.887v.594Zm1.687 5.102c-.59 0-1.063-.186-1.418-.559-.351-.375-.527-.87-.527-1.488 0-.672.184-1.197.55-1.574.368-.378.864-.567 1.49-.567.596 0 1.06.184 1.394.551.336.367.504.876.504 1.527 0 .638-.181 1.15-.543 1.535-.36.383-.843.575-1.45.575Zm.047-3.649c-.411 0-.737.14-.976.422-.24.279-.36.664-.36 1.156 0 .474.121.848.364 1.122.242.273.566.41.972.41.414 0 .732-.134.953-.403.224-.268.336-.65.336-1.144 0-.5-.112-.886-.336-1.156-.221-.271-.539-.407-.953-.407Zm4.64 3.649c-.59 0-1.063-.186-1.417-.559-.352-.375-.527-.87-.527-1.488 0-.672.183-1.197.55-1.574.367-.378.864-.567 1.489-.567.596 0 1.06.184 1.394.551.336.367.504.876.504 1.527 0 .638-.18 1.15-.543 1.535-.36.383-.842.575-1.45.575Zm.048-3.649c-.412 0-.737.14-.977.422-.24.279-.36.664-.36 1.156 0 .474.122.848.364 1.122.242.273.566.41.973.41.414 0 .731-.134.953-.403.224-.268.336-.65.336-1.144 0-.5-.112-.886-.336-1.156-.221-.271-.54-.407-.953-.407ZM55.079 33h-.642v-5.922h.641V33Zm3.151-.04c-.15.084-.35.126-.597.126-.7 0-1.051-.39-1.051-1.172v-2.367h-.688V29h.688v-.977l.64-.207V29h1.008v.547h-1.007V31.8c0 .268.045.46.136.574.091.115.243.172.453.172.162 0 .301-.044.419-.133v.547Zm1.184-4.976A.406.406 0 0 1 59 27.57c0-.12.04-.218.121-.297a.4.4 0 0 1 .293-.12c.117 0 .216.04.297.12a.39.39 0 0 1 .125.297.393.393 0 0 1-.125.293.404.404 0 0 1-.297.121ZM59.727 33h-.641v-4h.64v4Zm1.953-.578h-.016v2.418h-.64V29h.64v.703h.016c.315-.531.776-.797 1.383-.797.515 0 .917.18 1.206.54.29.356.434.835.434 1.437 0 .67-.163 1.206-.488 1.61-.326.4-.771.6-1.336.6-.518 0-.918-.223-1.2-.671Zm-.016-1.613v.558c0 .33.107.612.32.844.216.23.49.344.82.344.389 0 .692-.149.91-.446.222-.297.333-.71.333-1.238 0-.445-.103-.794-.309-1.047-.205-.252-.484-.379-.836-.379-.372 0-.672.13-.898.39-.227.259-.34.583-.34.974Zm9.656-2.817h-1.617V33h-.656v-5.008h-1.613v-.594h3.886v.594Zm3.23 3.168h-2.823c.01.445.13.79.359 1.031.23.243.544.364.945.364.45 0 .865-.149 1.242-.446v.602c-.351.255-.816.383-1.394.383-.565 0-1.01-.181-1.332-.543-.323-.365-.484-.877-.484-1.535 0-.623.175-1.13.527-1.52a1.7 1.7 0 0 1 1.316-.59c.524 0 .929.17 1.215.508.287.339.43.809.43 1.41v.336Zm-.656-.543c-.002-.37-.092-.657-.269-.863-.174-.206-.418-.309-.73-.309-.303 0-.56.108-.77.325-.21.216-.341.498-.39.847h2.16ZM78.445 29l-1.343 2.023L78.422 33h-.746l-.785-1.297a8.193 8.193 0 0 1-.176-.305h-.016c-.013.024-.074.125-.183.305L75.715 33h-.738l1.363-1.96L75.035 29h.746l.774 1.367c.057.102.113.206.168.313h.015l1-1.68h.707Zm2.606 3.96c-.151.084-.35.126-.598.126-.7 0-1.05-.39-1.05-1.172v-2.367h-.688V29h.687v-.977l.641-.207V29h1.008v.547h-1.008V31.8c0 .268.045.46.137.574.09.115.242.172.453.172.161 0 .3-.044.418-.133v.547Z"/></svg>