<svg xmlns="http://www.w3.org/2000/svg" width="1000" height="700" viewBox="0 0 1000 700"><defs><clipPath id="a"><path d="M0 0h1000v700H0z"/></clipPath></defs><g clip-path="url(#a)" data-name="Carousel Remote Style - Swithcer"><path fill="#fcfcff" d="M0 0h1000v700H0z"/><rect width="325" height="93" fill="#f2f2f2" rx="5" transform="translate(338 515)"/><rect width="249" height="213" fill="#d5d5d5" rx="5" transform="translate(231 93)"/><rect width="249" height="213" fill="#d5d5d5" rx="5" transform="translate(520 93)"/><path fill="#888" d="M330 366h170v91H330a10 10 0 0 1-10-10v-71a10 10 0 0 1 10-10Z"/><path fill="#d5d5d5" d="M500 366h171a10 10 0 0 1 10 10v71a10 10 0 0 1-10 10H500v-91Z"/><text fill="#fff" font-family="Poppins-SemiBold, Poppins" font-size="40" font-weight="600" transform="translate(368 426)"><tspan x="0" y="0">ABC</tspan></text><text fill="#fff" font-family="Poppins-SemiBold, Poppins" font-size="40" font-weight="600" transform="translate(553 426)"><tspan x="0" y="0">XYZ</tspan></text><text fill="#888" font-family="Roboto-Medium, Roboto" font-size="70" font-weight="500" transform="translate(364 589)"><tspan x="0" y="0">Swithcer</tspan></text></g></svg>