<svg xmlns="http://www.w3.org/2000/svg" width="1000" height="700"><defs><clipPath id="a"><path d="M0 0h1000v700H0z"/></clipPath></defs><g clip-path="url(#a)" data-name="Countdown Style 3"><path fill="#fcfcff" d="M0 0h1000v700H0z"/><g fill="#888" stroke="#888" data-name="Rectangle 609" transform="translate(100 277)"><rect width="157" height="260" stroke="none" rx="5"/><rect width="156" height="259" x=".5" y=".5" fill="none" rx="4.5"/></g><g fill="#a2a2a2" stroke="#a2a2a2" data-name="Rectangle 613"><path stroke="none" d="M100 407h157v125a5 5 0 0 1-5 5H105a5 5 0 0 1-5-5V407Z"/><path fill="none" d="M101 407.5h155a.5.5 0 0 1 .5.5v124a4.5 4.5 0 0 1-4.5 4.5H105a4.5 4.5 0 0 1-4.5-4.5V408a.5.5 0 0 1 .5-.5Z"/></g><g fill="#888" stroke="#888" data-name="Rectangle 612" transform="translate(551 277)"><rect width="157" height="260" stroke="none" rx="5"/><rect width="156" height="259" x=".5" y=".5" fill="none" rx="4.5"/></g><g fill="#a2a2a2" stroke="#a2a2a2" data-name="Rectangle 615"><path stroke="none" d="M551 407h157v125a5 5 0 0 1-5 5H556a5 5 0 0 1-5-5V407Z"/><path fill="none" d="M552 407.5h155a.5.5 0 0 1 .5.5v124a4.5 4.5 0 0 1-4.5 4.5H556a4.5 4.5 0 0 1-4.5-4.5V408a.5.5 0 0 1 .5-.5Z"/></g><g fill="#888" stroke="#888" data-name="Rectangle 611" transform="translate(743 277)"><rect width="157" height="260" stroke="none" rx="5"/><rect width="156" height="259" x=".5" y=".5" fill="none" rx="4.5"/></g><g fill="#a2a2a2" stroke="#a2a2a2" data-name="Rectangle 616"><path stroke="none" d="M743 407h157v125a5 5 0 0 1-5 5H748a5 5 0 0 1-5-5V407Z"/><path fill="none" d="M744 407.5h155a.5.5 0 0 1 .5.5v124a4.5 4.5 0 0 1-4.5 4.5H748a4.5 4.5 0 0 1-4.5-4.5V408a.5.5 0 0 1 .5-.5Z"/></g><g fill="#888" stroke="#888" data-name="Rectangle 610" transform="translate(292 277)"><rect width="157" height="260" stroke="none" rx="5"/><rect width="156" height="259" x=".5" y=".5" fill="none" rx="4.5"/></g><g fill="#a2a2a2" stroke="#a2a2a2" data-name="Rectangle 614"><path stroke="none" d="M292 407h157v125a5 5 0 0 1-5 5H297a5 5 0 0 1-5-5V407Z"/><path fill="none" d="M293 407.5h155a.5.5 0 0 1 .5.5v124a4.5 4.5 0 0 1-4.5 4.5H297a4.5 4.5 0 0 1-4.5-4.5V408a.5.5 0 0 1 .5-.5Z"/></g><g fill="#888" stroke="#888" stroke-width="5" data-name="Ellipse 275" transform="rotate(89.03 89.475 426.442)"><circle cx="15.222" cy="15.222" r="15.222" stroke="none"/><circle cx="15.222" cy="15.222" r="12.722" fill="none"/></g><g fill="#888" stroke="#888" stroke-width="5" data-name="Ellipse 277" transform="rotate(89.03 26.477 488.078)"><circle cx="15.222" cy="15.222" r="15.222" stroke="none"/><circle cx="15.222" cy="15.222" r="12.722" fill="none"/></g><text fill="#888" font-family="Roboto-Medium, Roboto" font-size="65" font-weight="500" transform="translate(135.5 225)"><tspan x="0" y="0">MINUTES</tspan></text><text fill="#888" font-family="Roboto-Medium, Roboto" font-size="65" font-weight="500" transform="translate(579.5 225)"><tspan x="0" y="0">SECONDS</tspan></text><text fill="#fff" data-name="0" font-family="Roboto-Bold, Roboto" font-size="223" font-weight="700" transform="translate(114 484)"><tspan x="0" y="0">0</tspan></text><text fill="#fff" data-name="0" font-family="Roboto-Bold, Roboto" font-size="223" font-weight="700" transform="translate(307 484)"><tspan x="0" y="0">0</tspan></text><text fill="#fff" data-name="0" font-family="Roboto-Bold, Roboto" font-size="223" font-weight="700" transform="translate(565 484)"><tspan x="0" y="0">0</tspan></text><text fill="#fff" data-name="0" font-family="Roboto-Bold, Roboto" font-size="223" font-weight="700" transform="translate(758 484)"><tspan x="0" y="0">0</tspan></text><path fill="none" stroke="#888" stroke-width="2" d="M100.5 407.5h157" data-name="Line 94"/><path fill="none" stroke="#888" stroke-width="2" d="M292.5 407.5h157" data-name="Line 95"/><path fill="none" stroke="#888" stroke-width="2" d="M551.5 407.5h157" data-name="Line 96"/><path fill="none" stroke="#888" stroke-width="2" d="M743 407.5h157" data-name="Line 97"/></g></svg>