<svg xmlns="http://www.w3.org/2000/svg" width="1000" height="700"><defs><clipPath id="a"><path d="M0 0h1000v700H0z"/></clipPath></defs><g clip-path="url(#a)" data-name="Countdown Style 1"><path fill="#fcfcff" d="M0 0h1000v700H0z"/><g fill="none" stroke="#888" stroke-width="50" data-name="Ellipse 282" transform="translate(250 100)"><circle cx="250" cy="250" r="250" stroke="none"/><circle cx="250" cy="250" r="225"/></g><path fill="#fcfcff" stroke="#fcfcff" d="M513.683 167.347 512.6 100s6.69-.262 5.158 0-.732-24.224 8.891-24.63c4.687-.2 31.175 6.115 44.732 8.887 13.691 2.8 10.408 15.743 10.408 15.743s12.6-1.992 18.344 0 25.141 12.794 25.141 12.794h10.052l22.987 9.493 11.9 25.964H695.3l5.075 8.6-5.075 10.5 5.075 12.308 20.469 16.238 19.134 21.422 9.683 37.8 2.85 25.618 11.834 11.975 6.789 14.475a10.589 10.589 0 0 0 0 3.729c.368 2.619 19.173 7.11 19.685 11.984.879 8.36-13.564 25.271-13.564 25.271l22.5 15.428-22.5 15.263s5.908-7.936 4.936 0-17.846-71.676-17.846-71.676H695.3s-44.627 63.664-43.872 56.413 27.84-10.953 27.84-10.953l-9.05-12.019h-18.79l11.122-17.728v-15.714l-11.122-26.449-16.095-36.5-17.5-12.338-12.741-9.886 10.728-4.7-20.089-21.422-7.324 5.7-17.02-5.7s-1.343 6.417-9.4 5.7 9.4-25.676 9.4-25.676-3.165 1.463-9.4 0c-3.162-.741-26.742 21-30.421 19.976-1.269-.354 1.494-10.186 0-10.539-2.489-.591 17.783-10.976 15.211-11.5-4.234-.862-15.211 5.8-15.211 5.8s7.453-11.349 0-12.308c-1.387-.179-16.218 12.509-17.877 12.308-.558-.067-.287-8.167-1.079-8.218-1.743-.118-11.073 4.6-11.977 4.48-.592-.082 1.561.107 0 0-.507-.036 1.418.05 0 0-.58-.021 1.495.016 0 0-.385 0 14.112-8.567 13.056-8.57-.137 0-15.087.067-15.654 0-.1.006 16.063 18.089 15.654 18.007-6.589.389-14.951-.242-17.738 0-3.281.283-7.615-15.006-14.563-13.917-11.827 1.853-12.022 0-12.022 0h-21.691Z" data-name="Path 257"/><path fill="none" stroke="#d5d5d5" stroke-width="15" d="M513.161 122.544c.175.008 87.939-1.562 140.527 53.031 53.643 43.425 65.941 114.2 67.958 123.813.064.3 1.171 7.9 1.171 7.9" data-name="Path 7104"/><text fill="#888" data-name="56" font-family="Roboto-Bold, Roboto" font-size="146" font-weight="700" transform="translate(416 371)"><tspan x="0" y="0">56</tspan></text><text fill="#888" font-family="Roboto-Medium, Roboto" font-size="43" font-weight="500" transform="translate(408 471)"><tspan x="0" y="0">MINUTES</tspan></text></g></svg>