<svg xmlns="http://www.w3.org/2000/svg" width="1000" height="700"><defs><clipPath id="a"><path d="M0 0h1000v700H0z"/></clipPath></defs><g clip-path="url(#a)" data-name="Breadcrumb - Style 1"><path fill="#fcfcff" d="M0 0h1000v700H0z"/><path fill="none" stroke="#888" stroke-width="30" d="M172.5 350.5h170" data-name="Line 1"/><path fill="none" stroke="#888" stroke-width="30" d="M452.5 350.5h170" data-name="Line 23"/><path fill="none" stroke="#888" stroke-width="30" d="M732.5 350.5h170" data-name="Line 24"/><path stroke="#449fdb" d="M100 328" data-name="Line 26"/><path fill="#888" d="M140.426 372.446h-13.334a.743.743 0 0 1-.741-.741v-12.593h-7.407v12.593a.742.742 0 0 1-.741.741h-13.334a.742.742 0 0 1-.741-.741v-22.964h-3.202a.74.74 0 0 1-.491-1.294l21.231-18.89a.743.743 0 0 1 .962-.019l5.207 4.273v-4.07a.742.742 0 0 1 .739-.741h7.408a.741.741 0 0 1 .741.741v11.72l7.311 7a.741.741 0 0 1-.513 1.276h-2.354v22.968a.742.742 0 0 1-.741.741Z" data-name="Path 225"/><g data-name="icomoon-ignore"><path stroke="#449fdb" d="M661 331.233" data-name="Line 27"/></g><path fill="#888" d="M675.673 369.28h-9.262a1.234 1.234 0 0 1-.838-2.141l17.582-16.267-17.621-17.772a1.235 1.235 0 0 1 .876-2.1h9.261a1.236 1.236 0 0 1 .877.365l18.522 18.677a1.233 1.233 0 0 1-.038 1.776l-18.521 17.133a1.225 1.225 0 0 1-.838.329Zm-6.107-2.469h5.625l17.228-15.936-17.26-17.4h-5.783l16.436 16.568a1.235 1.235 0 0 1-.038 1.777l-16.208 14.991Z" data-name="Path 226"/><g data-name="Arrow-Forward2"><g data-name="icomoon-ignore"><path stroke="#449fdb" d="M378 331.233" data-name="Line 27"/></g><path fill="#888" d="M392.673 369.28h-9.262a1.234 1.234 0 0 1-.838-2.141l17.582-16.267-17.621-17.772a1.235 1.235 0 0 1 .876-2.1h9.261a1.236 1.236 0 0 1 .877.365l18.522 18.677a1.233 1.233 0 0 1-.038 1.776l-18.521 17.133a1.225 1.225 0 0 1-.838.329Zm-6.107-2.469h5.625l17.228-15.936-17.26-17.4h-5.783l16.436 16.568a1.235 1.235 0 0 1-.038 1.777l-16.208 14.991Z" data-name="Path 226"/></g></g></svg>