<svg xmlns="http://www.w3.org/2000/svg" width="1000" height="700"><defs><clipPath id="a"><path d="M0 0h1000v700H0z"/></clipPath></defs><g clip-path="url(#a)" data-name="Breadcrumb - Style 2"><path fill="#fcfcff" d="M0 0h1000v700H0z"/><rect width="270" height="100" fill="#888" data-name="Rectangle 7" rx="10" transform="translate(100 300)"/><rect width="197" height="100" fill="#888" data-name="Rectangle 8" rx="10" transform="translate(400 300)"/><rect width="274" height="100" fill="#ff5a6e" data-name="Rectangle 9" rx="10" transform="translate(626 300)"/><path fill="none" stroke="#fff" stroke-width="20" d="M194.5 350.5h140" data-name="Line 1"/><path fill="none" stroke="#fff" stroke-width="20" d="M430.763 350.5h137.525" data-name="Line 28"/><path fill="none" stroke="#fff" stroke-width="20" d="M663.5 350.5h199" data-name="Line 29"/><path stroke="#449fdb" d="M136 333" data-name="Line 26"/><path fill="#f2f2f2" d="M167.223 367.328h-10.3a.574.574 0 0 1-.572-.572v-9.727h-5.72v9.726a.573.573 0 0 1-.572.572h-10.298a.573.573 0 0 1-.572-.572V349.02h-2.474a.572.572 0 0 1-.38-1l16.398-14.59a.573.573 0 0 1 .743-.015l4.021 3.3v-3.143a.573.573 0 0 1 .572-.572h5.724a.572.572 0 0 1 .572.572v9.052l5.647 5.41a.572.572 0 0 1-.4.985h-1.819v17.737a.573.573 0 0 1-.57.572Z" data-name="Path 225"/></g></svg>