<svg xmlns="http://www.w3.org/2000/svg" width="1000" height="700" viewBox="0 0 1000 700"><defs><clipPath id="a"><path d="M0 0h1000v700H0z"/></clipPath></defs><g clip-path="url(#a)" data-name="Audio Player - Style 1"><path fill="#fcfcff" d="M0 0h1000v700H0z"/><rect width="800" height="233" fill="#888" data-name="Rectangle 547" rx="5" transform="translate(100 234)"/><path fill="#fff" d="m512.96 353.569-23.888-14.122a3.239 3.239 0 0 0-4.912 2.802v28.233a3.254 3.254 0 0 0 4.912 2.8l23.888-14.113a3.254 3.254 0 0 0 0-5.6Z"/><path fill="#d5d5d5" d="m564.563 355.574-9.359-7.8a1.562 1.562 0 0 0-2.559 1.2v15.6a1.561 1.561 0 0 0 2.559 1.2l9.359-7.8a1.565 1.565 0 0 0 0-2.4Zm-12.479 0-9.359-7.8a1.562 1.562 0 0 0-2.562 1.2v15.6a1.561 1.561 0 0 0 2.559 1.2l9.359-7.8a1.565 1.565 0 0 0 0-2.4ZM433.994 357.973l9.357 7.8a1.56 1.56 0 0 0 2.559-1.2v-15.6a1.56 1.56 0 0 0-2.559-1.2l-9.357 7.802a1.565 1.565 0 0 0 0 2.398Zm12.476 0 9.357 7.8a1.56 1.56 0 0 0 2.559-1.2v-15.6a1.56 1.56 0 0 0-2.559-1.2l-9.357 7.8a1.565 1.565 0 0 0 .001 2.4Z"/><path fill="none" stroke="#d5d5d5" stroke-width="5" d="M812.5 433.5h-643" data-name="Line 98"/><g fill="#d5d5d5" stroke="#d5d5d5" stroke-width="5" data-name="Ellipse 298" transform="translate(159 423)"><circle cx="11" cy="11" r="11" stroke="none"/><circle cx="11" cy="11" r="8.5" fill="none"/></g><path fill="#d5d5d5" d="m864.569 422.216-5.615 5.614h-6.44a1.514 1.514 0 0 0-1.514 1.514v9.087a1.514 1.514 0 0 0 1.514 1.514h6.44l5.614 5.613a1.515 1.515 0 0 0 2.585-1.071v-21.2a1.516 1.516 0 0 0-2.584-1.071Zm7.774 6.82a1.515 1.515 0 0 0-1.461 2.654 2.488 2.488 0 0 1 0 4.394 1.515 1.515 0 1 0 1.461 2.654 5.518 5.518 0 0 0 0-9.7ZM852.205 276.938a2.352 2.352 0 1 0 2.348 2.352 2.352 2.352 0 0 0-2.348-2.352Zm0 7.839a2.352 2.352 0 1 0 2.348 2.351 2.352 2.352 0 0 0-2.352-2.352Zm0 7.839a2.352 2.352 0 1 0 2.348 2.351 2.352 2.352 0 0 0-2.352-2.352Zm21.949.784h-15.678a.784.784 0 0 0-.784.784v1.568a.784.784 0 0 0 .784.784h15.677a.784.784 0 0 0 .784-.784v-1.569a.784.784 0 0 0-.784-.784Zm0-15.678h-15.678a.784.784 0 0 0-.784.784v1.568a.784.784 0 0 0 .784.784h15.677a.784.784 0 0 0 .784-.784v-1.568a.784.784 0 0 0-.784-.784Zm0 7.839h-15.678a.784.784 0 0 0-.784.784v1.568a.784.784 0 0 0 .784.784h15.677a.784.784 0 0 0 .784-.784v-1.568a.784.784 0 0 0-.784-.784Z"/><path fill="none" stroke="#fff" stroke-width="15" d="M338.5 287.5h229" data-name="Line 6"/><path fill="none" stroke="#d5d5d5" stroke-width="12" d="M580.308 287.078H662.5" data-name="Line 7"/></g></svg>