<svg xmlns="http://www.w3.org/2000/svg" width="1000" height="700" viewBox="0 0 1000 700"><defs><clipPath id="a"><path d="M0 0h1000v700H0z"/></clipPath></defs><g clip-path="url(#a)" data-name="Audio Player - Style 2"><path fill="#fcfcff" d="M0 0h1000v700H0z"/><rect width="800" height="107" fill="#888" data-name="Rectangle 547" rx="5" transform="translate(100 297)"/><path fill="#fff" d="m172.222 347.917-19.913-11.778a2.7 2.7 0 0 0-4.1 2.34v23.544a2.713 2.713 0 0 0 4.1 2.337l19.913-11.769a2.713 2.713 0 0 0 0-4.674Z"/><path fill="none" stroke="#d5d5d5" stroke-width="5" d="M805.5 350.5h-579" data-name="Line 98"/><g fill="#d5d5d5" stroke="#d5d5d5" stroke-width="5" data-name="Ellipse 298" transform="translate(212 340)"><circle cx="11" cy="11" r="11" stroke="none"/><circle cx="11" cy="11" r="8.5" fill="none"/></g><path fill="#fff" d="m841.569 339.216-5.615 5.614h-6.44a1.514 1.514 0 0 0-1.514 1.514v9.087a1.514 1.514 0 0 0 1.514 1.514h6.44l5.614 5.613a1.515 1.515 0 0 0 2.585-1.071v-21.2a1.516 1.516 0 0 0-2.584-1.071Zm7.774 6.82a1.515 1.515 0 0 0-1.461 2.654 2.488 2.488 0 0 1 0 4.394 1.515 1.515 0 1 0 1.461 2.654 5.518 5.518 0 0 0 0-9.7Z"/></g></svg>