<svg xmlns="http://www.w3.org/2000/svg" width="1000" height="700" viewBox="0 0 1000 700"><defs><clipPath id="a"><path d="M0 0h1000v700H0z"/></clipPath></defs><g clip-path="url(#a)" data-name="Audio Player - Style 3"><path fill="#fcfcff" d="M0 0h1000v700H0z"/><rect width="800" height="500" fill="#888" data-name="Rectangle 547" rx="5" transform="translate(100 100)"/><path fill="none" stroke="#fff" stroke-width="15" d="M338.5 406.5h229" data-name="Line 6"/><path fill="#d5d5d5" d="m587.563 481.574-9.359-7.8a1.562 1.562 0 0 0-2.559 1.2v15.6a1.561 1.561 0 0 0 2.559 1.2l9.359-7.8a1.565 1.565 0 0 0 0-2.4Zm-12.479 0-9.359-7.8a1.562 1.562 0 0 0-2.562 1.2v15.6a1.561 1.561 0 0 0 2.559 1.2l9.359-7.8a1.565 1.565 0 0 0 0-2.4ZM411.994 483.973l9.357 7.8a1.56 1.56 0 0 0 2.559-1.2v-15.6a1.56 1.56 0 0 0-2.559-1.2l-9.357 7.802a1.565 1.565 0 0 0 0 2.398Zm12.476 0 9.357 7.8a1.56 1.56 0 0 0 2.559-1.2v-15.6a1.56 1.56 0 0 0-2.559-1.2l-9.357 7.8a1.565 1.565 0 0 0 .001 2.4Z"/><path fill="none" stroke="#d5d5d5" stroke-width="5" d="M812.5 566.5h-643" data-name="Line 98"/><g fill="#d5d5d5" stroke="#d5d5d5" stroke-width="5" data-name="Ellipse 298" transform="translate(159 556)"><circle cx="11" cy="11" r="11" stroke="none"/><circle cx="11" cy="11" r="8.5" fill="none"/></g><path fill="#d5d5d5" d="m864.569 555.216-5.615 5.614h-6.44a1.514 1.514 0 0 0-1.514 1.514v9.087a1.514 1.514 0 0 0 1.514 1.514h6.44l5.614 5.613a1.515 1.515 0 0 0 2.585-1.071v-21.2a1.516 1.516 0 0 0-2.584-1.071Zm7.774 6.82a1.515 1.515 0 0 0-1.461 2.654 2.488 2.488 0 0 1 0 4.394 1.515 1.515 0 1 0 1.461 2.654 5.518 5.518 0 0 0 0-9.7ZM852.206 131.938a2.352 2.352 0 1 0 2.348 2.352 2.352 2.352 0 0 0-2.348-2.352Zm0 7.839a2.352 2.352 0 1 0 2.348 2.351 2.352 2.352 0 0 0-2.352-2.352Zm0 7.839a2.352 2.352 0 1 0 2.348 2.351 2.352 2.352 0 0 0-2.352-2.352Zm21.949.784h-15.678a.784.784 0 0 0-.784.784v1.568a.784.784 0 0 0 .784.784h15.677a.784.784 0 0 0 .784-.784v-1.569a.784.784 0 0 0-.784-.784Zm0-15.678h-15.678a.784.784 0 0 0-.784.784v1.568a.784.784 0 0 0 .784.784h15.677a.784.784 0 0 0 .784-.784v-1.568a.784.784 0 0 0-.784-.784Zm0 7.839h-15.678a.784.784 0 0 0-.784.784v1.568a.784.784 0 0 0 .784.784h15.677a.784.784 0 0 0 .784-.784v-1.568a.784.784 0 0 0-.784-.784Z"/><rect width="152" height="147" fill="#d5d5d5" data-name="Rectangle 547" rx="73.5" transform="translate(424 190)"/><rect width="64" height="62" fill="#d5d5d5" data-name="Rectangle 624" rx="31" transform="translate(468 452)"/><path fill="#888" d="M528.445 289.679H472.46a6.46 6.46 0 0 1-6.46-6.46V244.46a6.46 6.46 0 0 1 6.46-6.46h55.985a6.46 6.46 0 0 1 6.46 6.46v38.759a6.46 6.46 0 0 1-6.46 6.46Zm-47.372-44.142a7.537 7.537 0 1 0 7.537 7.537 7.537 7.537 0 0 0-7.537-7.537Zm-6.46 35.529h51.679v-15.073l-11.778-11.778a1.615 1.615 0 0 0-2.284 0l-18.237 18.238-7.471-7.471a1.615 1.615 0 0 0-2.284 0l-9.624 9.625ZM509.822 480.958l-17.962-10.622a2.436 2.436 0 0 0-3.7 2.108v21.238a2.448 2.448 0 0 0 3.7 2.108l17.962-10.621a2.447 2.447 0 0 0 0-4.211Z"/><path fill="none" stroke="#d5d5d5" stroke-width="12" d="M580.308 406.078H662.5" data-name="Line 7"/><text fill="#fff" data-name="00:00" font-family="HelveticaNeue, Helvetica Neue" font-size="25" transform="translate(159 537)"><tspan x="0" y="0">00:00</tspan></text></g></svg>