<svg xmlns="http://www.w3.org/2000/svg" width="1000" height="700" viewBox="0 0 1000 700"><defs><clipPath id="a"><path d="M0 0h1000v700H0z"/></clipPath></defs><g clip-path="url(#a)" data-name="Audio Player - Style 4"><path fill="#fcfcff" d="M0 0h1000v700H0z"/><rect width="800" height="402" fill="#d5d5d5" data-name="Rectangle 547" rx="5" transform="translate(100 149)"/><path fill="#888" d="M655.619 493.482H344.857A35.857 35.857 0 0 1 309 457.625V242.482a35.857 35.857 0 0 1 35.857-35.857h310.762a35.857 35.857 0 0 1 35.857 35.857v215.143a35.857 35.857 0 0 1-35.857 35.857ZM392.667 248.458a41.833 41.833 0 1 0 41.833 41.834 41.833 41.833 0 0 0-41.833-41.834ZM356.81 445.673h286.857v-83.667l-65.376-65.376a8.965 8.965 0 0 0-12.678 0L464.381 397.863l-41.471-41.471a8.965 8.965 0 0 0-12.678 0l-53.422 53.424Z" opacity=".207"/><path fill="#888" d="m172.222 494.918-19.913-11.778a2.7 2.7 0 0 0-4.1 2.34v23.544a2.713 2.713 0 0 0 4.1 2.337l19.913-11.769a2.713 2.713 0 0 0 0-4.674Z"/><path fill="none" stroke="#888" stroke-width="5" d="M805.5 497.5h-579" data-name="Line 98"/><g fill="#888" stroke="#888" stroke-width="5" data-name="Ellipse 298" transform="translate(212 487)"><circle cx="11" cy="11" r="11" stroke="none"/><circle cx="11" cy="11" r="8.5" fill="none"/></g><path fill="#888" d="m841.569 486.216-5.615 5.614h-6.44a1.514 1.514 0 0 0-1.514 1.514v9.087a1.514 1.514 0 0 0 1.514 1.514h6.44l5.614 5.613a1.515 1.515 0 0 0 2.585-1.071v-21.2a1.516 1.516 0 0 0-2.584-1.071Zm7.774 6.82a1.515 1.515 0 0 0-1.461 2.654 2.488 2.488 0 0 1 0 4.394 1.515 1.515 0 1 0 1.461 2.654 5.518 5.518 0 0 0 0-9.7ZM829.206 193.938a2.352 2.352 0 1 0 2.348 2.352 2.352 2.352 0 0 0-2.348-2.352Zm0 7.839a2.352 2.352 0 1 0 2.348 2.351 2.352 2.352 0 0 0-2.352-2.352Zm0 7.839a2.352 2.352 0 1 0 2.348 2.351 2.352 2.352 0 0 0-2.352-2.352Zm21.949.784h-15.678a.784.784 0 0 0-.784.784v1.568a.784.784 0 0 0 .784.784h15.677a.784.784 0 0 0 .784-.784v-1.569a.784.784 0 0 0-.784-.784Zm0-15.678h-15.678a.784.784 0 0 0-.784.784v1.568a.784.784 0 0 0 .784.784h15.677a.784.784 0 0 0 .784-.784v-1.568a.784.784 0 0 0-.784-.784Zm0 7.839h-15.678a.784.784 0 0 0-.784.784v1.568a.784.784 0 0 0 .784.784h15.677a.784.784 0 0 0 .784-.784v-1.568a.784.784 0 0 0-.784-.784Z"/><path fill="none" stroke="#888" stroke-width="20" d="M360.5 357.5h279" data-name="Line 6"/><path fill="none" stroke="#fff" stroke-width="15" d="M417.5 407.5h165" data-name="Line 109"/></g></svg>