<svg xmlns="http://www.w3.org/2000/svg" width="1000" height="700" viewBox="0 0 1000 700"><defs><clipPath id="a"><path d="M0 0h1000v700H0z"/></clipPath></defs><g clip-path="url(#a)" data-name="Audio Player - Style 7"><path fill="#fcfcff" d="M0 0h1000v700H0z"/><rect width="800" height="190" fill="#888" data-name="Rectangle 547" rx="5" transform="translate(100 255)"/><path fill="#fff" d="m513.96 295.569-23.888-14.122a3.239 3.239 0 0 0-4.912 2.802v28.233a3.254 3.254 0 0 0 4.912 2.8l23.888-14.113a3.254 3.254 0 0 0 0-5.6Z"/><path fill="#d5d5d5" d="m874.564 297.574-9.359-7.8a1.562 1.562 0 0 0-2.559 1.2v15.6a1.561 1.561 0 0 0 2.559 1.2l9.359-7.8a1.565 1.565 0 0 0 0-2.4Zm-12.479 0-9.359-7.8a1.562 1.562 0 0 0-2.562 1.2v15.6a1.561 1.561 0 0 0 2.559 1.2l9.359-7.8a1.565 1.565 0 0 0 0-2.4ZM132.994 299.973l9.357 7.8a1.56 1.56 0 0 0 2.559-1.2v-15.6a1.56 1.56 0 0 0-2.559-1.2l-9.357 7.802a1.565 1.565 0 0 0 0 2.398Zm12.476 0 9.357 7.8a1.56 1.56 0 0 0 2.559-1.2v-15.6a1.56 1.56 0 0 0-2.559-1.2l-9.357 7.8a1.565 1.565 0 0 0 .001 2.4Z"/><path fill="none" stroke="#fff" stroke-width="5" d="M875.5 361.5h-736" data-name="Line 98"/><g fill="#fff" stroke="#fff" stroke-width="5" data-name="Ellipse 298" transform="translate(129 351)"><circle cx="11" cy="11" r="11" stroke="none"/><circle cx="11" cy="11" r="8.5" fill="none"/></g><path fill="none" stroke="#d5d5d5" stroke-width="15" d="M338.5 407.5h229" data-name="Line 6"/><path fill="none" stroke="#f2f2f2" stroke-width="12" d="M580.309 407.078h82.192" data-name="Line 7"/><text fill="#fff" data-name="00:00" font-family="HelveticaNeue, Helvetica Neue" font-size="25" transform="translate(129 417)"><tspan x="0" y="0">00:00</tspan></text></g></svg>