<svg xmlns="http://www.w3.org/2000/svg" width="1000" height="700" viewBox="0 0 1000 700"><defs><clipPath id="a"><path d="M0 0h1000v700H0z"/></clipPath></defs><g clip-path="url(#a)" data-name="Audio Player - Style 8"><path fill="#fcfcff" d="M0 0h1000v700H0z"/><rect width="800" height="500" fill="#d5d5d5" data-name="Rectangle 547" rx="5" transform="translate(100 100)"/><path fill="#888" d="M655.619 493.482H344.857A35.857 35.857 0 0 1 309 457.625V242.482a35.857 35.857 0 0 1 35.857-35.857h310.762a35.857 35.857 0 0 1 35.857 35.857v215.143a35.857 35.857 0 0 1-35.857 35.857ZM392.667 248.458a41.833 41.833 0 1 0 41.833 41.834 41.833 41.833 0 0 0-41.833-41.834ZM356.81 445.673h286.857v-83.667l-65.376-65.376a8.965 8.965 0 0 0-12.678 0L464.381 397.863l-41.471-41.471a8.965 8.965 0 0 0-12.678 0l-53.422 53.424Z" opacity=".207"/><path fill="#888" d="m874.564 472.574-9.359-7.8a1.562 1.562 0 0 0-2.559 1.2v15.6a1.561 1.561 0 0 0 2.559 1.2l9.359-7.8a1.565 1.565 0 0 0 0-2.4Zm-12.479 0-9.359-7.8a1.562 1.562 0 0 0-2.562 1.2v15.6a1.561 1.561 0 0 0 2.559 1.2l9.359-7.8a1.565 1.565 0 0 0 0-2.4ZM132.994 474.973l9.357 7.8a1.56 1.56 0 0 0 2.559-1.2v-15.6a1.56 1.56 0 0 0-2.559-1.2l-9.357 7.802a1.565 1.565 0 0 0 0 2.398Zm12.476 0 9.357 7.8a1.56 1.56 0 0 0 2.559-1.2v-15.6a1.56 1.56 0 0 0-2.559-1.2l-9.357 7.8a1.565 1.565 0 0 0 .001 2.4Z"/><path fill="none" stroke="#fff" stroke-width="5" d="M875.5 516.5h-736" data-name="Line 98"/><g fill="#fff" stroke="#fff" stroke-width="5" data-name="Ellipse 298" transform="translate(129 506)"><circle cx="11" cy="11" r="11" stroke="none"/><circle cx="11" cy="11" r="8.5" fill="none"/></g><path fill="none" stroke="#888" stroke-width="15" d="M385.5 358.5h229" data-name="Line 6"/><path fill="none" stroke="#fff" stroke-width="8" d="M433.5 390.5h134" data-name="Line 7"/><text fill="#fff" data-name="00:00" font-family="HelveticaNeue-Medium, Helvetica Neue" font-size="25" font-weight="500" transform="translate(129 572)"><tspan x="0" y="0">00:00</tspan></text><rect width="64" height="62" fill="#f2f2f2" data-name="Rectangle 624" rx="31" transform="translate(468 433)"/><path fill="#888" d="m509.822 461.958-17.962-10.622a2.436 2.436 0 0 0-3.7 2.108v21.238a2.448 2.448 0 0 0 3.7 2.108l17.962-10.621a2.447 2.447 0 0 0 0-4.211Z"/><rect width="152" height="147" fill="#f2f2f2" data-name="Rectangle 547" rx="73.5" transform="translate(424 160)"/><path fill="#888" d="M528.445 259.679H472.46a6.46 6.46 0 0 1-6.46-6.46V214.46a6.46 6.46 0 0 1 6.46-6.46h55.985a6.46 6.46 0 0 1 6.46 6.46v38.759a6.46 6.46 0 0 1-6.46 6.46Zm-47.372-44.142a7.537 7.537 0 1 0 7.537 7.537 7.537 7.537 0 0 0-7.537-7.537Zm-6.46 35.529h51.679v-15.073l-11.778-11.778a1.615 1.615 0 0 0-2.284 0l-18.237 18.238-7.471-7.471a1.615 1.615 0 0 0-2.284 0l-9.624 9.625Z" data-name="image"/></g></svg>