<svg xmlns="http://www.w3.org/2000/svg" width="1000" height="700" viewBox="0 0 1000 700"><defs><clipPath id="a"><path d="M0 0h1000v700H0z"/></clipPath></defs><g clip-path="url(#a)" data-name="Audio Player - Style 9"><path fill="#fcfcff" d="M0 0h1000v700H0z"/><rect width="800" height="393" fill="#d5d5d5" data-name="Rectangle 547" rx="5" transform="translate(100 154)"/><path fill="#888" d="M655.619 493.482H344.857A35.857 35.857 0 0 1 309 457.625V242.482a35.857 35.857 0 0 1 35.857-35.857h310.762a35.857 35.857 0 0 1 35.857 35.857v215.143a35.857 35.857 0 0 1-35.857 35.857ZM392.667 248.458a41.833 41.833 0 1 0 41.833 41.834 41.833 41.833 0 0 0-41.833-41.834ZM356.81 445.673h286.857v-83.667l-65.376-65.376a8.965 8.965 0 0 0-12.678 0L464.381 397.863l-41.471-41.471a8.965 8.965 0 0 0-12.678 0l-53.422 53.424Z" opacity=".207"/><path fill="none" stroke="#888" stroke-width="20" d="M150.5 453.5h229" data-name="Line 6"/><path fill="none" stroke="#fff" stroke-width="10" d="M150.5 493.5h134" data-name="Line 7"/></g></svg>