<svg xmlns="http://www.w3.org/2000/svg" width="1000" height="700"><defs><clipPath id="a"><path d="M0 0h1000v700H0z"/></clipPath></defs><g clip-path="url(#a)"><path fill="#fcfcff" d="M0 0h1000v700H0z"/><path fill="#d5d5d5" d="M723 138h178v162H723z"/><path fill="none" stroke="#d5d5d5" stroke-width="8" d="M134.5 300.201h547.472M99.5 334.893h582.676M99.5 369.586h582.676M99.5 439.405h582.676M157.5 404.278h524.693M157.5 474.097h524.693"/><path fill="none" stroke="#888" stroke-width="20" d="M325.5 156.245h356.837M428.5 213.336h253.249"/><path fill="none" stroke="#888" stroke-width="50" d="M499.5 561.336h183"/><path stroke="#449fdb" d="M762 174"/><path fill="#fff" d="M841.487 209.859a1.919 1.919 0 0 0-1.678-.988h-31.444v-31.395c0-.865-.193-1.62-1.031-1.853a1.674 1.674 0 0 0-1.963.877l-30.821 52.486a3.613 3.613 0 0 0 .037 2.7c.337.6 1.022 1.727 1.712 1.727h29v29.14a1.929 1.929 0 0 0 1.384 1.844 1.779 1.779 0 0 0 .534.074 1.916 1.916 0 0 0 1.623-.9l32.592-51.764a1.918 1.918 0 0 0 .055-1.948Z"/></g></svg>