<svg xmlns="http://www.w3.org/2000/svg" width="1000" height="700"><defs><clipPath id="a"><path d="M0 0h1000v700H0z"/></clipPath></defs><g clip-path="url(#a)"><path fill="#fcfcff" d="M0 0h1000v700H0z"/><path fill="#d5d5d5" d="M102 113h196v178H102z"/><path fill="none" stroke="#d5d5d5" stroke-width="8" d="M98.548 367.147h758.281M98.548 410.828h802.606M98.548 454.509h802.606M98.548 542.417h802.606M98.548 498.189h729.601M98.548 586.097h729.601"/><path fill="none" stroke="#888" stroke-width="20" d="M341.242 123.398H733.34M341.242 199.13h278.274"/><path stroke="#449fdb" d="M141 147"/><path fill="#fff" d="M237.933 190.872a2.34 2.34 0 0 0-2.046-1.2h-38.346v-38.29c0-1.055-.236-1.975-1.257-2.26a2.041 2.041 0 0 0-2.394 1.07l-37.586 64a4.405 4.405 0 0 0 .045 3.288c.412.726 1.246 2.106 2.087 2.106H193.8v35.539a2.352 2.352 0 0 0 1.687 2.248 2.17 2.17 0 0 0 .651.09 2.337 2.337 0 0 0 1.979-1.092l39.744-63.124a2.339 2.339 0 0 0 .067-2.376Z"/></g></svg>