<svg xmlns="http://www.w3.org/2000/svg" width="1000" height="700"><defs><clipPath id="a"><path d="M0 0h1000v700H0z"/></clipPath></defs><g clip-path="url(#a)"><path fill="#fcfcff" d="M0 0h1000v700H0z"/><path fill="#d5d5d5" d="M405 100h189v171H405z"/><path fill="none" stroke="#d5d5d5" stroke-width="8" d="M145.5 477.348h709.733M124.5 518.232h751.22M124.5 559.116h751.22M158.5 600h682.889"/><path fill="none" stroke="#888" stroke-width="20" d="M343.5 349.647h313.388M388.5 399.787h222.413"/><path stroke="#449fdb" d="M442 132"/><path fill="#fff" d="M536.205 174.747a2.274 2.274 0 0 0-1.989-1.171H496.95v-37.212c0-1.025-.229-1.92-1.222-2.2a1.984 1.984 0 0 0-2.327 1.04l-36.528 62.2a4.281 4.281 0 0 0 .044 3.2c.4.705 1.211 2.047 2.029 2.047h34.369v34.539a2.286 2.286 0 0 0 1.64 2.185 2.109 2.109 0 0 0 .633.087 2.271 2.271 0 0 0 1.923-1.062l38.628-61.345a2.273 2.273 0 0 0 .065-2.309Z"/></g></svg>