<svg xmlns="http://www.w3.org/2000/svg" width="1000" height="700"><defs><clipPath id="a"><path d="M0 0h1000v700H0z"/></clipPath></defs><g clip-path="url(#a)"><path fill="#fcfcff" d="M0 0h1000v700H0z"/><path fill="#d5d5d5" d="M99 100h246v224H99z"/><path stroke="#449fdb" d="M152 143"/><path fill="#fff" d="M272.63 197.591a2.912 2.912 0 0 0-2.547-1.5h-47.719v-47.644c0-1.313-.293-2.458-1.564-2.812a2.54 2.54 0 0 0-2.98 1.331l-46.774 79.652a5.482 5.482 0 0 0 .056 4.092c.512.9 1.55 2.621 2.6 2.621h44.007v44.228a2.927 2.927 0 0 0 2.1 2.8 2.7 2.7 0 0 0 .81.112 2.908 2.908 0 0 0 2.463-1.359l49.465-78.563a2.911 2.911 0 0 0 .083-2.958Z"/><path fill="none" stroke="#d5d5d5" stroke-width="8" d="M222.297 373.147h640.421M222.297 416.828h677.856M222.297 460.509h677.856M222.297 548.417h677.856M222.297 504.189h616.199M222.297 592.097h616.199"/><path fill="none" stroke="#888" stroke-width="20" d="M222.405 267.744h325.639"/></g></svg>