<svg xmlns="http://www.w3.org/2000/svg" width="1000" height="700"><defs><clipPath id="a"><path d="M0 0h1000v700H0z"/></clipPath></defs><g clip-path="url(#a)"><path fill="#fcfcff" d="M0 0h1000v700H0z"/><rect width="580" height="165" fill="#888" rx="10" transform="translate(210 160)"/><g fill="none" stroke="#888" stroke-width="5" transform="translate(210 375)"><rect width="580" height="165" stroke="none" rx="10"/><rect width="575" height="160" x="2.5" y="2.5" rx="7.5"/></g><rect width="317" height="25" fill="#fff" rx="5" transform="translate(287 232)"/><rect width="317" height="25" fill="#888" rx="5" transform="translate(287 447)"/><path stroke="#449fdb" d="M654 216"/><path fill="#fff" d="M714 229.25a6.248 6.248 0 0 0-6.25-6.25h-47.5a6.248 6.248 0 0 0-6.25 6.25v33.5a6.248 6.248 0 0 0 6.25 6.25h47.5a6.247 6.247 0 0 0 6.25-6.25Zm-7.3 30.89a1.255 1.255 0 0 1-1.766.082l-12.788-11.68-.964 1.058a8.958 8.958 0 0 1-13.352 0l-.964-1.056-12.788 11.678a1.257 1.257 0 0 1-.842.324 1.236 1.236 0 0 1-.922-.406 1.253 1.253 0 0 1 .08-1.766l12.788-11.674-12.87-14.068a1.251 1.251 0 0 1 1.848-1.686l15.516 16.964a6.61 6.61 0 0 0 9.666 0l15.486-16.944a1.251 1.251 0 0 1 1.848 1.688l-12.84 14.046 12.792 11.672a1.265 1.265 0 0 1 .072 1.768Z"/><path stroke="#449fdb" d="M654 431"/><path fill="#888" d="M714 444.25a6.248 6.248 0 0 0-6.25-6.25h-47.5a6.248 6.248 0 0 0-6.25 6.25v33.5a6.248 6.248 0 0 0 6.25 6.25h47.5a6.247 6.247 0 0 0 6.25-6.25Zm-7.3 30.89a1.255 1.255 0 0 1-1.766.082l-12.788-11.68-.964 1.058a8.958 8.958 0 0 1-13.352 0l-.964-1.056-12.788 11.678a1.257 1.257 0 0 1-.842.324 1.236 1.236 0 0 1-.922-.406 1.253 1.253 0 0 1 .08-1.766l12.788-11.674-12.87-14.068a1.251 1.251 0 0 1 1.848-1.686l15.516 16.964a6.61 6.61 0 0 0 9.666 0l15.486-16.944a1.251 1.251 0 0 1 1.848 1.688l-12.84 14.046 12.792 11.672a1.265 1.265 0 0 1 .072 1.768Z"/></g></svg>