<svg xmlns="http://www.w3.org/2000/svg" width="1000" height="700"><defs><clipPath id="a"><path d="M0 0h1000v700H0z"/></clipPath></defs><g clip-path="url(#a)"><path fill="#fcfcff" d="M0 0h1000v700H0z"/><rect width="492" height="165" fill="#888" rx="10" transform="translate(254 155)"/><rect width="492" height="165" fill="#888" rx="10" transform="translate(254 380)"/><rect width="317" height="25" fill="#fff" rx="5" transform="translate(342 225)"/><g fill="#f2f2f2" stroke-linecap="round" stroke-linejoin="round"><path d="m329.929 541.876-74.425-78.571 1.55-79.49 423.207-.466 63.348 80.32-1.3 77.857-412.38.35Z"/><path fill="#888" d="m330.144 541.376 411.673-.349 1.29-77.187-63.088-79.99-422.475.465-1.536 78.794 74.136 78.267m-.43 1L255 463.5l1.563-80.184 423.94-.467 63.61 80.651-1.312 78.526-413.087.35Z"/></g><rect width="317" height="25" fill="#888" rx="5" transform="translate(342 450)"/></g></svg>