<svg xmlns="http://www.w3.org/2000/svg" width="1000" height="700"><defs><clipPath id="a"><path d="M0 0h1000v700H0z"/></clipPath></defs><g clip-path="url(#a)"><path fill="#fcfcff" d="M0 0h1000v700H0z"/><rect width="492" height="165" fill="#888" rx="10" transform="translate(254 155)"/><g fill="none" stroke="#888" stroke-width="5" transform="translate(254 370)"><rect width="492" height="165" stroke="none" rx="10"/><rect width="487" height="160" x="2.5" y="2.5" rx="7.5"/></g><rect width="300" height="25" fill="#fff" rx="5" transform="translate(402 243)"/><rect width="287" height="25" fill="#888" rx="5" transform="translate(402 458)"/><rect width="220" height="11" fill="#fff" rx="3" transform="translate(402 208)"/><rect width="210" height="11" fill="#888" rx="3" transform="translate(402 423)"/><path stroke="#449fdb" d="M289 193"/><path fill="#fff" d="M368.431 258.169c-7.461-4.644-10.647-9.4-10.647-15.9 0-5.244 2.832-9.969 8.427-14.046a1.512 1.512 0 0 0 .606-1.062 1.48 1.48 0 0 0-.381-1.161c-5.121-5.649-10.491-8.394-16.422-8.394a30.072 30.072 0 0 0-10.569 2.385 16.1 16.1 0 0 1-4.563 1.278 18.357 18.357 0 0 1-4.407-1.179c-3.111-1.059-6.981-2.373-11.151-2.373-7.962 0-13.947 4.746-18.3 14.511-7.878 17.682 8.376 41.52 8.547 41.751 3.939 5.466 8.091 8.124 12.7 8.124a22.47 22.47 0 0 0 7.749-1.83 16.937 16.937 0 0 1 5.505-1.431 17.3 17.3 0 0 1 5.859 1.512 20.77 20.77 0 0 0 7.431 1.806c7.134 0 13.359-6.816 20.187-22.107a1.5 1.5 0 0 0-.57-1.884ZM333.748 215.839a10.509 10.509 0 0 0 1.305.078c4.245 0 8.835-2.46 12.276-6.579 3.633-4.344 5.226-9.538 4.371-14.259a1.494 1.494 0 0 0-1.611-1.227c-7.713.7-18.144 8.244-17.661 20.559a1.506 1.506 0 0 0 1.32 1.428Z"/><path stroke="#449fdb" d="M305 419"/><path fill="#888" d="m353.49 439.623-31.374-18.113 23.045 28.348ZM315.414 418.879c-.016 0-.011 0 0 0a.156.156 0 0 0-.027-.034c-4.085.129-6.366 3.54-6.366 8.563v51.025c0 5.089 2.26 8.513 6.445 8.567l27.615-34.255-27.667-33.866ZM321.505 484.685l32.162-18.579-8.51-10.469ZM364.316 445.871l-7.627-4.4-9.185 11.274 9.362 11.519 7.449-4.3c3.1-1.795 4.819-4.305 4.819-7.049s-1.711-5.247-4.818-7.044Z"/></g></svg>