<svg xmlns="http://www.w3.org/2000/svg" width="1000" height="700"><defs><clipPath id="a"><path d="M0 0h1000v700H0z"/></clipPath></defs><g clip-path="url(#a)"><path fill="#fcfcff" d="M0 0h1000v700H0z"/><rect width="580" height="165" fill="#888" rx="10" transform="translate(210 268)"/><rect width="271" height="25" fill="#fff" rx="5" transform="translate(308 338)"/><path stroke="#449fdb" d="M627 315"/><path fill="#fff" d="M679.856 337.378h-35.237a1.175 1.175 0 0 0-1.175 1.175V362.5c0 3.881 3.129 7.694 7.048 9.305v7.975a4.977 4.977 0 0 0 4.7 4.482 4.977 4.977 0 0 0 4.7-4.482v-7.164h4.7v7.167a4.977 4.977 0 0 0 4.7 4.482 4.977 4.977 0 0 0 4.7-4.482v-7.863c3.93-1.513 7.048-5.356 7.048-9.418v-23.949a1.177 1.177 0 0 0-1.175-1.175ZM643.68 333.74a1.129 1.129 0 0 0 .319.9 1.272 1.272 0 0 0 .919.385h34.692a1.286 1.286 0 0 0 .921-.385 1.132 1.132 0 0 0 .317-.9c-.679-6.5-3.221-10.181-6.653-12.242l2.763-3.4a1.133 1.133 0 0 0-.23-1.647 1.289 1.289 0 0 0-1.739.214l-3.052 3.762a27.417 27.417 0 0 0-9.672-1.419 26.265 26.265 0 0 0-10.228 1.642l-3.23-3.985a1.29 1.29 0 0 0-1.738-.216 1.142 1.142 0 0 0-.233 1.649l3.024 3.729c-3.185 2.107-5.535 5.725-6.178 11.913ZM688.666 337.378h-1.175a4.116 4.116 0 0 0-4.111 4.111v15.27a4.116 4.116 0 0 0 4.111 4.111h1.175a4.116 4.116 0 0 0 4.114-4.111v-15.27a4.116 4.116 0 0 0-4.114-4.111ZM636.984 337.378h-1.175a4.116 4.116 0 0 0-4.111 4.111v15.27a4.116 4.116 0 0 0 4.111 4.111h1.175a4.116 4.116 0 0 0 4.114-4.111v-15.27a4.116 4.116 0 0 0-4.114-4.111Z"/></g></svg>