<svg xmlns="http://www.w3.org/2000/svg" width="1000" height="700"><defs><clipPath id="a"><path d="M0 0h1000v700H0z"/></clipPath></defs><g clip-path="url(#a)"><path fill="#fcfcff" d="M0 0h1000v700H0z"/><rect width="317" height="25" fill="#888" rx="5" transform="translate(389 279)"/><rect width="317" height="25" fill="#888" rx="5" transform="translate(315 397)"/><path stroke="#449fdb" d="M295 261"/><path fill="#888" d="M317.5 320.5a1.968 1.968 0 0 1-.956-.246 2 2 0 0 1-.8-2.71L330.222 291l-14.476-26.542a2 2 0 0 1 3.512-1.914l15 27.5a2.006 2.006 0 0 1 0 1.914l-15 27.5a2 2 0 0 1-1.758 1.042Z"/><path stroke="#449fdb" d="M666 380"/><path fill="#888" d="M688.5 439.5a1.968 1.968 0 0 1-.956-.246 2 2 0 0 1-.8-2.71L701.222 410l-14.476-26.542a2 2 0 0 1 3.512-1.914l15 27.5a2.006 2.006 0 0 1 0 1.914l-15 27.5a2 2 0 0 1-1.758 1.042Z"/></g></svg>