<svg xmlns="http://www.w3.org/2000/svg" width="1000" height="700"><defs><clipPath id="a"><path d="M0 0h1000v700H0z"/></clipPath></defs><g clip-path="url(#a)"><path fill="#fcfcff" d="M0 0h1000v700H0z"/><rect width="317" height="25" fill="#888" rx="5" transform="translate(286 284)"/><rect width="317" height="25" fill="#888" rx="5" transform="translate(286 401)"/><path stroke="#449fdb" d="M652 267"/><path fill="#888" d="M679.988 278.508a2 2 0 1 0-3.472 1.984L685.95 297l-9.432 16.508a2 2 0 1 0 3.472 1.982l10-17.5a2 2 0 0 0 0-1.984l-10-17.5Z"/><path fill="#888" d="M682 267a30 30 0 1 0 30 30 30 30 0 0 0-30-30Zm0 56a26 26 0 1 1 26-26 26.03 26.03 0 0 1-26 26Z"/><path stroke="#449fdb" d="M676 384"/><path fill="#888" d="M703.988 395.508a2 2 0 1 0-3.472 1.984L709.95 414l-9.432 16.508a2 2 0 1 0 3.472 1.982l10-17.5a2 2 0 0 0 0-1.984l-10-17.5Z"/><path fill="none" stroke="#888" stroke-linecap="round" stroke-width="3" d="M651.529 413.5H708.5"/></g></svg>