<svg xmlns="http://www.w3.org/2000/svg" width="1000" height="700"><defs><clipPath id="a"><path d="M0 0h1000v700H0z"/></clipPath></defs><g clip-path="url(#a)"><path fill="#fcfcff" d="M0 0h1000v700H0z"/><rect width="580" height="165" fill="#888" rx="10" transform="translate(210 160)"/><g fill="none" stroke="#888" stroke-width="5" transform="translate(210 375)"><rect width="580" height="165" stroke="none" rx="10"/><rect width="575" height="160" x="2.5" y="2.5" rx="7.5"/></g><rect width="317" height="25" fill="#fff" rx="5" transform="translate(308 234)"/><rect width="317" height="25" fill="#888" rx="5" transform="translate(308 449)"/><path stroke="#449fdb" d="M654 217"/><path fill="#fff" d="M681.988 228.508a2 2 0 1 0-3.472 1.984L687.95 247l-9.432 16.508a2 2 0 1 0 3.472 1.982l10-17.5a2 2 0 0 0 0-1.984l-10-17.5Z"/><path stroke="#449fdb" d="M654 432"/><path fill="#888" d="M681.988 443.508a2 2 0 1 0-3.472 1.984L687.95 462l-9.432 16.508a2 2 0 1 0 3.472 1.982l10-17.5a2 2 0 0 0 0-1.984l-10-17.5Z"/></g></svg>